%TF.GenerationSoftware,KiCad,Pcbnew,6.0.7+dfsg-1build1*%
%TF.CreationDate,2023-01-16T17:35:33+01:00*%
%TF.ProjectId,JoeMBMS_V2.2,4a6f654d-424d-4535-9f56-322e322e6b69,rev?*%
%TF.SameCoordinates,Original*%
%TF.FileFunction,Soldermask,Top*%
%TF.FilePolarity,Negative*%
%FSLAX46Y46*%
G04 Gerber Fmt 4.6, Leading zero omitted, Abs format (unit mm)*
G04 Created by KiCad (PCBNEW 6.0.7+dfsg-1build1) date 2023-01-16 17:35:33*
%MOMM*%
%LPD*%
G01*
G04 APERTURE LIST*
G04 Aperture macros list*
%AMRoundRect*
0 Rectangle with rounded corners*
0 $1 Rounding radius*
0 $2 $3 $4 $5 $6 $7 $8 $9 X,Y pos of 4 corners*
0 Add a 4 corners polygon primitive as box body*
4,1,4,$2,$3,$4,$5,$6,$7,$8,$9,$2,$3,0*
0 Add four circle primitives for the rounded corners*
1,1,$1+$1,$2,$3*
1,1,$1+$1,$4,$5*
1,1,$1+$1,$6,$7*
1,1,$1+$1,$8,$9*
0 Add four rect primitives between the rounded corners*
20,1,$1+$1,$2,$3,$4,$5,0*
20,1,$1+$1,$4,$5,$6,$7,0*
20,1,$1+$1,$6,$7,$8,$9,0*
20,1,$1+$1,$8,$9,$2,$3,0*%
G04 Aperture macros list end*
%ADD10RoundRect,0.250000X-0.550000X1.412500X-0.550000X-1.412500X0.550000X-1.412500X0.550000X1.412500X0*%
%ADD11RoundRect,0.250000X0.475000X-0.250000X0.475000X0.250000X-0.475000X0.250000X-0.475000X-0.250000X0*%
%ADD12RoundRect,0.249998X0.262502X0.450002X-0.262502X0.450002X-0.262502X-0.450002X0.262502X-0.450002X0*%
%ADD13R,1.193800X0.812800*%
%ADD14R,1.800000X1.800000*%
%ADD15C,1.800000*%
%ADD16R,2.200000X1.200000*%
%ADD17R,6.400000X5.800000*%
%ADD18R,1.780000X0.720000*%
%ADD19RoundRect,0.249998X0.450002X-0.262502X0.450002X0.262502X-0.450002X0.262502X-0.450002X-0.262502X0*%
%ADD20RoundRect,0.250000X0.250000X0.475000X-0.250000X0.475000X-0.250000X-0.475000X0.250000X-0.475000X0*%
%ADD21RoundRect,0.249998X-0.450002X0.262502X-0.450002X-0.262502X0.450002X-0.262502X0.450002X0.262502X0*%
%ADD22R,1.950000X1.950000*%
%ADD23C,1.950000*%
%ADD24C,1.150000*%
%ADD25C,2.050000*%
%ADD26RoundRect,0.249998X-0.262502X-0.450002X0.262502X-0.450002X0.262502X0.450002X-0.262502X0.450002X0*%
%ADD27R,0.650000X1.310000*%
%ADD28R,2.900000X1.025000*%
%ADD29RoundRect,0.250000X-0.475000X0.250000X-0.475000X-0.250000X0.475000X-0.250000X0.475000X0.250000X0*%
%ADD30R,1.600000X1.600000*%
%ADD31C,1.600000*%
%ADD32R,1.700000X1.700000*%
%ADD33O,1.700000X1.700000*%
%ADD34RoundRect,0.150000X-0.825000X-0.150000X0.825000X-0.150000X0.825000X0.150000X-0.825000X0.150000X0*%
G04 APERTURE END LIST*
D10*
%TO.C,C5*%
X132750000Y-107962500D03*
X132750000Y-113037500D03*
%TD*%
D11*
%TO.C,C6*%
X146250000Y-111250000D03*
X146250000Y-109350000D03*
%TD*%
D12*
%TO.C,R6*%
X155412500Y-78675000D03*
X153587500Y-78675000D03*
%TD*%
%TO.C,R18*%
X146662500Y-86750000D03*
X144837500Y-86750000D03*
%TD*%
D13*
%TO.C,U4*%
X163649999Y-79945000D03*
X163649999Y-78675000D03*
X163649999Y-77405000D03*
X163649999Y-76135000D03*
X163649999Y-74865000D03*
X163649999Y-73595000D03*
X163649999Y-72325000D03*
X163649999Y-71055000D03*
X157350001Y-71055000D03*
X157350001Y-72325000D03*
X157350001Y-73595000D03*
X157350001Y-74865000D03*
X157350001Y-76135000D03*
X157350001Y-77405000D03*
X157350001Y-78675000D03*
X157350001Y-79945000D03*
%TD*%
D14*
%TO.C,U3*%
X150600000Y-104000000D03*
D15*
X153140000Y-104000000D03*
X155680000Y-104000000D03*
%TD*%
D12*
%TO.C,R7*%
X155412500Y-76135000D03*
X153587500Y-76135000D03*
%TD*%
D16*
%TO.C,Q3*%
X126700000Y-112780000D03*
D17*
X120400000Y-110500000D03*
D16*
X126700000Y-108220000D03*
%TD*%
D12*
%TO.C,R9*%
X155412500Y-71055000D03*
X153587500Y-71055000D03*
%TD*%
%TO.C,R10*%
X126825000Y-100000000D03*
X125000000Y-100000000D03*
%TD*%
%TO.C,R3*%
X167412500Y-77405000D03*
X165587500Y-77405000D03*
%TD*%
D18*
%TO.C,Q2*%
X123110000Y-98905000D03*
X123110000Y-97635000D03*
X123110000Y-96365000D03*
X123110000Y-95095000D03*
X117890000Y-95095000D03*
X117890000Y-96365000D03*
X117890000Y-97635000D03*
X117890000Y-98905000D03*
%TD*%
D12*
%TO.C,R2*%
X167412500Y-79945000D03*
X165587500Y-79945000D03*
%TD*%
D19*
%TO.C,R24*%
X102800000Y-79962500D03*
X102800000Y-78137500D03*
%TD*%
D10*
%TO.C,C8*%
X140500000Y-107962500D03*
X140500000Y-113037500D03*
%TD*%
D11*
%TO.C,C2*%
X147250000Y-56700000D03*
X147250000Y-54800000D03*
%TD*%
D12*
%TO.C,R5*%
X167412500Y-72325000D03*
X165587500Y-72325000D03*
%TD*%
D20*
%TO.C,C3*%
X161450000Y-82150000D03*
X159550000Y-82150000D03*
%TD*%
D12*
%TO.C,R11*%
X126825000Y-98000000D03*
X125000000Y-98000000D03*
%TD*%
%TO.C,R13*%
X126825000Y-94000000D03*
X125000000Y-94000000D03*
%TD*%
%TO.C,R8*%
X155412500Y-73595000D03*
X153587500Y-73595000D03*
%TD*%
D19*
%TO.C,R20*%
X143000000Y-86662500D03*
X143000000Y-84837500D03*
%TD*%
D12*
%TO.C,R12*%
X126825000Y-96000000D03*
X125000000Y-96000000D03*
%TD*%
D21*
%TO.C,R23*%
X143000000Y-79837500D03*
X143000000Y-81662500D03*
%TD*%
%TO.C,R1*%
X143000000Y-59587500D03*
X143000000Y-61412500D03*
%TD*%
D10*
%TO.C,C7*%
X162500000Y-107962500D03*
X162500000Y-113037500D03*
%TD*%
D22*
%TO.C,J1*%
X112700000Y-75100000D03*
D23*
X110200000Y-75100000D03*
X107700000Y-75100000D03*
X105200000Y-75100000D03*
X112700000Y-77600000D03*
X110200000Y-77600000D03*
X107700000Y-77600000D03*
X105200000Y-77600000D03*
X112700000Y-80100000D03*
X110200000Y-80100000D03*
X107700000Y-80100000D03*
X105200000Y-80100000D03*
X112700000Y-82600000D03*
X110200000Y-82600000D03*
X107700000Y-82600000D03*
X105200000Y-82600000D03*
X112700000Y-85100000D03*
X110200000Y-85100000D03*
X107700000Y-85100000D03*
X105200000Y-85100000D03*
X112700000Y-87600000D03*
X110200000Y-87600000D03*
X107700000Y-87600000D03*
X105200000Y-87600000D03*
X112700000Y-90100000D03*
X110200000Y-90100000D03*
X107700000Y-90100000D03*
X105200000Y-90100000D03*
X112700000Y-92600000D03*
X110200000Y-92600000D03*
X107700000Y-92600000D03*
X105200000Y-92600000D03*
X112700000Y-95100000D03*
X110200000Y-95100000D03*
X107700000Y-95100000D03*
X105200000Y-95100000D03*
X112700000Y-97600000D03*
X110200000Y-97600000D03*
X107700000Y-97600000D03*
X105200000Y-97600000D03*
X112700000Y-101100000D03*
X110200000Y-101100000D03*
X107700000Y-101100000D03*
X105200000Y-101100000D03*
X112700000Y-104800000D03*
X110200000Y-104800000D03*
X107700000Y-104800000D03*
X105200000Y-104800000D03*
D24*
X113700000Y-68650000D03*
X113700000Y-111250000D03*
D25*
X109850000Y-64550000D03*
X109850000Y-115350000D03*
%TD*%
D12*
%TO.C,R4*%
X167412500Y-74865000D03*
X165587500Y-74865000D03*
%TD*%
%TO.C,R21*%
X146662500Y-79750000D03*
X144837500Y-79750000D03*
%TD*%
D26*
%TO.C,R22*%
X144837500Y-81750000D03*
X146662500Y-81750000D03*
%TD*%
D12*
%TO.C,R15*%
X126825000Y-89750000D03*
X125000000Y-89750000D03*
%TD*%
D18*
%TO.C,Q1*%
X123110000Y-90655000D03*
X123110000Y-89385000D03*
X123110000Y-88115000D03*
X123110000Y-86845000D03*
X117890000Y-86845000D03*
X117890000Y-88115000D03*
X117890000Y-89385000D03*
X117890000Y-90655000D03*
%TD*%
D12*
%TO.C,R14*%
X126825000Y-91750000D03*
X125000000Y-91750000D03*
%TD*%
%TO.C,R17*%
X126825000Y-85750000D03*
X125000000Y-85750000D03*
%TD*%
%TO.C,R16*%
X126825000Y-87750000D03*
X125000000Y-87750000D03*
%TD*%
D27*
%TO.C,S1*%
X120440000Y-80595000D03*
X121710000Y-80595000D03*
X122980000Y-80595000D03*
X124250000Y-80595000D03*
X125520000Y-80595000D03*
X126790000Y-80595000D03*
X128060000Y-80595000D03*
X128060000Y-74905000D03*
X126790000Y-74905000D03*
X125520000Y-74905000D03*
X124250000Y-74905000D03*
X122980000Y-74905000D03*
X121710000Y-74905000D03*
X120440000Y-74905000D03*
D28*
X125900000Y-77037500D03*
X125900000Y-78462500D03*
X122600000Y-78462500D03*
X122600000Y-77037500D03*
%TD*%
D29*
%TO.C,C1*%
X140900000Y-59550000D03*
X140900000Y-61450000D03*
%TD*%
D26*
%TO.C,R19*%
X144837500Y-84750000D03*
X146662500Y-84750000D03*
%TD*%
D30*
%TO.C,U1*%
X134380000Y-54490000D03*
D31*
X134380000Y-57030000D03*
X134380000Y-59570000D03*
X134380000Y-62110000D03*
X134380000Y-64650000D03*
X134380000Y-67190000D03*
X134380000Y-69730000D03*
X134380000Y-72270000D03*
X134380000Y-74810000D03*
X134380000Y-77350000D03*
X134380000Y-79890000D03*
X134380000Y-82430000D03*
X134380000Y-84970000D03*
X134380000Y-87510000D03*
X149620000Y-87510000D03*
X149620000Y-84970000D03*
X149620000Y-82430000D03*
X149620000Y-79890000D03*
X149620000Y-77350000D03*
X149620000Y-74810000D03*
X149620000Y-72270000D03*
X149620000Y-69730000D03*
X149620000Y-67190000D03*
X149620000Y-64650000D03*
X149620000Y-62110000D03*
X149620000Y-59570000D03*
X149620000Y-57030000D03*
X149620000Y-54490000D03*
%TD*%
D32*
%TO.C,REF\u002A\u002A*%
X139550000Y-53775000D03*
D33*
X142090000Y-53775000D03*
%TD*%
D34*
%TO.C,U2*%
X137750000Y-63345000D03*
X137750000Y-64615000D03*
X137750000Y-65885000D03*
X137750000Y-67155000D03*
X142700000Y-67155000D03*
X142700000Y-65885000D03*
X142700000Y-64615000D03*
X142700000Y-63345000D03*
%TD*%
M02*
