%TF.GenerationSoftware,KiCad,Pcbnew,6.0.11+dfsg-1*%
%TF.CreationDate,2023-10-22T17:13:00+02:00*%
%TF.ProjectId,JoeMBMS_V3.0,4a6f654d-424d-4535-9f56-332e302e6b69,rev?*%
%TF.SameCoordinates,Original*%
%TF.FileFunction,Copper,L2,Bot*%
%TF.FilePolarity,Positive*%
%FSLAX46Y46*%
G04 Gerber Fmt 4.6, Leading zero omitted, Abs format (unit mm)*
G04 Created by KiCad (PCBNEW 6.0.11+dfsg-1) date 2023-10-22 17:13:00*
%MOMM*%
%LPD*%
G01*
G04 APERTURE LIST*
%TA.AperFunction,ComponentPad*%
%ADD10R,1.800000X1.800000*%
%TD*%
%TA.AperFunction,ComponentPad*%
%ADD11C,1.800000*%
%TD*%
%TA.AperFunction,ComponentPad*%
%ADD12R,1.950000X1.950000*%
%TD*%
%TA.AperFunction,ComponentPad*%
%ADD13C,1.950000*%
%TD*%
%TA.AperFunction,ComponentPad*%
%ADD14C,1.150000*%
%TD*%
%TA.AperFunction,ComponentPad*%
%ADD15C,2.050000*%
%TD*%
%TA.AperFunction,ComponentPad*%
%ADD16C,1.600000*%
%TD*%
%TA.AperFunction,ComponentPad*%
%ADD17C,1.304000*%
%TD*%
%TA.AperFunction,ViaPad*%
%ADD18C,0.800000*%
%TD*%
%TA.AperFunction,Conductor*%
%ADD19C,0.250000*%
%TD*%
%TA.AperFunction,Conductor*%
%ADD20C,0.200000*%
%TD*%
G04 APERTURE END LIST*
D10*
%TO.P,U3,1,IN*%
%TO.N,+12V*%
X150600000Y-104000000D03*
D11*
%TO.P,U3,2,GND*%
%TO.N,GND*%
X153140000Y-104000000D03*
%TO.P,U3,3,OUT*%
%TO.N,+5V*%
X155680000Y-104000000D03*
%TD*%
D12*
%TO.P,J1,A1,A1*%
%TO.N,J1_OUT3*%
X112700000Y-75100000D03*
D13*
%TO.P,J1,A2,A2*%
%TO.N,Teensy_Serial_BMS_RX*%
X110200000Y-75100000D03*
%TO.P,J1,A3,A3*%
%TO.N,GND*%
X107700000Y-75100000D03*
%TO.P,J1,A4,A4*%
%TO.N,J1_CAN2_L*%
X105200000Y-75100000D03*
%TO.P,J1,B1,B1*%
%TO.N,J1_OUT4*%
X112700000Y-77600000D03*
%TO.P,J1,B2,B2*%
%TO.N,Teensy_Serial_BMS_TX*%
X110200000Y-77600000D03*
%TO.P,J1,B3,B3*%
%TO.N,+5V*%
X107700000Y-77600000D03*
%TO.P,J1,B4,B4*%
%TO.N,J1_CAN2_H*%
X105200000Y-77600000D03*
%TO.P,J1,C1,C1*%
%TO.N,J1_OUT2*%
X112700000Y-80100000D03*
%TO.P,J1,C2,C2*%
%TO.N,Teensy_Serial_RX*%
X110200000Y-80100000D03*
%TO.P,J1,C3,C3*%
%TO.N,GND*%
X107700000Y-80100000D03*
%TO.P,J1,C4,C4*%
%TO.N,J1_CAN2_H*%
X105200000Y-80100000D03*
%TO.P,J1,D1,D1*%
%TO.N,J1_OUT1*%
X112700000Y-82600000D03*
%TO.P,J1,D2,D2*%
%TO.N,Teensy_Serial_TX*%
X110200000Y-82600000D03*
%TO.P,J1,D3,D3*%
%TO.N,+5V*%
X107700000Y-82600000D03*
%TO.P,J1,D4,D4*%
%TO.N,J1_CAN2_T2*%
X105200000Y-82600000D03*
%TO.P,J1,E1,E1*%
%TO.N,J1_OUT8*%
X112700000Y-85100000D03*
%TO.P,J1,E2,E2*%
%TO.N,J1_ASEN1*%
X110200000Y-85100000D03*
%TO.P,J1,E3,E3*%
%TO.N,GND*%
X107700000Y-85100000D03*
%TO.P,J1,E4,E4*%
%TO.N,+5V*%
X105200000Y-85100000D03*
%TO.P,J1,F1,F1*%
%TO.N,J1_OUT7*%
X112700000Y-87600000D03*
%TO.P,J1,F2,F2*%
%TO.N,J1_ASEN2*%
X110200000Y-87600000D03*
%TO.P,J1,F3,F3*%
%TO.N,+5V*%
X107700000Y-87600000D03*
%TO.P,J1,F4,F4*%
%TO.N,Teensy_D-*%
X105200000Y-87600000D03*
%TO.P,J1,G1,G1*%
%TO.N,J1_OUT5*%
X112700000Y-90100000D03*
%TO.P,J1,G2,G2*%
%TO.N,J1_IN4*%
X110200000Y-90100000D03*
%TO.P,J1,G3,G3*%
%TO.N,unconnected-(J1-PadG3)*%
X107700000Y-90100000D03*
%TO.P,J1,G4,G4*%
%TO.N,Teensy_D+*%
X105200000Y-90100000D03*
%TO.P,J1,H1,H1*%
%TO.N,J1_OUT6*%
X112700000Y-92600000D03*
%TO.P,J1,H2,H2*%
%TO.N,J1_IN3*%
X110200000Y-92600000D03*
%TO.P,J1,H3,H3*%
%TO.N,unconnected-(J1-PadH3)*%
X107700000Y-92600000D03*
%TO.P,J1,H4,H4*%
%TO.N,GND*%
X105200000Y-92600000D03*
%TO.P,J1,J1,J1*%
%TO.N,unconnected-(J1-PadJ1)*%
X112700000Y-95100000D03*
%TO.P,J1,J2,J2*%
%TO.N,J1_IN1*%
X110200000Y-95100000D03*
%TO.P,J1,J3,J3*%
%TO.N,J1_CAN1_T2*%
X107700000Y-95100000D03*
%TO.P,J1,J4,J4*%
%TO.N,J1_CAN1_L*%
X105200000Y-95100000D03*
%TO.P,J1,K1,K1*%
%TO.N,unconnected-(J1-PadK1)*%
X112700000Y-97600000D03*
%TO.P,J1,K2,K2*%
%TO.N,J1_IN2*%
X110200000Y-97600000D03*
%TO.P,J1,K3,K3*%
%TO.N,J1_CAN1_H*%
X107700000Y-97600000D03*
%TO.P,J1,K4,K4*%
X105200000Y-97600000D03*
%TO.P,J1,L1,L1*%
%TO.N,J1_12V*%
X112700000Y-101100000D03*
%TO.P,J1,L2,L2*%
%TO.N,unconnected-(J1-PadL2)*%
X110200000Y-101100000D03*
%TO.P,J1,L3,L3*%
%TO.N,unconnected-(J1-PadL3)*%
X107700000Y-101100000D03*
%TO.P,J1,L4,L4*%
%TO.N,GND*%
X105200000Y-101100000D03*
%TO.P,J1,M1,M1*%
%TO.N,J1_12V*%
X112700000Y-104800000D03*
%TO.P,J1,M2,M2*%
%TO.N,unconnected-(J1-PadM2)*%
X110200000Y-104800000D03*
%TO.P,J1,M3,M3*%
%TO.N,unconnected-(J1-PadM3)*%
X107700000Y-104800000D03*
%TO.P,J1,M4,M4*%
%TO.N,GND*%
X105200000Y-104800000D03*
D14*
%TO.P,J1,MH1*%
%TO.N,N/C*%
X113700000Y-68650000D03*
%TO.P,J1,MH2*%
X113700000Y-111250000D03*
D15*
%TO.P,J1,MH3*%
X109850000Y-64550000D03*
%TO.P,J1,MH4*%
X109850000Y-115350000D03*
%TD*%
D16*
%TO.P,U1,1,GND*%
%TO.N,GND*%
X134380000Y-54495000D03*
%TO.P,U1,2,0_RX1_CRX2_CS1*%
%TO.N,Teensy_CAN2_RX*%
X134380000Y-57035000D03*
%TO.P,U1,3,1_TX1_CTX2_MISO1*%
%TO.N,Teensy_CAN2_TX*%
X134380000Y-59575000D03*
%TO.P,U1,4,2_OUT2*%
%TO.N,unconnected-(U1-Pad4)*%
X134380000Y-62115000D03*
%TO.P,U1,5,3_LRCLK2*%
%TO.N,Teensy_OUT4*%
X134380000Y-64655000D03*
%TO.P,U1,6,4_BCLK2*%
%TO.N,Teensy_OUT3*%
X134380000Y-67195000D03*
%TO.P,U1,7,5_IN2*%
%TO.N,Teensy_OUT2*%
X134380000Y-69735000D03*
%TO.P,U1,8,6_OUT1D*%
%TO.N,Teensy_OUT1*%
X134380000Y-72275000D03*
%TO.P,U1,9,7_RX2_OUT1A*%
%TO.N,Teensy_Serial_BMS_RX*%
X134380000Y-74815000D03*
%TO.P,U1,10,8_TX2_IN1*%
%TO.N,Teensy_Serial_BMS_TX*%
X134380000Y-77355000D03*
%TO.P,U1,11,9_OUT1C*%
%TO.N,Teensy_OUT8*%
X134380000Y-79895000D03*
%TO.P,U1,12,10_CS_MQSR*%
%TO.N,Teensy_OUT7*%
X134380000Y-82435000D03*
%TO.P,U1,13,11_MOSI_CTX1*%
%TO.N,Teensy_OUT5*%
X134380000Y-84975000D03*
%TO.P,U1,14,12_MISO_MQSL*%
%TO.N,Teensy_OUT6*%
X134380000Y-87515000D03*
%TO.P,U1,20,13_SCK_CRX1_LED*%
%TO.N,unconnected-(U1-Pad20)*%
X149620000Y-87515000D03*
%TO.P,U1,21,14_A0_TX3_SPDIF_OUT*%
%TO.N,Teensy_ASEN2*%
X149620000Y-84975000D03*
%TO.P,U1,22,15_A1_RX3_SPDIF_IN*%
%TO.N,Teensy_ASEN1*%
X149620000Y-82435000D03*
%TO.P,U1,23,16_A2_RX4_SCL1*%
%TO.N,Teensy_Serial_RX*%
X149620000Y-79895000D03*
%TO.P,U1,24,17_A3_TX4_SDA1*%
%TO.N,Teensy_Serial_TX*%
X149620000Y-77355000D03*
%TO.P,U1,25,18_A4_SDA0*%
%TO.N,Teensy_IN2*%
X149620000Y-74815000D03*
%TO.P,U1,26,19_A5_SCL0*%
%TO.N,Teensy_IN1*%
X149620000Y-72275000D03*
%TO.P,U1,27,20_A6_TX5_LRCLK1*%
%TO.N,Teensy_IN3*%
X149620000Y-69735000D03*
%TO.P,U1,28,21_A7_RX5_BCLK1*%
%TO.N,Teensy_IN4*%
X149620000Y-67195000D03*
%TO.P,U1,29,22_A8_CTX1*%
%TO.N,Teensy_CAN1_TX*%
X149620000Y-64655000D03*
%TO.P,U1,30,23_A9_CRX1_MCLK1*%
%TO.N,Teensy_CAN1_RX*%
X149620000Y-62115000D03*
%TO.P,U1,31,3V3*%
%TO.N,unconnected-(U1-Pad31)*%
X149620000Y-59575000D03*
%TO.P,U1,32,GND*%
%TO.N,GND*%
X149620000Y-57035000D03*
%TO.P,U1,33,VIN*%
%TO.N,+5V*%
X149620000Y-54495000D03*
D17*
%TO.P,U1,53,D-*%
%TO.N,Teensy_D-*%
X143268000Y-55737000D03*
%TO.P,U1,54,D+*%
%TO.N,Teensy_D+*%
X140728000Y-55737000D03*
%TD*%
D18*
%TO.N,GND*%
X162500000Y-115750000D03*
X143000000Y-87950000D03*
X121550000Y-88115000D03*
X132750000Y-115750000D03*
X129370000Y-63490000D03*
X141090000Y-81670000D03*
X152584200Y-71071300D03*
X152584200Y-73611300D03*
X140500000Y-115750000D03*
X152584200Y-65991300D03*
X121050000Y-84390000D03*
X121550000Y-90655000D03*
X162534200Y-69786300D03*
X162407600Y-57454800D03*
X124900000Y-73400000D03*
X152584200Y-68531300D03*
X121550000Y-99445000D03*
X121550000Y-101985000D03*
%TO.N,Teensy_OUT8*%
X132190000Y-81940000D03*
X128130000Y-85750000D03*
%TO.N,Teensy_OUT7*%
X128130000Y-88660000D03*
%TO.N,Teensy_OUT5*%
X128130000Y-89980000D03*
%TO.N,Teensy_OUT6*%
X129210000Y-89980000D03*
%TO.N,J1_IN4*%
X168884200Y-67261300D03*
%TO.N,J1_IN3*%
X168884200Y-69801300D03*
%TO.N,J1_IN2*%
X168884200Y-74881300D03*
%TO.N,J1_IN1*%
X168884200Y-72341300D03*
%TO.N,J1_ASEN2*%
X144837500Y-88250000D03*
%TO.N,J1_ASEN1*%
X144837500Y-78250000D03*
%TO.N,J1_CAN2_L*%
X120210000Y-69050000D03*
%TO.N,J1_CAN2_H*%
X121200000Y-68540000D03*
%TO.N,J1_CAN1_L*%
X155981400Y-59791600D03*
%TO.N,J1_CAN1_H*%
X157251400Y-59283600D03*
%TD*%
D19*
%TO.N,Teensy_Serial_BMS_RX*%
X132889999Y-76300001D02*
X111400001Y-76300001D01*
%TO.N,J1_ASEN2*%
X116510928Y-79550010D02*
X132075036Y-79550010D01*
%TO.N,Teensy_OUT8*%
X131940000Y-81940000D02*
X128130000Y-85750000D01*
X132190000Y-81940000D02*
X131940000Y-81940000D01*
%TO.N,Teensy_OUT7*%
X134380000Y-82435000D02*
X128155000Y-88660000D01*
X128155000Y-88660000D02*
X128130000Y-88660000D01*
%TO.N,Teensy_OUT5*%
X133135000Y-84975000D02*
X128130000Y-89980000D01*
X134380000Y-84975000D02*
X133135000Y-84975000D01*
%TO.N,Teensy_OUT6*%
X134380000Y-87515000D02*
X131675000Y-87515000D01*
X131675000Y-87515000D02*
X129210000Y-89980000D01*
%TO.N,J1_IN4*%
X168884200Y-68910600D02*
X167909200Y-69885600D01*
X150180053Y-91399999D02*
X111499999Y-91399999D01*
X167909200Y-73670852D02*
X150180053Y-91399999D01*
X167909200Y-69885600D02*
X167909200Y-73670852D01*
X168884200Y-67261300D02*
X168884200Y-68910600D01*
X111499999Y-91399999D02*
X110200000Y-90100000D01*
%TO.N,J1_IN3*%
X168884200Y-69801300D02*
X168884200Y-71399800D01*
X168259200Y-73815826D02*
X150175026Y-91900000D01*
X168884200Y-71399800D02*
X168259200Y-72024800D01*
X115100000Y-91900000D02*
X113199999Y-93800001D01*
X111400001Y-93800001D02*
X110200000Y-92600000D01*
X150175026Y-91900000D02*
X115100000Y-91900000D01*
X168259200Y-72024800D02*
X168259200Y-73815826D01*
X113199999Y-93800001D02*
X111400001Y-93800001D01*
%TO.N,J1_IN2*%
X115794968Y-92600020D02*
X150499980Y-92600020D01*
X114700000Y-93694988D02*
X115794968Y-92600020D01*
X110200000Y-97600000D02*
X111400001Y-98800001D01*
X113276001Y-98800001D02*
X114700000Y-97376002D01*
X168884200Y-74881300D02*
X168218700Y-74881300D01*
X168218700Y-74881300D02*
X150499980Y-92600020D01*
X111400001Y-98800001D02*
X113276001Y-98800001D01*
X114700000Y-97376002D02*
X114700000Y-93694988D01*
%TO.N,J1_IN1*%
X149654010Y-92250010D02*
X150349990Y-92250010D01*
X150319990Y-92250010D02*
X149654010Y-92250010D01*
X114150000Y-95426002D02*
X114150000Y-93750000D01*
X114150000Y-93750000D02*
X115649990Y-92250010D01*
X168884200Y-72341300D02*
X168884200Y-73685800D01*
X168884200Y-73685800D02*
X150319990Y-92250010D01*
X115649990Y-92250010D02*
X149654010Y-92250010D01*
X110200000Y-95100000D02*
X111400001Y-96300001D01*
X111400001Y-96300001D02*
X113276001Y-96300001D01*
X113276001Y-96300001D02*
X114150000Y-95426002D01*
%TO.N,J1_ASEN2*%
X114775000Y-81285938D02*
X116510928Y-79550010D01*
X136599543Y-79620000D02*
X141940000Y-79620000D01*
X141940000Y-79620000D02*
X144837500Y-82517500D01*
X114775000Y-87222057D02*
X114775000Y-81285938D01*
X133899595Y-81374569D02*
X134844974Y-81374569D01*
X110200000Y-87600000D02*
X111450000Y-88850000D01*
X144837500Y-82517500D02*
X144837500Y-88250000D01*
X132075036Y-79550010D02*
X133899595Y-81374569D01*
X134844974Y-81374569D02*
X136599543Y-79620000D01*
X111450000Y-88850000D02*
X113147057Y-88850000D01*
X113147057Y-88850000D02*
X114775000Y-87222057D01*
%TO.N,J1_ASEN1*%
X134700000Y-81024569D02*
X134044569Y-81024569D01*
X114425000Y-85072057D02*
X113197057Y-86300000D01*
X142940000Y-78250000D02*
X141920000Y-79270000D01*
X111400000Y-86300000D02*
X110200000Y-85100000D01*
X114425000Y-81140964D02*
X114425000Y-85072057D01*
X134044569Y-81024569D02*
X132220010Y-79200010D01*
X136454569Y-79270000D02*
X134700000Y-81024569D01*
X144837500Y-78250000D02*
X142940000Y-78250000D01*
X113197057Y-86300000D02*
X111400000Y-86300000D01*
X141920000Y-79270000D02*
X136454569Y-79270000D01*
X132220010Y-79200010D02*
X116365954Y-79200010D01*
X116365954Y-79200010D02*
X114425000Y-81140964D01*
%TO.N,Teensy_D+*%
X105200000Y-90100000D02*
X103299983Y-88199983D01*
D20*
X133187506Y-65730000D02*
X135732494Y-65730000D01*
X139550000Y-61912494D02*
X139550000Y-56915000D01*
X135732494Y-65730000D02*
X139550000Y-61912494D01*
D19*
X115485024Y-71075000D02*
X119110024Y-67450000D01*
D20*
X131467506Y-67450000D02*
X133187506Y-65730000D01*
D19*
X103299983Y-74205029D02*
X106385012Y-71120000D01*
D20*
X139550000Y-56915000D02*
X140728000Y-55737000D01*
D19*
X106385012Y-71120000D02*
X115440038Y-71120000D01*
D20*
X131380012Y-67450000D02*
X131467506Y-67450000D01*
D19*
X103299983Y-88199983D02*
X103299983Y-74205029D01*
X119110024Y-67450000D02*
X131380012Y-67450000D01*
%TO.N,Teensy_D-*%
X103649989Y-74350011D02*
X106350000Y-71650000D01*
D20*
X139850000Y-57039264D02*
X139850000Y-62036758D01*
X135831758Y-66055000D02*
X133286770Y-66055000D01*
X139850000Y-62036758D02*
X135831758Y-66055000D01*
X142415000Y-56590000D02*
X140299264Y-56590000D01*
X131476779Y-67864991D02*
X131460009Y-67864991D01*
X143268000Y-55737000D02*
X142415000Y-56590000D01*
X140299264Y-56590000D02*
X139850000Y-57039264D01*
D19*
X103649989Y-86049989D02*
X103649989Y-74350011D01*
X115405012Y-71650000D02*
X119190021Y-67864991D01*
D20*
X133286770Y-66055000D02*
X131476779Y-67864991D01*
D19*
X106350000Y-71650000D02*
X115405012Y-71650000D01*
X119190021Y-67864991D02*
X131460009Y-67864991D01*
X105200000Y-87600000D02*
X103649989Y-86049989D01*
%TO.N,Teensy_Serial_BMS_RX*%
X134380000Y-74810000D02*
X132889999Y-76300001D01*
X111400001Y-76300001D02*
X110200000Y-75100000D01*
%TO.N,Teensy_Serial_BMS_TX*%
X134380000Y-77350000D02*
X133248630Y-77350000D01*
X115425991Y-76650011D02*
X113276001Y-78800001D01*
X113276001Y-78800001D02*
X111400001Y-78800001D01*
X133248630Y-77350000D02*
X132548641Y-76650011D01*
X132548641Y-76650011D02*
X115425991Y-76650011D01*
X111400001Y-78800001D02*
X110200000Y-77600000D01*
%TO.N,Teensy_Serial_RX*%
X150825200Y-76911200D02*
X150825200Y-78689800D01*
X148082000Y-76911200D02*
X148663200Y-76330000D01*
X150244000Y-76330000D02*
X150825200Y-76911200D01*
X110200000Y-80100000D02*
X111400001Y-81300001D01*
X143259942Y-76911200D02*
X148082000Y-76911200D01*
X111400001Y-81300001D02*
X113276001Y-81300001D01*
X113276001Y-81300001D02*
X116076002Y-78500000D01*
X148663200Y-76330000D02*
X150244000Y-76330000D01*
X141671142Y-78500000D02*
X143259942Y-76911200D01*
X150825200Y-78689800D02*
X149620000Y-79895000D01*
X116076002Y-78500000D02*
X141671142Y-78500000D01*
%TO.N,Teensy_Serial_TX*%
X113199999Y-83800001D02*
X114075000Y-82925000D01*
X114075000Y-80995990D02*
X116220980Y-78850010D01*
X111400001Y-83800001D02*
X113199999Y-83800001D01*
X114075000Y-82925000D02*
X114075000Y-80995990D01*
X141816106Y-78850010D02*
X143311116Y-77355000D01*
X116220980Y-78850010D02*
X141816106Y-78850010D01*
X110200000Y-82600000D02*
X111400001Y-83800001D01*
X143311116Y-77355000D02*
X149620000Y-77355000D01*
%TO.N,J1_CAN2_L*%
X106618976Y-72400010D02*
X115813990Y-72400010D01*
X105200000Y-73818986D02*
X106618976Y-72400010D01*
X115813990Y-72400010D02*
X119164000Y-69050000D01*
X105200000Y-75100000D02*
X105200000Y-73818986D01*
X119164000Y-69050000D02*
X120210000Y-69050000D01*
%TO.N,J1_CAN2_H*%
X121200000Y-68540000D02*
X120610000Y-68540000D01*
X119175000Y-68375000D02*
X115500000Y-72050000D01*
X103999999Y-74523999D02*
X103999999Y-76399999D01*
X119224000Y-68326000D02*
X120396000Y-68326000D01*
X106473998Y-72050000D02*
X103999999Y-74523999D01*
X115500000Y-72050000D02*
X106473998Y-72050000D01*
X120610000Y-68540000D02*
X120396000Y-68326000D01*
X103999999Y-76399999D02*
X105200000Y-77600000D01*
X119175000Y-68375000D02*
X119224000Y-68326000D01*
%TO.N,J1_CAN1_L*%
X139225000Y-61777874D02*
X139225000Y-55525000D01*
X115295050Y-70770000D02*
X118965049Y-67100000D01*
X138475000Y-54775000D02*
X138475000Y-52700000D01*
X133955431Y-63630000D02*
X137372874Y-63630000D01*
X102949983Y-92849983D02*
X102949983Y-74010017D01*
X138715000Y-52460000D02*
X149034569Y-52460000D01*
X155981400Y-59406831D02*
X155981400Y-59791600D01*
X139225000Y-55525000D02*
X138475000Y-54775000D01*
X138475000Y-52700000D02*
X138715000Y-52460000D01*
X130485431Y-67100000D02*
X133955431Y-63630000D01*
X102949983Y-74010017D02*
X106190000Y-70770000D01*
X149034569Y-52460000D02*
X155981400Y-59406831D01*
X106190000Y-70770000D02*
X115295050Y-70770000D01*
X137372874Y-63630000D02*
X139225000Y-61777874D01*
X105200000Y-95100000D02*
X102949983Y-92849983D01*
X118965049Y-67100000D02*
X130485431Y-67100000D01*
%TO.N,J1_CAN1_H*%
X138570026Y-52110000D02*
X149210000Y-52110000D01*
X104000000Y-94460001D02*
X102599983Y-93059984D01*
X149210000Y-52140457D02*
X156353143Y-59283600D01*
X149210000Y-52110000D02*
X149210000Y-52140457D01*
X106470000Y-96370000D02*
X104250000Y-96370000D01*
X138125000Y-52555026D02*
X138570026Y-52110000D01*
X102599983Y-73830017D02*
X106010000Y-70420000D01*
X138875000Y-55669974D02*
X138125000Y-54919974D01*
X118820075Y-66750000D02*
X130340457Y-66750000D01*
X133810457Y-63280000D02*
X137227900Y-63280000D01*
X156353143Y-59283600D02*
X157251400Y-59283600D01*
X138125000Y-54919974D02*
X138125000Y-52555026D01*
X107700000Y-97600000D02*
X106470000Y-96370000D01*
X102599983Y-93059984D02*
X102599983Y-73830017D01*
X130340457Y-66750000D02*
X133810457Y-63280000D01*
X104000000Y-96120000D02*
X104000000Y-94460001D01*
X106010000Y-70420000D02*
X115150075Y-70420000D01*
X104250000Y-96370000D02*
X104000000Y-96120000D01*
X115150075Y-70420000D02*
X118820075Y-66750000D01*
X137227900Y-63280000D02*
X138875000Y-61632900D01*
X138875000Y-61632900D02*
X138875000Y-55669974D01*
%TD*%
%TA.AperFunction,Conductor*%
%TO.N,GND*%
G36*
X157332374Y-50020002D02*
G01*
X157370663Y-50060159D01*
X157374031Y-50072728D01*
X157427272Y-50125969D01*
X157443292Y-50130261D01*
X157443293Y-50130262D01*
X157483978Y-50141163D01*
X157500000Y-50145456D01*
X157516022Y-50141163D01*
X157530049Y-50141163D01*
X157535085Y-50140500D01*
X172733500Y-50140500D01*
X172801621Y-50160502D01*
X172848114Y-50214158D01*
X172859500Y-50266500D01*
X172859500Y-129733500D01*
X172839498Y-129801621D01*
X172785842Y-129848114D01*
X172733500Y-129859500D01*
X157535085Y-129859500D01*
X157530049Y-129858837D01*
X157516022Y-129858837D01*
X157500000Y-129854544D01*
X157483978Y-129858837D01*
X157481504Y-129859500D01*
X157443293Y-129869738D01*
X157443292Y-129869739D01*
X157427272Y-129874031D01*
X157374031Y-129927272D01*
X157370756Y-129939494D01*
X157321988Y-129985994D01*
X157264253Y-130000000D01*
X146785747Y-130000000D01*
X146717626Y-129979998D01*
X146679337Y-129939841D01*
X146675969Y-129927272D01*
X146622728Y-129874031D01*
X146606704Y-129869737D01*
X146606703Y-129869737D01*
X146568496Y-129859500D01*
X146566022Y-129858837D01*
X146550000Y-129854544D01*
X146533978Y-129858837D01*
X146519951Y-129858837D01*
X146514915Y-129859500D01*
X100266500Y-129859500D01*
X100198379Y-129839498D01*
X100151886Y-129785842D01*
X100140500Y-129733500D01*
X100140500Y-115350000D01*
X107544564Y-115350000D01*
X107564287Y-115650920D01*
X107623120Y-115946691D01*
X107720055Y-116232252D01*
X107853434Y-116502718D01*
X108020975Y-116753461D01*
X108023689Y-116756555D01*
X108023693Y-116756561D01*
X108217102Y-116977100D01*
X108219811Y-116980189D01*
X108222900Y-116982898D01*
X108443439Y-117176307D01*
X108443445Y-117176311D01*
X108446539Y-117179025D01*
X108449965Y-117181314D01*
X108449970Y-117181318D01*
X108637533Y-117306643D01*
X108697282Y-117346566D01*
X108700981Y-117348390D01*
X108700986Y-117348393D01*
X108839834Y-117416865D01*
X108967748Y-117479945D01*
X108971653Y-117481271D01*
X108971654Y-117481271D01*
X109249396Y-117575552D01*
X109249400Y-117575553D01*
X109253309Y-117576880D01*
X109257353Y-117577684D01*
X109257359Y-117577686D01*
X109545041Y-117634910D01*
X109545047Y-117634911D01*
X109549080Y-117635713D01*
X109553185Y-117635982D01*
X109553192Y-117635983D01*
X109772641Y-117650366D01*
X109772650Y-117650366D01*
X109774690Y-117650500D01*
X109925310Y-117650500D01*
X109927350Y-117650366D01*
X109927359Y-117650366D01*
X110146808Y-117635983D01*
X110146815Y-117635982D01*
X110150920Y-117635713D01*
X110154953Y-117634911D01*
X110154959Y-117634910D01*
X110442641Y-117577686D01*
X110442647Y-117577684D01*
X110446691Y-117576880D01*
X110450600Y-117575553D01*
X110450604Y-117575552D01*
X110728346Y-117481271D01*
X110728347Y-117481271D01*
X110732252Y-117479945D01*
X110860166Y-117416865D01*
X110999014Y-117348393D01*
X110999019Y-117348390D01*
X111002718Y-117346566D01*
X111062467Y-117306643D01*
X111250030Y-117181318D01*
X111250035Y-117181314D01*
X111253461Y-117179025D01*
X111256555Y-117176311D01*
X111256561Y-117176307D01*
X111477100Y-116982898D01*
X111480189Y-116980189D01*
X111482898Y-116977100D01*
X111676307Y-116756561D01*
X111676311Y-116756555D01*
X111679025Y-116753461D01*
X111846566Y-116502718D01*
X111979945Y-116232252D01*
X112076880Y-115946691D01*
X112135713Y-115650920D01*
X112155436Y-115350000D01*
X112135713Y-115049080D01*
X112076880Y-114753309D01*
X111979945Y-114467748D01*
X111846566Y-114197282D01*
X111679025Y-113946539D01*
X111676311Y-113943445D01*
X111676307Y-113943439D01*
X111482898Y-113722900D01*
X111480189Y-113719811D01*
X111477100Y-113717102D01*
X111256561Y-113523693D01*
X111256555Y-113523689D01*
X111253461Y-113520975D01*
X111250035Y-113518686D01*
X111250030Y-113518682D01*
X111006151Y-113355728D01*
X111002718Y-113353434D01*
X110999019Y-113351610D01*
X110999014Y-113351607D01*
X110860166Y-113283135D01*
X110732252Y-113220055D01*
X110728346Y-113218729D01*
X110450604Y-113124448D01*
X110450600Y-113124447D01*
X110446691Y-113123120D01*
X110442647Y-113122316D01*
X110442641Y-113122314D01*
X110154959Y-113065090D01*
X110154953Y-113065089D01*
X110150920Y-113064287D01*
X110146815Y-113064018D01*
X110146808Y-113064017D01*
X109927359Y-113049634D01*
X109927350Y-113049634D01*
X109925310Y-113049500D01*
X109774690Y-113049500D01*
X109772650Y-113049634D01*
X109772641Y-113049634D01*
X109553192Y-113064017D01*
X109553185Y-113064018D01*
X109549080Y-113064287D01*
X109545047Y-113065089D01*
X109545041Y-113065090D01*
X109257359Y-113122314D01*
X109257353Y-113122316D01*
X109253309Y-113123120D01*
X109249400Y-113124447D01*
X109249396Y-113124448D01*
X108971654Y-113218729D01*
X108967748Y-113220055D01*
X108839834Y-113283135D01*
X108700986Y-113351607D01*
X108700981Y-113351610D01*
X108697282Y-113353434D01*
X108693849Y-113355728D01*
X108449970Y-113518682D01*
X108449965Y-113518686D01*
X108446539Y-113520975D01*
X108443445Y-113523689D01*
X108443439Y-113523693D01*
X108222900Y-113717102D01*
X108219811Y-113719811D01*
X108217102Y-113722900D01*
X108023693Y-113943439D01*
X108023689Y-113943445D01*
X108020975Y-113946539D01*
X107853434Y-114197282D01*
X107720055Y-114467748D01*
X107623120Y-114753309D01*
X107564287Y-115049080D01*
X107544564Y-115350000D01*
X100140500Y-115350000D01*
X100140500Y-111183789D01*
X112295996Y-111183789D01*
X112304913Y-111421295D01*
X112353719Y-111653904D01*
X112355677Y-111658863D01*
X112355678Y-111658865D01*
X112404925Y-111783564D01*
X112441020Y-111874963D01*
X112564319Y-112078153D01*
X112720090Y-112257664D01*
X112724216Y-112261047D01*
X112724220Y-112261051D01*
X112822614Y-112341728D01*
X112903880Y-112408362D01*
X112908516Y-112411001D01*
X112908519Y-112411003D01*
X113009561Y-112468519D01*
X113110433Y-112525939D01*
X113333844Y-112607034D01*
X113339092Y-112607983D01*
X113563641Y-112648588D01*
X113563648Y-112648589D01*
X113567725Y-112649326D01*
X113585991Y-112650187D01*
X113591131Y-112650430D01*
X113591138Y-112650430D01*
X113592619Y-112650500D01*
X113759680Y-112650500D01*
X113842026Y-112643513D01*
X113931512Y-112635920D01*
X113931516Y-112635919D01*
X113936823Y-112635469D01*
X113941978Y-112634131D01*
X113941984Y-112634130D01*
X114161703Y-112577102D01*
X114161702Y-112577102D01*
X114166874Y-112575760D01*
X114283327Y-112523302D01*
X114378715Y-112480333D01*
X114378718Y-112480332D01*
X114383576Y-112478143D01*
X114580732Y-112345409D01*
X114752705Y-112181355D01*
X114894579Y-111990670D01*
X115002295Y-111778807D01*
X115041079Y-111653904D01*
X115071193Y-111556919D01*
X115072775Y-111551824D01*
X115104004Y-111316211D01*
X115095087Y-111078705D01*
X115046281Y-110846096D01*
X114996954Y-110721193D01*
X114960941Y-110630002D01*
X114960940Y-110630000D01*
X114958980Y-110625037D01*
X114835681Y-110421847D01*
X114679910Y-110242336D01*
X114675784Y-110238953D01*
X114675780Y-110238949D01*
X114500248Y-110095023D01*
X114496120Y-110091638D01*
X114491484Y-110088999D01*
X114491481Y-110088997D01*
X114369685Y-110019667D01*
X114289567Y-109974061D01*
X114066156Y-109892966D01*
X114060908Y-109892017D01*
X113836359Y-109851412D01*
X113836352Y-109851411D01*
X113832275Y-109850674D01*
X113814009Y-109849813D01*
X113808869Y-109849570D01*
X113808862Y-109849570D01*
X113807381Y-109849500D01*
X113640320Y-109849500D01*
X113557974Y-109856487D01*
X113468488Y-109864080D01*
X113468484Y-109864081D01*
X113463177Y-109864531D01*
X113458022Y-109865869D01*
X113458016Y-109865870D01*
X113346612Y-109894785D01*
X113233126Y-109924240D01*
X113135766Y-109968097D01*
X113021285Y-110019667D01*
X113021282Y-110019668D01*
X113016424Y-110021857D01*
X112819268Y-110154591D01*
X112647295Y-110318645D01*
X112505421Y-110509330D01*
X112397705Y-110721193D01*
X112396124Y-110726284D01*
X112396123Y-110726287D01*
X112357301Y-110851315D01*
X112327225Y-110948176D01*
X112295996Y-111183789D01*
X100140500Y-111183789D01*
X100140500Y-104770675D01*
X106580105Y-104770675D01*
X106593513Y-104975250D01*
X106643979Y-105173957D01*
X106729810Y-105360139D01*
X106848133Y-105527563D01*
X106994986Y-105670620D01*
X107165449Y-105784520D01*
X107170752Y-105786798D01*
X107170755Y-105786800D01*
X107260329Y-105825284D01*
X107353815Y-105865449D01*
X107427559Y-105882136D01*
X107548137Y-105909420D01*
X107548142Y-105909421D01*
X107553774Y-105910695D01*
X107559545Y-105910922D01*
X107559547Y-105910922D01*
X107621339Y-105913350D01*
X107758631Y-105918744D01*
X107860077Y-105904035D01*
X107955810Y-105890155D01*
X107955815Y-105890154D01*
X107961524Y-105889326D01*
X107966988Y-105887471D01*
X107966993Y-105887470D01*
X108150187Y-105825284D01*
X108150192Y-105825282D01*
X108155659Y-105823426D01*
X108221059Y-105786800D01*
X108329495Y-105726073D01*
X108329499Y-105726070D01*
X108334533Y-105723251D01*
X108338970Y-105719561D01*
X108338974Y-105719558D01*
X108487719Y-105595848D01*
X108492157Y-105592157D01*
X108549805Y-105522843D01*
X108619558Y-105438974D01*
X108619561Y-105438970D01*
X108623251Y-105434533D01*
X108626070Y-105429499D01*
X108626073Y-105429495D01*
X108720603Y-105260700D01*
X108720603Y-105260699D01*
X108723426Y-105255659D01*
X108725282Y-105250192D01*
X108725284Y-105250187D01*
X108787470Y-105066993D01*
X108787471Y-105066988D01*
X108789326Y-105061524D01*
X108790154Y-105055815D01*
X108790155Y-105055810D01*
X108811637Y-104907647D01*
X108818744Y-104858631D01*
X108820279Y-104800000D01*
X108817584Y-104770675D01*
X109080105Y-104770675D01*
X109093513Y-104975250D01*
X109143979Y-105173957D01*
X109229810Y-105360139D01*
X109348133Y-105527563D01*
X109494986Y-105670620D01*
X109665449Y-105784520D01*
X109670752Y-105786798D01*
X109670755Y-105786800D01*
X109760329Y-105825284D01*
X109853815Y-105865449D01*
X109927559Y-105882136D01*
X110048137Y-105909420D01*
X110048142Y-105909421D01*
X110053774Y-105910695D01*
X110059545Y-105910922D01*
X110059547Y-105910922D01*
X110121339Y-105913350D01*
X110258631Y-105918744D01*
X110360077Y-105904035D01*
X110455810Y-105890155D01*
X110455815Y-105890154D01*
X110461524Y-105889326D01*
X110466988Y-105887471D01*
X110466993Y-105887470D01*
X110650187Y-105825284D01*
X110650192Y-105825282D01*
X110655659Y-105823426D01*
X110721059Y-105786800D01*
X110829495Y-105726073D01*
X110829499Y-105726070D01*
X110834533Y-105723251D01*
X110838970Y-105719561D01*
X110838974Y-105719558D01*
X110987719Y-105595848D01*
X110992157Y-105592157D01*
X111049805Y-105522843D01*
X111119558Y-105438974D01*
X111119561Y-105438970D01*
X111123251Y-105434533D01*
X111126070Y-105429499D01*
X111126073Y-105429495D01*
X111220603Y-105260700D01*
X111220603Y-105260699D01*
X111223426Y-105255659D01*
X111225282Y-105250192D01*
X111225284Y-105250187D01*
X111287470Y-105066993D01*
X111287471Y-105066988D01*
X111289326Y-105061524D01*
X111290154Y-105055815D01*
X111290155Y-105055810D01*
X111311637Y-104907647D01*
X111318744Y-104858631D01*
X111320279Y-104800000D01*
X111317584Y-104770675D01*
X111580105Y-104770675D01*
X111593513Y-104975250D01*
X111643979Y-105173957D01*
X111729810Y-105360139D01*
X111848133Y-105527563D01*
X111994986Y-105670620D01*
X112165449Y-105784520D01*
X112170752Y-105786798D01*
X112170755Y-105786800D01*
X112260329Y-105825284D01*
X112353815Y-105865449D01*
X112427559Y-105882136D01*
X112548137Y-105909420D01*
X112548142Y-105909421D01*
X112553774Y-105910695D01*
X112559545Y-105910922D01*
X112559547Y-105910922D01*
X112621339Y-105913350D01*
X112758631Y-105918744D01*
X112860077Y-105904035D01*
X112955810Y-105890155D01*
X112955815Y-105890154D01*
X112961524Y-105889326D01*
X112966988Y-105887471D01*
X112966993Y-105887470D01*
X113150187Y-105825284D01*
X113150192Y-105825282D01*
X113155659Y-105823426D01*
X113221059Y-105786800D01*
X113329495Y-105726073D01*
X113329499Y-105726070D01*
X113334533Y-105723251D01*
X113338970Y-105719561D01*
X113338974Y-105719558D01*
X113487719Y-105595848D01*
X113492157Y-105592157D01*
X113549805Y-105522843D01*
X113619558Y-105438974D01*
X113619561Y-105438970D01*
X113623251Y-105434533D01*
X113626070Y-105429499D01*
X113626073Y-105429495D01*
X113720603Y-105260700D01*
X113720603Y-105260699D01*
X113723426Y-105255659D01*
X113725282Y-105250192D01*
X113725284Y-105250187D01*
X113787470Y-105066993D01*
X113787471Y-105066988D01*
X113789326Y-105061524D01*
X113790154Y-105055815D01*
X113790155Y-105055810D01*
X113811637Y-104907647D01*
X113818744Y-104858631D01*
X113820279Y-104800000D01*
X113801520Y-104595845D01*
X113754922Y-104430620D01*
X113747441Y-104404093D01*
X113747439Y-104404088D01*
X113745871Y-104398528D01*
X113655195Y-104214656D01*
X113532530Y-104050387D01*
X113381983Y-103911223D01*
X113208596Y-103801824D01*
X113018176Y-103725854D01*
X113012516Y-103724728D01*
X113012512Y-103724727D01*
X112822769Y-103686985D01*
X112822764Y-103686985D01*
X112817101Y-103685858D01*
X112811326Y-103685782D01*
X112811322Y-103685782D01*
X112708605Y-103684437D01*
X112612104Y-103683174D01*
X112606407Y-103684153D01*
X112606406Y-103684153D01*
X112415747Y-103716915D01*
X112410050Y-103717894D01*
X112217707Y-103788853D01*
X112041517Y-103893675D01*
X111887378Y-104028851D01*
X111883811Y-104033376D01*
X111883806Y-104033381D01*
X111766174Y-104182597D01*
X111760455Y-104189852D01*
X111757764Y-104194968D01*
X111757762Y-104194970D01*
X111667689Y-104366171D01*
X111664997Y-104371288D01*
X111604202Y-104567081D01*
X111580105Y-104770675D01*
X111317584Y-104770675D01*
X111301520Y-104595845D01*
X111254922Y-104430620D01*
X111247441Y-104404093D01*
X111247439Y-104404088D01*
X111245871Y-104398528D01*
X111155195Y-104214656D01*
X111032530Y-104050387D01*
X110881983Y-103911223D01*
X110708596Y-103801824D01*
X110518176Y-103725854D01*
X110512516Y-103724728D01*
X110512512Y-103724727D01*
X110322769Y-103686985D01*
X110322764Y-103686985D01*
X110317101Y-103685858D01*
X110311326Y-103685782D01*
X110311322Y-103685782D01*
X110208605Y-103684437D01*
X110112104Y-103683174D01*
X110106407Y-103684153D01*
X110106406Y-103684153D01*
X109915747Y-103716915D01*
X109910050Y-103717894D01*
X109717707Y-103788853D01*
X109541517Y-103893675D01*
X109387378Y-104028851D01*
X109383811Y-104033376D01*
X109383806Y-104033381D01*
X109266174Y-104182597D01*
X109260455Y-104189852D01*
X109257764Y-104194968D01*
X109257762Y-104194970D01*
X109167689Y-104366171D01*
X109164997Y-104371288D01*
X109104202Y-104567081D01*
X109080105Y-104770675D01*
X108817584Y-104770675D01*
X108801520Y-104595845D01*
X108754922Y-104430620D01*
X108747441Y-104404093D01*
X108747439Y-104404088D01*
X108745871Y-104398528D01*
X108655195Y-104214656D01*
X108532530Y-104050387D01*
X108381983Y-103911223D01*
X108208596Y-103801824D01*
X108018176Y-103725854D01*
X108012516Y-103724728D01*
X108012512Y-103724727D01*
X107822769Y-103686985D01*
X107822764Y-103686985D01*
X107817101Y-103685858D01*
X107811326Y-103685782D01*
X107811322Y-103685782D01*
X107708605Y-103684437D01*
X107612104Y-103683174D01*
X107606407Y-103684153D01*
X107606406Y-103684153D01*
X107415747Y-103716915D01*
X107410050Y-103717894D01*
X107217707Y-103788853D01*
X107041517Y-103893675D01*
X106887378Y-104028851D01*
X106883811Y-104033376D01*
X106883806Y-104033381D01*
X106766174Y-104182597D01*
X106760455Y-104189852D01*
X106757764Y-104194968D01*
X106757762Y-104194970D01*
X106667689Y-104366171D01*
X106664997Y-104371288D01*
X106604202Y-104567081D01*
X106580105Y-104770675D01*
X100140500Y-104770675D01*
X100140500Y-103086159D01*
X149559500Y-103086159D01*
X149559501Y-104913840D01*
X149567651Y-104954821D01*
X149598705Y-105001295D01*
X149609018Y-105008186D01*
X149629503Y-105021874D01*
X149645179Y-105032349D01*
X149670163Y-105037318D01*
X149680089Y-105039293D01*
X149680092Y-105039293D01*
X149686159Y-105040500D01*
X150599630Y-105040500D01*
X151513840Y-105040499D01*
X151554821Y-105032349D01*
X151601295Y-105001295D01*
X151632349Y-104954821D01*
X151637318Y-104929837D01*
X151639293Y-104919911D01*
X151639293Y-104919908D01*
X151640500Y-104913841D01*
X151640499Y-103985402D01*
X154634567Y-103985402D01*
X154651642Y-104188739D01*
X154653341Y-104194664D01*
X154705569Y-104376805D01*
X154707886Y-104384887D01*
X154801158Y-104566375D01*
X154927905Y-104726290D01*
X155083299Y-104858540D01*
X155088677Y-104861546D01*
X155088679Y-104861547D01*
X155131631Y-104885552D01*
X155261421Y-104958089D01*
X155455487Y-105021145D01*
X155658104Y-105045306D01*
X155664239Y-105044834D01*
X155664241Y-105044834D01*
X155855413Y-105030124D01*
X155855417Y-105030123D01*
X155861555Y-105029651D01*
X156058091Y-104974777D01*
X156240226Y-104882774D01*
X156267396Y-104861547D01*
X156396165Y-104760941D01*
X156401021Y-104757147D01*
X156534354Y-104602680D01*
X156635144Y-104425257D01*
X156699553Y-104231637D01*
X156725127Y-104029193D01*
X156725535Y-104000000D01*
X156705623Y-103796921D01*
X156646645Y-103601578D01*
X156550848Y-103421410D01*
X156546950Y-103416631D01*
X156546947Y-103416626D01*
X156478950Y-103333254D01*
X156421881Y-103263280D01*
X156363475Y-103214962D01*
X156269405Y-103137140D01*
X156269400Y-103137137D01*
X156264656Y-103133212D01*
X156259237Y-103130282D01*
X156259234Y-103130280D01*
X156090581Y-103039090D01*
X156090576Y-103039088D01*
X156085161Y-103036160D01*
X156061562Y-103028855D01*
X155896121Y-102977642D01*
X155896118Y-102977641D01*
X155890234Y-102975820D01*
X155884109Y-102975176D01*
X155884108Y-102975176D01*
X155693427Y-102955134D01*
X155693426Y-102955134D01*
X155687299Y-102954490D01*
X155559467Y-102966124D01*
X155490227Y-102972425D01*
X155490226Y-102972425D01*
X155484086Y-102972984D01*
X155478172Y-102974725D01*
X155478170Y-102974725D01*
X155361654Y-103009018D01*
X155288336Y-103030597D01*
X155107503Y-103125134D01*
X155102703Y-103128994D01*
X155102702Y-103128994D01*
X155065445Y-103158949D01*
X154948477Y-103252994D01*
X154817315Y-103409307D01*
X154814351Y-103414699D01*
X154814348Y-103414703D01*
X154734315Y-103560283D01*
X154719012Y-103588120D01*
X154657312Y-103782621D01*
X154634567Y-103985402D01*
X151640499Y-103985402D01*
X151640499Y-103086160D01*
X151632349Y-103045179D01*
X151601295Y-102998705D01*
X151569773Y-102977642D01*
X151565140Y-102974546D01*
X151565139Y-102974546D01*
X151554821Y-102967651D01*
X151529837Y-102962682D01*
X151519911Y-102960707D01*
X151519908Y-102960707D01*
X151513841Y-102959500D01*
X150600370Y-102959500D01*
X149686160Y-102959501D01*
X149645179Y-102967651D01*
X149598705Y-102998705D01*
X149567651Y-103045179D01*
X149565230Y-103057353D01*
X149560708Y-103080087D01*
X149559500Y-103086159D01*
X100140500Y-103086159D01*
X100140500Y-101070675D01*
X106580105Y-101070675D01*
X106593513Y-101275250D01*
X106643979Y-101473957D01*
X106729810Y-101660139D01*
X106848133Y-101827563D01*
X106994986Y-101970620D01*
X107165449Y-102084520D01*
X107170752Y-102086798D01*
X107170755Y-102086800D01*
X107260329Y-102125284D01*
X107353815Y-102165449D01*
X107427559Y-102182136D01*
X107548137Y-102209420D01*
X107548142Y-102209421D01*
X107553774Y-102210695D01*
X107559545Y-102210922D01*
X107559547Y-102210922D01*
X107621339Y-102213350D01*
X107758631Y-102218744D01*
X107860077Y-102204035D01*
X107955810Y-102190155D01*
X107955815Y-102190154D01*
X107961524Y-102189326D01*
X107966988Y-102187471D01*
X107966993Y-102187470D01*
X108150187Y-102125284D01*
X108150192Y-102125282D01*
X108155659Y-102123426D01*
X108221059Y-102086800D01*
X108329495Y-102026073D01*
X108329499Y-102026070D01*
X108334533Y-102023251D01*
X108338970Y-102019561D01*
X108338974Y-102019558D01*
X108487719Y-101895848D01*
X108492157Y-101892157D01*
X108549805Y-101822843D01*
X108619558Y-101738974D01*
X108619561Y-101738970D01*
X108623251Y-101734533D01*
X108626070Y-101729499D01*
X108626073Y-101729495D01*
X108720603Y-101560700D01*
X108720603Y-101560699D01*
X108723426Y-101555659D01*
X108725282Y-101550192D01*
X108725284Y-101550187D01*
X108787470Y-101366993D01*
X108787471Y-101366988D01*
X108789326Y-101361524D01*
X108790154Y-101355815D01*
X108790155Y-101355810D01*
X108818211Y-101162305D01*
X108818744Y-101158631D01*
X108820279Y-101100000D01*
X108817584Y-101070675D01*
X109080105Y-101070675D01*
X109093513Y-101275250D01*
X109143979Y-101473957D01*
X109229810Y-101660139D01*
X109348133Y-101827563D01*
X109494986Y-101970620D01*
X109665449Y-102084520D01*
X109670752Y-102086798D01*
X109670755Y-102086800D01*
X109760329Y-102125284D01*
X109853815Y-102165449D01*
X109927559Y-102182136D01*
X110048137Y-102209420D01*
X110048142Y-102209421D01*
X110053774Y-102210695D01*
X110059545Y-102210922D01*
X110059547Y-102210922D01*
X110121339Y-102213350D01*
X110258631Y-102218744D01*
X110360077Y-102204035D01*
X110455810Y-102190155D01*
X110455815Y-102190154D01*
X110461524Y-102189326D01*
X110466988Y-102187471D01*
X110466993Y-102187470D01*
X110650187Y-102125284D01*
X110650192Y-102125282D01*
X110655659Y-102123426D01*
X110721059Y-102086800D01*
X110829495Y-102026073D01*
X110829499Y-102026070D01*
X110834533Y-102023251D01*
X110838970Y-102019561D01*
X110838974Y-102019558D01*
X110987719Y-101895848D01*
X110992157Y-101892157D01*
X111049805Y-101822843D01*
X111119558Y-101738974D01*
X111119561Y-101738970D01*
X111123251Y-101734533D01*
X111126070Y-101729499D01*
X111126073Y-101729495D01*
X111220603Y-101560700D01*
X111220603Y-101560699D01*
X111223426Y-101555659D01*
X111225282Y-101550192D01*
X111225284Y-101550187D01*
X111287470Y-101366993D01*
X111287471Y-101366988D01*
X111289326Y-101361524D01*
X111290154Y-101355815D01*
X111290155Y-101355810D01*
X111318211Y-101162305D01*
X111318744Y-101158631D01*
X111320279Y-101100000D01*
X111317584Y-101070675D01*
X111580105Y-101070675D01*
X111593513Y-101275250D01*
X111643979Y-101473957D01*
X111729810Y-101660139D01*
X111848133Y-101827563D01*
X111994986Y-101970620D01*
X112165449Y-102084520D01*
X112170752Y-102086798D01*
X112170755Y-102086800D01*
X112260329Y-102125284D01*
X112353815Y-102165449D01*
X112427559Y-102182136D01*
X112548137Y-102209420D01*
X112548142Y-102209421D01*
X112553774Y-102210695D01*
X112559545Y-102210922D01*
X112559547Y-102210922D01*
X112621339Y-102213350D01*
X112758631Y-102218744D01*
X112860077Y-102204035D01*
X112955810Y-102190155D01*
X112955815Y-102190154D01*
X112961524Y-102189326D01*
X112966988Y-102187471D01*
X112966993Y-102187470D01*
X113150187Y-102125284D01*
X113150192Y-102125282D01*
X113155659Y-102123426D01*
X113221059Y-102086800D01*
X113329495Y-102026073D01*
X113329499Y-102026070D01*
X113334533Y-102023251D01*
X113338970Y-102019561D01*
X113338974Y-102019558D01*
X113487719Y-101895848D01*
X113492157Y-101892157D01*
X113549805Y-101822843D01*
X113619558Y-101738974D01*
X113619561Y-101738970D01*
X113623251Y-101734533D01*
X113626070Y-101729499D01*
X113626073Y-101729495D01*
X113720603Y-101560700D01*
X113720603Y-101560699D01*
X113723426Y-101555659D01*
X113725282Y-101550192D01*
X113725284Y-101550187D01*
X113787470Y-101366993D01*
X113787471Y-101366988D01*
X113789326Y-101361524D01*
X113790154Y-101355815D01*
X113790155Y-101355810D01*
X113818211Y-101162305D01*
X113818744Y-101158631D01*
X113820279Y-101100000D01*
X113801520Y-100895845D01*
X113791852Y-100861564D01*
X113747441Y-100704093D01*
X113747439Y-100704088D01*
X113745871Y-100698528D01*
X113655195Y-100514656D01*
X113532530Y-100350387D01*
X113381983Y-100211223D01*
X113208596Y-100101824D01*
X113018176Y-100025854D01*
X113012516Y-100024728D01*
X113012512Y-100024727D01*
X112822769Y-99986985D01*
X112822764Y-99986985D01*
X112817101Y-99985858D01*
X112811326Y-99985782D01*
X112811322Y-99985782D01*
X112708605Y-99984437D01*
X112612104Y-99983174D01*
X112606407Y-99984153D01*
X112606406Y-99984153D01*
X112415747Y-100016915D01*
X112410050Y-100017894D01*
X112217707Y-100088853D01*
X112041517Y-100193675D01*
X111887378Y-100328851D01*
X111883811Y-100333376D01*
X111883806Y-100333381D01*
X111764033Y-100485313D01*
X111760455Y-100489852D01*
X111664997Y-100671288D01*
X111604202Y-100867081D01*
X111580105Y-101070675D01*
X111317584Y-101070675D01*
X111301520Y-100895845D01*
X111291852Y-100861564D01*
X111247441Y-100704093D01*
X111247439Y-100704088D01*
X111245871Y-100698528D01*
X111155195Y-100514656D01*
X111032530Y-100350387D01*
X110881983Y-100211223D01*
X110708596Y-100101824D01*
X110518176Y-100025854D01*
X110512516Y-100024728D01*
X110512512Y-100024727D01*
X110322769Y-99986985D01*
X110322764Y-99986985D01*
X110317101Y-99985858D01*
X110311326Y-99985782D01*
X110311322Y-99985782D01*
X110208605Y-99984437D01*
X110112104Y-99983174D01*
X110106407Y-99984153D01*
X110106406Y-99984153D01*
X109915747Y-100016915D01*
X109910050Y-100017894D01*
X109717707Y-100088853D01*
X109541517Y-100193675D01*
X109387378Y-100328851D01*
X109383811Y-100333376D01*
X109383806Y-100333381D01*
X109264033Y-100485313D01*
X109260455Y-100489852D01*
X109164997Y-100671288D01*
X109104202Y-100867081D01*
X109080105Y-101070675D01*
X108817584Y-101070675D01*
X108801520Y-100895845D01*
X108791852Y-100861564D01*
X108747441Y-100704093D01*
X108747439Y-100704088D01*
X108745871Y-100698528D01*
X108655195Y-100514656D01*
X108532530Y-100350387D01*
X108381983Y-100211223D01*
X108208596Y-100101824D01*
X108018176Y-100025854D01*
X108012516Y-100024728D01*
X108012512Y-100024727D01*
X107822769Y-99986985D01*
X107822764Y-99986985D01*
X107817101Y-99985858D01*
X107811326Y-99985782D01*
X107811322Y-99985782D01*
X107708605Y-99984437D01*
X107612104Y-99983174D01*
X107606407Y-99984153D01*
X107606406Y-99984153D01*
X107415747Y-100016915D01*
X107410050Y-100017894D01*
X107217707Y-100088853D01*
X107041517Y-100193675D01*
X106887378Y-100328851D01*
X106883811Y-100333376D01*
X106883806Y-100333381D01*
X106764033Y-100485313D01*
X106760455Y-100489852D01*
X106664997Y-100671288D01*
X106604202Y-100867081D01*
X106580105Y-101070675D01*
X100140500Y-101070675D01*
X100140500Y-93059984D01*
X102329281Y-93059984D01*
X102337257Y-93100078D01*
X102349888Y-93163577D01*
X102356782Y-93173894D01*
X102356782Y-93173895D01*
X102400266Y-93238974D01*
X102408568Y-93251399D01*
X102418884Y-93258292D01*
X102418885Y-93258293D01*
X102420419Y-93259318D01*
X102439514Y-93274989D01*
X103697595Y-94533070D01*
X103731621Y-94595382D01*
X103734500Y-94622165D01*
X103734500Y-96081438D01*
X103732079Y-96106018D01*
X103729298Y-96120000D01*
X103747339Y-96210695D01*
X103749905Y-96223593D01*
X103808585Y-96311415D01*
X103818901Y-96318308D01*
X103818902Y-96318309D01*
X103820436Y-96319334D01*
X103839529Y-96335003D01*
X104034995Y-96530468D01*
X104050666Y-96549564D01*
X104051691Y-96551098D01*
X104058585Y-96561415D01*
X104068901Y-96568308D01*
X104081566Y-96576770D01*
X104146407Y-96620095D01*
X104158576Y-96622516D01*
X104158577Y-96622516D01*
X104223853Y-96635500D01*
X104250000Y-96640701D01*
X104262171Y-96638280D01*
X104274582Y-96638280D01*
X104274582Y-96641788D01*
X104324569Y-96646259D01*
X104380638Y-96689810D01*
X104404261Y-96756762D01*
X104387937Y-96825856D01*
X104377392Y-96841518D01*
X104288390Y-96954417D01*
X104260455Y-96989852D01*
X104164997Y-97171288D01*
X104104202Y-97367081D01*
X104080105Y-97570675D01*
X104093513Y-97775250D01*
X104143979Y-97973957D01*
X104229810Y-98160139D01*
X104348133Y-98327563D01*
X104494986Y-98470620D01*
X104665449Y-98584520D01*
X104670752Y-98586798D01*
X104670755Y-98586800D01*
X104760329Y-98625284D01*
X104853815Y-98665449D01*
X104927559Y-98682136D01*
X105048137Y-98709420D01*
X105048142Y-98709421D01*
X105053774Y-98710695D01*
X105059545Y-98710922D01*
X105059547Y-98710922D01*
X105121339Y-98713350D01*
X105258631Y-98718744D01*
X105360077Y-98704035D01*
X105455810Y-98690155D01*
X105455815Y-98690154D01*
X105461524Y-98689326D01*
X105466988Y-98687471D01*
X105466993Y-98687470D01*
X105650187Y-98625284D01*
X105650192Y-98625282D01*
X105655659Y-98623426D01*
X105680949Y-98609263D01*
X105829495Y-98526073D01*
X105829499Y-98526070D01*
X105834533Y-98523251D01*
X105838970Y-98519561D01*
X105838974Y-98519558D01*
X105987719Y-98395848D01*
X105992157Y-98392157D01*
X106049805Y-98322843D01*
X106119558Y-98238974D01*
X106119561Y-98238970D01*
X106123251Y-98234533D01*
X106126070Y-98229499D01*
X106126073Y-98229495D01*
X106220603Y-98060700D01*
X106220603Y-98060699D01*
X106223426Y-98055659D01*
X106225282Y-98050192D01*
X106225284Y-98050187D01*
X106287470Y-97866993D01*
X106287471Y-97866988D01*
X106289326Y-97861524D01*
X106290154Y-97855815D01*
X106290155Y-97855810D01*
X106313377Y-97695644D01*
X106318744Y-97658631D01*
X106320279Y-97600000D01*
X106301520Y-97395845D01*
X106291852Y-97361564D01*
X106247441Y-97204093D01*
X106247439Y-97204088D01*
X106245871Y-97198528D01*
X106155195Y-97014656D01*
X106032530Y-96850387D01*
X106028289Y-96846467D01*
X106027696Y-96845808D01*
X105996981Y-96781800D01*
X106005747Y-96711346D01*
X106051211Y-96656816D01*
X106121335Y-96635500D01*
X106307836Y-96635500D01*
X106375957Y-96655502D01*
X106396931Y-96672405D01*
X106678943Y-96954417D01*
X106712969Y-97016729D01*
X106707904Y-97087544D01*
X106701356Y-97102179D01*
X106667689Y-97166169D01*
X106667684Y-97166180D01*
X106664997Y-97171288D01*
X106604202Y-97367081D01*
X106580105Y-97570675D01*
X106593513Y-97775250D01*
X106643979Y-97973957D01*
X106729810Y-98160139D01*
X106848133Y-98327563D01*
X106994986Y-98470620D01*
X107165449Y-98584520D01*
X107170752Y-98586798D01*
X107170755Y-98586800D01*
X107260329Y-98625284D01*
X107353815Y-98665449D01*
X107427559Y-98682136D01*
X107548137Y-98709420D01*
X107548142Y-98709421D01*
X107553774Y-98710695D01*
X107559545Y-98710922D01*
X107559547Y-98710922D01*
X107621339Y-98713350D01*
X107758631Y-98718744D01*
X107860077Y-98704035D01*
X107955810Y-98690155D01*
X107955815Y-98690154D01*
X107961524Y-98689326D01*
X107966988Y-98687471D01*
X107966993Y-98687470D01*
X108150187Y-98625284D01*
X108150192Y-98625282D01*
X108155659Y-98623426D01*
X108180949Y-98609263D01*
X108329495Y-98526073D01*
X108329499Y-98526070D01*
X108334533Y-98523251D01*
X108338970Y-98519561D01*
X108338974Y-98519558D01*
X108487719Y-98395848D01*
X108492157Y-98392157D01*
X108549805Y-98322843D01*
X108619558Y-98238974D01*
X108619561Y-98238970D01*
X108623251Y-98234533D01*
X108626070Y-98229499D01*
X108626073Y-98229495D01*
X108720603Y-98060700D01*
X108720603Y-98060699D01*
X108723426Y-98055659D01*
X108725282Y-98050192D01*
X108725284Y-98050187D01*
X108787470Y-97866993D01*
X108787471Y-97866988D01*
X108789326Y-97861524D01*
X108790154Y-97855815D01*
X108790155Y-97855810D01*
X108813377Y-97695644D01*
X108818744Y-97658631D01*
X108820279Y-97600000D01*
X108817584Y-97570675D01*
X109080105Y-97570675D01*
X109093513Y-97775250D01*
X109143979Y-97973957D01*
X109229810Y-98160139D01*
X109348133Y-98327563D01*
X109494986Y-98470620D01*
X109665449Y-98584520D01*
X109670752Y-98586798D01*
X109670755Y-98586800D01*
X109760329Y-98625284D01*
X109853815Y-98665449D01*
X109927559Y-98682136D01*
X110048137Y-98709420D01*
X110048142Y-98709421D01*
X110053774Y-98710695D01*
X110059545Y-98710922D01*
X110059547Y-98710922D01*
X110121339Y-98713350D01*
X110258631Y-98718744D01*
X110360077Y-98704035D01*
X110455810Y-98690155D01*
X110455815Y-98690154D01*
X110461524Y-98689326D01*
X110466988Y-98687471D01*
X110466993Y-98687470D01*
X110650187Y-98625284D01*
X110650192Y-98625282D01*
X110655659Y-98623426D01*
X110695703Y-98601000D01*
X110764912Y-98585166D01*
X110831694Y-98609263D01*
X110846365Y-98621839D01*
X111184996Y-98960470D01*
X111200667Y-98979565D01*
X111201692Y-98981099D01*
X111208586Y-98991416D01*
X111218902Y-98998309D01*
X111230753Y-99006227D01*
X111296408Y-99050096D01*
X111313214Y-99053439D01*
X111400001Y-99070703D01*
X111413983Y-99067922D01*
X111438563Y-99065501D01*
X113237439Y-99065501D01*
X113262019Y-99067922D01*
X113276001Y-99070703D01*
X113288172Y-99068282D01*
X113367425Y-99052517D01*
X113367426Y-99052516D01*
X113379594Y-99050096D01*
X113445249Y-99006227D01*
X113467416Y-98991416D01*
X113474311Y-98981097D01*
X113474313Y-98981095D01*
X113475335Y-98979565D01*
X113491006Y-98960470D01*
X114860469Y-97591007D01*
X114879564Y-97575336D01*
X114881098Y-97574311D01*
X114881099Y-97574310D01*
X114891415Y-97567417D01*
X114950095Y-97479595D01*
X114953438Y-97462789D01*
X114970702Y-97376002D01*
X114967921Y-97362020D01*
X114965500Y-97337440D01*
X114965500Y-93857152D01*
X114985502Y-93789031D01*
X115002405Y-93768057D01*
X115868037Y-92902425D01*
X115930349Y-92868399D01*
X115957132Y-92865520D01*
X150461418Y-92865520D01*
X150485998Y-92867941D01*
X150499980Y-92870722D01*
X150512151Y-92868301D01*
X150591404Y-92852536D01*
X150591405Y-92852535D01*
X150603573Y-92850115D01*
X150669228Y-92806246D01*
X150691395Y-92791435D01*
X150698290Y-92781116D01*
X150698292Y-92781114D01*
X150699314Y-92779584D01*
X150714985Y-92760489D01*
X159492300Y-83983174D01*
X168271195Y-75204278D01*
X168333507Y-75170252D01*
X168404322Y-75175317D01*
X168460251Y-75216667D01*
X168498711Y-75266789D01*
X168611618Y-75353426D01*
X168743101Y-75407888D01*
X168884200Y-75426464D01*
X168892388Y-75425386D01*
X169017111Y-75408966D01*
X169025299Y-75407888D01*
X169156782Y-75353426D01*
X169269689Y-75266789D01*
X169356326Y-75153882D01*
X169410788Y-75022399D01*
X169429364Y-74881300D01*
X169410788Y-74740201D01*
X169356326Y-74608718D01*
X169269689Y-74495811D01*
X169156782Y-74409174D01*
X169025299Y-74354712D01*
X169017111Y-74353634D01*
X168894630Y-74337509D01*
X168829703Y-74308786D01*
X168790612Y-74249521D01*
X168789767Y-74178530D01*
X168821982Y-74123492D01*
X169044669Y-73900805D01*
X169063764Y-73885134D01*
X169065298Y-73884109D01*
X169065299Y-73884108D01*
X169075615Y-73877215D01*
X169134295Y-73789393D01*
X169144256Y-73739316D01*
X169154902Y-73685800D01*
X169152121Y-73671818D01*
X169149700Y-73647238D01*
X169149700Y-72880996D01*
X169169702Y-72812875D01*
X169198996Y-72781034D01*
X169263139Y-72731815D01*
X169269689Y-72726789D01*
X169356326Y-72613882D01*
X169410788Y-72482399D01*
X169429364Y-72341300D01*
X169410788Y-72200201D01*
X169356326Y-72068718D01*
X169269689Y-71955811D01*
X169156782Y-71869174D01*
X169071857Y-71833997D01*
X169016576Y-71789449D01*
X168994155Y-71722085D01*
X169011713Y-71653294D01*
X169030980Y-71628493D01*
X169044666Y-71614807D01*
X169063761Y-71599136D01*
X169065298Y-71598109D01*
X169065299Y-71598108D01*
X169075615Y-71591215D01*
X169134295Y-71503393D01*
X169149700Y-71425947D01*
X169154901Y-71399800D01*
X169152121Y-71385823D01*
X169149700Y-71361242D01*
X169149700Y-70340996D01*
X169169702Y-70272875D01*
X169198996Y-70241034D01*
X169263139Y-70191815D01*
X169269689Y-70186789D01*
X169356326Y-70073882D01*
X169410788Y-69942399D01*
X169429364Y-69801300D01*
X169410788Y-69660201D01*
X169356326Y-69528718D01*
X169269689Y-69415811D01*
X169156782Y-69329174D01*
X169110559Y-69310028D01*
X169055279Y-69265479D01*
X169032858Y-69198116D01*
X169050416Y-69129325D01*
X169067333Y-69107549D01*
X169075615Y-69102015D01*
X169134295Y-69014193D01*
X169135424Y-69008515D01*
X169146702Y-68951824D01*
X169152481Y-68922770D01*
X169154902Y-68910600D01*
X169152121Y-68896618D01*
X169149700Y-68872038D01*
X169149700Y-67800996D01*
X169169702Y-67732875D01*
X169198996Y-67701034D01*
X169263139Y-67651815D01*
X169269689Y-67646789D01*
X169356326Y-67533882D01*
X169410788Y-67402399D01*
X169429364Y-67261300D01*
X169416620Y-67164498D01*
X169411866Y-67128389D01*
X169410788Y-67120201D01*
X169356326Y-66988718D01*
X169269689Y-66875811D01*
X169156782Y-66789174D01*
X169025299Y-66734712D01*
X168884200Y-66716136D01*
X168743101Y-66734712D01*
X168611618Y-66789174D01*
X168498711Y-66875811D01*
X168412074Y-66988718D01*
X168357612Y-67120201D01*
X168356534Y-67128389D01*
X168351780Y-67164498D01*
X168339036Y-67261300D01*
X168357612Y-67402399D01*
X168412074Y-67533882D01*
X168498711Y-67646789D01*
X168505261Y-67651815D01*
X168569404Y-67701034D01*
X168611271Y-67758372D01*
X168618700Y-67800996D01*
X168618700Y-68748436D01*
X168598698Y-68816557D01*
X168581795Y-68837532D01*
X167748728Y-69670598D01*
X167729633Y-69686268D01*
X167728102Y-69687291D01*
X167728101Y-69687292D01*
X167717785Y-69694185D01*
X167710893Y-69704500D01*
X167710891Y-69704502D01*
X167690515Y-69734998D01*
X167690514Y-69735000D01*
X167686019Y-69741728D01*
X167659105Y-69782007D01*
X167656685Y-69794175D01*
X167656684Y-69794176D01*
X167640919Y-69873429D01*
X167638498Y-69885600D01*
X167640919Y-69897769D01*
X167641279Y-69899579D01*
X167643700Y-69924162D01*
X167643700Y-73508689D01*
X167623698Y-73576810D01*
X167606795Y-73597784D01*
X150106984Y-91097594D01*
X150044672Y-91131620D01*
X150017889Y-91134499D01*
X113549318Y-91134499D01*
X113481197Y-91114497D01*
X113434704Y-91060841D01*
X113424600Y-90990567D01*
X113454094Y-90925987D01*
X113468741Y-90911632D01*
X113492157Y-90892157D01*
X113613410Y-90746366D01*
X113619558Y-90738974D01*
X113619561Y-90738970D01*
X113623251Y-90734533D01*
X113626070Y-90729499D01*
X113626073Y-90729495D01*
X113720603Y-90560700D01*
X113720603Y-90560699D01*
X113723426Y-90555659D01*
X113725282Y-90550192D01*
X113725284Y-90550187D01*
X113787470Y-90366993D01*
X113787471Y-90366988D01*
X113789326Y-90361524D01*
X113790154Y-90355815D01*
X113790155Y-90355810D01*
X113818211Y-90162305D01*
X113818744Y-90158631D01*
X113820279Y-90100000D01*
X113801520Y-89895845D01*
X113791852Y-89861564D01*
X113747441Y-89704093D01*
X113747439Y-89704088D01*
X113745871Y-89698528D01*
X113655195Y-89514656D01*
X113532530Y-89350387D01*
X113381983Y-89211223D01*
X113377098Y-89208141D01*
X113372516Y-89204625D01*
X113374004Y-89202685D01*
X113334018Y-89157317D01*
X113323322Y-89087130D01*
X113343424Y-89034004D01*
X113346395Y-89029558D01*
X113362062Y-89010469D01*
X114935469Y-87437062D01*
X114954564Y-87421391D01*
X114956098Y-87420366D01*
X114956099Y-87420365D01*
X114966415Y-87413472D01*
X115025095Y-87325650D01*
X115028452Y-87308775D01*
X115037660Y-87262484D01*
X115043281Y-87234228D01*
X115045702Y-87222057D01*
X115042921Y-87208075D01*
X115040500Y-87183495D01*
X115040500Y-85750000D01*
X127584836Y-85750000D01*
X127603412Y-85891099D01*
X127657874Y-86022582D01*
X127744511Y-86135489D01*
X127857418Y-86222126D01*
X127988901Y-86276588D01*
X128130000Y-86295164D01*
X128138188Y-86294086D01*
X128262911Y-86277666D01*
X128271099Y-86276588D01*
X128402582Y-86222126D01*
X128515489Y-86135489D01*
X128602126Y-86022582D01*
X128656588Y-85891099D01*
X128675164Y-85750000D01*
X128663533Y-85661655D01*
X128674472Y-85591507D01*
X128699360Y-85556114D01*
X131805511Y-82449963D01*
X131867823Y-82415937D01*
X131942822Y-82422649D01*
X132048901Y-82466588D01*
X132190000Y-82485164D01*
X132198188Y-82484086D01*
X132322911Y-82467666D01*
X132331099Y-82466588D01*
X132462582Y-82412126D01*
X132575489Y-82325489D01*
X132662126Y-82212582D01*
X132716588Y-82081099D01*
X132735164Y-81940000D01*
X132716588Y-81798901D01*
X132662126Y-81667418D01*
X132575489Y-81554511D01*
X132462582Y-81467874D01*
X132331099Y-81413412D01*
X132190000Y-81394836D01*
X132048901Y-81413412D01*
X131917418Y-81467874D01*
X131804511Y-81554511D01*
X131717874Y-81667418D01*
X131663412Y-81798901D01*
X131662334Y-81807089D01*
X131660197Y-81815065D01*
X131658402Y-81814584D01*
X131633876Y-81870032D01*
X131626768Y-81877758D01*
X128323886Y-85180640D01*
X128261574Y-85214666D01*
X128218346Y-85216467D01*
X128130000Y-85204836D01*
X127988901Y-85223412D01*
X127857418Y-85277874D01*
X127744511Y-85364511D01*
X127657874Y-85477418D01*
X127603412Y-85608901D01*
X127584836Y-85750000D01*
X115040500Y-85750000D01*
X115040500Y-81448102D01*
X115060502Y-81379981D01*
X115077405Y-81359007D01*
X116583997Y-79852415D01*
X116646309Y-79818389D01*
X116673092Y-79815510D01*
X131912872Y-79815510D01*
X131980993Y-79835512D01*
X132001967Y-79852415D01*
X133684590Y-81535038D01*
X133700261Y-81554133D01*
X133700514Y-81554511D01*
X133708180Y-81565984D01*
X133718496Y-81572877D01*
X133724558Y-81578939D01*
X133758584Y-81641251D01*
X133753519Y-81712066D01*
X133729103Y-81752339D01*
X133614928Y-81879143D01*
X133516077Y-82050357D01*
X133454984Y-82238382D01*
X133454294Y-82244943D01*
X133454294Y-82244945D01*
X133444682Y-82336401D01*
X133434319Y-82435000D01*
X133435009Y-82441565D01*
X133451273Y-82596305D01*
X133454984Y-82631618D01*
X133457024Y-82637896D01*
X133516077Y-82819643D01*
X133514472Y-82820164D01*
X133522793Y-82882196D01*
X133492691Y-82946495D01*
X133487346Y-82952181D01*
X128345978Y-88093548D01*
X128283666Y-88127574D01*
X128240437Y-88129375D01*
X128138188Y-88115914D01*
X128130000Y-88114836D01*
X127988901Y-88133412D01*
X127857418Y-88187874D01*
X127744511Y-88274511D01*
X127657874Y-88387418D01*
X127603412Y-88518901D01*
X127584836Y-88660000D01*
X127603412Y-88801099D01*
X127657874Y-88932582D01*
X127744511Y-89045489D01*
X127857418Y-89132126D01*
X127988901Y-89186588D01*
X127997089Y-89187666D01*
X128053389Y-89195078D01*
X128118316Y-89223800D01*
X128157408Y-89283066D01*
X128158253Y-89354057D01*
X128120583Y-89414236D01*
X128053389Y-89444922D01*
X127988901Y-89453412D01*
X127857418Y-89507874D01*
X127744511Y-89594511D01*
X127657874Y-89707418D01*
X127603412Y-89838901D01*
X127584836Y-89980000D01*
X127603412Y-90121099D01*
X127657874Y-90252582D01*
X127744511Y-90365489D01*
X127857418Y-90452126D01*
X127988901Y-90506588D01*
X128130000Y-90525164D01*
X128138188Y-90524086D01*
X128262911Y-90507666D01*
X128271099Y-90506588D01*
X128402582Y-90452126D01*
X128515489Y-90365489D01*
X128570037Y-90294400D01*
X128627376Y-90252533D01*
X128698247Y-90248311D01*
X128760150Y-90283075D01*
X128769962Y-90294400D01*
X128824511Y-90365489D01*
X128937418Y-90452126D01*
X129068901Y-90506588D01*
X129210000Y-90525164D01*
X129218188Y-90524086D01*
X129342911Y-90507666D01*
X129351099Y-90506588D01*
X129482582Y-90452126D01*
X129595489Y-90365489D01*
X129682126Y-90252582D01*
X129736588Y-90121099D01*
X129755164Y-89980000D01*
X129743533Y-89891655D01*
X129754472Y-89821507D01*
X129779360Y-89786114D01*
X131748068Y-87817405D01*
X131810380Y-87783380D01*
X131837163Y-87780500D01*
X133385821Y-87780500D01*
X133453942Y-87800502D01*
X133500435Y-87854158D01*
X133505653Y-87867562D01*
X133516077Y-87899643D01*
X133614928Y-88070857D01*
X133619346Y-88075764D01*
X133619347Y-88075765D01*
X133635359Y-88093548D01*
X133747216Y-88217778D01*
X133907159Y-88333984D01*
X133913187Y-88336668D01*
X133913189Y-88336669D01*
X134046108Y-88395848D01*
X134087768Y-88414396D01*
X134184458Y-88434948D01*
X134274692Y-88454128D01*
X134274696Y-88454128D01*
X134281149Y-88455500D01*
X134478851Y-88455500D01*
X134485304Y-88454128D01*
X134485308Y-88454128D01*
X134575541Y-88434948D01*
X134672232Y-88414396D01*
X134713892Y-88395848D01*
X134846811Y-88336669D01*
X134846813Y-88336668D01*
X134852841Y-88333984D01*
X135012784Y-88217778D01*
X135124641Y-88093548D01*
X135140653Y-88075765D01*
X135140654Y-88075764D01*
X135145072Y-88070857D01*
X135243923Y-87899643D01*
X135305016Y-87711618D01*
X135325681Y-87515000D01*
X135316567Y-87428284D01*
X135305706Y-87324945D01*
X135305706Y-87324943D01*
X135305016Y-87318382D01*
X135243923Y-87130357D01*
X135237280Y-87118850D01*
X135178319Y-87016729D01*
X135145072Y-86959143D01*
X135012784Y-86812222D01*
X134873772Y-86711223D01*
X134858183Y-86699897D01*
X134858182Y-86699896D01*
X134852841Y-86696016D01*
X134846813Y-86693332D01*
X134846811Y-86693331D01*
X134678263Y-86618289D01*
X134678262Y-86618289D01*
X134672232Y-86615604D01*
X134575541Y-86595052D01*
X134485308Y-86575872D01*
X134485304Y-86575872D01*
X134478851Y-86574500D01*
X134281149Y-86574500D01*
X134274696Y-86575872D01*
X134274692Y-86575872D01*
X134184459Y-86595052D01*
X134087768Y-86615604D01*
X134081738Y-86618289D01*
X134081737Y-86618289D01*
X133913190Y-86693331D01*
X133913188Y-86693332D01*
X133907160Y-86696016D01*
X133901819Y-86699896D01*
X133901818Y-86699897D01*
X133799808Y-86774012D01*
X133747216Y-86812222D01*
X133614928Y-86959143D01*
X133581681Y-87016729D01*
X133522721Y-87118850D01*
X133516077Y-87130357D01*
X133505654Y-87162436D01*
X133465581Y-87221042D01*
X133400184Y-87248679D01*
X133385821Y-87249500D01*
X131713558Y-87249500D01*
X131688977Y-87247079D01*
X131687172Y-87246720D01*
X131687171Y-87246720D01*
X131675000Y-87244299D01*
X131648853Y-87249500D01*
X131571407Y-87264905D01*
X131561089Y-87271799D01*
X131553241Y-87275050D01*
X131482651Y-87282639D01*
X131419164Y-87250860D01*
X131382937Y-87189802D01*
X131385471Y-87118850D01*
X131415928Y-87069546D01*
X133208069Y-85277405D01*
X133270381Y-85243379D01*
X133297164Y-85240500D01*
X133385821Y-85240500D01*
X133453942Y-85260502D01*
X133500435Y-85314158D01*
X133505653Y-85327562D01*
X133516077Y-85359643D01*
X133519380Y-85365365D01*
X133519381Y-85365366D01*
X133522669Y-85371061D01*
X133614928Y-85530857D01*
X133619346Y-85535764D01*
X133619347Y-85535765D01*
X133637260Y-85555659D01*
X133747216Y-85677778D01*
X133907159Y-85793984D01*
X133913187Y-85796668D01*
X133913189Y-85796669D01*
X134081737Y-85871711D01*
X134087768Y-85874396D01*
X134168044Y-85891459D01*
X134274692Y-85914128D01*
X134274696Y-85914128D01*
X134281149Y-85915500D01*
X134478851Y-85915500D01*
X134485304Y-85914128D01*
X134485308Y-85914128D01*
X134591956Y-85891459D01*
X134672232Y-85874396D01*
X134678263Y-85871711D01*
X134846811Y-85796669D01*
X134846813Y-85796668D01*
X134852841Y-85793984D01*
X135012784Y-85677778D01*
X135122740Y-85555659D01*
X135140653Y-85535765D01*
X135140654Y-85535764D01*
X135145072Y-85530857D01*
X135237331Y-85371061D01*
X135240619Y-85365366D01*
X135240620Y-85365365D01*
X135243923Y-85359643D01*
X135305016Y-85171618D01*
X135325681Y-84975000D01*
X135316777Y-84890281D01*
X135305706Y-84784945D01*
X135305706Y-84784943D01*
X135305016Y-84778382D01*
X135243923Y-84590357D01*
X135145072Y-84419143D01*
X135087328Y-84355011D01*
X135017206Y-84277133D01*
X135017205Y-84277132D01*
X135012784Y-84272222D01*
X134852841Y-84156016D01*
X134846813Y-84153332D01*
X134846811Y-84153331D01*
X134678263Y-84078289D01*
X134678262Y-84078289D01*
X134672232Y-84075604D01*
X134563615Y-84052517D01*
X134485308Y-84035872D01*
X134485304Y-84035872D01*
X134478851Y-84034500D01*
X134281149Y-84034500D01*
X134274696Y-84035872D01*
X134274692Y-84035872D01*
X134196385Y-84052517D01*
X134087768Y-84075604D01*
X134081738Y-84078289D01*
X134081737Y-84078289D01*
X133913190Y-84153331D01*
X133913188Y-84153332D01*
X133907160Y-84156016D01*
X133901819Y-84159896D01*
X133901818Y-84159897D01*
X133833638Y-84209433D01*
X133747216Y-84272222D01*
X133742795Y-84277132D01*
X133742794Y-84277133D01*
X133672673Y-84355011D01*
X133614928Y-84419143D01*
X133516077Y-84590357D01*
X133514035Y-84596642D01*
X133505654Y-84622436D01*
X133465581Y-84681042D01*
X133400184Y-84708679D01*
X133385821Y-84709500D01*
X133173562Y-84709500D01*
X133148982Y-84707079D01*
X133135000Y-84704298D01*
X133048213Y-84721562D01*
X133031407Y-84724905D01*
X132943585Y-84783585D01*
X132936692Y-84793901D01*
X132936691Y-84793902D01*
X132935666Y-84795436D01*
X132919995Y-84814531D01*
X128877082Y-88857444D01*
X128814770Y-88891470D01*
X128743955Y-88886405D01*
X128687119Y-88843858D01*
X128662308Y-88777338D01*
X128663065Y-88751903D01*
X128674086Y-88668188D01*
X128675164Y-88660000D01*
X128671075Y-88628939D01*
X128666442Y-88593746D01*
X128677382Y-88523597D01*
X128702269Y-88488205D01*
X131276346Y-85914128D01*
X133866220Y-83324253D01*
X133928532Y-83290227D01*
X133999347Y-83295292D01*
X134006535Y-83298229D01*
X134087768Y-83334396D01*
X134094229Y-83335769D01*
X134094228Y-83335769D01*
X134274692Y-83374128D01*
X134274696Y-83374128D01*
X134281149Y-83375500D01*
X134478851Y-83375500D01*
X134485304Y-83374128D01*
X134485308Y-83374128D01*
X134575542Y-83354948D01*
X134672232Y-83334396D01*
X134678265Y-83331710D01*
X134846811Y-83256669D01*
X134846813Y-83256668D01*
X134852841Y-83253984D01*
X134873501Y-83238974D01*
X134975516Y-83164855D01*
X135012784Y-83137778D01*
X135034880Y-83113238D01*
X135140653Y-82995765D01*
X135140654Y-82995764D01*
X135145072Y-82990857D01*
X135243923Y-82819643D01*
X135305016Y-82631618D01*
X135308728Y-82596305D01*
X135324991Y-82441565D01*
X135325681Y-82435000D01*
X135315318Y-82336401D01*
X135305706Y-82244945D01*
X135305706Y-82244943D01*
X135305016Y-82238382D01*
X135243923Y-82050357D01*
X135145072Y-81879143D01*
X135023588Y-81744221D01*
X134992873Y-81680217D01*
X135001637Y-81609763D01*
X135027279Y-81572071D01*
X135036389Y-81565984D01*
X135044055Y-81554511D01*
X135044308Y-81554133D01*
X135059979Y-81535038D01*
X135865522Y-80729495D01*
X136672611Y-79922405D01*
X136734923Y-79888380D01*
X136761706Y-79885500D01*
X141777836Y-79885500D01*
X141845957Y-79905502D01*
X141866931Y-79922405D01*
X144535095Y-82590569D01*
X144569121Y-82652881D01*
X144572000Y-82679664D01*
X144572000Y-87710304D01*
X144551998Y-87778425D01*
X144522704Y-87810266D01*
X144452011Y-87864511D01*
X144365374Y-87977418D01*
X144310912Y-88108901D01*
X144292336Y-88250000D01*
X144310912Y-88391099D01*
X144365374Y-88522582D01*
X144452011Y-88635489D01*
X144564918Y-88722126D01*
X144696401Y-88776588D01*
X144837500Y-88795164D01*
X144845688Y-88794086D01*
X144970411Y-88777666D01*
X144978599Y-88776588D01*
X145110082Y-88722126D01*
X145222989Y-88635489D01*
X145309626Y-88522582D01*
X145364088Y-88391099D01*
X145382664Y-88250000D01*
X145364088Y-88108901D01*
X145309626Y-87977418D01*
X145222989Y-87864511D01*
X145152296Y-87810266D01*
X145110429Y-87752928D01*
X145103000Y-87710304D01*
X145103000Y-87515000D01*
X148674319Y-87515000D01*
X148694984Y-87711618D01*
X148756077Y-87899643D01*
X148854928Y-88070857D01*
X148859346Y-88075764D01*
X148859347Y-88075765D01*
X148875359Y-88093548D01*
X148987216Y-88217778D01*
X149147159Y-88333984D01*
X149153187Y-88336668D01*
X149153189Y-88336669D01*
X149286108Y-88395848D01*
X149327768Y-88414396D01*
X149424458Y-88434948D01*
X149514692Y-88454128D01*
X149514696Y-88454128D01*
X149521149Y-88455500D01*
X149718851Y-88455500D01*
X149725304Y-88454128D01*
X149725308Y-88454128D01*
X149815541Y-88434948D01*
X149912232Y-88414396D01*
X149953892Y-88395848D01*
X150086811Y-88336669D01*
X150086813Y-88336668D01*
X150092841Y-88333984D01*
X150252784Y-88217778D01*
X150364641Y-88093548D01*
X150380653Y-88075765D01*
X150380654Y-88075764D01*
X150385072Y-88070857D01*
X150483923Y-87899643D01*
X150545016Y-87711618D01*
X150565681Y-87515000D01*
X150556567Y-87428284D01*
X150545706Y-87324945D01*
X150545706Y-87324943D01*
X150545016Y-87318382D01*
X150483923Y-87130357D01*
X150477280Y-87118850D01*
X150418319Y-87016729D01*
X150385072Y-86959143D01*
X150252784Y-86812222D01*
X150113772Y-86711223D01*
X150098183Y-86699897D01*
X150098182Y-86699896D01*
X150092841Y-86696016D01*
X150086813Y-86693332D01*
X150086811Y-86693331D01*
X149918263Y-86618289D01*
X149918262Y-86618289D01*
X149912232Y-86615604D01*
X149815541Y-86595052D01*
X149725308Y-86575872D01*
X149725304Y-86575872D01*
X149718851Y-86574500D01*
X149521149Y-86574500D01*
X149514696Y-86575872D01*
X149514692Y-86575872D01*
X149424459Y-86595052D01*
X149327768Y-86615604D01*
X149321738Y-86618289D01*
X149321737Y-86618289D01*
X149153190Y-86693331D01*
X149153188Y-86693332D01*
X149147160Y-86696016D01*
X149141819Y-86699896D01*
X149141818Y-86699897D01*
X149039808Y-86774012D01*
X148987216Y-86812222D01*
X148854928Y-86959143D01*
X148821681Y-87016729D01*
X148762721Y-87118850D01*
X148756077Y-87130357D01*
X148694984Y-87318382D01*
X148694294Y-87324943D01*
X148694294Y-87324945D01*
X148683433Y-87428284D01*
X148674319Y-87515000D01*
X145103000Y-87515000D01*
X145103000Y-84975000D01*
X148674319Y-84975000D01*
X148694984Y-85171618D01*
X148756077Y-85359643D01*
X148759380Y-85365365D01*
X148759381Y-85365366D01*
X148762669Y-85371061D01*
X148854928Y-85530857D01*
X148859346Y-85535764D01*
X148859347Y-85535765D01*
X148877260Y-85555659D01*
X148987216Y-85677778D01*
X149147159Y-85793984D01*
X149153187Y-85796668D01*
X149153189Y-85796669D01*
X149321737Y-85871711D01*
X149327768Y-85874396D01*
X149408044Y-85891459D01*
X149514692Y-85914128D01*
X149514696Y-85914128D01*
X149521149Y-85915500D01*
X149718851Y-85915500D01*
X149725304Y-85914128D01*
X149725308Y-85914128D01*
X149831956Y-85891459D01*
X149912232Y-85874396D01*
X149918263Y-85871711D01*
X150086811Y-85796669D01*
X150086813Y-85796668D01*
X150092841Y-85793984D01*
X150252784Y-85677778D01*
X150362740Y-85555659D01*
X150380653Y-85535765D01*
X150380654Y-85535764D01*
X150385072Y-85530857D01*
X150477331Y-85371061D01*
X150480619Y-85365366D01*
X150480620Y-85365365D01*
X150483923Y-85359643D01*
X150545016Y-85171618D01*
X150565681Y-84975000D01*
X150556777Y-84890281D01*
X150545706Y-84784945D01*
X150545706Y-84784943D01*
X150545016Y-84778382D01*
X150483923Y-84590357D01*
X150385072Y-84419143D01*
X150327328Y-84355011D01*
X150257206Y-84277133D01*
X150257205Y-84277132D01*
X150252784Y-84272222D01*
X150092841Y-84156016D01*
X150086813Y-84153332D01*
X150086811Y-84153331D01*
X149918263Y-84078289D01*
X149918262Y-84078289D01*
X149912232Y-84075604D01*
X149803615Y-84052517D01*
X149725308Y-84035872D01*
X149725304Y-84035872D01*
X149718851Y-84034500D01*
X149521149Y-84034500D01*
X149514696Y-84035872D01*
X149514692Y-84035872D01*
X149436385Y-84052517D01*
X149327768Y-84075604D01*
X149321738Y-84078289D01*
X149321737Y-84078289D01*
X149153190Y-84153331D01*
X149153188Y-84153332D01*
X149147160Y-84156016D01*
X149141819Y-84159896D01*
X149141818Y-84159897D01*
X149073638Y-84209433D01*
X148987216Y-84272222D01*
X148982795Y-84277132D01*
X148982794Y-84277133D01*
X148912673Y-84355011D01*
X148854928Y-84419143D01*
X148756077Y-84590357D01*
X148694984Y-84778382D01*
X148694294Y-84784943D01*
X148694294Y-84784945D01*
X148683223Y-84890281D01*
X148674319Y-84975000D01*
X145103000Y-84975000D01*
X145103000Y-82556062D01*
X145105421Y-82531479D01*
X145105781Y-82529669D01*
X145108202Y-82517500D01*
X145091791Y-82435000D01*
X148674319Y-82435000D01*
X148675009Y-82441565D01*
X148691273Y-82596305D01*
X148694984Y-82631618D01*
X148756077Y-82819643D01*
X148854928Y-82990857D01*
X148859346Y-82995764D01*
X148859347Y-82995765D01*
X148965120Y-83113238D01*
X148987216Y-83137778D01*
X149024484Y-83164855D01*
X149126500Y-83238974D01*
X149147159Y-83253984D01*
X149153187Y-83256668D01*
X149153189Y-83256669D01*
X149321735Y-83331710D01*
X149327768Y-83334396D01*
X149424458Y-83354948D01*
X149514692Y-83374128D01*
X149514696Y-83374128D01*
X149521149Y-83375500D01*
X149718851Y-83375500D01*
X149725304Y-83374128D01*
X149725308Y-83374128D01*
X149815541Y-83354948D01*
X149912232Y-83334396D01*
X149918265Y-83331710D01*
X150086811Y-83256669D01*
X150086813Y-83256668D01*
X150092841Y-83253984D01*
X150113501Y-83238974D01*
X150215516Y-83164855D01*
X150252784Y-83137778D01*
X150274880Y-83113238D01*
X150380653Y-82995765D01*
X150380654Y-82995764D01*
X150385072Y-82990857D01*
X150483923Y-82819643D01*
X150545016Y-82631618D01*
X150548728Y-82596305D01*
X150564991Y-82441565D01*
X150565681Y-82435000D01*
X150555318Y-82336401D01*
X150545706Y-82244945D01*
X150545706Y-82244943D01*
X150545016Y-82238382D01*
X150483923Y-82050357D01*
X150385072Y-81879143D01*
X150376869Y-81870032D01*
X150257206Y-81737133D01*
X150257205Y-81737132D01*
X150252784Y-81732222D01*
X150126078Y-81640164D01*
X150098183Y-81619897D01*
X150098182Y-81619896D01*
X150092841Y-81616016D01*
X150086813Y-81613332D01*
X150086811Y-81613331D01*
X149918263Y-81538289D01*
X149918262Y-81538289D01*
X149912232Y-81535604D01*
X149815541Y-81515052D01*
X149725308Y-81495872D01*
X149725304Y-81495872D01*
X149718851Y-81494500D01*
X149521149Y-81494500D01*
X149514696Y-81495872D01*
X149514692Y-81495872D01*
X149424459Y-81515052D01*
X149327768Y-81535604D01*
X149321738Y-81538289D01*
X149321737Y-81538289D01*
X149153190Y-81613331D01*
X149153188Y-81613332D01*
X149147160Y-81616016D01*
X149141819Y-81619896D01*
X149141818Y-81619897D01*
X149010725Y-81715142D01*
X148987216Y-81732222D01*
X148982795Y-81737132D01*
X148982794Y-81737133D01*
X148863132Y-81870032D01*
X148854928Y-81879143D01*
X148756077Y-82050357D01*
X148694984Y-82238382D01*
X148694294Y-82244943D01*
X148694294Y-82244945D01*
X148684682Y-82336401D01*
X148674319Y-82435000D01*
X145091791Y-82435000D01*
X145087595Y-82413908D01*
X145087595Y-82413907D01*
X145028915Y-82326085D01*
X145018599Y-82319192D01*
X145018598Y-82319191D01*
X145017064Y-82318166D01*
X144997969Y-82302495D01*
X142219569Y-79524095D01*
X142185543Y-79461783D01*
X142190608Y-79390968D01*
X142219569Y-79345905D01*
X143013069Y-78552405D01*
X143075381Y-78518379D01*
X143102164Y-78515500D01*
X144297804Y-78515500D01*
X144365925Y-78535502D01*
X144397766Y-78564796D01*
X144452011Y-78635489D01*
X144564918Y-78722126D01*
X144696401Y-78776588D01*
X144837500Y-78795164D01*
X144845688Y-78794086D01*
X144970411Y-78777666D01*
X144978599Y-78776588D01*
X145110082Y-78722126D01*
X145222989Y-78635489D01*
X145309626Y-78522582D01*
X145364088Y-78391099D01*
X145382664Y-78250000D01*
X145364088Y-78108901D01*
X145309626Y-77977418D01*
X145222989Y-77864511D01*
X145199465Y-77846460D01*
X145157600Y-77789125D01*
X145153378Y-77718254D01*
X145188142Y-77656351D01*
X145250855Y-77623070D01*
X145276171Y-77620500D01*
X148625821Y-77620500D01*
X148693942Y-77640502D01*
X148740435Y-77694158D01*
X148745653Y-77707562D01*
X148756077Y-77739643D01*
X148854928Y-77910857D01*
X148859346Y-77915764D01*
X148859347Y-77915765D01*
X148921236Y-77984500D01*
X148987216Y-78057778D01*
X149063550Y-78113238D01*
X149129071Y-78160842D01*
X149147159Y-78173984D01*
X149153187Y-78176668D01*
X149153189Y-78176669D01*
X149309730Y-78246365D01*
X149327768Y-78254396D01*
X149424458Y-78274948D01*
X149514692Y-78294128D01*
X149514696Y-78294128D01*
X149521149Y-78295500D01*
X149718851Y-78295500D01*
X149725304Y-78294128D01*
X149725308Y-78294128D01*
X149815542Y-78274948D01*
X149912232Y-78254396D01*
X149930270Y-78246365D01*
X150086811Y-78176669D01*
X150086813Y-78176668D01*
X150092841Y-78173984D01*
X150110930Y-78160842D01*
X150176450Y-78113238D01*
X150252784Y-78057778D01*
X150340065Y-77960842D01*
X150400510Y-77923604D01*
X150471494Y-77924956D01*
X150530478Y-77964470D01*
X150558736Y-78029600D01*
X150559700Y-78045154D01*
X150559700Y-78527636D01*
X150539698Y-78595757D01*
X150522795Y-78616732D01*
X150133779Y-79005747D01*
X150071467Y-79039772D01*
X150000651Y-79034707D01*
X149993443Y-79031761D01*
X149912232Y-78995604D01*
X149788236Y-78969248D01*
X149725308Y-78955872D01*
X149725304Y-78955872D01*
X149718851Y-78954500D01*
X149521149Y-78954500D01*
X149514696Y-78955872D01*
X149514692Y-78955872D01*
X149451764Y-78969248D01*
X149327768Y-78995604D01*
X149321738Y-78998289D01*
X149321737Y-78998289D01*
X149153190Y-79073331D01*
X149153188Y-79073332D01*
X149147160Y-79076016D01*
X149141819Y-79079896D01*
X149141818Y-79079897D01*
X149058210Y-79140642D01*
X148987216Y-79192222D01*
X148982795Y-79197132D01*
X148982794Y-79197133D01*
X148862616Y-79330605D01*
X148854928Y-79339143D01*
X148825007Y-79390968D01*
X148767916Y-79489852D01*
X148756077Y-79510357D01*
X148694984Y-79698382D01*
X148694294Y-79704943D01*
X148694294Y-79704945D01*
X148678162Y-79858434D01*
X148674319Y-79895000D01*
X148694984Y-80091618D01*
X148756077Y-80279643D01*
X148854928Y-80450857D01*
X148859346Y-80455764D01*
X148859347Y-80455765D01*
X148944365Y-80550187D01*
X148987216Y-80597778D01*
X149147159Y-80713984D01*
X149153187Y-80716668D01*
X149153189Y-80716669D01*
X149219888Y-80746365D01*
X149327768Y-80794396D01*
X149424459Y-80814948D01*
X149514692Y-80834128D01*
X149514696Y-80834128D01*
X149521149Y-80835500D01*
X149718851Y-80835500D01*
X149725304Y-80834128D01*
X149725308Y-80834128D01*
X149815541Y-80814948D01*
X149912232Y-80794396D01*
X150020112Y-80746365D01*
X150086811Y-80716669D01*
X150086813Y-80716668D01*
X150092841Y-80713984D01*
X150252784Y-80597778D01*
X150295635Y-80550187D01*
X150380653Y-80455765D01*
X150380654Y-80455764D01*
X150385072Y-80450857D01*
X150483923Y-80279643D01*
X150545016Y-80091618D01*
X150565681Y-79895000D01*
X150561838Y-79858434D01*
X150545706Y-79704945D01*
X150545706Y-79704943D01*
X150545016Y-79698382D01*
X150483923Y-79510357D01*
X150485528Y-79509836D01*
X150477207Y-79447804D01*
X150507309Y-79383505D01*
X150512654Y-79377819D01*
X150985666Y-78904807D01*
X151004761Y-78889136D01*
X151006298Y-78888109D01*
X151006299Y-78888108D01*
X151016615Y-78881215D01*
X151075295Y-78793393D01*
X151079809Y-78770702D01*
X151089472Y-78722126D01*
X151093481Y-78701971D01*
X151095902Y-78689800D01*
X151093121Y-78675818D01*
X151090700Y-78651238D01*
X151090700Y-76949762D01*
X151093121Y-76925179D01*
X151093481Y-76923369D01*
X151095902Y-76911200D01*
X151075295Y-76807607D01*
X151061014Y-76786233D01*
X151031426Y-76741952D01*
X151023510Y-76730105D01*
X151016615Y-76719785D01*
X151006296Y-76712890D01*
X151006294Y-76712888D01*
X151004764Y-76711866D01*
X150985669Y-76696195D01*
X150459005Y-76169531D01*
X150443334Y-76150436D01*
X150442309Y-76148902D01*
X150442308Y-76148901D01*
X150435415Y-76138585D01*
X150415509Y-76125284D01*
X150357912Y-76086800D01*
X150357913Y-76086800D01*
X150347593Y-76079905D01*
X150270151Y-76064500D01*
X150256171Y-76061719D01*
X150244000Y-76059298D01*
X150230018Y-76062079D01*
X150205438Y-76064500D01*
X148701762Y-76064500D01*
X148677182Y-76062079D01*
X148663200Y-76059298D01*
X148651029Y-76061719D01*
X148637049Y-76064500D01*
X148559607Y-76079905D01*
X148549287Y-76086800D01*
X148549288Y-76086800D01*
X148491692Y-76125284D01*
X148471785Y-76138585D01*
X148464892Y-76148901D01*
X148464891Y-76148902D01*
X148463866Y-76150436D01*
X148448195Y-76169531D01*
X148008931Y-76608795D01*
X147946619Y-76642821D01*
X147919836Y-76645700D01*
X143298505Y-76645700D01*
X143273924Y-76643279D01*
X143272114Y-76642919D01*
X143272113Y-76642919D01*
X143259942Y-76640498D01*
X143156350Y-76661104D01*
X143156348Y-76661105D01*
X143156349Y-76661105D01*
X143152706Y-76663539D01*
X143085954Y-76708141D01*
X143068527Y-76719785D01*
X143061633Y-76730103D01*
X143061631Y-76730105D01*
X143060610Y-76731634D01*
X143044939Y-76750729D01*
X141598073Y-78197595D01*
X141535761Y-78231621D01*
X141508978Y-78234500D01*
X135136663Y-78234500D01*
X135068542Y-78214498D01*
X135022049Y-78160842D01*
X135011945Y-78090568D01*
X135043027Y-78024190D01*
X135140653Y-77915765D01*
X135140654Y-77915764D01*
X135145072Y-77910857D01*
X135243923Y-77739643D01*
X135305016Y-77551618D01*
X135306089Y-77541415D01*
X135324991Y-77361565D01*
X135324991Y-77361564D01*
X135325681Y-77355000D01*
X135315480Y-77257939D01*
X135305706Y-77164945D01*
X135305706Y-77164943D01*
X135305016Y-77158382D01*
X135243923Y-76970357D01*
X135232033Y-76949762D01*
X135186233Y-76870435D01*
X135145072Y-76799143D01*
X135052378Y-76696195D01*
X135017206Y-76657133D01*
X135017205Y-76657132D01*
X135012784Y-76652222D01*
X134894485Y-76566272D01*
X134858183Y-76539897D01*
X134858182Y-76539896D01*
X134852841Y-76536016D01*
X134846813Y-76533332D01*
X134846811Y-76533331D01*
X134678263Y-76458289D01*
X134678262Y-76458289D01*
X134672232Y-76455604D01*
X134575541Y-76435052D01*
X134485308Y-76415872D01*
X134485304Y-76415872D01*
X134478851Y-76414500D01*
X134281149Y-76414500D01*
X134274696Y-76415872D01*
X134274692Y-76415872D01*
X134184459Y-76435052D01*
X134087768Y-76455604D01*
X134081738Y-76458289D01*
X134081737Y-76458289D01*
X133913190Y-76533331D01*
X133913188Y-76533332D01*
X133907160Y-76536016D01*
X133901819Y-76539896D01*
X133901818Y-76539897D01*
X133756193Y-76645700D01*
X133747216Y-76652222D01*
X133742795Y-76657132D01*
X133742794Y-76657133D01*
X133707623Y-76696195D01*
X133614928Y-76799143D01*
X133573767Y-76870435D01*
X133527968Y-76949762D01*
X133516077Y-76970357D01*
X133514035Y-76976642D01*
X133513002Y-76979820D01*
X133511907Y-76981421D01*
X133511351Y-76982670D01*
X133511123Y-76982568D01*
X133472925Y-77038423D01*
X133407527Y-77066056D01*
X133337571Y-77053946D01*
X133304076Y-77029972D01*
X133000612Y-76726508D01*
X132966586Y-76664196D01*
X132971651Y-76593381D01*
X133019701Y-76532651D01*
X133026670Y-76527994D01*
X133029873Y-76525854D01*
X133081414Y-76491416D01*
X133088309Y-76481097D01*
X133088311Y-76481095D01*
X133089333Y-76479565D01*
X133105004Y-76460470D01*
X133862761Y-75702713D01*
X133925073Y-75668687D01*
X133995888Y-75673752D01*
X134003076Y-75676689D01*
X134087768Y-75714396D01*
X134094229Y-75715769D01*
X134094228Y-75715769D01*
X134274692Y-75754128D01*
X134274696Y-75754128D01*
X134281149Y-75755500D01*
X134478851Y-75755500D01*
X134485304Y-75754128D01*
X134485308Y-75754128D01*
X134577494Y-75734533D01*
X134672232Y-75714396D01*
X134740384Y-75684053D01*
X134846811Y-75636669D01*
X134846813Y-75636668D01*
X134852841Y-75633984D01*
X135012784Y-75517778D01*
X135111729Y-75407888D01*
X135140653Y-75375765D01*
X135140654Y-75375764D01*
X135145072Y-75370857D01*
X135243923Y-75199643D01*
X135305016Y-75011618D01*
X135325681Y-74815000D01*
X148674319Y-74815000D01*
X148694984Y-75011618D01*
X148756077Y-75199643D01*
X148854928Y-75370857D01*
X148859346Y-75375764D01*
X148859347Y-75375765D01*
X148888271Y-75407888D01*
X148987216Y-75517778D01*
X149147159Y-75633984D01*
X149153187Y-75636668D01*
X149153189Y-75636669D01*
X149259616Y-75684053D01*
X149327768Y-75714396D01*
X149422506Y-75734533D01*
X149514692Y-75754128D01*
X149514696Y-75754128D01*
X149521149Y-75755500D01*
X149718851Y-75755500D01*
X149725304Y-75754128D01*
X149725308Y-75754128D01*
X149817494Y-75734533D01*
X149912232Y-75714396D01*
X149980384Y-75684053D01*
X150086811Y-75636669D01*
X150086813Y-75636668D01*
X150092841Y-75633984D01*
X150252784Y-75517778D01*
X150351729Y-75407888D01*
X150380653Y-75375765D01*
X150380654Y-75375764D01*
X150385072Y-75370857D01*
X150483923Y-75199643D01*
X150545016Y-75011618D01*
X150565681Y-74815000D01*
X150558680Y-74748389D01*
X150545706Y-74624945D01*
X150545706Y-74624943D01*
X150545016Y-74618382D01*
X150483923Y-74430357D01*
X150474597Y-74414203D01*
X150429524Y-74336136D01*
X150385072Y-74259143D01*
X150376409Y-74249521D01*
X150257206Y-74117133D01*
X150257205Y-74117132D01*
X150252784Y-74112222D01*
X150132358Y-74024727D01*
X150098183Y-73999897D01*
X150098182Y-73999896D01*
X150092841Y-73996016D01*
X150086813Y-73993332D01*
X150086811Y-73993331D01*
X149918263Y-73918289D01*
X149918262Y-73918289D01*
X149912232Y-73915604D01*
X149801310Y-73892027D01*
X149725308Y-73875872D01*
X149725304Y-73875872D01*
X149718851Y-73874500D01*
X149521149Y-73874500D01*
X149514696Y-73875872D01*
X149514692Y-73875872D01*
X149438690Y-73892027D01*
X149327768Y-73915604D01*
X149321738Y-73918289D01*
X149321737Y-73918289D01*
X149153190Y-73993331D01*
X149153188Y-73993332D01*
X149147160Y-73996016D01*
X149141819Y-73999896D01*
X149141818Y-73999897D01*
X148997034Y-74105089D01*
X148987216Y-74112222D01*
X148982795Y-74117132D01*
X148982794Y-74117133D01*
X148863592Y-74249521D01*
X148854928Y-74259143D01*
X148810476Y-74336136D01*
X148765404Y-74414203D01*
X148756077Y-74430357D01*
X148694984Y-74618382D01*
X148694294Y-74624943D01*
X148694294Y-74624945D01*
X148681320Y-74748389D01*
X148674319Y-74815000D01*
X135325681Y-74815000D01*
X135318680Y-74748389D01*
X135305706Y-74624945D01*
X135305706Y-74624943D01*
X135305016Y-74618382D01*
X135243923Y-74430357D01*
X135234597Y-74414203D01*
X135189524Y-74336136D01*
X135145072Y-74259143D01*
X135136409Y-74249521D01*
X135017206Y-74117133D01*
X135017205Y-74117132D01*
X135012784Y-74112222D01*
X134892358Y-74024727D01*
X134858183Y-73999897D01*
X134858182Y-73999896D01*
X134852841Y-73996016D01*
X134846813Y-73993332D01*
X134846811Y-73993331D01*
X134678263Y-73918289D01*
X134678262Y-73918289D01*
X134672232Y-73915604D01*
X134561310Y-73892027D01*
X134485308Y-73875872D01*
X134485304Y-73875872D01*
X134478851Y-73874500D01*
X134281149Y-73874500D01*
X134274696Y-73875872D01*
X134274692Y-73875872D01*
X134198690Y-73892027D01*
X134087768Y-73915604D01*
X134081738Y-73918289D01*
X134081737Y-73918289D01*
X133913190Y-73993331D01*
X133913188Y-73993332D01*
X133907160Y-73996016D01*
X133901819Y-73999896D01*
X133901818Y-73999897D01*
X133757034Y-74105089D01*
X133747216Y-74112222D01*
X133742795Y-74117132D01*
X133742794Y-74117133D01*
X133623592Y-74249521D01*
X133614928Y-74259143D01*
X133570476Y-74336136D01*
X133525404Y-74414203D01*
X133516077Y-74430357D01*
X133454984Y-74618382D01*
X133454294Y-74624943D01*
X133454294Y-74624945D01*
X133441320Y-74748389D01*
X133434319Y-74815000D01*
X133454984Y-75011618D01*
X133483701Y-75100000D01*
X133516077Y-75199643D01*
X133513445Y-75200498D01*
X133521249Y-75258759D01*
X133491134Y-75323053D01*
X133485805Y-75328721D01*
X132816930Y-75997596D01*
X132754618Y-76031622D01*
X132727835Y-76034501D01*
X113941500Y-76034501D01*
X113873379Y-76014499D01*
X113826886Y-75960843D01*
X113815500Y-75908501D01*
X113815499Y-74117353D01*
X113815499Y-74111160D01*
X113807349Y-74070179D01*
X113776295Y-74023705D01*
X113729821Y-73992651D01*
X113701335Y-73986985D01*
X113694911Y-73985707D01*
X113694908Y-73985707D01*
X113688841Y-73984500D01*
X112700400Y-73984500D01*
X111711160Y-73984501D01*
X111670179Y-73992651D01*
X111623705Y-74023705D01*
X111592651Y-74070179D01*
X111590230Y-74082353D01*
X111585708Y-74105087D01*
X111584500Y-74111159D01*
X111584501Y-75070675D01*
X111584501Y-75804837D01*
X111564499Y-75872958D01*
X111510843Y-75919451D01*
X111440569Y-75929555D01*
X111375989Y-75900061D01*
X111369406Y-75893932D01*
X111221839Y-75746365D01*
X111187813Y-75684053D01*
X111192878Y-75613238D01*
X111201000Y-75595703D01*
X111220603Y-75560700D01*
X111220604Y-75560699D01*
X111223426Y-75555659D01*
X111225282Y-75550192D01*
X111225284Y-75550187D01*
X111287470Y-75366993D01*
X111287471Y-75366988D01*
X111289326Y-75361524D01*
X111290154Y-75355815D01*
X111290155Y-75355810D01*
X111311968Y-75205366D01*
X111318744Y-75158631D01*
X111320279Y-75100000D01*
X111301520Y-74895845D01*
X111280571Y-74821565D01*
X111247441Y-74704093D01*
X111247439Y-74704088D01*
X111245871Y-74698528D01*
X111155195Y-74514656D01*
X111087973Y-74424634D01*
X111035983Y-74355011D01*
X111035982Y-74355010D01*
X111032530Y-74350387D01*
X110881983Y-74211223D01*
X110708596Y-74101824D01*
X110518176Y-74025854D01*
X110512516Y-74024728D01*
X110512512Y-74024727D01*
X110322769Y-73986985D01*
X110322764Y-73986985D01*
X110317101Y-73985858D01*
X110311326Y-73985782D01*
X110311322Y-73985782D01*
X110208605Y-73984437D01*
X110112104Y-73983174D01*
X110106407Y-73984153D01*
X110106406Y-73984153D01*
X109916335Y-74016814D01*
X109910050Y-74017894D01*
X109717707Y-74088853D01*
X109712746Y-74091805D01*
X109712745Y-74091805D01*
X109670173Y-74117133D01*
X109541517Y-74193675D01*
X109387378Y-74328851D01*
X109383811Y-74333376D01*
X109383806Y-74333381D01*
X109307357Y-74430357D01*
X109260455Y-74489852D01*
X109257764Y-74494968D01*
X109257762Y-74494970D01*
X109193902Y-74616348D01*
X109164997Y-74671288D01*
X109104202Y-74867081D01*
X109080105Y-75070675D01*
X109093513Y-75275250D01*
X109143979Y-75473957D01*
X109229810Y-75660139D01*
X109233143Y-75664855D01*
X109296235Y-75754128D01*
X109348133Y-75827563D01*
X109494986Y-75970620D01*
X109665449Y-76084520D01*
X109670752Y-76086798D01*
X109670755Y-76086800D01*
X109842885Y-76160753D01*
X109853815Y-76165449D01*
X109927559Y-76182136D01*
X110048137Y-76209420D01*
X110048142Y-76209421D01*
X110053774Y-76210695D01*
X110059545Y-76210922D01*
X110059547Y-76210922D01*
X110121339Y-76213350D01*
X110258631Y-76218744D01*
X110360078Y-76204035D01*
X110455810Y-76190155D01*
X110455815Y-76190154D01*
X110461524Y-76189326D01*
X110466988Y-76187471D01*
X110466993Y-76187470D01*
X110650187Y-76125284D01*
X110650192Y-76125282D01*
X110655659Y-76123426D01*
X110695703Y-76101000D01*
X110764912Y-76085166D01*
X110831694Y-76109263D01*
X110846365Y-76121839D01*
X111184996Y-76460470D01*
X111200667Y-76479565D01*
X111201692Y-76481099D01*
X111208586Y-76491416D01*
X111218902Y-76498309D01*
X111275336Y-76536016D01*
X111296408Y-76550096D01*
X111313214Y-76553439D01*
X111400001Y-76570703D01*
X111413983Y-76567922D01*
X111438563Y-76565501D01*
X111852898Y-76565501D01*
X111921019Y-76585503D01*
X111967512Y-76639159D01*
X111977616Y-76709433D01*
X111948122Y-76774013D01*
X111935978Y-76786230D01*
X111887378Y-76828851D01*
X111883811Y-76833376D01*
X111883806Y-76833381D01*
X111767101Y-76981421D01*
X111760455Y-76989852D01*
X111757764Y-76994968D01*
X111757762Y-76994970D01*
X111675090Y-77152104D01*
X111664997Y-77171288D01*
X111604202Y-77367081D01*
X111580105Y-77570675D01*
X111593513Y-77775250D01*
X111643979Y-77973957D01*
X111729810Y-78160139D01*
X111733143Y-78164855D01*
X111824504Y-78294128D01*
X111848133Y-78327563D01*
X111848723Y-78328138D01*
X111877097Y-78391459D01*
X111866493Y-78461659D01*
X111819618Y-78514982D01*
X111752255Y-78534501D01*
X111562165Y-78534501D01*
X111494044Y-78514499D01*
X111473070Y-78497596D01*
X111221839Y-78246365D01*
X111187813Y-78184053D01*
X111192878Y-78113238D01*
X111201000Y-78095703D01*
X111220603Y-78060700D01*
X111220604Y-78060699D01*
X111223426Y-78055659D01*
X111225282Y-78050192D01*
X111225284Y-78050187D01*
X111287470Y-77866993D01*
X111287471Y-77866988D01*
X111289326Y-77861524D01*
X111290154Y-77855815D01*
X111290155Y-77855810D01*
X111311649Y-77707564D01*
X111318744Y-77658631D01*
X111320279Y-77600000D01*
X111301520Y-77395845D01*
X111288149Y-77348435D01*
X111247441Y-77204093D01*
X111247439Y-77204088D01*
X111245871Y-77198528D01*
X111155195Y-77014656D01*
X111068853Y-76899029D01*
X111035983Y-76855011D01*
X111035982Y-76855010D01*
X111032530Y-76850387D01*
X110941855Y-76766568D01*
X110886223Y-76715142D01*
X110886220Y-76715140D01*
X110881983Y-76711223D01*
X110708596Y-76601824D01*
X110518176Y-76525854D01*
X110512516Y-76524728D01*
X110512512Y-76524727D01*
X110322769Y-76486985D01*
X110322764Y-76486985D01*
X110317101Y-76485858D01*
X110311326Y-76485782D01*
X110311322Y-76485782D01*
X110208605Y-76484437D01*
X110112104Y-76483174D01*
X110106407Y-76484153D01*
X110106406Y-76484153D01*
X110064139Y-76491416D01*
X109910050Y-76517894D01*
X109717707Y-76588853D01*
X109712746Y-76591805D01*
X109712745Y-76591805D01*
X109602939Y-76657133D01*
X109541517Y-76693675D01*
X109387378Y-76828851D01*
X109383811Y-76833376D01*
X109383806Y-76833381D01*
X109267101Y-76981421D01*
X109260455Y-76989852D01*
X109257764Y-76994968D01*
X109257762Y-76994970D01*
X109175090Y-77152104D01*
X109164997Y-77171288D01*
X109104202Y-77367081D01*
X109080105Y-77570675D01*
X109093513Y-77775250D01*
X109143979Y-77973957D01*
X109229810Y-78160139D01*
X109233143Y-78164855D01*
X109324504Y-78294128D01*
X109348133Y-78327563D01*
X109494986Y-78470620D01*
X109499790Y-78473830D01*
X109566462Y-78518379D01*
X109665449Y-78584520D01*
X109670752Y-78586798D01*
X109670755Y-78586800D01*
X109795780Y-78640515D01*
X109853815Y-78665449D01*
X109899653Y-78675821D01*
X110048137Y-78709420D01*
X110048142Y-78709421D01*
X110053774Y-78710695D01*
X110059545Y-78710922D01*
X110059547Y-78710922D01*
X110121339Y-78713350D01*
X110258631Y-78718744D01*
X110374313Y-78701971D01*
X110455810Y-78690155D01*
X110455815Y-78690154D01*
X110461524Y-78689326D01*
X110466988Y-78687471D01*
X110466993Y-78687470D01*
X110650187Y-78625284D01*
X110650192Y-78625282D01*
X110655659Y-78623426D01*
X110695703Y-78601000D01*
X110764912Y-78585166D01*
X110831694Y-78609263D01*
X110846365Y-78621839D01*
X111184996Y-78960470D01*
X111200667Y-78979565D01*
X111201692Y-78981099D01*
X111208586Y-78991416D01*
X111218902Y-78998309D01*
X111263330Y-79027994D01*
X111296408Y-79050096D01*
X111313214Y-79053439D01*
X111400001Y-79070703D01*
X111413983Y-79067922D01*
X111438563Y-79065501D01*
X111852898Y-79065501D01*
X111921019Y-79085503D01*
X111967512Y-79139159D01*
X111977616Y-79209433D01*
X111948122Y-79274013D01*
X111935978Y-79286230D01*
X111887378Y-79328851D01*
X111883811Y-79333376D01*
X111883806Y-79333381D01*
X111764033Y-79485313D01*
X111760455Y-79489852D01*
X111757764Y-79494968D01*
X111757762Y-79494970D01*
X111667689Y-79666171D01*
X111664997Y-79671288D01*
X111604202Y-79867081D01*
X111580105Y-80070675D01*
X111593513Y-80275250D01*
X111643979Y-80473957D01*
X111729810Y-80660139D01*
X111733143Y-80664855D01*
X111825663Y-80795768D01*
X111848133Y-80827563D01*
X111848723Y-80828138D01*
X111877097Y-80891459D01*
X111866493Y-80961659D01*
X111819618Y-81014982D01*
X111752255Y-81034501D01*
X111562165Y-81034501D01*
X111494044Y-81014499D01*
X111473070Y-80997596D01*
X111221839Y-80746365D01*
X111187813Y-80684053D01*
X111192878Y-80613238D01*
X111201000Y-80595703D01*
X111220603Y-80560700D01*
X111220604Y-80560699D01*
X111223426Y-80555659D01*
X111225282Y-80550192D01*
X111225284Y-80550187D01*
X111287470Y-80366993D01*
X111287471Y-80366988D01*
X111289326Y-80361524D01*
X111290154Y-80355815D01*
X111290155Y-80355810D01*
X111313377Y-80195644D01*
X111318744Y-80158631D01*
X111320279Y-80100000D01*
X111301520Y-79895845D01*
X111299415Y-79888380D01*
X111247441Y-79704093D01*
X111247439Y-79704088D01*
X111245871Y-79698528D01*
X111155195Y-79514656D01*
X111032530Y-79350387D01*
X110881983Y-79211223D01*
X110708596Y-79101824D01*
X110540366Y-79034707D01*
X110523540Y-79027994D01*
X110518176Y-79025854D01*
X110512516Y-79024728D01*
X110512512Y-79024727D01*
X110322769Y-78986985D01*
X110322764Y-78986985D01*
X110317101Y-78985858D01*
X110311326Y-78985782D01*
X110311322Y-78985782D01*
X110208605Y-78984437D01*
X110112104Y-78983174D01*
X110106407Y-78984153D01*
X110106406Y-78984153D01*
X109915747Y-79016915D01*
X109910050Y-79017894D01*
X109717707Y-79088853D01*
X109712746Y-79091805D01*
X109712745Y-79091805D01*
X109549093Y-79189168D01*
X109541517Y-79193675D01*
X109387378Y-79328851D01*
X109383811Y-79333376D01*
X109383806Y-79333381D01*
X109264033Y-79485313D01*
X109260455Y-79489852D01*
X109257764Y-79494968D01*
X109257762Y-79494970D01*
X109167689Y-79666171D01*
X109164997Y-79671288D01*
X109104202Y-79867081D01*
X109080105Y-80070675D01*
X109093513Y-80275250D01*
X109143979Y-80473957D01*
X109229810Y-80660139D01*
X109233143Y-80664855D01*
X109325663Y-80795768D01*
X109348133Y-80827563D01*
X109494986Y-80970620D01*
X109665449Y-81084520D01*
X109670752Y-81086798D01*
X109670755Y-81086800D01*
X109848508Y-81163169D01*
X109853815Y-81165449D01*
X109927559Y-81182136D01*
X110048137Y-81209420D01*
X110048142Y-81209421D01*
X110053774Y-81210695D01*
X110059545Y-81210922D01*
X110059547Y-81210922D01*
X110121339Y-81213350D01*
X110258631Y-81218744D01*
X110360078Y-81204035D01*
X110455810Y-81190155D01*
X110455815Y-81190154D01*
X110461524Y-81189326D01*
X110466988Y-81187471D01*
X110466993Y-81187470D01*
X110650187Y-81125284D01*
X110650192Y-81125282D01*
X110655659Y-81123426D01*
X110695703Y-81101000D01*
X110764912Y-81085166D01*
X110831694Y-81109263D01*
X110846365Y-81121839D01*
X111184996Y-81460470D01*
X111200667Y-81479565D01*
X111201692Y-81481099D01*
X111208586Y-81491416D01*
X111218902Y-81498309D01*
X111272666Y-81534232D01*
X111296408Y-81550096D01*
X111313214Y-81553439D01*
X111400001Y-81570703D01*
X111413983Y-81567922D01*
X111438563Y-81565501D01*
X111852898Y-81565501D01*
X111921019Y-81585503D01*
X111967512Y-81639159D01*
X111977616Y-81709433D01*
X111948122Y-81774013D01*
X111935978Y-81786230D01*
X111887378Y-81828851D01*
X111883811Y-81833376D01*
X111883806Y-81833381D01*
X111778714Y-81966690D01*
X111760455Y-81989852D01*
X111757764Y-81994968D01*
X111757762Y-81994970D01*
X111667689Y-82166171D01*
X111664997Y-82171288D01*
X111663284Y-82176805D01*
X111616932Y-82326085D01*
X111604202Y-82367081D01*
X111580105Y-82570675D01*
X111593513Y-82775250D01*
X111594935Y-82780849D01*
X111638449Y-82952181D01*
X111643979Y-82973957D01*
X111729810Y-83160139D01*
X111733143Y-83164855D01*
X111821747Y-83290227D01*
X111848133Y-83327563D01*
X111848723Y-83328138D01*
X111877097Y-83391459D01*
X111866493Y-83461659D01*
X111819618Y-83514982D01*
X111752255Y-83534501D01*
X111562165Y-83534501D01*
X111494044Y-83514499D01*
X111473070Y-83497596D01*
X111221839Y-83246365D01*
X111187813Y-83184053D01*
X111192878Y-83113238D01*
X111201000Y-83095703D01*
X111220603Y-83060700D01*
X111220604Y-83060699D01*
X111223426Y-83055659D01*
X111225282Y-83050192D01*
X111225284Y-83050187D01*
X111287470Y-82866993D01*
X111287471Y-82866988D01*
X111289326Y-82861524D01*
X111290154Y-82855815D01*
X111290155Y-82855810D01*
X111318211Y-82662305D01*
X111318744Y-82658631D01*
X111320279Y-82600000D01*
X111301520Y-82395845D01*
X111281678Y-82325489D01*
X111247441Y-82204093D01*
X111247439Y-82204088D01*
X111245871Y-82198528D01*
X111155195Y-82014656D01*
X111032530Y-81850387D01*
X110926469Y-81752345D01*
X110886223Y-81715142D01*
X110886220Y-81715140D01*
X110881983Y-81711223D01*
X110708596Y-81601824D01*
X110518176Y-81525854D01*
X110512516Y-81524728D01*
X110512512Y-81524727D01*
X110322769Y-81486985D01*
X110322764Y-81486985D01*
X110317101Y-81485858D01*
X110311326Y-81485782D01*
X110311322Y-81485782D01*
X110208605Y-81484437D01*
X110112104Y-81483174D01*
X110106407Y-81484153D01*
X110106406Y-81484153D01*
X109977952Y-81506226D01*
X109910050Y-81517894D01*
X109717707Y-81588853D01*
X109712746Y-81591805D01*
X109712745Y-81591805D01*
X109596666Y-81660865D01*
X109541517Y-81693675D01*
X109387378Y-81828851D01*
X109383811Y-81833376D01*
X109383806Y-81833381D01*
X109278714Y-81966690D01*
X109260455Y-81989852D01*
X109257764Y-81994968D01*
X109257762Y-81994970D01*
X109167689Y-82166171D01*
X109164997Y-82171288D01*
X109163284Y-82176805D01*
X109116932Y-82326085D01*
X109104202Y-82367081D01*
X109080105Y-82570675D01*
X109093513Y-82775250D01*
X109094935Y-82780849D01*
X109138449Y-82952181D01*
X109143979Y-82973957D01*
X109229810Y-83160139D01*
X109233143Y-83164855D01*
X109321747Y-83290227D01*
X109348133Y-83327563D01*
X109494986Y-83470620D01*
X109665449Y-83584520D01*
X109670752Y-83586798D01*
X109670755Y-83586800D01*
X109760329Y-83625284D01*
X109853815Y-83665449D01*
X109927559Y-83682136D01*
X110048137Y-83709420D01*
X110048142Y-83709421D01*
X110053774Y-83710695D01*
X110059545Y-83710922D01*
X110059547Y-83710922D01*
X110121339Y-83713350D01*
X110258631Y-83718744D01*
X110360077Y-83704035D01*
X110455810Y-83690155D01*
X110455815Y-83690154D01*
X110461524Y-83689326D01*
X110466988Y-83687471D01*
X110466993Y-83687470D01*
X110650187Y-83625284D01*
X110650192Y-83625282D01*
X110655659Y-83623426D01*
X110695703Y-83601000D01*
X110764912Y-83585166D01*
X110831694Y-83609263D01*
X110846365Y-83621839D01*
X111184996Y-83960470D01*
X111200667Y-83979565D01*
X111201692Y-83981099D01*
X111208586Y-83991416D01*
X111218902Y-83998309D01*
X111273067Y-84034500D01*
X111296408Y-84050096D01*
X111313214Y-84053439D01*
X111400001Y-84070703D01*
X111413983Y-84067922D01*
X111438563Y-84065501D01*
X111852898Y-84065501D01*
X111921019Y-84085503D01*
X111967512Y-84139159D01*
X111977616Y-84209433D01*
X111948122Y-84274013D01*
X111935978Y-84286230D01*
X111887378Y-84328851D01*
X111883811Y-84333376D01*
X111883806Y-84333381D01*
X111764033Y-84485313D01*
X111760455Y-84489852D01*
X111757764Y-84494968D01*
X111757762Y-84494970D01*
X111667689Y-84666171D01*
X111664997Y-84671288D01*
X111604202Y-84867081D01*
X111580105Y-85070675D01*
X111593513Y-85275250D01*
X111643979Y-85473957D01*
X111646396Y-85479199D01*
X111646396Y-85479200D01*
X111698170Y-85591507D01*
X111729810Y-85660139D01*
X111848133Y-85827563D01*
X111848723Y-85828138D01*
X111877096Y-85891459D01*
X111866491Y-85961659D01*
X111819616Y-86014982D01*
X111752254Y-86034500D01*
X111562163Y-86034500D01*
X111494042Y-86014498D01*
X111473068Y-85997595D01*
X111221839Y-85746366D01*
X111187813Y-85684054D01*
X111192878Y-85613239D01*
X111200999Y-85595705D01*
X111210844Y-85578126D01*
X111223426Y-85555659D01*
X111225282Y-85550192D01*
X111225284Y-85550187D01*
X111287470Y-85366993D01*
X111287471Y-85366988D01*
X111289326Y-85361524D01*
X111290154Y-85355815D01*
X111290155Y-85355810D01*
X111309351Y-85223412D01*
X111318744Y-85158631D01*
X111320279Y-85100000D01*
X111301520Y-84895845D01*
X111278587Y-84814531D01*
X111247441Y-84704093D01*
X111247439Y-84704088D01*
X111245871Y-84698528D01*
X111155195Y-84514656D01*
X111032530Y-84350387D01*
X110881983Y-84211223D01*
X110708596Y-84101824D01*
X110518176Y-84025854D01*
X110512516Y-84024728D01*
X110512512Y-84024727D01*
X110322769Y-83986985D01*
X110322764Y-83986985D01*
X110317101Y-83985858D01*
X110311326Y-83985782D01*
X110311322Y-83985782D01*
X110208605Y-83984437D01*
X110112104Y-83983174D01*
X110106407Y-83984153D01*
X110106406Y-83984153D01*
X110064139Y-83991416D01*
X109910050Y-84017894D01*
X109717707Y-84088853D01*
X109541517Y-84193675D01*
X109387378Y-84328851D01*
X109383811Y-84333376D01*
X109383806Y-84333381D01*
X109264033Y-84485313D01*
X109260455Y-84489852D01*
X109257764Y-84494968D01*
X109257762Y-84494970D01*
X109167689Y-84666171D01*
X109164997Y-84671288D01*
X109104202Y-84867081D01*
X109080105Y-85070675D01*
X109093513Y-85275250D01*
X109143979Y-85473957D01*
X109146396Y-85479199D01*
X109146396Y-85479200D01*
X109198170Y-85591507D01*
X109229810Y-85660139D01*
X109348133Y-85827563D01*
X109494986Y-85970620D01*
X109665449Y-86084520D01*
X109670752Y-86086798D01*
X109670755Y-86086800D01*
X109795780Y-86140515D01*
X109853815Y-86165449D01*
X109927559Y-86182136D01*
X110048137Y-86209420D01*
X110048142Y-86209421D01*
X110053774Y-86210695D01*
X110059545Y-86210922D01*
X110059547Y-86210922D01*
X110121339Y-86213350D01*
X110258631Y-86218744D01*
X110360078Y-86204035D01*
X110455810Y-86190155D01*
X110455815Y-86190154D01*
X110461524Y-86189326D01*
X110466988Y-86187471D01*
X110466993Y-86187470D01*
X110650187Y-86125284D01*
X110650192Y-86125282D01*
X110655659Y-86123426D01*
X110695705Y-86100999D01*
X110764914Y-86085166D01*
X110831696Y-86109263D01*
X110846366Y-86121839D01*
X111184993Y-86460466D01*
X111200664Y-86479561D01*
X111201691Y-86481098D01*
X111208585Y-86491415D01*
X111218901Y-86498308D01*
X111246749Y-86516915D01*
X111296407Y-86550095D01*
X111308576Y-86552516D01*
X111308577Y-86552516D01*
X111387829Y-86568280D01*
X111400000Y-86570701D01*
X111412171Y-86568280D01*
X111412172Y-86568280D01*
X111413977Y-86567921D01*
X111438558Y-86565500D01*
X111852899Y-86565500D01*
X111921020Y-86585502D01*
X111967513Y-86639158D01*
X111977617Y-86709432D01*
X111948123Y-86774012D01*
X111935978Y-86786230D01*
X111887378Y-86828851D01*
X111883811Y-86833376D01*
X111883806Y-86833381D01*
X111784664Y-86959143D01*
X111760455Y-86989852D01*
X111757764Y-86994968D01*
X111757762Y-86994970D01*
X111669654Y-87162436D01*
X111664997Y-87171288D01*
X111653011Y-87209888D01*
X111610824Y-87345756D01*
X111604202Y-87367081D01*
X111580105Y-87570675D01*
X111593513Y-87775250D01*
X111643979Y-87973957D01*
X111729810Y-88160139D01*
X111848133Y-88327563D01*
X111889898Y-88368248D01*
X111924734Y-88430106D01*
X111920597Y-88500982D01*
X111878799Y-88558370D01*
X111812609Y-88584050D01*
X111801975Y-88584500D01*
X111612164Y-88584500D01*
X111544043Y-88564498D01*
X111523069Y-88547595D01*
X111221839Y-88246365D01*
X111187813Y-88184053D01*
X111192878Y-88113238D01*
X111201000Y-88095703D01*
X111220603Y-88060700D01*
X111220604Y-88060699D01*
X111223426Y-88055659D01*
X111225282Y-88050192D01*
X111225284Y-88050187D01*
X111287470Y-87866993D01*
X111287471Y-87866988D01*
X111289326Y-87861524D01*
X111290154Y-87855815D01*
X111290155Y-87855810D01*
X111318211Y-87662305D01*
X111318744Y-87658631D01*
X111320279Y-87600000D01*
X111301520Y-87395845D01*
X111291852Y-87361564D01*
X111247441Y-87204093D01*
X111247439Y-87204088D01*
X111245871Y-87198528D01*
X111155195Y-87014656D01*
X111032530Y-86850387D01*
X110881983Y-86711223D01*
X110708596Y-86601824D01*
X110518176Y-86525854D01*
X110512516Y-86524728D01*
X110512512Y-86524727D01*
X110322769Y-86486985D01*
X110322764Y-86486985D01*
X110317101Y-86485858D01*
X110311326Y-86485782D01*
X110311322Y-86485782D01*
X110208605Y-86484437D01*
X110112104Y-86483174D01*
X110106407Y-86484153D01*
X110106406Y-86484153D01*
X109915747Y-86516915D01*
X109910050Y-86517894D01*
X109717707Y-86588853D01*
X109712746Y-86591805D01*
X109712745Y-86591805D01*
X109621541Y-86646066D01*
X109541517Y-86693675D01*
X109387378Y-86828851D01*
X109383811Y-86833376D01*
X109383806Y-86833381D01*
X109284664Y-86959143D01*
X109260455Y-86989852D01*
X109257764Y-86994968D01*
X109257762Y-86994970D01*
X109169654Y-87162436D01*
X109164997Y-87171288D01*
X109153011Y-87209888D01*
X109110824Y-87345756D01*
X109104202Y-87367081D01*
X109080105Y-87570675D01*
X109093513Y-87775250D01*
X109143979Y-87973957D01*
X109229810Y-88160139D01*
X109348133Y-88327563D01*
X109352275Y-88331598D01*
X109453397Y-88430106D01*
X109494986Y-88470620D01*
X109665449Y-88584520D01*
X109670752Y-88586798D01*
X109670755Y-88586800D01*
X109822074Y-88651812D01*
X109853815Y-88665449D01*
X109920477Y-88680533D01*
X110048137Y-88709420D01*
X110048142Y-88709421D01*
X110053774Y-88710695D01*
X110059545Y-88710922D01*
X110059547Y-88710922D01*
X110121339Y-88713350D01*
X110258631Y-88718744D01*
X110360078Y-88704035D01*
X110455810Y-88690155D01*
X110455815Y-88690154D01*
X110461524Y-88689326D01*
X110466988Y-88687471D01*
X110466993Y-88687470D01*
X110650187Y-88625284D01*
X110650192Y-88625282D01*
X110655659Y-88623426D01*
X110695703Y-88601000D01*
X110764912Y-88585166D01*
X110831694Y-88609263D01*
X110846365Y-88621839D01*
X111234995Y-89010469D01*
X111250666Y-89029564D01*
X111251691Y-89031098D01*
X111258585Y-89041415D01*
X111312890Y-89077700D01*
X111346407Y-89100095D01*
X111414298Y-89113600D01*
X111436020Y-89117921D01*
X111450000Y-89120702D01*
X111463982Y-89117921D01*
X111488562Y-89115500D01*
X111797296Y-89115500D01*
X111865417Y-89135502D01*
X111911910Y-89189158D01*
X111922014Y-89259432D01*
X111889144Y-89327302D01*
X111887378Y-89328851D01*
X111883803Y-89333386D01*
X111883802Y-89333387D01*
X111768647Y-89479461D01*
X111760455Y-89489852D01*
X111757764Y-89494968D01*
X111757762Y-89494970D01*
X111705391Y-89594511D01*
X111664997Y-89671288D01*
X111604202Y-89867081D01*
X111580105Y-90070675D01*
X111593513Y-90275250D01*
X111643979Y-90473957D01*
X111729810Y-90660139D01*
X111848133Y-90827563D01*
X111852275Y-90831598D01*
X111941221Y-90918245D01*
X111976059Y-90980106D01*
X111971922Y-91050982D01*
X111930123Y-91108370D01*
X111863933Y-91134050D01*
X111853300Y-91134499D01*
X111662162Y-91134499D01*
X111594041Y-91114497D01*
X111573067Y-91097594D01*
X111221839Y-90746366D01*
X111187813Y-90684054D01*
X111192878Y-90613239D01*
X111200999Y-90595705D01*
X111223426Y-90555659D01*
X111225282Y-90550192D01*
X111225284Y-90550187D01*
X111287470Y-90366993D01*
X111287471Y-90366988D01*
X111289326Y-90361524D01*
X111290154Y-90355815D01*
X111290155Y-90355810D01*
X111318211Y-90162305D01*
X111318744Y-90158631D01*
X111320279Y-90100000D01*
X111301520Y-89895845D01*
X111291852Y-89861564D01*
X111247441Y-89704093D01*
X111247439Y-89704088D01*
X111245871Y-89698528D01*
X111155195Y-89514656D01*
X111032530Y-89350387D01*
X110881983Y-89211223D01*
X110708596Y-89101824D01*
X110518176Y-89025854D01*
X110512516Y-89024728D01*
X110512512Y-89024727D01*
X110322769Y-88986985D01*
X110322764Y-88986985D01*
X110317101Y-88985858D01*
X110311326Y-88985782D01*
X110311322Y-88985782D01*
X110208605Y-88984437D01*
X110112104Y-88983174D01*
X110106407Y-88984153D01*
X110106406Y-88984153D01*
X109953260Y-89010469D01*
X109910050Y-89017894D01*
X109717707Y-89088853D01*
X109712746Y-89091805D01*
X109712745Y-89091805D01*
X109558741Y-89183428D01*
X109541517Y-89193675D01*
X109387378Y-89328851D01*
X109383811Y-89333376D01*
X109383806Y-89333381D01*
X109264033Y-89485313D01*
X109260455Y-89489852D01*
X109257764Y-89494968D01*
X109257762Y-89494970D01*
X109205391Y-89594511D01*
X109164997Y-89671288D01*
X109104202Y-89867081D01*
X109080105Y-90070675D01*
X109093513Y-90275250D01*
X109143979Y-90473957D01*
X109229810Y-90660139D01*
X109348133Y-90827563D01*
X109494986Y-90970620D01*
X109665449Y-91084520D01*
X109670752Y-91086798D01*
X109670755Y-91086800D01*
X109760329Y-91125284D01*
X109853815Y-91165449D01*
X109927559Y-91182136D01*
X110048137Y-91209420D01*
X110048142Y-91209421D01*
X110053774Y-91210695D01*
X110059545Y-91210922D01*
X110059547Y-91210922D01*
X110121339Y-91213350D01*
X110258631Y-91218744D01*
X110360077Y-91204035D01*
X110455810Y-91190155D01*
X110455815Y-91190154D01*
X110461524Y-91189326D01*
X110466988Y-91187471D01*
X110466993Y-91187470D01*
X110650187Y-91125284D01*
X110650192Y-91125282D01*
X110655659Y-91123426D01*
X110695705Y-91100999D01*
X110764914Y-91085166D01*
X110831696Y-91109263D01*
X110846366Y-91121839D01*
X111284992Y-91560465D01*
X111300663Y-91579560D01*
X111301690Y-91581097D01*
X111308584Y-91591414D01*
X111373068Y-91634500D01*
X111396406Y-91650094D01*
X111408574Y-91652514D01*
X111408575Y-91652515D01*
X111487828Y-91668280D01*
X111499999Y-91670701D01*
X111513981Y-91667920D01*
X111538561Y-91665499D01*
X111756379Y-91665499D01*
X111824500Y-91685501D01*
X111870993Y-91739157D01*
X111881097Y-91809431D01*
X111855329Y-91869505D01*
X111760455Y-91989852D01*
X111664997Y-92171288D01*
X111604202Y-92367081D01*
X111580105Y-92570675D01*
X111593513Y-92775250D01*
X111643979Y-92973957D01*
X111646396Y-92979199D01*
X111646396Y-92979200D01*
X111708188Y-93113238D01*
X111729810Y-93160139D01*
X111733143Y-93164855D01*
X111810978Y-93274989D01*
X111848133Y-93327563D01*
X111848723Y-93328138D01*
X111877097Y-93391459D01*
X111866493Y-93461659D01*
X111819618Y-93514982D01*
X111752255Y-93534501D01*
X111562165Y-93534501D01*
X111494044Y-93514499D01*
X111473070Y-93497596D01*
X111221839Y-93246365D01*
X111187813Y-93184053D01*
X111192878Y-93113238D01*
X111201000Y-93095703D01*
X111220603Y-93060700D01*
X111220604Y-93060699D01*
X111223426Y-93055659D01*
X111225282Y-93050192D01*
X111225284Y-93050187D01*
X111287470Y-92866993D01*
X111287471Y-92866988D01*
X111289326Y-92861524D01*
X111290154Y-92855815D01*
X111290155Y-92855810D01*
X111318211Y-92662305D01*
X111318744Y-92658631D01*
X111320279Y-92600000D01*
X111301520Y-92395845D01*
X111291852Y-92361564D01*
X111247441Y-92204093D01*
X111247439Y-92204088D01*
X111245871Y-92198528D01*
X111155195Y-92014656D01*
X111032530Y-91850387D01*
X110912202Y-91739157D01*
X110886223Y-91715142D01*
X110886220Y-91715140D01*
X110881983Y-91711223D01*
X110708596Y-91601824D01*
X110518176Y-91525854D01*
X110512516Y-91524728D01*
X110512512Y-91524727D01*
X110322769Y-91486985D01*
X110322764Y-91486985D01*
X110317101Y-91485858D01*
X110311326Y-91485782D01*
X110311322Y-91485782D01*
X110208605Y-91484437D01*
X110112104Y-91483174D01*
X110106407Y-91484153D01*
X110106406Y-91484153D01*
X109915747Y-91516915D01*
X109910050Y-91517894D01*
X109717707Y-91588853D01*
X109712746Y-91591805D01*
X109712745Y-91591805D01*
X109563091Y-91680840D01*
X109541517Y-91693675D01*
X109387378Y-91828851D01*
X109383811Y-91833376D01*
X109383806Y-91833381D01*
X109346586Y-91880595D01*
X109260455Y-91989852D01*
X109164997Y-92171288D01*
X109104202Y-92367081D01*
X109080105Y-92570675D01*
X109093513Y-92775250D01*
X109143979Y-92973957D01*
X109146396Y-92979199D01*
X109146396Y-92979200D01*
X109208188Y-93113238D01*
X109229810Y-93160139D01*
X109233143Y-93164855D01*
X109310978Y-93274989D01*
X109348133Y-93327563D01*
X109494986Y-93470620D01*
X109665449Y-93584520D01*
X109670752Y-93586798D01*
X109670755Y-93586800D01*
X109760329Y-93625284D01*
X109853815Y-93665449D01*
X109927559Y-93682136D01*
X110048137Y-93709420D01*
X110048142Y-93709421D01*
X110053774Y-93710695D01*
X110059545Y-93710922D01*
X110059547Y-93710922D01*
X110121339Y-93713350D01*
X110258631Y-93718744D01*
X110360078Y-93704035D01*
X110455810Y-93690155D01*
X110455815Y-93690154D01*
X110461524Y-93689326D01*
X110466988Y-93687471D01*
X110466993Y-93687470D01*
X110650187Y-93625284D01*
X110650192Y-93625282D01*
X110655659Y-93623426D01*
X110695703Y-93601000D01*
X110764912Y-93585166D01*
X110831694Y-93609263D01*
X110846365Y-93621839D01*
X111184996Y-93960470D01*
X111200667Y-93979565D01*
X111201692Y-93981099D01*
X111208586Y-93991416D01*
X111218902Y-93998309D01*
X111263330Y-94027994D01*
X111296408Y-94050096D01*
X111313214Y-94053439D01*
X111400001Y-94070703D01*
X111413983Y-94067922D01*
X111438563Y-94065501D01*
X111852898Y-94065501D01*
X111921019Y-94085503D01*
X111967512Y-94139159D01*
X111977616Y-94209433D01*
X111948122Y-94274013D01*
X111935978Y-94286230D01*
X111887378Y-94328851D01*
X111883811Y-94333376D01*
X111883806Y-94333381D01*
X111764033Y-94485313D01*
X111760455Y-94489852D01*
X111757764Y-94494968D01*
X111757762Y-94494970D01*
X111718300Y-94569975D01*
X111664997Y-94671288D01*
X111604202Y-94867081D01*
X111580105Y-95070675D01*
X111593513Y-95275250D01*
X111643979Y-95473957D01*
X111729810Y-95660139D01*
X111848133Y-95827563D01*
X111848723Y-95828138D01*
X111877097Y-95891459D01*
X111866493Y-95961659D01*
X111819618Y-96014982D01*
X111752255Y-96034501D01*
X111562165Y-96034501D01*
X111494044Y-96014499D01*
X111473070Y-95997596D01*
X111221839Y-95746365D01*
X111187813Y-95684053D01*
X111192878Y-95613238D01*
X111201000Y-95595703D01*
X111220603Y-95560700D01*
X111220604Y-95560699D01*
X111223426Y-95555659D01*
X111225282Y-95550192D01*
X111225284Y-95550187D01*
X111287470Y-95366993D01*
X111287471Y-95366988D01*
X111289326Y-95361524D01*
X111290154Y-95355815D01*
X111290155Y-95355810D01*
X111318211Y-95162305D01*
X111318744Y-95158631D01*
X111320279Y-95100000D01*
X111301520Y-94895845D01*
X111291852Y-94861564D01*
X111247441Y-94704093D01*
X111247439Y-94704088D01*
X111245871Y-94698528D01*
X111155195Y-94514656D01*
X111032530Y-94350387D01*
X110881983Y-94211223D01*
X110708596Y-94101824D01*
X110518176Y-94025854D01*
X110512516Y-94024728D01*
X110512512Y-94024727D01*
X110322769Y-93986985D01*
X110322764Y-93986985D01*
X110317101Y-93985858D01*
X110311326Y-93985782D01*
X110311322Y-93985782D01*
X110208605Y-93984437D01*
X110112104Y-93983174D01*
X110106407Y-93984153D01*
X110106406Y-93984153D01*
X110015709Y-93999738D01*
X109910050Y-94017894D01*
X109717707Y-94088853D01*
X109712746Y-94091805D01*
X109712745Y-94091805D01*
X109621541Y-94146066D01*
X109541517Y-94193675D01*
X109387378Y-94328851D01*
X109383811Y-94333376D01*
X109383806Y-94333381D01*
X109264033Y-94485313D01*
X109260455Y-94489852D01*
X109257764Y-94494968D01*
X109257762Y-94494970D01*
X109218300Y-94569975D01*
X109164997Y-94671288D01*
X109104202Y-94867081D01*
X109080105Y-95070675D01*
X109093513Y-95275250D01*
X109143979Y-95473957D01*
X109229810Y-95660139D01*
X109348133Y-95827563D01*
X109494986Y-95970620D01*
X109665449Y-96084520D01*
X109670752Y-96086798D01*
X109670755Y-96086800D01*
X109848508Y-96163169D01*
X109853815Y-96165449D01*
X109911868Y-96178585D01*
X110048137Y-96209420D01*
X110048142Y-96209421D01*
X110053774Y-96210695D01*
X110059545Y-96210922D01*
X110059547Y-96210922D01*
X110121339Y-96213350D01*
X110258631Y-96218744D01*
X110360078Y-96204035D01*
X110455810Y-96190155D01*
X110455815Y-96190154D01*
X110461524Y-96189326D01*
X110466988Y-96187471D01*
X110466993Y-96187470D01*
X110650187Y-96125284D01*
X110650192Y-96125282D01*
X110655659Y-96123426D01*
X110661777Y-96120000D01*
X110695703Y-96101000D01*
X110764912Y-96085166D01*
X110831694Y-96109263D01*
X110846365Y-96121839D01*
X111184996Y-96460470D01*
X111200667Y-96479565D01*
X111201692Y-96481099D01*
X111208586Y-96491416D01*
X111218902Y-96498309D01*
X111280167Y-96539244D01*
X111296408Y-96550096D01*
X111313214Y-96553439D01*
X111400001Y-96570703D01*
X111413983Y-96567922D01*
X111438563Y-96565501D01*
X111852898Y-96565501D01*
X111921019Y-96585503D01*
X111967512Y-96639159D01*
X111977616Y-96709433D01*
X111948122Y-96774013D01*
X111935978Y-96786230D01*
X111887378Y-96828851D01*
X111883811Y-96833376D01*
X111883806Y-96833381D01*
X111764033Y-96985313D01*
X111760455Y-96989852D01*
X111664997Y-97171288D01*
X111604202Y-97367081D01*
X111580105Y-97570675D01*
X111593513Y-97775250D01*
X111643979Y-97973957D01*
X111729810Y-98160139D01*
X111848133Y-98327563D01*
X111848723Y-98328138D01*
X111877097Y-98391459D01*
X111866493Y-98461659D01*
X111819618Y-98514982D01*
X111752255Y-98534501D01*
X111562165Y-98534501D01*
X111494044Y-98514499D01*
X111473070Y-98497596D01*
X111221839Y-98246365D01*
X111187813Y-98184053D01*
X111192878Y-98113238D01*
X111201000Y-98095703D01*
X111220603Y-98060700D01*
X111220604Y-98060699D01*
X111223426Y-98055659D01*
X111225282Y-98050192D01*
X111225284Y-98050187D01*
X111287470Y-97866993D01*
X111287471Y-97866988D01*
X111289326Y-97861524D01*
X111290154Y-97855815D01*
X111290155Y-97855810D01*
X111313377Y-97695644D01*
X111318744Y-97658631D01*
X111320279Y-97600000D01*
X111301520Y-97395845D01*
X111291852Y-97361564D01*
X111247441Y-97204093D01*
X111247439Y-97204088D01*
X111245871Y-97198528D01*
X111155195Y-97014656D01*
X111032530Y-96850387D01*
X110881983Y-96711223D01*
X110708596Y-96601824D01*
X110585007Y-96552517D01*
X110523540Y-96527994D01*
X110518176Y-96525854D01*
X110512516Y-96524728D01*
X110512512Y-96524727D01*
X110322769Y-96486985D01*
X110322764Y-96486985D01*
X110317101Y-96485858D01*
X110311326Y-96485782D01*
X110311322Y-96485782D01*
X110208605Y-96484437D01*
X110112104Y-96483174D01*
X110106407Y-96484153D01*
X110106406Y-96484153D01*
X109977952Y-96506226D01*
X109910050Y-96517894D01*
X109717707Y-96588853D01*
X109712746Y-96591805D01*
X109712745Y-96591805D01*
X109577269Y-96672405D01*
X109541517Y-96693675D01*
X109387378Y-96828851D01*
X109383811Y-96833376D01*
X109383806Y-96833381D01*
X109264033Y-96985313D01*
X109260455Y-96989852D01*
X109164997Y-97171288D01*
X109104202Y-97367081D01*
X109080105Y-97570675D01*
X108817584Y-97570675D01*
X108801520Y-97395845D01*
X108791852Y-97361564D01*
X108747441Y-97204093D01*
X108747439Y-97204088D01*
X108745871Y-97198528D01*
X108655195Y-97014656D01*
X108532530Y-96850387D01*
X108381983Y-96711223D01*
X108208596Y-96601824D01*
X108085007Y-96552517D01*
X108023540Y-96527994D01*
X108018176Y-96525854D01*
X108012516Y-96524728D01*
X108012512Y-96524727D01*
X107822769Y-96486985D01*
X107822764Y-96486985D01*
X107817101Y-96485858D01*
X107811326Y-96485782D01*
X107811322Y-96485782D01*
X107708605Y-96484437D01*
X107612104Y-96483174D01*
X107606407Y-96484153D01*
X107606406Y-96484153D01*
X107477952Y-96506226D01*
X107410050Y-96517894D01*
X107217707Y-96588853D01*
X107205764Y-96595958D01*
X107136995Y-96613600D01*
X107069605Y-96591262D01*
X107052244Y-96576770D01*
X106685003Y-96209529D01*
X106669332Y-96190434D01*
X106668311Y-96188905D01*
X106668309Y-96188903D01*
X106661415Y-96178585D01*
X106573593Y-96119905D01*
X106496151Y-96104500D01*
X106482171Y-96101719D01*
X106470000Y-96099298D01*
X106456018Y-96102079D01*
X106431438Y-96104500D01*
X106083257Y-96104500D01*
X106015136Y-96084498D01*
X105968643Y-96030842D01*
X105958539Y-95960568D01*
X105988033Y-95895988D01*
X105989688Y-95894211D01*
X105992157Y-95892157D01*
X106049805Y-95822843D01*
X106119558Y-95738974D01*
X106119561Y-95738970D01*
X106123251Y-95734533D01*
X106126070Y-95729499D01*
X106126073Y-95729495D01*
X106220603Y-95560700D01*
X106220603Y-95560699D01*
X106223426Y-95555659D01*
X106225282Y-95550192D01*
X106225284Y-95550187D01*
X106287470Y-95366993D01*
X106287471Y-95366988D01*
X106289326Y-95361524D01*
X106290154Y-95355815D01*
X106290155Y-95355810D01*
X106318211Y-95162305D01*
X106318744Y-95158631D01*
X106320279Y-95100000D01*
X106317584Y-95070675D01*
X106580105Y-95070675D01*
X106593513Y-95275250D01*
X106643979Y-95473957D01*
X106729810Y-95660139D01*
X106848133Y-95827563D01*
X106994986Y-95970620D01*
X107165449Y-96084520D01*
X107170752Y-96086798D01*
X107170755Y-96086800D01*
X107348508Y-96163169D01*
X107353815Y-96165449D01*
X107411868Y-96178585D01*
X107548137Y-96209420D01*
X107548142Y-96209421D01*
X107553774Y-96210695D01*
X107559545Y-96210922D01*
X107559547Y-96210922D01*
X107621339Y-96213350D01*
X107758631Y-96218744D01*
X107860078Y-96204035D01*
X107955810Y-96190155D01*
X107955815Y-96190154D01*
X107961524Y-96189326D01*
X107966988Y-96187471D01*
X107966993Y-96187470D01*
X108150187Y-96125284D01*
X108150192Y-96125282D01*
X108155659Y-96123426D01*
X108193777Y-96102079D01*
X108329495Y-96026073D01*
X108329499Y-96026070D01*
X108334533Y-96023251D01*
X108338970Y-96019561D01*
X108338974Y-96019558D01*
X108487719Y-95895848D01*
X108492157Y-95892157D01*
X108549805Y-95822843D01*
X108619558Y-95738974D01*
X108619561Y-95738970D01*
X108623251Y-95734533D01*
X108626070Y-95729499D01*
X108626073Y-95729495D01*
X108720603Y-95560700D01*
X108720603Y-95560699D01*
X108723426Y-95555659D01*
X108725282Y-95550192D01*
X108725284Y-95550187D01*
X108787470Y-95366993D01*
X108787471Y-95366988D01*
X108789326Y-95361524D01*
X108790154Y-95355815D01*
X108790155Y-95355810D01*
X108818211Y-95162305D01*
X108818744Y-95158631D01*
X108820279Y-95100000D01*
X108801520Y-94895845D01*
X108791852Y-94861564D01*
X108747441Y-94704093D01*
X108747439Y-94704088D01*
X108745871Y-94698528D01*
X108655195Y-94514656D01*
X108532530Y-94350387D01*
X108381983Y-94211223D01*
X108208596Y-94101824D01*
X108018176Y-94025854D01*
X108012516Y-94024728D01*
X108012512Y-94024727D01*
X107822769Y-93986985D01*
X107822764Y-93986985D01*
X107817101Y-93985858D01*
X107811326Y-93985782D01*
X107811322Y-93985782D01*
X107708605Y-93984437D01*
X107612104Y-93983174D01*
X107606407Y-93984153D01*
X107606406Y-93984153D01*
X107515709Y-93999738D01*
X107410050Y-94017894D01*
X107217707Y-94088853D01*
X107212746Y-94091805D01*
X107212745Y-94091805D01*
X107121541Y-94146066D01*
X107041517Y-94193675D01*
X106887378Y-94328851D01*
X106883811Y-94333376D01*
X106883806Y-94333381D01*
X106764033Y-94485313D01*
X106760455Y-94489852D01*
X106757764Y-94494968D01*
X106757762Y-94494970D01*
X106718300Y-94569975D01*
X106664997Y-94671288D01*
X106604202Y-94867081D01*
X106580105Y-95070675D01*
X106317584Y-95070675D01*
X106301520Y-94895845D01*
X106291852Y-94861564D01*
X106247441Y-94704093D01*
X106247439Y-94704088D01*
X106245871Y-94698528D01*
X106155195Y-94514656D01*
X106032530Y-94350387D01*
X105881983Y-94211223D01*
X105708596Y-94101824D01*
X105518176Y-94025854D01*
X105512516Y-94024728D01*
X105512512Y-94024727D01*
X105322769Y-93986985D01*
X105322764Y-93986985D01*
X105317101Y-93985858D01*
X105311326Y-93985782D01*
X105311322Y-93985782D01*
X105208605Y-93984437D01*
X105112104Y-93983174D01*
X105106407Y-93984153D01*
X105106406Y-93984153D01*
X105015709Y-93999738D01*
X104910050Y-94017894D01*
X104717707Y-94088853D01*
X104705764Y-94095958D01*
X104636995Y-94113600D01*
X104569605Y-94091262D01*
X104552244Y-94076770D01*
X103252388Y-92776914D01*
X103218362Y-92714602D01*
X103215483Y-92687819D01*
X103215483Y-92570675D01*
X106580105Y-92570675D01*
X106593513Y-92775250D01*
X106643979Y-92973957D01*
X106646396Y-92979199D01*
X106646396Y-92979200D01*
X106708188Y-93113238D01*
X106729810Y-93160139D01*
X106733143Y-93164855D01*
X106810978Y-93274989D01*
X106848133Y-93327563D01*
X106994986Y-93470620D01*
X107165449Y-93584520D01*
X107170752Y-93586798D01*
X107170755Y-93586800D01*
X107260329Y-93625284D01*
X107353815Y-93665449D01*
X107427559Y-93682136D01*
X107548137Y-93709420D01*
X107548142Y-93709421D01*
X107553774Y-93710695D01*
X107559545Y-93710922D01*
X107559547Y-93710922D01*
X107621339Y-93713350D01*
X107758631Y-93718744D01*
X107860078Y-93704035D01*
X107955810Y-93690155D01*
X107955815Y-93690154D01*
X107961524Y-93689326D01*
X107966988Y-93687471D01*
X107966993Y-93687470D01*
X108150187Y-93625284D01*
X108150192Y-93625282D01*
X108155659Y-93623426D01*
X108182158Y-93608586D01*
X108329495Y-93526073D01*
X108329499Y-93526070D01*
X108334533Y-93523251D01*
X108338970Y-93519561D01*
X108338974Y-93519558D01*
X108487719Y-93395848D01*
X108492157Y-93392157D01*
X108549805Y-93322843D01*
X108619558Y-93238974D01*
X108619561Y-93238970D01*
X108623251Y-93234533D01*
X108626070Y-93229499D01*
X108626073Y-93229495D01*
X108720603Y-93060700D01*
X108720603Y-93060699D01*
X108723426Y-93055659D01*
X108725282Y-93050192D01*
X108725284Y-93050187D01*
X108787470Y-92866993D01*
X108787471Y-92866988D01*
X108789326Y-92861524D01*
X108790154Y-92855815D01*
X108790155Y-92855810D01*
X108818211Y-92662305D01*
X108818744Y-92658631D01*
X108820279Y-92600000D01*
X108801520Y-92395845D01*
X108791852Y-92361564D01*
X108747441Y-92204093D01*
X108747439Y-92204088D01*
X108745871Y-92198528D01*
X108655195Y-92014656D01*
X108532530Y-91850387D01*
X108412202Y-91739157D01*
X108386223Y-91715142D01*
X108386220Y-91715140D01*
X108381983Y-91711223D01*
X108208596Y-91601824D01*
X108018176Y-91525854D01*
X108012516Y-91524728D01*
X108012512Y-91524727D01*
X107822769Y-91486985D01*
X107822764Y-91486985D01*
X107817101Y-91485858D01*
X107811326Y-91485782D01*
X107811322Y-91485782D01*
X107708605Y-91484437D01*
X107612104Y-91483174D01*
X107606407Y-91484153D01*
X107606406Y-91484153D01*
X107415747Y-91516915D01*
X107410050Y-91517894D01*
X107217707Y-91588853D01*
X107212746Y-91591805D01*
X107212745Y-91591805D01*
X107063091Y-91680840D01*
X107041517Y-91693675D01*
X106887378Y-91828851D01*
X106883811Y-91833376D01*
X106883806Y-91833381D01*
X106846586Y-91880595D01*
X106760455Y-91989852D01*
X106664997Y-92171288D01*
X106604202Y-92367081D01*
X106580105Y-92570675D01*
X103215483Y-92570675D01*
X103215483Y-88795147D01*
X103235485Y-88727026D01*
X103289141Y-88680533D01*
X103359415Y-88670429D01*
X103423995Y-88699923D01*
X103430578Y-88706052D01*
X104178943Y-89454417D01*
X104212969Y-89516729D01*
X104207904Y-89587544D01*
X104201356Y-89602179D01*
X104167689Y-89666169D01*
X104167684Y-89666180D01*
X104164997Y-89671288D01*
X104104202Y-89867081D01*
X104080105Y-90070675D01*
X104093513Y-90275250D01*
X104143979Y-90473957D01*
X104229810Y-90660139D01*
X104348133Y-90827563D01*
X104494986Y-90970620D01*
X104665449Y-91084520D01*
X104670752Y-91086798D01*
X104670755Y-91086800D01*
X104760329Y-91125284D01*
X104853815Y-91165449D01*
X104927559Y-91182136D01*
X105048137Y-91209420D01*
X105048142Y-91209421D01*
X105053774Y-91210695D01*
X105059545Y-91210922D01*
X105059547Y-91210922D01*
X105121339Y-91213350D01*
X105258631Y-91218744D01*
X105360077Y-91204035D01*
X105455810Y-91190155D01*
X105455815Y-91190154D01*
X105461524Y-91189326D01*
X105466988Y-91187471D01*
X105466993Y-91187470D01*
X105650187Y-91125284D01*
X105650192Y-91125282D01*
X105655659Y-91123426D01*
X105680949Y-91109263D01*
X105829495Y-91026073D01*
X105829499Y-91026070D01*
X105834533Y-91023251D01*
X105838970Y-91019561D01*
X105838974Y-91019558D01*
X105987719Y-90895848D01*
X105992157Y-90892157D01*
X106113410Y-90746366D01*
X106119558Y-90738974D01*
X106119561Y-90738970D01*
X106123251Y-90734533D01*
X106126070Y-90729499D01*
X106126073Y-90729495D01*
X106220603Y-90560700D01*
X106220603Y-90560699D01*
X106223426Y-90555659D01*
X106225282Y-90550192D01*
X106225284Y-90550187D01*
X106287470Y-90366993D01*
X106287471Y-90366988D01*
X106289326Y-90361524D01*
X106290154Y-90355815D01*
X106290155Y-90355810D01*
X106318211Y-90162305D01*
X106318744Y-90158631D01*
X106320279Y-90100000D01*
X106317584Y-90070675D01*
X106580105Y-90070675D01*
X106593513Y-90275250D01*
X106643979Y-90473957D01*
X106729810Y-90660139D01*
X106848133Y-90827563D01*
X106994986Y-90970620D01*
X107165449Y-91084520D01*
X107170752Y-91086798D01*
X107170755Y-91086800D01*
X107260329Y-91125284D01*
X107353815Y-91165449D01*
X107427559Y-91182136D01*
X107548137Y-91209420D01*
X107548142Y-91209421D01*
X107553774Y-91210695D01*
X107559545Y-91210922D01*
X107559547Y-91210922D01*
X107621339Y-91213350D01*
X107758631Y-91218744D01*
X107860077Y-91204035D01*
X107955810Y-91190155D01*
X107955815Y-91190154D01*
X107961524Y-91189326D01*
X107966988Y-91187471D01*
X107966993Y-91187470D01*
X108150187Y-91125284D01*
X108150192Y-91125282D01*
X108155659Y-91123426D01*
X108180949Y-91109263D01*
X108329495Y-91026073D01*
X108329499Y-91026070D01*
X108334533Y-91023251D01*
X108338970Y-91019561D01*
X108338974Y-91019558D01*
X108487719Y-90895848D01*
X108492157Y-90892157D01*
X108613410Y-90746366D01*
X108619558Y-90738974D01*
X108619561Y-90738970D01*
X108623251Y-90734533D01*
X108626070Y-90729499D01*
X108626073Y-90729495D01*
X108720603Y-90560700D01*
X108720603Y-90560699D01*
X108723426Y-90555659D01*
X108725282Y-90550192D01*
X108725284Y-90550187D01*
X108787470Y-90366993D01*
X108787471Y-90366988D01*
X108789326Y-90361524D01*
X108790154Y-90355815D01*
X108790155Y-90355810D01*
X108818211Y-90162305D01*
X108818744Y-90158631D01*
X108820279Y-90100000D01*
X108801520Y-89895845D01*
X108791852Y-89861564D01*
X108747441Y-89704093D01*
X108747439Y-89704088D01*
X108745871Y-89698528D01*
X108655195Y-89514656D01*
X108532530Y-89350387D01*
X108381983Y-89211223D01*
X108208596Y-89101824D01*
X108018176Y-89025854D01*
X108012516Y-89024728D01*
X108012512Y-89024727D01*
X107822769Y-88986985D01*
X107822764Y-88986985D01*
X107817101Y-88985858D01*
X107811326Y-88985782D01*
X107811322Y-88985782D01*
X107708605Y-88984437D01*
X107612104Y-88983174D01*
X107606407Y-88984153D01*
X107606406Y-88984153D01*
X107453260Y-89010469D01*
X107410050Y-89017894D01*
X107217707Y-89088853D01*
X107212746Y-89091805D01*
X107212745Y-89091805D01*
X107058741Y-89183428D01*
X107041517Y-89193675D01*
X106887378Y-89328851D01*
X106883811Y-89333376D01*
X106883806Y-89333381D01*
X106764033Y-89485313D01*
X106760455Y-89489852D01*
X106757764Y-89494968D01*
X106757762Y-89494970D01*
X106705391Y-89594511D01*
X106664997Y-89671288D01*
X106604202Y-89867081D01*
X106580105Y-90070675D01*
X106317584Y-90070675D01*
X106301520Y-89895845D01*
X106291852Y-89861564D01*
X106247441Y-89704093D01*
X106247439Y-89704088D01*
X106245871Y-89698528D01*
X106155195Y-89514656D01*
X106032530Y-89350387D01*
X105881983Y-89211223D01*
X105708596Y-89101824D01*
X105518176Y-89025854D01*
X105512516Y-89024728D01*
X105512512Y-89024727D01*
X105322769Y-88986985D01*
X105322764Y-88986985D01*
X105317101Y-88985858D01*
X105311326Y-88985782D01*
X105311322Y-88985782D01*
X105208605Y-88984437D01*
X105112104Y-88983174D01*
X105106407Y-88984153D01*
X105106406Y-88984153D01*
X104953260Y-89010469D01*
X104910050Y-89017894D01*
X104717707Y-89088853D01*
X104705764Y-89095958D01*
X104636995Y-89113600D01*
X104569605Y-89091262D01*
X104552244Y-89076770D01*
X103602388Y-88126914D01*
X103568362Y-88064602D01*
X103565483Y-88037819D01*
X103565483Y-86645147D01*
X103585485Y-86577026D01*
X103639141Y-86530533D01*
X103709415Y-86520429D01*
X103773995Y-86549923D01*
X103780578Y-86556052D01*
X104178943Y-86954417D01*
X104212969Y-87016729D01*
X104207904Y-87087544D01*
X104201356Y-87102179D01*
X104167689Y-87166169D01*
X104167684Y-87166180D01*
X104164997Y-87171288D01*
X104149548Y-87221042D01*
X104117286Y-87324945D01*
X104104202Y-87367081D01*
X104080105Y-87570675D01*
X104093513Y-87775250D01*
X104143979Y-87973957D01*
X104229810Y-88160139D01*
X104348133Y-88327563D01*
X104352275Y-88331598D01*
X104453397Y-88430106D01*
X104494986Y-88470620D01*
X104665449Y-88584520D01*
X104670752Y-88586798D01*
X104670755Y-88586800D01*
X104822074Y-88651812D01*
X104853815Y-88665449D01*
X104920477Y-88680533D01*
X105048137Y-88709420D01*
X105048142Y-88709421D01*
X105053774Y-88710695D01*
X105059545Y-88710922D01*
X105059547Y-88710922D01*
X105121339Y-88713350D01*
X105258631Y-88718744D01*
X105360078Y-88704035D01*
X105455810Y-88690155D01*
X105455815Y-88690154D01*
X105461524Y-88689326D01*
X105466988Y-88687471D01*
X105466993Y-88687470D01*
X105650187Y-88625284D01*
X105650192Y-88625282D01*
X105655659Y-88623426D01*
X105680949Y-88609263D01*
X105829495Y-88526073D01*
X105829499Y-88526070D01*
X105834533Y-88523251D01*
X105838970Y-88519561D01*
X105838974Y-88519558D01*
X105987719Y-88395848D01*
X105992157Y-88392157D01*
X106049805Y-88322843D01*
X106119558Y-88238974D01*
X106119561Y-88238970D01*
X106123251Y-88234533D01*
X106126070Y-88229499D01*
X106126073Y-88229495D01*
X106220603Y-88060700D01*
X106220603Y-88060699D01*
X106223426Y-88055659D01*
X106225282Y-88050192D01*
X106225284Y-88050187D01*
X106287470Y-87866993D01*
X106287471Y-87866988D01*
X106289326Y-87861524D01*
X106290154Y-87855815D01*
X106290155Y-87855810D01*
X106318211Y-87662305D01*
X106318744Y-87658631D01*
X106320279Y-87600000D01*
X106317584Y-87570675D01*
X106580105Y-87570675D01*
X106593513Y-87775250D01*
X106643979Y-87973957D01*
X106729810Y-88160139D01*
X106848133Y-88327563D01*
X106852275Y-88331598D01*
X106953397Y-88430106D01*
X106994986Y-88470620D01*
X107165449Y-88584520D01*
X107170752Y-88586798D01*
X107170755Y-88586800D01*
X107322074Y-88651812D01*
X107353815Y-88665449D01*
X107420477Y-88680533D01*
X107548137Y-88709420D01*
X107548142Y-88709421D01*
X107553774Y-88710695D01*
X107559545Y-88710922D01*
X107559547Y-88710922D01*
X107621339Y-88713350D01*
X107758631Y-88718744D01*
X107860078Y-88704035D01*
X107955810Y-88690155D01*
X107955815Y-88690154D01*
X107961524Y-88689326D01*
X107966988Y-88687471D01*
X107966993Y-88687470D01*
X108150187Y-88625284D01*
X108150192Y-88625282D01*
X108155659Y-88623426D01*
X108180949Y-88609263D01*
X108329495Y-88526073D01*
X108329499Y-88526070D01*
X108334533Y-88523251D01*
X108338970Y-88519561D01*
X108338974Y-88519558D01*
X108487719Y-88395848D01*
X108492157Y-88392157D01*
X108549805Y-88322843D01*
X108619558Y-88238974D01*
X108619561Y-88238970D01*
X108623251Y-88234533D01*
X108626070Y-88229499D01*
X108626073Y-88229495D01*
X108720603Y-88060700D01*
X108720603Y-88060699D01*
X108723426Y-88055659D01*
X108725282Y-88050192D01*
X108725284Y-88050187D01*
X108787470Y-87866993D01*
X108787471Y-87866988D01*
X108789326Y-87861524D01*
X108790154Y-87855815D01*
X108790155Y-87855810D01*
X108818211Y-87662305D01*
X108818744Y-87658631D01*
X108820279Y-87600000D01*
X108801520Y-87395845D01*
X108791852Y-87361564D01*
X108747441Y-87204093D01*
X108747439Y-87204088D01*
X108745871Y-87198528D01*
X108655195Y-87014656D01*
X108532530Y-86850387D01*
X108381983Y-86711223D01*
X108208596Y-86601824D01*
X108018176Y-86525854D01*
X108012516Y-86524728D01*
X108012512Y-86524727D01*
X107822769Y-86486985D01*
X107822764Y-86486985D01*
X107817101Y-86485858D01*
X107811326Y-86485782D01*
X107811322Y-86485782D01*
X107708605Y-86484437D01*
X107612104Y-86483174D01*
X107606407Y-86484153D01*
X107606406Y-86484153D01*
X107415747Y-86516915D01*
X107410050Y-86517894D01*
X107217707Y-86588853D01*
X107212746Y-86591805D01*
X107212745Y-86591805D01*
X107121541Y-86646066D01*
X107041517Y-86693675D01*
X106887378Y-86828851D01*
X106883811Y-86833376D01*
X106883806Y-86833381D01*
X106784664Y-86959143D01*
X106760455Y-86989852D01*
X106757764Y-86994968D01*
X106757762Y-86994970D01*
X106669654Y-87162436D01*
X106664997Y-87171288D01*
X106653011Y-87209888D01*
X106610824Y-87345756D01*
X106604202Y-87367081D01*
X106580105Y-87570675D01*
X106317584Y-87570675D01*
X106301520Y-87395845D01*
X106291852Y-87361564D01*
X106247441Y-87204093D01*
X106247439Y-87204088D01*
X106245871Y-87198528D01*
X106155195Y-87014656D01*
X106032530Y-86850387D01*
X105881983Y-86711223D01*
X105708596Y-86601824D01*
X105518176Y-86525854D01*
X105512516Y-86524728D01*
X105512512Y-86524727D01*
X105322769Y-86486985D01*
X105322764Y-86486985D01*
X105317101Y-86485858D01*
X105311326Y-86485782D01*
X105311322Y-86485782D01*
X105208605Y-86484437D01*
X105112104Y-86483174D01*
X105106407Y-86484153D01*
X105106406Y-86484153D01*
X104915747Y-86516915D01*
X104910050Y-86517894D01*
X104717707Y-86588853D01*
X104705764Y-86595958D01*
X104636995Y-86613600D01*
X104569605Y-86591262D01*
X104552244Y-86576770D01*
X103952394Y-85976920D01*
X103918368Y-85914608D01*
X103915489Y-85887825D01*
X103915489Y-85552599D01*
X103935491Y-85484478D01*
X103989147Y-85437985D01*
X104059421Y-85427881D01*
X104124001Y-85457375D01*
X104155915Y-85499848D01*
X104229810Y-85660139D01*
X104348133Y-85827563D01*
X104494986Y-85970620D01*
X104665449Y-86084520D01*
X104670752Y-86086798D01*
X104670755Y-86086800D01*
X104795780Y-86140515D01*
X104853815Y-86165449D01*
X104927559Y-86182136D01*
X105048137Y-86209420D01*
X105048142Y-86209421D01*
X105053774Y-86210695D01*
X105059545Y-86210922D01*
X105059547Y-86210922D01*
X105121339Y-86213350D01*
X105258631Y-86218744D01*
X105360078Y-86204035D01*
X105455810Y-86190155D01*
X105455815Y-86190154D01*
X105461524Y-86189326D01*
X105466988Y-86187471D01*
X105466993Y-86187470D01*
X105650187Y-86125284D01*
X105650192Y-86125282D01*
X105655659Y-86123426D01*
X105723977Y-86085166D01*
X105829495Y-86026073D01*
X105829499Y-86026070D01*
X105834533Y-86023251D01*
X105838970Y-86019561D01*
X105838974Y-86019558D01*
X105987719Y-85895848D01*
X105992157Y-85892157D01*
X106049805Y-85822843D01*
X106119558Y-85738974D01*
X106119561Y-85738970D01*
X106123251Y-85734533D01*
X106126070Y-85729499D01*
X106126073Y-85729495D01*
X106220603Y-85560700D01*
X106220603Y-85560699D01*
X106223426Y-85555659D01*
X106225282Y-85550192D01*
X106225284Y-85550187D01*
X106287470Y-85366993D01*
X106287471Y-85366988D01*
X106289326Y-85361524D01*
X106290154Y-85355815D01*
X106290155Y-85355810D01*
X106309351Y-85223412D01*
X106318744Y-85158631D01*
X106320279Y-85100000D01*
X106301520Y-84895845D01*
X106278587Y-84814531D01*
X106247441Y-84704093D01*
X106247439Y-84704088D01*
X106245871Y-84698528D01*
X106155195Y-84514656D01*
X106032530Y-84350387D01*
X105881983Y-84211223D01*
X105708596Y-84101824D01*
X105518176Y-84025854D01*
X105512516Y-84024728D01*
X105512512Y-84024727D01*
X105322769Y-83986985D01*
X105322764Y-83986985D01*
X105317101Y-83985858D01*
X105311326Y-83985782D01*
X105311322Y-83985782D01*
X105208605Y-83984437D01*
X105112104Y-83983174D01*
X105106407Y-83984153D01*
X105106406Y-83984153D01*
X105064139Y-83991416D01*
X104910050Y-84017894D01*
X104717707Y-84088853D01*
X104541517Y-84193675D01*
X104387378Y-84328851D01*
X104383811Y-84333376D01*
X104383806Y-84333381D01*
X104264033Y-84485313D01*
X104260455Y-84489852D01*
X104257764Y-84494968D01*
X104257762Y-84494970D01*
X104167689Y-84666171D01*
X104164997Y-84671288D01*
X104163284Y-84676805D01*
X104163281Y-84676812D01*
X104161821Y-84681514D01*
X104122518Y-84740639D01*
X104057489Y-84769129D01*
X103987379Y-84757939D01*
X103934450Y-84710621D01*
X103915489Y-84644149D01*
X103915489Y-83052599D01*
X103935491Y-82984478D01*
X103989147Y-82937985D01*
X104059421Y-82927881D01*
X104124001Y-82957375D01*
X104155915Y-82999848D01*
X104229810Y-83160139D01*
X104233143Y-83164855D01*
X104321747Y-83290227D01*
X104348133Y-83327563D01*
X104494986Y-83470620D01*
X104665449Y-83584520D01*
X104670752Y-83586798D01*
X104670755Y-83586800D01*
X104760329Y-83625284D01*
X104853815Y-83665449D01*
X104927559Y-83682136D01*
X105048137Y-83709420D01*
X105048142Y-83709421D01*
X105053774Y-83710695D01*
X105059545Y-83710922D01*
X105059547Y-83710922D01*
X105121339Y-83713350D01*
X105258631Y-83718744D01*
X105360077Y-83704035D01*
X105455810Y-83690155D01*
X105455815Y-83690154D01*
X105461524Y-83689326D01*
X105466988Y-83687471D01*
X105466993Y-83687470D01*
X105650187Y-83625284D01*
X105650192Y-83625282D01*
X105655659Y-83623426D01*
X105680949Y-83609263D01*
X105829495Y-83526073D01*
X105829499Y-83526070D01*
X105834533Y-83523251D01*
X105838970Y-83519561D01*
X105838974Y-83519558D01*
X105987719Y-83395848D01*
X105992157Y-83392157D01*
X106070266Y-83298241D01*
X106119558Y-83238974D01*
X106119561Y-83238970D01*
X106123251Y-83234533D01*
X106126070Y-83229499D01*
X106126073Y-83229495D01*
X106220603Y-83060700D01*
X106220603Y-83060699D01*
X106223426Y-83055659D01*
X106225282Y-83050192D01*
X106225284Y-83050187D01*
X106287470Y-82866993D01*
X106287471Y-82866988D01*
X106289326Y-82861524D01*
X106290154Y-82855815D01*
X106290155Y-82855810D01*
X106318211Y-82662305D01*
X106318744Y-82658631D01*
X106320279Y-82600000D01*
X106317584Y-82570675D01*
X106580105Y-82570675D01*
X106593513Y-82775250D01*
X106594935Y-82780849D01*
X106638449Y-82952181D01*
X106643979Y-82973957D01*
X106729810Y-83160139D01*
X106733143Y-83164855D01*
X106821747Y-83290227D01*
X106848133Y-83327563D01*
X106994986Y-83470620D01*
X107165449Y-83584520D01*
X107170752Y-83586798D01*
X107170755Y-83586800D01*
X107260329Y-83625284D01*
X107353815Y-83665449D01*
X107427559Y-83682136D01*
X107548137Y-83709420D01*
X107548142Y-83709421D01*
X107553774Y-83710695D01*
X107559545Y-83710922D01*
X107559547Y-83710922D01*
X107621339Y-83713350D01*
X107758631Y-83718744D01*
X107860077Y-83704035D01*
X107955810Y-83690155D01*
X107955815Y-83690154D01*
X107961524Y-83689326D01*
X107966988Y-83687471D01*
X107966993Y-83687470D01*
X108150187Y-83625284D01*
X108150192Y-83625282D01*
X108155659Y-83623426D01*
X108180949Y-83609263D01*
X108329495Y-83526073D01*
X108329499Y-83526070D01*
X108334533Y-83523251D01*
X108338970Y-83519561D01*
X108338974Y-83519558D01*
X108487719Y-83395848D01*
X108492157Y-83392157D01*
X108570266Y-83298241D01*
X108619558Y-83238974D01*
X108619561Y-83238970D01*
X108623251Y-83234533D01*
X108626070Y-83229499D01*
X108626073Y-83229495D01*
X108720603Y-83060700D01*
X108720603Y-83060699D01*
X108723426Y-83055659D01*
X108725282Y-83050192D01*
X108725284Y-83050187D01*
X108787470Y-82866993D01*
X108787471Y-82866988D01*
X108789326Y-82861524D01*
X108790154Y-82855815D01*
X108790155Y-82855810D01*
X108818211Y-82662305D01*
X108818744Y-82658631D01*
X108820279Y-82600000D01*
X108801520Y-82395845D01*
X108781678Y-82325489D01*
X108747441Y-82204093D01*
X108747439Y-82204088D01*
X108745871Y-82198528D01*
X108655195Y-82014656D01*
X108532530Y-81850387D01*
X108426469Y-81752345D01*
X108386223Y-81715142D01*
X108386220Y-81715140D01*
X108381983Y-81711223D01*
X108208596Y-81601824D01*
X108018176Y-81525854D01*
X108012516Y-81524728D01*
X108012512Y-81524727D01*
X107822769Y-81486985D01*
X107822764Y-81486985D01*
X107817101Y-81485858D01*
X107811326Y-81485782D01*
X107811322Y-81485782D01*
X107708605Y-81484437D01*
X107612104Y-81483174D01*
X107606407Y-81484153D01*
X107606406Y-81484153D01*
X107477952Y-81506226D01*
X107410050Y-81517894D01*
X107217707Y-81588853D01*
X107212746Y-81591805D01*
X107212745Y-81591805D01*
X107096666Y-81660865D01*
X107041517Y-81693675D01*
X106887378Y-81828851D01*
X106883811Y-81833376D01*
X106883806Y-81833381D01*
X106778714Y-81966690D01*
X106760455Y-81989852D01*
X106757764Y-81994968D01*
X106757762Y-81994970D01*
X106667689Y-82166171D01*
X106664997Y-82171288D01*
X106663284Y-82176805D01*
X106616932Y-82326085D01*
X106604202Y-82367081D01*
X106580105Y-82570675D01*
X106317584Y-82570675D01*
X106301520Y-82395845D01*
X106281678Y-82325489D01*
X106247441Y-82204093D01*
X106247439Y-82204088D01*
X106245871Y-82198528D01*
X106155195Y-82014656D01*
X106032530Y-81850387D01*
X105926469Y-81752345D01*
X105886223Y-81715142D01*
X105886220Y-81715140D01*
X105881983Y-81711223D01*
X105708596Y-81601824D01*
X105518176Y-81525854D01*
X105512516Y-81524728D01*
X105512512Y-81524727D01*
X105322769Y-81486985D01*
X105322764Y-81486985D01*
X105317101Y-81485858D01*
X105311326Y-81485782D01*
X105311322Y-81485782D01*
X105208605Y-81484437D01*
X105112104Y-81483174D01*
X105106407Y-81484153D01*
X105106406Y-81484153D01*
X104977952Y-81506226D01*
X104910050Y-81517894D01*
X104717707Y-81588853D01*
X104712746Y-81591805D01*
X104712745Y-81591805D01*
X104596666Y-81660865D01*
X104541517Y-81693675D01*
X104387378Y-81828851D01*
X104383811Y-81833376D01*
X104383806Y-81833381D01*
X104278714Y-81966690D01*
X104260455Y-81989852D01*
X104257764Y-81994968D01*
X104257762Y-81994970D01*
X104167689Y-82166171D01*
X104164997Y-82171288D01*
X104163284Y-82176805D01*
X104163281Y-82176812D01*
X104161821Y-82181514D01*
X104122518Y-82240639D01*
X104057489Y-82269129D01*
X103987379Y-82257939D01*
X103934450Y-82210621D01*
X103915489Y-82144149D01*
X103915489Y-80552599D01*
X103935491Y-80484478D01*
X103989147Y-80437985D01*
X104059421Y-80427881D01*
X104124001Y-80457375D01*
X104155915Y-80499848D01*
X104229810Y-80660139D01*
X104233143Y-80664855D01*
X104325663Y-80795768D01*
X104348133Y-80827563D01*
X104494986Y-80970620D01*
X104665449Y-81084520D01*
X104670752Y-81086798D01*
X104670755Y-81086800D01*
X104848508Y-81163169D01*
X104853815Y-81165449D01*
X104927559Y-81182136D01*
X105048137Y-81209420D01*
X105048142Y-81209421D01*
X105053774Y-81210695D01*
X105059545Y-81210922D01*
X105059547Y-81210922D01*
X105121339Y-81213350D01*
X105258631Y-81218744D01*
X105360078Y-81204035D01*
X105455810Y-81190155D01*
X105455815Y-81190154D01*
X105461524Y-81189326D01*
X105466988Y-81187471D01*
X105466993Y-81187470D01*
X105650187Y-81125284D01*
X105650192Y-81125282D01*
X105655659Y-81123426D01*
X105680949Y-81109263D01*
X105829495Y-81026073D01*
X105829499Y-81026070D01*
X105834533Y-81023251D01*
X105838970Y-81019561D01*
X105838974Y-81019558D01*
X105987719Y-80895848D01*
X105992157Y-80892157D01*
X106075697Y-80791711D01*
X106119558Y-80738974D01*
X106119561Y-80738970D01*
X106123251Y-80734533D01*
X106126070Y-80729499D01*
X106126073Y-80729495D01*
X106220603Y-80560700D01*
X106220603Y-80560699D01*
X106223426Y-80555659D01*
X106225282Y-80550192D01*
X106225284Y-80550187D01*
X106287470Y-80366993D01*
X106287471Y-80366988D01*
X106289326Y-80361524D01*
X106290154Y-80355815D01*
X106290155Y-80355810D01*
X106313377Y-80195644D01*
X106318744Y-80158631D01*
X106320279Y-80100000D01*
X106301520Y-79895845D01*
X106299415Y-79888380D01*
X106247441Y-79704093D01*
X106247439Y-79704088D01*
X106245871Y-79698528D01*
X106155195Y-79514656D01*
X106032530Y-79350387D01*
X105881983Y-79211223D01*
X105708596Y-79101824D01*
X105540366Y-79034707D01*
X105523540Y-79027994D01*
X105518176Y-79025854D01*
X105512516Y-79024728D01*
X105512512Y-79024727D01*
X105322769Y-78986985D01*
X105322764Y-78986985D01*
X105317101Y-78985858D01*
X105311326Y-78985782D01*
X105311322Y-78985782D01*
X105208605Y-78984437D01*
X105112104Y-78983174D01*
X105106407Y-78984153D01*
X105106406Y-78984153D01*
X104915747Y-79016915D01*
X104910050Y-79017894D01*
X104717707Y-79088853D01*
X104712746Y-79091805D01*
X104712745Y-79091805D01*
X104549093Y-79189168D01*
X104541517Y-79193675D01*
X104387378Y-79328851D01*
X104383811Y-79333376D01*
X104383806Y-79333381D01*
X104264033Y-79485313D01*
X104260455Y-79489852D01*
X104257764Y-79494968D01*
X104257762Y-79494970D01*
X104167689Y-79666171D01*
X104164997Y-79671288D01*
X104163284Y-79676805D01*
X104163281Y-79676812D01*
X104161821Y-79681514D01*
X104122518Y-79740639D01*
X104057489Y-79769129D01*
X103987379Y-79757939D01*
X103934450Y-79710621D01*
X103915489Y-79644149D01*
X103915489Y-78052599D01*
X103935491Y-77984478D01*
X103989147Y-77937985D01*
X104059421Y-77927881D01*
X104124001Y-77957375D01*
X104155915Y-77999848D01*
X104229810Y-78160139D01*
X104233143Y-78164855D01*
X104324504Y-78294128D01*
X104348133Y-78327563D01*
X104494986Y-78470620D01*
X104499790Y-78473830D01*
X104566462Y-78518379D01*
X104665449Y-78584520D01*
X104670752Y-78586798D01*
X104670755Y-78586800D01*
X104795780Y-78640515D01*
X104853815Y-78665449D01*
X104899653Y-78675821D01*
X105048137Y-78709420D01*
X105048142Y-78709421D01*
X105053774Y-78710695D01*
X105059545Y-78710922D01*
X105059547Y-78710922D01*
X105121339Y-78713350D01*
X105258631Y-78718744D01*
X105374313Y-78701971D01*
X105455810Y-78690155D01*
X105455815Y-78690154D01*
X105461524Y-78689326D01*
X105466988Y-78687471D01*
X105466993Y-78687470D01*
X105650187Y-78625284D01*
X105650192Y-78625282D01*
X105655659Y-78623426D01*
X105680949Y-78609263D01*
X105829495Y-78526073D01*
X105829499Y-78526070D01*
X105834533Y-78523251D01*
X105838970Y-78519561D01*
X105838974Y-78519558D01*
X105987719Y-78395848D01*
X105992157Y-78392157D01*
X106042523Y-78331598D01*
X106119558Y-78238974D01*
X106119561Y-78238970D01*
X106123251Y-78234533D01*
X106126070Y-78229499D01*
X106126073Y-78229495D01*
X106220603Y-78060700D01*
X106220603Y-78060699D01*
X106223426Y-78055659D01*
X106225282Y-78050192D01*
X106225284Y-78050187D01*
X106287470Y-77866993D01*
X106287471Y-77866988D01*
X106289326Y-77861524D01*
X106290154Y-77855815D01*
X106290155Y-77855810D01*
X106311649Y-77707564D01*
X106318744Y-77658631D01*
X106320279Y-77600000D01*
X106317584Y-77570675D01*
X106580105Y-77570675D01*
X106593513Y-77775250D01*
X106643979Y-77973957D01*
X106729810Y-78160139D01*
X106733143Y-78164855D01*
X106824504Y-78294128D01*
X106848133Y-78327563D01*
X106994986Y-78470620D01*
X106999790Y-78473830D01*
X107066462Y-78518379D01*
X107165449Y-78584520D01*
X107170752Y-78586798D01*
X107170755Y-78586800D01*
X107295780Y-78640515D01*
X107353815Y-78665449D01*
X107399653Y-78675821D01*
X107548137Y-78709420D01*
X107548142Y-78709421D01*
X107553774Y-78710695D01*
X107559545Y-78710922D01*
X107559547Y-78710922D01*
X107621339Y-78713350D01*
X107758631Y-78718744D01*
X107874313Y-78701971D01*
X107955810Y-78690155D01*
X107955815Y-78690154D01*
X107961524Y-78689326D01*
X107966988Y-78687471D01*
X107966993Y-78687470D01*
X108150187Y-78625284D01*
X108150192Y-78625282D01*
X108155659Y-78623426D01*
X108180949Y-78609263D01*
X108329495Y-78526073D01*
X108329499Y-78526070D01*
X108334533Y-78523251D01*
X108338970Y-78519561D01*
X108338974Y-78519558D01*
X108487719Y-78395848D01*
X108492157Y-78392157D01*
X108542523Y-78331598D01*
X108619558Y-78238974D01*
X108619561Y-78238970D01*
X108623251Y-78234533D01*
X108626070Y-78229499D01*
X108626073Y-78229495D01*
X108720603Y-78060700D01*
X108720603Y-78060699D01*
X108723426Y-78055659D01*
X108725282Y-78050192D01*
X108725284Y-78050187D01*
X108787470Y-77866993D01*
X108787471Y-77866988D01*
X108789326Y-77861524D01*
X108790154Y-77855815D01*
X108790155Y-77855810D01*
X108811649Y-77707564D01*
X108818744Y-77658631D01*
X108820279Y-77600000D01*
X108801520Y-77395845D01*
X108788149Y-77348435D01*
X108747441Y-77204093D01*
X108747439Y-77204088D01*
X108745871Y-77198528D01*
X108655195Y-77014656D01*
X108568853Y-76899029D01*
X108535983Y-76855011D01*
X108535982Y-76855010D01*
X108532530Y-76850387D01*
X108441855Y-76766568D01*
X108386223Y-76715142D01*
X108386220Y-76715140D01*
X108381983Y-76711223D01*
X108208596Y-76601824D01*
X108018176Y-76525854D01*
X108012516Y-76524728D01*
X108012512Y-76524727D01*
X107822769Y-76486985D01*
X107822764Y-76486985D01*
X107817101Y-76485858D01*
X107811326Y-76485782D01*
X107811322Y-76485782D01*
X107708605Y-76484437D01*
X107612104Y-76483174D01*
X107606407Y-76484153D01*
X107606406Y-76484153D01*
X107564139Y-76491416D01*
X107410050Y-76517894D01*
X107217707Y-76588853D01*
X107212746Y-76591805D01*
X107212745Y-76591805D01*
X107102939Y-76657133D01*
X107041517Y-76693675D01*
X106887378Y-76828851D01*
X106883811Y-76833376D01*
X106883806Y-76833381D01*
X106767101Y-76981421D01*
X106760455Y-76989852D01*
X106757764Y-76994968D01*
X106757762Y-76994970D01*
X106675090Y-77152104D01*
X106664997Y-77171288D01*
X106604202Y-77367081D01*
X106580105Y-77570675D01*
X106317584Y-77570675D01*
X106301520Y-77395845D01*
X106288149Y-77348435D01*
X106247441Y-77204093D01*
X106247439Y-77204088D01*
X106245871Y-77198528D01*
X106155195Y-77014656D01*
X106068853Y-76899029D01*
X106035983Y-76855011D01*
X106035982Y-76855010D01*
X106032530Y-76850387D01*
X105941855Y-76766568D01*
X105886223Y-76715142D01*
X105886220Y-76715140D01*
X105881983Y-76711223D01*
X105708596Y-76601824D01*
X105518176Y-76525854D01*
X105512516Y-76524728D01*
X105512512Y-76524727D01*
X105322769Y-76486985D01*
X105322764Y-76486985D01*
X105317101Y-76485858D01*
X105311326Y-76485782D01*
X105311322Y-76485782D01*
X105208605Y-76484437D01*
X105112104Y-76483174D01*
X105106407Y-76484153D01*
X105106406Y-76484153D01*
X105064139Y-76491416D01*
X104910050Y-76517894D01*
X104717707Y-76588853D01*
X104705764Y-76595958D01*
X104636995Y-76613600D01*
X104569605Y-76591262D01*
X104552244Y-76576770D01*
X104302404Y-76326930D01*
X104268378Y-76264618D01*
X104265499Y-76237835D01*
X104265499Y-76045710D01*
X104285501Y-75977589D01*
X104339157Y-75931096D01*
X104409431Y-75920992D01*
X104474011Y-75950486D01*
X104479415Y-75955451D01*
X104494986Y-75970620D01*
X104665449Y-76084520D01*
X104670752Y-76086798D01*
X104670755Y-76086800D01*
X104842885Y-76160753D01*
X104853815Y-76165449D01*
X104927559Y-76182136D01*
X105048137Y-76209420D01*
X105048142Y-76209421D01*
X105053774Y-76210695D01*
X105059545Y-76210922D01*
X105059547Y-76210922D01*
X105121339Y-76213350D01*
X105258631Y-76218744D01*
X105360078Y-76204035D01*
X105455810Y-76190155D01*
X105455815Y-76190154D01*
X105461524Y-76189326D01*
X105466988Y-76187471D01*
X105466993Y-76187470D01*
X105650187Y-76125284D01*
X105650192Y-76125282D01*
X105655659Y-76123426D01*
X105680949Y-76109263D01*
X105829495Y-76026073D01*
X105829499Y-76026070D01*
X105834533Y-76023251D01*
X105838970Y-76019561D01*
X105838974Y-76019558D01*
X105987719Y-75895848D01*
X105992157Y-75892157D01*
X106105813Y-75755500D01*
X106119558Y-75738974D01*
X106119561Y-75738970D01*
X106123251Y-75734533D01*
X106126070Y-75729499D01*
X106126073Y-75729495D01*
X106220603Y-75560700D01*
X106220603Y-75560699D01*
X106223426Y-75555659D01*
X106225282Y-75550192D01*
X106225284Y-75550187D01*
X106287470Y-75366993D01*
X106287471Y-75366988D01*
X106289326Y-75361524D01*
X106290154Y-75355815D01*
X106290155Y-75355810D01*
X106311968Y-75205366D01*
X106318744Y-75158631D01*
X106320279Y-75100000D01*
X106301520Y-74895845D01*
X106280571Y-74821565D01*
X106247441Y-74704093D01*
X106247439Y-74704088D01*
X106245871Y-74698528D01*
X106155195Y-74514656D01*
X106087973Y-74424634D01*
X106035983Y-74355011D01*
X106035982Y-74355010D01*
X106032530Y-74350387D01*
X105881983Y-74211223D01*
X105708596Y-74101824D01*
X105588913Y-74054075D01*
X105533055Y-74010255D01*
X105509754Y-73943191D01*
X105526410Y-73874176D01*
X105546509Y-73847951D01*
X106692044Y-72702415D01*
X106754356Y-72668390D01*
X106781139Y-72665510D01*
X115775428Y-72665510D01*
X115800008Y-72667931D01*
X115813990Y-72670712D01*
X115826161Y-72668291D01*
X115905414Y-72652526D01*
X115905415Y-72652525D01*
X115917583Y-72650105D01*
X115950462Y-72628136D01*
X116005405Y-72591425D01*
X116012299Y-72581108D01*
X116013324Y-72579574D01*
X116028995Y-72560479D01*
X116314474Y-72275000D01*
X133434319Y-72275000D01*
X133454984Y-72471618D01*
X133516077Y-72659643D01*
X133519380Y-72665365D01*
X133519381Y-72665366D01*
X133551062Y-72720239D01*
X133614928Y-72830857D01*
X133747216Y-72977778D01*
X133907159Y-73093984D01*
X133913187Y-73096668D01*
X133913189Y-73096669D01*
X134081737Y-73171711D01*
X134087768Y-73174396D01*
X134184459Y-73194948D01*
X134274692Y-73214128D01*
X134274696Y-73214128D01*
X134281149Y-73215500D01*
X134478851Y-73215500D01*
X134485304Y-73214128D01*
X134485308Y-73214128D01*
X134575541Y-73194948D01*
X134672232Y-73174396D01*
X134678263Y-73171711D01*
X134846811Y-73096669D01*
X134846813Y-73096668D01*
X134852841Y-73093984D01*
X135012784Y-72977778D01*
X135145072Y-72830857D01*
X135208938Y-72720239D01*
X135240619Y-72665366D01*
X135240620Y-72665365D01*
X135243923Y-72659643D01*
X135305016Y-72471618D01*
X135325681Y-72275000D01*
X148674319Y-72275000D01*
X148694984Y-72471618D01*
X148756077Y-72659643D01*
X148759380Y-72665365D01*
X148759381Y-72665366D01*
X148791062Y-72720239D01*
X148854928Y-72830857D01*
X148987216Y-72977778D01*
X149147159Y-73093984D01*
X149153187Y-73096668D01*
X149153189Y-73096669D01*
X149321737Y-73171711D01*
X149327768Y-73174396D01*
X149424459Y-73194948D01*
X149514692Y-73214128D01*
X149514696Y-73214128D01*
X149521149Y-73215500D01*
X149718851Y-73215500D01*
X149725304Y-73214128D01*
X149725308Y-73214128D01*
X149815541Y-73194948D01*
X149912232Y-73174396D01*
X149918263Y-73171711D01*
X150086811Y-73096669D01*
X150086813Y-73096668D01*
X150092841Y-73093984D01*
X150252784Y-72977778D01*
X150385072Y-72830857D01*
X150448938Y-72720239D01*
X150480619Y-72665366D01*
X150480620Y-72665365D01*
X150483923Y-72659643D01*
X150545016Y-72471618D01*
X150565681Y-72275000D01*
X150558680Y-72208389D01*
X150545706Y-72084945D01*
X150545706Y-72084943D01*
X150545016Y-72078382D01*
X150483923Y-71890357D01*
X150474597Y-71874203D01*
X150388373Y-71724861D01*
X150385072Y-71719143D01*
X150325782Y-71653294D01*
X150257206Y-71577133D01*
X150257205Y-71577132D01*
X150252784Y-71572222D01*
X150092841Y-71456016D01*
X150086813Y-71453332D01*
X150086811Y-71453331D01*
X149918263Y-71378289D01*
X149918262Y-71378289D01*
X149912232Y-71375604D01*
X149815542Y-71355052D01*
X149725308Y-71335872D01*
X149725304Y-71335872D01*
X149718851Y-71334500D01*
X149521149Y-71334500D01*
X149514696Y-71335872D01*
X149514692Y-71335872D01*
X149424458Y-71355052D01*
X149327768Y-71375604D01*
X149321738Y-71378289D01*
X149321737Y-71378289D01*
X149153190Y-71453331D01*
X149153188Y-71453332D01*
X149147160Y-71456016D01*
X149141819Y-71459896D01*
X149141818Y-71459897D01*
X149014009Y-71552756D01*
X148987216Y-71572222D01*
X148982795Y-71577132D01*
X148982794Y-71577133D01*
X148914219Y-71653294D01*
X148854928Y-71719143D01*
X148851627Y-71724861D01*
X148765404Y-71874203D01*
X148756077Y-71890357D01*
X148694984Y-72078382D01*
X148694294Y-72084943D01*
X148694294Y-72084945D01*
X148681320Y-72208389D01*
X148674319Y-72275000D01*
X135325681Y-72275000D01*
X135318680Y-72208389D01*
X135305706Y-72084945D01*
X135305706Y-72084943D01*
X135305016Y-72078382D01*
X135243923Y-71890357D01*
X135234597Y-71874203D01*
X135148373Y-71724861D01*
X135145072Y-71719143D01*
X135085782Y-71653294D01*
X135017206Y-71577133D01*
X135017205Y-71577132D01*
X135012784Y-71572222D01*
X134852841Y-71456016D01*
X134846813Y-71453332D01*
X134846811Y-71453331D01*
X134678263Y-71378289D01*
X134678262Y-71378289D01*
X134672232Y-71375604D01*
X134575542Y-71355052D01*
X134485308Y-71335872D01*
X134485304Y-71335872D01*
X134478851Y-71334500D01*
X134281149Y-71334500D01*
X134274696Y-71335872D01*
X134274692Y-71335872D01*
X134184458Y-71355052D01*
X134087768Y-71375604D01*
X134081738Y-71378289D01*
X134081737Y-71378289D01*
X133913190Y-71453331D01*
X133913188Y-71453332D01*
X133907160Y-71456016D01*
X133901819Y-71459896D01*
X133901818Y-71459897D01*
X133774009Y-71552756D01*
X133747216Y-71572222D01*
X133742795Y-71577132D01*
X133742794Y-71577133D01*
X133674219Y-71653294D01*
X133614928Y-71719143D01*
X133611627Y-71724861D01*
X133525404Y-71874203D01*
X133516077Y-71890357D01*
X133454984Y-72078382D01*
X133454294Y-72084943D01*
X133454294Y-72084945D01*
X133441320Y-72208389D01*
X133434319Y-72275000D01*
X116314474Y-72275000D01*
X118854474Y-69735000D01*
X133434319Y-69735000D01*
X133435009Y-69741565D01*
X133453658Y-69918998D01*
X133454984Y-69931618D01*
X133516077Y-70119643D01*
X133519380Y-70125365D01*
X133519381Y-70125366D01*
X133534597Y-70151720D01*
X133614928Y-70290857D01*
X133619346Y-70295764D01*
X133619347Y-70295765D01*
X133660073Y-70340996D01*
X133747216Y-70437778D01*
X133907159Y-70553984D01*
X133913187Y-70556668D01*
X133913189Y-70556669D01*
X134081737Y-70631711D01*
X134087768Y-70634396D01*
X134184459Y-70654948D01*
X134274692Y-70674128D01*
X134274696Y-70674128D01*
X134281149Y-70675500D01*
X134478851Y-70675500D01*
X134485304Y-70674128D01*
X134485308Y-70674128D01*
X134575541Y-70654948D01*
X134672232Y-70634396D01*
X134678263Y-70631711D01*
X134846811Y-70556669D01*
X134846813Y-70556668D01*
X134852841Y-70553984D01*
X135012784Y-70437778D01*
X135099927Y-70340996D01*
X135140653Y-70295765D01*
X135140654Y-70295764D01*
X135145072Y-70290857D01*
X135225403Y-70151720D01*
X135240619Y-70125366D01*
X135240620Y-70125365D01*
X135243923Y-70119643D01*
X135305016Y-69931618D01*
X135306343Y-69918998D01*
X135324991Y-69741565D01*
X135325681Y-69735000D01*
X148674319Y-69735000D01*
X148675009Y-69741565D01*
X148693658Y-69918998D01*
X148694984Y-69931618D01*
X148756077Y-70119643D01*
X148759380Y-70125365D01*
X148759381Y-70125366D01*
X148774597Y-70151720D01*
X148854928Y-70290857D01*
X148859346Y-70295764D01*
X148859347Y-70295765D01*
X148900073Y-70340996D01*
X148987216Y-70437778D01*
X149147159Y-70553984D01*
X149153187Y-70556668D01*
X149153189Y-70556669D01*
X149321737Y-70631711D01*
X149327768Y-70634396D01*
X149424459Y-70654948D01*
X149514692Y-70674128D01*
X149514696Y-70674128D01*
X149521149Y-70675500D01*
X149718851Y-70675500D01*
X149725304Y-70674128D01*
X149725308Y-70674128D01*
X149815541Y-70654948D01*
X149912232Y-70634396D01*
X149918263Y-70631711D01*
X150086811Y-70556669D01*
X150086813Y-70556668D01*
X150092841Y-70553984D01*
X150252784Y-70437778D01*
X150339927Y-70340996D01*
X150380653Y-70295765D01*
X150380654Y-70295764D01*
X150385072Y-70290857D01*
X150465403Y-70151720D01*
X150480619Y-70125366D01*
X150480620Y-70125365D01*
X150483923Y-70119643D01*
X150545016Y-69931618D01*
X150546343Y-69918998D01*
X150564991Y-69741565D01*
X150565681Y-69735000D01*
X150560559Y-69686268D01*
X150545706Y-69544945D01*
X150545706Y-69544943D01*
X150545016Y-69538382D01*
X150483923Y-69350357D01*
X150475347Y-69335502D01*
X150388373Y-69184861D01*
X150385072Y-69179143D01*
X150299483Y-69084086D01*
X150257206Y-69037133D01*
X150257205Y-69037132D01*
X150252784Y-69032222D01*
X150112797Y-68930515D01*
X150098183Y-68919897D01*
X150098182Y-68919896D01*
X150092841Y-68916016D01*
X150086813Y-68913332D01*
X150086811Y-68913331D01*
X149918263Y-68838289D01*
X149918262Y-68838289D01*
X149912232Y-68835604D01*
X149803921Y-68812582D01*
X149725308Y-68795872D01*
X149725304Y-68795872D01*
X149718851Y-68794500D01*
X149521149Y-68794500D01*
X149514696Y-68795872D01*
X149514692Y-68795872D01*
X149436079Y-68812582D01*
X149327768Y-68835604D01*
X149321738Y-68838289D01*
X149321737Y-68838289D01*
X149153190Y-68913331D01*
X149153188Y-68913332D01*
X149147160Y-68916016D01*
X149141819Y-68919896D01*
X149141818Y-68919897D01*
X148997828Y-69024512D01*
X148987216Y-69032222D01*
X148982795Y-69037132D01*
X148982794Y-69037133D01*
X148940518Y-69084086D01*
X148854928Y-69179143D01*
X148851627Y-69184861D01*
X148764654Y-69335502D01*
X148756077Y-69350357D01*
X148694984Y-69538382D01*
X148694294Y-69544943D01*
X148694294Y-69544945D01*
X148679441Y-69686268D01*
X148674319Y-69735000D01*
X135325681Y-69735000D01*
X135320559Y-69686268D01*
X135305706Y-69544945D01*
X135305706Y-69544943D01*
X135305016Y-69538382D01*
X135243923Y-69350357D01*
X135235347Y-69335502D01*
X135148373Y-69184861D01*
X135145072Y-69179143D01*
X135059483Y-69084086D01*
X135017206Y-69037133D01*
X135017205Y-69037132D01*
X135012784Y-69032222D01*
X134872797Y-68930515D01*
X134858183Y-68919897D01*
X134858182Y-68919896D01*
X134852841Y-68916016D01*
X134846813Y-68913332D01*
X134846811Y-68913331D01*
X134678263Y-68838289D01*
X134678262Y-68838289D01*
X134672232Y-68835604D01*
X134563921Y-68812582D01*
X134485308Y-68795872D01*
X134485304Y-68795872D01*
X134478851Y-68794500D01*
X134281149Y-68794500D01*
X134274696Y-68795872D01*
X134274692Y-68795872D01*
X134196079Y-68812582D01*
X134087768Y-68835604D01*
X134081738Y-68838289D01*
X134081737Y-68838289D01*
X133913190Y-68913331D01*
X133913188Y-68913332D01*
X133907160Y-68916016D01*
X133901819Y-68919896D01*
X133901818Y-68919897D01*
X133757828Y-69024512D01*
X133747216Y-69032222D01*
X133742795Y-69037132D01*
X133742794Y-69037133D01*
X133700518Y-69084086D01*
X133614928Y-69179143D01*
X133611627Y-69184861D01*
X133524654Y-69335502D01*
X133516077Y-69350357D01*
X133454984Y-69538382D01*
X133454294Y-69544943D01*
X133454294Y-69544945D01*
X133439441Y-69686268D01*
X133434319Y-69735000D01*
X118854474Y-69735000D01*
X119237069Y-69352405D01*
X119299381Y-69318379D01*
X119326164Y-69315500D01*
X119670304Y-69315500D01*
X119738425Y-69335502D01*
X119770266Y-69364796D01*
X119790120Y-69390670D01*
X119824511Y-69435489D01*
X119937418Y-69522126D01*
X120068901Y-69576588D01*
X120210000Y-69595164D01*
X120218188Y-69594086D01*
X120342911Y-69577666D01*
X120351099Y-69576588D01*
X120482582Y-69522126D01*
X120595489Y-69435489D01*
X120682126Y-69322582D01*
X120736588Y-69191099D01*
X120747505Y-69108177D01*
X120776228Y-69043250D01*
X120835493Y-69004159D01*
X120906485Y-69003314D01*
X120927416Y-69012131D01*
X120927418Y-69012126D01*
X121058901Y-69066588D01*
X121200000Y-69085164D01*
X121208188Y-69084086D01*
X121332911Y-69067666D01*
X121341099Y-69066588D01*
X121472582Y-69012126D01*
X121585489Y-68925489D01*
X121672126Y-68812582D01*
X121726588Y-68681099D01*
X121745164Y-68540000D01*
X121726588Y-68398901D01*
X121687572Y-68304707D01*
X121679983Y-68234120D01*
X121711762Y-68170633D01*
X121772820Y-68134405D01*
X121803981Y-68130491D01*
X131486156Y-68130491D01*
X131507291Y-68126287D01*
X131551432Y-68117507D01*
X131551433Y-68117507D01*
X131563602Y-68115086D01*
X131651424Y-68056406D01*
X131696768Y-67988543D01*
X131712439Y-67969449D01*
X133349484Y-66332405D01*
X133411796Y-66298379D01*
X133438579Y-66295500D01*
X133641345Y-66295500D01*
X133709466Y-66315502D01*
X133755959Y-66369158D01*
X133766063Y-66439432D01*
X133734981Y-66505810D01*
X133619347Y-66634235D01*
X133614928Y-66639143D01*
X133560373Y-66733634D01*
X133525404Y-66794203D01*
X133516077Y-66810357D01*
X133454984Y-66998382D01*
X133454294Y-67004943D01*
X133454294Y-67004945D01*
X133441320Y-67128389D01*
X133434319Y-67195000D01*
X133454984Y-67391618D01*
X133516077Y-67579643D01*
X133614928Y-67750857D01*
X133619346Y-67755764D01*
X133619347Y-67755765D01*
X133682953Y-67826407D01*
X133747216Y-67897778D01*
X133907159Y-68013984D01*
X133913187Y-68016668D01*
X133913189Y-68016669D01*
X134081737Y-68091711D01*
X134087768Y-68094396D01*
X134184459Y-68114948D01*
X134274692Y-68134128D01*
X134274696Y-68134128D01*
X134281149Y-68135500D01*
X134478851Y-68135500D01*
X134485304Y-68134128D01*
X134485308Y-68134128D01*
X134575541Y-68114948D01*
X134672232Y-68094396D01*
X134678263Y-68091711D01*
X134846811Y-68016669D01*
X134846813Y-68016668D01*
X134852841Y-68013984D01*
X135012784Y-67897778D01*
X135077047Y-67826407D01*
X135140653Y-67755765D01*
X135140654Y-67755764D01*
X135145072Y-67750857D01*
X135243923Y-67579643D01*
X135305016Y-67391618D01*
X135325681Y-67195000D01*
X148674319Y-67195000D01*
X148694984Y-67391618D01*
X148756077Y-67579643D01*
X148854928Y-67750857D01*
X148859346Y-67755764D01*
X148859347Y-67755765D01*
X148922953Y-67826407D01*
X148987216Y-67897778D01*
X149147159Y-68013984D01*
X149153187Y-68016668D01*
X149153189Y-68016669D01*
X149321737Y-68091711D01*
X149327768Y-68094396D01*
X149424459Y-68114948D01*
X149514692Y-68134128D01*
X149514696Y-68134128D01*
X149521149Y-68135500D01*
X149718851Y-68135500D01*
X149725304Y-68134128D01*
X149725308Y-68134128D01*
X149815541Y-68114948D01*
X149912232Y-68094396D01*
X149918263Y-68091711D01*
X150086811Y-68016669D01*
X150086813Y-68016668D01*
X150092841Y-68013984D01*
X150252784Y-67897778D01*
X150317047Y-67826407D01*
X150380653Y-67755765D01*
X150380654Y-67755764D01*
X150385072Y-67750857D01*
X150483923Y-67579643D01*
X150545016Y-67391618D01*
X150565681Y-67195000D01*
X150558680Y-67128389D01*
X150545706Y-67004945D01*
X150545706Y-67004943D01*
X150545016Y-66998382D01*
X150483923Y-66810357D01*
X150474597Y-66794203D01*
X150439627Y-66733634D01*
X150385072Y-66639143D01*
X150340400Y-66589529D01*
X150257206Y-66497133D01*
X150257205Y-66497132D01*
X150252784Y-66492222D01*
X150092841Y-66376016D01*
X150086813Y-66373332D01*
X150086811Y-66373331D01*
X149918263Y-66298289D01*
X149918262Y-66298289D01*
X149912232Y-66295604D01*
X149783202Y-66268178D01*
X149725308Y-66255872D01*
X149725304Y-66255872D01*
X149718851Y-66254500D01*
X149521149Y-66254500D01*
X149514696Y-66255872D01*
X149514692Y-66255872D01*
X149456798Y-66268178D01*
X149327768Y-66295604D01*
X149321738Y-66298289D01*
X149321737Y-66298289D01*
X149153190Y-66373331D01*
X149153188Y-66373332D01*
X149147160Y-66376016D01*
X149141819Y-66379896D01*
X149141818Y-66379897D01*
X149001177Y-66482079D01*
X148987216Y-66492222D01*
X148982795Y-66497132D01*
X148982794Y-66497133D01*
X148899601Y-66589529D01*
X148854928Y-66639143D01*
X148800373Y-66733634D01*
X148765404Y-66794203D01*
X148756077Y-66810357D01*
X148694984Y-66998382D01*
X148694294Y-67004943D01*
X148694294Y-67004945D01*
X148681320Y-67128389D01*
X148674319Y-67195000D01*
X135325681Y-67195000D01*
X135318680Y-67128389D01*
X135305706Y-67004945D01*
X135305706Y-67004943D01*
X135305016Y-66998382D01*
X135243923Y-66810357D01*
X135234597Y-66794203D01*
X135199627Y-66733634D01*
X135145072Y-66639143D01*
X135140653Y-66634235D01*
X135025019Y-66505810D01*
X134994301Y-66441803D01*
X135003066Y-66371349D01*
X135048529Y-66316818D01*
X135118655Y-66295500D01*
X135822163Y-66295500D01*
X135828758Y-66295673D01*
X135856992Y-66297153D01*
X135856993Y-66297153D01*
X135870220Y-66297846D01*
X135891020Y-66289862D01*
X135909966Y-66284250D01*
X135931764Y-66279616D01*
X135942478Y-66271832D01*
X135948121Y-66269319D01*
X135953306Y-66265952D01*
X135965670Y-66261206D01*
X135981418Y-66245458D01*
X135996452Y-66232617D01*
X136003765Y-66227304D01*
X136003766Y-66227303D01*
X136014477Y-66219521D01*
X136021098Y-66208054D01*
X136029960Y-66198211D01*
X136030195Y-66198422D01*
X136035937Y-66190939D01*
X137571876Y-64655000D01*
X148674319Y-64655000D01*
X148675009Y-64661565D01*
X148678695Y-64696631D01*
X148694984Y-64851618D01*
X148756077Y-65039643D01*
X148854928Y-65210857D01*
X148987216Y-65357778D01*
X149064118Y-65413651D01*
X149140985Y-65469498D01*
X149147159Y-65473984D01*
X149153187Y-65476668D01*
X149153189Y-65476669D01*
X149280071Y-65533160D01*
X149327768Y-65554396D01*
X149424458Y-65574948D01*
X149514692Y-65594128D01*
X149514696Y-65594128D01*
X149521149Y-65595500D01*
X149718851Y-65595500D01*
X149725304Y-65594128D01*
X149725308Y-65594128D01*
X149815542Y-65574948D01*
X149912232Y-65554396D01*
X149959929Y-65533160D01*
X150086811Y-65476669D01*
X150086813Y-65476668D01*
X150092841Y-65473984D01*
X150099016Y-65469498D01*
X150175882Y-65413651D01*
X150252784Y-65357778D01*
X150385072Y-65210857D01*
X150483923Y-65039643D01*
X150545016Y-64851618D01*
X150561306Y-64696631D01*
X150564991Y-64661565D01*
X150565681Y-64655000D01*
X150545016Y-64458382D01*
X150483923Y-64270357D01*
X150385072Y-64099143D01*
X150321641Y-64028695D01*
X150257206Y-63957133D01*
X150257205Y-63957132D01*
X150252784Y-63952222D01*
X150092841Y-63836016D01*
X150086813Y-63833332D01*
X150086811Y-63833331D01*
X149918263Y-63758289D01*
X149918262Y-63758289D01*
X149912232Y-63755604D01*
X149815541Y-63735052D01*
X149725308Y-63715872D01*
X149725304Y-63715872D01*
X149718851Y-63714500D01*
X149521149Y-63714500D01*
X149514696Y-63715872D01*
X149514692Y-63715872D01*
X149424459Y-63735052D01*
X149327768Y-63755604D01*
X149321738Y-63758289D01*
X149321737Y-63758289D01*
X149153190Y-63833331D01*
X149153188Y-63833332D01*
X149147160Y-63836016D01*
X149141819Y-63839896D01*
X149141818Y-63839897D01*
X149037757Y-63915502D01*
X148987216Y-63952222D01*
X148982795Y-63957132D01*
X148982794Y-63957133D01*
X148918360Y-64028695D01*
X148854928Y-64099143D01*
X148756077Y-64270357D01*
X148694984Y-64458382D01*
X148674319Y-64655000D01*
X137571876Y-64655000D01*
X140013259Y-62213617D01*
X140018044Y-62209075D01*
X140039073Y-62190141D01*
X140039074Y-62190140D01*
X140048915Y-62181279D01*
X140057979Y-62160921D01*
X140067411Y-62143551D01*
X140072328Y-62135979D01*
X140079542Y-62124871D01*
X140081106Y-62115000D01*
X148674319Y-62115000D01*
X148694984Y-62311618D01*
X148756077Y-62499643D01*
X148854928Y-62670857D01*
X148859346Y-62675764D01*
X148859347Y-62675765D01*
X148974981Y-62804190D01*
X148987216Y-62817778D01*
X149059875Y-62870568D01*
X149127652Y-62919811D01*
X149147159Y-62933984D01*
X149153187Y-62936668D01*
X149153189Y-62936669D01*
X149317692Y-63009910D01*
X149327768Y-63014396D01*
X149400733Y-63029905D01*
X149514692Y-63054128D01*
X149514696Y-63054128D01*
X149521149Y-63055500D01*
X149718851Y-63055500D01*
X149725304Y-63054128D01*
X149725308Y-63054128D01*
X149839267Y-63029905D01*
X149912232Y-63014396D01*
X149922308Y-63009910D01*
X150086811Y-62936669D01*
X150086813Y-62936668D01*
X150092841Y-62933984D01*
X150112349Y-62919811D01*
X150180125Y-62870568D01*
X150252784Y-62817778D01*
X150265019Y-62804190D01*
X150380653Y-62675765D01*
X150380654Y-62675764D01*
X150385072Y-62670857D01*
X150483923Y-62499643D01*
X150545016Y-62311618D01*
X150565681Y-62115000D01*
X150545016Y-61918382D01*
X150483923Y-61730357D01*
X150385072Y-61559143D01*
X150366808Y-61538858D01*
X150257206Y-61417133D01*
X150257205Y-61417132D01*
X150252784Y-61412222D01*
X150092841Y-61296016D01*
X150086813Y-61293332D01*
X150086811Y-61293331D01*
X149918263Y-61218289D01*
X149918262Y-61218289D01*
X149912232Y-61215604D01*
X149815542Y-61195052D01*
X149725308Y-61175872D01*
X149725304Y-61175872D01*
X149718851Y-61174500D01*
X149521149Y-61174500D01*
X149514696Y-61175872D01*
X149514692Y-61175872D01*
X149424458Y-61195052D01*
X149327768Y-61215604D01*
X149321738Y-61218289D01*
X149321737Y-61218289D01*
X149153190Y-61293331D01*
X149153188Y-61293332D01*
X149147160Y-61296016D01*
X148987216Y-61412222D01*
X148982795Y-61417132D01*
X148982794Y-61417133D01*
X148873193Y-61538858D01*
X148854928Y-61559143D01*
X148756077Y-61730357D01*
X148694984Y-61918382D01*
X148674319Y-62115000D01*
X140081106Y-62115000D01*
X140081614Y-62111791D01*
X140083831Y-62106016D01*
X140085115Y-62099973D01*
X140090500Y-62087878D01*
X140090500Y-62065604D01*
X140092051Y-62045893D01*
X140093465Y-62036969D01*
X140093465Y-62036967D01*
X140095536Y-62023890D01*
X140092108Y-62011099D01*
X140091415Y-61997874D01*
X140091731Y-61997857D01*
X140090500Y-61988509D01*
X140090500Y-59575000D01*
X148674319Y-59575000D01*
X148675009Y-59581565D01*
X148683520Y-59662539D01*
X148694984Y-59771618D01*
X148756077Y-59959643D01*
X148854928Y-60130857D01*
X148859346Y-60135764D01*
X148859347Y-60135765D01*
X148977409Y-60266886D01*
X148987216Y-60277778D01*
X149147159Y-60393984D01*
X149153187Y-60396668D01*
X149153189Y-60396669D01*
X149321737Y-60471711D01*
X149327768Y-60474396D01*
X149424459Y-60494948D01*
X149514692Y-60514128D01*
X149514696Y-60514128D01*
X149521149Y-60515500D01*
X149718851Y-60515500D01*
X149725304Y-60514128D01*
X149725308Y-60514128D01*
X149815541Y-60494948D01*
X149912232Y-60474396D01*
X149918263Y-60471711D01*
X150086811Y-60396669D01*
X150086813Y-60396668D01*
X150092841Y-60393984D01*
X150252784Y-60277778D01*
X150262591Y-60266886D01*
X150380653Y-60135765D01*
X150380654Y-60135764D01*
X150385072Y-60130857D01*
X150483923Y-59959643D01*
X150545016Y-59771618D01*
X150556481Y-59662539D01*
X150564991Y-59581565D01*
X150565681Y-59575000D01*
X150556591Y-59488516D01*
X150545706Y-59384945D01*
X150545706Y-59384943D01*
X150545016Y-59378382D01*
X150483923Y-59190357D01*
X150385072Y-59019143D01*
X150252784Y-58872222D01*
X150150492Y-58797902D01*
X150098183Y-58759897D01*
X150098182Y-58759896D01*
X150092841Y-58756016D01*
X150086813Y-58753332D01*
X150086811Y-58753331D01*
X149918263Y-58678289D01*
X149918262Y-58678289D01*
X149912232Y-58675604D01*
X149815542Y-58655052D01*
X149725308Y-58635872D01*
X149725304Y-58635872D01*
X149718851Y-58634500D01*
X149521149Y-58634500D01*
X149514696Y-58635872D01*
X149514692Y-58635872D01*
X149424458Y-58655052D01*
X149327768Y-58675604D01*
X149321738Y-58678289D01*
X149321737Y-58678289D01*
X149153190Y-58753331D01*
X149153188Y-58753332D01*
X149147160Y-58756016D01*
X149141819Y-58759896D01*
X149141818Y-58759897D01*
X149063907Y-58816503D01*
X148987216Y-58872222D01*
X148854928Y-59019143D01*
X148756077Y-59190357D01*
X148694984Y-59378382D01*
X148694294Y-59384943D01*
X148694294Y-59384945D01*
X148683409Y-59488516D01*
X148674319Y-59575000D01*
X140090500Y-59575000D01*
X140090500Y-57191072D01*
X140110502Y-57122951D01*
X140127405Y-57101977D01*
X140361977Y-56867405D01*
X140424289Y-56833379D01*
X140451072Y-56830500D01*
X142405405Y-56830500D01*
X142412000Y-56830673D01*
X142440234Y-56832153D01*
X142440235Y-56832153D01*
X142453462Y-56832846D01*
X142474262Y-56824862D01*
X142493208Y-56819250D01*
X142515006Y-56814616D01*
X142525720Y-56806832D01*
X142531363Y-56804319D01*
X142536548Y-56800952D01*
X142548912Y-56796206D01*
X142564660Y-56780458D01*
X142579694Y-56767617D01*
X142587007Y-56762304D01*
X142587008Y-56762303D01*
X142597719Y-56754521D01*
X142604340Y-56743054D01*
X142613202Y-56733211D01*
X142613437Y-56733422D01*
X142619179Y-56725939D01*
X142842363Y-56502755D01*
X142904675Y-56468729D01*
X142975375Y-56473752D01*
X143075064Y-56510825D01*
X143082041Y-56511756D01*
X143244317Y-56533409D01*
X143244321Y-56533409D01*
X143251298Y-56534340D01*
X143258309Y-56533702D01*
X143258313Y-56533702D01*
X143421342Y-56518865D01*
X143428363Y-56518226D01*
X143435065Y-56516048D01*
X143435067Y-56516048D01*
X143590758Y-56465461D01*
X143590761Y-56465460D01*
X143597457Y-56463284D01*
X143671265Y-56419286D01*
X143744125Y-56375853D01*
X143744127Y-56375852D01*
X143750177Y-56372245D01*
X143878932Y-56249633D01*
X143977323Y-56101542D01*
X144040460Y-55935334D01*
X144065204Y-55759268D01*
X144065515Y-55737000D01*
X144045696Y-55560312D01*
X144041921Y-55549471D01*
X143989540Y-55399052D01*
X143989539Y-55399050D01*
X143987225Y-55392405D01*
X143893007Y-55241625D01*
X143884390Y-55232947D01*
X143772688Y-55120463D01*
X143767726Y-55115466D01*
X143756829Y-55108550D01*
X143673652Y-55055765D01*
X143617608Y-55020198D01*
X143522973Y-54986500D01*
X143456748Y-54962918D01*
X143456743Y-54962917D01*
X143450113Y-54960556D01*
X143443125Y-54959723D01*
X143443122Y-54959722D01*
X143321998Y-54945279D01*
X143273568Y-54939504D01*
X143266565Y-54940240D01*
X143266564Y-54940240D01*
X143217907Y-54945354D01*
X143096745Y-54958089D01*
X143090079Y-54960358D01*
X143090076Y-54960359D01*
X142935102Y-55013117D01*
X142935099Y-55013118D01*
X142928435Y-55015387D01*
X142922440Y-55019075D01*
X142922436Y-55019077D01*
X142821099Y-55081420D01*
X142777001Y-55108550D01*
X142771970Y-55113477D01*
X142771967Y-55113479D01*
X142758976Y-55126201D01*
X142649970Y-55232947D01*
X142553656Y-55382397D01*
X142551245Y-55389020D01*
X142551244Y-55389023D01*
X142495257Y-55542848D01*
X142495256Y-55542852D01*
X142492847Y-55549471D01*
X142470563Y-55725865D01*
X142487913Y-55902813D01*
X142490137Y-55909498D01*
X142490137Y-55909499D01*
X142531784Y-56034694D01*
X142534307Y-56105646D01*
X142501321Y-56163561D01*
X142352287Y-56312595D01*
X142289975Y-56346621D01*
X142263192Y-56349500D01*
X141507569Y-56349500D01*
X141439448Y-56329498D01*
X141392955Y-56275842D01*
X141382851Y-56205568D01*
X141402621Y-56153773D01*
X141433422Y-56107413D01*
X141437323Y-56101542D01*
X141500460Y-55935334D01*
X141525204Y-55759268D01*
X141525515Y-55737000D01*
X141505696Y-55560312D01*
X141501921Y-55549471D01*
X141449540Y-55399052D01*
X141449539Y-55399050D01*
X141447225Y-55392405D01*
X141353007Y-55241625D01*
X141344390Y-55232947D01*
X141232688Y-55120463D01*
X141227726Y-55115466D01*
X141216829Y-55108550D01*
X141133652Y-55055765D01*
X141077608Y-55020198D01*
X140982973Y-54986500D01*
X140916748Y-54962918D01*
X140916743Y-54962917D01*
X140910113Y-54960556D01*
X140903125Y-54959723D01*
X140903122Y-54959722D01*
X140781998Y-54945279D01*
X140733568Y-54939504D01*
X140726565Y-54940240D01*
X140726564Y-54940240D01*
X140677907Y-54945354D01*
X140556745Y-54958089D01*
X140550079Y-54960358D01*
X140550076Y-54960359D01*
X140395102Y-55013117D01*
X140395099Y-55013118D01*
X140388435Y-55015387D01*
X140382440Y-55019075D01*
X140382436Y-55019077D01*
X140281099Y-55081420D01*
X140237001Y-55108550D01*
X140231970Y-55113477D01*
X140231967Y-55113479D01*
X140218976Y-55126201D01*
X140109970Y-55232947D01*
X140013656Y-55382397D01*
X140011245Y-55389020D01*
X140011244Y-55389023D01*
X139955257Y-55542848D01*
X139955256Y-55542852D01*
X139952847Y-55549471D01*
X139930563Y-55725865D01*
X139947913Y-55902813D01*
X139991784Y-56034694D01*
X139994306Y-56105646D01*
X139961321Y-56163560D01*
X139757495Y-56367387D01*
X139705596Y-56419286D01*
X139643283Y-56453311D01*
X139572468Y-56448247D01*
X139515632Y-56405700D01*
X139490821Y-56339180D01*
X139490500Y-56330191D01*
X139490500Y-55563562D01*
X139492921Y-55538979D01*
X139493281Y-55537169D01*
X139495702Y-55525000D01*
X139475095Y-55421407D01*
X139474074Y-55419879D01*
X139416415Y-55333585D01*
X139406099Y-55326692D01*
X139406098Y-55326691D01*
X139404564Y-55325666D01*
X139385468Y-55309995D01*
X138777404Y-54701930D01*
X138743379Y-54639618D01*
X138740500Y-54612835D01*
X138740500Y-52862165D01*
X138760502Y-52794044D01*
X138777400Y-52773074D01*
X138788064Y-52762409D01*
X138850375Y-52728381D01*
X138877164Y-52725500D01*
X148872405Y-52725500D01*
X148940526Y-52745502D01*
X148961500Y-52762405D01*
X149548755Y-53349660D01*
X149582781Y-53411972D01*
X149577716Y-53482787D01*
X149535169Y-53539623D01*
X149485857Y-53562001D01*
X149411081Y-53577895D01*
X149334226Y-53594231D01*
X149334223Y-53594232D01*
X149327768Y-53595604D01*
X149321738Y-53598289D01*
X149321737Y-53598289D01*
X149153190Y-53673331D01*
X149153188Y-53673332D01*
X149147160Y-53676016D01*
X148987216Y-53792222D01*
X148854928Y-53939143D01*
X148756077Y-54110357D01*
X148694984Y-54298382D01*
X148674319Y-54495000D01*
X148694984Y-54691618D01*
X148756077Y-54879643D01*
X148854928Y-55050857D01*
X148859346Y-55055764D01*
X148859347Y-55055765D01*
X148917601Y-55120463D01*
X148987216Y-55197778D01*
X149089508Y-55272098D01*
X149141669Y-55309995D01*
X149147159Y-55313984D01*
X149153187Y-55316668D01*
X149153189Y-55316669D01*
X149309885Y-55386434D01*
X149327768Y-55394396D01*
X149424459Y-55414948D01*
X149514692Y-55434128D01*
X149514696Y-55434128D01*
X149521149Y-55435500D01*
X149718851Y-55435500D01*
X149725304Y-55434128D01*
X149725308Y-55434128D01*
X149815541Y-55414948D01*
X149912232Y-55394396D01*
X149930115Y-55386434D01*
X150086811Y-55316669D01*
X150086813Y-55316668D01*
X150092841Y-55313984D01*
X150098332Y-55309995D01*
X150150492Y-55272098D01*
X150252784Y-55197778D01*
X150322399Y-55120463D01*
X150380653Y-55055765D01*
X150380654Y-55055764D01*
X150385072Y-55050857D01*
X150483923Y-54879643D01*
X150545016Y-54691618D01*
X150550282Y-54641516D01*
X150577296Y-54575859D01*
X150635517Y-54535230D01*
X150706462Y-54532527D01*
X150764687Y-54565592D01*
X155521812Y-59322717D01*
X155555838Y-59385029D01*
X155550773Y-59455844D01*
X155532682Y-59488512D01*
X155509274Y-59519018D01*
X155454812Y-59650501D01*
X155436236Y-59791600D01*
X155454812Y-59932699D01*
X155509274Y-60064182D01*
X155595911Y-60177089D01*
X155708818Y-60263726D01*
X155840301Y-60318188D01*
X155981400Y-60336764D01*
X155989588Y-60335686D01*
X156114311Y-60319266D01*
X156122499Y-60318188D01*
X156253982Y-60263726D01*
X156366889Y-60177089D01*
X156453526Y-60064182D01*
X156507988Y-59932699D01*
X156526564Y-59791600D01*
X156513392Y-59691546D01*
X156524332Y-59621397D01*
X156571460Y-59568299D01*
X156638314Y-59549100D01*
X156711704Y-59549100D01*
X156779825Y-59569102D01*
X156811666Y-59598396D01*
X156865911Y-59669089D01*
X156978818Y-59755726D01*
X157110301Y-59810188D01*
X157251400Y-59828764D01*
X157259588Y-59827686D01*
X157384311Y-59811266D01*
X157392499Y-59810188D01*
X157523982Y-59755726D01*
X157636889Y-59669089D01*
X157723526Y-59556182D01*
X157777988Y-59424699D01*
X157796564Y-59283600D01*
X157777988Y-59142501D01*
X157723526Y-59011018D01*
X157636889Y-58898111D01*
X157523982Y-58811474D01*
X157392499Y-58757012D01*
X157251400Y-58738436D01*
X157110301Y-58757012D01*
X156978818Y-58811474D01*
X156865911Y-58898111D01*
X156860885Y-58904661D01*
X156811666Y-58968804D01*
X156754328Y-59010671D01*
X156711704Y-59018100D01*
X156515307Y-59018100D01*
X156447186Y-58998098D01*
X156426212Y-58981195D01*
X149479477Y-52034460D01*
X149460535Y-52006113D01*
X149460095Y-52006407D01*
X149408308Y-51928901D01*
X149401415Y-51918585D01*
X149313593Y-51859905D01*
X149301424Y-51857484D01*
X149301423Y-51857484D01*
X149236147Y-51844500D01*
X149222171Y-51841720D01*
X149210000Y-51839299D01*
X149197829Y-51841720D01*
X149197828Y-51841720D01*
X149196023Y-51842079D01*
X149171442Y-51844500D01*
X138608588Y-51844500D01*
X138584008Y-51842079D01*
X138570026Y-51839298D01*
X138483239Y-51856562D01*
X138466433Y-51859905D01*
X138378611Y-51918585D01*
X138371718Y-51928901D01*
X138371717Y-51928902D01*
X138370692Y-51930436D01*
X138355021Y-51949531D01*
X137964531Y-52340021D01*
X137945436Y-52355692D01*
X137943906Y-52356714D01*
X137943904Y-52356716D01*
X137933585Y-52363611D01*
X137918774Y-52385778D01*
X137874905Y-52451433D01*
X137854298Y-52555026D01*
X137856719Y-52567195D01*
X137857079Y-52569005D01*
X137859500Y-52593588D01*
X137859500Y-54881412D01*
X137857079Y-54905992D01*
X137854298Y-54919974D01*
X137856719Y-54932144D01*
X137856719Y-54932148D01*
X137867531Y-54986497D01*
X137867532Y-54986500D01*
X137874905Y-55023567D01*
X137933585Y-55111389D01*
X137943901Y-55118282D01*
X137943902Y-55118283D01*
X137945433Y-55119306D01*
X137964528Y-55134976D01*
X138572595Y-55743042D01*
X138606620Y-55805355D01*
X138609500Y-55832138D01*
X138609500Y-61470737D01*
X138589498Y-61538858D01*
X138572595Y-61559832D01*
X137154831Y-62977595D01*
X137092519Y-63011621D01*
X137065736Y-63014500D01*
X135118655Y-63014500D01*
X135050534Y-62994498D01*
X135004041Y-62940842D01*
X134993937Y-62870568D01*
X135025019Y-62804190D01*
X135140653Y-62675765D01*
X135140654Y-62675764D01*
X135145072Y-62670857D01*
X135243923Y-62499643D01*
X135305016Y-62311618D01*
X135325681Y-62115000D01*
X135305016Y-61918382D01*
X135243923Y-61730357D01*
X135145072Y-61559143D01*
X135126808Y-61538858D01*
X135017206Y-61417133D01*
X135017205Y-61417132D01*
X135012784Y-61412222D01*
X134852841Y-61296016D01*
X134846813Y-61293332D01*
X134846811Y-61293331D01*
X134678263Y-61218289D01*
X134678262Y-61218289D01*
X134672232Y-61215604D01*
X134575542Y-61195052D01*
X134485308Y-61175872D01*
X134485304Y-61175872D01*
X134478851Y-61174500D01*
X134281149Y-61174500D01*
X134274696Y-61175872D01*
X134274692Y-61175872D01*
X134184458Y-61195052D01*
X134087768Y-61215604D01*
X134081738Y-61218289D01*
X134081737Y-61218289D01*
X133913190Y-61293331D01*
X133913188Y-61293332D01*
X133907160Y-61296016D01*
X133747216Y-61412222D01*
X133742795Y-61417132D01*
X133742794Y-61417133D01*
X133633193Y-61538858D01*
X133614928Y-61559143D01*
X133516077Y-61730357D01*
X133454984Y-61918382D01*
X133434319Y-62115000D01*
X133454984Y-62311618D01*
X133516077Y-62499643D01*
X133614928Y-62670857D01*
X133619346Y-62675764D01*
X133619347Y-62675765D01*
X133742796Y-62812870D01*
X133742800Y-62812874D01*
X133747216Y-62817778D01*
X133750622Y-62820253D01*
X133787397Y-62879941D01*
X133786046Y-62950925D01*
X133746533Y-63009910D01*
X133716701Y-63027948D01*
X133706864Y-63029905D01*
X133619042Y-63088585D01*
X133612148Y-63098903D01*
X133612146Y-63098905D01*
X133611125Y-63100434D01*
X133595454Y-63119529D01*
X130267388Y-66447595D01*
X130205076Y-66481621D01*
X130178293Y-66484500D01*
X118858637Y-66484500D01*
X118834057Y-66482079D01*
X118820075Y-66479298D01*
X118733288Y-66496562D01*
X118716482Y-66499905D01*
X118706162Y-66506800D01*
X118706163Y-66506800D01*
X118643914Y-66548393D01*
X118628660Y-66558585D01*
X118621766Y-66568903D01*
X118621764Y-66568905D01*
X118620743Y-66570434D01*
X118605072Y-66589529D01*
X115077006Y-70117595D01*
X115014694Y-70151621D01*
X114987911Y-70154500D01*
X114356575Y-70154500D01*
X114288454Y-70134498D01*
X114241961Y-70080842D01*
X114231857Y-70010568D01*
X114261351Y-69945988D01*
X114304825Y-69913618D01*
X114378711Y-69880335D01*
X114378716Y-69880332D01*
X114383576Y-69878143D01*
X114580732Y-69745409D01*
X114591644Y-69735000D01*
X114670053Y-69660201D01*
X114752705Y-69581355D01*
X114894579Y-69390670D01*
X115002295Y-69178807D01*
X115025361Y-69104524D01*
X115071193Y-68956919D01*
X115072775Y-68951824D01*
X115092815Y-68800627D01*
X115103304Y-68721494D01*
X115103304Y-68721491D01*
X115104004Y-68716211D01*
X115095087Y-68478705D01*
X115046281Y-68246096D01*
X115044322Y-68241135D01*
X114960941Y-68030002D01*
X114960940Y-68030000D01*
X114958980Y-68025037D01*
X114835681Y-67821847D01*
X114817588Y-67800996D01*
X114683410Y-67646369D01*
X114683408Y-67646367D01*
X114679910Y-67642336D01*
X114675784Y-67638953D01*
X114675780Y-67638949D01*
X114500248Y-67495023D01*
X114496120Y-67491638D01*
X114491484Y-67488999D01*
X114491481Y-67488997D01*
X114352752Y-67410028D01*
X114289567Y-67374061D01*
X114066156Y-67292966D01*
X114060908Y-67292017D01*
X113836359Y-67251412D01*
X113836352Y-67251411D01*
X113832275Y-67250674D01*
X113814009Y-67249813D01*
X113808869Y-67249570D01*
X113808862Y-67249570D01*
X113807381Y-67249500D01*
X113640320Y-67249500D01*
X113557974Y-67256487D01*
X113468488Y-67264080D01*
X113468484Y-67264081D01*
X113463177Y-67264531D01*
X113458022Y-67265869D01*
X113458016Y-67265870D01*
X113346612Y-67294785D01*
X113233126Y-67324240D01*
X113135766Y-67368097D01*
X113021285Y-67419667D01*
X113021282Y-67419668D01*
X113016424Y-67421857D01*
X112819268Y-67554591D01*
X112647295Y-67718645D01*
X112505421Y-67909330D01*
X112397705Y-68121193D01*
X112396124Y-68126284D01*
X112396123Y-68126287D01*
X112328807Y-68343081D01*
X112327225Y-68348176D01*
X112326524Y-68353465D01*
X112300715Y-68548188D01*
X112295996Y-68583789D01*
X112296196Y-68589118D01*
X112296196Y-68589119D01*
X112299027Y-68664511D01*
X112304913Y-68821295D01*
X112353719Y-69053904D01*
X112355677Y-69058863D01*
X112355678Y-69058865D01*
X112437275Y-69265479D01*
X112441020Y-69274963D01*
X112443787Y-69279522D01*
X112443788Y-69279525D01*
X112534455Y-69428939D01*
X112564319Y-69478153D01*
X112567816Y-69482183D01*
X112665856Y-69595164D01*
X112720090Y-69657664D01*
X112724216Y-69661047D01*
X112724220Y-69661051D01*
X112814406Y-69734998D01*
X112903880Y-69808362D01*
X112908516Y-69811001D01*
X112908519Y-69811003D01*
X113098239Y-69918998D01*
X113147546Y-69970081D01*
X113161407Y-70039711D01*
X113135424Y-70105782D01*
X113077844Y-70147316D01*
X113035907Y-70154500D01*
X106048558Y-70154500D01*
X106023977Y-70152079D01*
X106022172Y-70151720D01*
X106022171Y-70151720D01*
X106010000Y-70149299D01*
X105997829Y-70151720D01*
X105983853Y-70154500D01*
X105918577Y-70167484D01*
X105918576Y-70167484D01*
X105906407Y-70169905D01*
X105818585Y-70228585D01*
X105811692Y-70238901D01*
X105811691Y-70238902D01*
X105810664Y-70240439D01*
X105794993Y-70259534D01*
X102439514Y-73615012D01*
X102420419Y-73630683D01*
X102418889Y-73631705D01*
X102418887Y-73631707D01*
X102408568Y-73638602D01*
X102393757Y-73660769D01*
X102349888Y-73726424D01*
X102347468Y-73738592D01*
X102347467Y-73738593D01*
X102331702Y-73817846D01*
X102329281Y-73830017D01*
X102331702Y-73842186D01*
X102332062Y-73843996D01*
X102334483Y-73868579D01*
X102334483Y-93021422D01*
X102332062Y-93046002D01*
X102329281Y-93059984D01*
X100140500Y-93059984D01*
X100140500Y-64550000D01*
X107544564Y-64550000D01*
X107544834Y-64554119D01*
X107563903Y-64845055D01*
X107564287Y-64850920D01*
X107565089Y-64854953D01*
X107565090Y-64854959D01*
X107602965Y-65045366D01*
X107623120Y-65146691D01*
X107624447Y-65150600D01*
X107624448Y-65150604D01*
X107718729Y-65428346D01*
X107720055Y-65432252D01*
X107853434Y-65702718D01*
X108020975Y-65953461D01*
X108023689Y-65956555D01*
X108023693Y-65956561D01*
X108217102Y-66177100D01*
X108219811Y-66180189D01*
X108222900Y-66182898D01*
X108443439Y-66376307D01*
X108443445Y-66376311D01*
X108446539Y-66379025D01*
X108449965Y-66381314D01*
X108449970Y-66381318D01*
X108627449Y-66499905D01*
X108697282Y-66546566D01*
X108700981Y-66548390D01*
X108700986Y-66548393D01*
X108766604Y-66580752D01*
X108967748Y-66679945D01*
X108971653Y-66681271D01*
X108971654Y-66681271D01*
X109249396Y-66775552D01*
X109249400Y-66775553D01*
X109253309Y-66776880D01*
X109257353Y-66777684D01*
X109257359Y-66777686D01*
X109545041Y-66834910D01*
X109545047Y-66834911D01*
X109549080Y-66835713D01*
X109553185Y-66835982D01*
X109553192Y-66835983D01*
X109772641Y-66850366D01*
X109772650Y-66850366D01*
X109774690Y-66850500D01*
X109925310Y-66850500D01*
X109927350Y-66850366D01*
X109927359Y-66850366D01*
X110146808Y-66835983D01*
X110146815Y-66835982D01*
X110150920Y-66835713D01*
X110154953Y-66834911D01*
X110154959Y-66834910D01*
X110442641Y-66777686D01*
X110442647Y-66777684D01*
X110446691Y-66776880D01*
X110450600Y-66775553D01*
X110450604Y-66775552D01*
X110728346Y-66681271D01*
X110728347Y-66681271D01*
X110732252Y-66679945D01*
X110933396Y-66580752D01*
X110999014Y-66548393D01*
X110999019Y-66548390D01*
X111002718Y-66546566D01*
X111072551Y-66499905D01*
X111250030Y-66381318D01*
X111250035Y-66381314D01*
X111253461Y-66379025D01*
X111256555Y-66376311D01*
X111256561Y-66376307D01*
X111477100Y-66182898D01*
X111480189Y-66180189D01*
X111482898Y-66177100D01*
X111676307Y-65956561D01*
X111676311Y-65956555D01*
X111679025Y-65953461D01*
X111846566Y-65702718D01*
X111979945Y-65432252D01*
X111981271Y-65428346D01*
X112075552Y-65150604D01*
X112075553Y-65150600D01*
X112076880Y-65146691D01*
X112097035Y-65045366D01*
X112134910Y-64854959D01*
X112134911Y-64854953D01*
X112135713Y-64850920D01*
X112136098Y-64845055D01*
X112155166Y-64554119D01*
X112155436Y-64550000D01*
X112149020Y-64452104D01*
X112135983Y-64253192D01*
X112135982Y-64253185D01*
X112135713Y-64249080D01*
X112108167Y-64110595D01*
X112077686Y-63957359D01*
X112077684Y-63957353D01*
X112076880Y-63953309D01*
X112064047Y-63915502D01*
X111981271Y-63671654D01*
X111981271Y-63671653D01*
X111979945Y-63667748D01*
X111846566Y-63397282D01*
X111679025Y-63146539D01*
X111676311Y-63143445D01*
X111676307Y-63143439D01*
X111482898Y-62922900D01*
X111480189Y-62919811D01*
X111434726Y-62879941D01*
X111256561Y-62723693D01*
X111256555Y-62723689D01*
X111253461Y-62720975D01*
X111250035Y-62718686D01*
X111250030Y-62718682D01*
X111006151Y-62555728D01*
X111002718Y-62553434D01*
X110999019Y-62551610D01*
X110999014Y-62551607D01*
X110860166Y-62483135D01*
X110732252Y-62420055D01*
X110728346Y-62418729D01*
X110450604Y-62324448D01*
X110450600Y-62324447D01*
X110446691Y-62323120D01*
X110442647Y-62322316D01*
X110442641Y-62322314D01*
X110154959Y-62265090D01*
X110154953Y-62265089D01*
X110150920Y-62264287D01*
X110146815Y-62264018D01*
X110146808Y-62264017D01*
X109927359Y-62249634D01*
X109927350Y-62249634D01*
X109925310Y-62249500D01*
X109774690Y-62249500D01*
X109772650Y-62249634D01*
X109772641Y-62249634D01*
X109553192Y-62264017D01*
X109553185Y-62264018D01*
X109549080Y-62264287D01*
X109545047Y-62265089D01*
X109545041Y-62265090D01*
X109257359Y-62322314D01*
X109257353Y-62322316D01*
X109253309Y-62323120D01*
X109249400Y-62324447D01*
X109249396Y-62324448D01*
X108971654Y-62418729D01*
X108967748Y-62420055D01*
X108839834Y-62483135D01*
X108700986Y-62551607D01*
X108700981Y-62551610D01*
X108697282Y-62553434D01*
X108693849Y-62555728D01*
X108449970Y-62718682D01*
X108449965Y-62718686D01*
X108446539Y-62720975D01*
X108443445Y-62723689D01*
X108443439Y-62723693D01*
X108265274Y-62879941D01*
X108219811Y-62919811D01*
X108217102Y-62922900D01*
X108023693Y-63143439D01*
X108023689Y-63143445D01*
X108020975Y-63146539D01*
X107853434Y-63397282D01*
X107720055Y-63667748D01*
X107718729Y-63671653D01*
X107718729Y-63671654D01*
X107635954Y-63915502D01*
X107623120Y-63953309D01*
X107622316Y-63957353D01*
X107622314Y-63957359D01*
X107591834Y-64110595D01*
X107564287Y-64249080D01*
X107564018Y-64253185D01*
X107564017Y-64253192D01*
X107550980Y-64452104D01*
X107544564Y-64550000D01*
X100140500Y-64550000D01*
X100140500Y-59575000D01*
X133434319Y-59575000D01*
X133435009Y-59581565D01*
X133443520Y-59662539D01*
X133454984Y-59771618D01*
X133516077Y-59959643D01*
X133614928Y-60130857D01*
X133619346Y-60135764D01*
X133619347Y-60135765D01*
X133737409Y-60266886D01*
X133747216Y-60277778D01*
X133907159Y-60393984D01*
X133913187Y-60396668D01*
X133913189Y-60396669D01*
X134081737Y-60471711D01*
X134087768Y-60474396D01*
X134184459Y-60494948D01*
X134274692Y-60514128D01*
X134274696Y-60514128D01*
X134281149Y-60515500D01*
X134478851Y-60515500D01*
X134485304Y-60514128D01*
X134485308Y-60514128D01*
X134575541Y-60494948D01*
X134672232Y-60474396D01*
X134678263Y-60471711D01*
X134846811Y-60396669D01*
X134846813Y-60396668D01*
X134852841Y-60393984D01*
X135012784Y-60277778D01*
X135022591Y-60266886D01*
X135140653Y-60135765D01*
X135140654Y-60135764D01*
X135145072Y-60130857D01*
X135243923Y-59959643D01*
X135305016Y-59771618D01*
X135316481Y-59662539D01*
X135324991Y-59581565D01*
X135325681Y-59575000D01*
X135316591Y-59488516D01*
X135305706Y-59384945D01*
X135305706Y-59384943D01*
X135305016Y-59378382D01*
X135243923Y-59190357D01*
X135145072Y-59019143D01*
X135012784Y-58872222D01*
X134910492Y-58797902D01*
X134858183Y-58759897D01*
X134858182Y-58759896D01*
X134852841Y-58756016D01*
X134846813Y-58753332D01*
X134846811Y-58753331D01*
X134678263Y-58678289D01*
X134678262Y-58678289D01*
X134672232Y-58675604D01*
X134575542Y-58655052D01*
X134485308Y-58635872D01*
X134485304Y-58635872D01*
X134478851Y-58634500D01*
X134281149Y-58634500D01*
X134274696Y-58635872D01*
X134274692Y-58635872D01*
X134184458Y-58655052D01*
X134087768Y-58675604D01*
X134081738Y-58678289D01*
X134081737Y-58678289D01*
X133913190Y-58753331D01*
X133913188Y-58753332D01*
X133907160Y-58756016D01*
X133901819Y-58759896D01*
X133901818Y-58759897D01*
X133823907Y-58816503D01*
X133747216Y-58872222D01*
X133614928Y-59019143D01*
X133516077Y-59190357D01*
X133454984Y-59378382D01*
X133454294Y-59384943D01*
X133454294Y-59384945D01*
X133443409Y-59488516D01*
X133434319Y-59575000D01*
X100140500Y-59575000D01*
X100140500Y-57035000D01*
X133434319Y-57035000D01*
X133435009Y-57041565D01*
X133450723Y-57191072D01*
X133454984Y-57231618D01*
X133516077Y-57419643D01*
X133614928Y-57590857D01*
X133747216Y-57737778D01*
X133907159Y-57853984D01*
X133913187Y-57856668D01*
X133913189Y-57856669D01*
X134081737Y-57931711D01*
X134087768Y-57934396D01*
X134184458Y-57954948D01*
X134274692Y-57974128D01*
X134274696Y-57974128D01*
X134281149Y-57975500D01*
X134478851Y-57975500D01*
X134485304Y-57974128D01*
X134485308Y-57974128D01*
X134575542Y-57954948D01*
X134672232Y-57934396D01*
X134678263Y-57931711D01*
X134846811Y-57856669D01*
X134846813Y-57856668D01*
X134852841Y-57853984D01*
X135012784Y-57737778D01*
X135145072Y-57590857D01*
X135243923Y-57419643D01*
X135305016Y-57231618D01*
X135309278Y-57191072D01*
X135324991Y-57041565D01*
X135325681Y-57035000D01*
X135324677Y-57025450D01*
X135305706Y-56844945D01*
X135305706Y-56844943D01*
X135305016Y-56838382D01*
X135243923Y-56650357D01*
X135145072Y-56479143D01*
X135052070Y-56375853D01*
X135017206Y-56337133D01*
X135017205Y-56337132D01*
X135012784Y-56332222D01*
X134852841Y-56216016D01*
X134846813Y-56213332D01*
X134846811Y-56213331D01*
X134678263Y-56138289D01*
X134678262Y-56138289D01*
X134672232Y-56135604D01*
X134575542Y-56115052D01*
X134485308Y-56095872D01*
X134485304Y-56095872D01*
X134478851Y-56094500D01*
X134281149Y-56094500D01*
X134274696Y-56095872D01*
X134274692Y-56095872D01*
X134184459Y-56115052D01*
X134087768Y-56135604D01*
X134081738Y-56138289D01*
X134081737Y-56138289D01*
X133913190Y-56213331D01*
X133913188Y-56213332D01*
X133907160Y-56216016D01*
X133747216Y-56332222D01*
X133742795Y-56337132D01*
X133742794Y-56337133D01*
X133707931Y-56375853D01*
X133614928Y-56479143D01*
X133516077Y-56650357D01*
X133454984Y-56838382D01*
X133454294Y-56844943D01*
X133454294Y-56844945D01*
X133435323Y-57025450D01*
X133434319Y-57035000D01*
X100140500Y-57035000D01*
X100140500Y-50266500D01*
X100160502Y-50198379D01*
X100214158Y-50151886D01*
X100266500Y-50140500D01*
X146514915Y-50140500D01*
X146519951Y-50141163D01*
X146533978Y-50141163D01*
X146550000Y-50145456D01*
X146568496Y-50140500D01*
X146606707Y-50130262D01*
X146606708Y-50130261D01*
X146622728Y-50125969D01*
X146675969Y-50072728D01*
X146679244Y-50060506D01*
X146728012Y-50014006D01*
X146785747Y-50000000D01*
X157264253Y-50000000D01*
X157332374Y-50020002D01*
G37*
%TD.AperFunction*%
%TD*%
M02*
