M48
; DRILL file {KiCad 6.0.11+dfsg-1} date So 22 Okt 2023 17:12:36 CEST
; FORMAT={-:-/ absolute / metric / decimal}
; #@! TF.CreationDate,2023-10-22T17:12:36+02:00
; #@! TF.GenerationSoftware,Kicad,Pcbnew,6.0.11+dfsg-1
; #@! TF.FileFunction,Plated,1,2,PTH
FMAT,2
METRIC
; #@! TA.AperFunction,Plated,PTH,ViaDrill
T1C0.400
; #@! TA.AperFunction,Plated,PTH,ComponentDrill
T2C1.000
; #@! TA.AperFunction,Plated,PTH,ComponentDrill
T3C1.100
; #@! TA.AperFunction,Plated,PTH,ComponentDrill
T4C1.300
; #@! TA.AperFunction,Plated,PTH,ComponentDrill
T5C2.300
; #@! TA.AperFunction,Plated,PTH,ComponentDrill
T6C4.100
%
G90
G05
T1
X120.21Y-69.05
X121.05Y-84.39
X121.2Y-68.54
X121.55Y-88.115
X121.55Y-90.655
X121.55Y-99.445
X121.55Y-101.985
X124.9Y-73.4
X128.13Y-85.75
X128.13Y-88.66
X128.13Y-89.98
X129.21Y-89.98
X129.37Y-63.49
X132.19Y-81.94
X132.75Y-115.75
X140.5Y-115.75
X141.09Y-81.67
X143.0Y-87.95
X144.838Y-78.25
X144.838Y-88.25
X152.584Y-65.991
X152.584Y-68.531
X152.584Y-71.071
X152.584Y-73.611
X155.981Y-59.792
X157.251Y-59.284
X162.408Y-57.455
X162.5Y-115.75
X162.534Y-69.786
X168.884Y-67.261
X168.884Y-69.801
X168.884Y-72.341
X168.884Y-74.881
T2
X140.728Y-55.737
X143.268Y-55.737
X150.6Y-104.0
X153.14Y-104.0
X155.68Y-104.0
T3
X134.38Y-54.495
X134.38Y-57.035
X134.38Y-59.575
X134.38Y-62.115
X134.38Y-64.655
X134.38Y-67.195
X134.38Y-69.735
X134.38Y-72.275
X134.38Y-74.815
X134.38Y-77.355
X134.38Y-79.895
X134.38Y-82.435
X134.38Y-84.975
X134.38Y-87.515
X149.62Y-54.495
X149.62Y-57.035
X149.62Y-59.575
X149.62Y-62.115
X149.62Y-64.655
X149.62Y-67.195
X149.62Y-69.735
X149.62Y-72.275
X149.62Y-74.815
X149.62Y-77.355
X149.62Y-79.895
X149.62Y-82.435
X149.62Y-84.975
X149.62Y-87.515
T4
X105.2Y-75.1
X105.2Y-77.6
X105.2Y-80.1
X105.2Y-82.6
X105.2Y-85.1
X105.2Y-87.6
X105.2Y-90.1
X105.2Y-92.6
X105.2Y-95.1
X105.2Y-97.6
X105.2Y-101.1
X105.2Y-104.8
X107.7Y-75.1
X107.7Y-77.6
X107.7Y-80.1
X107.7Y-82.6
X107.7Y-85.1
X107.7Y-87.6
X107.7Y-90.1
X107.7Y-92.6
X107.7Y-95.1
X107.7Y-97.6
X107.7Y-101.1
X107.7Y-104.8
X110.2Y-75.1
X110.2Y-77.6
X110.2Y-80.1
X110.2Y-82.6
X110.2Y-85.1
X110.2Y-87.6
X110.2Y-90.1
X110.2Y-92.6
X110.2Y-95.1
X110.2Y-97.6
X110.2Y-101.1
X110.2Y-104.8
X112.7Y-75.1
X112.7Y-77.6
X112.7Y-80.1
X112.7Y-82.6
X112.7Y-85.1
X112.7Y-87.6
X112.7Y-90.1
X112.7Y-92.6
X112.7Y-95.1
X112.7Y-97.6
X112.7Y-101.1
X112.7Y-104.8
T5
X113.7Y-68.65
X113.7Y-111.25
T6
X109.85Y-64.55
X109.85Y-115.35
T0
M30
