%TF.GenerationSoftware,KiCad,Pcbnew,6.0.7+dfsg-1build1*%
%TF.CreationDate,2023-01-16T17:35:33+01:00*%
%TF.ProjectId,JoeMBMS_V2.2,4a6f654d-424d-4535-9f56-322e322e6b69,rev?*%
%TF.SameCoordinates,Original*%
%TF.FileFunction,Soldermask,Bot*%
%TF.FilePolarity,Negative*%
%FSLAX46Y46*%
G04 Gerber Fmt 4.6, Leading zero omitted, Abs format (unit mm)*
G04 Created by KiCad (PCBNEW 6.0.7+dfsg-1build1) date 2023-01-16 17:35:33*
%MOMM*%
%LPD*%
G01*
G04 APERTURE LIST*
%ADD10R,1.800000X1.800000*%
%ADD11C,1.800000*%
%ADD12R,1.950000X1.950000*%
%ADD13C,1.950000*%
%ADD14C,1.150000*%
%ADD15C,2.050000*%
%ADD16R,1.600000X1.600000*%
%ADD17C,1.600000*%
%ADD18R,1.700000X1.700000*%
%ADD19O,1.700000X1.700000*%
G04 APERTURE END LIST*
D10*
%TO.C,U3*%
X150600000Y-104000000D03*
D11*
X153140000Y-104000000D03*
X155680000Y-104000000D03*
%TD*%
D12*
%TO.C,J1*%
X112700000Y-75100000D03*
D13*
X110200000Y-75100000D03*
X107700000Y-75100000D03*
X105200000Y-75100000D03*
X112700000Y-77600000D03*
X110200000Y-77600000D03*
X107700000Y-77600000D03*
X105200000Y-77600000D03*
X112700000Y-80100000D03*
X110200000Y-80100000D03*
X107700000Y-80100000D03*
X105200000Y-80100000D03*
X112700000Y-82600000D03*
X110200000Y-82600000D03*
X107700000Y-82600000D03*
X105200000Y-82600000D03*
X112700000Y-85100000D03*
X110200000Y-85100000D03*
X107700000Y-85100000D03*
X105200000Y-85100000D03*
X112700000Y-87600000D03*
X110200000Y-87600000D03*
X107700000Y-87600000D03*
X105200000Y-87600000D03*
X112700000Y-90100000D03*
X110200000Y-90100000D03*
X107700000Y-90100000D03*
X105200000Y-90100000D03*
X112700000Y-92600000D03*
X110200000Y-92600000D03*
X107700000Y-92600000D03*
X105200000Y-92600000D03*
X112700000Y-95100000D03*
X110200000Y-95100000D03*
X107700000Y-95100000D03*
X105200000Y-95100000D03*
X112700000Y-97600000D03*
X110200000Y-97600000D03*
X107700000Y-97600000D03*
X105200000Y-97600000D03*
X112700000Y-101100000D03*
X110200000Y-101100000D03*
X107700000Y-101100000D03*
X105200000Y-101100000D03*
X112700000Y-104800000D03*
X110200000Y-104800000D03*
X107700000Y-104800000D03*
X105200000Y-104800000D03*
D14*
X113700000Y-68650000D03*
X113700000Y-111250000D03*
D15*
X109850000Y-64550000D03*
X109850000Y-115350000D03*
%TD*%
D16*
%TO.C,U1*%
X134380000Y-54490000D03*
D17*
X134380000Y-57030000D03*
X134380000Y-59570000D03*
X134380000Y-62110000D03*
X134380000Y-64650000D03*
X134380000Y-67190000D03*
X134380000Y-69730000D03*
X134380000Y-72270000D03*
X134380000Y-74810000D03*
X134380000Y-77350000D03*
X134380000Y-79890000D03*
X134380000Y-82430000D03*
X134380000Y-84970000D03*
X134380000Y-87510000D03*
X149620000Y-87510000D03*
X149620000Y-84970000D03*
X149620000Y-82430000D03*
X149620000Y-79890000D03*
X149620000Y-77350000D03*
X149620000Y-74810000D03*
X149620000Y-72270000D03*
X149620000Y-69730000D03*
X149620000Y-67190000D03*
X149620000Y-64650000D03*
X149620000Y-62110000D03*
X149620000Y-59570000D03*
X149620000Y-57030000D03*
X149620000Y-54490000D03*
%TD*%
D18*
%TO.C,REF\u002A\u002A*%
X139550000Y-53775000D03*
D19*
X142090000Y-53775000D03*
%TD*%
M02*
