%TF.GenerationSoftware,KiCad,Pcbnew,6.0.7+dfsg-1build1*%
%TF.CreationDate,2023-01-16T17:35:32+01:00*%
%TF.ProjectId,JoeMBMS_V2.2,4a6f654d-424d-4535-9f56-322e322e6b69,rev?*%
%TF.SameCoordinates,Original*%
%TF.FileFunction,Copper,L2,Bot*%
%TF.FilePolarity,Positive*%
%FSLAX46Y46*%
G04 Gerber Fmt 4.6, Leading zero omitted, Abs format (unit mm)*
G04 Created by KiCad (PCBNEW 6.0.7+dfsg-1build1) date 2023-01-16 17:35:32*
%MOMM*%
%LPD*%
G01*
G04 APERTURE LIST*
%TA.AperFunction,ComponentPad*%
%ADD10R,1.800000X1.800000*%
%TD*%
%TA.AperFunction,ComponentPad*%
%ADD11C,1.800000*%
%TD*%
%TA.AperFunction,ComponentPad*%
%ADD12R,1.950000X1.950000*%
%TD*%
%TA.AperFunction,ComponentPad*%
%ADD13C,1.950000*%
%TD*%
%TA.AperFunction,ComponentPad*%
%ADD14C,1.150000*%
%TD*%
%TA.AperFunction,ComponentPad*%
%ADD15C,2.050000*%
%TD*%
%TA.AperFunction,ComponentPad*%
%ADD16R,1.600000X1.600000*%
%TD*%
%TA.AperFunction,ComponentPad*%
%ADD17C,1.600000*%
%TD*%
%TA.AperFunction,ComponentPad*%
%ADD18R,1.700000X1.700000*%
%TD*%
%TA.AperFunction,ComponentPad*%
%ADD19O,1.700000X1.700000*%
%TD*%
%TA.AperFunction,ViaPad*%
%ADD20C,0.800000*%
%TD*%
%TA.AperFunction,Conductor*%
%ADD21C,0.250000*%
%TD*%
G04 APERTURE END LIST*
D10*
%TO.P,U3,1,IN*%
%TO.N,+12V*%
X150600000Y-104000000D03*
D11*
%TO.P,U3,2,GND*%
%TO.N,GND*%
X153140000Y-104000000D03*
%TO.P,U3,3,OUT*%
%TO.N,Teensy_VUSB*%
X155680000Y-104000000D03*
%TD*%
D12*
%TO.P,J1,A1,A1*%
%TO.N,J1_OUT3*%
X112700000Y-75100000D03*
D13*
%TO.P,J1,A2,A2*%
%TO.N,Teensy_RX3*%
X110200000Y-75100000D03*
%TO.P,J1,A3,A3*%
%TO.N,GND*%
X107700000Y-75100000D03*
%TO.P,J1,A4,A4*%
%TO.N,J1_CANL*%
X105200000Y-75100000D03*
%TO.P,J1,B1,B1*%
%TO.N,J1_OUT4*%
X112700000Y-77600000D03*
%TO.P,J1,B2,B2*%
%TO.N,Teensy_TX3*%
X110200000Y-77600000D03*
%TO.P,J1,B3,B3*%
%TO.N,Teensy_VUSB*%
X107700000Y-77600000D03*
%TO.P,J1,B4,B4*%
%TO.N,J1_CANH*%
X105200000Y-77600000D03*
%TO.P,J1,C1,C1*%
%TO.N,J1_OUT2*%
X112700000Y-80100000D03*
%TO.P,J1,C2,C2*%
%TO.N,J1_RX2*%
X110200000Y-80100000D03*
%TO.P,J1,C3,C3*%
%TO.N,GND*%
X107700000Y-80100000D03*
%TO.P,J1,C4,C4*%
%TO.N,J1_CANH*%
X105200000Y-80100000D03*
%TO.P,J1,D1,D1*%
%TO.N,J1_OUT1*%
X112700000Y-82600000D03*
%TO.P,J1,D2,D2*%
%TO.N,J1_TX2*%
X110200000Y-82600000D03*
%TO.P,J1,D3,D3*%
%TO.N,Teensy_VUSB*%
X107700000Y-82600000D03*
%TO.P,J1,D4,D4*%
%TO.N,J1_CAN_T_2*%
X105200000Y-82600000D03*
%TO.P,J1,E1,E1*%
%TO.N,J1_OUT8*%
X112700000Y-85100000D03*
%TO.P,J1,E2,E2*%
%TO.N,J1_ASEN1*%
X110200000Y-85100000D03*
%TO.P,J1,E3,E3*%
%TO.N,GND*%
X107700000Y-85100000D03*
%TO.P,J1,E4,E4*%
%TO.N,Teensy_VUSB*%
X105200000Y-85100000D03*
%TO.P,J1,F1,F1*%
%TO.N,J1_OUT7*%
X112700000Y-87600000D03*
%TO.P,J1,F2,F2*%
%TO.N,J1_ASEN2*%
X110200000Y-87600000D03*
%TO.P,J1,F3,F3*%
%TO.N,Teensy_VUSB*%
X107700000Y-87600000D03*
%TO.P,J1,F4,F4*%
%TO.N,Teensy_D-*%
X105200000Y-87600000D03*
%TO.P,J1,G1,G1*%
%TO.N,J1_OUT5*%
X112700000Y-90100000D03*
%TO.P,J1,G2,G2*%
%TO.N,J1_IN4*%
X110200000Y-90100000D03*
%TO.P,J1,G3,G3*%
%TO.N,unconnected-(J1-PadG3)*%
X107700000Y-90100000D03*
%TO.P,J1,G4,G4*%
%TO.N,Teensy_D+*%
X105200000Y-90100000D03*
%TO.P,J1,H1,H1*%
%TO.N,J1_OUT6*%
X112700000Y-92600000D03*
%TO.P,J1,H2,H2*%
%TO.N,J1_IN3*%
X110200000Y-92600000D03*
%TO.P,J1,H3,H3*%
%TO.N,unconnected-(J1-PadH3)*%
X107700000Y-92600000D03*
%TO.P,J1,H4,H4*%
%TO.N,GND*%
X105200000Y-92600000D03*
%TO.P,J1,J1,J1*%
%TO.N,unconnected-(J1-PadJ1)*%
X112700000Y-95100000D03*
%TO.P,J1,J2,J2*%
%TO.N,J1_IN1*%
X110200000Y-95100000D03*
%TO.P,J1,J3,J3*%
%TO.N,unconnected-(J1-PadJ3)*%
X107700000Y-95100000D03*
%TO.P,J1,J4,J4*%
%TO.N,unconnected-(J1-PadJ4)*%
X105200000Y-95100000D03*
%TO.P,J1,K1,K1*%
%TO.N,unconnected-(J1-PadK1)*%
X112700000Y-97600000D03*
%TO.P,J1,K2,K2*%
%TO.N,J1_IN2*%
X110200000Y-97600000D03*
%TO.P,J1,K3,K3*%
%TO.N,unconnected-(J1-PadK3)*%
X107700000Y-97600000D03*
%TO.P,J1,K4,K4*%
%TO.N,unconnected-(J1-PadK4)*%
X105200000Y-97600000D03*
%TO.P,J1,L1,L1*%
%TO.N,J1_12V*%
X112700000Y-101100000D03*
%TO.P,J1,L2,L2*%
%TO.N,unconnected-(J1-PadL2)*%
X110200000Y-101100000D03*
%TO.P,J1,L3,L3*%
%TO.N,unconnected-(J1-PadL3)*%
X107700000Y-101100000D03*
%TO.P,J1,L4,L4*%
%TO.N,GND*%
X105200000Y-101100000D03*
%TO.P,J1,M1,M1*%
%TO.N,J1_12V*%
X112700000Y-104800000D03*
%TO.P,J1,M2,M2*%
%TO.N,unconnected-(J1-PadM2)*%
X110200000Y-104800000D03*
%TO.P,J1,M3,M3*%
%TO.N,unconnected-(J1-PadM3)*%
X107700000Y-104800000D03*
%TO.P,J1,M4,M4*%
%TO.N,GND*%
X105200000Y-104800000D03*
D14*
%TO.P,J1,MH1*%
%TO.N,N/C*%
X113700000Y-68650000D03*
%TO.P,J1,MH2*%
X113700000Y-111250000D03*
D15*
%TO.P,J1,MH3*%
X109850000Y-64550000D03*
%TO.P,J1,MH4*%
X109850000Y-115350000D03*
%TD*%
D16*
%TO.P,U1,1,GND*%
%TO.N,GND*%
X134380000Y-54490000D03*
D17*
%TO.P,U1,2,0_RX1_Touch*%
%TO.N,unconnected-(U1-Pad2)*%
X134380000Y-57030000D03*
%TO.P,U1,3,1_TX1_Touch*%
%TO.N,unconnected-(U1-Pad3)*%
X134380000Y-59570000D03*
%TO.P,U1,4,2*%
%TO.N,unconnected-(U1-Pad4)*%
X134380000Y-62110000D03*
%TO.P,U1,5,3_TX_PWM*%
%TO.N,Teensy_TX*%
X134380000Y-64650000D03*
%TO.P,U1,6,4_RX_PWM*%
%TO.N,Teensy_RX*%
X134380000Y-67190000D03*
%TO.P,U1,7,5_TX1_PWM*%
%TO.N,Teensy_OUT7*%
X134380000Y-69730000D03*
%TO.P,U1,8,6_PWM*%
%TO.N,Teensy_OUT8*%
X134380000Y-72270000D03*
%TO.P,U1,9,7_RX3_DOUT*%
%TO.N,Teensy_RX3*%
X134380000Y-74810000D03*
%TO.P,U1,10,8_TX3_DIN*%
%TO.N,Teensy_TX3*%
X134380000Y-77350000D03*
%TO.P,U1,11,9_RX2_CS_PWM*%
%TO.N,J1_RX2*%
X134380000Y-79890000D03*
%TO.P,U1,12,10_TX2_CS_PWM*%
%TO.N,J1_TX2*%
X134380000Y-82430000D03*
%TO.P,U1,13,11_DOUT*%
%TO.N,Teensy_OUT1*%
X134380000Y-84970000D03*
%TO.P,U1,14,12_DIN*%
%TO.N,Teensy_OUT2*%
X134380000Y-87510000D03*
%TO.P,U1,20,13_LED_SCK*%
%TO.N,unconnected-(U1-Pad20)*%
X149620000Y-87510000D03*
%TO.P,U1,21,14_A0_SCK*%
%TO.N,Teensy_ASEN2*%
X149620000Y-84970000D03*
%TO.P,U1,22,15_A1_CS_Touch*%
%TO.N,Teensy_ASEN1*%
X149620000Y-82430000D03*
%TO.P,U1,23,16_A2_SCL0_Touch*%
%TO.N,Teensy_IN2*%
X149620000Y-79890000D03*
%TO.P,U1,24,17_A3_SDA0_Touch*%
%TO.N,Teensy_IN1*%
X149620000Y-77350000D03*
%TO.P,U1,25,18_A4_SDA0_Touch*%
%TO.N,Teensy_IN3*%
X149620000Y-74810000D03*
%TO.P,U1,26,19_A5_SCL0_Touch*%
%TO.N,Teensy_IN4*%
X149620000Y-72270000D03*
%TO.P,U1,27,20_A6_CS_PWM*%
%TO.N,Teensy_OUT3*%
X149620000Y-69730000D03*
%TO.P,U1,28,21_A7_RX1_CS_PWM*%
%TO.N,Teensy_OUT4*%
X149620000Y-67190000D03*
%TO.P,U1,29,22_A8_Touch_PWM*%
%TO.N,Teensy_OUT5*%
X149620000Y-64650000D03*
%TO.P,U1,30,23_A9_Touch_PWM*%
%TO.N,Teensy_OUT6*%
X149620000Y-62110000D03*
%TO.P,U1,31,3.3V*%
%TO.N,+3V3*%
X149620000Y-59570000D03*
%TO.P,U1,32,AGND*%
%TO.N,GND*%
X149620000Y-57030000D03*
%TO.P,U1,33,Vin*%
%TO.N,Teensy_VUSB*%
X149620000Y-54490000D03*
%TD*%
D18*
%TO.P,REF\u002A\u002A,1*%
%TO.N,Teensy_D+*%
X139550000Y-53775000D03*
D19*
%TO.P,REF\u002A\u002A,2*%
%TO.N,Teensy_D-*%
X142090000Y-53775000D03*
%TD*%
D20*
%TO.N,GND*%
X162500000Y-115750000D03*
X143000000Y-87950000D03*
X121550000Y-88115000D03*
X132750000Y-115750000D03*
X142000000Y-58200000D03*
X143000000Y-78550000D03*
X152500000Y-76135000D03*
X152500000Y-78675000D03*
X140500000Y-115750000D03*
X152500000Y-71055000D03*
X121550000Y-90655000D03*
X162450000Y-74850000D03*
X124900000Y-73400000D03*
X152500000Y-73595000D03*
X121550000Y-96365000D03*
X121550000Y-98905000D03*
%TO.N,Teensy_OUT5*%
X154750000Y-83550000D03*
%TO.N,Teensy_OUT6*%
X155700000Y-83550000D03*
%TO.N,Teensy_OUT1*%
X128060000Y-82100000D03*
%TO.N,Teensy_OUT2*%
X126790000Y-82100000D03*
X132400000Y-84950000D03*
%TO.N,J1_CANH*%
X141100000Y-64600000D03*
%TO.N,J1_IN4*%
X168800000Y-72325000D03*
%TO.N,J1_CANL*%
X141100000Y-66100000D03*
%TO.N,J1_IN3*%
X168800000Y-74865000D03*
%TO.N,J1_IN2*%
X168800000Y-79945000D03*
%TO.N,J1_IN1*%
X168800000Y-77405000D03*
%TO.N,J1_ASEN2*%
X144837500Y-88250000D03*
%TO.N,J1_ASEN1*%
X144837500Y-78250000D03*
%TD*%
D21*
%TO.N,Teensy_TX3*%
X134380000Y-77350000D02*
X133248630Y-77350000D01*
X115425991Y-76650011D02*
X113276001Y-78800001D01*
X113276001Y-78800001D02*
X111400001Y-78800001D01*
X133248630Y-77350000D02*
X132548641Y-76650011D01*
X132548641Y-76650011D02*
X115425991Y-76650011D01*
X111400001Y-78800001D02*
X110200000Y-77600000D01*
%TO.N,Teensy_RX3*%
X134380000Y-74810000D02*
X132889999Y-76300001D01*
X132889999Y-76300001D02*
X111400001Y-76300001D01*
X111400001Y-76300001D02*
X110200000Y-75100000D01*
%TO.N,Teensy_OUT5*%
X149620000Y-64650000D02*
X154750000Y-69780000D01*
X154750000Y-69780000D02*
X154750000Y-83550000D01*
%TO.N,Teensy_OUT6*%
X149620000Y-62110000D02*
X155600000Y-68090000D01*
X155700000Y-83550000D02*
X155700000Y-68190000D01*
X155700000Y-68190000D02*
X155600000Y-68090000D01*
%TO.N,Teensy_OUT1*%
X131510000Y-82100000D02*
X134380000Y-84970000D01*
X128060000Y-82100000D02*
X131510000Y-82100000D01*
%TO.N,Teensy_OUT2*%
X131325001Y-82725001D02*
X132400000Y-83800000D01*
X132400000Y-83800000D02*
X132400000Y-84950000D01*
X127415001Y-82725001D02*
X131325001Y-82725001D01*
X126790000Y-82100000D02*
X127415001Y-82725001D01*
%TO.N,J1_CANH*%
X103999999Y-74523999D02*
X103999999Y-76399999D01*
X137484999Y-68215001D02*
X119334999Y-68215001D01*
X106473998Y-72050000D02*
X103999999Y-74523999D01*
X141100000Y-64600000D02*
X137484999Y-68215001D01*
X115500000Y-72050000D02*
X106473998Y-72050000D01*
X119334999Y-68215001D02*
X115500000Y-72050000D01*
X103999999Y-76399999D02*
X105200000Y-77600000D01*
%TO.N,J1_IN4*%
X111499999Y-91399999D02*
X149725001Y-91399999D01*
X110200000Y-90100000D02*
X111499999Y-91399999D01*
X149725001Y-91399999D02*
X168800000Y-72325000D01*
%TO.N,J1_CANL*%
X119339989Y-68704999D02*
X115644978Y-72400010D01*
X141100000Y-66100000D02*
X138495001Y-68704999D01*
X106618976Y-72400010D02*
X105200000Y-73818986D01*
X138495001Y-68704999D02*
X119339989Y-68704999D01*
X115644978Y-72400010D02*
X106618976Y-72400010D01*
X105200000Y-73818986D02*
X105200000Y-75100000D01*
%TO.N,J1_IN3*%
X111400001Y-93800001D02*
X113199999Y-93800001D01*
X166885000Y-74865000D02*
X168800000Y-74865000D01*
X115100000Y-91900000D02*
X149850000Y-91900000D01*
X110200000Y-92600000D02*
X111400001Y-93800001D01*
X113199999Y-93800001D02*
X115100000Y-91900000D01*
X149850000Y-91900000D02*
X166885000Y-74865000D01*
%TO.N,J1_IN2*%
X115794968Y-92600020D02*
X150499980Y-92600020D01*
X114700000Y-93694988D02*
X115794968Y-92600020D01*
X150499980Y-92600020D02*
X163155000Y-79945000D01*
X110200000Y-97600000D02*
X111400001Y-98800001D01*
X113276001Y-98800001D02*
X114700000Y-97376002D01*
X163155000Y-79945000D02*
X168800000Y-79945000D01*
X111400001Y-98800001D02*
X113276001Y-98800001D01*
X114700000Y-97376002D02*
X114700000Y-93694988D01*
%TO.N,J1_IN1*%
X114150000Y-95426002D02*
X114150000Y-93750000D01*
X165195000Y-77405000D02*
X168800000Y-77405000D01*
X114150000Y-93750000D02*
X115649990Y-92250010D01*
X115649990Y-92250010D02*
X150349990Y-92250010D01*
X110200000Y-95100000D02*
X111400001Y-96300001D01*
X111400001Y-96300001D02*
X113276001Y-96300001D01*
X150349990Y-92250010D02*
X165195000Y-77405000D01*
X113276001Y-96300001D02*
X114150000Y-95426002D01*
%TO.N,J1_TX2*%
X114075000Y-82925000D02*
X113199999Y-83800001D01*
X113199999Y-83800001D02*
X111400001Y-83800001D01*
X111400001Y-83800001D02*
X110200000Y-82600000D01*
X133354999Y-81404999D02*
X133354999Y-80004999D01*
X116220980Y-78850010D02*
X114075000Y-80995990D01*
X134380000Y-82430000D02*
X133354999Y-81404999D01*
X133354999Y-80004999D02*
X132200010Y-78850010D01*
X114075000Y-80995990D02*
X114075000Y-82925000D01*
X132200010Y-78850010D02*
X116220980Y-78850010D01*
%TO.N,J1_RX2*%
X132990000Y-78500000D02*
X116076002Y-78500000D01*
X134380000Y-79890000D02*
X132990000Y-78500000D01*
X116076002Y-78500000D02*
X113276001Y-81300001D01*
X113276001Y-81300001D02*
X111400001Y-81300001D01*
X111400001Y-81300001D02*
X110200000Y-80100000D01*
%TO.N,J1_ASEN2*%
X144837500Y-88250000D02*
X142932511Y-86345011D01*
X142927514Y-86350008D02*
X115725994Y-86350008D01*
X115725994Y-86350008D02*
X113276001Y-88800001D01*
X113276001Y-88800001D02*
X111400001Y-88800001D01*
X111400001Y-88800001D02*
X110200000Y-87600000D01*
X142932511Y-86345011D02*
X142927514Y-86350008D01*
%TO.N,J1_ASEN1*%
X143279997Y-85995001D02*
X115304999Y-85995001D01*
X113576002Y-86000000D02*
X113176003Y-86399999D01*
X111499999Y-86399999D02*
X110200000Y-85100000D01*
X113176003Y-86399999D02*
X111499999Y-86399999D01*
X115304999Y-85995001D02*
X115300000Y-86000000D01*
X115300000Y-86000000D02*
X113576002Y-86000000D01*
X144212499Y-78875001D02*
X144212499Y-85062499D01*
X144837500Y-78250000D02*
X144212499Y-78875001D01*
X144212499Y-85062499D02*
X143279997Y-85995001D01*
%TO.N,Teensy_D+*%
X133155011Y-65675001D02*
X135699999Y-65675001D01*
X105200000Y-90100000D02*
X103299983Y-88199983D01*
X139550000Y-61750000D02*
X139550000Y-53775000D01*
X136875000Y-64425000D02*
X139550000Y-61750000D01*
X115485024Y-71075000D02*
X119110024Y-67450000D01*
X103299983Y-74205029D02*
X106385012Y-71120000D01*
X131380012Y-67450000D02*
X133155011Y-65675001D01*
X136875000Y-64500000D02*
X136875000Y-64425000D01*
X135699999Y-65675001D02*
X136875000Y-64500000D01*
X106385012Y-71120000D02*
X115440038Y-71120000D01*
X103299983Y-88199983D02*
X103299983Y-74205029D01*
X119110024Y-67450000D02*
X131380012Y-67450000D01*
%TO.N,Teensy_D-*%
X140175000Y-61929998D02*
X140175000Y-56310000D01*
X103649989Y-74350011D02*
X106350000Y-71650000D01*
X133160001Y-66164999D02*
X135939999Y-66164999D01*
X131460009Y-67864991D02*
X133160001Y-66164999D01*
X103649989Y-86049989D02*
X103649989Y-74350011D01*
X140175000Y-56310000D02*
X141995000Y-54490000D01*
X115405012Y-71650000D02*
X119190021Y-67864991D01*
X106350000Y-71650000D02*
X115405012Y-71650000D01*
X119190021Y-67864991D02*
X131460009Y-67864991D01*
X105200000Y-87600000D02*
X103649989Y-86049989D01*
X135939999Y-66164999D02*
X140175000Y-61929998D01*
%TD*%
%TA.AperFunction,Conductor*%
%TO.N,GND*%
G36*
X157332374Y-50020002D02*
G01*
X157370663Y-50060159D01*
X157374031Y-50072728D01*
X157427272Y-50125969D01*
X157443292Y-50130261D01*
X157443293Y-50130262D01*
X157483978Y-50141163D01*
X157500000Y-50145456D01*
X157516022Y-50141163D01*
X157530049Y-50141163D01*
X157535085Y-50140500D01*
X172733500Y-50140500D01*
X172801621Y-50160502D01*
X172848114Y-50214158D01*
X172859500Y-50266500D01*
X172859500Y-129733500D01*
X172839498Y-129801621D01*
X172785842Y-129848114D01*
X172733500Y-129859500D01*
X157535085Y-129859500D01*
X157530049Y-129858837D01*
X157516022Y-129858837D01*
X157500000Y-129854544D01*
X157483978Y-129858837D01*
X157481504Y-129859500D01*
X157443293Y-129869738D01*
X157443292Y-129869739D01*
X157427272Y-129874031D01*
X157374031Y-129927272D01*
X157370756Y-129939494D01*
X157321988Y-129985994D01*
X157264253Y-130000000D01*
X146785747Y-130000000D01*
X146717626Y-129979998D01*
X146679337Y-129939841D01*
X146675969Y-129927272D01*
X146622728Y-129874031D01*
X146606704Y-129869737D01*
X146606703Y-129869737D01*
X146568496Y-129859500D01*
X146566022Y-129858837D01*
X146550000Y-129854544D01*
X146533978Y-129858837D01*
X146519951Y-129858837D01*
X146514915Y-129859500D01*
X100266500Y-129859500D01*
X100198379Y-129839498D01*
X100151886Y-129785842D01*
X100140500Y-129733500D01*
X100140500Y-115350000D01*
X107524521Y-115350000D01*
X107544416Y-115653536D01*
X107603760Y-115951878D01*
X107701538Y-116239922D01*
X107836076Y-116512739D01*
X108005073Y-116765662D01*
X108007787Y-116768756D01*
X108007791Y-116768762D01*
X108202929Y-116991273D01*
X108205638Y-116994362D01*
X108208727Y-116997071D01*
X108431238Y-117192209D01*
X108431244Y-117192213D01*
X108434338Y-117194927D01*
X108687261Y-117363924D01*
X108690960Y-117365748D01*
X108690965Y-117365751D01*
X108830952Y-117434784D01*
X108960078Y-117498462D01*
X108963983Y-117499788D01*
X108963984Y-117499788D01*
X109244215Y-117594914D01*
X109244219Y-117594915D01*
X109248122Y-117596240D01*
X109252161Y-117597043D01*
X109252167Y-117597045D01*
X109542421Y-117654780D01*
X109542424Y-117654780D01*
X109546464Y-117655584D01*
X109550575Y-117655853D01*
X109550579Y-117655854D01*
X109771987Y-117670366D01*
X109771996Y-117670366D01*
X109774036Y-117670500D01*
X109925964Y-117670500D01*
X109928004Y-117670366D01*
X109928013Y-117670366D01*
X110149421Y-117655854D01*
X110149425Y-117655853D01*
X110153536Y-117655584D01*
X110157576Y-117654780D01*
X110157579Y-117654780D01*
X110447833Y-117597045D01*
X110447839Y-117597043D01*
X110451878Y-117596240D01*
X110455781Y-117594915D01*
X110455785Y-117594914D01*
X110736016Y-117499788D01*
X110736017Y-117499788D01*
X110739922Y-117498462D01*
X110869048Y-117434784D01*
X111009035Y-117365751D01*
X111009040Y-117365748D01*
X111012739Y-117363924D01*
X111265662Y-117194927D01*
X111268756Y-117192213D01*
X111268762Y-117192209D01*
X111491273Y-116997071D01*
X111494362Y-116994362D01*
X111497071Y-116991273D01*
X111692209Y-116768762D01*
X111692213Y-116768756D01*
X111694927Y-116765662D01*
X111863924Y-116512740D01*
X111998462Y-116239922D01*
X112096240Y-115951878D01*
X112155584Y-115653536D01*
X112175479Y-115350000D01*
X112155584Y-115046464D01*
X112096240Y-114748122D01*
X111998462Y-114460078D01*
X111863924Y-114187261D01*
X111694927Y-113934338D01*
X111692213Y-113931244D01*
X111692209Y-113931238D01*
X111497071Y-113708727D01*
X111494362Y-113705638D01*
X111491273Y-113702929D01*
X111268762Y-113507791D01*
X111268756Y-113507787D01*
X111265662Y-113505073D01*
X111012739Y-113336076D01*
X111009040Y-113334252D01*
X111009035Y-113334249D01*
X110869048Y-113265216D01*
X110739922Y-113201538D01*
X110736016Y-113200212D01*
X110455785Y-113105086D01*
X110455781Y-113105085D01*
X110451878Y-113103760D01*
X110447839Y-113102957D01*
X110447833Y-113102955D01*
X110157579Y-113045220D01*
X110157576Y-113045220D01*
X110153536Y-113044416D01*
X110149425Y-113044147D01*
X110149421Y-113044146D01*
X109928013Y-113029634D01*
X109928004Y-113029634D01*
X109925964Y-113029500D01*
X109774036Y-113029500D01*
X109771996Y-113029634D01*
X109771987Y-113029634D01*
X109550579Y-113044146D01*
X109550575Y-113044147D01*
X109546464Y-113044416D01*
X109542424Y-113045220D01*
X109542421Y-113045220D01*
X109252167Y-113102955D01*
X109252161Y-113102957D01*
X109248122Y-113103760D01*
X109244219Y-113105085D01*
X109244215Y-113105086D01*
X108963984Y-113200212D01*
X108960078Y-113201538D01*
X108830952Y-113265216D01*
X108690965Y-113334249D01*
X108690960Y-113334252D01*
X108687261Y-113336076D01*
X108434338Y-113505073D01*
X108431244Y-113507787D01*
X108431238Y-113507791D01*
X108208727Y-113702929D01*
X108205638Y-113705638D01*
X108202929Y-113708727D01*
X108007791Y-113931238D01*
X108007787Y-113931244D01*
X108005073Y-113934338D01*
X107836076Y-114187260D01*
X107701538Y-114460078D01*
X107603760Y-114748122D01*
X107544416Y-115046464D01*
X107524521Y-115350000D01*
X100140500Y-115350000D01*
X100140500Y-111182843D01*
X112275947Y-111182843D01*
X112284990Y-111423741D01*
X112334494Y-111659672D01*
X112423041Y-111883888D01*
X112548101Y-112089980D01*
X112551598Y-112094010D01*
X112635221Y-112190377D01*
X112706096Y-112272054D01*
X112710222Y-112275437D01*
X112710226Y-112275441D01*
X112810148Y-112357371D01*
X112892511Y-112424904D01*
X112897147Y-112427543D01*
X112897150Y-112427545D01*
X112999664Y-112485899D01*
X113102014Y-112544160D01*
X113328615Y-112626413D01*
X113565836Y-112669309D01*
X113569975Y-112669504D01*
X113569982Y-112669505D01*
X113589603Y-112670430D01*
X113589610Y-112670430D01*
X113591091Y-112670500D01*
X113760529Y-112670500D01*
X113844179Y-112663402D01*
X113934894Y-112655705D01*
X113934898Y-112655704D01*
X113940205Y-112655254D01*
X113945360Y-112653916D01*
X113945366Y-112653915D01*
X114168370Y-112596034D01*
X114168369Y-112596034D01*
X114173541Y-112594692D01*
X114327290Y-112525433D01*
X114388476Y-112497871D01*
X114388479Y-112497870D01*
X114393337Y-112495681D01*
X114593309Y-112361052D01*
X114767738Y-112194655D01*
X114911638Y-112001247D01*
X115020893Y-111786359D01*
X115092379Y-111556134D01*
X115109235Y-111428959D01*
X115123353Y-111322441D01*
X115123353Y-111322437D01*
X115124053Y-111317157D01*
X115115010Y-111076259D01*
X115065506Y-110840328D01*
X114976959Y-110616112D01*
X114851899Y-110410020D01*
X114848402Y-110405990D01*
X114697404Y-110231979D01*
X114697402Y-110231977D01*
X114693904Y-110227946D01*
X114689778Y-110224563D01*
X114689774Y-110224559D01*
X114511617Y-110078481D01*
X114507489Y-110075096D01*
X114502853Y-110072457D01*
X114502850Y-110072455D01*
X114379304Y-110002129D01*
X114297986Y-109955840D01*
X114071385Y-109873587D01*
X113834164Y-109830691D01*
X113830025Y-109830496D01*
X113830018Y-109830495D01*
X113810397Y-109829570D01*
X113810390Y-109829570D01*
X113808909Y-109829500D01*
X113639471Y-109829500D01*
X113555821Y-109836598D01*
X113465106Y-109844295D01*
X113465102Y-109844296D01*
X113459795Y-109844746D01*
X113454640Y-109846084D01*
X113454634Y-109846085D01*
X113274240Y-109892906D01*
X113226459Y-109905308D01*
X113072710Y-109974567D01*
X113011524Y-110002129D01*
X113011521Y-110002130D01*
X113006663Y-110004319D01*
X112806691Y-110138948D01*
X112632262Y-110305345D01*
X112488362Y-110498753D01*
X112379107Y-110713641D01*
X112307621Y-110943866D01*
X112306920Y-110949153D01*
X112306920Y-110949154D01*
X112290074Y-111076259D01*
X112275947Y-111182843D01*
X100140500Y-111182843D01*
X100140500Y-104770675D01*
X106580105Y-104770675D01*
X106593513Y-104975250D01*
X106643979Y-105173957D01*
X106729810Y-105360139D01*
X106848133Y-105527563D01*
X106994986Y-105670620D01*
X107165449Y-105784520D01*
X107170752Y-105786798D01*
X107170755Y-105786800D01*
X107260329Y-105825284D01*
X107353815Y-105865449D01*
X107427559Y-105882136D01*
X107548137Y-105909420D01*
X107548142Y-105909421D01*
X107553774Y-105910695D01*
X107559545Y-105910922D01*
X107559547Y-105910922D01*
X107621339Y-105913350D01*
X107758631Y-105918744D01*
X107860077Y-105904035D01*
X107955810Y-105890155D01*
X107955815Y-105890154D01*
X107961524Y-105889326D01*
X107966988Y-105887471D01*
X107966993Y-105887470D01*
X108150187Y-105825284D01*
X108150192Y-105825282D01*
X108155659Y-105823426D01*
X108221059Y-105786800D01*
X108329495Y-105726073D01*
X108329499Y-105726070D01*
X108334533Y-105723251D01*
X108338970Y-105719561D01*
X108338974Y-105719558D01*
X108487719Y-105595848D01*
X108492157Y-105592157D01*
X108549805Y-105522843D01*
X108619558Y-105438974D01*
X108619561Y-105438970D01*
X108623251Y-105434533D01*
X108626070Y-105429499D01*
X108626073Y-105429495D01*
X108720603Y-105260700D01*
X108720603Y-105260699D01*
X108723426Y-105255659D01*
X108725282Y-105250192D01*
X108725284Y-105250187D01*
X108787470Y-105066993D01*
X108787471Y-105066988D01*
X108789326Y-105061524D01*
X108790154Y-105055815D01*
X108790155Y-105055810D01*
X108811637Y-104907647D01*
X108818744Y-104858631D01*
X108820279Y-104800000D01*
X108817584Y-104770675D01*
X109080105Y-104770675D01*
X109093513Y-104975250D01*
X109143979Y-105173957D01*
X109229810Y-105360139D01*
X109348133Y-105527563D01*
X109494986Y-105670620D01*
X109665449Y-105784520D01*
X109670752Y-105786798D01*
X109670755Y-105786800D01*
X109760329Y-105825284D01*
X109853815Y-105865449D01*
X109927559Y-105882136D01*
X110048137Y-105909420D01*
X110048142Y-105909421D01*
X110053774Y-105910695D01*
X110059545Y-105910922D01*
X110059547Y-105910922D01*
X110121339Y-105913350D01*
X110258631Y-105918744D01*
X110360077Y-105904035D01*
X110455810Y-105890155D01*
X110455815Y-105890154D01*
X110461524Y-105889326D01*
X110466988Y-105887471D01*
X110466993Y-105887470D01*
X110650187Y-105825284D01*
X110650192Y-105825282D01*
X110655659Y-105823426D01*
X110721059Y-105786800D01*
X110829495Y-105726073D01*
X110829499Y-105726070D01*
X110834533Y-105723251D01*
X110838970Y-105719561D01*
X110838974Y-105719558D01*
X110987719Y-105595848D01*
X110992157Y-105592157D01*
X111049805Y-105522843D01*
X111119558Y-105438974D01*
X111119561Y-105438970D01*
X111123251Y-105434533D01*
X111126070Y-105429499D01*
X111126073Y-105429495D01*
X111220603Y-105260700D01*
X111220603Y-105260699D01*
X111223426Y-105255659D01*
X111225282Y-105250192D01*
X111225284Y-105250187D01*
X111287470Y-105066993D01*
X111287471Y-105066988D01*
X111289326Y-105061524D01*
X111290154Y-105055815D01*
X111290155Y-105055810D01*
X111311637Y-104907647D01*
X111318744Y-104858631D01*
X111320279Y-104800000D01*
X111317584Y-104770675D01*
X111580105Y-104770675D01*
X111593513Y-104975250D01*
X111643979Y-105173957D01*
X111729810Y-105360139D01*
X111848133Y-105527563D01*
X111994986Y-105670620D01*
X112165449Y-105784520D01*
X112170752Y-105786798D01*
X112170755Y-105786800D01*
X112260329Y-105825284D01*
X112353815Y-105865449D01*
X112427559Y-105882136D01*
X112548137Y-105909420D01*
X112548142Y-105909421D01*
X112553774Y-105910695D01*
X112559545Y-105910922D01*
X112559547Y-105910922D01*
X112621339Y-105913350D01*
X112758631Y-105918744D01*
X112860077Y-105904035D01*
X112955810Y-105890155D01*
X112955815Y-105890154D01*
X112961524Y-105889326D01*
X112966988Y-105887471D01*
X112966993Y-105887470D01*
X113150187Y-105825284D01*
X113150192Y-105825282D01*
X113155659Y-105823426D01*
X113221059Y-105786800D01*
X113329495Y-105726073D01*
X113329499Y-105726070D01*
X113334533Y-105723251D01*
X113338970Y-105719561D01*
X113338974Y-105719558D01*
X113487719Y-105595848D01*
X113492157Y-105592157D01*
X113549805Y-105522843D01*
X113619558Y-105438974D01*
X113619561Y-105438970D01*
X113623251Y-105434533D01*
X113626070Y-105429499D01*
X113626073Y-105429495D01*
X113720603Y-105260700D01*
X113720603Y-105260699D01*
X113723426Y-105255659D01*
X113725282Y-105250192D01*
X113725284Y-105250187D01*
X113787470Y-105066993D01*
X113787471Y-105066988D01*
X113789326Y-105061524D01*
X113790154Y-105055815D01*
X113790155Y-105055810D01*
X113811637Y-104907647D01*
X113818744Y-104858631D01*
X113820279Y-104800000D01*
X113801520Y-104595845D01*
X113754922Y-104430620D01*
X113747441Y-104404093D01*
X113747439Y-104404088D01*
X113745871Y-104398528D01*
X113655195Y-104214656D01*
X113532530Y-104050387D01*
X113381983Y-103911223D01*
X113208596Y-103801824D01*
X113018176Y-103725854D01*
X113012516Y-103724728D01*
X113012512Y-103724727D01*
X112822769Y-103686985D01*
X112822764Y-103686985D01*
X112817101Y-103685858D01*
X112811326Y-103685782D01*
X112811322Y-103685782D01*
X112708605Y-103684437D01*
X112612104Y-103683174D01*
X112606407Y-103684153D01*
X112606406Y-103684153D01*
X112415747Y-103716915D01*
X112410050Y-103717894D01*
X112217707Y-103788853D01*
X112041517Y-103893675D01*
X111887378Y-104028851D01*
X111883811Y-104033376D01*
X111883806Y-104033381D01*
X111766174Y-104182597D01*
X111760455Y-104189852D01*
X111757764Y-104194968D01*
X111757762Y-104194970D01*
X111667689Y-104366171D01*
X111664997Y-104371288D01*
X111604202Y-104567081D01*
X111580105Y-104770675D01*
X111317584Y-104770675D01*
X111301520Y-104595845D01*
X111254922Y-104430620D01*
X111247441Y-104404093D01*
X111247439Y-104404088D01*
X111245871Y-104398528D01*
X111155195Y-104214656D01*
X111032530Y-104050387D01*
X110881983Y-103911223D01*
X110708596Y-103801824D01*
X110518176Y-103725854D01*
X110512516Y-103724728D01*
X110512512Y-103724727D01*
X110322769Y-103686985D01*
X110322764Y-103686985D01*
X110317101Y-103685858D01*
X110311326Y-103685782D01*
X110311322Y-103685782D01*
X110208605Y-103684437D01*
X110112104Y-103683174D01*
X110106407Y-103684153D01*
X110106406Y-103684153D01*
X109915747Y-103716915D01*
X109910050Y-103717894D01*
X109717707Y-103788853D01*
X109541517Y-103893675D01*
X109387378Y-104028851D01*
X109383811Y-104033376D01*
X109383806Y-104033381D01*
X109266174Y-104182597D01*
X109260455Y-104189852D01*
X109257764Y-104194968D01*
X109257762Y-104194970D01*
X109167689Y-104366171D01*
X109164997Y-104371288D01*
X109104202Y-104567081D01*
X109080105Y-104770675D01*
X108817584Y-104770675D01*
X108801520Y-104595845D01*
X108754922Y-104430620D01*
X108747441Y-104404093D01*
X108747439Y-104404088D01*
X108745871Y-104398528D01*
X108655195Y-104214656D01*
X108532530Y-104050387D01*
X108381983Y-103911223D01*
X108208596Y-103801824D01*
X108018176Y-103725854D01*
X108012516Y-103724728D01*
X108012512Y-103724727D01*
X107822769Y-103686985D01*
X107822764Y-103686985D01*
X107817101Y-103685858D01*
X107811326Y-103685782D01*
X107811322Y-103685782D01*
X107708605Y-103684437D01*
X107612104Y-103683174D01*
X107606407Y-103684153D01*
X107606406Y-103684153D01*
X107415747Y-103716915D01*
X107410050Y-103717894D01*
X107217707Y-103788853D01*
X107041517Y-103893675D01*
X106887378Y-104028851D01*
X106883811Y-104033376D01*
X106883806Y-104033381D01*
X106766174Y-104182597D01*
X106760455Y-104189852D01*
X106757764Y-104194968D01*
X106757762Y-104194970D01*
X106667689Y-104366171D01*
X106664997Y-104371288D01*
X106604202Y-104567081D01*
X106580105Y-104770675D01*
X100140500Y-104770675D01*
X100140500Y-103086159D01*
X149559500Y-103086159D01*
X149559501Y-104913840D01*
X149567651Y-104954821D01*
X149598705Y-105001295D01*
X149609018Y-105008186D01*
X149629503Y-105021874D01*
X149645179Y-105032349D01*
X149670163Y-105037318D01*
X149680089Y-105039293D01*
X149680092Y-105039293D01*
X149686159Y-105040500D01*
X150599630Y-105040500D01*
X151513840Y-105040499D01*
X151554821Y-105032349D01*
X151601295Y-105001295D01*
X151632349Y-104954821D01*
X151637318Y-104929837D01*
X151639293Y-104919911D01*
X151639293Y-104919908D01*
X151640500Y-104913841D01*
X151640499Y-103985402D01*
X154634567Y-103985402D01*
X154651642Y-104188739D01*
X154653341Y-104194664D01*
X154705569Y-104376805D01*
X154707886Y-104384887D01*
X154801158Y-104566375D01*
X154927905Y-104726290D01*
X155083299Y-104858540D01*
X155088677Y-104861546D01*
X155088679Y-104861547D01*
X155131631Y-104885552D01*
X155261421Y-104958089D01*
X155455487Y-105021145D01*
X155658104Y-105045306D01*
X155664239Y-105044834D01*
X155664241Y-105044834D01*
X155855413Y-105030124D01*
X155855417Y-105030123D01*
X155861555Y-105029651D01*
X156058091Y-104974777D01*
X156240226Y-104882774D01*
X156267396Y-104861547D01*
X156396165Y-104760941D01*
X156401021Y-104757147D01*
X156534354Y-104602680D01*
X156635144Y-104425257D01*
X156699553Y-104231637D01*
X156725127Y-104029193D01*
X156725535Y-104000000D01*
X156705623Y-103796921D01*
X156646645Y-103601578D01*
X156550848Y-103421410D01*
X156546950Y-103416631D01*
X156546947Y-103416626D01*
X156478950Y-103333254D01*
X156421881Y-103263280D01*
X156363475Y-103214962D01*
X156269405Y-103137140D01*
X156269400Y-103137137D01*
X156264656Y-103133212D01*
X156259237Y-103130282D01*
X156259234Y-103130280D01*
X156090581Y-103039090D01*
X156090576Y-103039088D01*
X156085161Y-103036160D01*
X156061562Y-103028855D01*
X155896121Y-102977642D01*
X155896118Y-102977641D01*
X155890234Y-102975820D01*
X155884109Y-102975176D01*
X155884108Y-102975176D01*
X155693427Y-102955134D01*
X155693426Y-102955134D01*
X155687299Y-102954490D01*
X155559467Y-102966124D01*
X155490227Y-102972425D01*
X155490226Y-102972425D01*
X155484086Y-102972984D01*
X155478172Y-102974725D01*
X155478170Y-102974725D01*
X155361654Y-103009018D01*
X155288336Y-103030597D01*
X155107503Y-103125134D01*
X155102703Y-103128994D01*
X155102702Y-103128994D01*
X155065445Y-103158949D01*
X154948477Y-103252994D01*
X154817315Y-103409307D01*
X154814351Y-103414699D01*
X154814348Y-103414703D01*
X154734315Y-103560283D01*
X154719012Y-103588120D01*
X154657312Y-103782621D01*
X154634567Y-103985402D01*
X151640499Y-103985402D01*
X151640499Y-103086160D01*
X151632349Y-103045179D01*
X151601295Y-102998705D01*
X151569773Y-102977642D01*
X151565140Y-102974546D01*
X151565139Y-102974546D01*
X151554821Y-102967651D01*
X151529837Y-102962682D01*
X151519911Y-102960707D01*
X151519908Y-102960707D01*
X151513841Y-102959500D01*
X150600370Y-102959500D01*
X149686160Y-102959501D01*
X149645179Y-102967651D01*
X149598705Y-102998705D01*
X149567651Y-103045179D01*
X149565230Y-103057353D01*
X149560708Y-103080087D01*
X149559500Y-103086159D01*
X100140500Y-103086159D01*
X100140500Y-101070675D01*
X106580105Y-101070675D01*
X106593513Y-101275250D01*
X106643979Y-101473957D01*
X106729810Y-101660139D01*
X106848133Y-101827563D01*
X106994986Y-101970620D01*
X107165449Y-102084520D01*
X107170752Y-102086798D01*
X107170755Y-102086800D01*
X107260329Y-102125284D01*
X107353815Y-102165449D01*
X107427559Y-102182136D01*
X107548137Y-102209420D01*
X107548142Y-102209421D01*
X107553774Y-102210695D01*
X107559545Y-102210922D01*
X107559547Y-102210922D01*
X107621339Y-102213350D01*
X107758631Y-102218744D01*
X107860077Y-102204035D01*
X107955810Y-102190155D01*
X107955815Y-102190154D01*
X107961524Y-102189326D01*
X107966988Y-102187471D01*
X107966993Y-102187470D01*
X108150187Y-102125284D01*
X108150192Y-102125282D01*
X108155659Y-102123426D01*
X108221059Y-102086800D01*
X108329495Y-102026073D01*
X108329499Y-102026070D01*
X108334533Y-102023251D01*
X108338970Y-102019561D01*
X108338974Y-102019558D01*
X108487719Y-101895848D01*
X108492157Y-101892157D01*
X108549805Y-101822843D01*
X108619558Y-101738974D01*
X108619561Y-101738970D01*
X108623251Y-101734533D01*
X108626070Y-101729499D01*
X108626073Y-101729495D01*
X108720603Y-101560700D01*
X108720603Y-101560699D01*
X108723426Y-101555659D01*
X108725282Y-101550192D01*
X108725284Y-101550187D01*
X108787470Y-101366993D01*
X108787471Y-101366988D01*
X108789326Y-101361524D01*
X108790154Y-101355815D01*
X108790155Y-101355810D01*
X108818211Y-101162305D01*
X108818744Y-101158631D01*
X108820279Y-101100000D01*
X108817584Y-101070675D01*
X109080105Y-101070675D01*
X109093513Y-101275250D01*
X109143979Y-101473957D01*
X109229810Y-101660139D01*
X109348133Y-101827563D01*
X109494986Y-101970620D01*
X109665449Y-102084520D01*
X109670752Y-102086798D01*
X109670755Y-102086800D01*
X109760329Y-102125284D01*
X109853815Y-102165449D01*
X109927559Y-102182136D01*
X110048137Y-102209420D01*
X110048142Y-102209421D01*
X110053774Y-102210695D01*
X110059545Y-102210922D01*
X110059547Y-102210922D01*
X110121339Y-102213350D01*
X110258631Y-102218744D01*
X110360077Y-102204035D01*
X110455810Y-102190155D01*
X110455815Y-102190154D01*
X110461524Y-102189326D01*
X110466988Y-102187471D01*
X110466993Y-102187470D01*
X110650187Y-102125284D01*
X110650192Y-102125282D01*
X110655659Y-102123426D01*
X110721059Y-102086800D01*
X110829495Y-102026073D01*
X110829499Y-102026070D01*
X110834533Y-102023251D01*
X110838970Y-102019561D01*
X110838974Y-102019558D01*
X110987719Y-101895848D01*
X110992157Y-101892157D01*
X111049805Y-101822843D01*
X111119558Y-101738974D01*
X111119561Y-101738970D01*
X111123251Y-101734533D01*
X111126070Y-101729499D01*
X111126073Y-101729495D01*
X111220603Y-101560700D01*
X111220603Y-101560699D01*
X111223426Y-101555659D01*
X111225282Y-101550192D01*
X111225284Y-101550187D01*
X111287470Y-101366993D01*
X111287471Y-101366988D01*
X111289326Y-101361524D01*
X111290154Y-101355815D01*
X111290155Y-101355810D01*
X111318211Y-101162305D01*
X111318744Y-101158631D01*
X111320279Y-101100000D01*
X111317584Y-101070675D01*
X111580105Y-101070675D01*
X111593513Y-101275250D01*
X111643979Y-101473957D01*
X111729810Y-101660139D01*
X111848133Y-101827563D01*
X111994986Y-101970620D01*
X112165449Y-102084520D01*
X112170752Y-102086798D01*
X112170755Y-102086800D01*
X112260329Y-102125284D01*
X112353815Y-102165449D01*
X112427559Y-102182136D01*
X112548137Y-102209420D01*
X112548142Y-102209421D01*
X112553774Y-102210695D01*
X112559545Y-102210922D01*
X112559547Y-102210922D01*
X112621339Y-102213350D01*
X112758631Y-102218744D01*
X112860077Y-102204035D01*
X112955810Y-102190155D01*
X112955815Y-102190154D01*
X112961524Y-102189326D01*
X112966988Y-102187471D01*
X112966993Y-102187470D01*
X113150187Y-102125284D01*
X113150192Y-102125282D01*
X113155659Y-102123426D01*
X113221059Y-102086800D01*
X113329495Y-102026073D01*
X113329499Y-102026070D01*
X113334533Y-102023251D01*
X113338970Y-102019561D01*
X113338974Y-102019558D01*
X113487719Y-101895848D01*
X113492157Y-101892157D01*
X113549805Y-101822843D01*
X113619558Y-101738974D01*
X113619561Y-101738970D01*
X113623251Y-101734533D01*
X113626070Y-101729499D01*
X113626073Y-101729495D01*
X113720603Y-101560700D01*
X113720603Y-101560699D01*
X113723426Y-101555659D01*
X113725282Y-101550192D01*
X113725284Y-101550187D01*
X113787470Y-101366993D01*
X113787471Y-101366988D01*
X113789326Y-101361524D01*
X113790154Y-101355815D01*
X113790155Y-101355810D01*
X113818211Y-101162305D01*
X113818744Y-101158631D01*
X113820279Y-101100000D01*
X113801520Y-100895845D01*
X113791852Y-100861564D01*
X113747441Y-100704093D01*
X113747439Y-100704088D01*
X113745871Y-100698528D01*
X113655195Y-100514656D01*
X113532530Y-100350387D01*
X113381983Y-100211223D01*
X113208596Y-100101824D01*
X113018176Y-100025854D01*
X113012516Y-100024728D01*
X113012512Y-100024727D01*
X112822769Y-99986985D01*
X112822764Y-99986985D01*
X112817101Y-99985858D01*
X112811326Y-99985782D01*
X112811322Y-99985782D01*
X112708605Y-99984437D01*
X112612104Y-99983174D01*
X112606407Y-99984153D01*
X112606406Y-99984153D01*
X112415747Y-100016915D01*
X112410050Y-100017894D01*
X112217707Y-100088853D01*
X112041517Y-100193675D01*
X111887378Y-100328851D01*
X111883811Y-100333376D01*
X111883806Y-100333381D01*
X111764033Y-100485313D01*
X111760455Y-100489852D01*
X111664997Y-100671288D01*
X111604202Y-100867081D01*
X111580105Y-101070675D01*
X111317584Y-101070675D01*
X111301520Y-100895845D01*
X111291852Y-100861564D01*
X111247441Y-100704093D01*
X111247439Y-100704088D01*
X111245871Y-100698528D01*
X111155195Y-100514656D01*
X111032530Y-100350387D01*
X110881983Y-100211223D01*
X110708596Y-100101824D01*
X110518176Y-100025854D01*
X110512516Y-100024728D01*
X110512512Y-100024727D01*
X110322769Y-99986985D01*
X110322764Y-99986985D01*
X110317101Y-99985858D01*
X110311326Y-99985782D01*
X110311322Y-99985782D01*
X110208605Y-99984437D01*
X110112104Y-99983174D01*
X110106407Y-99984153D01*
X110106406Y-99984153D01*
X109915747Y-100016915D01*
X109910050Y-100017894D01*
X109717707Y-100088853D01*
X109541517Y-100193675D01*
X109387378Y-100328851D01*
X109383811Y-100333376D01*
X109383806Y-100333381D01*
X109264033Y-100485313D01*
X109260455Y-100489852D01*
X109164997Y-100671288D01*
X109104202Y-100867081D01*
X109080105Y-101070675D01*
X108817584Y-101070675D01*
X108801520Y-100895845D01*
X108791852Y-100861564D01*
X108747441Y-100704093D01*
X108747439Y-100704088D01*
X108745871Y-100698528D01*
X108655195Y-100514656D01*
X108532530Y-100350387D01*
X108381983Y-100211223D01*
X108208596Y-100101824D01*
X108018176Y-100025854D01*
X108012516Y-100024728D01*
X108012512Y-100024727D01*
X107822769Y-99986985D01*
X107822764Y-99986985D01*
X107817101Y-99985858D01*
X107811326Y-99985782D01*
X107811322Y-99985782D01*
X107708605Y-99984437D01*
X107612104Y-99983174D01*
X107606407Y-99984153D01*
X107606406Y-99984153D01*
X107415747Y-100016915D01*
X107410050Y-100017894D01*
X107217707Y-100088853D01*
X107041517Y-100193675D01*
X106887378Y-100328851D01*
X106883811Y-100333376D01*
X106883806Y-100333381D01*
X106764033Y-100485313D01*
X106760455Y-100489852D01*
X106664997Y-100671288D01*
X106604202Y-100867081D01*
X106580105Y-101070675D01*
X100140500Y-101070675D01*
X100140500Y-97570675D01*
X104080105Y-97570675D01*
X104093513Y-97775250D01*
X104143979Y-97973957D01*
X104229810Y-98160139D01*
X104348133Y-98327563D01*
X104494986Y-98470620D01*
X104665449Y-98584520D01*
X104670752Y-98586798D01*
X104670755Y-98586800D01*
X104760329Y-98625284D01*
X104853815Y-98665449D01*
X104927559Y-98682136D01*
X105048137Y-98709420D01*
X105048142Y-98709421D01*
X105053774Y-98710695D01*
X105059545Y-98710922D01*
X105059547Y-98710922D01*
X105121339Y-98713350D01*
X105258631Y-98718744D01*
X105360077Y-98704035D01*
X105455810Y-98690155D01*
X105455815Y-98690154D01*
X105461524Y-98689326D01*
X105466988Y-98687471D01*
X105466993Y-98687470D01*
X105650187Y-98625284D01*
X105650192Y-98625282D01*
X105655659Y-98623426D01*
X105680949Y-98609263D01*
X105829495Y-98526073D01*
X105829499Y-98526070D01*
X105834533Y-98523251D01*
X105838970Y-98519561D01*
X105838974Y-98519558D01*
X105987719Y-98395848D01*
X105992157Y-98392157D01*
X106049805Y-98322843D01*
X106119558Y-98238974D01*
X106119561Y-98238970D01*
X106123251Y-98234533D01*
X106126070Y-98229499D01*
X106126073Y-98229495D01*
X106220603Y-98060700D01*
X106220603Y-98060699D01*
X106223426Y-98055659D01*
X106225282Y-98050192D01*
X106225284Y-98050187D01*
X106287470Y-97866993D01*
X106287471Y-97866988D01*
X106289326Y-97861524D01*
X106290154Y-97855815D01*
X106290155Y-97855810D01*
X106313377Y-97695644D01*
X106318744Y-97658631D01*
X106320279Y-97600000D01*
X106317584Y-97570675D01*
X106580105Y-97570675D01*
X106593513Y-97775250D01*
X106643979Y-97973957D01*
X106729810Y-98160139D01*
X106848133Y-98327563D01*
X106994986Y-98470620D01*
X107165449Y-98584520D01*
X107170752Y-98586798D01*
X107170755Y-98586800D01*
X107260329Y-98625284D01*
X107353815Y-98665449D01*
X107427559Y-98682136D01*
X107548137Y-98709420D01*
X107548142Y-98709421D01*
X107553774Y-98710695D01*
X107559545Y-98710922D01*
X107559547Y-98710922D01*
X107621339Y-98713350D01*
X107758631Y-98718744D01*
X107860077Y-98704035D01*
X107955810Y-98690155D01*
X107955815Y-98690154D01*
X107961524Y-98689326D01*
X107966988Y-98687471D01*
X107966993Y-98687470D01*
X108150187Y-98625284D01*
X108150192Y-98625282D01*
X108155659Y-98623426D01*
X108180949Y-98609263D01*
X108329495Y-98526073D01*
X108329499Y-98526070D01*
X108334533Y-98523251D01*
X108338970Y-98519561D01*
X108338974Y-98519558D01*
X108487719Y-98395848D01*
X108492157Y-98392157D01*
X108549805Y-98322843D01*
X108619558Y-98238974D01*
X108619561Y-98238970D01*
X108623251Y-98234533D01*
X108626070Y-98229499D01*
X108626073Y-98229495D01*
X108720603Y-98060700D01*
X108720603Y-98060699D01*
X108723426Y-98055659D01*
X108725282Y-98050192D01*
X108725284Y-98050187D01*
X108787470Y-97866993D01*
X108787471Y-97866988D01*
X108789326Y-97861524D01*
X108790154Y-97855815D01*
X108790155Y-97855810D01*
X108813377Y-97695644D01*
X108818744Y-97658631D01*
X108820279Y-97600000D01*
X108817584Y-97570675D01*
X109080105Y-97570675D01*
X109093513Y-97775250D01*
X109143979Y-97973957D01*
X109229810Y-98160139D01*
X109348133Y-98327563D01*
X109494986Y-98470620D01*
X109665449Y-98584520D01*
X109670752Y-98586798D01*
X109670755Y-98586800D01*
X109760329Y-98625284D01*
X109853815Y-98665449D01*
X109927559Y-98682136D01*
X110048137Y-98709420D01*
X110048142Y-98709421D01*
X110053774Y-98710695D01*
X110059545Y-98710922D01*
X110059547Y-98710922D01*
X110121339Y-98713350D01*
X110258631Y-98718744D01*
X110360077Y-98704035D01*
X110455810Y-98690155D01*
X110455815Y-98690154D01*
X110461524Y-98689326D01*
X110466988Y-98687471D01*
X110466993Y-98687470D01*
X110650187Y-98625284D01*
X110650192Y-98625282D01*
X110655659Y-98623426D01*
X110695703Y-98601000D01*
X110764912Y-98585166D01*
X110831694Y-98609263D01*
X110846365Y-98621839D01*
X111184996Y-98960470D01*
X111200667Y-98979565D01*
X111201692Y-98981099D01*
X111208586Y-98991416D01*
X111218902Y-98998309D01*
X111230753Y-99006227D01*
X111296408Y-99050096D01*
X111313214Y-99053439D01*
X111400001Y-99070703D01*
X111413983Y-99067922D01*
X111438563Y-99065501D01*
X113237439Y-99065501D01*
X113262019Y-99067922D01*
X113276001Y-99070703D01*
X113288172Y-99068282D01*
X113367425Y-99052517D01*
X113367426Y-99052516D01*
X113379594Y-99050096D01*
X113445249Y-99006227D01*
X113467416Y-98991416D01*
X113474311Y-98981097D01*
X113474313Y-98981095D01*
X113475335Y-98979565D01*
X113491006Y-98960470D01*
X114860469Y-97591007D01*
X114879564Y-97575336D01*
X114881098Y-97574311D01*
X114881099Y-97574310D01*
X114891415Y-97567417D01*
X114950095Y-97479595D01*
X114964220Y-97408585D01*
X114970702Y-97376002D01*
X114967921Y-97362020D01*
X114965500Y-97337440D01*
X114965500Y-93857152D01*
X114985502Y-93789031D01*
X115002405Y-93768057D01*
X115868037Y-92902425D01*
X115930349Y-92868399D01*
X115957132Y-92865520D01*
X150461418Y-92865520D01*
X150485998Y-92867941D01*
X150499980Y-92870722D01*
X150512151Y-92868301D01*
X150591404Y-92852536D01*
X150591405Y-92852535D01*
X150603573Y-92850115D01*
X150669228Y-92806246D01*
X150691395Y-92791435D01*
X150698290Y-92781116D01*
X150698292Y-92781114D01*
X150699314Y-92779584D01*
X150714985Y-92760489D01*
X163228069Y-80247405D01*
X163290381Y-80213379D01*
X163317164Y-80210500D01*
X168260304Y-80210500D01*
X168328425Y-80230502D01*
X168360266Y-80259796D01*
X168414511Y-80330489D01*
X168527418Y-80417126D01*
X168658901Y-80471588D01*
X168800000Y-80490164D01*
X168808188Y-80489086D01*
X168843190Y-80484478D01*
X168941099Y-80471588D01*
X169072582Y-80417126D01*
X169185489Y-80330489D01*
X169272126Y-80217582D01*
X169326588Y-80086099D01*
X169327860Y-80076441D01*
X169344086Y-79953188D01*
X169345164Y-79945000D01*
X169326588Y-79803901D01*
X169272126Y-79672418D01*
X169185489Y-79559511D01*
X169072582Y-79472874D01*
X168941099Y-79418412D01*
X168800000Y-79399836D01*
X168658901Y-79418412D01*
X168527418Y-79472874D01*
X168414511Y-79559511D01*
X168409485Y-79566061D01*
X168360266Y-79630204D01*
X168302928Y-79672071D01*
X168260304Y-79679500D01*
X163600163Y-79679500D01*
X163532042Y-79659498D01*
X163485549Y-79605842D01*
X163475445Y-79535568D01*
X163504939Y-79470988D01*
X163511068Y-79464405D01*
X165268068Y-77707405D01*
X165330380Y-77673379D01*
X165357163Y-77670500D01*
X168260304Y-77670500D01*
X168328425Y-77690502D01*
X168360266Y-77719796D01*
X168366836Y-77728358D01*
X168414511Y-77790489D01*
X168527418Y-77877126D01*
X168596781Y-77905857D01*
X168649952Y-77927881D01*
X168658901Y-77931588D01*
X168800000Y-77950164D01*
X168808188Y-77949086D01*
X168932911Y-77932666D01*
X168941099Y-77931588D01*
X168950049Y-77927881D01*
X169003219Y-77905857D01*
X169072582Y-77877126D01*
X169185489Y-77790489D01*
X169272126Y-77677582D01*
X169326588Y-77546099D01*
X169345164Y-77405000D01*
X169326588Y-77263901D01*
X169272126Y-77132418D01*
X169185489Y-77019511D01*
X169072582Y-76932874D01*
X168941099Y-76878412D01*
X168800000Y-76859836D01*
X168658901Y-76878412D01*
X168527418Y-76932874D01*
X168414511Y-77019511D01*
X168409485Y-77026061D01*
X168360266Y-77090204D01*
X168302928Y-77132071D01*
X168260304Y-77139500D01*
X165290164Y-77139500D01*
X165222043Y-77119498D01*
X165175550Y-77065842D01*
X165165446Y-76995568D01*
X165194940Y-76930988D01*
X165201069Y-76924405D01*
X166958069Y-75167405D01*
X167020381Y-75133379D01*
X167047164Y-75130500D01*
X168260304Y-75130500D01*
X168328425Y-75150502D01*
X168360266Y-75179796D01*
X168414511Y-75250489D01*
X168527418Y-75337126D01*
X168658901Y-75391588D01*
X168800000Y-75410164D01*
X168808188Y-75409086D01*
X168932911Y-75392666D01*
X168941099Y-75391588D01*
X169072582Y-75337126D01*
X169185489Y-75250489D01*
X169272126Y-75137582D01*
X169326588Y-75006099D01*
X169345164Y-74865000D01*
X169326588Y-74723901D01*
X169272126Y-74592418D01*
X169185489Y-74479511D01*
X169072582Y-74392874D01*
X168941099Y-74338412D01*
X168800000Y-74319836D01*
X168658901Y-74338412D01*
X168527418Y-74392874D01*
X168414511Y-74479511D01*
X168409485Y-74486061D01*
X168360266Y-74550204D01*
X168302928Y-74592071D01*
X168260304Y-74599500D01*
X167205163Y-74599500D01*
X167137042Y-74579498D01*
X167090549Y-74525842D01*
X167080445Y-74455568D01*
X167109939Y-74390988D01*
X167116068Y-74384405D01*
X168606113Y-72894360D01*
X168668425Y-72860334D01*
X168711654Y-72858533D01*
X168800000Y-72870164D01*
X168808188Y-72869086D01*
X168932911Y-72852666D01*
X168941099Y-72851588D01*
X169072582Y-72797126D01*
X169185489Y-72710489D01*
X169272126Y-72597582D01*
X169326588Y-72466099D01*
X169345164Y-72325000D01*
X169326588Y-72183901D01*
X169272126Y-72052418D01*
X169185489Y-71939511D01*
X169072582Y-71852874D01*
X168941099Y-71798412D01*
X168800000Y-71779836D01*
X168658901Y-71798412D01*
X168527418Y-71852874D01*
X168414511Y-71939511D01*
X168327874Y-72052418D01*
X168273412Y-72183901D01*
X168254836Y-72325000D01*
X168255914Y-72333188D01*
X168266467Y-72413346D01*
X168255528Y-72483494D01*
X168230640Y-72518887D01*
X149651932Y-91097594D01*
X149589620Y-91131620D01*
X149562837Y-91134499D01*
X113549318Y-91134499D01*
X113481197Y-91114497D01*
X113434704Y-91060841D01*
X113424600Y-90990567D01*
X113454094Y-90925987D01*
X113468741Y-90911632D01*
X113492157Y-90892157D01*
X113613410Y-90746366D01*
X113619558Y-90738974D01*
X113619561Y-90738970D01*
X113623251Y-90734533D01*
X113626070Y-90729499D01*
X113626073Y-90729495D01*
X113720603Y-90560700D01*
X113720603Y-90560699D01*
X113723426Y-90555659D01*
X113725282Y-90550192D01*
X113725284Y-90550187D01*
X113787470Y-90366993D01*
X113787471Y-90366988D01*
X113789326Y-90361524D01*
X113790154Y-90355815D01*
X113790155Y-90355810D01*
X113818211Y-90162305D01*
X113818744Y-90158631D01*
X113820279Y-90100000D01*
X113801520Y-89895845D01*
X113791852Y-89861564D01*
X113747441Y-89704093D01*
X113747439Y-89704088D01*
X113745871Y-89698528D01*
X113655195Y-89514656D01*
X113532530Y-89350387D01*
X113397174Y-89225265D01*
X113360729Y-89164336D01*
X113363010Y-89093376D01*
X113403292Y-89034914D01*
X113412701Y-89027975D01*
X113445249Y-89006227D01*
X113445250Y-89006226D01*
X113467416Y-88991416D01*
X113474311Y-88981097D01*
X113474313Y-88981095D01*
X113475335Y-88979565D01*
X113491006Y-88960470D01*
X115799062Y-86652413D01*
X115861374Y-86618388D01*
X115888157Y-86615508D01*
X133636836Y-86615508D01*
X133704957Y-86635510D01*
X133751450Y-86689166D01*
X133761554Y-86759440D01*
X133730472Y-86825818D01*
X133614928Y-86954143D01*
X133516077Y-87125357D01*
X133454984Y-87313382D01*
X133434319Y-87510000D01*
X133435009Y-87516565D01*
X133453831Y-87695644D01*
X133454984Y-87706618D01*
X133516077Y-87894643D01*
X133614928Y-88065857D01*
X133619346Y-88070764D01*
X133619347Y-88070765D01*
X133735695Y-88199983D01*
X133747216Y-88212778D01*
X133809717Y-88258188D01*
X133898707Y-88322843D01*
X133907159Y-88328984D01*
X133913187Y-88331668D01*
X133913189Y-88331669D01*
X134062828Y-88398292D01*
X134087768Y-88409396D01*
X134184458Y-88429948D01*
X134274692Y-88449128D01*
X134274696Y-88449128D01*
X134281149Y-88450500D01*
X134478851Y-88450500D01*
X134485304Y-88449128D01*
X134485308Y-88449128D01*
X134575541Y-88429948D01*
X134672232Y-88409396D01*
X134697172Y-88398292D01*
X134846811Y-88331669D01*
X134846813Y-88331668D01*
X134852841Y-88328984D01*
X134861294Y-88322843D01*
X134950283Y-88258188D01*
X135012784Y-88212778D01*
X135024305Y-88199983D01*
X135140653Y-88070765D01*
X135140654Y-88070764D01*
X135145072Y-88065857D01*
X135243923Y-87894643D01*
X135305016Y-87706618D01*
X135306170Y-87695644D01*
X135324991Y-87516565D01*
X135325681Y-87510000D01*
X135305016Y-87313382D01*
X135243923Y-87125357D01*
X135145072Y-86954143D01*
X135029528Y-86825818D01*
X134998810Y-86761811D01*
X135007575Y-86691357D01*
X135053038Y-86636826D01*
X135123164Y-86615508D01*
X142775344Y-86615508D01*
X142843465Y-86635510D01*
X142864439Y-86652413D01*
X144268140Y-88056113D01*
X144302165Y-88118425D01*
X144303967Y-88161654D01*
X144292336Y-88250000D01*
X144310912Y-88391099D01*
X144365374Y-88522582D01*
X144452011Y-88635489D01*
X144564918Y-88722126D01*
X144696401Y-88776588D01*
X144837500Y-88795164D01*
X144845688Y-88794086D01*
X144970411Y-88777666D01*
X144978599Y-88776588D01*
X145110082Y-88722126D01*
X145222989Y-88635489D01*
X145309626Y-88522582D01*
X145364088Y-88391099D01*
X145382664Y-88250000D01*
X145364088Y-88108901D01*
X145309626Y-87977418D01*
X145222989Y-87864511D01*
X145110082Y-87777874D01*
X144978599Y-87723412D01*
X144837500Y-87704836D01*
X144749154Y-87716467D01*
X144679006Y-87705528D01*
X144643613Y-87680640D01*
X144472973Y-87510000D01*
X148674319Y-87510000D01*
X148675009Y-87516565D01*
X148693831Y-87695644D01*
X148694984Y-87706618D01*
X148756077Y-87894643D01*
X148854928Y-88065857D01*
X148859346Y-88070764D01*
X148859347Y-88070765D01*
X148975695Y-88199983D01*
X148987216Y-88212778D01*
X149049717Y-88258188D01*
X149138707Y-88322843D01*
X149147159Y-88328984D01*
X149153187Y-88331668D01*
X149153189Y-88331669D01*
X149302828Y-88398292D01*
X149327768Y-88409396D01*
X149424458Y-88429948D01*
X149514692Y-88449128D01*
X149514696Y-88449128D01*
X149521149Y-88450500D01*
X149718851Y-88450500D01*
X149725304Y-88449128D01*
X149725308Y-88449128D01*
X149815541Y-88429948D01*
X149912232Y-88409396D01*
X149937172Y-88398292D01*
X150086811Y-88331669D01*
X150086813Y-88331668D01*
X150092841Y-88328984D01*
X150101294Y-88322843D01*
X150190283Y-88258188D01*
X150252784Y-88212778D01*
X150264305Y-88199983D01*
X150380653Y-88070765D01*
X150380654Y-88070764D01*
X150385072Y-88065857D01*
X150483923Y-87894643D01*
X150545016Y-87706618D01*
X150546170Y-87695644D01*
X150564991Y-87516565D01*
X150565681Y-87510000D01*
X150545016Y-87313382D01*
X150483923Y-87125357D01*
X150385072Y-86954143D01*
X150252784Y-86807222D01*
X150149384Y-86732097D01*
X150098183Y-86694897D01*
X150098182Y-86694896D01*
X150092841Y-86691016D01*
X150086813Y-86688332D01*
X150086811Y-86688331D01*
X149918263Y-86613289D01*
X149918262Y-86613289D01*
X149912232Y-86610604D01*
X149800501Y-86586855D01*
X149725308Y-86570872D01*
X149725304Y-86570872D01*
X149718851Y-86569500D01*
X149521149Y-86569500D01*
X149514696Y-86570872D01*
X149514692Y-86570872D01*
X149439499Y-86586855D01*
X149327768Y-86610604D01*
X149321738Y-86613289D01*
X149321737Y-86613289D01*
X149153190Y-86688331D01*
X149153188Y-86688332D01*
X149147160Y-86691016D01*
X149141819Y-86694896D01*
X149141818Y-86694897D01*
X149080900Y-86739157D01*
X148987216Y-86807222D01*
X148854928Y-86954143D01*
X148756077Y-87125357D01*
X148694984Y-87313382D01*
X148674319Y-87510000D01*
X144472973Y-87510000D01*
X143957943Y-86994970D01*
X143386935Y-86423961D01*
X143352910Y-86361651D01*
X143357975Y-86290836D01*
X143406030Y-86230102D01*
X143435075Y-86210695D01*
X143461097Y-86193308D01*
X143471412Y-86186416D01*
X143478306Y-86176099D01*
X143479331Y-86174565D01*
X143495002Y-86155470D01*
X144372968Y-85277504D01*
X144392063Y-85261833D01*
X144393597Y-85260808D01*
X144393598Y-85260807D01*
X144403914Y-85253914D01*
X144462594Y-85166092D01*
X144475741Y-85100000D01*
X144483201Y-85062499D01*
X144480420Y-85048517D01*
X144477999Y-85023937D01*
X144477999Y-84970000D01*
X148674319Y-84970000D01*
X148675009Y-84976565D01*
X148694145Y-85158631D01*
X148694984Y-85166618D01*
X148756077Y-85354643D01*
X148854928Y-85525857D01*
X148859346Y-85530764D01*
X148859347Y-85530765D01*
X148933607Y-85613239D01*
X148987216Y-85672778D01*
X149147159Y-85788984D01*
X149153187Y-85791668D01*
X149153189Y-85791669D01*
X149321737Y-85866711D01*
X149327768Y-85869396D01*
X149424459Y-85889948D01*
X149514692Y-85909128D01*
X149514696Y-85909128D01*
X149521149Y-85910500D01*
X149718851Y-85910500D01*
X149725304Y-85909128D01*
X149725308Y-85909128D01*
X149815541Y-85889948D01*
X149912232Y-85869396D01*
X149918263Y-85866711D01*
X150086811Y-85791669D01*
X150086813Y-85791668D01*
X150092841Y-85788984D01*
X150252784Y-85672778D01*
X150306393Y-85613239D01*
X150380653Y-85530765D01*
X150380654Y-85530764D01*
X150385072Y-85525857D01*
X150483923Y-85354643D01*
X150545016Y-85166618D01*
X150545856Y-85158631D01*
X150564991Y-84976565D01*
X150565681Y-84970000D01*
X150545016Y-84773382D01*
X150483923Y-84585357D01*
X150471888Y-84564511D01*
X150420174Y-84474941D01*
X150385072Y-84414143D01*
X150331830Y-84355011D01*
X150257206Y-84272133D01*
X150257205Y-84272132D01*
X150252784Y-84267222D01*
X150147490Y-84190721D01*
X150098183Y-84154897D01*
X150098182Y-84154896D01*
X150092841Y-84151016D01*
X150086813Y-84148332D01*
X150086811Y-84148331D01*
X149918263Y-84073289D01*
X149918262Y-84073289D01*
X149912232Y-84070604D01*
X149815542Y-84050052D01*
X149725308Y-84030872D01*
X149725304Y-84030872D01*
X149718851Y-84029500D01*
X149521149Y-84029500D01*
X149514696Y-84030872D01*
X149514692Y-84030872D01*
X149424459Y-84050052D01*
X149327768Y-84070604D01*
X149321738Y-84073289D01*
X149321737Y-84073289D01*
X149153190Y-84148331D01*
X149153188Y-84148332D01*
X149147160Y-84151016D01*
X149141819Y-84154896D01*
X149141818Y-84154897D01*
X149066756Y-84209433D01*
X148987216Y-84267222D01*
X148982795Y-84272132D01*
X148982794Y-84272133D01*
X148908171Y-84355011D01*
X148854928Y-84414143D01*
X148819826Y-84474941D01*
X148768113Y-84564511D01*
X148756077Y-84585357D01*
X148694984Y-84773382D01*
X148674319Y-84970000D01*
X144477999Y-84970000D01*
X144477999Y-82430000D01*
X148674319Y-82430000D01*
X148675009Y-82436565D01*
X148692576Y-82603704D01*
X148694984Y-82626618D01*
X148756077Y-82814643D01*
X148854928Y-82985857D01*
X148859346Y-82990764D01*
X148859347Y-82990765D01*
X148963194Y-83106099D01*
X148987216Y-83132778D01*
X149147159Y-83248984D01*
X149153187Y-83251668D01*
X149153189Y-83251669D01*
X149321643Y-83326669D01*
X149327768Y-83329396D01*
X149424458Y-83349948D01*
X149514692Y-83369128D01*
X149514696Y-83369128D01*
X149521149Y-83370500D01*
X149718851Y-83370500D01*
X149725304Y-83369128D01*
X149725308Y-83369128D01*
X149815542Y-83349948D01*
X149912232Y-83329396D01*
X149918357Y-83326669D01*
X150086811Y-83251669D01*
X150086813Y-83251668D01*
X150092841Y-83248984D01*
X150252784Y-83132778D01*
X150276806Y-83106099D01*
X150380653Y-82990765D01*
X150380654Y-82990764D01*
X150385072Y-82985857D01*
X150483923Y-82814643D01*
X150545016Y-82626618D01*
X150547425Y-82603704D01*
X150564991Y-82436565D01*
X150565681Y-82430000D01*
X150546629Y-82248728D01*
X150545706Y-82239945D01*
X150545706Y-82239943D01*
X150545016Y-82233382D01*
X150483923Y-82045357D01*
X150467723Y-82017297D01*
X150404957Y-81908585D01*
X150385072Y-81874143D01*
X150349378Y-81834500D01*
X150257206Y-81732133D01*
X150257205Y-81732132D01*
X150252784Y-81727222D01*
X150092841Y-81611016D01*
X150086813Y-81608332D01*
X150086811Y-81608331D01*
X149918263Y-81533289D01*
X149918262Y-81533289D01*
X149912232Y-81530604D01*
X149808673Y-81508592D01*
X149725308Y-81490872D01*
X149725304Y-81490872D01*
X149718851Y-81489500D01*
X149521149Y-81489500D01*
X149514696Y-81490872D01*
X149514692Y-81490872D01*
X149431327Y-81508592D01*
X149327768Y-81530604D01*
X149321738Y-81533289D01*
X149321737Y-81533289D01*
X149153190Y-81608331D01*
X149153188Y-81608332D01*
X149147160Y-81611016D01*
X149141819Y-81614896D01*
X149141818Y-81614897D01*
X148995696Y-81721061D01*
X148987216Y-81727222D01*
X148982795Y-81732132D01*
X148982794Y-81732133D01*
X148890623Y-81834500D01*
X148854928Y-81874143D01*
X148835043Y-81908585D01*
X148772278Y-82017297D01*
X148756077Y-82045357D01*
X148694984Y-82233382D01*
X148694294Y-82239943D01*
X148694294Y-82239945D01*
X148693371Y-82248728D01*
X148674319Y-82430000D01*
X144477999Y-82430000D01*
X144477999Y-79890000D01*
X148674319Y-79890000D01*
X148675009Y-79896565D01*
X148692706Y-80064940D01*
X148694984Y-80086618D01*
X148756077Y-80274643D01*
X148854928Y-80445857D01*
X148859346Y-80450764D01*
X148859347Y-80450765D01*
X148948867Y-80550187D01*
X148987216Y-80592778D01*
X149015377Y-80613238D01*
X149112845Y-80684053D01*
X149147159Y-80708984D01*
X149153187Y-80711668D01*
X149153189Y-80711669D01*
X149231118Y-80746365D01*
X149327768Y-80789396D01*
X149424459Y-80809948D01*
X149514692Y-80829128D01*
X149514696Y-80829128D01*
X149521149Y-80830500D01*
X149718851Y-80830500D01*
X149725304Y-80829128D01*
X149725308Y-80829128D01*
X149815541Y-80809948D01*
X149912232Y-80789396D01*
X150008882Y-80746365D01*
X150086811Y-80711669D01*
X150086813Y-80711668D01*
X150092841Y-80708984D01*
X150127156Y-80684053D01*
X150224623Y-80613238D01*
X150252784Y-80592778D01*
X150291133Y-80550187D01*
X150380653Y-80450765D01*
X150380654Y-80450764D01*
X150385072Y-80445857D01*
X150483923Y-80274643D01*
X150545016Y-80086618D01*
X150547295Y-80064940D01*
X150564991Y-79896565D01*
X150565681Y-79890000D01*
X150545016Y-79693382D01*
X150483923Y-79505357D01*
X150385072Y-79334143D01*
X150252784Y-79187222D01*
X150123617Y-79093376D01*
X150098183Y-79074897D01*
X150098182Y-79074896D01*
X150092841Y-79071016D01*
X150086813Y-79068332D01*
X150086811Y-79068331D01*
X149918263Y-78993289D01*
X149918262Y-78993289D01*
X149912232Y-78990604D01*
X149810799Y-78969044D01*
X149725308Y-78950872D01*
X149725304Y-78950872D01*
X149718851Y-78949500D01*
X149521149Y-78949500D01*
X149514696Y-78950872D01*
X149514692Y-78950872D01*
X149429201Y-78969044D01*
X149327768Y-78990604D01*
X149321738Y-78993289D01*
X149321737Y-78993289D01*
X149153190Y-79068331D01*
X149153188Y-79068332D01*
X149147160Y-79071016D01*
X149141819Y-79074896D01*
X149141818Y-79074897D01*
X149018716Y-79164336D01*
X148987216Y-79187222D01*
X148854928Y-79334143D01*
X148756077Y-79505357D01*
X148694984Y-79693382D01*
X148674319Y-79890000D01*
X144477999Y-79890000D01*
X144477999Y-79037165D01*
X144498001Y-78969044D01*
X144514904Y-78948070D01*
X144643614Y-78819360D01*
X144705926Y-78785334D01*
X144749154Y-78783533D01*
X144837500Y-78795164D01*
X144845688Y-78794086D01*
X144970411Y-78777666D01*
X144978599Y-78776588D01*
X145110082Y-78722126D01*
X145222989Y-78635489D01*
X145309626Y-78522582D01*
X145364088Y-78391099D01*
X145382664Y-78250000D01*
X145364088Y-78108901D01*
X145309626Y-77977418D01*
X145222989Y-77864511D01*
X145110082Y-77777874D01*
X144978599Y-77723412D01*
X144837500Y-77704836D01*
X144696401Y-77723412D01*
X144564918Y-77777874D01*
X144452011Y-77864511D01*
X144365374Y-77977418D01*
X144310912Y-78108901D01*
X144292336Y-78250000D01*
X144302968Y-78330753D01*
X144303967Y-78338344D01*
X144293028Y-78408493D01*
X144268140Y-78443886D01*
X144052030Y-78659996D01*
X144032935Y-78675667D01*
X144031401Y-78676692D01*
X144031400Y-78676693D01*
X144021084Y-78683586D01*
X144014191Y-78693902D01*
X144002819Y-78710922D01*
X143995622Y-78721693D01*
X143962404Y-78771408D01*
X143941797Y-78875001D01*
X143944218Y-78887170D01*
X143944578Y-78888980D01*
X143946999Y-78913563D01*
X143946999Y-84900335D01*
X143926997Y-84968456D01*
X143910094Y-84989430D01*
X143206928Y-85692596D01*
X143144616Y-85726622D01*
X143117833Y-85729501D01*
X135243551Y-85729501D01*
X135175430Y-85709499D01*
X135128937Y-85655843D01*
X135118833Y-85585569D01*
X135141428Y-85529904D01*
X135145072Y-85525857D01*
X135148374Y-85520139D01*
X135240619Y-85360366D01*
X135240620Y-85360365D01*
X135243923Y-85354643D01*
X135305016Y-85166618D01*
X135305856Y-85158631D01*
X135324991Y-84976565D01*
X135325681Y-84970000D01*
X135305016Y-84773382D01*
X135243923Y-84585357D01*
X135231888Y-84564511D01*
X135180174Y-84474941D01*
X135145072Y-84414143D01*
X135091830Y-84355011D01*
X135017206Y-84272133D01*
X135017205Y-84272132D01*
X135012784Y-84267222D01*
X134907490Y-84190721D01*
X134858183Y-84154897D01*
X134858182Y-84154896D01*
X134852841Y-84151016D01*
X134846813Y-84148332D01*
X134846811Y-84148331D01*
X134678263Y-84073289D01*
X134678262Y-84073289D01*
X134672232Y-84070604D01*
X134575542Y-84050052D01*
X134485308Y-84030872D01*
X134485304Y-84030872D01*
X134478851Y-84029500D01*
X134281149Y-84029500D01*
X134274696Y-84030872D01*
X134274692Y-84030872D01*
X134184458Y-84050052D01*
X134087768Y-84070604D01*
X134081741Y-84073287D01*
X134081733Y-84073290D01*
X134006563Y-84106758D01*
X133936196Y-84116192D01*
X133871899Y-84086085D01*
X133866220Y-84080746D01*
X131725005Y-81939531D01*
X131709334Y-81920436D01*
X131708309Y-81918902D01*
X131708308Y-81918901D01*
X131701415Y-81908585D01*
X131613593Y-81849905D01*
X131530526Y-81833381D01*
X131522171Y-81831719D01*
X131510000Y-81829298D01*
X131496018Y-81832079D01*
X131471438Y-81834500D01*
X128599696Y-81834500D01*
X128531575Y-81814498D01*
X128499734Y-81785204D01*
X128450515Y-81721061D01*
X128445489Y-81714511D01*
X128332582Y-81627874D01*
X128201099Y-81573412D01*
X128060000Y-81554836D01*
X127918901Y-81573412D01*
X127787418Y-81627874D01*
X127674511Y-81714511D01*
X127587874Y-81827418D01*
X127541409Y-81939595D01*
X127496861Y-81994876D01*
X127429497Y-82017297D01*
X127360706Y-81999739D01*
X127312328Y-81947777D01*
X127308591Y-81939595D01*
X127262126Y-81827418D01*
X127175489Y-81714511D01*
X127062582Y-81627874D01*
X126931099Y-81573412D01*
X126790000Y-81554836D01*
X126648901Y-81573412D01*
X126517418Y-81627874D01*
X126404511Y-81714511D01*
X126317874Y-81827418D01*
X126263412Y-81958901D01*
X126244836Y-82100000D01*
X126245914Y-82108188D01*
X126261570Y-82227104D01*
X126263412Y-82241099D01*
X126317874Y-82372582D01*
X126404511Y-82485489D01*
X126517418Y-82572126D01*
X126648901Y-82626588D01*
X126790000Y-82645164D01*
X126878345Y-82633533D01*
X126948493Y-82644472D01*
X126983886Y-82669360D01*
X127199996Y-82885470D01*
X127215667Y-82904565D01*
X127216692Y-82906099D01*
X127223586Y-82916416D01*
X127233902Y-82923309D01*
X127255867Y-82937985D01*
X127311408Y-82975096D01*
X127328214Y-82978439D01*
X127415001Y-82995703D01*
X127428983Y-82992922D01*
X127453563Y-82990501D01*
X131162836Y-82990501D01*
X131230957Y-83010503D01*
X131251931Y-83027405D01*
X132097595Y-83873068D01*
X132131620Y-83935381D01*
X132134500Y-83962164D01*
X132134500Y-84410304D01*
X132114498Y-84478425D01*
X132085204Y-84510266D01*
X132014511Y-84564511D01*
X131927874Y-84677418D01*
X131873412Y-84808901D01*
X131854836Y-84950000D01*
X131873412Y-85091099D01*
X131927874Y-85222582D01*
X132014511Y-85335489D01*
X132127418Y-85422126D01*
X132258901Y-85476588D01*
X132272725Y-85478408D01*
X132274024Y-85478579D01*
X132338952Y-85507302D01*
X132378043Y-85566567D01*
X132378888Y-85637558D01*
X132341218Y-85697737D01*
X132276992Y-85727996D01*
X132257578Y-85729501D01*
X115343561Y-85729501D01*
X115318981Y-85727080D01*
X115304999Y-85724299D01*
X115265889Y-85732079D01*
X115241306Y-85734500D01*
X113837245Y-85734500D01*
X113769124Y-85714498D01*
X113722631Y-85660842D01*
X113712527Y-85590568D01*
X113721717Y-85558710D01*
X113723426Y-85555659D01*
X113725282Y-85550192D01*
X113725284Y-85550187D01*
X113787470Y-85366993D01*
X113787471Y-85366988D01*
X113789326Y-85361524D01*
X113790154Y-85355815D01*
X113790155Y-85355810D01*
X113816166Y-85176410D01*
X113818744Y-85158631D01*
X113820279Y-85100000D01*
X113801520Y-84895845D01*
X113779309Y-84817089D01*
X113747441Y-84704093D01*
X113747439Y-84704088D01*
X113745871Y-84698528D01*
X113655195Y-84514656D01*
X113590586Y-84428133D01*
X113535983Y-84355011D01*
X113535982Y-84355010D01*
X113532530Y-84350387D01*
X113381983Y-84211223D01*
X113377098Y-84208141D01*
X113372516Y-84204625D01*
X113374175Y-84202463D01*
X113334830Y-84157880D01*
X113324089Y-84087701D01*
X113352995Y-84022855D01*
X113378965Y-83999734D01*
X113381098Y-83998309D01*
X113381099Y-83998308D01*
X113391414Y-83991416D01*
X113398308Y-83981099D01*
X113399331Y-83979568D01*
X113415001Y-83960473D01*
X114235468Y-83140005D01*
X114254564Y-83124334D01*
X114256098Y-83123309D01*
X114256099Y-83123308D01*
X114266415Y-83116415D01*
X114325095Y-83028593D01*
X114328694Y-83010503D01*
X114340500Y-82951147D01*
X114343280Y-82937171D01*
X114345701Y-82925000D01*
X114342921Y-82911023D01*
X114340500Y-82886442D01*
X114340500Y-81158154D01*
X114360502Y-81090033D01*
X114377405Y-81069059D01*
X116294049Y-79152415D01*
X116356361Y-79118389D01*
X116383144Y-79115510D01*
X132037846Y-79115510D01*
X132105967Y-79135512D01*
X132126936Y-79152410D01*
X133052595Y-80078068D01*
X133086619Y-80140379D01*
X133089499Y-80167162D01*
X133089499Y-81366437D01*
X133087078Y-81391017D01*
X133084297Y-81404999D01*
X133099848Y-81483174D01*
X133104904Y-81508592D01*
X133111798Y-81518909D01*
X133111798Y-81518910D01*
X133156691Y-81586098D01*
X133163584Y-81596414D01*
X133173900Y-81603307D01*
X133173901Y-81603308D01*
X133175435Y-81604333D01*
X133194530Y-81620004D01*
X133487345Y-81912819D01*
X133521371Y-81975131D01*
X133516386Y-82044821D01*
X133516077Y-82045357D01*
X133454984Y-82233382D01*
X133454294Y-82239943D01*
X133454294Y-82239945D01*
X133453371Y-82248728D01*
X133434319Y-82430000D01*
X133435009Y-82436565D01*
X133452576Y-82603704D01*
X133454984Y-82626618D01*
X133516077Y-82814643D01*
X133614928Y-82985857D01*
X133619346Y-82990764D01*
X133619347Y-82990765D01*
X133723194Y-83106099D01*
X133747216Y-83132778D01*
X133907159Y-83248984D01*
X133913187Y-83251668D01*
X133913189Y-83251669D01*
X134081643Y-83326669D01*
X134087768Y-83329396D01*
X134184458Y-83349948D01*
X134274692Y-83369128D01*
X134274696Y-83369128D01*
X134281149Y-83370500D01*
X134478851Y-83370500D01*
X134485304Y-83369128D01*
X134485308Y-83369128D01*
X134575542Y-83349948D01*
X134672232Y-83329396D01*
X134678357Y-83326669D01*
X134846811Y-83251669D01*
X134846813Y-83251668D01*
X134852841Y-83248984D01*
X135012784Y-83132778D01*
X135036806Y-83106099D01*
X135140653Y-82990765D01*
X135140654Y-82990764D01*
X135145072Y-82985857D01*
X135243923Y-82814643D01*
X135305016Y-82626618D01*
X135307425Y-82603704D01*
X135324991Y-82436565D01*
X135325681Y-82430000D01*
X135306629Y-82248728D01*
X135305706Y-82239945D01*
X135305706Y-82239943D01*
X135305016Y-82233382D01*
X135243923Y-82045357D01*
X135227723Y-82017297D01*
X135164957Y-81908585D01*
X135145072Y-81874143D01*
X135109378Y-81834500D01*
X135017206Y-81732133D01*
X135017205Y-81732132D01*
X135012784Y-81727222D01*
X134852841Y-81611016D01*
X134846813Y-81608332D01*
X134846811Y-81608331D01*
X134678263Y-81533289D01*
X134678262Y-81533289D01*
X134672232Y-81530604D01*
X134568673Y-81508592D01*
X134485308Y-81490872D01*
X134485304Y-81490872D01*
X134478851Y-81489500D01*
X134281149Y-81489500D01*
X134274696Y-81490872D01*
X134274692Y-81490872D01*
X134191327Y-81508592D01*
X134087768Y-81530604D01*
X134081741Y-81533287D01*
X134081733Y-81533290D01*
X134006563Y-81566758D01*
X133936196Y-81576192D01*
X133871899Y-81546085D01*
X133866220Y-81540746D01*
X133657404Y-81331930D01*
X133623378Y-81269618D01*
X133620499Y-81242835D01*
X133620499Y-80748002D01*
X133640501Y-80679881D01*
X133694157Y-80633388D01*
X133764431Y-80623284D01*
X133820560Y-80646066D01*
X133872845Y-80684053D01*
X133907159Y-80708984D01*
X133913187Y-80711668D01*
X133913189Y-80711669D01*
X133991118Y-80746365D01*
X134087768Y-80789396D01*
X134184459Y-80809948D01*
X134274692Y-80829128D01*
X134274696Y-80829128D01*
X134281149Y-80830500D01*
X134478851Y-80830500D01*
X134485304Y-80829128D01*
X134485308Y-80829128D01*
X134575541Y-80809948D01*
X134672232Y-80789396D01*
X134768882Y-80746365D01*
X134846811Y-80711669D01*
X134846813Y-80711668D01*
X134852841Y-80708984D01*
X134887156Y-80684053D01*
X134984623Y-80613238D01*
X135012784Y-80592778D01*
X135051133Y-80550187D01*
X135140653Y-80450765D01*
X135140654Y-80450764D01*
X135145072Y-80445857D01*
X135243923Y-80274643D01*
X135305016Y-80086618D01*
X135307295Y-80064940D01*
X135324991Y-79896565D01*
X135325681Y-79890000D01*
X135305016Y-79693382D01*
X135243923Y-79505357D01*
X135145072Y-79334143D01*
X135012784Y-79187222D01*
X134883617Y-79093376D01*
X134858183Y-79074897D01*
X134858182Y-79074896D01*
X134852841Y-79071016D01*
X134846813Y-79068332D01*
X134846811Y-79068331D01*
X134678263Y-78993289D01*
X134678262Y-78993289D01*
X134672232Y-78990604D01*
X134570799Y-78969044D01*
X134485308Y-78950872D01*
X134485304Y-78950872D01*
X134478851Y-78949500D01*
X134281149Y-78949500D01*
X134274696Y-78950872D01*
X134274692Y-78950872D01*
X134189201Y-78969044D01*
X134087768Y-78990604D01*
X134081741Y-78993287D01*
X134081733Y-78993290D01*
X134006563Y-79026758D01*
X133936196Y-79036192D01*
X133871899Y-79006085D01*
X133866220Y-79000746D01*
X133205005Y-78339531D01*
X133189334Y-78320436D01*
X133188309Y-78318902D01*
X133188308Y-78318901D01*
X133181415Y-78308585D01*
X133093593Y-78249905D01*
X133091034Y-78249396D01*
X133081424Y-78247484D01*
X133081423Y-78247484D01*
X133002171Y-78231719D01*
X132990000Y-78229298D01*
X132976018Y-78232079D01*
X132951438Y-78234500D01*
X116114560Y-78234500D01*
X116089979Y-78232079D01*
X116088174Y-78231720D01*
X116088173Y-78231720D01*
X116076002Y-78229299D01*
X116063831Y-78231720D01*
X116049855Y-78234500D01*
X115984579Y-78247484D01*
X115984578Y-78247484D01*
X115972409Y-78249905D01*
X115884587Y-78308585D01*
X115877694Y-78318901D01*
X115877693Y-78318902D01*
X115876666Y-78320439D01*
X115860995Y-78339534D01*
X114033845Y-80166683D01*
X113971533Y-80200709D01*
X113900717Y-80195644D01*
X113843882Y-80153097D01*
X113819279Y-80089117D01*
X113802049Y-79901602D01*
X113801520Y-79895845D01*
X113791852Y-79861564D01*
X113747441Y-79704093D01*
X113747439Y-79704088D01*
X113745871Y-79698528D01*
X113655195Y-79514656D01*
X113532530Y-79350387D01*
X113397174Y-79225265D01*
X113360729Y-79164336D01*
X113363010Y-79093376D01*
X113403292Y-79034914D01*
X113412701Y-79027975D01*
X113445249Y-79006227D01*
X113445250Y-79006226D01*
X113467416Y-78991416D01*
X113474311Y-78981097D01*
X113474313Y-78981095D01*
X113475335Y-78979565D01*
X113491006Y-78960470D01*
X115499060Y-76952416D01*
X115561372Y-76918390D01*
X115588155Y-76915511D01*
X132386477Y-76915511D01*
X132454598Y-76935513D01*
X132475572Y-76952416D01*
X133033625Y-77510469D01*
X133049296Y-77529564D01*
X133050321Y-77531098D01*
X133057215Y-77541415D01*
X133106354Y-77574248D01*
X133145037Y-77600095D01*
X133217828Y-77614575D01*
X133234650Y-77617921D01*
X133248630Y-77620702D01*
X133262612Y-77617921D01*
X133287192Y-77615500D01*
X133385821Y-77615500D01*
X133453942Y-77635502D01*
X133500435Y-77689158D01*
X133505653Y-77702562D01*
X133516077Y-77734643D01*
X133519380Y-77740365D01*
X133519381Y-77740366D01*
X133542754Y-77780849D01*
X133614928Y-77905857D01*
X133619346Y-77910764D01*
X133619347Y-77910765D01*
X133686232Y-77985048D01*
X133747216Y-78052778D01*
X133907159Y-78168984D01*
X133913187Y-78171668D01*
X133913189Y-78171669D01*
X134070734Y-78241812D01*
X134087768Y-78249396D01*
X134184459Y-78269948D01*
X134274692Y-78289128D01*
X134274696Y-78289128D01*
X134281149Y-78290500D01*
X134478851Y-78290500D01*
X134485304Y-78289128D01*
X134485308Y-78289128D01*
X134575541Y-78269948D01*
X134672232Y-78249396D01*
X134689266Y-78241812D01*
X134846811Y-78171669D01*
X134846813Y-78171668D01*
X134852841Y-78168984D01*
X135012784Y-78052778D01*
X135073768Y-77985048D01*
X135140653Y-77910765D01*
X135140654Y-77910764D01*
X135145072Y-77905857D01*
X135217246Y-77780849D01*
X135240619Y-77740366D01*
X135240620Y-77740365D01*
X135243923Y-77734643D01*
X135305016Y-77546618D01*
X135306809Y-77529564D01*
X135324991Y-77356565D01*
X135325681Y-77350000D01*
X148674319Y-77350000D01*
X148675009Y-77356565D01*
X148693192Y-77529564D01*
X148694984Y-77546618D01*
X148756077Y-77734643D01*
X148759380Y-77740365D01*
X148759381Y-77740366D01*
X148782754Y-77780849D01*
X148854928Y-77905857D01*
X148859346Y-77910764D01*
X148859347Y-77910765D01*
X148926232Y-77985048D01*
X148987216Y-78052778D01*
X149147159Y-78168984D01*
X149153187Y-78171668D01*
X149153189Y-78171669D01*
X149310734Y-78241812D01*
X149327768Y-78249396D01*
X149424459Y-78269948D01*
X149514692Y-78289128D01*
X149514696Y-78289128D01*
X149521149Y-78290500D01*
X149718851Y-78290500D01*
X149725304Y-78289128D01*
X149725308Y-78289128D01*
X149815541Y-78269948D01*
X149912232Y-78249396D01*
X149929266Y-78241812D01*
X150086811Y-78171669D01*
X150086813Y-78171668D01*
X150092841Y-78168984D01*
X150252784Y-78052778D01*
X150313768Y-77985048D01*
X150380653Y-77910765D01*
X150380654Y-77910764D01*
X150385072Y-77905857D01*
X150457246Y-77780849D01*
X150480619Y-77740366D01*
X150480620Y-77740365D01*
X150483923Y-77734643D01*
X150545016Y-77546618D01*
X150546809Y-77529564D01*
X150564991Y-77356565D01*
X150565681Y-77350000D01*
X150553674Y-77235756D01*
X150545706Y-77159945D01*
X150545706Y-77159943D01*
X150545016Y-77153382D01*
X150483923Y-76965357D01*
X150476452Y-76952416D01*
X150388373Y-76799861D01*
X150385072Y-76794143D01*
X150294611Y-76693675D01*
X150257206Y-76652133D01*
X150257205Y-76652132D01*
X150252784Y-76647222D01*
X150144133Y-76568282D01*
X150098183Y-76534897D01*
X150098182Y-76534896D01*
X150092841Y-76531016D01*
X150086813Y-76528332D01*
X150086811Y-76528331D01*
X149918263Y-76453289D01*
X149918262Y-76453289D01*
X149912232Y-76450604D01*
X149815541Y-76430052D01*
X149725308Y-76410872D01*
X149725304Y-76410872D01*
X149718851Y-76409500D01*
X149521149Y-76409500D01*
X149514696Y-76410872D01*
X149514692Y-76410872D01*
X149424459Y-76430052D01*
X149327768Y-76450604D01*
X149321738Y-76453289D01*
X149321737Y-76453289D01*
X149153190Y-76528331D01*
X149153188Y-76528332D01*
X149147160Y-76531016D01*
X149141819Y-76534896D01*
X149141818Y-76534897D01*
X148998314Y-76639159D01*
X148987216Y-76647222D01*
X148982795Y-76652132D01*
X148982794Y-76652133D01*
X148945390Y-76693675D01*
X148854928Y-76794143D01*
X148851627Y-76799861D01*
X148763549Y-76952416D01*
X148756077Y-76965357D01*
X148694984Y-77153382D01*
X148694294Y-77159943D01*
X148694294Y-77159945D01*
X148686326Y-77235756D01*
X148674319Y-77350000D01*
X135325681Y-77350000D01*
X135313674Y-77235756D01*
X135305706Y-77159945D01*
X135305706Y-77159943D01*
X135305016Y-77153382D01*
X135243923Y-76965357D01*
X135236452Y-76952416D01*
X135148373Y-76799861D01*
X135145072Y-76794143D01*
X135054611Y-76693675D01*
X135017206Y-76652133D01*
X135017205Y-76652132D01*
X135012784Y-76647222D01*
X134904133Y-76568282D01*
X134858183Y-76534897D01*
X134858182Y-76534896D01*
X134852841Y-76531016D01*
X134846813Y-76528332D01*
X134846811Y-76528331D01*
X134678263Y-76453289D01*
X134678262Y-76453289D01*
X134672232Y-76450604D01*
X134575541Y-76430052D01*
X134485308Y-76410872D01*
X134485304Y-76410872D01*
X134478851Y-76409500D01*
X134281149Y-76409500D01*
X134274696Y-76410872D01*
X134274692Y-76410872D01*
X134184459Y-76430052D01*
X134087768Y-76450604D01*
X134081738Y-76453289D01*
X134081737Y-76453289D01*
X133913190Y-76528331D01*
X133913188Y-76528332D01*
X133907160Y-76531016D01*
X133901819Y-76534896D01*
X133901818Y-76534897D01*
X133758314Y-76639159D01*
X133747216Y-76647222D01*
X133742795Y-76652132D01*
X133742794Y-76652133D01*
X133705390Y-76693675D01*
X133614928Y-76794143D01*
X133611627Y-76799861D01*
X133523549Y-76952416D01*
X133516077Y-76965357D01*
X133514036Y-76971638D01*
X133514034Y-76971643D01*
X133511777Y-76978590D01*
X133471702Y-77037195D01*
X133406305Y-77064830D01*
X133336349Y-77052722D01*
X133302850Y-77028746D01*
X133000612Y-76726508D01*
X132966586Y-76664196D01*
X132971651Y-76593381D01*
X133019705Y-76532648D01*
X133081414Y-76491416D01*
X133088309Y-76481097D01*
X133088311Y-76481095D01*
X133089333Y-76479565D01*
X133105004Y-76460470D01*
X133866220Y-75699254D01*
X133928532Y-75665228D01*
X133999347Y-75670293D01*
X134006563Y-75673242D01*
X134081733Y-75706710D01*
X134081741Y-75706713D01*
X134087768Y-75709396D01*
X134182327Y-75729495D01*
X134274692Y-75749128D01*
X134274696Y-75749128D01*
X134281149Y-75750500D01*
X134478851Y-75750500D01*
X134485304Y-75749128D01*
X134485308Y-75749128D01*
X134577673Y-75729495D01*
X134672232Y-75709396D01*
X134678265Y-75706710D01*
X134846811Y-75631669D01*
X134846813Y-75631668D01*
X134852841Y-75628984D01*
X134874514Y-75613238D01*
X134946825Y-75560700D01*
X135012784Y-75512778D01*
X135145072Y-75365857D01*
X135243923Y-75194643D01*
X135305016Y-75006618D01*
X135316054Y-74901602D01*
X135324991Y-74816565D01*
X135325681Y-74810000D01*
X148674319Y-74810000D01*
X148675009Y-74816565D01*
X148683947Y-74901602D01*
X148694984Y-75006618D01*
X148756077Y-75194643D01*
X148854928Y-75365857D01*
X148987216Y-75512778D01*
X149053175Y-75560700D01*
X149125487Y-75613238D01*
X149147159Y-75628984D01*
X149153187Y-75631668D01*
X149153189Y-75631669D01*
X149321735Y-75706710D01*
X149327768Y-75709396D01*
X149422327Y-75729495D01*
X149514692Y-75749128D01*
X149514696Y-75749128D01*
X149521149Y-75750500D01*
X149718851Y-75750500D01*
X149725304Y-75749128D01*
X149725308Y-75749128D01*
X149817673Y-75729495D01*
X149912232Y-75709396D01*
X149918265Y-75706710D01*
X150086811Y-75631669D01*
X150086813Y-75631668D01*
X150092841Y-75628984D01*
X150114514Y-75613238D01*
X150186825Y-75560700D01*
X150252784Y-75512778D01*
X150385072Y-75365857D01*
X150483923Y-75194643D01*
X150545016Y-75006618D01*
X150556054Y-74901602D01*
X150564991Y-74816565D01*
X150565681Y-74810000D01*
X150553965Y-74698528D01*
X150545706Y-74619945D01*
X150545706Y-74619943D01*
X150545016Y-74613382D01*
X150483923Y-74425357D01*
X150385072Y-74254143D01*
X150353437Y-74219008D01*
X150257206Y-74112133D01*
X150257205Y-74112132D01*
X150252784Y-74107222D01*
X150128349Y-74016814D01*
X150098183Y-73994897D01*
X150098182Y-73994896D01*
X150092841Y-73991016D01*
X150086813Y-73988332D01*
X150086811Y-73988331D01*
X149918263Y-73913289D01*
X149918262Y-73913289D01*
X149912232Y-73910604D01*
X149815541Y-73890052D01*
X149725308Y-73870872D01*
X149725304Y-73870872D01*
X149718851Y-73869500D01*
X149521149Y-73869500D01*
X149514696Y-73870872D01*
X149514692Y-73870872D01*
X149424459Y-73890052D01*
X149327768Y-73910604D01*
X149321738Y-73913289D01*
X149321737Y-73913289D01*
X149153190Y-73988331D01*
X149153188Y-73988332D01*
X149147160Y-73991016D01*
X149141819Y-73994896D01*
X149141818Y-73994897D01*
X148994646Y-74101824D01*
X148987216Y-74107222D01*
X148982795Y-74112132D01*
X148982794Y-74112133D01*
X148886564Y-74219008D01*
X148854928Y-74254143D01*
X148756077Y-74425357D01*
X148694984Y-74613382D01*
X148694294Y-74619943D01*
X148694294Y-74619945D01*
X148686035Y-74698528D01*
X148674319Y-74810000D01*
X135325681Y-74810000D01*
X135313965Y-74698528D01*
X135305706Y-74619945D01*
X135305706Y-74619943D01*
X135305016Y-74613382D01*
X135243923Y-74425357D01*
X135145072Y-74254143D01*
X135113437Y-74219008D01*
X135017206Y-74112133D01*
X135017205Y-74112132D01*
X135012784Y-74107222D01*
X134888349Y-74016814D01*
X134858183Y-73994897D01*
X134858182Y-73994896D01*
X134852841Y-73991016D01*
X134846813Y-73988332D01*
X134846811Y-73988331D01*
X134678263Y-73913289D01*
X134678262Y-73913289D01*
X134672232Y-73910604D01*
X134575541Y-73890052D01*
X134485308Y-73870872D01*
X134485304Y-73870872D01*
X134478851Y-73869500D01*
X134281149Y-73869500D01*
X134274696Y-73870872D01*
X134274692Y-73870872D01*
X134184459Y-73890052D01*
X134087768Y-73910604D01*
X134081738Y-73913289D01*
X134081737Y-73913289D01*
X133913190Y-73988331D01*
X133913188Y-73988332D01*
X133907160Y-73991016D01*
X133901819Y-73994896D01*
X133901818Y-73994897D01*
X133754646Y-74101824D01*
X133747216Y-74107222D01*
X133742795Y-74112132D01*
X133742794Y-74112133D01*
X133646564Y-74219008D01*
X133614928Y-74254143D01*
X133516077Y-74425357D01*
X133454984Y-74613382D01*
X133454294Y-74619943D01*
X133454294Y-74619945D01*
X133446035Y-74698528D01*
X133434319Y-74810000D01*
X133435009Y-74816565D01*
X133443947Y-74901602D01*
X133454984Y-75006618D01*
X133457024Y-75012896D01*
X133516077Y-75194643D01*
X133514476Y-75195163D01*
X133522789Y-75257219D01*
X133492675Y-75321513D01*
X133487345Y-75327181D01*
X132816930Y-75997596D01*
X132754618Y-76031622D01*
X132727835Y-76034501D01*
X113941500Y-76034501D01*
X113873379Y-76014499D01*
X113826886Y-75960843D01*
X113815500Y-75908501D01*
X113815499Y-74117353D01*
X113815499Y-74111160D01*
X113807349Y-74070179D01*
X113776295Y-74023705D01*
X113729821Y-73992651D01*
X113701335Y-73986985D01*
X113694911Y-73985707D01*
X113694908Y-73985707D01*
X113688841Y-73984500D01*
X112700400Y-73984500D01*
X111711160Y-73984501D01*
X111670179Y-73992651D01*
X111623705Y-74023705D01*
X111592651Y-74070179D01*
X111590230Y-74082353D01*
X111585708Y-74105087D01*
X111584500Y-74111159D01*
X111584501Y-75070675D01*
X111584501Y-75804837D01*
X111564499Y-75872958D01*
X111510843Y-75919451D01*
X111440569Y-75929555D01*
X111375989Y-75900061D01*
X111369406Y-75893932D01*
X111221839Y-75746365D01*
X111187813Y-75684053D01*
X111192878Y-75613238D01*
X111201000Y-75595703D01*
X111220603Y-75560700D01*
X111220604Y-75560699D01*
X111223426Y-75555659D01*
X111225282Y-75550192D01*
X111225284Y-75550187D01*
X111287470Y-75366993D01*
X111287471Y-75366988D01*
X111289326Y-75361524D01*
X111290154Y-75355815D01*
X111290155Y-75355810D01*
X111313447Y-75195163D01*
X111318744Y-75158631D01*
X111320279Y-75100000D01*
X111301520Y-74895845D01*
X111279161Y-74816565D01*
X111247441Y-74704093D01*
X111247439Y-74704088D01*
X111245871Y-74698528D01*
X111155195Y-74514656D01*
X111032530Y-74350387D01*
X110916999Y-74243591D01*
X110886223Y-74215142D01*
X110886220Y-74215140D01*
X110881983Y-74211223D01*
X110708596Y-74101824D01*
X110518176Y-74025854D01*
X110512516Y-74024728D01*
X110512512Y-74024727D01*
X110322769Y-73986985D01*
X110322764Y-73986985D01*
X110317101Y-73985858D01*
X110311326Y-73985782D01*
X110311322Y-73985782D01*
X110208605Y-73984437D01*
X110112104Y-73983174D01*
X110106407Y-73984153D01*
X110106406Y-73984153D01*
X109916335Y-74016814D01*
X109910050Y-74017894D01*
X109717707Y-74088853D01*
X109712746Y-74091805D01*
X109712745Y-74091805D01*
X109676103Y-74113605D01*
X109541517Y-74193675D01*
X109387378Y-74328851D01*
X109383811Y-74333376D01*
X109383806Y-74333381D01*
X109306344Y-74431642D01*
X109260455Y-74489852D01*
X109257764Y-74494968D01*
X109257762Y-74494970D01*
X109228702Y-74550204D01*
X109164997Y-74671288D01*
X109104202Y-74867081D01*
X109080105Y-75070675D01*
X109093513Y-75275250D01*
X109143979Y-75473957D01*
X109229810Y-75660139D01*
X109233143Y-75664855D01*
X109293671Y-75750500D01*
X109348133Y-75827563D01*
X109494986Y-75970620D01*
X109665449Y-76084520D01*
X109670752Y-76086798D01*
X109670755Y-76086800D01*
X109760329Y-76125284D01*
X109853815Y-76165449D01*
X109927559Y-76182136D01*
X110048137Y-76209420D01*
X110048142Y-76209421D01*
X110053774Y-76210695D01*
X110059545Y-76210922D01*
X110059547Y-76210922D01*
X110121339Y-76213350D01*
X110258631Y-76218744D01*
X110360078Y-76204035D01*
X110455810Y-76190155D01*
X110455815Y-76190154D01*
X110461524Y-76189326D01*
X110466988Y-76187471D01*
X110466993Y-76187470D01*
X110650187Y-76125284D01*
X110650192Y-76125282D01*
X110655659Y-76123426D01*
X110695703Y-76101000D01*
X110764912Y-76085166D01*
X110831694Y-76109263D01*
X110846365Y-76121839D01*
X111184996Y-76460470D01*
X111200667Y-76479565D01*
X111201692Y-76481099D01*
X111208586Y-76491416D01*
X111218902Y-76498309D01*
X111263330Y-76527994D01*
X111296408Y-76550096D01*
X111313214Y-76553439D01*
X111400001Y-76570703D01*
X111413983Y-76567922D01*
X111438563Y-76565501D01*
X111852898Y-76565501D01*
X111921019Y-76585503D01*
X111967512Y-76639159D01*
X111977616Y-76709433D01*
X111948122Y-76774013D01*
X111935978Y-76786230D01*
X111887378Y-76828851D01*
X111883811Y-76833376D01*
X111883806Y-76833381D01*
X111774810Y-76971643D01*
X111760455Y-76989852D01*
X111757764Y-76994968D01*
X111757762Y-76994970D01*
X111670965Y-77159945D01*
X111664997Y-77171288D01*
X111604202Y-77367081D01*
X111580105Y-77570675D01*
X111593513Y-77775250D01*
X111594935Y-77780849D01*
X111626684Y-77905857D01*
X111643979Y-77973957D01*
X111729810Y-78160139D01*
X111733143Y-78164855D01*
X111821940Y-78290500D01*
X111848133Y-78327563D01*
X111848723Y-78328138D01*
X111877097Y-78391459D01*
X111866493Y-78461659D01*
X111819618Y-78514982D01*
X111752255Y-78534501D01*
X111562165Y-78534501D01*
X111494044Y-78514499D01*
X111473070Y-78497596D01*
X111221839Y-78246365D01*
X111187813Y-78184053D01*
X111192878Y-78113238D01*
X111201000Y-78095703D01*
X111220603Y-78060700D01*
X111220604Y-78060699D01*
X111223426Y-78055659D01*
X111225282Y-78050192D01*
X111225284Y-78050187D01*
X111287470Y-77866993D01*
X111287471Y-77866988D01*
X111289326Y-77861524D01*
X111290154Y-77855815D01*
X111290155Y-77855810D01*
X111309351Y-77723412D01*
X111318744Y-77658631D01*
X111320279Y-77600000D01*
X111301520Y-77395845D01*
X111290442Y-77356565D01*
X111247441Y-77204093D01*
X111247439Y-77204088D01*
X111245871Y-77198528D01*
X111155195Y-77014656D01*
X111055817Y-76881572D01*
X111035983Y-76855011D01*
X111035982Y-76855010D01*
X111032530Y-76850387D01*
X110941855Y-76766568D01*
X110886223Y-76715142D01*
X110886220Y-76715140D01*
X110881983Y-76711223D01*
X110708596Y-76601824D01*
X110518176Y-76525854D01*
X110512516Y-76524728D01*
X110512512Y-76524727D01*
X110322769Y-76486985D01*
X110322764Y-76486985D01*
X110317101Y-76485858D01*
X110311326Y-76485782D01*
X110311322Y-76485782D01*
X110208605Y-76484437D01*
X110112104Y-76483174D01*
X110106407Y-76484153D01*
X110106406Y-76484153D01*
X109915747Y-76516915D01*
X109910050Y-76517894D01*
X109717707Y-76588853D01*
X109712746Y-76591805D01*
X109712745Y-76591805D01*
X109621541Y-76646066D01*
X109541517Y-76693675D01*
X109387378Y-76828851D01*
X109383811Y-76833376D01*
X109383806Y-76833381D01*
X109274810Y-76971643D01*
X109260455Y-76989852D01*
X109257764Y-76994968D01*
X109257762Y-76994970D01*
X109170965Y-77159945D01*
X109164997Y-77171288D01*
X109104202Y-77367081D01*
X109080105Y-77570675D01*
X109093513Y-77775250D01*
X109094935Y-77780849D01*
X109126684Y-77905857D01*
X109143979Y-77973957D01*
X109229810Y-78160139D01*
X109233143Y-78164855D01*
X109321940Y-78290500D01*
X109348133Y-78327563D01*
X109494986Y-78470620D01*
X109665449Y-78584520D01*
X109670752Y-78586798D01*
X109670755Y-78586800D01*
X109795780Y-78640515D01*
X109853815Y-78665449D01*
X109903502Y-78676692D01*
X110048137Y-78709420D01*
X110048142Y-78709421D01*
X110053774Y-78710695D01*
X110059545Y-78710922D01*
X110059547Y-78710922D01*
X110121339Y-78713350D01*
X110258631Y-78718744D01*
X110360078Y-78704035D01*
X110455810Y-78690155D01*
X110455815Y-78690154D01*
X110461524Y-78689326D01*
X110466988Y-78687471D01*
X110466993Y-78687470D01*
X110650187Y-78625284D01*
X110650192Y-78625282D01*
X110655659Y-78623426D01*
X110695703Y-78601000D01*
X110764912Y-78585166D01*
X110831694Y-78609263D01*
X110846365Y-78621839D01*
X111184996Y-78960470D01*
X111200667Y-78979565D01*
X111201692Y-78981099D01*
X111208586Y-78991416D01*
X111218902Y-78998309D01*
X111263330Y-79027994D01*
X111296408Y-79050096D01*
X111313214Y-79053439D01*
X111400001Y-79070703D01*
X111413983Y-79067922D01*
X111438563Y-79065501D01*
X111852898Y-79065501D01*
X111921019Y-79085503D01*
X111967512Y-79139159D01*
X111977616Y-79209433D01*
X111948122Y-79274013D01*
X111935978Y-79286230D01*
X111887378Y-79328851D01*
X111883811Y-79333376D01*
X111883806Y-79333381D01*
X111775326Y-79470988D01*
X111760455Y-79489852D01*
X111757764Y-79494968D01*
X111757762Y-79494970D01*
X111671200Y-79659498D01*
X111664997Y-79671288D01*
X111604202Y-79867081D01*
X111580105Y-80070675D01*
X111593513Y-80275250D01*
X111643979Y-80473957D01*
X111646396Y-80479199D01*
X111646396Y-80479200D01*
X111655915Y-80499848D01*
X111729810Y-80660139D01*
X111848133Y-80827563D01*
X111848723Y-80828138D01*
X111877097Y-80891459D01*
X111866493Y-80961659D01*
X111819618Y-81014982D01*
X111752255Y-81034501D01*
X111562165Y-81034501D01*
X111494044Y-81014499D01*
X111473070Y-80997596D01*
X111221839Y-80746365D01*
X111187813Y-80684053D01*
X111192878Y-80613238D01*
X111201000Y-80595703D01*
X111220603Y-80560700D01*
X111220604Y-80560699D01*
X111223426Y-80555659D01*
X111225282Y-80550192D01*
X111225284Y-80550187D01*
X111287470Y-80366993D01*
X111287471Y-80366988D01*
X111289326Y-80361524D01*
X111290154Y-80355815D01*
X111290155Y-80355810D01*
X111309246Y-80224135D01*
X111318744Y-80158631D01*
X111320279Y-80100000D01*
X111301520Y-79895845D01*
X111291852Y-79861564D01*
X111247441Y-79704093D01*
X111247439Y-79704088D01*
X111245871Y-79698528D01*
X111155195Y-79514656D01*
X111032530Y-79350387D01*
X110881983Y-79211223D01*
X110708596Y-79101824D01*
X110518176Y-79025854D01*
X110512516Y-79024728D01*
X110512512Y-79024727D01*
X110322769Y-78986985D01*
X110322764Y-78986985D01*
X110317101Y-78985858D01*
X110311326Y-78985782D01*
X110311322Y-78985782D01*
X110208605Y-78984437D01*
X110112104Y-78983174D01*
X110106407Y-78984153D01*
X110106406Y-78984153D01*
X109977952Y-79006226D01*
X109910050Y-79017894D01*
X109717707Y-79088853D01*
X109712746Y-79091805D01*
X109712745Y-79091805D01*
X109552364Y-79187222D01*
X109541517Y-79193675D01*
X109387378Y-79328851D01*
X109383811Y-79333376D01*
X109383806Y-79333381D01*
X109275326Y-79470988D01*
X109260455Y-79489852D01*
X109257764Y-79494968D01*
X109257762Y-79494970D01*
X109171200Y-79659498D01*
X109164997Y-79671288D01*
X109104202Y-79867081D01*
X109080105Y-80070675D01*
X109093513Y-80275250D01*
X109143979Y-80473957D01*
X109146396Y-80479199D01*
X109146396Y-80479200D01*
X109155915Y-80499848D01*
X109229810Y-80660139D01*
X109348133Y-80827563D01*
X109494986Y-80970620D01*
X109665449Y-81084520D01*
X109670752Y-81086798D01*
X109670755Y-81086800D01*
X109848508Y-81163169D01*
X109853815Y-81165449D01*
X109927559Y-81182136D01*
X110048137Y-81209420D01*
X110048142Y-81209421D01*
X110053774Y-81210695D01*
X110059545Y-81210922D01*
X110059547Y-81210922D01*
X110121339Y-81213350D01*
X110258631Y-81218744D01*
X110360078Y-81204035D01*
X110455810Y-81190155D01*
X110455815Y-81190154D01*
X110461524Y-81189326D01*
X110466988Y-81187471D01*
X110466993Y-81187470D01*
X110650187Y-81125284D01*
X110650192Y-81125282D01*
X110655659Y-81123426D01*
X110695703Y-81101000D01*
X110764912Y-81085166D01*
X110831694Y-81109263D01*
X110846365Y-81121839D01*
X111184996Y-81460470D01*
X111200667Y-81479565D01*
X111201692Y-81481099D01*
X111208586Y-81491416D01*
X111218902Y-81498309D01*
X111282415Y-81540746D01*
X111296408Y-81550096D01*
X111313214Y-81553439D01*
X111400001Y-81570703D01*
X111413983Y-81567922D01*
X111438563Y-81565501D01*
X111852898Y-81565501D01*
X111921019Y-81585503D01*
X111967512Y-81639159D01*
X111977616Y-81709433D01*
X111948122Y-81774013D01*
X111935978Y-81786230D01*
X111887378Y-81828851D01*
X111883811Y-81833376D01*
X111883806Y-81833381D01*
X111778714Y-81966690D01*
X111760455Y-81989852D01*
X111757764Y-81994968D01*
X111757762Y-81994970D01*
X111667689Y-82166171D01*
X111664997Y-82171288D01*
X111604202Y-82367081D01*
X111580105Y-82570675D01*
X111593513Y-82775250D01*
X111643979Y-82973957D01*
X111646396Y-82979199D01*
X111646396Y-82979200D01*
X111720528Y-83140005D01*
X111729810Y-83160139D01*
X111733143Y-83164855D01*
X111818087Y-83285048D01*
X111848133Y-83327563D01*
X111848723Y-83328138D01*
X111877097Y-83391459D01*
X111866493Y-83461659D01*
X111819618Y-83514982D01*
X111752255Y-83534501D01*
X111562165Y-83534501D01*
X111494044Y-83514499D01*
X111473070Y-83497596D01*
X111221839Y-83246365D01*
X111187813Y-83184053D01*
X111192878Y-83113238D01*
X111201000Y-83095703D01*
X111220603Y-83060700D01*
X111220604Y-83060699D01*
X111223426Y-83055659D01*
X111225282Y-83050192D01*
X111225284Y-83050187D01*
X111287470Y-82866993D01*
X111287471Y-82866988D01*
X111289326Y-82861524D01*
X111290154Y-82855815D01*
X111290155Y-82855810D01*
X111318211Y-82662305D01*
X111318744Y-82658631D01*
X111320279Y-82600000D01*
X111301520Y-82395845D01*
X111299951Y-82390281D01*
X111247441Y-82204093D01*
X111247439Y-82204088D01*
X111245871Y-82198528D01*
X111155195Y-82014656D01*
X111050269Y-81874143D01*
X111035983Y-81855011D01*
X111035982Y-81855010D01*
X111032530Y-81850387D01*
X110941855Y-81766568D01*
X110886223Y-81715142D01*
X110886220Y-81715140D01*
X110881983Y-81711223D01*
X110708596Y-81601824D01*
X110518176Y-81525854D01*
X110512516Y-81524728D01*
X110512512Y-81524727D01*
X110322769Y-81486985D01*
X110322764Y-81486985D01*
X110317101Y-81485858D01*
X110311326Y-81485782D01*
X110311322Y-81485782D01*
X110208605Y-81484437D01*
X110112104Y-81483174D01*
X110106407Y-81484153D01*
X110106406Y-81484153D01*
X109977952Y-81506226D01*
X109910050Y-81517894D01*
X109717707Y-81588853D01*
X109712746Y-81591805D01*
X109712745Y-81591805D01*
X109643666Y-81632903D01*
X109541517Y-81693675D01*
X109387378Y-81828851D01*
X109383811Y-81833376D01*
X109383806Y-81833381D01*
X109278714Y-81966690D01*
X109260455Y-81989852D01*
X109257764Y-81994968D01*
X109257762Y-81994970D01*
X109167689Y-82166171D01*
X109164997Y-82171288D01*
X109104202Y-82367081D01*
X109080105Y-82570675D01*
X109093513Y-82775250D01*
X109143979Y-82973957D01*
X109146396Y-82979199D01*
X109146396Y-82979200D01*
X109220528Y-83140005D01*
X109229810Y-83160139D01*
X109233143Y-83164855D01*
X109318087Y-83285048D01*
X109348133Y-83327563D01*
X109494986Y-83470620D01*
X109665449Y-83584520D01*
X109670752Y-83586798D01*
X109670755Y-83586800D01*
X109760329Y-83625284D01*
X109853815Y-83665449D01*
X109927559Y-83682136D01*
X110048137Y-83709420D01*
X110048142Y-83709421D01*
X110053774Y-83710695D01*
X110059545Y-83710922D01*
X110059547Y-83710922D01*
X110121339Y-83713350D01*
X110258631Y-83718744D01*
X110360077Y-83704035D01*
X110455810Y-83690155D01*
X110455815Y-83690154D01*
X110461524Y-83689326D01*
X110466988Y-83687471D01*
X110466993Y-83687470D01*
X110650187Y-83625284D01*
X110650192Y-83625282D01*
X110655659Y-83623426D01*
X110695703Y-83601000D01*
X110764912Y-83585166D01*
X110831694Y-83609263D01*
X110846365Y-83621839D01*
X111184996Y-83960470D01*
X111200667Y-83979565D01*
X111201692Y-83981099D01*
X111208586Y-83991416D01*
X111218902Y-83998309D01*
X111263330Y-84027994D01*
X111296408Y-84050096D01*
X111313214Y-84053439D01*
X111400001Y-84070703D01*
X111413983Y-84067922D01*
X111438563Y-84065501D01*
X111852898Y-84065501D01*
X111921019Y-84085503D01*
X111967512Y-84139159D01*
X111977616Y-84209433D01*
X111948122Y-84274013D01*
X111935978Y-84286230D01*
X111887378Y-84328851D01*
X111883811Y-84333376D01*
X111883806Y-84333381D01*
X111769463Y-84478425D01*
X111760455Y-84489852D01*
X111757764Y-84494968D01*
X111757762Y-84494970D01*
X111667689Y-84666171D01*
X111664997Y-84671288D01*
X111604202Y-84867081D01*
X111580105Y-85070675D01*
X111586359Y-85166092D01*
X111591439Y-85243598D01*
X111593513Y-85275250D01*
X111643979Y-85473957D01*
X111729810Y-85660139D01*
X111848133Y-85827563D01*
X111852275Y-85831598D01*
X111941221Y-85918245D01*
X111976059Y-85980106D01*
X111971922Y-86050982D01*
X111930123Y-86108370D01*
X111863933Y-86134050D01*
X111853300Y-86134499D01*
X111662162Y-86134499D01*
X111594041Y-86114497D01*
X111573067Y-86097594D01*
X111221839Y-85746366D01*
X111187813Y-85684054D01*
X111192878Y-85613239D01*
X111200999Y-85595705D01*
X111217317Y-85566567D01*
X111223426Y-85555659D01*
X111225282Y-85550192D01*
X111225284Y-85550187D01*
X111287470Y-85366993D01*
X111287471Y-85366988D01*
X111289326Y-85361524D01*
X111290154Y-85355815D01*
X111290155Y-85355810D01*
X111316166Y-85176410D01*
X111318744Y-85158631D01*
X111320279Y-85100000D01*
X111301520Y-84895845D01*
X111279309Y-84817089D01*
X111247441Y-84704093D01*
X111247439Y-84704088D01*
X111245871Y-84698528D01*
X111155195Y-84514656D01*
X111090586Y-84428133D01*
X111035983Y-84355011D01*
X111035982Y-84355010D01*
X111032530Y-84350387D01*
X110881983Y-84211223D01*
X110708596Y-84101824D01*
X110518176Y-84025854D01*
X110512516Y-84024728D01*
X110512512Y-84024727D01*
X110322769Y-83986985D01*
X110322764Y-83986985D01*
X110317101Y-83985858D01*
X110311326Y-83985782D01*
X110311322Y-83985782D01*
X110208605Y-83984437D01*
X110112104Y-83983174D01*
X110106407Y-83984153D01*
X110106406Y-83984153D01*
X109915747Y-84016915D01*
X109910050Y-84017894D01*
X109717707Y-84088853D01*
X109712746Y-84091805D01*
X109712745Y-84091805D01*
X109628409Y-84141980D01*
X109541517Y-84193675D01*
X109387378Y-84328851D01*
X109383811Y-84333376D01*
X109383806Y-84333381D01*
X109269463Y-84478425D01*
X109260455Y-84489852D01*
X109257764Y-84494968D01*
X109257762Y-84494970D01*
X109167689Y-84666171D01*
X109164997Y-84671288D01*
X109104202Y-84867081D01*
X109080105Y-85070675D01*
X109086359Y-85166092D01*
X109091439Y-85243598D01*
X109093513Y-85275250D01*
X109143979Y-85473957D01*
X109229810Y-85660139D01*
X109348133Y-85827563D01*
X109494986Y-85970620D01*
X109665449Y-86084520D01*
X109670752Y-86086798D01*
X109670755Y-86086800D01*
X109760329Y-86125284D01*
X109853815Y-86165449D01*
X109927559Y-86182136D01*
X110048137Y-86209420D01*
X110048142Y-86209421D01*
X110053774Y-86210695D01*
X110059545Y-86210922D01*
X110059547Y-86210922D01*
X110121339Y-86213350D01*
X110258631Y-86218744D01*
X110360078Y-86204035D01*
X110455810Y-86190155D01*
X110455815Y-86190154D01*
X110461524Y-86189326D01*
X110466988Y-86187471D01*
X110466993Y-86187470D01*
X110650187Y-86125284D01*
X110650192Y-86125282D01*
X110655659Y-86123426D01*
X110695705Y-86100999D01*
X110764914Y-86085166D01*
X110831696Y-86109263D01*
X110846366Y-86121839D01*
X111284992Y-86560465D01*
X111300663Y-86579560D01*
X111301690Y-86581097D01*
X111308584Y-86591414D01*
X111396406Y-86650094D01*
X111469197Y-86664574D01*
X111486019Y-86667920D01*
X111499999Y-86670701D01*
X111513981Y-86667920D01*
X111538561Y-86665499D01*
X111756379Y-86665499D01*
X111824500Y-86685501D01*
X111870993Y-86739157D01*
X111881097Y-86809431D01*
X111855329Y-86869505D01*
X111760455Y-86989852D01*
X111664997Y-87171288D01*
X111604202Y-87367081D01*
X111580105Y-87570675D01*
X111593513Y-87775250D01*
X111643979Y-87973957D01*
X111729810Y-88160139D01*
X111848133Y-88327563D01*
X111848723Y-88328138D01*
X111877097Y-88391459D01*
X111866493Y-88461659D01*
X111819618Y-88514982D01*
X111752255Y-88534501D01*
X111562165Y-88534501D01*
X111494044Y-88514499D01*
X111473070Y-88497596D01*
X111221839Y-88246365D01*
X111187813Y-88184053D01*
X111192878Y-88113238D01*
X111201000Y-88095703D01*
X111220603Y-88060700D01*
X111220604Y-88060699D01*
X111223426Y-88055659D01*
X111225282Y-88050192D01*
X111225284Y-88050187D01*
X111287470Y-87866993D01*
X111287471Y-87866988D01*
X111289326Y-87861524D01*
X111290154Y-87855815D01*
X111290155Y-87855810D01*
X111309351Y-87723412D01*
X111318744Y-87658631D01*
X111320279Y-87600000D01*
X111301520Y-87395845D01*
X111276493Y-87307104D01*
X111247441Y-87204093D01*
X111247439Y-87204088D01*
X111245871Y-87198528D01*
X111155195Y-87014656D01*
X111032530Y-86850387D01*
X110912202Y-86739157D01*
X110886223Y-86715142D01*
X110886220Y-86715140D01*
X110881983Y-86711223D01*
X110708596Y-86601824D01*
X110518176Y-86525854D01*
X110512516Y-86524728D01*
X110512512Y-86524727D01*
X110322769Y-86486985D01*
X110322764Y-86486985D01*
X110317101Y-86485858D01*
X110311326Y-86485782D01*
X110311322Y-86485782D01*
X110208605Y-86484437D01*
X110112104Y-86483174D01*
X110106407Y-86484153D01*
X110106406Y-86484153D01*
X109915747Y-86516915D01*
X109910050Y-86517894D01*
X109717707Y-86588853D01*
X109712746Y-86591805D01*
X109712745Y-86591805D01*
X109588877Y-86665499D01*
X109541517Y-86693675D01*
X109387378Y-86828851D01*
X109383811Y-86833376D01*
X109383806Y-86833381D01*
X109284098Y-86959861D01*
X109260455Y-86989852D01*
X109164997Y-87171288D01*
X109104202Y-87367081D01*
X109080105Y-87570675D01*
X109093513Y-87775250D01*
X109143979Y-87973957D01*
X109229810Y-88160139D01*
X109348133Y-88327563D01*
X109494986Y-88470620D01*
X109665449Y-88584520D01*
X109670752Y-88586798D01*
X109670755Y-88586800D01*
X109795780Y-88640515D01*
X109853815Y-88665449D01*
X109927559Y-88682136D01*
X110048137Y-88709420D01*
X110048142Y-88709421D01*
X110053774Y-88710695D01*
X110059545Y-88710922D01*
X110059547Y-88710922D01*
X110121339Y-88713350D01*
X110258631Y-88718744D01*
X110360078Y-88704035D01*
X110455810Y-88690155D01*
X110455815Y-88690154D01*
X110461524Y-88689326D01*
X110466988Y-88687471D01*
X110466993Y-88687470D01*
X110650187Y-88625284D01*
X110650192Y-88625282D01*
X110655659Y-88623426D01*
X110695703Y-88601000D01*
X110764912Y-88585166D01*
X110831694Y-88609263D01*
X110846365Y-88621839D01*
X111184996Y-88960470D01*
X111200667Y-88979565D01*
X111201692Y-88981099D01*
X111208586Y-88991416D01*
X111218902Y-88998309D01*
X111263330Y-89027994D01*
X111296408Y-89050096D01*
X111313214Y-89053439D01*
X111400001Y-89070703D01*
X111413983Y-89067922D01*
X111438563Y-89065501D01*
X111852898Y-89065501D01*
X111921019Y-89085503D01*
X111967512Y-89139159D01*
X111977616Y-89209433D01*
X111948122Y-89274013D01*
X111935978Y-89286230D01*
X111887378Y-89328851D01*
X111883811Y-89333376D01*
X111883806Y-89333381D01*
X111764033Y-89485313D01*
X111760455Y-89489852D01*
X111664997Y-89671288D01*
X111604202Y-89867081D01*
X111580105Y-90070675D01*
X111593513Y-90275250D01*
X111643979Y-90473957D01*
X111729810Y-90660139D01*
X111848133Y-90827563D01*
X111852275Y-90831598D01*
X111941221Y-90918245D01*
X111976059Y-90980106D01*
X111971922Y-91050982D01*
X111930123Y-91108370D01*
X111863933Y-91134050D01*
X111853300Y-91134499D01*
X111662162Y-91134499D01*
X111594041Y-91114497D01*
X111573067Y-91097594D01*
X111221839Y-90746366D01*
X111187813Y-90684054D01*
X111192878Y-90613239D01*
X111200999Y-90595705D01*
X111223426Y-90555659D01*
X111225282Y-90550192D01*
X111225284Y-90550187D01*
X111287470Y-90366993D01*
X111287471Y-90366988D01*
X111289326Y-90361524D01*
X111290154Y-90355815D01*
X111290155Y-90355810D01*
X111318211Y-90162305D01*
X111318744Y-90158631D01*
X111320279Y-90100000D01*
X111301520Y-89895845D01*
X111291852Y-89861564D01*
X111247441Y-89704093D01*
X111247439Y-89704088D01*
X111245871Y-89698528D01*
X111155195Y-89514656D01*
X111032530Y-89350387D01*
X110881983Y-89211223D01*
X110708596Y-89101824D01*
X110518176Y-89025854D01*
X110512516Y-89024728D01*
X110512512Y-89024727D01*
X110322769Y-88986985D01*
X110322764Y-88986985D01*
X110317101Y-88985858D01*
X110311326Y-88985782D01*
X110311322Y-88985782D01*
X110208605Y-88984437D01*
X110112104Y-88983174D01*
X110106407Y-88984153D01*
X110106406Y-88984153D01*
X109977952Y-89006226D01*
X109910050Y-89017894D01*
X109717707Y-89088853D01*
X109712746Y-89091805D01*
X109712745Y-89091805D01*
X109621541Y-89146066D01*
X109541517Y-89193675D01*
X109387378Y-89328851D01*
X109383811Y-89333376D01*
X109383806Y-89333381D01*
X109264033Y-89485313D01*
X109260455Y-89489852D01*
X109164997Y-89671288D01*
X109104202Y-89867081D01*
X109080105Y-90070675D01*
X109093513Y-90275250D01*
X109143979Y-90473957D01*
X109229810Y-90660139D01*
X109348133Y-90827563D01*
X109494986Y-90970620D01*
X109665449Y-91084520D01*
X109670752Y-91086798D01*
X109670755Y-91086800D01*
X109760329Y-91125284D01*
X109853815Y-91165449D01*
X109927559Y-91182136D01*
X110048137Y-91209420D01*
X110048142Y-91209421D01*
X110053774Y-91210695D01*
X110059545Y-91210922D01*
X110059547Y-91210922D01*
X110121339Y-91213350D01*
X110258631Y-91218744D01*
X110360077Y-91204035D01*
X110455810Y-91190155D01*
X110455815Y-91190154D01*
X110461524Y-91189326D01*
X110466988Y-91187471D01*
X110466993Y-91187470D01*
X110650187Y-91125284D01*
X110650192Y-91125282D01*
X110655659Y-91123426D01*
X110695705Y-91100999D01*
X110764914Y-91085166D01*
X110831696Y-91109263D01*
X110846366Y-91121839D01*
X111284992Y-91560465D01*
X111300663Y-91579560D01*
X111301690Y-91581097D01*
X111308584Y-91591414D01*
X111373068Y-91634500D01*
X111396406Y-91650094D01*
X111408574Y-91652514D01*
X111408575Y-91652515D01*
X111487828Y-91668280D01*
X111499999Y-91670701D01*
X111513981Y-91667920D01*
X111538561Y-91665499D01*
X111756379Y-91665499D01*
X111824500Y-91685501D01*
X111870993Y-91739157D01*
X111881097Y-91809431D01*
X111855329Y-91869505D01*
X111760455Y-91989852D01*
X111664997Y-92171288D01*
X111604202Y-92367081D01*
X111580105Y-92570675D01*
X111593513Y-92775250D01*
X111643979Y-92973957D01*
X111729810Y-93160139D01*
X111848133Y-93327563D01*
X111848723Y-93328138D01*
X111877097Y-93391459D01*
X111866493Y-93461659D01*
X111819618Y-93514982D01*
X111752255Y-93534501D01*
X111562165Y-93534501D01*
X111494044Y-93514499D01*
X111473070Y-93497596D01*
X111221839Y-93246365D01*
X111187813Y-93184053D01*
X111192878Y-93113238D01*
X111201000Y-93095703D01*
X111220603Y-93060700D01*
X111220604Y-93060699D01*
X111223426Y-93055659D01*
X111225282Y-93050192D01*
X111225284Y-93050187D01*
X111287470Y-92866993D01*
X111287471Y-92866988D01*
X111289326Y-92861524D01*
X111290154Y-92855815D01*
X111290155Y-92855810D01*
X111318211Y-92662305D01*
X111318744Y-92658631D01*
X111320279Y-92600000D01*
X111301520Y-92395845D01*
X111291852Y-92361564D01*
X111247441Y-92204093D01*
X111247439Y-92204088D01*
X111245871Y-92198528D01*
X111155195Y-92014656D01*
X111032530Y-91850387D01*
X110912202Y-91739157D01*
X110886223Y-91715142D01*
X110886220Y-91715140D01*
X110881983Y-91711223D01*
X110708596Y-91601824D01*
X110518176Y-91525854D01*
X110512516Y-91524728D01*
X110512512Y-91524727D01*
X110322769Y-91486985D01*
X110322764Y-91486985D01*
X110317101Y-91485858D01*
X110311326Y-91485782D01*
X110311322Y-91485782D01*
X110208605Y-91484437D01*
X110112104Y-91483174D01*
X110106407Y-91484153D01*
X110106406Y-91484153D01*
X109915747Y-91516915D01*
X109910050Y-91517894D01*
X109717707Y-91588853D01*
X109712746Y-91591805D01*
X109712745Y-91591805D01*
X109563091Y-91680840D01*
X109541517Y-91693675D01*
X109387378Y-91828851D01*
X109383811Y-91833376D01*
X109383806Y-91833381D01*
X109346586Y-91880595D01*
X109260455Y-91989852D01*
X109164997Y-92171288D01*
X109104202Y-92367081D01*
X109080105Y-92570675D01*
X109093513Y-92775250D01*
X109143979Y-92973957D01*
X109229810Y-93160139D01*
X109348133Y-93327563D01*
X109494986Y-93470620D01*
X109665449Y-93584520D01*
X109670752Y-93586798D01*
X109670755Y-93586800D01*
X109760329Y-93625284D01*
X109853815Y-93665449D01*
X109927559Y-93682136D01*
X110048137Y-93709420D01*
X110048142Y-93709421D01*
X110053774Y-93710695D01*
X110059545Y-93710922D01*
X110059547Y-93710922D01*
X110121339Y-93713350D01*
X110258631Y-93718744D01*
X110360078Y-93704035D01*
X110455810Y-93690155D01*
X110455815Y-93690154D01*
X110461524Y-93689326D01*
X110466988Y-93687471D01*
X110466993Y-93687470D01*
X110650187Y-93625284D01*
X110650192Y-93625282D01*
X110655659Y-93623426D01*
X110695703Y-93601000D01*
X110764912Y-93585166D01*
X110831694Y-93609263D01*
X110846365Y-93621839D01*
X111184996Y-93960470D01*
X111200667Y-93979565D01*
X111201692Y-93981099D01*
X111208586Y-93991416D01*
X111218902Y-93998309D01*
X111263330Y-94027994D01*
X111296408Y-94050096D01*
X111313214Y-94053439D01*
X111400001Y-94070703D01*
X111413983Y-94067922D01*
X111438563Y-94065501D01*
X111852898Y-94065501D01*
X111921019Y-94085503D01*
X111967512Y-94139159D01*
X111977616Y-94209433D01*
X111948122Y-94274013D01*
X111935978Y-94286230D01*
X111887378Y-94328851D01*
X111883811Y-94333376D01*
X111883806Y-94333381D01*
X111764033Y-94485313D01*
X111760455Y-94489852D01*
X111757764Y-94494968D01*
X111757762Y-94494970D01*
X111667689Y-94666171D01*
X111664997Y-94671288D01*
X111604202Y-94867081D01*
X111580105Y-95070675D01*
X111593513Y-95275250D01*
X111643979Y-95473957D01*
X111729810Y-95660139D01*
X111848133Y-95827563D01*
X111848723Y-95828138D01*
X111877097Y-95891459D01*
X111866493Y-95961659D01*
X111819618Y-96014982D01*
X111752255Y-96034501D01*
X111562165Y-96034501D01*
X111494044Y-96014499D01*
X111473070Y-95997596D01*
X111221839Y-95746365D01*
X111187813Y-95684053D01*
X111192878Y-95613238D01*
X111201000Y-95595703D01*
X111220603Y-95560700D01*
X111220604Y-95560699D01*
X111223426Y-95555659D01*
X111225282Y-95550192D01*
X111225284Y-95550187D01*
X111287470Y-95366993D01*
X111287471Y-95366988D01*
X111289326Y-95361524D01*
X111290154Y-95355815D01*
X111290155Y-95355810D01*
X111318211Y-95162305D01*
X111318744Y-95158631D01*
X111320279Y-95100000D01*
X111301520Y-94895845D01*
X111291852Y-94861564D01*
X111247441Y-94704093D01*
X111247439Y-94704088D01*
X111245871Y-94698528D01*
X111155195Y-94514656D01*
X111032530Y-94350387D01*
X110881983Y-94211223D01*
X110708596Y-94101824D01*
X110518176Y-94025854D01*
X110512516Y-94024728D01*
X110512512Y-94024727D01*
X110322769Y-93986985D01*
X110322764Y-93986985D01*
X110317101Y-93985858D01*
X110311326Y-93985782D01*
X110311322Y-93985782D01*
X110208605Y-93984437D01*
X110112104Y-93983174D01*
X110106407Y-93984153D01*
X110106406Y-93984153D01*
X110015709Y-93999738D01*
X109910050Y-94017894D01*
X109717707Y-94088853D01*
X109541517Y-94193675D01*
X109387378Y-94328851D01*
X109383811Y-94333376D01*
X109383806Y-94333381D01*
X109264033Y-94485313D01*
X109260455Y-94489852D01*
X109257764Y-94494968D01*
X109257762Y-94494970D01*
X109167689Y-94666171D01*
X109164997Y-94671288D01*
X109104202Y-94867081D01*
X109080105Y-95070675D01*
X109093513Y-95275250D01*
X109143979Y-95473957D01*
X109229810Y-95660139D01*
X109348133Y-95827563D01*
X109494986Y-95970620D01*
X109665449Y-96084520D01*
X109670752Y-96086798D01*
X109670755Y-96086800D01*
X109760329Y-96125284D01*
X109853815Y-96165449D01*
X109927559Y-96182136D01*
X110048137Y-96209420D01*
X110048142Y-96209421D01*
X110053774Y-96210695D01*
X110059545Y-96210922D01*
X110059547Y-96210922D01*
X110121339Y-96213350D01*
X110258631Y-96218744D01*
X110360078Y-96204035D01*
X110455810Y-96190155D01*
X110455815Y-96190154D01*
X110461524Y-96189326D01*
X110466988Y-96187471D01*
X110466993Y-96187470D01*
X110650187Y-96125284D01*
X110650192Y-96125282D01*
X110655659Y-96123426D01*
X110695703Y-96101000D01*
X110764912Y-96085166D01*
X110831694Y-96109263D01*
X110846365Y-96121839D01*
X111184996Y-96460470D01*
X111200667Y-96479565D01*
X111201692Y-96481099D01*
X111208586Y-96491416D01*
X111218902Y-96498309D01*
X111263330Y-96527994D01*
X111296408Y-96550096D01*
X111313214Y-96553439D01*
X111400001Y-96570703D01*
X111413983Y-96567922D01*
X111438563Y-96565501D01*
X111852898Y-96565501D01*
X111921019Y-96585503D01*
X111967512Y-96639159D01*
X111977616Y-96709433D01*
X111948122Y-96774013D01*
X111935978Y-96786230D01*
X111887378Y-96828851D01*
X111883811Y-96833376D01*
X111883806Y-96833381D01*
X111764033Y-96985313D01*
X111760455Y-96989852D01*
X111664997Y-97171288D01*
X111604202Y-97367081D01*
X111580105Y-97570675D01*
X111593513Y-97775250D01*
X111643979Y-97973957D01*
X111729810Y-98160139D01*
X111848133Y-98327563D01*
X111848723Y-98328138D01*
X111877097Y-98391459D01*
X111866493Y-98461659D01*
X111819618Y-98514982D01*
X111752255Y-98534501D01*
X111562165Y-98534501D01*
X111494044Y-98514499D01*
X111473070Y-98497596D01*
X111221839Y-98246365D01*
X111187813Y-98184053D01*
X111192878Y-98113238D01*
X111201000Y-98095703D01*
X111220603Y-98060700D01*
X111220604Y-98060699D01*
X111223426Y-98055659D01*
X111225282Y-98050192D01*
X111225284Y-98050187D01*
X111287470Y-97866993D01*
X111287471Y-97866988D01*
X111289326Y-97861524D01*
X111290154Y-97855815D01*
X111290155Y-97855810D01*
X111313377Y-97695644D01*
X111318744Y-97658631D01*
X111320279Y-97600000D01*
X111301520Y-97395845D01*
X111291852Y-97361564D01*
X111247441Y-97204093D01*
X111247439Y-97204088D01*
X111245871Y-97198528D01*
X111155195Y-97014656D01*
X111032530Y-96850387D01*
X110881983Y-96711223D01*
X110708596Y-96601824D01*
X110518176Y-96525854D01*
X110512516Y-96524728D01*
X110512512Y-96524727D01*
X110322769Y-96486985D01*
X110322764Y-96486985D01*
X110317101Y-96485858D01*
X110311326Y-96485782D01*
X110311322Y-96485782D01*
X110208605Y-96484437D01*
X110112104Y-96483174D01*
X110106407Y-96484153D01*
X110106406Y-96484153D01*
X109977952Y-96506226D01*
X109910050Y-96517894D01*
X109717707Y-96588853D01*
X109712746Y-96591805D01*
X109712745Y-96591805D01*
X109710105Y-96593376D01*
X109541517Y-96693675D01*
X109387378Y-96828851D01*
X109383811Y-96833376D01*
X109383806Y-96833381D01*
X109264033Y-96985313D01*
X109260455Y-96989852D01*
X109164997Y-97171288D01*
X109104202Y-97367081D01*
X109080105Y-97570675D01*
X108817584Y-97570675D01*
X108801520Y-97395845D01*
X108791852Y-97361564D01*
X108747441Y-97204093D01*
X108747439Y-97204088D01*
X108745871Y-97198528D01*
X108655195Y-97014656D01*
X108532530Y-96850387D01*
X108381983Y-96711223D01*
X108208596Y-96601824D01*
X108018176Y-96525854D01*
X108012516Y-96524728D01*
X108012512Y-96524727D01*
X107822769Y-96486985D01*
X107822764Y-96486985D01*
X107817101Y-96485858D01*
X107811326Y-96485782D01*
X107811322Y-96485782D01*
X107708605Y-96484437D01*
X107612104Y-96483174D01*
X107606407Y-96484153D01*
X107606406Y-96484153D01*
X107477952Y-96506226D01*
X107410050Y-96517894D01*
X107217707Y-96588853D01*
X107212746Y-96591805D01*
X107212745Y-96591805D01*
X107210105Y-96593376D01*
X107041517Y-96693675D01*
X106887378Y-96828851D01*
X106883811Y-96833376D01*
X106883806Y-96833381D01*
X106764033Y-96985313D01*
X106760455Y-96989852D01*
X106664997Y-97171288D01*
X106604202Y-97367081D01*
X106580105Y-97570675D01*
X106317584Y-97570675D01*
X106301520Y-97395845D01*
X106291852Y-97361564D01*
X106247441Y-97204093D01*
X106247439Y-97204088D01*
X106245871Y-97198528D01*
X106155195Y-97014656D01*
X106032530Y-96850387D01*
X105881983Y-96711223D01*
X105708596Y-96601824D01*
X105518176Y-96525854D01*
X105512516Y-96524728D01*
X105512512Y-96524727D01*
X105322769Y-96486985D01*
X105322764Y-96486985D01*
X105317101Y-96485858D01*
X105311326Y-96485782D01*
X105311322Y-96485782D01*
X105208605Y-96484437D01*
X105112104Y-96483174D01*
X105106407Y-96484153D01*
X105106406Y-96484153D01*
X104977952Y-96506226D01*
X104910050Y-96517894D01*
X104717707Y-96588853D01*
X104712746Y-96591805D01*
X104712745Y-96591805D01*
X104710105Y-96593376D01*
X104541517Y-96693675D01*
X104387378Y-96828851D01*
X104383811Y-96833376D01*
X104383806Y-96833381D01*
X104264033Y-96985313D01*
X104260455Y-96989852D01*
X104164997Y-97171288D01*
X104104202Y-97367081D01*
X104080105Y-97570675D01*
X100140500Y-97570675D01*
X100140500Y-95070675D01*
X104080105Y-95070675D01*
X104093513Y-95275250D01*
X104143979Y-95473957D01*
X104229810Y-95660139D01*
X104348133Y-95827563D01*
X104494986Y-95970620D01*
X104665449Y-96084520D01*
X104670752Y-96086798D01*
X104670755Y-96086800D01*
X104760329Y-96125284D01*
X104853815Y-96165449D01*
X104927559Y-96182136D01*
X105048137Y-96209420D01*
X105048142Y-96209421D01*
X105053774Y-96210695D01*
X105059545Y-96210922D01*
X105059547Y-96210922D01*
X105121339Y-96213350D01*
X105258631Y-96218744D01*
X105360078Y-96204035D01*
X105455810Y-96190155D01*
X105455815Y-96190154D01*
X105461524Y-96189326D01*
X105466988Y-96187471D01*
X105466993Y-96187470D01*
X105650187Y-96125284D01*
X105650192Y-96125282D01*
X105655659Y-96123426D01*
X105680949Y-96109263D01*
X105829495Y-96026073D01*
X105829499Y-96026070D01*
X105834533Y-96023251D01*
X105838970Y-96019561D01*
X105838974Y-96019558D01*
X105987719Y-95895848D01*
X105992157Y-95892157D01*
X106049805Y-95822843D01*
X106119558Y-95738974D01*
X106119561Y-95738970D01*
X106123251Y-95734533D01*
X106126070Y-95729499D01*
X106126073Y-95729495D01*
X106220603Y-95560700D01*
X106220603Y-95560699D01*
X106223426Y-95555659D01*
X106225282Y-95550192D01*
X106225284Y-95550187D01*
X106287470Y-95366993D01*
X106287471Y-95366988D01*
X106289326Y-95361524D01*
X106290154Y-95355815D01*
X106290155Y-95355810D01*
X106318211Y-95162305D01*
X106318744Y-95158631D01*
X106320279Y-95100000D01*
X106317584Y-95070675D01*
X106580105Y-95070675D01*
X106593513Y-95275250D01*
X106643979Y-95473957D01*
X106729810Y-95660139D01*
X106848133Y-95827563D01*
X106994986Y-95970620D01*
X107165449Y-96084520D01*
X107170752Y-96086798D01*
X107170755Y-96086800D01*
X107260329Y-96125284D01*
X107353815Y-96165449D01*
X107427559Y-96182136D01*
X107548137Y-96209420D01*
X107548142Y-96209421D01*
X107553774Y-96210695D01*
X107559545Y-96210922D01*
X107559547Y-96210922D01*
X107621339Y-96213350D01*
X107758631Y-96218744D01*
X107860078Y-96204035D01*
X107955810Y-96190155D01*
X107955815Y-96190154D01*
X107961524Y-96189326D01*
X107966988Y-96187471D01*
X107966993Y-96187470D01*
X108150187Y-96125284D01*
X108150192Y-96125282D01*
X108155659Y-96123426D01*
X108180949Y-96109263D01*
X108329495Y-96026073D01*
X108329499Y-96026070D01*
X108334533Y-96023251D01*
X108338970Y-96019561D01*
X108338974Y-96019558D01*
X108487719Y-95895848D01*
X108492157Y-95892157D01*
X108549805Y-95822843D01*
X108619558Y-95738974D01*
X108619561Y-95738970D01*
X108623251Y-95734533D01*
X108626070Y-95729499D01*
X108626073Y-95729495D01*
X108720603Y-95560700D01*
X108720603Y-95560699D01*
X108723426Y-95555659D01*
X108725282Y-95550192D01*
X108725284Y-95550187D01*
X108787470Y-95366993D01*
X108787471Y-95366988D01*
X108789326Y-95361524D01*
X108790154Y-95355815D01*
X108790155Y-95355810D01*
X108818211Y-95162305D01*
X108818744Y-95158631D01*
X108820279Y-95100000D01*
X108801520Y-94895845D01*
X108791852Y-94861564D01*
X108747441Y-94704093D01*
X108747439Y-94704088D01*
X108745871Y-94698528D01*
X108655195Y-94514656D01*
X108532530Y-94350387D01*
X108381983Y-94211223D01*
X108208596Y-94101824D01*
X108018176Y-94025854D01*
X108012516Y-94024728D01*
X108012512Y-94024727D01*
X107822769Y-93986985D01*
X107822764Y-93986985D01*
X107817101Y-93985858D01*
X107811326Y-93985782D01*
X107811322Y-93985782D01*
X107708605Y-93984437D01*
X107612104Y-93983174D01*
X107606407Y-93984153D01*
X107606406Y-93984153D01*
X107515709Y-93999738D01*
X107410050Y-94017894D01*
X107217707Y-94088853D01*
X107041517Y-94193675D01*
X106887378Y-94328851D01*
X106883811Y-94333376D01*
X106883806Y-94333381D01*
X106764033Y-94485313D01*
X106760455Y-94489852D01*
X106757764Y-94494968D01*
X106757762Y-94494970D01*
X106667689Y-94666171D01*
X106664997Y-94671288D01*
X106604202Y-94867081D01*
X106580105Y-95070675D01*
X106317584Y-95070675D01*
X106301520Y-94895845D01*
X106291852Y-94861564D01*
X106247441Y-94704093D01*
X106247439Y-94704088D01*
X106245871Y-94698528D01*
X106155195Y-94514656D01*
X106032530Y-94350387D01*
X105881983Y-94211223D01*
X105708596Y-94101824D01*
X105518176Y-94025854D01*
X105512516Y-94024728D01*
X105512512Y-94024727D01*
X105322769Y-93986985D01*
X105322764Y-93986985D01*
X105317101Y-93985858D01*
X105311326Y-93985782D01*
X105311322Y-93985782D01*
X105208605Y-93984437D01*
X105112104Y-93983174D01*
X105106407Y-93984153D01*
X105106406Y-93984153D01*
X105015709Y-93999738D01*
X104910050Y-94017894D01*
X104717707Y-94088853D01*
X104541517Y-94193675D01*
X104387378Y-94328851D01*
X104383811Y-94333376D01*
X104383806Y-94333381D01*
X104264033Y-94485313D01*
X104260455Y-94489852D01*
X104257764Y-94494968D01*
X104257762Y-94494970D01*
X104167689Y-94666171D01*
X104164997Y-94671288D01*
X104104202Y-94867081D01*
X104080105Y-95070675D01*
X100140500Y-95070675D01*
X100140500Y-92570675D01*
X106580105Y-92570675D01*
X106593513Y-92775250D01*
X106643979Y-92973957D01*
X106729810Y-93160139D01*
X106848133Y-93327563D01*
X106994986Y-93470620D01*
X107165449Y-93584520D01*
X107170752Y-93586798D01*
X107170755Y-93586800D01*
X107260329Y-93625284D01*
X107353815Y-93665449D01*
X107427559Y-93682136D01*
X107548137Y-93709420D01*
X107548142Y-93709421D01*
X107553774Y-93710695D01*
X107559545Y-93710922D01*
X107559547Y-93710922D01*
X107621339Y-93713350D01*
X107758631Y-93718744D01*
X107860078Y-93704035D01*
X107955810Y-93690155D01*
X107955815Y-93690154D01*
X107961524Y-93689326D01*
X107966988Y-93687471D01*
X107966993Y-93687470D01*
X108150187Y-93625284D01*
X108150192Y-93625282D01*
X108155659Y-93623426D01*
X108182158Y-93608586D01*
X108329495Y-93526073D01*
X108329499Y-93526070D01*
X108334533Y-93523251D01*
X108338970Y-93519561D01*
X108338974Y-93519558D01*
X108487719Y-93395848D01*
X108492157Y-93392157D01*
X108549805Y-93322843D01*
X108619558Y-93238974D01*
X108619561Y-93238970D01*
X108623251Y-93234533D01*
X108626070Y-93229499D01*
X108626073Y-93229495D01*
X108720603Y-93060700D01*
X108720603Y-93060699D01*
X108723426Y-93055659D01*
X108725282Y-93050192D01*
X108725284Y-93050187D01*
X108787470Y-92866993D01*
X108787471Y-92866988D01*
X108789326Y-92861524D01*
X108790154Y-92855815D01*
X108790155Y-92855810D01*
X108818211Y-92662305D01*
X108818744Y-92658631D01*
X108820279Y-92600000D01*
X108801520Y-92395845D01*
X108791852Y-92361564D01*
X108747441Y-92204093D01*
X108747439Y-92204088D01*
X108745871Y-92198528D01*
X108655195Y-92014656D01*
X108532530Y-91850387D01*
X108412202Y-91739157D01*
X108386223Y-91715142D01*
X108386220Y-91715140D01*
X108381983Y-91711223D01*
X108208596Y-91601824D01*
X108018176Y-91525854D01*
X108012516Y-91524728D01*
X108012512Y-91524727D01*
X107822769Y-91486985D01*
X107822764Y-91486985D01*
X107817101Y-91485858D01*
X107811326Y-91485782D01*
X107811322Y-91485782D01*
X107708605Y-91484437D01*
X107612104Y-91483174D01*
X107606407Y-91484153D01*
X107606406Y-91484153D01*
X107415747Y-91516915D01*
X107410050Y-91517894D01*
X107217707Y-91588853D01*
X107212746Y-91591805D01*
X107212745Y-91591805D01*
X107063091Y-91680840D01*
X107041517Y-91693675D01*
X106887378Y-91828851D01*
X106883811Y-91833376D01*
X106883806Y-91833381D01*
X106846586Y-91880595D01*
X106760455Y-91989852D01*
X106664997Y-92171288D01*
X106604202Y-92367081D01*
X106580105Y-92570675D01*
X100140500Y-92570675D01*
X100140500Y-88199983D01*
X103029281Y-88199983D01*
X103039231Y-88250000D01*
X103049888Y-88303576D01*
X103056782Y-88313893D01*
X103056782Y-88313894D01*
X103064272Y-88325103D01*
X103108568Y-88391398D01*
X103118884Y-88398291D01*
X103118885Y-88398292D01*
X103120419Y-88399317D01*
X103139514Y-88414988D01*
X104178943Y-89454417D01*
X104212969Y-89516729D01*
X104207904Y-89587544D01*
X104201356Y-89602179D01*
X104167689Y-89666169D01*
X104167684Y-89666180D01*
X104164997Y-89671288D01*
X104104202Y-89867081D01*
X104080105Y-90070675D01*
X104093513Y-90275250D01*
X104143979Y-90473957D01*
X104229810Y-90660139D01*
X104348133Y-90827563D01*
X104494986Y-90970620D01*
X104665449Y-91084520D01*
X104670752Y-91086798D01*
X104670755Y-91086800D01*
X104760329Y-91125284D01*
X104853815Y-91165449D01*
X104927559Y-91182136D01*
X105048137Y-91209420D01*
X105048142Y-91209421D01*
X105053774Y-91210695D01*
X105059545Y-91210922D01*
X105059547Y-91210922D01*
X105121339Y-91213350D01*
X105258631Y-91218744D01*
X105360077Y-91204035D01*
X105455810Y-91190155D01*
X105455815Y-91190154D01*
X105461524Y-91189326D01*
X105466988Y-91187471D01*
X105466993Y-91187470D01*
X105650187Y-91125284D01*
X105650192Y-91125282D01*
X105655659Y-91123426D01*
X105680949Y-91109263D01*
X105829495Y-91026073D01*
X105829499Y-91026070D01*
X105834533Y-91023251D01*
X105838970Y-91019561D01*
X105838974Y-91019558D01*
X105987719Y-90895848D01*
X105992157Y-90892157D01*
X106113410Y-90746366D01*
X106119558Y-90738974D01*
X106119561Y-90738970D01*
X106123251Y-90734533D01*
X106126070Y-90729499D01*
X106126073Y-90729495D01*
X106220603Y-90560700D01*
X106220603Y-90560699D01*
X106223426Y-90555659D01*
X106225282Y-90550192D01*
X106225284Y-90550187D01*
X106287470Y-90366993D01*
X106287471Y-90366988D01*
X106289326Y-90361524D01*
X106290154Y-90355815D01*
X106290155Y-90355810D01*
X106318211Y-90162305D01*
X106318744Y-90158631D01*
X106320279Y-90100000D01*
X106317584Y-90070675D01*
X106580105Y-90070675D01*
X106593513Y-90275250D01*
X106643979Y-90473957D01*
X106729810Y-90660139D01*
X106848133Y-90827563D01*
X106994986Y-90970620D01*
X107165449Y-91084520D01*
X107170752Y-91086798D01*
X107170755Y-91086800D01*
X107260329Y-91125284D01*
X107353815Y-91165449D01*
X107427559Y-91182136D01*
X107548137Y-91209420D01*
X107548142Y-91209421D01*
X107553774Y-91210695D01*
X107559545Y-91210922D01*
X107559547Y-91210922D01*
X107621339Y-91213350D01*
X107758631Y-91218744D01*
X107860077Y-91204035D01*
X107955810Y-91190155D01*
X107955815Y-91190154D01*
X107961524Y-91189326D01*
X107966988Y-91187471D01*
X107966993Y-91187470D01*
X108150187Y-91125284D01*
X108150192Y-91125282D01*
X108155659Y-91123426D01*
X108180949Y-91109263D01*
X108329495Y-91026073D01*
X108329499Y-91026070D01*
X108334533Y-91023251D01*
X108338970Y-91019561D01*
X108338974Y-91019558D01*
X108487719Y-90895848D01*
X108492157Y-90892157D01*
X108613410Y-90746366D01*
X108619558Y-90738974D01*
X108619561Y-90738970D01*
X108623251Y-90734533D01*
X108626070Y-90729499D01*
X108626073Y-90729495D01*
X108720603Y-90560700D01*
X108720603Y-90560699D01*
X108723426Y-90555659D01*
X108725282Y-90550192D01*
X108725284Y-90550187D01*
X108787470Y-90366993D01*
X108787471Y-90366988D01*
X108789326Y-90361524D01*
X108790154Y-90355815D01*
X108790155Y-90355810D01*
X108818211Y-90162305D01*
X108818744Y-90158631D01*
X108820279Y-90100000D01*
X108801520Y-89895845D01*
X108791852Y-89861564D01*
X108747441Y-89704093D01*
X108747439Y-89704088D01*
X108745871Y-89698528D01*
X108655195Y-89514656D01*
X108532530Y-89350387D01*
X108381983Y-89211223D01*
X108208596Y-89101824D01*
X108018176Y-89025854D01*
X108012516Y-89024728D01*
X108012512Y-89024727D01*
X107822769Y-88986985D01*
X107822764Y-88986985D01*
X107817101Y-88985858D01*
X107811326Y-88985782D01*
X107811322Y-88985782D01*
X107708605Y-88984437D01*
X107612104Y-88983174D01*
X107606407Y-88984153D01*
X107606406Y-88984153D01*
X107477952Y-89006226D01*
X107410050Y-89017894D01*
X107217707Y-89088853D01*
X107212746Y-89091805D01*
X107212745Y-89091805D01*
X107121541Y-89146066D01*
X107041517Y-89193675D01*
X106887378Y-89328851D01*
X106883811Y-89333376D01*
X106883806Y-89333381D01*
X106764033Y-89485313D01*
X106760455Y-89489852D01*
X106664997Y-89671288D01*
X106604202Y-89867081D01*
X106580105Y-90070675D01*
X106317584Y-90070675D01*
X106301520Y-89895845D01*
X106291852Y-89861564D01*
X106247441Y-89704093D01*
X106247439Y-89704088D01*
X106245871Y-89698528D01*
X106155195Y-89514656D01*
X106032530Y-89350387D01*
X105881983Y-89211223D01*
X105708596Y-89101824D01*
X105518176Y-89025854D01*
X105512516Y-89024728D01*
X105512512Y-89024727D01*
X105322769Y-88986985D01*
X105322764Y-88986985D01*
X105317101Y-88985858D01*
X105311326Y-88985782D01*
X105311322Y-88985782D01*
X105208605Y-88984437D01*
X105112104Y-88983174D01*
X105106407Y-88984153D01*
X105106406Y-88984153D01*
X104977952Y-89006226D01*
X104910050Y-89017894D01*
X104717707Y-89088853D01*
X104705764Y-89095958D01*
X104636995Y-89113600D01*
X104569605Y-89091262D01*
X104552244Y-89076770D01*
X103602388Y-88126914D01*
X103568362Y-88064602D01*
X103565483Y-88037819D01*
X103565483Y-86645147D01*
X103585485Y-86577026D01*
X103639141Y-86530533D01*
X103709415Y-86520429D01*
X103773995Y-86549923D01*
X103780578Y-86556052D01*
X104178943Y-86954417D01*
X104212969Y-87016729D01*
X104207904Y-87087544D01*
X104201356Y-87102179D01*
X104167689Y-87166169D01*
X104167684Y-87166180D01*
X104164997Y-87171288D01*
X104104202Y-87367081D01*
X104080105Y-87570675D01*
X104093513Y-87775250D01*
X104143979Y-87973957D01*
X104229810Y-88160139D01*
X104348133Y-88327563D01*
X104494986Y-88470620D01*
X104665449Y-88584520D01*
X104670752Y-88586798D01*
X104670755Y-88586800D01*
X104795780Y-88640515D01*
X104853815Y-88665449D01*
X104927559Y-88682136D01*
X105048137Y-88709420D01*
X105048142Y-88709421D01*
X105053774Y-88710695D01*
X105059545Y-88710922D01*
X105059547Y-88710922D01*
X105121339Y-88713350D01*
X105258631Y-88718744D01*
X105360078Y-88704035D01*
X105455810Y-88690155D01*
X105455815Y-88690154D01*
X105461524Y-88689326D01*
X105466988Y-88687471D01*
X105466993Y-88687470D01*
X105650187Y-88625284D01*
X105650192Y-88625282D01*
X105655659Y-88623426D01*
X105680949Y-88609263D01*
X105829495Y-88526073D01*
X105829499Y-88526070D01*
X105834533Y-88523251D01*
X105838970Y-88519561D01*
X105838974Y-88519558D01*
X105987719Y-88395848D01*
X105992157Y-88392157D01*
X106049805Y-88322843D01*
X106119558Y-88238974D01*
X106119561Y-88238970D01*
X106123251Y-88234533D01*
X106126070Y-88229499D01*
X106126073Y-88229495D01*
X106220603Y-88060700D01*
X106220603Y-88060699D01*
X106223426Y-88055659D01*
X106225282Y-88050192D01*
X106225284Y-88050187D01*
X106287470Y-87866993D01*
X106287471Y-87866988D01*
X106289326Y-87861524D01*
X106290154Y-87855815D01*
X106290155Y-87855810D01*
X106309351Y-87723412D01*
X106318744Y-87658631D01*
X106320279Y-87600000D01*
X106317584Y-87570675D01*
X106580105Y-87570675D01*
X106593513Y-87775250D01*
X106643979Y-87973957D01*
X106729810Y-88160139D01*
X106848133Y-88327563D01*
X106994986Y-88470620D01*
X107165449Y-88584520D01*
X107170752Y-88586798D01*
X107170755Y-88586800D01*
X107295780Y-88640515D01*
X107353815Y-88665449D01*
X107427559Y-88682136D01*
X107548137Y-88709420D01*
X107548142Y-88709421D01*
X107553774Y-88710695D01*
X107559545Y-88710922D01*
X107559547Y-88710922D01*
X107621339Y-88713350D01*
X107758631Y-88718744D01*
X107860078Y-88704035D01*
X107955810Y-88690155D01*
X107955815Y-88690154D01*
X107961524Y-88689326D01*
X107966988Y-88687471D01*
X107966993Y-88687470D01*
X108150187Y-88625284D01*
X108150192Y-88625282D01*
X108155659Y-88623426D01*
X108180949Y-88609263D01*
X108329495Y-88526073D01*
X108329499Y-88526070D01*
X108334533Y-88523251D01*
X108338970Y-88519561D01*
X108338974Y-88519558D01*
X108487719Y-88395848D01*
X108492157Y-88392157D01*
X108549805Y-88322843D01*
X108619558Y-88238974D01*
X108619561Y-88238970D01*
X108623251Y-88234533D01*
X108626070Y-88229499D01*
X108626073Y-88229495D01*
X108720603Y-88060700D01*
X108720603Y-88060699D01*
X108723426Y-88055659D01*
X108725282Y-88050192D01*
X108725284Y-88050187D01*
X108787470Y-87866993D01*
X108787471Y-87866988D01*
X108789326Y-87861524D01*
X108790154Y-87855815D01*
X108790155Y-87855810D01*
X108809351Y-87723412D01*
X108818744Y-87658631D01*
X108820279Y-87600000D01*
X108801520Y-87395845D01*
X108776493Y-87307104D01*
X108747441Y-87204093D01*
X108747439Y-87204088D01*
X108745871Y-87198528D01*
X108655195Y-87014656D01*
X108532530Y-86850387D01*
X108412202Y-86739157D01*
X108386223Y-86715142D01*
X108386220Y-86715140D01*
X108381983Y-86711223D01*
X108208596Y-86601824D01*
X108018176Y-86525854D01*
X108012516Y-86524728D01*
X108012512Y-86524727D01*
X107822769Y-86486985D01*
X107822764Y-86486985D01*
X107817101Y-86485858D01*
X107811326Y-86485782D01*
X107811322Y-86485782D01*
X107708605Y-86484437D01*
X107612104Y-86483174D01*
X107606407Y-86484153D01*
X107606406Y-86484153D01*
X107415747Y-86516915D01*
X107410050Y-86517894D01*
X107217707Y-86588853D01*
X107212746Y-86591805D01*
X107212745Y-86591805D01*
X107088877Y-86665499D01*
X107041517Y-86693675D01*
X106887378Y-86828851D01*
X106883811Y-86833376D01*
X106883806Y-86833381D01*
X106784098Y-86959861D01*
X106760455Y-86989852D01*
X106664997Y-87171288D01*
X106604202Y-87367081D01*
X106580105Y-87570675D01*
X106317584Y-87570675D01*
X106301520Y-87395845D01*
X106276493Y-87307104D01*
X106247441Y-87204093D01*
X106247439Y-87204088D01*
X106245871Y-87198528D01*
X106155195Y-87014656D01*
X106032530Y-86850387D01*
X105912202Y-86739157D01*
X105886223Y-86715142D01*
X105886220Y-86715140D01*
X105881983Y-86711223D01*
X105708596Y-86601824D01*
X105518176Y-86525854D01*
X105512516Y-86524728D01*
X105512512Y-86524727D01*
X105322769Y-86486985D01*
X105322764Y-86486985D01*
X105317101Y-86485858D01*
X105311326Y-86485782D01*
X105311322Y-86485782D01*
X105208605Y-86484437D01*
X105112104Y-86483174D01*
X105106407Y-86484153D01*
X105106406Y-86484153D01*
X104915747Y-86516915D01*
X104910050Y-86517894D01*
X104717707Y-86588853D01*
X104705764Y-86595958D01*
X104636995Y-86613600D01*
X104569605Y-86591262D01*
X104552244Y-86576770D01*
X103952394Y-85976920D01*
X103918368Y-85914608D01*
X103915489Y-85887825D01*
X103915489Y-85552599D01*
X103935491Y-85484478D01*
X103989147Y-85437985D01*
X104059421Y-85427881D01*
X104124001Y-85457375D01*
X104155915Y-85499848D01*
X104229810Y-85660139D01*
X104348133Y-85827563D01*
X104494986Y-85970620D01*
X104665449Y-86084520D01*
X104670752Y-86086798D01*
X104670755Y-86086800D01*
X104760329Y-86125284D01*
X104853815Y-86165449D01*
X104927559Y-86182136D01*
X105048137Y-86209420D01*
X105048142Y-86209421D01*
X105053774Y-86210695D01*
X105059545Y-86210922D01*
X105059547Y-86210922D01*
X105121339Y-86213350D01*
X105258631Y-86218744D01*
X105360078Y-86204035D01*
X105455810Y-86190155D01*
X105455815Y-86190154D01*
X105461524Y-86189326D01*
X105466988Y-86187471D01*
X105466993Y-86187470D01*
X105650187Y-86125284D01*
X105650192Y-86125282D01*
X105655659Y-86123426D01*
X105680949Y-86109263D01*
X105829495Y-86026073D01*
X105829499Y-86026070D01*
X105834533Y-86023251D01*
X105838970Y-86019561D01*
X105838974Y-86019558D01*
X105987719Y-85895848D01*
X105992157Y-85892157D01*
X106113410Y-85746366D01*
X106119558Y-85738974D01*
X106119561Y-85738970D01*
X106123251Y-85734533D01*
X106126070Y-85729499D01*
X106126073Y-85729495D01*
X106220603Y-85560700D01*
X106220603Y-85560699D01*
X106223426Y-85555659D01*
X106225282Y-85550192D01*
X106225284Y-85550187D01*
X106287470Y-85366993D01*
X106287471Y-85366988D01*
X106289326Y-85361524D01*
X106290154Y-85355815D01*
X106290155Y-85355810D01*
X106316166Y-85176410D01*
X106318744Y-85158631D01*
X106320279Y-85100000D01*
X106301520Y-84895845D01*
X106279309Y-84817089D01*
X106247441Y-84704093D01*
X106247439Y-84704088D01*
X106245871Y-84698528D01*
X106155195Y-84514656D01*
X106090586Y-84428133D01*
X106035983Y-84355011D01*
X106035982Y-84355010D01*
X106032530Y-84350387D01*
X105881983Y-84211223D01*
X105708596Y-84101824D01*
X105518176Y-84025854D01*
X105512516Y-84024728D01*
X105512512Y-84024727D01*
X105322769Y-83986985D01*
X105322764Y-83986985D01*
X105317101Y-83985858D01*
X105311326Y-83985782D01*
X105311322Y-83985782D01*
X105208605Y-83984437D01*
X105112104Y-83983174D01*
X105106407Y-83984153D01*
X105106406Y-83984153D01*
X104915747Y-84016915D01*
X104910050Y-84017894D01*
X104717707Y-84088853D01*
X104712746Y-84091805D01*
X104712745Y-84091805D01*
X104628409Y-84141980D01*
X104541517Y-84193675D01*
X104387378Y-84328851D01*
X104383811Y-84333376D01*
X104383806Y-84333381D01*
X104269463Y-84478425D01*
X104260455Y-84489852D01*
X104257764Y-84494968D01*
X104257762Y-84494970D01*
X104167689Y-84666171D01*
X104164997Y-84671288D01*
X104163284Y-84676805D01*
X104163281Y-84676812D01*
X104161821Y-84681514D01*
X104122518Y-84740639D01*
X104057489Y-84769129D01*
X103987379Y-84757939D01*
X103934450Y-84710621D01*
X103915489Y-84644149D01*
X103915489Y-83052599D01*
X103935491Y-82984478D01*
X103989147Y-82937985D01*
X104059421Y-82927881D01*
X104124001Y-82957375D01*
X104155915Y-82999848D01*
X104180233Y-83052599D01*
X104218987Y-83136661D01*
X104229810Y-83160139D01*
X104233143Y-83164855D01*
X104318087Y-83285048D01*
X104348133Y-83327563D01*
X104494986Y-83470620D01*
X104665449Y-83584520D01*
X104670752Y-83586798D01*
X104670755Y-83586800D01*
X104760329Y-83625284D01*
X104853815Y-83665449D01*
X104927559Y-83682136D01*
X105048137Y-83709420D01*
X105048142Y-83709421D01*
X105053774Y-83710695D01*
X105059545Y-83710922D01*
X105059547Y-83710922D01*
X105121339Y-83713350D01*
X105258631Y-83718744D01*
X105360077Y-83704035D01*
X105455810Y-83690155D01*
X105455815Y-83690154D01*
X105461524Y-83689326D01*
X105466988Y-83687471D01*
X105466993Y-83687470D01*
X105650187Y-83625284D01*
X105650192Y-83625282D01*
X105655659Y-83623426D01*
X105680949Y-83609263D01*
X105829495Y-83526073D01*
X105829499Y-83526070D01*
X105834533Y-83523251D01*
X105838970Y-83519561D01*
X105838974Y-83519558D01*
X105987719Y-83395848D01*
X105992157Y-83392157D01*
X106042523Y-83331598D01*
X106119558Y-83238974D01*
X106119561Y-83238970D01*
X106123251Y-83234533D01*
X106126070Y-83229499D01*
X106126073Y-83229495D01*
X106220603Y-83060700D01*
X106220603Y-83060699D01*
X106223426Y-83055659D01*
X106225282Y-83050192D01*
X106225284Y-83050187D01*
X106287470Y-82866993D01*
X106287471Y-82866988D01*
X106289326Y-82861524D01*
X106290154Y-82855815D01*
X106290155Y-82855810D01*
X106318211Y-82662305D01*
X106318744Y-82658631D01*
X106320279Y-82600000D01*
X106317584Y-82570675D01*
X106580105Y-82570675D01*
X106593513Y-82775250D01*
X106643979Y-82973957D01*
X106646396Y-82979199D01*
X106646396Y-82979200D01*
X106720528Y-83140005D01*
X106729810Y-83160139D01*
X106733143Y-83164855D01*
X106818087Y-83285048D01*
X106848133Y-83327563D01*
X106994986Y-83470620D01*
X107165449Y-83584520D01*
X107170752Y-83586798D01*
X107170755Y-83586800D01*
X107260329Y-83625284D01*
X107353815Y-83665449D01*
X107427559Y-83682136D01*
X107548137Y-83709420D01*
X107548142Y-83709421D01*
X107553774Y-83710695D01*
X107559545Y-83710922D01*
X107559547Y-83710922D01*
X107621339Y-83713350D01*
X107758631Y-83718744D01*
X107860077Y-83704035D01*
X107955810Y-83690155D01*
X107955815Y-83690154D01*
X107961524Y-83689326D01*
X107966988Y-83687471D01*
X107966993Y-83687470D01*
X108150187Y-83625284D01*
X108150192Y-83625282D01*
X108155659Y-83623426D01*
X108180949Y-83609263D01*
X108329495Y-83526073D01*
X108329499Y-83526070D01*
X108334533Y-83523251D01*
X108338970Y-83519561D01*
X108338974Y-83519558D01*
X108487719Y-83395848D01*
X108492157Y-83392157D01*
X108542523Y-83331598D01*
X108619558Y-83238974D01*
X108619561Y-83238970D01*
X108623251Y-83234533D01*
X108626070Y-83229499D01*
X108626073Y-83229495D01*
X108720603Y-83060700D01*
X108720603Y-83060699D01*
X108723426Y-83055659D01*
X108725282Y-83050192D01*
X108725284Y-83050187D01*
X108787470Y-82866993D01*
X108787471Y-82866988D01*
X108789326Y-82861524D01*
X108790154Y-82855815D01*
X108790155Y-82855810D01*
X108818211Y-82662305D01*
X108818744Y-82658631D01*
X108820279Y-82600000D01*
X108801520Y-82395845D01*
X108799951Y-82390281D01*
X108747441Y-82204093D01*
X108747439Y-82204088D01*
X108745871Y-82198528D01*
X108655195Y-82014656D01*
X108550269Y-81874143D01*
X108535983Y-81855011D01*
X108535982Y-81855010D01*
X108532530Y-81850387D01*
X108441855Y-81766568D01*
X108386223Y-81715142D01*
X108386220Y-81715140D01*
X108381983Y-81711223D01*
X108208596Y-81601824D01*
X108018176Y-81525854D01*
X108012516Y-81524728D01*
X108012512Y-81524727D01*
X107822769Y-81486985D01*
X107822764Y-81486985D01*
X107817101Y-81485858D01*
X107811326Y-81485782D01*
X107811322Y-81485782D01*
X107708605Y-81484437D01*
X107612104Y-81483174D01*
X107606407Y-81484153D01*
X107606406Y-81484153D01*
X107477952Y-81506226D01*
X107410050Y-81517894D01*
X107217707Y-81588853D01*
X107212746Y-81591805D01*
X107212745Y-81591805D01*
X107143666Y-81632903D01*
X107041517Y-81693675D01*
X106887378Y-81828851D01*
X106883811Y-81833376D01*
X106883806Y-81833381D01*
X106778714Y-81966690D01*
X106760455Y-81989852D01*
X106757764Y-81994968D01*
X106757762Y-81994970D01*
X106667689Y-82166171D01*
X106664997Y-82171288D01*
X106604202Y-82367081D01*
X106580105Y-82570675D01*
X106317584Y-82570675D01*
X106301520Y-82395845D01*
X106299951Y-82390281D01*
X106247441Y-82204093D01*
X106247439Y-82204088D01*
X106245871Y-82198528D01*
X106155195Y-82014656D01*
X106050269Y-81874143D01*
X106035983Y-81855011D01*
X106035982Y-81855010D01*
X106032530Y-81850387D01*
X105941855Y-81766568D01*
X105886223Y-81715142D01*
X105886220Y-81715140D01*
X105881983Y-81711223D01*
X105708596Y-81601824D01*
X105518176Y-81525854D01*
X105512516Y-81524728D01*
X105512512Y-81524727D01*
X105322769Y-81486985D01*
X105322764Y-81486985D01*
X105317101Y-81485858D01*
X105311326Y-81485782D01*
X105311322Y-81485782D01*
X105208605Y-81484437D01*
X105112104Y-81483174D01*
X105106407Y-81484153D01*
X105106406Y-81484153D01*
X104977952Y-81506226D01*
X104910050Y-81517894D01*
X104717707Y-81588853D01*
X104712746Y-81591805D01*
X104712745Y-81591805D01*
X104643666Y-81632903D01*
X104541517Y-81693675D01*
X104387378Y-81828851D01*
X104383811Y-81833376D01*
X104383806Y-81833381D01*
X104278714Y-81966690D01*
X104260455Y-81989852D01*
X104257764Y-81994968D01*
X104257762Y-81994970D01*
X104167689Y-82166171D01*
X104164997Y-82171288D01*
X104163284Y-82176805D01*
X104163281Y-82176812D01*
X104161821Y-82181514D01*
X104122518Y-82240639D01*
X104057489Y-82269129D01*
X103987379Y-82257939D01*
X103934450Y-82210621D01*
X103915489Y-82144149D01*
X103915489Y-80552599D01*
X103935491Y-80484478D01*
X103989147Y-80437985D01*
X104059421Y-80427881D01*
X104124001Y-80457375D01*
X104155915Y-80499848D01*
X104229810Y-80660139D01*
X104348133Y-80827563D01*
X104494986Y-80970620D01*
X104665449Y-81084520D01*
X104670752Y-81086798D01*
X104670755Y-81086800D01*
X104848508Y-81163169D01*
X104853815Y-81165449D01*
X104927559Y-81182136D01*
X105048137Y-81209420D01*
X105048142Y-81209421D01*
X105053774Y-81210695D01*
X105059545Y-81210922D01*
X105059547Y-81210922D01*
X105121339Y-81213350D01*
X105258631Y-81218744D01*
X105360078Y-81204035D01*
X105455810Y-81190155D01*
X105455815Y-81190154D01*
X105461524Y-81189326D01*
X105466988Y-81187471D01*
X105466993Y-81187470D01*
X105650187Y-81125284D01*
X105650192Y-81125282D01*
X105655659Y-81123426D01*
X105680949Y-81109263D01*
X105829495Y-81026073D01*
X105829499Y-81026070D01*
X105834533Y-81023251D01*
X105838970Y-81019561D01*
X105838974Y-81019558D01*
X105987719Y-80895848D01*
X105992157Y-80892157D01*
X106042523Y-80831598D01*
X106119558Y-80738974D01*
X106119561Y-80738970D01*
X106123251Y-80734533D01*
X106126070Y-80729499D01*
X106126073Y-80729495D01*
X106220603Y-80560700D01*
X106220603Y-80560699D01*
X106223426Y-80555659D01*
X106225282Y-80550192D01*
X106225284Y-80550187D01*
X106287470Y-80366993D01*
X106287471Y-80366988D01*
X106289326Y-80361524D01*
X106290154Y-80355815D01*
X106290155Y-80355810D01*
X106309246Y-80224135D01*
X106318744Y-80158631D01*
X106320279Y-80100000D01*
X106301520Y-79895845D01*
X106291852Y-79861564D01*
X106247441Y-79704093D01*
X106247439Y-79704088D01*
X106245871Y-79698528D01*
X106155195Y-79514656D01*
X106032530Y-79350387D01*
X105881983Y-79211223D01*
X105708596Y-79101824D01*
X105518176Y-79025854D01*
X105512516Y-79024728D01*
X105512512Y-79024727D01*
X105322769Y-78986985D01*
X105322764Y-78986985D01*
X105317101Y-78985858D01*
X105311326Y-78985782D01*
X105311322Y-78985782D01*
X105208605Y-78984437D01*
X105112104Y-78983174D01*
X105106407Y-78984153D01*
X105106406Y-78984153D01*
X104977952Y-79006226D01*
X104910050Y-79017894D01*
X104717707Y-79088853D01*
X104712746Y-79091805D01*
X104712745Y-79091805D01*
X104552364Y-79187222D01*
X104541517Y-79193675D01*
X104387378Y-79328851D01*
X104383811Y-79333376D01*
X104383806Y-79333381D01*
X104275326Y-79470988D01*
X104260455Y-79489852D01*
X104257764Y-79494968D01*
X104257762Y-79494970D01*
X104171200Y-79659498D01*
X104164997Y-79671288D01*
X104163284Y-79676805D01*
X104163281Y-79676812D01*
X104161821Y-79681514D01*
X104122518Y-79740639D01*
X104057489Y-79769129D01*
X103987379Y-79757939D01*
X103934450Y-79710621D01*
X103915489Y-79644149D01*
X103915489Y-78052599D01*
X103935491Y-77984478D01*
X103989147Y-77937985D01*
X104059421Y-77927881D01*
X104124001Y-77957375D01*
X104155915Y-77999848D01*
X104229810Y-78160139D01*
X104233143Y-78164855D01*
X104321940Y-78290500D01*
X104348133Y-78327563D01*
X104494986Y-78470620D01*
X104665449Y-78584520D01*
X104670752Y-78586798D01*
X104670755Y-78586800D01*
X104795780Y-78640515D01*
X104853815Y-78665449D01*
X104903502Y-78676692D01*
X105048137Y-78709420D01*
X105048142Y-78709421D01*
X105053774Y-78710695D01*
X105059545Y-78710922D01*
X105059547Y-78710922D01*
X105121339Y-78713350D01*
X105258631Y-78718744D01*
X105360078Y-78704035D01*
X105455810Y-78690155D01*
X105455815Y-78690154D01*
X105461524Y-78689326D01*
X105466988Y-78687471D01*
X105466993Y-78687470D01*
X105650187Y-78625284D01*
X105650192Y-78625282D01*
X105655659Y-78623426D01*
X105680949Y-78609263D01*
X105829495Y-78526073D01*
X105829499Y-78526070D01*
X105834533Y-78523251D01*
X105838970Y-78519561D01*
X105838974Y-78519558D01*
X105987719Y-78395848D01*
X105992157Y-78392157D01*
X106035923Y-78339534D01*
X106119558Y-78238974D01*
X106119561Y-78238970D01*
X106123251Y-78234533D01*
X106126070Y-78229499D01*
X106126073Y-78229495D01*
X106220603Y-78060700D01*
X106220603Y-78060699D01*
X106223426Y-78055659D01*
X106225282Y-78050192D01*
X106225284Y-78050187D01*
X106287470Y-77866993D01*
X106287471Y-77866988D01*
X106289326Y-77861524D01*
X106290154Y-77855815D01*
X106290155Y-77855810D01*
X106309351Y-77723412D01*
X106318744Y-77658631D01*
X106320279Y-77600000D01*
X106317584Y-77570675D01*
X106580105Y-77570675D01*
X106593513Y-77775250D01*
X106594935Y-77780849D01*
X106626684Y-77905857D01*
X106643979Y-77973957D01*
X106729810Y-78160139D01*
X106733143Y-78164855D01*
X106821940Y-78290500D01*
X106848133Y-78327563D01*
X106994986Y-78470620D01*
X107165449Y-78584520D01*
X107170752Y-78586798D01*
X107170755Y-78586800D01*
X107295780Y-78640515D01*
X107353815Y-78665449D01*
X107403502Y-78676692D01*
X107548137Y-78709420D01*
X107548142Y-78709421D01*
X107553774Y-78710695D01*
X107559545Y-78710922D01*
X107559547Y-78710922D01*
X107621339Y-78713350D01*
X107758631Y-78718744D01*
X107860078Y-78704035D01*
X107955810Y-78690155D01*
X107955815Y-78690154D01*
X107961524Y-78689326D01*
X107966988Y-78687471D01*
X107966993Y-78687470D01*
X108150187Y-78625284D01*
X108150192Y-78625282D01*
X108155659Y-78623426D01*
X108180949Y-78609263D01*
X108329495Y-78526073D01*
X108329499Y-78526070D01*
X108334533Y-78523251D01*
X108338970Y-78519561D01*
X108338974Y-78519558D01*
X108487719Y-78395848D01*
X108492157Y-78392157D01*
X108535923Y-78339534D01*
X108619558Y-78238974D01*
X108619561Y-78238970D01*
X108623251Y-78234533D01*
X108626070Y-78229499D01*
X108626073Y-78229495D01*
X108720603Y-78060700D01*
X108720603Y-78060699D01*
X108723426Y-78055659D01*
X108725282Y-78050192D01*
X108725284Y-78050187D01*
X108787470Y-77866993D01*
X108787471Y-77866988D01*
X108789326Y-77861524D01*
X108790154Y-77855815D01*
X108790155Y-77855810D01*
X108809351Y-77723412D01*
X108818744Y-77658631D01*
X108820279Y-77600000D01*
X108801520Y-77395845D01*
X108790442Y-77356565D01*
X108747441Y-77204093D01*
X108747439Y-77204088D01*
X108745871Y-77198528D01*
X108655195Y-77014656D01*
X108555817Y-76881572D01*
X108535983Y-76855011D01*
X108535982Y-76855010D01*
X108532530Y-76850387D01*
X108441855Y-76766568D01*
X108386223Y-76715142D01*
X108386220Y-76715140D01*
X108381983Y-76711223D01*
X108208596Y-76601824D01*
X108018176Y-76525854D01*
X108012516Y-76524728D01*
X108012512Y-76524727D01*
X107822769Y-76486985D01*
X107822764Y-76486985D01*
X107817101Y-76485858D01*
X107811326Y-76485782D01*
X107811322Y-76485782D01*
X107708605Y-76484437D01*
X107612104Y-76483174D01*
X107606407Y-76484153D01*
X107606406Y-76484153D01*
X107415747Y-76516915D01*
X107410050Y-76517894D01*
X107217707Y-76588853D01*
X107212746Y-76591805D01*
X107212745Y-76591805D01*
X107121541Y-76646066D01*
X107041517Y-76693675D01*
X106887378Y-76828851D01*
X106883811Y-76833376D01*
X106883806Y-76833381D01*
X106774810Y-76971643D01*
X106760455Y-76989852D01*
X106757764Y-76994968D01*
X106757762Y-76994970D01*
X106670965Y-77159945D01*
X106664997Y-77171288D01*
X106604202Y-77367081D01*
X106580105Y-77570675D01*
X106317584Y-77570675D01*
X106301520Y-77395845D01*
X106290442Y-77356565D01*
X106247441Y-77204093D01*
X106247439Y-77204088D01*
X106245871Y-77198528D01*
X106155195Y-77014656D01*
X106055817Y-76881572D01*
X106035983Y-76855011D01*
X106035982Y-76855010D01*
X106032530Y-76850387D01*
X105941855Y-76766568D01*
X105886223Y-76715142D01*
X105886220Y-76715140D01*
X105881983Y-76711223D01*
X105708596Y-76601824D01*
X105518176Y-76525854D01*
X105512516Y-76524728D01*
X105512512Y-76524727D01*
X105322769Y-76486985D01*
X105322764Y-76486985D01*
X105317101Y-76485858D01*
X105311326Y-76485782D01*
X105311322Y-76485782D01*
X105208605Y-76484437D01*
X105112104Y-76483174D01*
X105106407Y-76484153D01*
X105106406Y-76484153D01*
X104915747Y-76516915D01*
X104910050Y-76517894D01*
X104717707Y-76588853D01*
X104705764Y-76595958D01*
X104636995Y-76613600D01*
X104569605Y-76591262D01*
X104552244Y-76576770D01*
X104302404Y-76326930D01*
X104268378Y-76264618D01*
X104265499Y-76237835D01*
X104265499Y-76045710D01*
X104285501Y-75977589D01*
X104339157Y-75931096D01*
X104409431Y-75920992D01*
X104474011Y-75950486D01*
X104479415Y-75955451D01*
X104494986Y-75970620D01*
X104665449Y-76084520D01*
X104670752Y-76086798D01*
X104670755Y-76086800D01*
X104760329Y-76125284D01*
X104853815Y-76165449D01*
X104927559Y-76182136D01*
X105048137Y-76209420D01*
X105048142Y-76209421D01*
X105053774Y-76210695D01*
X105059545Y-76210922D01*
X105059547Y-76210922D01*
X105121339Y-76213350D01*
X105258631Y-76218744D01*
X105360078Y-76204035D01*
X105455810Y-76190155D01*
X105455815Y-76190154D01*
X105461524Y-76189326D01*
X105466988Y-76187471D01*
X105466993Y-76187470D01*
X105650187Y-76125284D01*
X105650192Y-76125282D01*
X105655659Y-76123426D01*
X105680949Y-76109263D01*
X105829495Y-76026073D01*
X105829499Y-76026070D01*
X105834533Y-76023251D01*
X105838970Y-76019561D01*
X105838974Y-76019558D01*
X105987719Y-75895848D01*
X105992157Y-75892157D01*
X106064780Y-75804837D01*
X106119558Y-75738974D01*
X106119561Y-75738970D01*
X106123251Y-75734533D01*
X106126070Y-75729499D01*
X106126073Y-75729495D01*
X106220603Y-75560700D01*
X106220603Y-75560699D01*
X106223426Y-75555659D01*
X106225282Y-75550192D01*
X106225284Y-75550187D01*
X106287470Y-75366993D01*
X106287471Y-75366988D01*
X106289326Y-75361524D01*
X106290154Y-75355815D01*
X106290155Y-75355810D01*
X106313447Y-75195163D01*
X106318744Y-75158631D01*
X106320279Y-75100000D01*
X106301520Y-74895845D01*
X106279161Y-74816565D01*
X106247441Y-74704093D01*
X106247439Y-74704088D01*
X106245871Y-74698528D01*
X106155195Y-74514656D01*
X106032530Y-74350387D01*
X105916999Y-74243591D01*
X105886223Y-74215142D01*
X105886220Y-74215140D01*
X105881983Y-74211223D01*
X105708596Y-74101824D01*
X105588913Y-74054075D01*
X105533055Y-74010255D01*
X105509754Y-73943191D01*
X105526410Y-73874176D01*
X105546509Y-73847951D01*
X106692044Y-72702415D01*
X106754356Y-72668390D01*
X106781139Y-72665510D01*
X115606416Y-72665510D01*
X115630996Y-72667931D01*
X115644978Y-72670712D01*
X115657149Y-72668291D01*
X115736402Y-72652526D01*
X115736403Y-72652525D01*
X115748571Y-72650105D01*
X115775727Y-72631960D01*
X115836393Y-72591425D01*
X115843287Y-72581108D01*
X115844312Y-72579574D01*
X115859983Y-72560479D01*
X116150462Y-72270000D01*
X133434319Y-72270000D01*
X133454984Y-72466618D01*
X133516077Y-72654643D01*
X133614928Y-72825857D01*
X133619346Y-72830764D01*
X133619347Y-72830765D01*
X133645971Y-72860334D01*
X133747216Y-72972778D01*
X133907159Y-73088984D01*
X133913187Y-73091668D01*
X133913189Y-73091669D01*
X134081737Y-73166711D01*
X134087768Y-73169396D01*
X134184459Y-73189948D01*
X134274692Y-73209128D01*
X134274696Y-73209128D01*
X134281149Y-73210500D01*
X134478851Y-73210500D01*
X134485304Y-73209128D01*
X134485308Y-73209128D01*
X134575541Y-73189948D01*
X134672232Y-73169396D01*
X134678263Y-73166711D01*
X134846811Y-73091669D01*
X134846813Y-73091668D01*
X134852841Y-73088984D01*
X135012784Y-72972778D01*
X135114029Y-72860334D01*
X135140653Y-72830765D01*
X135140654Y-72830764D01*
X135145072Y-72825857D01*
X135243923Y-72654643D01*
X135305016Y-72466618D01*
X135325681Y-72270000D01*
X148674319Y-72270000D01*
X148694984Y-72466618D01*
X148756077Y-72654643D01*
X148854928Y-72825857D01*
X148859346Y-72830764D01*
X148859347Y-72830765D01*
X148885971Y-72860334D01*
X148987216Y-72972778D01*
X149147159Y-73088984D01*
X149153187Y-73091668D01*
X149153189Y-73091669D01*
X149321737Y-73166711D01*
X149327768Y-73169396D01*
X149424459Y-73189948D01*
X149514692Y-73209128D01*
X149514696Y-73209128D01*
X149521149Y-73210500D01*
X149718851Y-73210500D01*
X149725304Y-73209128D01*
X149725308Y-73209128D01*
X149815541Y-73189948D01*
X149912232Y-73169396D01*
X149918263Y-73166711D01*
X150086811Y-73091669D01*
X150086813Y-73091668D01*
X150092841Y-73088984D01*
X150252784Y-72972778D01*
X150354029Y-72860334D01*
X150380653Y-72830765D01*
X150380654Y-72830764D01*
X150385072Y-72825857D01*
X150483923Y-72654643D01*
X150545016Y-72466618D01*
X150565681Y-72270000D01*
X150545016Y-72073382D01*
X150483923Y-71885357D01*
X150385072Y-71714143D01*
X150252784Y-71567222D01*
X150092841Y-71451016D01*
X150086813Y-71448332D01*
X150086811Y-71448331D01*
X149918263Y-71373289D01*
X149918262Y-71373289D01*
X149912232Y-71370604D01*
X149815541Y-71350052D01*
X149725308Y-71330872D01*
X149725304Y-71330872D01*
X149718851Y-71329500D01*
X149521149Y-71329500D01*
X149514696Y-71330872D01*
X149514692Y-71330872D01*
X149424459Y-71350052D01*
X149327768Y-71370604D01*
X149321738Y-71373289D01*
X149321737Y-71373289D01*
X149153190Y-71448331D01*
X149153188Y-71448332D01*
X149147160Y-71451016D01*
X148987216Y-71567222D01*
X148854928Y-71714143D01*
X148756077Y-71885357D01*
X148694984Y-72073382D01*
X148674319Y-72270000D01*
X135325681Y-72270000D01*
X135305016Y-72073382D01*
X135243923Y-71885357D01*
X135145072Y-71714143D01*
X135012784Y-71567222D01*
X134852841Y-71451016D01*
X134846813Y-71448332D01*
X134846811Y-71448331D01*
X134678263Y-71373289D01*
X134678262Y-71373289D01*
X134672232Y-71370604D01*
X134575541Y-71350052D01*
X134485308Y-71330872D01*
X134485304Y-71330872D01*
X134478851Y-71329500D01*
X134281149Y-71329500D01*
X134274696Y-71330872D01*
X134274692Y-71330872D01*
X134184459Y-71350052D01*
X134087768Y-71370604D01*
X134081738Y-71373289D01*
X134081737Y-71373289D01*
X133913190Y-71448331D01*
X133913188Y-71448332D01*
X133907160Y-71451016D01*
X133747216Y-71567222D01*
X133614928Y-71714143D01*
X133516077Y-71885357D01*
X133454984Y-72073382D01*
X133434319Y-72270000D01*
X116150462Y-72270000D01*
X119413058Y-69007404D01*
X119475370Y-68973378D01*
X119502153Y-68970499D01*
X133516449Y-68970499D01*
X133584570Y-68990501D01*
X133631063Y-69044157D01*
X133641167Y-69114431D01*
X133618572Y-69170096D01*
X133614928Y-69174143D01*
X133611628Y-69179858D01*
X133611627Y-69179860D01*
X133607875Y-69186359D01*
X133516077Y-69345357D01*
X133454984Y-69533382D01*
X133454294Y-69539943D01*
X133454294Y-69539945D01*
X133449182Y-69588585D01*
X133434319Y-69730000D01*
X133435009Y-69736565D01*
X133451963Y-69897871D01*
X133454984Y-69926618D01*
X133516077Y-70114643D01*
X133614928Y-70285857D01*
X133747216Y-70432778D01*
X133907159Y-70548984D01*
X133913187Y-70551668D01*
X133913189Y-70551669D01*
X134081737Y-70626711D01*
X134087768Y-70629396D01*
X134184458Y-70649948D01*
X134274692Y-70669128D01*
X134274696Y-70669128D01*
X134281149Y-70670500D01*
X134478851Y-70670500D01*
X134485304Y-70669128D01*
X134485308Y-70669128D01*
X134575542Y-70649948D01*
X134672232Y-70629396D01*
X134678263Y-70626711D01*
X134846811Y-70551669D01*
X134846813Y-70551668D01*
X134852841Y-70548984D01*
X135012784Y-70432778D01*
X135145072Y-70285857D01*
X135243923Y-70114643D01*
X135305016Y-69926618D01*
X135308038Y-69897871D01*
X135324991Y-69736565D01*
X135325681Y-69730000D01*
X148674319Y-69730000D01*
X148675009Y-69736565D01*
X148691963Y-69897871D01*
X148694984Y-69926618D01*
X148756077Y-70114643D01*
X148854928Y-70285857D01*
X148987216Y-70432778D01*
X149147159Y-70548984D01*
X149153187Y-70551668D01*
X149153189Y-70551669D01*
X149321737Y-70626711D01*
X149327768Y-70629396D01*
X149424458Y-70649948D01*
X149514692Y-70669128D01*
X149514696Y-70669128D01*
X149521149Y-70670500D01*
X149718851Y-70670500D01*
X149725304Y-70669128D01*
X149725308Y-70669128D01*
X149815542Y-70649948D01*
X149912232Y-70629396D01*
X149918263Y-70626711D01*
X150086811Y-70551669D01*
X150086813Y-70551668D01*
X150092841Y-70548984D01*
X150252784Y-70432778D01*
X150385072Y-70285857D01*
X150483923Y-70114643D01*
X150545016Y-69926618D01*
X150548038Y-69897871D01*
X150564991Y-69736565D01*
X150565681Y-69730000D01*
X150550818Y-69588585D01*
X150545706Y-69539945D01*
X150545706Y-69539943D01*
X150545016Y-69533382D01*
X150483923Y-69345357D01*
X150385072Y-69174143D01*
X150321641Y-69103695D01*
X150257206Y-69032133D01*
X150257205Y-69032132D01*
X150252784Y-69027222D01*
X150092841Y-68911016D01*
X150086813Y-68908332D01*
X150086811Y-68908331D01*
X149918263Y-68833289D01*
X149918262Y-68833289D01*
X149912232Y-68830604D01*
X149815541Y-68810052D01*
X149725308Y-68790872D01*
X149725304Y-68790872D01*
X149718851Y-68789500D01*
X149521149Y-68789500D01*
X149514696Y-68790872D01*
X149514692Y-68790872D01*
X149424459Y-68810052D01*
X149327768Y-68830604D01*
X149321738Y-68833289D01*
X149321737Y-68833289D01*
X149153190Y-68908331D01*
X149153188Y-68908332D01*
X149147160Y-68911016D01*
X149141819Y-68914896D01*
X149141818Y-68914897D01*
X149058129Y-68975701D01*
X148987216Y-69027222D01*
X148982795Y-69032132D01*
X148982794Y-69032133D01*
X148918360Y-69103695D01*
X148854928Y-69174143D01*
X148756077Y-69345357D01*
X148694984Y-69533382D01*
X148694294Y-69539943D01*
X148694294Y-69539945D01*
X148689182Y-69588585D01*
X148674319Y-69730000D01*
X135325681Y-69730000D01*
X135310818Y-69588585D01*
X135305706Y-69539945D01*
X135305706Y-69539943D01*
X135305016Y-69533382D01*
X135243923Y-69345357D01*
X135152125Y-69186359D01*
X135148373Y-69179860D01*
X135148372Y-69179858D01*
X135145072Y-69174143D01*
X135141466Y-69170138D01*
X135117757Y-69103695D01*
X135133836Y-69034543D01*
X135184748Y-68985062D01*
X135243551Y-68970499D01*
X138456439Y-68970499D01*
X138481019Y-68972920D01*
X138495001Y-68975701D01*
X138507172Y-68973280D01*
X138586425Y-68957515D01*
X138586426Y-68957514D01*
X138598594Y-68955094D01*
X138603199Y-68952017D01*
X138686416Y-68896414D01*
X138693310Y-68886097D01*
X138694335Y-68884563D01*
X138710006Y-68865468D01*
X140385474Y-67190000D01*
X148674319Y-67190000D01*
X148675009Y-67196565D01*
X148680026Y-67244295D01*
X148694984Y-67386618D01*
X148756077Y-67574643D01*
X148854928Y-67745857D01*
X148859346Y-67750764D01*
X148859347Y-67750765D01*
X148971968Y-67875843D01*
X148987216Y-67892778D01*
X148995440Y-67898753D01*
X149123355Y-67991689D01*
X149147159Y-68008984D01*
X149153187Y-68011668D01*
X149153189Y-68011669D01*
X149321737Y-68086711D01*
X149327768Y-68089396D01*
X149424458Y-68109948D01*
X149514692Y-68129128D01*
X149514696Y-68129128D01*
X149521149Y-68130500D01*
X149718851Y-68130500D01*
X149725304Y-68129128D01*
X149725308Y-68129128D01*
X149815542Y-68109948D01*
X149912232Y-68089396D01*
X149918263Y-68086711D01*
X150086811Y-68011669D01*
X150086813Y-68011668D01*
X150092841Y-68008984D01*
X150116646Y-67991689D01*
X150244560Y-67898753D01*
X150252784Y-67892778D01*
X150268032Y-67875843D01*
X150380653Y-67750765D01*
X150380654Y-67750764D01*
X150385072Y-67745857D01*
X150483923Y-67574643D01*
X150545016Y-67386618D01*
X150559975Y-67244295D01*
X150564991Y-67196565D01*
X150565681Y-67190000D01*
X150545016Y-66993382D01*
X150483923Y-66805357D01*
X150385072Y-66634143D01*
X150378270Y-66626588D01*
X150257206Y-66492133D01*
X150257205Y-66492132D01*
X150252784Y-66487222D01*
X150128906Y-66397219D01*
X150098183Y-66374897D01*
X150098182Y-66374896D01*
X150092841Y-66371016D01*
X150086813Y-66368332D01*
X150086811Y-66368331D01*
X149918263Y-66293289D01*
X149918262Y-66293289D01*
X149912232Y-66290604D01*
X149815542Y-66270052D01*
X149725308Y-66250872D01*
X149725304Y-66250872D01*
X149718851Y-66249500D01*
X149521149Y-66249500D01*
X149514696Y-66250872D01*
X149514692Y-66250872D01*
X149424458Y-66270052D01*
X149327768Y-66290604D01*
X149321738Y-66293289D01*
X149321737Y-66293289D01*
X149153190Y-66368331D01*
X149153188Y-66368332D01*
X149147160Y-66371016D01*
X149141819Y-66374896D01*
X149141818Y-66374897D01*
X148998617Y-66478939D01*
X148987216Y-66487222D01*
X148982795Y-66492132D01*
X148982794Y-66492133D01*
X148861731Y-66626588D01*
X148854928Y-66634143D01*
X148756077Y-66805357D01*
X148694984Y-66993382D01*
X148674319Y-67190000D01*
X140385474Y-67190000D01*
X140906114Y-66669360D01*
X140968426Y-66635334D01*
X141011654Y-66633533D01*
X141100000Y-66645164D01*
X141108188Y-66644086D01*
X141232911Y-66627666D01*
X141241099Y-66626588D01*
X141372582Y-66572126D01*
X141485489Y-66485489D01*
X141572126Y-66372582D01*
X141626588Y-66241099D01*
X141645164Y-66100000D01*
X141626588Y-65958901D01*
X141572126Y-65827418D01*
X141485489Y-65714511D01*
X141372582Y-65627874D01*
X141241099Y-65573412D01*
X141100000Y-65554836D01*
X140958901Y-65573412D01*
X140827418Y-65627874D01*
X140736921Y-65697315D01*
X140720129Y-65710200D01*
X140715500Y-65711990D01*
X140710200Y-65720129D01*
X140627874Y-65827418D01*
X140573412Y-65958901D01*
X140554836Y-66100000D01*
X140555914Y-66108187D01*
X140566467Y-66188344D01*
X140555528Y-66258493D01*
X140530640Y-66293886D01*
X138421932Y-68402594D01*
X138359620Y-68436620D01*
X138332837Y-68439499D01*
X137940165Y-68439499D01*
X137872044Y-68419497D01*
X137825551Y-68365841D01*
X137815447Y-68295567D01*
X137844941Y-68230987D01*
X137851070Y-68224404D01*
X139088370Y-66987104D01*
X140521143Y-65554330D01*
X140538450Y-65544880D01*
X140541665Y-65535935D01*
X140554330Y-65521143D01*
X140906113Y-65169360D01*
X140968425Y-65135334D01*
X141011654Y-65133533D01*
X141100000Y-65145164D01*
X141108188Y-65144086D01*
X141232911Y-65127666D01*
X141241099Y-65126588D01*
X141372582Y-65072126D01*
X141485489Y-64985489D01*
X141572126Y-64872582D01*
X141626588Y-64741099D01*
X141638581Y-64650000D01*
X148674319Y-64650000D01*
X148675009Y-64656565D01*
X148684696Y-64748728D01*
X148694984Y-64846618D01*
X148756077Y-65034643D01*
X148854928Y-65205857D01*
X148859346Y-65210764D01*
X148859347Y-65210765D01*
X148971968Y-65335843D01*
X148987216Y-65352778D01*
X149147159Y-65468984D01*
X149153187Y-65471668D01*
X149153189Y-65471669D01*
X149321735Y-65546710D01*
X149327768Y-65549396D01*
X149424459Y-65569948D01*
X149514692Y-65589128D01*
X149514696Y-65589128D01*
X149521149Y-65590500D01*
X149718851Y-65590500D01*
X149725304Y-65589128D01*
X149725308Y-65589128D01*
X149815541Y-65569948D01*
X149912232Y-65549396D01*
X149918259Y-65546713D01*
X149918267Y-65546710D01*
X149993437Y-65513242D01*
X150063804Y-65503808D01*
X150128101Y-65533915D01*
X150133780Y-65539254D01*
X154447595Y-69853069D01*
X154481621Y-69915381D01*
X154484500Y-69942164D01*
X154484500Y-83010304D01*
X154464498Y-83078425D01*
X154435204Y-83110266D01*
X154364511Y-83164511D01*
X154277874Y-83277418D01*
X154223412Y-83408901D01*
X154204836Y-83550000D01*
X154223412Y-83691099D01*
X154277874Y-83822582D01*
X154364511Y-83935489D01*
X154477418Y-84022126D01*
X154582135Y-84065501D01*
X154600937Y-84073289D01*
X154608901Y-84076588D01*
X154750000Y-84095164D01*
X154758188Y-84094086D01*
X154882911Y-84077666D01*
X154891099Y-84076588D01*
X154899064Y-84073289D01*
X154917865Y-84065501D01*
X155022582Y-84022126D01*
X155135489Y-83935489D01*
X155137751Y-83932541D01*
X155198217Y-83899523D01*
X155269032Y-83904588D01*
X155311979Y-83932189D01*
X155314511Y-83935489D01*
X155427418Y-84022126D01*
X155532135Y-84065501D01*
X155550937Y-84073289D01*
X155558901Y-84076588D01*
X155700000Y-84095164D01*
X155708188Y-84094086D01*
X155832911Y-84077666D01*
X155841099Y-84076588D01*
X155849064Y-84073289D01*
X155867865Y-84065501D01*
X155972582Y-84022126D01*
X156085489Y-83935489D01*
X156172126Y-83822582D01*
X156226588Y-83691099D01*
X156245164Y-83550000D01*
X156226588Y-83408901D01*
X156172126Y-83277418D01*
X156085489Y-83164511D01*
X156014796Y-83110266D01*
X155972929Y-83052928D01*
X155965500Y-83010304D01*
X155965500Y-68228558D01*
X155967921Y-68203977D01*
X155968280Y-68202172D01*
X155968280Y-68202171D01*
X155970701Y-68190000D01*
X155950095Y-68086407D01*
X155947559Y-68082611D01*
X155900158Y-68011669D01*
X155898310Y-68008904D01*
X155891415Y-67998585D01*
X155881097Y-67991691D01*
X155881095Y-67991689D01*
X155879566Y-67990668D01*
X155860470Y-67974997D01*
X155814973Y-67929499D01*
X155769248Y-67883774D01*
X155769238Y-67883765D01*
X150512655Y-62627181D01*
X150478629Y-62564869D01*
X150483614Y-62495179D01*
X150483923Y-62494643D01*
X150545016Y-62306618D01*
X150565681Y-62110000D01*
X150549519Y-61956229D01*
X150545706Y-61919945D01*
X150545706Y-61919943D01*
X150545016Y-61913382D01*
X150483923Y-61725357D01*
X150385072Y-61554143D01*
X150252784Y-61407222D01*
X150092841Y-61291016D01*
X150086813Y-61288332D01*
X150086811Y-61288331D01*
X149918263Y-61213289D01*
X149918262Y-61213289D01*
X149912232Y-61210604D01*
X149815542Y-61190052D01*
X149725308Y-61170872D01*
X149725304Y-61170872D01*
X149718851Y-61169500D01*
X149521149Y-61169500D01*
X149514696Y-61170872D01*
X149514692Y-61170872D01*
X149424458Y-61190052D01*
X149327768Y-61210604D01*
X149321738Y-61213289D01*
X149321737Y-61213289D01*
X149153190Y-61288331D01*
X149153188Y-61288332D01*
X149147160Y-61291016D01*
X148987216Y-61407222D01*
X148854928Y-61554143D01*
X148756077Y-61725357D01*
X148694984Y-61913382D01*
X148694294Y-61919943D01*
X148694294Y-61919945D01*
X148690481Y-61956229D01*
X148674319Y-62110000D01*
X148694984Y-62306618D01*
X148756077Y-62494643D01*
X148854928Y-62665857D01*
X148987216Y-62812778D01*
X149089508Y-62887098D01*
X149111298Y-62902929D01*
X149147159Y-62928984D01*
X149153187Y-62931668D01*
X149153189Y-62931669D01*
X149321735Y-63006710D01*
X149327768Y-63009396D01*
X149424458Y-63029948D01*
X149514692Y-63049128D01*
X149514696Y-63049128D01*
X149521149Y-63050500D01*
X149718851Y-63050500D01*
X149725304Y-63049128D01*
X149725308Y-63049128D01*
X149815542Y-63029948D01*
X149912232Y-63009396D01*
X149918259Y-63006713D01*
X149918267Y-63006710D01*
X149993437Y-62973242D01*
X150063804Y-62963808D01*
X150128101Y-62993915D01*
X150133780Y-62999254D01*
X155393772Y-68259245D01*
X155393774Y-68259248D01*
X155397595Y-68263069D01*
X155398967Y-68265582D01*
X155409515Y-68278448D01*
X155409517Y-68278451D01*
X155406935Y-68280173D01*
X155431621Y-68325381D01*
X155434500Y-68352164D01*
X155434500Y-83010304D01*
X155414498Y-83078425D01*
X155385204Y-83110266D01*
X155314511Y-83164511D01*
X155312249Y-83167459D01*
X155251783Y-83200477D01*
X155180968Y-83195412D01*
X155138021Y-83167811D01*
X155135489Y-83164511D01*
X155064796Y-83110266D01*
X155022929Y-83052928D01*
X155015500Y-83010304D01*
X155015500Y-69818562D01*
X155017921Y-69793979D01*
X155018281Y-69792169D01*
X155020702Y-69780000D01*
X155000095Y-69676408D01*
X155000095Y-69676407D01*
X154941415Y-69588585D01*
X154931099Y-69581692D01*
X154931098Y-69581691D01*
X154929564Y-69580666D01*
X154910469Y-69564995D01*
X150512655Y-65167181D01*
X150478629Y-65104869D01*
X150483614Y-65035179D01*
X150483923Y-65034643D01*
X150545016Y-64846618D01*
X150555305Y-64748728D01*
X150564991Y-64656565D01*
X150565681Y-64650000D01*
X150564677Y-64640450D01*
X150545706Y-64459945D01*
X150545706Y-64459943D01*
X150545016Y-64453382D01*
X150483923Y-64265357D01*
X150385072Y-64094143D01*
X150257237Y-63952167D01*
X150257206Y-63952133D01*
X150257205Y-63952132D01*
X150252784Y-63947222D01*
X150092841Y-63831016D01*
X150086813Y-63828332D01*
X150086811Y-63828331D01*
X149918263Y-63753289D01*
X149918262Y-63753289D01*
X149912232Y-63750604D01*
X149815542Y-63730052D01*
X149725308Y-63710872D01*
X149725304Y-63710872D01*
X149718851Y-63709500D01*
X149521149Y-63709500D01*
X149514696Y-63710872D01*
X149514692Y-63710872D01*
X149424458Y-63730052D01*
X149327768Y-63750604D01*
X149321738Y-63753289D01*
X149321737Y-63753289D01*
X149153190Y-63828331D01*
X149153188Y-63828332D01*
X149147160Y-63831016D01*
X148987216Y-63947222D01*
X148982795Y-63952132D01*
X148982794Y-63952133D01*
X148982764Y-63952167D01*
X148854928Y-64094143D01*
X148756077Y-64265357D01*
X148694984Y-64453382D01*
X148694294Y-64459943D01*
X148694294Y-64459945D01*
X148675323Y-64640450D01*
X148674319Y-64650000D01*
X141638581Y-64650000D01*
X141645164Y-64600000D01*
X141626588Y-64458901D01*
X141572126Y-64327418D01*
X141485489Y-64214511D01*
X141372582Y-64127874D01*
X141241099Y-64073412D01*
X141100000Y-64054836D01*
X140958901Y-64073412D01*
X140827418Y-64127874D01*
X140714511Y-64214511D01*
X140627874Y-64327418D01*
X140573412Y-64458901D01*
X140554836Y-64600000D01*
X140555914Y-64608188D01*
X140566467Y-64688346D01*
X140555528Y-64758494D01*
X140530640Y-64793887D01*
X137411930Y-67912596D01*
X137349618Y-67946622D01*
X137322835Y-67949501D01*
X135243551Y-67949501D01*
X135175430Y-67929499D01*
X135128937Y-67875843D01*
X135118833Y-67805569D01*
X135141428Y-67749904D01*
X135145072Y-67745857D01*
X135148374Y-67740139D01*
X135240619Y-67580366D01*
X135240620Y-67580365D01*
X135243923Y-67574643D01*
X135305016Y-67386618D01*
X135319975Y-67244295D01*
X135324991Y-67196565D01*
X135325681Y-67190000D01*
X135305016Y-66993382D01*
X135243923Y-66805357D01*
X135237894Y-66794914D01*
X135148373Y-66639860D01*
X135148372Y-66639858D01*
X135145072Y-66634143D01*
X135141466Y-66630138D01*
X135117757Y-66563695D01*
X135133836Y-66494543D01*
X135184748Y-66445062D01*
X135243551Y-66430499D01*
X135901437Y-66430499D01*
X135926017Y-66432920D01*
X135939999Y-66435701D01*
X135952170Y-66433280D01*
X136031423Y-66417515D01*
X136031424Y-66417514D01*
X136043592Y-66415094D01*
X136073774Y-66394927D01*
X136131414Y-66356414D01*
X136138308Y-66346097D01*
X136139333Y-66344563D01*
X136155004Y-66325468D01*
X140335469Y-62145003D01*
X140354564Y-62129332D01*
X140356098Y-62128307D01*
X140356099Y-62128306D01*
X140366415Y-62121413D01*
X140374041Y-62110000D01*
X140418201Y-62043909D01*
X140418201Y-62043908D01*
X140425095Y-62033591D01*
X140431758Y-62000095D01*
X140445702Y-61929998D01*
X140442921Y-61916016D01*
X140440500Y-61891436D01*
X140440500Y-59570000D01*
X148674319Y-59570000D01*
X148694984Y-59766618D01*
X148756077Y-59954643D01*
X148854928Y-60125857D01*
X148987216Y-60272778D01*
X149147159Y-60388984D01*
X149153187Y-60391668D01*
X149153189Y-60391669D01*
X149321737Y-60466711D01*
X149327768Y-60469396D01*
X149424459Y-60489948D01*
X149514692Y-60509128D01*
X149514696Y-60509128D01*
X149521149Y-60510500D01*
X149718851Y-60510500D01*
X149725304Y-60509128D01*
X149725308Y-60509128D01*
X149815541Y-60489948D01*
X149912232Y-60469396D01*
X149918263Y-60466711D01*
X150086811Y-60391669D01*
X150086813Y-60391668D01*
X150092841Y-60388984D01*
X150252784Y-60272778D01*
X150385072Y-60125857D01*
X150483923Y-59954643D01*
X150545016Y-59766618D01*
X150565681Y-59570000D01*
X150545016Y-59373382D01*
X150483923Y-59185357D01*
X150385072Y-59014143D01*
X150252784Y-58867222D01*
X150092841Y-58751016D01*
X150086813Y-58748332D01*
X150086811Y-58748331D01*
X149918263Y-58673289D01*
X149918262Y-58673289D01*
X149912232Y-58670604D01*
X149815542Y-58650052D01*
X149725308Y-58630872D01*
X149725304Y-58630872D01*
X149718851Y-58629500D01*
X149521149Y-58629500D01*
X149514696Y-58630872D01*
X149514692Y-58630872D01*
X149424458Y-58650052D01*
X149327768Y-58670604D01*
X149321738Y-58673289D01*
X149321737Y-58673289D01*
X149153190Y-58748331D01*
X149153188Y-58748332D01*
X149147160Y-58751016D01*
X148987216Y-58867222D01*
X148854928Y-59014143D01*
X148756077Y-59185357D01*
X148694984Y-59373382D01*
X148674319Y-59570000D01*
X140440500Y-59570000D01*
X140440500Y-56472164D01*
X140460502Y-56404043D01*
X140477405Y-56383069D01*
X142059212Y-54801262D01*
X142121524Y-54767236D01*
X142138637Y-54764728D01*
X142183014Y-54761314D01*
X142256689Y-54755645D01*
X142256693Y-54755644D01*
X142262831Y-54755172D01*
X142341576Y-54733186D01*
X142443978Y-54704595D01*
X142443982Y-54704594D01*
X142449922Y-54702935D01*
X142531866Y-54661543D01*
X142617804Y-54618133D01*
X142617806Y-54618132D01*
X142623305Y-54615354D01*
X142776374Y-54495763D01*
X142780400Y-54491099D01*
X142780403Y-54491096D01*
X142781349Y-54490000D01*
X148674319Y-54490000D01*
X148675009Y-54496565D01*
X148694270Y-54679821D01*
X148694984Y-54686618D01*
X148756077Y-54874643D01*
X148854928Y-55045857D01*
X148987216Y-55192778D01*
X149147159Y-55308984D01*
X149153187Y-55311668D01*
X149153189Y-55311669D01*
X149321737Y-55386711D01*
X149327768Y-55389396D01*
X149424458Y-55409948D01*
X149514692Y-55429128D01*
X149514696Y-55429128D01*
X149521149Y-55430500D01*
X149718851Y-55430500D01*
X149725304Y-55429128D01*
X149725308Y-55429128D01*
X149815541Y-55409948D01*
X149912232Y-55389396D01*
X149918263Y-55386711D01*
X150086811Y-55311669D01*
X150086813Y-55311668D01*
X150092841Y-55308984D01*
X150252784Y-55192778D01*
X150385072Y-55045857D01*
X150483923Y-54874643D01*
X150545016Y-54686618D01*
X150545731Y-54679821D01*
X150564991Y-54496565D01*
X150565681Y-54490000D01*
X150545016Y-54293382D01*
X150483923Y-54105357D01*
X150385072Y-53934143D01*
X150269957Y-53806294D01*
X150257206Y-53792133D01*
X150257205Y-53792132D01*
X150252784Y-53787222D01*
X150092841Y-53671016D01*
X150086813Y-53668332D01*
X150086811Y-53668331D01*
X149918263Y-53593289D01*
X149918262Y-53593289D01*
X149912232Y-53590604D01*
X149806203Y-53568067D01*
X149725308Y-53550872D01*
X149725304Y-53550872D01*
X149718851Y-53549500D01*
X149521149Y-53549500D01*
X149514696Y-53550872D01*
X149514692Y-53550872D01*
X149433797Y-53568067D01*
X149327768Y-53590604D01*
X149321738Y-53593289D01*
X149321737Y-53593289D01*
X149153190Y-53668331D01*
X149153188Y-53668332D01*
X149147160Y-53671016D01*
X149141819Y-53674896D01*
X149141818Y-53674897D01*
X148999214Y-53778505D01*
X148987216Y-53787222D01*
X148982795Y-53792132D01*
X148982794Y-53792133D01*
X148970044Y-53806294D01*
X148854928Y-53934143D01*
X148756077Y-54105357D01*
X148694984Y-54293382D01*
X148674319Y-54490000D01*
X142781349Y-54490000D01*
X142899272Y-54353384D01*
X142903299Y-54348719D01*
X142922933Y-54314158D01*
X142996202Y-54185179D01*
X142996203Y-54185178D01*
X142999245Y-54179822D01*
X143010205Y-54146877D01*
X143058612Y-54001358D01*
X143060559Y-53995506D01*
X143084905Y-53802790D01*
X143085293Y-53775000D01*
X143066338Y-53581680D01*
X143010194Y-53395723D01*
X142919001Y-53224213D01*
X142796231Y-53073683D01*
X142646561Y-52949865D01*
X142475692Y-52857476D01*
X142344333Y-52816814D01*
X142296018Y-52801858D01*
X142296015Y-52801857D01*
X142290131Y-52800036D01*
X142284006Y-52799392D01*
X142284005Y-52799392D01*
X142103076Y-52780375D01*
X142103075Y-52780375D01*
X142096948Y-52779731D01*
X142031283Y-52785707D01*
X141909640Y-52796777D01*
X141909637Y-52796778D01*
X141903501Y-52797336D01*
X141897595Y-52799074D01*
X141897591Y-52799075D01*
X141778866Y-52834018D01*
X141717157Y-52852180D01*
X141545014Y-52942174D01*
X141393630Y-53063890D01*
X141389672Y-53068607D01*
X141389670Y-53068609D01*
X141381411Y-53078452D01*
X141268770Y-53212692D01*
X141265806Y-53218084D01*
X141265803Y-53218088D01*
X141178158Y-53377515D01*
X141175191Y-53382912D01*
X141116457Y-53568067D01*
X141115771Y-53574184D01*
X141115770Y-53574188D01*
X141105210Y-53668331D01*
X141094804Y-53761104D01*
X141095320Y-53767248D01*
X141109815Y-53939861D01*
X141111058Y-53954669D01*
X141164600Y-54141392D01*
X141167419Y-54146877D01*
X141242713Y-54293382D01*
X141253390Y-54314158D01*
X141257216Y-54318985D01*
X141370217Y-54461559D01*
X141370222Y-54461564D01*
X141374046Y-54466389D01*
X141378739Y-54470383D01*
X141378740Y-54470384D01*
X141415433Y-54501612D01*
X141454346Y-54560995D01*
X141454977Y-54631989D01*
X141422865Y-54686661D01*
X140030595Y-56078931D01*
X139968283Y-56112957D01*
X139897468Y-56107892D01*
X139840632Y-56065345D01*
X139815821Y-55998825D01*
X139815500Y-55989836D01*
X139815500Y-54891499D01*
X139835502Y-54823378D01*
X139889158Y-54776885D01*
X139941500Y-54765499D01*
X140413840Y-54765499D01*
X140454821Y-54757349D01*
X140501295Y-54726295D01*
X140532349Y-54679821D01*
X140537318Y-54654837D01*
X140539293Y-54644911D01*
X140539293Y-54644908D01*
X140540500Y-54638841D01*
X140540499Y-52911160D01*
X140532349Y-52870179D01*
X140501295Y-52823705D01*
X140454821Y-52792651D01*
X140429837Y-52787682D01*
X140419911Y-52785707D01*
X140419908Y-52785707D01*
X140413841Y-52784500D01*
X139550349Y-52784500D01*
X138686160Y-52784501D01*
X138645179Y-52792651D01*
X138598705Y-52823705D01*
X138567651Y-52870179D01*
X138565230Y-52882353D01*
X138560708Y-52905087D01*
X138559500Y-52911159D01*
X138559501Y-54638840D01*
X138567651Y-54679821D01*
X138598705Y-54726295D01*
X138645179Y-54757349D01*
X138670163Y-54762318D01*
X138680089Y-54764293D01*
X138680092Y-54764293D01*
X138686159Y-54765500D01*
X139158500Y-54765500D01*
X139226621Y-54785502D01*
X139273114Y-54839158D01*
X139284500Y-54891500D01*
X139284500Y-61587837D01*
X139264498Y-61655958D01*
X139247595Y-61676932D01*
X137960718Y-62963808D01*
X136714531Y-64209995D01*
X136695436Y-64225666D01*
X136693906Y-64226688D01*
X136693904Y-64226690D01*
X136683585Y-64233585D01*
X136668774Y-64255752D01*
X136624905Y-64321407D01*
X136622485Y-64333574D01*
X136622484Y-64333576D01*
X136619148Y-64350349D01*
X136584665Y-64414862D01*
X135626928Y-65372598D01*
X135564618Y-65406622D01*
X135537835Y-65409501D01*
X135243551Y-65409501D01*
X135175430Y-65389499D01*
X135128937Y-65335843D01*
X135118833Y-65265569D01*
X135141428Y-65209904D01*
X135145072Y-65205857D01*
X135148374Y-65200139D01*
X135240619Y-65040366D01*
X135240620Y-65040365D01*
X135243923Y-65034643D01*
X135305016Y-64846618D01*
X135315305Y-64748728D01*
X135324991Y-64656565D01*
X135325681Y-64650000D01*
X135324677Y-64640450D01*
X135305706Y-64459945D01*
X135305706Y-64459943D01*
X135305016Y-64453382D01*
X135243923Y-64265357D01*
X135145072Y-64094143D01*
X135017237Y-63952167D01*
X135017206Y-63952133D01*
X135017205Y-63952132D01*
X135012784Y-63947222D01*
X134852841Y-63831016D01*
X134846813Y-63828332D01*
X134846811Y-63828331D01*
X134678263Y-63753289D01*
X134678262Y-63753289D01*
X134672232Y-63750604D01*
X134575542Y-63730052D01*
X134485308Y-63710872D01*
X134485304Y-63710872D01*
X134478851Y-63709500D01*
X134281149Y-63709500D01*
X134274696Y-63710872D01*
X134274692Y-63710872D01*
X134184458Y-63730052D01*
X134087768Y-63750604D01*
X134081738Y-63753289D01*
X134081737Y-63753289D01*
X133913190Y-63828331D01*
X133913188Y-63828332D01*
X133907160Y-63831016D01*
X133747216Y-63947222D01*
X133742795Y-63952132D01*
X133742794Y-63952133D01*
X133742764Y-63952167D01*
X133614928Y-64094143D01*
X133516077Y-64265357D01*
X133454984Y-64453382D01*
X133454294Y-64459943D01*
X133454294Y-64459945D01*
X133435323Y-64640450D01*
X133434319Y-64650000D01*
X133435009Y-64656565D01*
X133444696Y-64748728D01*
X133454984Y-64846618D01*
X133516077Y-65034643D01*
X133519380Y-65040365D01*
X133519381Y-65040366D01*
X133611627Y-65200139D01*
X133614928Y-65205857D01*
X133618534Y-65209862D01*
X133642243Y-65276305D01*
X133626164Y-65345457D01*
X133575252Y-65394938D01*
X133516449Y-65409501D01*
X133193573Y-65409501D01*
X133168993Y-65407080D01*
X133155011Y-65404299D01*
X133068224Y-65421563D01*
X133051418Y-65424906D01*
X132963596Y-65483586D01*
X132956702Y-65493904D01*
X132956700Y-65493906D01*
X132955679Y-65495435D01*
X132940008Y-65514530D01*
X131306943Y-67147595D01*
X131244631Y-67181621D01*
X131217848Y-67184500D01*
X119148586Y-67184500D01*
X119124006Y-67182079D01*
X119110024Y-67179298D01*
X119097853Y-67181719D01*
X119089227Y-67183435D01*
X119006431Y-67199905D01*
X118918609Y-67258585D01*
X118911716Y-67268901D01*
X118911715Y-67268902D01*
X118910688Y-67270439D01*
X118895017Y-67289534D01*
X115366955Y-70817595D01*
X115304643Y-70851621D01*
X115277860Y-70854500D01*
X106423574Y-70854500D01*
X106398994Y-70852079D01*
X106385012Y-70849298D01*
X106298225Y-70866562D01*
X106281419Y-70869905D01*
X106193597Y-70928585D01*
X106186704Y-70938901D01*
X106186703Y-70938902D01*
X106185678Y-70940436D01*
X106170007Y-70959531D01*
X103139514Y-73990024D01*
X103120419Y-74005695D01*
X103118889Y-74006717D01*
X103118887Y-74006719D01*
X103108568Y-74013614D01*
X103093757Y-74035781D01*
X103049888Y-74101436D01*
X103047468Y-74113604D01*
X103047467Y-74113605D01*
X103032127Y-74190721D01*
X103029281Y-74205029D01*
X103031702Y-74217198D01*
X103032062Y-74219008D01*
X103034483Y-74243591D01*
X103034483Y-88161421D01*
X103032062Y-88186001D01*
X103029281Y-88199983D01*
X100140500Y-88199983D01*
X100140500Y-68582843D01*
X112275947Y-68582843D01*
X112284990Y-68823741D01*
X112293745Y-68865468D01*
X112331239Y-69044157D01*
X112334494Y-69059672D01*
X112423041Y-69283888D01*
X112548101Y-69489980D01*
X112551598Y-69494010D01*
X112635221Y-69590377D01*
X112706096Y-69672054D01*
X112710222Y-69675437D01*
X112710226Y-69675441D01*
X112784773Y-69736565D01*
X112892511Y-69824904D01*
X112897147Y-69827543D01*
X112897150Y-69827545D01*
X112941990Y-69853069D01*
X113102014Y-69944160D01*
X113328615Y-70026413D01*
X113565836Y-70069309D01*
X113569975Y-70069504D01*
X113569982Y-70069505D01*
X113589603Y-70070430D01*
X113589610Y-70070430D01*
X113591091Y-70070500D01*
X113760529Y-70070500D01*
X113844179Y-70063402D01*
X113934894Y-70055705D01*
X113934898Y-70055704D01*
X113940205Y-70055254D01*
X113945360Y-70053916D01*
X113945366Y-70053915D01*
X114168370Y-69996034D01*
X114168369Y-69996034D01*
X114173541Y-69994692D01*
X114349605Y-69915381D01*
X114388476Y-69897871D01*
X114388479Y-69897870D01*
X114393337Y-69895681D01*
X114593309Y-69761052D01*
X114767738Y-69594655D01*
X114808444Y-69539945D01*
X114908452Y-69405529D01*
X114911638Y-69401247D01*
X115020893Y-69186359D01*
X115092379Y-68956134D01*
X115101865Y-68884563D01*
X115123353Y-68722441D01*
X115123353Y-68722437D01*
X115124053Y-68717157D01*
X115115010Y-68476259D01*
X115078021Y-68299974D01*
X115066603Y-68245555D01*
X115066602Y-68245552D01*
X115065506Y-68240328D01*
X114976959Y-68016112D01*
X114851899Y-67810020D01*
X114848037Y-67805569D01*
X114697404Y-67631979D01*
X114697402Y-67631977D01*
X114693904Y-67627946D01*
X114689778Y-67624563D01*
X114689774Y-67624559D01*
X114511617Y-67478481D01*
X114507489Y-67475096D01*
X114502853Y-67472457D01*
X114502850Y-67472455D01*
X114352055Y-67386618D01*
X114297986Y-67355840D01*
X114071385Y-67273587D01*
X113834164Y-67230691D01*
X113830025Y-67230496D01*
X113830018Y-67230495D01*
X113810397Y-67229570D01*
X113810390Y-67229570D01*
X113808909Y-67229500D01*
X113639471Y-67229500D01*
X113555821Y-67236598D01*
X113465106Y-67244295D01*
X113465102Y-67244296D01*
X113459795Y-67244746D01*
X113454640Y-67246084D01*
X113454634Y-67246085D01*
X113321054Y-67280756D01*
X113226459Y-67305308D01*
X113072710Y-67374567D01*
X113011524Y-67402129D01*
X113011521Y-67402130D01*
X113006663Y-67404319D01*
X112806691Y-67538948D01*
X112632262Y-67705345D01*
X112488362Y-67898753D01*
X112485946Y-67903504D01*
X112485944Y-67903508D01*
X112392799Y-68086711D01*
X112379107Y-68113641D01*
X112307621Y-68343866D01*
X112306920Y-68349153D01*
X112306920Y-68349154D01*
X112290074Y-68476259D01*
X112275947Y-68582843D01*
X100140500Y-68582843D01*
X100140500Y-64550000D01*
X107524521Y-64550000D01*
X107524791Y-64554119D01*
X107543963Y-64846618D01*
X107544416Y-64853536D01*
X107545220Y-64857576D01*
X107545220Y-64857579D01*
X107602425Y-65145164D01*
X107603760Y-65151878D01*
X107605085Y-65155781D01*
X107605086Y-65155785D01*
X107690234Y-65406622D01*
X107701538Y-65439922D01*
X107836076Y-65712739D01*
X108005073Y-65965662D01*
X108007787Y-65968756D01*
X108007791Y-65968762D01*
X108130064Y-66108187D01*
X108205638Y-66194362D01*
X108208727Y-66197071D01*
X108431238Y-66392209D01*
X108431244Y-66392213D01*
X108434338Y-66394927D01*
X108687261Y-66563924D01*
X108690960Y-66565748D01*
X108690965Y-66565751D01*
X108808384Y-66623655D01*
X108960078Y-66698462D01*
X108963983Y-66699788D01*
X108963984Y-66699788D01*
X109244215Y-66794914D01*
X109244219Y-66794915D01*
X109248122Y-66796240D01*
X109252161Y-66797043D01*
X109252167Y-66797045D01*
X109542421Y-66854780D01*
X109542424Y-66854780D01*
X109546464Y-66855584D01*
X109550575Y-66855853D01*
X109550579Y-66855854D01*
X109771987Y-66870366D01*
X109771996Y-66870366D01*
X109774036Y-66870500D01*
X109925964Y-66870500D01*
X109928004Y-66870366D01*
X109928013Y-66870366D01*
X110149421Y-66855854D01*
X110149425Y-66855853D01*
X110153536Y-66855584D01*
X110157576Y-66854780D01*
X110157579Y-66854780D01*
X110447833Y-66797045D01*
X110447839Y-66797043D01*
X110451878Y-66796240D01*
X110455781Y-66794915D01*
X110455785Y-66794914D01*
X110736016Y-66699788D01*
X110736017Y-66699788D01*
X110739922Y-66698462D01*
X110891616Y-66623655D01*
X111009035Y-66565751D01*
X111009040Y-66565748D01*
X111012739Y-66563924D01*
X111265662Y-66394927D01*
X111268756Y-66392213D01*
X111268762Y-66392209D01*
X111491273Y-66197071D01*
X111494362Y-66194362D01*
X111569936Y-66108187D01*
X111692209Y-65968762D01*
X111692213Y-65968756D01*
X111694927Y-65965662D01*
X111704543Y-65951272D01*
X111861630Y-65716173D01*
X111861631Y-65716172D01*
X111863924Y-65712740D01*
X111998462Y-65439922D01*
X112009766Y-65406622D01*
X112094914Y-65155785D01*
X112094915Y-65155781D01*
X112096240Y-65151878D01*
X112097576Y-65145164D01*
X112154780Y-64857579D01*
X112154780Y-64857576D01*
X112155584Y-64853536D01*
X112156038Y-64846618D01*
X112175209Y-64554119D01*
X112175479Y-64550000D01*
X112159820Y-64311091D01*
X112155854Y-64250579D01*
X112155853Y-64250575D01*
X112155584Y-64246464D01*
X112153022Y-64233585D01*
X112097045Y-63952167D01*
X112097043Y-63952161D01*
X112096240Y-63948122D01*
X112094617Y-63943339D01*
X111999788Y-63663984D01*
X111999788Y-63663983D01*
X111998462Y-63660078D01*
X111863924Y-63387261D01*
X111694927Y-63134338D01*
X111692213Y-63131244D01*
X111692209Y-63131238D01*
X111497071Y-62908727D01*
X111494362Y-62905638D01*
X111491273Y-62902929D01*
X111268762Y-62707791D01*
X111268756Y-62707787D01*
X111265662Y-62705073D01*
X111012739Y-62536076D01*
X111009040Y-62534252D01*
X111009035Y-62534249D01*
X110869048Y-62465216D01*
X110739922Y-62401538D01*
X110478792Y-62312896D01*
X110455785Y-62305086D01*
X110455781Y-62305085D01*
X110451878Y-62303760D01*
X110447839Y-62302957D01*
X110447833Y-62302955D01*
X110157579Y-62245220D01*
X110157576Y-62245220D01*
X110153536Y-62244416D01*
X110149425Y-62244147D01*
X110149421Y-62244146D01*
X109928013Y-62229634D01*
X109928004Y-62229634D01*
X109925964Y-62229500D01*
X109774036Y-62229500D01*
X109771996Y-62229634D01*
X109771987Y-62229634D01*
X109550579Y-62244146D01*
X109550575Y-62244147D01*
X109546464Y-62244416D01*
X109542424Y-62245220D01*
X109542421Y-62245220D01*
X109252167Y-62302955D01*
X109252161Y-62302957D01*
X109248122Y-62303760D01*
X109244219Y-62305085D01*
X109244215Y-62305086D01*
X109221208Y-62312896D01*
X108960078Y-62401538D01*
X108830952Y-62465216D01*
X108690965Y-62534249D01*
X108690960Y-62534252D01*
X108687261Y-62536076D01*
X108434338Y-62705073D01*
X108431244Y-62707787D01*
X108431238Y-62707791D01*
X108208727Y-62902929D01*
X108205638Y-62905638D01*
X108202929Y-62908727D01*
X108007791Y-63131238D01*
X108007787Y-63131244D01*
X108005073Y-63134338D01*
X107836076Y-63387260D01*
X107701538Y-63660078D01*
X107700212Y-63663983D01*
X107700212Y-63663984D01*
X107605384Y-63943339D01*
X107603760Y-63948122D01*
X107602957Y-63952161D01*
X107602955Y-63952167D01*
X107546978Y-64233585D01*
X107544416Y-64246464D01*
X107544147Y-64250575D01*
X107544146Y-64250579D01*
X107540180Y-64311091D01*
X107524521Y-64550000D01*
X100140500Y-64550000D01*
X100140500Y-62110000D01*
X133434319Y-62110000D01*
X133454984Y-62306618D01*
X133516077Y-62494643D01*
X133614928Y-62665857D01*
X133747216Y-62812778D01*
X133849508Y-62887098D01*
X133871298Y-62902929D01*
X133907159Y-62928984D01*
X133913187Y-62931668D01*
X133913189Y-62931669D01*
X134081735Y-63006710D01*
X134087768Y-63009396D01*
X134184458Y-63029948D01*
X134274692Y-63049128D01*
X134274696Y-63049128D01*
X134281149Y-63050500D01*
X134478851Y-63050500D01*
X134485304Y-63049128D01*
X134485308Y-63049128D01*
X134575542Y-63029948D01*
X134672232Y-63009396D01*
X134678265Y-63006710D01*
X134846811Y-62931669D01*
X134846813Y-62931668D01*
X134852841Y-62928984D01*
X134888703Y-62902929D01*
X134910492Y-62887098D01*
X135012784Y-62812778D01*
X135145072Y-62665857D01*
X135243923Y-62494643D01*
X135305016Y-62306618D01*
X135325681Y-62110000D01*
X135309519Y-61956229D01*
X135305706Y-61919945D01*
X135305706Y-61919943D01*
X135305016Y-61913382D01*
X135243923Y-61725357D01*
X135145072Y-61554143D01*
X135012784Y-61407222D01*
X134852841Y-61291016D01*
X134846813Y-61288332D01*
X134846811Y-61288331D01*
X134678263Y-61213289D01*
X134678262Y-61213289D01*
X134672232Y-61210604D01*
X134575542Y-61190052D01*
X134485308Y-61170872D01*
X134485304Y-61170872D01*
X134478851Y-61169500D01*
X134281149Y-61169500D01*
X134274696Y-61170872D01*
X134274692Y-61170872D01*
X134184458Y-61190052D01*
X134087768Y-61210604D01*
X134081738Y-61213289D01*
X134081737Y-61213289D01*
X133913190Y-61288331D01*
X133913188Y-61288332D01*
X133907160Y-61291016D01*
X133747216Y-61407222D01*
X133614928Y-61554143D01*
X133516077Y-61725357D01*
X133454984Y-61913382D01*
X133454294Y-61919943D01*
X133454294Y-61919945D01*
X133450481Y-61956229D01*
X133434319Y-62110000D01*
X100140500Y-62110000D01*
X100140500Y-59570000D01*
X133434319Y-59570000D01*
X133454984Y-59766618D01*
X133516077Y-59954643D01*
X133614928Y-60125857D01*
X133747216Y-60272778D01*
X133907159Y-60388984D01*
X133913187Y-60391668D01*
X133913189Y-60391669D01*
X134081737Y-60466711D01*
X134087768Y-60469396D01*
X134184459Y-60489948D01*
X134274692Y-60509128D01*
X134274696Y-60509128D01*
X134281149Y-60510500D01*
X134478851Y-60510500D01*
X134485304Y-60509128D01*
X134485308Y-60509128D01*
X134575541Y-60489948D01*
X134672232Y-60469396D01*
X134678263Y-60466711D01*
X134846811Y-60391669D01*
X134846813Y-60391668D01*
X134852841Y-60388984D01*
X135012784Y-60272778D01*
X135145072Y-60125857D01*
X135243923Y-59954643D01*
X135305016Y-59766618D01*
X135325681Y-59570000D01*
X135305016Y-59373382D01*
X135243923Y-59185357D01*
X135145072Y-59014143D01*
X135012784Y-58867222D01*
X134852841Y-58751016D01*
X134846813Y-58748332D01*
X134846811Y-58748331D01*
X134678263Y-58673289D01*
X134678262Y-58673289D01*
X134672232Y-58670604D01*
X134575542Y-58650052D01*
X134485308Y-58630872D01*
X134485304Y-58630872D01*
X134478851Y-58629500D01*
X134281149Y-58629500D01*
X134274696Y-58630872D01*
X134274692Y-58630872D01*
X134184458Y-58650052D01*
X134087768Y-58670604D01*
X134081738Y-58673289D01*
X134081737Y-58673289D01*
X133913190Y-58748331D01*
X133913188Y-58748332D01*
X133907160Y-58751016D01*
X133747216Y-58867222D01*
X133614928Y-59014143D01*
X133516077Y-59185357D01*
X133454984Y-59373382D01*
X133434319Y-59570000D01*
X100140500Y-59570000D01*
X100140500Y-57030000D01*
X133434319Y-57030000D01*
X133454984Y-57226618D01*
X133516077Y-57414643D01*
X133614928Y-57585857D01*
X133747216Y-57732778D01*
X133907159Y-57848984D01*
X133913187Y-57851668D01*
X133913189Y-57851669D01*
X134081737Y-57926711D01*
X134087768Y-57929396D01*
X134184458Y-57949948D01*
X134274692Y-57969128D01*
X134274696Y-57969128D01*
X134281149Y-57970500D01*
X134478851Y-57970500D01*
X134485304Y-57969128D01*
X134485308Y-57969128D01*
X134575542Y-57949948D01*
X134672232Y-57929396D01*
X134678263Y-57926711D01*
X134846811Y-57851669D01*
X134846813Y-57851668D01*
X134852841Y-57848984D01*
X135012784Y-57732778D01*
X135145072Y-57585857D01*
X135243923Y-57414643D01*
X135305016Y-57226618D01*
X135325681Y-57030000D01*
X135305016Y-56833382D01*
X135243923Y-56645357D01*
X135145072Y-56474143D01*
X135012784Y-56327222D01*
X134852841Y-56211016D01*
X134846813Y-56208332D01*
X134846811Y-56208331D01*
X134678263Y-56133289D01*
X134678262Y-56133289D01*
X134672232Y-56130604D01*
X134575541Y-56110052D01*
X134485308Y-56090872D01*
X134485304Y-56090872D01*
X134478851Y-56089500D01*
X134281149Y-56089500D01*
X134274696Y-56090872D01*
X134274692Y-56090872D01*
X134184459Y-56110052D01*
X134087768Y-56130604D01*
X134081738Y-56133289D01*
X134081737Y-56133289D01*
X133913190Y-56208331D01*
X133913188Y-56208332D01*
X133907160Y-56211016D01*
X133747216Y-56327222D01*
X133614928Y-56474143D01*
X133516077Y-56645357D01*
X133454984Y-56833382D01*
X133434319Y-57030000D01*
X100140500Y-57030000D01*
X100140500Y-50266500D01*
X100160502Y-50198379D01*
X100214158Y-50151886D01*
X100266500Y-50140500D01*
X146514915Y-50140500D01*
X146519951Y-50141163D01*
X146533978Y-50141163D01*
X146550000Y-50145456D01*
X146568496Y-50140500D01*
X146606707Y-50130262D01*
X146606708Y-50130261D01*
X146622728Y-50125969D01*
X146675969Y-50072728D01*
X146679244Y-50060506D01*
X146728012Y-50014006D01*
X146785747Y-50000000D01*
X157264253Y-50000000D01*
X157332374Y-50020002D01*
G37*
%TD.AperFunction*%
%TD*%
M02*
