M48
; DRILL file {KiCad 5.1.9+dfsg1-1} date Mon May 17 21:49:59 2021
; FORMAT={-:-/ absolute / inch / decimal}
; #@! TF.CreationDate,2021-05-17T21:49:59+02:00
; #@! TF.GenerationSoftware,Kicad,Pcbnew,5.1.9+dfsg1-1
; #@! TF.FileFunction,Plated,1,2,PTH
FMAT,2
INCH
T1C0.0157
T2C0.0394
T3C0.0433
T4C0.0551
T5C0.1260
%
G90
G05
T1
X5.445Y-5.255
X5.58Y-5.255
X5.725Y-5.585
X5.8Y-5.205
X5.83Y-5.175
X5.87Y-5.265
X5.91Y-5.235
X6.12Y-5.175
X6.15Y-5.205
X6.195Y-5.235
X6.235Y-5.265
X6.2743Y-5.6007
X6.295Y-5.34
X6.4Y-4.66
X6.45Y-4.98
X6.45Y-5.41
X6.4857Y-5.6
X6.535Y-5.6
X6.54Y-5.015
X6.61Y-5.34
X6.63Y-5.6
X6.76Y-4.725
X6.8Y-4.985
X6.84Y-5.65
X6.855Y-5.61
X6.86Y-4.555
X6.91Y-4.985
X6.91Y-5.385
X6.96Y-5.385
X6.9841Y-4.7059
X6.985Y-4.77
X7.015Y-4.985
X7.035Y-5.715
X7.16Y-5.385
X7.16Y-5.715
X7.21Y-5.385
X7.21Y-5.715
X7.26Y-4.57
X7.285Y-5.265
X7.32Y-5.235
X7.38Y-5.385
X7.5Y-5.645
X7.54Y-5.385
X7.86Y-5.645
X8.29Y-5.82
X8.36Y-5.16
X8.36Y-5.56
T2
X7.62Y-4.98
X7.72Y-4.98
X7.82Y-4.98
T3
X5.33Y-5.1
X5.33Y-5.7
X5.43Y-5.1
X5.43Y-5.7
X5.53Y-5.1
X5.53Y-5.7
X5.63Y-5.1
X5.63Y-5.7
X5.73Y-5.1
X5.73Y-5.7
X5.83Y-5.1
X5.83Y-5.7
X5.93Y-5.1
X5.93Y-5.7
X6.03Y-5.1
X6.03Y-5.7
X6.13Y-5.1
X6.13Y-5.7
X6.23Y-5.1
X6.23Y-5.7
X6.33Y-5.1
X6.33Y-5.7
X6.43Y-5.1
X6.43Y-5.7
X6.53Y-5.1
X6.53Y-5.7
X6.63Y-5.1
X6.63Y-5.7
T4
X5.3886Y-4.6635
X5.3886Y-4.88
X5.5539Y-4.6635
X5.5539Y-4.88
X5.7146Y-5.9435
X5.7146Y-6.16
X5.7193Y-4.6635
X5.7193Y-4.88
X5.88Y-5.9435
X5.88Y-6.16
X5.8846Y-4.6635
X5.8846Y-4.88
X6.05Y-4.6635
X6.05Y-4.88
X6.2346Y-5.9435
X6.2346Y-6.16
X6.4Y-5.9435
X6.4Y-6.16
X6.75Y-5.94
X6.75Y-6.1565
X6.9154Y-5.94
X6.9154Y-6.1565
X7.0807Y-5.94
X7.0807Y-6.1565
X7.2461Y-5.94
X7.2461Y-6.1565
X7.4114Y-5.94
X7.4114Y-6.1565
X7.5768Y-5.94
X7.5768Y-6.1565
X7.7421Y-5.94
X7.7421Y-6.1565
X7.9075Y-5.94
X7.9075Y-6.1565
T5
X5.15Y-4.55
X5.15Y-6.25
X8.55Y-4.55
X8.55Y-6.25
T0
M30
