%TF.GenerationSoftware,KiCad,Pcbnew,5.1.9+dfsg1-1*%
%TF.CreationDate,2021-07-09T17:21:31+02:00*%
%TF.ProjectId,JoeMBMS_V1.1,4a6f654d-424d-4535-9f56-312e312e6b69,rev?*%
%TF.SameCoordinates,Original*%
%TF.FileFunction,Soldermask,Top*%
%TF.FilePolarity,Negative*%
%FSLAX46Y46*%
G04 Gerber Fmt 4.6, Leading zero omitted, Abs format (unit mm)*
G04 Created by KiCad (PCBNEW 5.1.9+dfsg1-1) date 2021-07-09 17:21:31*
%MOMM*%
%LPD*%
G01*
G04 APERTURE LIST*
%ADD10C,5.600000*%
%ADD11C,3.600000*%
%ADD12O,1.700000X1.700000*%
%ADD13R,1.700000X1.700000*%
%ADD14R,0.812800X1.193800*%
%ADD15R,1.600000X1.600000*%
%ADD16C,1.600000*%
%ADD17R,1.800000X1.800000*%
%ADD18C,1.800000*%
%ADD19O,2.700000X3.300000*%
%ADD20R,0.720000X1.780000*%
%ADD21R,1.200000X2.200000*%
%ADD22R,5.800000X6.400000*%
%ADD23R,1.025000X2.900000*%
%ADD24R,1.310000X0.650000*%
G04 APERTURE END LIST*
D10*
%TO.C,REF\u002A\u002A*%
X96329500Y-81978500D03*
D11*
X96329500Y-81978500D03*
%TD*%
D10*
%TO.C,REF\u002A\u002A*%
X96329500Y-125539500D03*
D11*
X96329500Y-125539500D03*
%TD*%
D10*
%TO.C,REF\u002A\u002A*%
X175133000Y-125476000D03*
D11*
X175133000Y-125476000D03*
%TD*%
D10*
%TO.C,REF\u002A\u002A*%
X175133000Y-82042000D03*
D11*
X175133000Y-82042000D03*
%TD*%
D12*
%TO.C,JP1*%
X97218500Y-90805000D03*
X97218500Y-93345000D03*
D13*
X97218500Y-95885000D03*
%TD*%
D14*
%TO.C,U4*%
X140335000Y-84099001D03*
X139065000Y-84099001D03*
X137795000Y-84099001D03*
X136525000Y-84099001D03*
X135255000Y-84099001D03*
X133985000Y-84099001D03*
X132715000Y-84099001D03*
X131445000Y-84099001D03*
X131445000Y-90398999D03*
X132715000Y-90398999D03*
X133985000Y-90398999D03*
X135255000Y-90398999D03*
X136525000Y-90398999D03*
X137795000Y-90398999D03*
X139065000Y-90398999D03*
X140335000Y-90398999D03*
%TD*%
D15*
%TO.C,U1*%
X101092000Y-111379000D03*
D16*
X103632000Y-111379000D03*
X106172000Y-111379000D03*
X108712000Y-111379000D03*
X111252000Y-111379000D03*
X113792000Y-111379000D03*
X116332000Y-111379000D03*
X118872000Y-111379000D03*
X121412000Y-111379000D03*
X123952000Y-111379000D03*
X126492000Y-111379000D03*
X129032000Y-111379000D03*
X131572000Y-111379000D03*
X101092000Y-96139000D03*
X103632000Y-96139000D03*
X106172000Y-96139000D03*
X108712000Y-96139000D03*
X111252000Y-96139000D03*
X113792000Y-96139000D03*
X116332000Y-96139000D03*
X118872000Y-96139000D03*
X121412000Y-96139000D03*
X123952000Y-96139000D03*
X126492000Y-96139000D03*
X129032000Y-96139000D03*
X131572000Y-96139000D03*
X134112000Y-111379000D03*
X134112000Y-96139000D03*
%TD*%
D17*
%TO.C,U3*%
X164338000Y-93091000D03*
D18*
X161798000Y-93091000D03*
X159258000Y-93091000D03*
%TD*%
%TO.C,C8*%
G36*
G01*
X174611000Y-94784000D02*
X174611000Y-93684000D01*
G75*
G02*
X174861000Y-93434000I250000J0D01*
G01*
X177686000Y-93434000D01*
G75*
G02*
X177936000Y-93684000I0J-250000D01*
G01*
X177936000Y-94784000D01*
G75*
G02*
X177686000Y-95034000I-250000J0D01*
G01*
X174861000Y-95034000D01*
G75*
G02*
X174611000Y-94784000I0J250000D01*
G01*
G37*
G36*
G01*
X169536000Y-94784000D02*
X169536000Y-93684000D01*
G75*
G02*
X169786000Y-93434000I250000J0D01*
G01*
X172611000Y-93434000D01*
G75*
G02*
X172861000Y-93684000I0J-250000D01*
G01*
X172861000Y-94784000D01*
G75*
G02*
X172611000Y-95034000I-250000J0D01*
G01*
X169786000Y-95034000D01*
G75*
G02*
X169536000Y-94784000I0J250000D01*
G01*
G37*
%TD*%
%TO.C,C7*%
G36*
G01*
X153204000Y-84850000D02*
X152104000Y-84850000D01*
G75*
G02*
X151854000Y-84600000I0J250000D01*
G01*
X151854000Y-81775000D01*
G75*
G02*
X152104000Y-81525000I250000J0D01*
G01*
X153204000Y-81525000D01*
G75*
G02*
X153454000Y-81775000I0J-250000D01*
G01*
X153454000Y-84600000D01*
G75*
G02*
X153204000Y-84850000I-250000J0D01*
G01*
G37*
G36*
G01*
X153204000Y-89925000D02*
X152104000Y-89925000D01*
G75*
G02*
X151854000Y-89675000I0J250000D01*
G01*
X151854000Y-86850000D01*
G75*
G02*
X152104000Y-86600000I250000J0D01*
G01*
X153204000Y-86600000D01*
G75*
G02*
X153454000Y-86850000I0J-250000D01*
G01*
X153454000Y-89675000D01*
G75*
G02*
X153204000Y-89925000I-250000J0D01*
G01*
G37*
%TD*%
%TO.C,C5*%
G36*
G01*
X174611000Y-102378600D02*
X174611000Y-101278600D01*
G75*
G02*
X174861000Y-101028600I250000J0D01*
G01*
X177686000Y-101028600D01*
G75*
G02*
X177936000Y-101278600I0J-250000D01*
G01*
X177936000Y-102378600D01*
G75*
G02*
X177686000Y-102628600I-250000J0D01*
G01*
X174861000Y-102628600D01*
G75*
G02*
X174611000Y-102378600I0J250000D01*
G01*
G37*
G36*
G01*
X169536000Y-102378600D02*
X169536000Y-101278600D01*
G75*
G02*
X169786000Y-101028600I250000J0D01*
G01*
X172611000Y-101028600D01*
G75*
G02*
X172861000Y-101278600I0J-250000D01*
G01*
X172861000Y-102378600D01*
G75*
G02*
X172611000Y-102628600I-250000J0D01*
G01*
X169786000Y-102628600D01*
G75*
G02*
X169536000Y-102378600I0J250000D01*
G01*
G37*
%TD*%
%TO.C,R12*%
G36*
G01*
X163887998Y-104112000D02*
X164788002Y-104112000D01*
G75*
G02*
X165038000Y-104361998I0J-249998D01*
G01*
X165038000Y-104887002D01*
G75*
G02*
X164788002Y-105137000I-249998J0D01*
G01*
X163887998Y-105137000D01*
G75*
G02*
X163638000Y-104887002I0J249998D01*
G01*
X163638000Y-104361998D01*
G75*
G02*
X163887998Y-104112000I249998J0D01*
G01*
G37*
G36*
G01*
X163887998Y-105937000D02*
X164788002Y-105937000D01*
G75*
G02*
X165038000Y-106186998I0J-249998D01*
G01*
X165038000Y-106712002D01*
G75*
G02*
X164788002Y-106962000I-249998J0D01*
G01*
X163887998Y-106962000D01*
G75*
G02*
X163638000Y-106712002I0J249998D01*
G01*
X163638000Y-106186998D01*
G75*
G02*
X163887998Y-105937000I249998J0D01*
G01*
G37*
%TD*%
%TO.C,C2*%
G36*
G01*
X101835800Y-98178600D02*
X101835800Y-99128600D01*
G75*
G02*
X101585800Y-99378600I-250000J0D01*
G01*
X101085800Y-99378600D01*
G75*
G02*
X100835800Y-99128600I0J250000D01*
G01*
X100835800Y-98178600D01*
G75*
G02*
X101085800Y-97928600I250000J0D01*
G01*
X101585800Y-97928600D01*
G75*
G02*
X101835800Y-98178600I0J-250000D01*
G01*
G37*
G36*
G01*
X103735800Y-98178600D02*
X103735800Y-99128600D01*
G75*
G02*
X103485800Y-99378600I-250000J0D01*
G01*
X102985800Y-99378600D01*
G75*
G02*
X102735800Y-99128600I0J250000D01*
G01*
X102735800Y-98178600D01*
G75*
G02*
X102985800Y-97928600I250000J0D01*
G01*
X103485800Y-97928600D01*
G75*
G02*
X103735800Y-98178600I0J-250000D01*
G01*
G37*
%TD*%
%TO.C,C3*%
G36*
G01*
X142060000Y-84676000D02*
X142060000Y-83726000D01*
G75*
G02*
X142310000Y-83476000I250000J0D01*
G01*
X142810000Y-83476000D01*
G75*
G02*
X143060000Y-83726000I0J-250000D01*
G01*
X143060000Y-84676000D01*
G75*
G02*
X142810000Y-84926000I-250000J0D01*
G01*
X142310000Y-84926000D01*
G75*
G02*
X142060000Y-84676000I0J250000D01*
G01*
G37*
G36*
G01*
X143960000Y-84676000D02*
X143960000Y-83726000D01*
G75*
G02*
X144210000Y-83476000I250000J0D01*
G01*
X144710000Y-83476000D01*
G75*
G02*
X144960000Y-83726000I0J-250000D01*
G01*
X144960000Y-84676000D01*
G75*
G02*
X144710000Y-84926000I-250000J0D01*
G01*
X144210000Y-84926000D01*
G75*
G02*
X143960000Y-84676000I0J250000D01*
G01*
G37*
%TD*%
%TO.C,C6*%
G36*
G01*
X167419000Y-88720000D02*
X168369000Y-88720000D01*
G75*
G02*
X168619000Y-88970000I0J-250000D01*
G01*
X168619000Y-89470000D01*
G75*
G02*
X168369000Y-89720000I-250000J0D01*
G01*
X167419000Y-89720000D01*
G75*
G02*
X167169000Y-89470000I0J250000D01*
G01*
X167169000Y-88970000D01*
G75*
G02*
X167419000Y-88720000I250000J0D01*
G01*
G37*
G36*
G01*
X167419000Y-90620000D02*
X168369000Y-90620000D01*
G75*
G02*
X168619000Y-90870000I0J-250000D01*
G01*
X168619000Y-91370000D01*
G75*
G02*
X168369000Y-91620000I-250000J0D01*
G01*
X167419000Y-91620000D01*
G75*
G02*
X167169000Y-91370000I0J250000D01*
G01*
X167169000Y-90870000D01*
G75*
G02*
X167419000Y-90620000I250000J0D01*
G01*
G37*
%TD*%
D19*
%TO.C,J1*%
X117611000Y-123102000D03*
X113411000Y-123102000D03*
X117611000Y-117602000D03*
G36*
G01*
X112061000Y-119001999D02*
X112061000Y-116202001D01*
G75*
G02*
X112311001Y-115952000I250001J0D01*
G01*
X114510999Y-115952000D01*
G75*
G02*
X114761000Y-116202001I0J-250001D01*
G01*
X114761000Y-119001999D01*
G75*
G02*
X114510999Y-119252000I-250001J0D01*
G01*
X112311001Y-119252000D01*
G75*
G02*
X112061000Y-119001999I0J250001D01*
G01*
G37*
%TD*%
%TO.C,J2*%
G36*
G01*
X122729000Y-119001999D02*
X122729000Y-116202001D01*
G75*
G02*
X122979001Y-115952000I250001J0D01*
G01*
X125178999Y-115952000D01*
G75*
G02*
X125429000Y-116202001I0J-250001D01*
G01*
X125429000Y-119001999D01*
G75*
G02*
X125178999Y-119252000I-250001J0D01*
G01*
X122979001Y-119252000D01*
G75*
G02*
X122729000Y-119001999I0J250001D01*
G01*
G37*
X128279000Y-117602000D03*
X124079000Y-123102000D03*
X128279000Y-123102000D03*
%TD*%
%TO.C,J4*%
G36*
G01*
X135810000Y-119001999D02*
X135810000Y-116202001D01*
G75*
G02*
X136060001Y-115952000I250001J0D01*
G01*
X138259999Y-115952000D01*
G75*
G02*
X138510000Y-116202001I0J-250001D01*
G01*
X138510000Y-119001999D01*
G75*
G02*
X138259999Y-119252000I-250001J0D01*
G01*
X136060001Y-119252000D01*
G75*
G02*
X135810000Y-119001999I0J250001D01*
G01*
G37*
X141360000Y-117602000D03*
X145560000Y-117602000D03*
X149760000Y-117602000D03*
X153960000Y-117602000D03*
X158160000Y-117602000D03*
X162360000Y-117602000D03*
X166560000Y-117602000D03*
X137160000Y-123102000D03*
X141360000Y-123102000D03*
X145560000Y-123102000D03*
X149760000Y-123102000D03*
X153960000Y-123102000D03*
X158160000Y-123102000D03*
X162360000Y-123102000D03*
X166560000Y-123102000D03*
%TD*%
%TO.C,J5*%
G36*
G01*
X120730000Y-89151001D02*
X120730000Y-91950999D01*
G75*
G02*
X120479999Y-92201000I-250001J0D01*
G01*
X118280001Y-92201000D01*
G75*
G02*
X118030000Y-91950999I0J250001D01*
G01*
X118030000Y-89151001D01*
G75*
G02*
X118280001Y-88901000I250001J0D01*
G01*
X120479999Y-88901000D01*
G75*
G02*
X120730000Y-89151001I0J-250001D01*
G01*
G37*
X115180000Y-90551000D03*
X110980000Y-90551000D03*
X106780000Y-90551000D03*
X102580000Y-90551000D03*
X119380000Y-85051000D03*
X115180000Y-85051000D03*
X110980000Y-85051000D03*
X106780000Y-85051000D03*
X102580000Y-85051000D03*
%TD*%
D20*
%TO.C,Q3*%
X167259000Y-108515000D03*
X164719000Y-108515000D03*
X165989000Y-108515000D03*
X163449000Y-108515000D03*
X163449000Y-113735000D03*
X164719000Y-113735000D03*
X165989000Y-113735000D03*
X167259000Y-113735000D03*
%TD*%
%TO.C,Q4*%
X158115000Y-113735000D03*
X156845000Y-113735000D03*
X155575000Y-113735000D03*
X154305000Y-113735000D03*
X154305000Y-108515000D03*
X156845000Y-108515000D03*
X155575000Y-108515000D03*
X158115000Y-108515000D03*
%TD*%
D21*
%TO.C,Q5*%
X176270000Y-109719000D03*
X171710000Y-109719000D03*
D22*
X173990000Y-116019000D03*
%TD*%
%TO.C,R1*%
G36*
G01*
X107461000Y-102456402D02*
X107461000Y-101556398D01*
G75*
G02*
X107710998Y-101306400I249998J0D01*
G01*
X108236002Y-101306400D01*
G75*
G02*
X108486000Y-101556398I0J-249998D01*
G01*
X108486000Y-102456402D01*
G75*
G02*
X108236002Y-102706400I-249998J0D01*
G01*
X107710998Y-102706400D01*
G75*
G02*
X107461000Y-102456402I0J249998D01*
G01*
G37*
G36*
G01*
X105636000Y-102456402D02*
X105636000Y-101556398D01*
G75*
G02*
X105885998Y-101306400I249998J0D01*
G01*
X106411002Y-101306400D01*
G75*
G02*
X106661000Y-101556398I0J-249998D01*
G01*
X106661000Y-102456402D01*
G75*
G02*
X106411002Y-102706400I-249998J0D01*
G01*
X105885998Y-102706400D01*
G75*
G02*
X105636000Y-102456402I0J249998D01*
G01*
G37*
%TD*%
%TO.C,R2*%
G36*
G01*
X142043998Y-81807000D02*
X142944002Y-81807000D01*
G75*
G02*
X143194000Y-82056998I0J-249998D01*
G01*
X143194000Y-82582002D01*
G75*
G02*
X142944002Y-82832000I-249998J0D01*
G01*
X142043998Y-82832000D01*
G75*
G02*
X141794000Y-82582002I0J249998D01*
G01*
X141794000Y-82056998D01*
G75*
G02*
X142043998Y-81807000I249998J0D01*
G01*
G37*
G36*
G01*
X142043998Y-79982000D02*
X142944002Y-79982000D01*
G75*
G02*
X143194000Y-80231998I0J-249998D01*
G01*
X143194000Y-80757002D01*
G75*
G02*
X142944002Y-81007000I-249998J0D01*
G01*
X142043998Y-81007000D01*
G75*
G02*
X141794000Y-80757002I0J249998D01*
G01*
X141794000Y-80231998D01*
G75*
G02*
X142043998Y-79982000I249998J0D01*
G01*
G37*
%TD*%
%TO.C,R3*%
G36*
G01*
X138487998Y-79982000D02*
X139388002Y-79982000D01*
G75*
G02*
X139638000Y-80231998I0J-249998D01*
G01*
X139638000Y-80757002D01*
G75*
G02*
X139388002Y-81007000I-249998J0D01*
G01*
X138487998Y-81007000D01*
G75*
G02*
X138238000Y-80757002I0J249998D01*
G01*
X138238000Y-80231998D01*
G75*
G02*
X138487998Y-79982000I249998J0D01*
G01*
G37*
G36*
G01*
X138487998Y-81807000D02*
X139388002Y-81807000D01*
G75*
G02*
X139638000Y-82056998I0J-249998D01*
G01*
X139638000Y-82582002D01*
G75*
G02*
X139388002Y-82832000I-249998J0D01*
G01*
X138487998Y-82832000D01*
G75*
G02*
X138238000Y-82582002I0J249998D01*
G01*
X138238000Y-82056998D01*
G75*
G02*
X138487998Y-81807000I249998J0D01*
G01*
G37*
%TD*%
%TO.C,R4*%
G36*
G01*
X134804998Y-79982000D02*
X135705002Y-79982000D01*
G75*
G02*
X135955000Y-80231998I0J-249998D01*
G01*
X135955000Y-80757002D01*
G75*
G02*
X135705002Y-81007000I-249998J0D01*
G01*
X134804998Y-81007000D01*
G75*
G02*
X134555000Y-80757002I0J249998D01*
G01*
X134555000Y-80231998D01*
G75*
G02*
X134804998Y-79982000I249998J0D01*
G01*
G37*
G36*
G01*
X134804998Y-81807000D02*
X135705002Y-81807000D01*
G75*
G02*
X135955000Y-82056998I0J-249998D01*
G01*
X135955000Y-82582002D01*
G75*
G02*
X135705002Y-82832000I-249998J0D01*
G01*
X134804998Y-82832000D01*
G75*
G02*
X134555000Y-82582002I0J249998D01*
G01*
X134555000Y-82056998D01*
G75*
G02*
X134804998Y-81807000I249998J0D01*
G01*
G37*
%TD*%
%TO.C,R5*%
G36*
G01*
X130994998Y-81807000D02*
X131895002Y-81807000D01*
G75*
G02*
X132145000Y-82056998I0J-249998D01*
G01*
X132145000Y-82582002D01*
G75*
G02*
X131895002Y-82832000I-249998J0D01*
G01*
X130994998Y-82832000D01*
G75*
G02*
X130745000Y-82582002I0J249998D01*
G01*
X130745000Y-82056998D01*
G75*
G02*
X130994998Y-81807000I249998J0D01*
G01*
G37*
G36*
G01*
X130994998Y-79982000D02*
X131895002Y-79982000D01*
G75*
G02*
X132145000Y-80231998I0J-249998D01*
G01*
X132145000Y-80757002D01*
G75*
G02*
X131895002Y-81007000I-249998J0D01*
G01*
X130994998Y-81007000D01*
G75*
G02*
X130745000Y-80757002I0J249998D01*
G01*
X130745000Y-80231998D01*
G75*
G02*
X130994998Y-79982000I249998J0D01*
G01*
G37*
%TD*%
%TO.C,R6*%
G36*
G01*
X141751000Y-92779002D02*
X141751000Y-91878998D01*
G75*
G02*
X142000998Y-91629000I249998J0D01*
G01*
X142526002Y-91629000D01*
G75*
G02*
X142776000Y-91878998I0J-249998D01*
G01*
X142776000Y-92779002D01*
G75*
G02*
X142526002Y-93029000I-249998J0D01*
G01*
X142000998Y-93029000D01*
G75*
G02*
X141751000Y-92779002I0J249998D01*
G01*
G37*
G36*
G01*
X139926000Y-92779002D02*
X139926000Y-91878998D01*
G75*
G02*
X140175998Y-91629000I249998J0D01*
G01*
X140701002Y-91629000D01*
G75*
G02*
X140951000Y-91878998I0J-249998D01*
G01*
X140951000Y-92779002D01*
G75*
G02*
X140701002Y-93029000I-249998J0D01*
G01*
X140175998Y-93029000D01*
G75*
G02*
X139926000Y-92779002I0J249998D01*
G01*
G37*
%TD*%
%TO.C,R7*%
G36*
G01*
X136497000Y-92779002D02*
X136497000Y-91878998D01*
G75*
G02*
X136746998Y-91629000I249998J0D01*
G01*
X137272002Y-91629000D01*
G75*
G02*
X137522000Y-91878998I0J-249998D01*
G01*
X137522000Y-92779002D01*
G75*
G02*
X137272002Y-93029000I-249998J0D01*
G01*
X136746998Y-93029000D01*
G75*
G02*
X136497000Y-92779002I0J249998D01*
G01*
G37*
G36*
G01*
X138322000Y-92779002D02*
X138322000Y-91878998D01*
G75*
G02*
X138571998Y-91629000I249998J0D01*
G01*
X139097002Y-91629000D01*
G75*
G02*
X139347000Y-91878998I0J-249998D01*
G01*
X139347000Y-92779002D01*
G75*
G02*
X139097002Y-93029000I-249998J0D01*
G01*
X138571998Y-93029000D01*
G75*
G02*
X138322000Y-92779002I0J249998D01*
G01*
G37*
%TD*%
%TO.C,R8*%
G36*
G01*
X133068000Y-92779002D02*
X133068000Y-91878998D01*
G75*
G02*
X133317998Y-91629000I249998J0D01*
G01*
X133843002Y-91629000D01*
G75*
G02*
X134093000Y-91878998I0J-249998D01*
G01*
X134093000Y-92779002D01*
G75*
G02*
X133843002Y-93029000I-249998J0D01*
G01*
X133317998Y-93029000D01*
G75*
G02*
X133068000Y-92779002I0J249998D01*
G01*
G37*
G36*
G01*
X134893000Y-92779002D02*
X134893000Y-91878998D01*
G75*
G02*
X135142998Y-91629000I249998J0D01*
G01*
X135668002Y-91629000D01*
G75*
G02*
X135918000Y-91878998I0J-249998D01*
G01*
X135918000Y-92779002D01*
G75*
G02*
X135668002Y-93029000I-249998J0D01*
G01*
X135142998Y-93029000D01*
G75*
G02*
X134893000Y-92779002I0J249998D01*
G01*
G37*
%TD*%
%TO.C,R9*%
G36*
G01*
X131464000Y-92779002D02*
X131464000Y-91878998D01*
G75*
G02*
X131713998Y-91629000I249998J0D01*
G01*
X132239002Y-91629000D01*
G75*
G02*
X132489000Y-91878998I0J-249998D01*
G01*
X132489000Y-92779002D01*
G75*
G02*
X132239002Y-93029000I-249998J0D01*
G01*
X131713998Y-93029000D01*
G75*
G02*
X131464000Y-92779002I0J249998D01*
G01*
G37*
G36*
G01*
X129639000Y-92779002D02*
X129639000Y-91878998D01*
G75*
G02*
X129888998Y-91629000I249998J0D01*
G01*
X130414002Y-91629000D01*
G75*
G02*
X130664000Y-91878998I0J-249998D01*
G01*
X130664000Y-92779002D01*
G75*
G02*
X130414002Y-93029000I-249998J0D01*
G01*
X129888998Y-93029000D01*
G75*
G02*
X129639000Y-92779002I0J249998D01*
G01*
G37*
%TD*%
%TO.C,R10*%
G36*
G01*
X167951998Y-104112000D02*
X168852002Y-104112000D01*
G75*
G02*
X169102000Y-104361998I0J-249998D01*
G01*
X169102000Y-104887002D01*
G75*
G02*
X168852002Y-105137000I-249998J0D01*
G01*
X167951998Y-105137000D01*
G75*
G02*
X167702000Y-104887002I0J249998D01*
G01*
X167702000Y-104361998D01*
G75*
G02*
X167951998Y-104112000I249998J0D01*
G01*
G37*
G36*
G01*
X167951998Y-105937000D02*
X168852002Y-105937000D01*
G75*
G02*
X169102000Y-106186998I0J-249998D01*
G01*
X169102000Y-106712002D01*
G75*
G02*
X168852002Y-106962000I-249998J0D01*
G01*
X167951998Y-106962000D01*
G75*
G02*
X167702000Y-106712002I0J249998D01*
G01*
X167702000Y-106186998D01*
G75*
G02*
X167951998Y-105937000I249998J0D01*
G01*
G37*
%TD*%
%TO.C,R11*%
G36*
G01*
X165919998Y-105937000D02*
X166820002Y-105937000D01*
G75*
G02*
X167070000Y-106186998I0J-249998D01*
G01*
X167070000Y-106712002D01*
G75*
G02*
X166820002Y-106962000I-249998J0D01*
G01*
X165919998Y-106962000D01*
G75*
G02*
X165670000Y-106712002I0J249998D01*
G01*
X165670000Y-106186998D01*
G75*
G02*
X165919998Y-105937000I249998J0D01*
G01*
G37*
G36*
G01*
X165919998Y-104112000D02*
X166820002Y-104112000D01*
G75*
G02*
X167070000Y-104361998I0J-249998D01*
G01*
X167070000Y-104887002D01*
G75*
G02*
X166820002Y-105137000I-249998J0D01*
G01*
X165919998Y-105137000D01*
G75*
G02*
X165670000Y-104887002I0J249998D01*
G01*
X165670000Y-104361998D01*
G75*
G02*
X165919998Y-104112000I249998J0D01*
G01*
G37*
%TD*%
%TO.C,R13*%
G36*
G01*
X161855998Y-104112000D02*
X162756002Y-104112000D01*
G75*
G02*
X163006000Y-104361998I0J-249998D01*
G01*
X163006000Y-104887002D01*
G75*
G02*
X162756002Y-105137000I-249998J0D01*
G01*
X161855998Y-105137000D01*
G75*
G02*
X161606000Y-104887002I0J249998D01*
G01*
X161606000Y-104361998D01*
G75*
G02*
X161855998Y-104112000I249998J0D01*
G01*
G37*
G36*
G01*
X161855998Y-105937000D02*
X162756002Y-105937000D01*
G75*
G02*
X163006000Y-106186998I0J-249998D01*
G01*
X163006000Y-106712002D01*
G75*
G02*
X162756002Y-106962000I-249998J0D01*
G01*
X161855998Y-106962000D01*
G75*
G02*
X161606000Y-106712002I0J249998D01*
G01*
X161606000Y-106186998D01*
G75*
G02*
X161855998Y-105937000I249998J0D01*
G01*
G37*
%TD*%
%TO.C,R14*%
G36*
G01*
X158807998Y-104112000D02*
X159708002Y-104112000D01*
G75*
G02*
X159958000Y-104361998I0J-249998D01*
G01*
X159958000Y-104887002D01*
G75*
G02*
X159708002Y-105137000I-249998J0D01*
G01*
X158807998Y-105137000D01*
G75*
G02*
X158558000Y-104887002I0J249998D01*
G01*
X158558000Y-104361998D01*
G75*
G02*
X158807998Y-104112000I249998J0D01*
G01*
G37*
G36*
G01*
X158807998Y-105937000D02*
X159708002Y-105937000D01*
G75*
G02*
X159958000Y-106186998I0J-249998D01*
G01*
X159958000Y-106712002D01*
G75*
G02*
X159708002Y-106962000I-249998J0D01*
G01*
X158807998Y-106962000D01*
G75*
G02*
X158558000Y-106712002I0J249998D01*
G01*
X158558000Y-106186998D01*
G75*
G02*
X158807998Y-105937000I249998J0D01*
G01*
G37*
%TD*%
%TO.C,R15*%
G36*
G01*
X156775998Y-105937000D02*
X157676002Y-105937000D01*
G75*
G02*
X157926000Y-106186998I0J-249998D01*
G01*
X157926000Y-106712002D01*
G75*
G02*
X157676002Y-106962000I-249998J0D01*
G01*
X156775998Y-106962000D01*
G75*
G02*
X156526000Y-106712002I0J249998D01*
G01*
X156526000Y-106186998D01*
G75*
G02*
X156775998Y-105937000I249998J0D01*
G01*
G37*
G36*
G01*
X156775998Y-104112000D02*
X157676002Y-104112000D01*
G75*
G02*
X157926000Y-104361998I0J-249998D01*
G01*
X157926000Y-104887002D01*
G75*
G02*
X157676002Y-105137000I-249998J0D01*
G01*
X156775998Y-105137000D01*
G75*
G02*
X156526000Y-104887002I0J249998D01*
G01*
X156526000Y-104361998D01*
G75*
G02*
X156775998Y-104112000I249998J0D01*
G01*
G37*
%TD*%
%TO.C,R16*%
G36*
G01*
X154743998Y-104112000D02*
X155644002Y-104112000D01*
G75*
G02*
X155894000Y-104361998I0J-249998D01*
G01*
X155894000Y-104887002D01*
G75*
G02*
X155644002Y-105137000I-249998J0D01*
G01*
X154743998Y-105137000D01*
G75*
G02*
X154494000Y-104887002I0J249998D01*
G01*
X154494000Y-104361998D01*
G75*
G02*
X154743998Y-104112000I249998J0D01*
G01*
G37*
G36*
G01*
X154743998Y-105937000D02*
X155644002Y-105937000D01*
G75*
G02*
X155894000Y-106186998I0J-249998D01*
G01*
X155894000Y-106712002D01*
G75*
G02*
X155644002Y-106962000I-249998J0D01*
G01*
X154743998Y-106962000D01*
G75*
G02*
X154494000Y-106712002I0J249998D01*
G01*
X154494000Y-106186998D01*
G75*
G02*
X154743998Y-105937000I249998J0D01*
G01*
G37*
%TD*%
%TO.C,R17*%
G36*
G01*
X152711998Y-105937000D02*
X153612002Y-105937000D01*
G75*
G02*
X153862000Y-106186998I0J-249998D01*
G01*
X153862000Y-106712002D01*
G75*
G02*
X153612002Y-106962000I-249998J0D01*
G01*
X152711998Y-106962000D01*
G75*
G02*
X152462000Y-106712002I0J249998D01*
G01*
X152462000Y-106186998D01*
G75*
G02*
X152711998Y-105937000I249998J0D01*
G01*
G37*
G36*
G01*
X152711998Y-104112000D02*
X153612002Y-104112000D01*
G75*
G02*
X153862000Y-104361998I0J-249998D01*
G01*
X153862000Y-104887002D01*
G75*
G02*
X153612002Y-105137000I-249998J0D01*
G01*
X152711998Y-105137000D01*
G75*
G02*
X152462000Y-104887002I0J249998D01*
G01*
X152462000Y-104361998D01*
G75*
G02*
X152711998Y-104112000I249998J0D01*
G01*
G37*
%TD*%
%TO.C,R18*%
G36*
G01*
X133179398Y-100526800D02*
X134079402Y-100526800D01*
G75*
G02*
X134329400Y-100776798I0J-249998D01*
G01*
X134329400Y-101301802D01*
G75*
G02*
X134079402Y-101551800I-249998J0D01*
G01*
X133179398Y-101551800D01*
G75*
G02*
X132929400Y-101301802I0J249998D01*
G01*
X132929400Y-100776798D01*
G75*
G02*
X133179398Y-100526800I249998J0D01*
G01*
G37*
G36*
G01*
X133179398Y-98701800D02*
X134079402Y-98701800D01*
G75*
G02*
X134329400Y-98951798I0J-249998D01*
G01*
X134329400Y-99476802D01*
G75*
G02*
X134079402Y-99726800I-249998J0D01*
G01*
X133179398Y-99726800D01*
G75*
G02*
X132929400Y-99476802I0J249998D01*
G01*
X132929400Y-98951798D01*
G75*
G02*
X133179398Y-98701800I249998J0D01*
G01*
G37*
%TD*%
%TO.C,R19*%
G36*
G01*
X131387002Y-101551800D02*
X130486998Y-101551800D01*
G75*
G02*
X130237000Y-101301802I0J249998D01*
G01*
X130237000Y-100776798D01*
G75*
G02*
X130486998Y-100526800I249998J0D01*
G01*
X131387002Y-100526800D01*
G75*
G02*
X131637000Y-100776798I0J-249998D01*
G01*
X131637000Y-101301802D01*
G75*
G02*
X131387002Y-101551800I-249998J0D01*
G01*
G37*
G36*
G01*
X131387002Y-99726800D02*
X130486998Y-99726800D01*
G75*
G02*
X130237000Y-99476802I0J249998D01*
G01*
X130237000Y-98951798D01*
G75*
G02*
X130486998Y-98701800I249998J0D01*
G01*
X131387002Y-98701800D01*
G75*
G02*
X131637000Y-98951798I0J-249998D01*
G01*
X131637000Y-99476802D01*
G75*
G02*
X131387002Y-99726800I-249998J0D01*
G01*
G37*
%TD*%
%TO.C,R20*%
G36*
G01*
X131921200Y-103370802D02*
X131921200Y-102470798D01*
G75*
G02*
X132171198Y-102220800I249998J0D01*
G01*
X132696202Y-102220800D01*
G75*
G02*
X132946200Y-102470798I0J-249998D01*
G01*
X132946200Y-103370802D01*
G75*
G02*
X132696202Y-103620800I-249998J0D01*
G01*
X132171198Y-103620800D01*
G75*
G02*
X131921200Y-103370802I0J249998D01*
G01*
G37*
G36*
G01*
X130096200Y-103370802D02*
X130096200Y-102470798D01*
G75*
G02*
X130346198Y-102220800I249998J0D01*
G01*
X130871202Y-102220800D01*
G75*
G02*
X131121200Y-102470798I0J-249998D01*
G01*
X131121200Y-103370802D01*
G75*
G02*
X130871202Y-103620800I-249998J0D01*
G01*
X130346198Y-103620800D01*
G75*
G02*
X130096200Y-103370802I0J249998D01*
G01*
G37*
%TD*%
%TO.C,R21*%
G36*
G01*
X125152998Y-98701800D02*
X126053002Y-98701800D01*
G75*
G02*
X126303000Y-98951798I0J-249998D01*
G01*
X126303000Y-99476802D01*
G75*
G02*
X126053002Y-99726800I-249998J0D01*
G01*
X125152998Y-99726800D01*
G75*
G02*
X124903000Y-99476802I0J249998D01*
G01*
X124903000Y-98951798D01*
G75*
G02*
X125152998Y-98701800I249998J0D01*
G01*
G37*
G36*
G01*
X125152998Y-100526800D02*
X126053002Y-100526800D01*
G75*
G02*
X126303000Y-100776798I0J-249998D01*
G01*
X126303000Y-101301802D01*
G75*
G02*
X126053002Y-101551800I-249998J0D01*
G01*
X125152998Y-101551800D01*
G75*
G02*
X124903000Y-101301802I0J249998D01*
G01*
X124903000Y-100776798D01*
G75*
G02*
X125152998Y-100526800I249998J0D01*
G01*
G37*
%TD*%
%TO.C,R22*%
G36*
G01*
X128618402Y-99726800D02*
X127718398Y-99726800D01*
G75*
G02*
X127468400Y-99476802I0J249998D01*
G01*
X127468400Y-98951798D01*
G75*
G02*
X127718398Y-98701800I249998J0D01*
G01*
X128618402Y-98701800D01*
G75*
G02*
X128868400Y-98951798I0J-249998D01*
G01*
X128868400Y-99476802D01*
G75*
G02*
X128618402Y-99726800I-249998J0D01*
G01*
G37*
G36*
G01*
X128618402Y-101551800D02*
X127718398Y-101551800D01*
G75*
G02*
X127468400Y-101301802I0J249998D01*
G01*
X127468400Y-100776798D01*
G75*
G02*
X127718398Y-100526800I249998J0D01*
G01*
X128618402Y-100526800D01*
G75*
G02*
X128868400Y-100776798I0J-249998D01*
G01*
X128868400Y-101301802D01*
G75*
G02*
X128618402Y-101551800I-249998J0D01*
G01*
G37*
%TD*%
%TO.C,R23*%
G36*
G01*
X129085400Y-102445398D02*
X129085400Y-103345402D01*
G75*
G02*
X128835402Y-103595400I-249998J0D01*
G01*
X128310398Y-103595400D01*
G75*
G02*
X128060400Y-103345402I0J249998D01*
G01*
X128060400Y-102445398D01*
G75*
G02*
X128310398Y-102195400I249998J0D01*
G01*
X128835402Y-102195400D01*
G75*
G02*
X129085400Y-102445398I0J-249998D01*
G01*
G37*
G36*
G01*
X127260400Y-102445398D02*
X127260400Y-103345402D01*
G75*
G02*
X127010402Y-103595400I-249998J0D01*
G01*
X126485398Y-103595400D01*
G75*
G02*
X126235400Y-103345402I0J249998D01*
G01*
X126235400Y-102445398D01*
G75*
G02*
X126485398Y-102195400I249998J0D01*
G01*
X127010402Y-102195400D01*
G75*
G02*
X127260400Y-102445398I0J-249998D01*
G01*
G37*
%TD*%
%TO.C,U2*%
G36*
G01*
X110005000Y-107717000D02*
X109705000Y-107717000D01*
G75*
G02*
X109555000Y-107567000I0J150000D01*
G01*
X109555000Y-105917000D01*
G75*
G02*
X109705000Y-105767000I150000J0D01*
G01*
X110005000Y-105767000D01*
G75*
G02*
X110155000Y-105917000I0J-150000D01*
G01*
X110155000Y-107567000D01*
G75*
G02*
X110005000Y-107717000I-150000J0D01*
G01*
G37*
G36*
G01*
X111275000Y-107717000D02*
X110975000Y-107717000D01*
G75*
G02*
X110825000Y-107567000I0J150000D01*
G01*
X110825000Y-105917000D01*
G75*
G02*
X110975000Y-105767000I150000J0D01*
G01*
X111275000Y-105767000D01*
G75*
G02*
X111425000Y-105917000I0J-150000D01*
G01*
X111425000Y-107567000D01*
G75*
G02*
X111275000Y-107717000I-150000J0D01*
G01*
G37*
G36*
G01*
X112545000Y-107717000D02*
X112245000Y-107717000D01*
G75*
G02*
X112095000Y-107567000I0J150000D01*
G01*
X112095000Y-105917000D01*
G75*
G02*
X112245000Y-105767000I150000J0D01*
G01*
X112545000Y-105767000D01*
G75*
G02*
X112695000Y-105917000I0J-150000D01*
G01*
X112695000Y-107567000D01*
G75*
G02*
X112545000Y-107717000I-150000J0D01*
G01*
G37*
G36*
G01*
X113815000Y-107717000D02*
X113515000Y-107717000D01*
G75*
G02*
X113365000Y-107567000I0J150000D01*
G01*
X113365000Y-105917000D01*
G75*
G02*
X113515000Y-105767000I150000J0D01*
G01*
X113815000Y-105767000D01*
G75*
G02*
X113965000Y-105917000I0J-150000D01*
G01*
X113965000Y-107567000D01*
G75*
G02*
X113815000Y-107717000I-150000J0D01*
G01*
G37*
G36*
G01*
X113815000Y-102767000D02*
X113515000Y-102767000D01*
G75*
G02*
X113365000Y-102617000I0J150000D01*
G01*
X113365000Y-100967000D01*
G75*
G02*
X113515000Y-100817000I150000J0D01*
G01*
X113815000Y-100817000D01*
G75*
G02*
X113965000Y-100967000I0J-150000D01*
G01*
X113965000Y-102617000D01*
G75*
G02*
X113815000Y-102767000I-150000J0D01*
G01*
G37*
G36*
G01*
X112545000Y-102767000D02*
X112245000Y-102767000D01*
G75*
G02*
X112095000Y-102617000I0J150000D01*
G01*
X112095000Y-100967000D01*
G75*
G02*
X112245000Y-100817000I150000J0D01*
G01*
X112545000Y-100817000D01*
G75*
G02*
X112695000Y-100967000I0J-150000D01*
G01*
X112695000Y-102617000D01*
G75*
G02*
X112545000Y-102767000I-150000J0D01*
G01*
G37*
G36*
G01*
X111275000Y-102767000D02*
X110975000Y-102767000D01*
G75*
G02*
X110825000Y-102617000I0J150000D01*
G01*
X110825000Y-100967000D01*
G75*
G02*
X110975000Y-100817000I150000J0D01*
G01*
X111275000Y-100817000D01*
G75*
G02*
X111425000Y-100967000I0J-150000D01*
G01*
X111425000Y-102617000D01*
G75*
G02*
X111275000Y-102767000I-150000J0D01*
G01*
G37*
G36*
G01*
X110005000Y-102767000D02*
X109705000Y-102767000D01*
G75*
G02*
X109555000Y-102617000I0J150000D01*
G01*
X109555000Y-100967000D01*
G75*
G02*
X109705000Y-100817000I150000J0D01*
G01*
X110005000Y-100817000D01*
G75*
G02*
X110155000Y-100967000I0J-150000D01*
G01*
X110155000Y-102617000D01*
G75*
G02*
X110005000Y-102767000I-150000J0D01*
G01*
G37*
%TD*%
%TO.C,R24*%
G36*
G01*
X105915400Y-94328402D02*
X105915400Y-93428398D01*
G75*
G02*
X106165398Y-93178400I249998J0D01*
G01*
X106690402Y-93178400D01*
G75*
G02*
X106940400Y-93428398I0J-249998D01*
G01*
X106940400Y-94328402D01*
G75*
G02*
X106690402Y-94578400I-249998J0D01*
G01*
X106165398Y-94578400D01*
G75*
G02*
X105915400Y-94328402I0J249998D01*
G01*
G37*
G36*
G01*
X107740400Y-94328402D02*
X107740400Y-93428398D01*
G75*
G02*
X107990398Y-93178400I249998J0D01*
G01*
X108515402Y-93178400D01*
G75*
G02*
X108765400Y-93428398I0J-249998D01*
G01*
X108765400Y-94328402D01*
G75*
G02*
X108515402Y-94578400I-249998J0D01*
G01*
X107990398Y-94578400D01*
G75*
G02*
X107740400Y-94328402I0J249998D01*
G01*
G37*
%TD*%
D23*
%TO.C,S1*%
X144980600Y-109675200D03*
X144980600Y-106375200D03*
X146405600Y-106375200D03*
D24*
X142848100Y-111835200D03*
X148538100Y-111835200D03*
X142848100Y-110565200D03*
X148538100Y-110565200D03*
X142848100Y-109295200D03*
X148538100Y-109295200D03*
X142848100Y-108025200D03*
X148538100Y-108025200D03*
X142848100Y-106755200D03*
X148538100Y-106755200D03*
X142848100Y-105485200D03*
X148538100Y-105485200D03*
X142848100Y-104215200D03*
X148538100Y-104215200D03*
D23*
X146405600Y-109675200D03*
%TD*%
M02*
