M48
; DRILL file {KiCad 5.1.9+dfsg1-1} date Fri Jul  9 17:21:29 2021
; FORMAT={-:-/ absolute / inch / decimal}
; #@! TF.CreationDate,2021-07-09T17:21:29+02:00
; #@! TF.GenerationSoftware,Kicad,Pcbnew,5.1.9+dfsg1-1
; #@! TF.FileFunction,Plated,1,2,PTH
FMAT,2
INCH
T1C0.0157
T2C0.0394
T3C0.0433
T4C0.0551
T5C0.1260
%
G90
G05
T1
X4.13Y-4.016
X4.375Y-4.27
X4.45Y-3.89
X4.48Y-3.86
X4.52Y-3.95
X4.56Y-3.92
X4.77Y-3.86
X4.8Y-3.89
X4.845Y-3.92
X4.885Y-3.95
X4.9243Y-4.2857
X4.945Y-4.025
X5.1Y-4.095
X5.12Y-3.169
X5.1357Y-4.285
X5.175Y-3.505
X5.261Y-4.042
X5.27Y-3.169
X5.275Y-3.505
X5.375Y-3.505
X5.415Y-3.169
X5.422Y-4.153
X5.475Y-3.505
X5.555Y-3.169
X5.57Y-4.103
X5.57Y-4.278
X5.57Y-4.353
X5.57Y-4.403
X5.601Y-3.56
X5.615Y-3.375
X5.9Y-4.103
X5.9Y-4.153
X5.91Y-3.255
X5.935Y-3.95
X5.97Y-3.92
X6.03Y-4.07
X6.15Y-4.33
X6.19Y-4.07
X6.51Y-4.33
X6.94Y-3.634
X6.94Y-3.933
X6.94Y-4.24
T2
X3.8275Y-3.575
X3.8275Y-3.675
X3.8275Y-3.775
X6.27Y-3.665
X6.37Y-3.665
X6.47Y-3.665
T3
X3.98Y-3.785
X3.98Y-4.385
X4.08Y-3.785
X4.08Y-4.385
X4.18Y-3.785
X4.18Y-4.385
X4.28Y-3.785
X4.28Y-4.385
X4.38Y-3.785
X4.38Y-4.385
X4.48Y-3.785
X4.48Y-4.385
X4.58Y-3.785
X4.58Y-4.385
X4.68Y-3.785
X4.68Y-4.385
X4.78Y-3.785
X4.78Y-4.385
X4.88Y-3.785
X4.88Y-4.385
X4.98Y-3.785
X4.98Y-4.385
X5.08Y-3.785
X5.08Y-4.385
X5.18Y-3.785
X5.18Y-4.385
X5.28Y-3.785
X5.28Y-4.385
T4
X4.0386Y-3.3485
X4.0386Y-3.565
X4.2039Y-3.3485
X4.2039Y-3.565
X4.3693Y-3.3485
X4.3693Y-3.565
X4.465Y-4.63
X4.465Y-4.8465
X4.5346Y-3.3485
X4.5346Y-3.565
X4.6304Y-4.63
X4.6304Y-4.8465
X4.7Y-3.3485
X4.7Y-3.565
X4.885Y-4.63
X4.885Y-4.8465
X5.0504Y-4.63
X5.0504Y-4.8465
X5.4Y-4.63
X5.4Y-4.8465
X5.5654Y-4.63
X5.5654Y-4.8465
X5.7307Y-4.63
X5.7307Y-4.8465
X5.8961Y-4.63
X5.8961Y-4.8465
X6.0614Y-4.63
X6.0614Y-4.8465
X6.2268Y-4.63
X6.2268Y-4.8465
X6.3921Y-4.63
X6.3921Y-4.8465
X6.5575Y-4.63
X6.5575Y-4.8465
T5
X3.7925Y-3.2275
X3.7925Y-4.9425
X6.895Y-3.23
X6.895Y-4.94
T0
M30
