M48
; DRILL file {KiCad 5.99.0+really5.1.10+dfsg1-1} date Thu Feb  3 20:18:57 2022
; FORMAT={-:-/ absolute / metric / decimal}
; #@! TF.CreationDate,2022-02-03T20:18:57+01:00
; #@! TF.GenerationSoftware,Kicad,Pcbnew,5.99.0+really5.1.10+dfsg1-1
; #@! TF.FileFunction,Plated,1,2,PTH
FMAT,2
METRIC
T1C0.400
T2C1.000
T3C1.100
T4C1.300
T5C2.300
T6C4.100
%
G90
G05
T1
X121.55Y-88.115
X121.55Y-90.655
X121.55Y-96.365
X121.55Y-98.905
X124.9Y-73.4
X126.79Y-82.1
X128.06Y-82.1
X132.4Y-84.95
X132.75Y-115.75
X140.5Y-115.75
X141.1Y-64.6
X141.1Y-66.1
X142.0Y-58.2
X143.0Y-78.55
X143.0Y-87.95
X144.838Y-78.25
X144.838Y-88.25
X152.5Y-71.055
X152.5Y-73.595
X152.5Y-76.135
X152.5Y-78.675
X154.75Y-83.55
X155.7Y-83.55
X162.45Y-74.85
X162.5Y-115.75
X168.8Y-72.325
X168.8Y-74.865
X168.8Y-77.405
X168.8Y-79.945
T2
X139.455Y-54.49
X141.995Y-54.49
X150.6Y-104.0
X153.14Y-104.0
X155.68Y-104.0
T3
X134.38Y-54.49
X134.38Y-57.03
X134.38Y-59.57
X134.38Y-62.11
X134.38Y-64.65
X134.38Y-67.19
X134.38Y-69.73
X134.38Y-72.27
X134.38Y-74.81
X134.38Y-77.35
X134.38Y-79.89
X134.38Y-82.43
X134.38Y-84.97
X134.38Y-87.51
X149.62Y-54.49
X149.62Y-57.03
X149.62Y-59.57
X149.62Y-62.11
X149.62Y-64.65
X149.62Y-67.19
X149.62Y-69.73
X149.62Y-72.27
X149.62Y-74.81
X149.62Y-77.35
X149.62Y-79.89
X149.62Y-82.43
X149.62Y-84.97
X149.62Y-87.51
T4
X105.2Y-75.1
X105.2Y-77.6
X105.2Y-80.1
X105.2Y-82.6
X105.2Y-85.1
X105.2Y-87.6
X105.2Y-90.1
X105.2Y-92.6
X105.2Y-95.1
X105.2Y-97.6
X105.2Y-101.1
X105.2Y-104.8
X107.7Y-75.1
X107.7Y-77.6
X107.7Y-80.1
X107.7Y-82.6
X107.7Y-85.1
X107.7Y-87.6
X107.7Y-90.1
X107.7Y-92.6
X107.7Y-95.1
X107.7Y-97.6
X107.7Y-101.1
X107.7Y-104.8
X110.2Y-75.1
X110.2Y-77.6
X110.2Y-80.1
X110.2Y-82.6
X110.2Y-85.1
X110.2Y-87.6
X110.2Y-90.1
X110.2Y-92.6
X110.2Y-95.1
X110.2Y-97.6
X110.2Y-101.1
X110.2Y-104.8
X112.7Y-75.1
X112.7Y-77.6
X112.7Y-80.1
X112.7Y-82.6
X112.7Y-85.1
X112.7Y-87.6
X112.7Y-90.1
X112.7Y-92.6
X112.7Y-95.1
X112.7Y-97.6
X112.7Y-101.1
X112.7Y-104.8
T5
X113.7Y-68.65
X113.7Y-111.25
T6
X109.85Y-64.55
X109.85Y-115.35
T0
M30
