%TF.GenerationSoftware,KiCad,Pcbnew,5.1.9+dfsg1-1*%
%TF.CreationDate,2021-05-17T21:51:48+02:00*%
%TF.ProjectId,JoeMBMS,4a6f654d-424d-4532-9e6b-696361645f70,rev?*%
%TF.SameCoordinates,Original*%
%TF.FileFunction,Copper,L2,Bot*%
%TF.FilePolarity,Positive*%
%FSLAX46Y46*%
G04 Gerber Fmt 4.6, Leading zero omitted, Abs format (unit mm)*
G04 Created by KiCad (PCBNEW 5.1.9+dfsg1-1) date 2021-05-17 21:51:48*
%MOMM*%
%LPD*%
G01*
G04 APERTURE LIST*
%TA.AperFunction,ComponentPad*%
%ADD10C,5.600000*%
%TD*%
%TA.AperFunction,ComponentPad*%
%ADD11R,1.600000X1.600000*%
%TD*%
%TA.AperFunction,ComponentPad*%
%ADD12C,1.600000*%
%TD*%
%TA.AperFunction,ComponentPad*%
%ADD13O,2.700000X3.300000*%
%TD*%
%TA.AperFunction,ComponentPad*%
%ADD14R,1.500000X2.300000*%
%TD*%
%TA.AperFunction,ComponentPad*%
%ADD15O,1.500000X2.300000*%
%TD*%
%TA.AperFunction,ViaPad*%
%ADD16C,0.800000*%
%TD*%
%TA.AperFunction,Conductor*%
%ADD17C,0.250000*%
%TD*%
%TA.AperFunction,Conductor*%
%ADD18C,0.254000*%
%TD*%
%TA.AperFunction,Conductor*%
%ADD19C,0.100000*%
%TD*%
G04 APERTURE END LIST*
D10*
%TO.P,REF\u002A\u002A,1*%
%TO.N,N/C*%
X130810000Y-158750000D03*
%TD*%
%TO.P,REF\u002A\u002A,1*%
%TO.N,N/C*%
X130810000Y-115570000D03*
%TD*%
%TO.P,REF\u002A\u002A,1*%
%TO.N,N/C*%
X217170000Y-115570000D03*
%TD*%
%TO.P,REF\u002A\u002A,1*%
%TO.N,N/C*%
X217170000Y-158750000D03*
%TD*%
D11*
%TO.P,U1,1*%
%TO.N,GND*%
X135382000Y-144780000D03*
D12*
%TO.P,U1,2*%
%TO.N,Net-(U1-Pad2)*%
X137922000Y-144780000D03*
%TO.P,U1,3*%
%TO.N,Net-(U1-Pad3)*%
X140462000Y-144780000D03*
%TO.P,U1,4*%
%TO.N,Net-(U1-Pad4)*%
X143002000Y-144780000D03*
%TO.P,U1,5*%
%TO.N,Teensy_TX*%
X145542000Y-144780000D03*
%TO.P,U1,6*%
%TO.N,Teensy_RX*%
X148082000Y-144780000D03*
%TO.P,U1,7*%
%TO.N,Teensy_OUT7*%
X150622000Y-144780000D03*
%TO.P,U1,8*%
%TO.N,Teensy_OUT8*%
X153162000Y-144780000D03*
%TO.P,U1,9*%
%TO.N,Teensy_RX3*%
X155702000Y-144780000D03*
%TO.P,U1,10*%
%TO.N,Teensy_TX3*%
X158242000Y-144780000D03*
%TO.P,U1,11*%
%TO.N,J5_RX2*%
X160782000Y-144780000D03*
%TO.P,U1,12*%
%TO.N,J5_TX2*%
X163322000Y-144780000D03*
%TO.P,U1,13*%
%TO.N,Teensy_OUT1*%
X165862000Y-144780000D03*
%TO.P,U1,33*%
%TO.N,+5V*%
X135382000Y-129540000D03*
%TO.P,U1,32*%
%TO.N,GND*%
X137922000Y-129540000D03*
%TO.P,U1,31*%
%TO.N,+3V3*%
X140462000Y-129540000D03*
%TO.P,U1,30*%
%TO.N,Teensy_OUT6*%
X143002000Y-129540000D03*
%TO.P,U1,29*%
%TO.N,Teensy_OUT5*%
X145542000Y-129540000D03*
%TO.P,U1,28*%
%TO.N,Teensy_OUT4*%
X148082000Y-129540000D03*
%TO.P,U1,27*%
%TO.N,Teensy_OUT3*%
X150622000Y-129540000D03*
%TO.P,U1,26*%
%TO.N,Teensy_IN4*%
X153162000Y-129540000D03*
%TO.P,U1,25*%
%TO.N,Teensy_IN3*%
X155702000Y-129540000D03*
%TO.P,U1,24*%
%TO.N,Teensy_IN1*%
X158242000Y-129540000D03*
%TO.P,U1,23*%
%TO.N,Teensy_IN2*%
X160782000Y-129540000D03*
%TO.P,U1,22*%
%TO.N,Teensy_ASEN1*%
X163322000Y-129540000D03*
%TO.P,U1,21*%
%TO.N,Teensy_ASEN2*%
X165862000Y-129540000D03*
%TO.P,U1,14*%
%TO.N,Teensy_OUT2*%
X168402000Y-144780000D03*
%TO.P,U1,20*%
%TO.N,Net-(U1-Pad20)*%
X168402000Y-129540000D03*
%TD*%
D13*
%TO.P,J1,4*%
%TO.N,Teensy_TX3*%
X145152000Y-150964000D03*
%TO.P,J1,3*%
%TO.N,Teensy_RX3*%
X149352000Y-150964000D03*
%TO.P,J1,2*%
%TO.N,+5V*%
X145152000Y-156464000D03*
%TO.P,J1,1*%
%TO.N,GND*%
%TA.AperFunction,ComponentPad*%
G36*
G01*
X150702000Y-155064001D02*
X150702000Y-157863999D01*
G75*
G02*
X150451999Y-158114000I-250001J0D01*
G01*
X148252001Y-158114000D01*
G75*
G02*
X148002000Y-157863999I0J250001D01*
G01*
X148002000Y-155064001D01*
G75*
G02*
X148252001Y-154814000I250001J0D01*
G01*
X150451999Y-154814000D01*
G75*
G02*
X150702000Y-155064001I0J-250001D01*
G01*
G37*
%TD.AperFunction*%
%TD*%
%TO.P,J2,1*%
%TO.N,GND*%
%TA.AperFunction,ComponentPad*%
G36*
G01*
X163910000Y-155064001D02*
X163910000Y-157863999D01*
G75*
G02*
X163659999Y-158114000I-250001J0D01*
G01*
X161460001Y-158114000D01*
G75*
G02*
X161210000Y-157863999I0J250001D01*
G01*
X161210000Y-155064001D01*
G75*
G02*
X161460001Y-154814000I250001J0D01*
G01*
X163659999Y-154814000D01*
G75*
G02*
X163910000Y-155064001I0J-250001D01*
G01*
G37*
%TD.AperFunction*%
%TO.P,J2,2*%
%TO.N,+5V*%
X158360000Y-156464000D03*
%TO.P,J2,3*%
%TO.N,Net-(J2-Pad3)*%
X162560000Y-150964000D03*
%TO.P,J2,4*%
%TO.N,Net-(J2-Pad4)*%
X158360000Y-150964000D03*
%TD*%
%TO.P,J4,1*%
%TO.N,+5V*%
%TA.AperFunction,ComponentPad*%
G36*
G01*
X170100000Y-152275999D02*
X170100000Y-149476001D01*
G75*
G02*
X170350001Y-149226000I250001J0D01*
G01*
X172549999Y-149226000D01*
G75*
G02*
X172800000Y-149476001I0J-250001D01*
G01*
X172800000Y-152275999D01*
G75*
G02*
X172549999Y-152526000I-250001J0D01*
G01*
X170350001Y-152526000D01*
G75*
G02*
X170100000Y-152275999I0J250001D01*
G01*
G37*
%TD.AperFunction*%
%TO.P,J4,2*%
%TO.N,GND*%
X175650000Y-150876000D03*
%TO.P,J4,3*%
X179850000Y-150876000D03*
%TO.P,J4,4*%
%TO.N,J4_OUT2*%
X184050000Y-150876000D03*
%TO.P,J4,5*%
%TO.N,J4_OUT4*%
X188250000Y-150876000D03*
%TO.P,J4,6*%
%TO.N,J4_OUT6*%
X192450000Y-150876000D03*
%TO.P,J4,7*%
%TO.N,J4_OUT7*%
X196650000Y-150876000D03*
%TO.P,J4,8*%
%TO.N,GND*%
X200850000Y-150876000D03*
%TO.P,J4,9*%
%TO.N,+12V*%
X171450000Y-156376000D03*
%TO.P,J4,10*%
X175650000Y-156376000D03*
%TO.P,J4,11*%
X179850000Y-156376000D03*
%TO.P,J4,12*%
%TO.N,J4_OUT1*%
X184050000Y-156376000D03*
%TO.P,J4,13*%
%TO.N,J4_OUT3*%
X188250000Y-156376000D03*
%TO.P,J4,14*%
%TO.N,J4_OUT5*%
X192450000Y-156376000D03*
%TO.P,J4,15*%
%TO.N,J4_OUT8*%
X196650000Y-156376000D03*
%TO.P,J4,16*%
%TO.N,J4_12V*%
X200850000Y-156376000D03*
%TD*%
%TO.P,J5,1*%
%TO.N,J5_IN1*%
%TA.AperFunction,ComponentPad*%
G36*
G01*
X155020000Y-122552001D02*
X155020000Y-125351999D01*
G75*
G02*
X154769999Y-125602000I-250001J0D01*
G01*
X152570001Y-125602000D01*
G75*
G02*
X152320000Y-125351999I0J250001D01*
G01*
X152320000Y-122552001D01*
G75*
G02*
X152570001Y-122302000I250001J0D01*
G01*
X154769999Y-122302000D01*
G75*
G02*
X155020000Y-122552001I0J-250001D01*
G01*
G37*
%TD.AperFunction*%
%TO.P,J5,2*%
%TO.N,J5_IN2*%
X149470000Y-123952000D03*
%TO.P,J5,3*%
%TO.N,J5_TX2*%
X145270000Y-123952000D03*
%TO.P,J5,4*%
%TO.N,J5_CANH*%
X141070000Y-123952000D03*
%TO.P,J5,5*%
%TO.N,+5V*%
X136870000Y-123952000D03*
%TO.P,J5,6*%
%TO.N,J5_IN3*%
X153670000Y-118452000D03*
%TO.P,J5,7*%
%TO.N,J5_IN4*%
X149470000Y-118452000D03*
%TO.P,J5,8*%
%TO.N,J5_RX2*%
X145270000Y-118452000D03*
%TO.P,J5,9*%
%TO.N,J5_CANL*%
X141070000Y-118452000D03*
%TO.P,J5,10*%
%TO.N,GND*%
X136870000Y-118452000D03*
%TD*%
D14*
%TO.P,U3,1*%
%TO.N,+12V*%
X198628000Y-126492000D03*
D15*
%TO.P,U3,2*%
%TO.N,GND*%
X196088000Y-126492000D03*
%TO.P,U3,3*%
%TO.N,+5V*%
X193548000Y-126492000D03*
%TD*%
D16*
%TO.N,J4_OUT4*%
X183134000Y-145161000D03*
%TO.N,GND*%
X138303000Y-133477000D03*
X190500000Y-143383000D03*
X199644000Y-143383000D03*
X162560000Y-118364000D03*
X175514000Y-126619000D03*
X184404000Y-116078000D03*
X212344000Y-131064000D03*
X212344000Y-141224000D03*
X210566000Y-147828000D03*
X145415000Y-141859000D03*
X174244000Y-115697000D03*
X163830000Y-126492000D03*
X178689000Y-145161000D03*
X163830000Y-137414000D03*
%TO.N,Teensy_OUT1*%
X165989000Y-142240000D03*
%TO.N,Teensy_OUT2*%
X168402000Y-142240000D03*
%TO.N,Net-(J2-Pad3)*%
X167894000Y-135636000D03*
%TO.N,Teensy_OUT5*%
X191516000Y-136779000D03*
%TO.N,Teensy_OUT6*%
X187452000Y-136779000D03*
%TO.N,GND*%
X141732000Y-133477000D03*
X177419000Y-121158000D03*
%TO.N,J4_OUT2*%
X181864000Y-136779000D03*
%TO.N,J4_OUT3*%
X181864000Y-145161000D03*
%TO.N,J5_IN2*%
X171704000Y-120015000D03*
%TO.N,Teensy_OUT1*%
X175514000Y-136779000D03*
%TO.N,Teensy_OUT2*%
X176784000Y-136779000D03*
%TO.N,Net-(J2-Pad4)*%
X159893000Y-135636000D03*
%TO.N,Net-(J2-Pad3)*%
X164736999Y-142240000D03*
%TO.N,Net-(J2-Pad4)*%
X159367001Y-142257999D03*
%TO.N,Teensy_OUT4*%
X173736000Y-143510000D03*
%TO.N,Teensy_OUT5*%
X148082000Y-131445000D03*
%TO.N,Teensy_OUT6*%
X147320000Y-132207000D03*
%TO.N,J4_OUT1*%
X183134000Y-136779000D03*
%TO.N,J5_IN1*%
X177395500Y-119530500D03*
%TO.N,Teensy_IN2*%
X166116000Y-127381000D03*
X172720000Y-126619000D03*
%TO.N,Teensy_IN1*%
X178181000Y-126619000D03*
%TO.N,Teensy_OUT8*%
X157353000Y-132969000D03*
X185928000Y-132969000D03*
X150114000Y-132969000D03*
%TO.N,Teensy_OUT7*%
X149098000Y-133731000D03*
X158369000Y-133731000D03*
X185039000Y-133731000D03*
%TO.N,Teensy_OUT5*%
X155448000Y-131445000D03*
%TO.N,Teensy_OUT6*%
X156210000Y-132207000D03*
%TO.N,Teensy_OUT3*%
X174117000Y-142494000D03*
%TD*%
D17*
%TO.N,Net-(J2-Pad3)*%
X164736999Y-141841001D02*
X167894000Y-138684000D01*
X167894000Y-138684000D02*
X167894000Y-135636000D01*
X164736999Y-142240000D02*
X164736999Y-141841001D01*
%TO.N,Net-(J2-Pad4)*%
X159367001Y-136161999D02*
X159893000Y-135636000D01*
X159367001Y-142257999D02*
X159367001Y-136161999D01*
%TO.N,J4_OUT2*%
X184050000Y-150876000D02*
X184050000Y-148871000D01*
X184050000Y-148871000D02*
X181138999Y-145959999D01*
X181138999Y-137504001D02*
X181864000Y-136779000D01*
X181138999Y-137704999D02*
X181138999Y-137504001D01*
X181138999Y-145959999D02*
X181138999Y-137704999D01*
%TO.N,J4_OUT4*%
X188250000Y-150876000D02*
X188250000Y-150785000D01*
X188250000Y-150277000D02*
X183134000Y-145161000D01*
X188250000Y-150876000D02*
X188250000Y-150277000D01*
%TO.N,J4_OUT1*%
X181515999Y-136053999D02*
X182408999Y-136053999D01*
X180688989Y-136881009D02*
X181515999Y-136053999D01*
X180688989Y-146146399D02*
X180688989Y-136881009D01*
X182374990Y-147832400D02*
X180688989Y-146146399D01*
X182374990Y-154700990D02*
X182374990Y-147832400D01*
X184050000Y-156376000D02*
X182374990Y-154700990D01*
X182408999Y-136053999D02*
X183134000Y-136779000D01*
X183134000Y-136779000D02*
X183134000Y-136779000D01*
%TO.N,J4_OUT3*%
X186574990Y-154700990D02*
X188250000Y-156376000D01*
X186574990Y-149871990D02*
X186574990Y-154700990D01*
X181864000Y-145161000D02*
X186574990Y-149871990D01*
%TO.N,J5_IN1*%
X153670000Y-123952000D02*
X153670000Y-123698000D01*
X170365002Y-122427000D02*
X173228000Y-119564002D01*
X154941000Y-122427000D02*
X170365002Y-122427000D01*
X153670000Y-123698000D02*
X154941000Y-122427000D01*
X177361998Y-119564002D02*
X177395500Y-119530500D01*
X173228000Y-119564002D02*
X177361998Y-119564002D01*
%TO.N,J5_IN2*%
X169742010Y-121976990D02*
X171704000Y-120015000D01*
X151445010Y-121976990D02*
X169742010Y-121976990D01*
X149470000Y-123952000D02*
X151445010Y-121976990D01*
%TO.N,J5_TX2*%
X139336999Y-130080001D02*
X139336999Y-128999999D01*
X144384998Y-123952000D02*
X145270000Y-123952000D01*
X141333001Y-130665001D02*
X139921999Y-130665001D01*
X139336999Y-128999999D02*
X144384998Y-123952000D01*
X146506989Y-135838989D02*
X141333001Y-130665001D01*
X146506989Y-142150009D02*
X146506989Y-135838989D01*
X144416999Y-145320001D02*
X144416999Y-144239999D01*
X139921999Y-130665001D02*
X139336999Y-130080001D01*
X144416999Y-144239999D02*
X146506989Y-142150009D01*
X145452009Y-146355011D02*
X144416999Y-145320001D01*
X161746989Y-146355011D02*
X145452009Y-146355011D01*
X163322000Y-144780000D02*
X161746989Y-146355011D01*
%TO.N,J5_RX2*%
X146945010Y-124945811D02*
X146945010Y-120127010D01*
X145963811Y-125927010D02*
X146945010Y-124945811D01*
X146945010Y-120127010D02*
X145270000Y-118452000D01*
X144949988Y-125927010D02*
X145963811Y-125927010D01*
X141876999Y-130080001D02*
X141876999Y-128999999D01*
X146956999Y-135160001D02*
X141876999Y-130080001D01*
X141876999Y-128999999D02*
X144949988Y-125927010D01*
X146956999Y-145320001D02*
X146956999Y-135160001D01*
X147541999Y-145905001D02*
X146956999Y-145320001D01*
X159656999Y-145905001D02*
X147541999Y-145905001D01*
X160782000Y-144780000D02*
X159656999Y-145905001D01*
%TO.N,Teensy_IN2*%
X166116000Y-127381000D02*
X171831000Y-127381000D01*
X171831000Y-127381000D02*
X171958000Y-127381000D01*
X171958000Y-127381000D02*
X172720000Y-126619000D01*
X172720000Y-126619000D02*
X172720000Y-126619000D01*
%TO.N,Teensy_IN1*%
X159675999Y-128106001D02*
X176693999Y-128106001D01*
X158242000Y-129540000D02*
X159675999Y-128106001D01*
X176693999Y-128106001D02*
X178181000Y-126619000D01*
X178181000Y-126619000D02*
X178181000Y-126619000D01*
%TO.N,Teensy_OUT8*%
X150115410Y-143637000D02*
X149548010Y-143069600D01*
X152019000Y-143637000D02*
X150115410Y-143637000D01*
X153162000Y-144780000D02*
X152019000Y-143637000D01*
X149548010Y-143069600D02*
X149548010Y-135185990D01*
X149548010Y-135185990D02*
X150114000Y-134620000D01*
X150114000Y-132969000D02*
X150114000Y-134620000D01*
X157353000Y-132969000D02*
X185928000Y-132969000D01*
%TO.N,Teensy_OUT7*%
X150622000Y-144780000D02*
X149098000Y-143256000D01*
X149098000Y-133731000D02*
X149098000Y-143256000D01*
X158369000Y-133731000D02*
X185039000Y-133731000D01*
%TO.N,Teensy_OUT5*%
X147447000Y-131445000D02*
X145542000Y-129540000D01*
X148082000Y-131445000D02*
X147447000Y-131445000D01*
X191516000Y-136213315D02*
X191516000Y-136779000D01*
X186747685Y-131445000D02*
X191516000Y-136213315D01*
X155448000Y-131445000D02*
X186747685Y-131445000D01*
%TO.N,Teensy_OUT6*%
X145669000Y-132207000D02*
X147320000Y-132207000D01*
X143002000Y-129540000D02*
X145669000Y-132207000D01*
X156521990Y-131895010D02*
X156210000Y-132207000D01*
X186505010Y-131895010D02*
X156521990Y-131895010D01*
X187452000Y-132842000D02*
X186505010Y-131895010D01*
X187452000Y-136779000D02*
X187452000Y-132842000D01*
%TO.N,Teensy_OUT3*%
X152559011Y-131477011D02*
X150622000Y-129540000D01*
X152559011Y-142653011D02*
X152559011Y-131477011D01*
X152965990Y-143059990D02*
X152559011Y-142653011D01*
X173113008Y-143059990D02*
X152965990Y-143059990D01*
X173678998Y-142494000D02*
X173113008Y-143059990D01*
X174117000Y-142494000D02*
X173678998Y-142494000D01*
%TO.N,Teensy_OUT2*%
X168402000Y-142240000D02*
X172974000Y-137668000D01*
X175895000Y-137668000D02*
X176784000Y-136779000D01*
X172974000Y-137668000D02*
X175895000Y-137668000D01*
%TO.N,Teensy_OUT4*%
X154178000Y-143510000D02*
X173736000Y-143510000D01*
X152654000Y-143510000D02*
X154178000Y-143510000D01*
X152109001Y-142965001D02*
X152654000Y-143510000D01*
X150985001Y-130665001D02*
X152109001Y-131789001D01*
X152109001Y-131789001D02*
X152109001Y-142965001D01*
X149207001Y-130665001D02*
X150985001Y-130665001D01*
X148082000Y-129540000D02*
X149207001Y-130665001D01*
%TO.N,Teensy_OUT1*%
X165989000Y-142240000D02*
X171450000Y-136779000D01*
X171450000Y-136779000D02*
X175514000Y-136779000D01*
%TD*%
D18*
%TO.N,GND*%
X215542918Y-112525943D02*
X214980315Y-112901862D01*
X214501862Y-113380315D01*
X214125943Y-113942918D01*
X213867006Y-114568048D01*
X213735000Y-115231682D01*
X213735000Y-115908318D01*
X213867006Y-116571952D01*
X214125943Y-117197082D01*
X214501862Y-117759685D01*
X214980315Y-118238138D01*
X215542918Y-118614057D01*
X216168048Y-118872994D01*
X216831682Y-119005000D01*
X217508318Y-119005000D01*
X218171952Y-118872994D01*
X218797082Y-118614057D01*
X219359685Y-118238138D01*
X219838138Y-117759685D01*
X220214057Y-117197082D01*
X220320001Y-116941310D01*
X220320000Y-157378687D01*
X220214057Y-157122918D01*
X219838138Y-156560315D01*
X219359685Y-156081862D01*
X218797082Y-155705943D01*
X218171952Y-155447006D01*
X217508318Y-155315000D01*
X216831682Y-155315000D01*
X216168048Y-155447006D01*
X215542918Y-155705943D01*
X214980315Y-156081862D01*
X214501862Y-156560315D01*
X214125943Y-157122918D01*
X213867006Y-157748048D01*
X213735000Y-158411682D01*
X213735000Y-159088318D01*
X213867006Y-159751952D01*
X214125943Y-160377082D01*
X214501862Y-160939685D01*
X214980315Y-161418138D01*
X215542918Y-161794057D01*
X215798687Y-161900000D01*
X132181313Y-161900000D01*
X132437082Y-161794057D01*
X132999685Y-161418138D01*
X133478138Y-160939685D01*
X133854057Y-160377082D01*
X134112994Y-159751952D01*
X134245000Y-159088318D01*
X134245000Y-158411682D01*
X134112994Y-157748048D01*
X133854057Y-157122918D01*
X133478138Y-156560315D01*
X132999685Y-156081862D01*
X132976680Y-156066490D01*
X143167000Y-156066490D01*
X143167000Y-156861509D01*
X143195722Y-157153127D01*
X143309226Y-157527301D01*
X143493547Y-157872143D01*
X143741602Y-158174398D01*
X144043857Y-158422453D01*
X144388698Y-158606774D01*
X144762872Y-158720278D01*
X145152000Y-158758604D01*
X145541127Y-158720278D01*
X145915301Y-158606774D01*
X146260143Y-158422453D01*
X146562398Y-158174398D01*
X146611965Y-158114000D01*
X147363928Y-158114000D01*
X147376188Y-158238482D01*
X147412498Y-158358180D01*
X147471463Y-158468494D01*
X147550815Y-158565185D01*
X147647506Y-158644537D01*
X147757820Y-158703502D01*
X147877518Y-158739812D01*
X148002000Y-158752072D01*
X149066250Y-158749000D01*
X149225000Y-158590250D01*
X149225000Y-156591000D01*
X149479000Y-156591000D01*
X149479000Y-158590250D01*
X149637750Y-158749000D01*
X150702000Y-158752072D01*
X150826482Y-158739812D01*
X150946180Y-158703502D01*
X151056494Y-158644537D01*
X151153185Y-158565185D01*
X151232537Y-158468494D01*
X151291502Y-158358180D01*
X151327812Y-158238482D01*
X151340072Y-158114000D01*
X151337000Y-156749750D01*
X151178250Y-156591000D01*
X149479000Y-156591000D01*
X149225000Y-156591000D01*
X147525750Y-156591000D01*
X147367000Y-156749750D01*
X147363928Y-158114000D01*
X146611965Y-158114000D01*
X146810453Y-157872143D01*
X146994774Y-157527302D01*
X147108278Y-157153128D01*
X147137000Y-156861510D01*
X147137000Y-156066491D01*
X147108278Y-155774873D01*
X146994774Y-155400698D01*
X146810453Y-155055857D01*
X146611966Y-154814000D01*
X147363928Y-154814000D01*
X147367000Y-156178250D01*
X147525750Y-156337000D01*
X149225000Y-156337000D01*
X149225000Y-154337750D01*
X149479000Y-154337750D01*
X149479000Y-156337000D01*
X151178250Y-156337000D01*
X151337000Y-156178250D01*
X151337251Y-156066490D01*
X156375000Y-156066490D01*
X156375000Y-156861509D01*
X156403722Y-157153127D01*
X156517226Y-157527301D01*
X156701547Y-157872143D01*
X156949602Y-158174398D01*
X157251857Y-158422453D01*
X157596698Y-158606774D01*
X157970872Y-158720278D01*
X158360000Y-158758604D01*
X158749127Y-158720278D01*
X159123301Y-158606774D01*
X159468143Y-158422453D01*
X159770398Y-158174398D01*
X159819965Y-158114000D01*
X160571928Y-158114000D01*
X160584188Y-158238482D01*
X160620498Y-158358180D01*
X160679463Y-158468494D01*
X160758815Y-158565185D01*
X160855506Y-158644537D01*
X160965820Y-158703502D01*
X161085518Y-158739812D01*
X161210000Y-158752072D01*
X162274250Y-158749000D01*
X162433000Y-158590250D01*
X162433000Y-156591000D01*
X162687000Y-156591000D01*
X162687000Y-158590250D01*
X162845750Y-158749000D01*
X163910000Y-158752072D01*
X164034482Y-158739812D01*
X164154180Y-158703502D01*
X164264494Y-158644537D01*
X164361185Y-158565185D01*
X164440537Y-158468494D01*
X164499502Y-158358180D01*
X164535812Y-158238482D01*
X164548072Y-158114000D01*
X164545000Y-156749750D01*
X164386250Y-156591000D01*
X162687000Y-156591000D01*
X162433000Y-156591000D01*
X160733750Y-156591000D01*
X160575000Y-156749750D01*
X160571928Y-158114000D01*
X159819965Y-158114000D01*
X160018453Y-157872143D01*
X160202774Y-157527302D01*
X160316278Y-157153128D01*
X160345000Y-156861510D01*
X160345000Y-156066491D01*
X160316278Y-155774873D01*
X160202774Y-155400698D01*
X160018453Y-155055857D01*
X159819966Y-154814000D01*
X160571928Y-154814000D01*
X160575000Y-156178250D01*
X160733750Y-156337000D01*
X162433000Y-156337000D01*
X162433000Y-154337750D01*
X162687000Y-154337750D01*
X162687000Y-156337000D01*
X164386250Y-156337000D01*
X164545000Y-156178250D01*
X164545449Y-155978491D01*
X169465000Y-155978491D01*
X169465000Y-156773510D01*
X169493722Y-157065128D01*
X169607226Y-157439302D01*
X169791547Y-157784143D01*
X170039603Y-158086398D01*
X170341858Y-158334453D01*
X170686699Y-158518774D01*
X171060873Y-158632278D01*
X171450000Y-158670604D01*
X171839128Y-158632278D01*
X172213302Y-158518774D01*
X172558143Y-158334453D01*
X172860398Y-158086398D01*
X173108453Y-157784143D01*
X173292774Y-157439302D01*
X173406278Y-157065127D01*
X173435000Y-156773509D01*
X173435000Y-155978491D01*
X173665000Y-155978491D01*
X173665000Y-156773510D01*
X173693722Y-157065128D01*
X173807226Y-157439302D01*
X173991547Y-157784143D01*
X174239603Y-158086398D01*
X174541858Y-158334453D01*
X174886699Y-158518774D01*
X175260873Y-158632278D01*
X175650000Y-158670604D01*
X176039128Y-158632278D01*
X176413302Y-158518774D01*
X176758143Y-158334453D01*
X177060398Y-158086398D01*
X177308453Y-157784143D01*
X177492774Y-157439302D01*
X177606278Y-157065127D01*
X177635000Y-156773509D01*
X177635000Y-155978491D01*
X177865000Y-155978491D01*
X177865000Y-156773510D01*
X177893722Y-157065128D01*
X178007226Y-157439302D01*
X178191547Y-157784143D01*
X178439603Y-158086398D01*
X178741858Y-158334453D01*
X179086699Y-158518774D01*
X179460873Y-158632278D01*
X179850000Y-158670604D01*
X180239128Y-158632278D01*
X180613302Y-158518774D01*
X180958143Y-158334453D01*
X181260398Y-158086398D01*
X181508453Y-157784143D01*
X181692774Y-157439302D01*
X181806278Y-157065127D01*
X181835000Y-156773509D01*
X181835000Y-155978490D01*
X181806278Y-155686872D01*
X181692774Y-155312698D01*
X181508453Y-154967857D01*
X181260398Y-154665602D01*
X180958143Y-154417547D01*
X180613301Y-154233226D01*
X180239127Y-154119722D01*
X179850000Y-154081396D01*
X179460872Y-154119722D01*
X179086698Y-154233226D01*
X178741857Y-154417547D01*
X178439602Y-154665602D01*
X178191547Y-154967857D01*
X178007226Y-155312699D01*
X177893722Y-155686873D01*
X177865000Y-155978491D01*
X177635000Y-155978491D01*
X177635000Y-155978490D01*
X177606278Y-155686872D01*
X177492774Y-155312698D01*
X177308453Y-154967857D01*
X177060398Y-154665602D01*
X176758143Y-154417547D01*
X176413301Y-154233226D01*
X176039127Y-154119722D01*
X175650000Y-154081396D01*
X175260872Y-154119722D01*
X174886698Y-154233226D01*
X174541857Y-154417547D01*
X174239602Y-154665602D01*
X173991547Y-154967857D01*
X173807226Y-155312699D01*
X173693722Y-155686873D01*
X173665000Y-155978491D01*
X173435000Y-155978491D01*
X173435000Y-155978490D01*
X173406278Y-155686872D01*
X173292774Y-155312698D01*
X173108453Y-154967857D01*
X172860398Y-154665602D01*
X172558143Y-154417547D01*
X172213301Y-154233226D01*
X171839127Y-154119722D01*
X171450000Y-154081396D01*
X171060872Y-154119722D01*
X170686698Y-154233226D01*
X170341857Y-154417547D01*
X170039602Y-154665602D01*
X169791547Y-154967857D01*
X169607226Y-155312699D01*
X169493722Y-155686873D01*
X169465000Y-155978491D01*
X164545449Y-155978491D01*
X164548072Y-154814000D01*
X164535812Y-154689518D01*
X164499502Y-154569820D01*
X164440537Y-154459506D01*
X164361185Y-154362815D01*
X164264494Y-154283463D01*
X164154180Y-154224498D01*
X164034482Y-154188188D01*
X163910000Y-154175928D01*
X162845750Y-154179000D01*
X162687000Y-154337750D01*
X162433000Y-154337750D01*
X162274250Y-154179000D01*
X161210000Y-154175928D01*
X161085518Y-154188188D01*
X160965820Y-154224498D01*
X160855506Y-154283463D01*
X160758815Y-154362815D01*
X160679463Y-154459506D01*
X160620498Y-154569820D01*
X160584188Y-154689518D01*
X160571928Y-154814000D01*
X159819966Y-154814000D01*
X159770398Y-154753602D01*
X159468143Y-154505547D01*
X159123302Y-154321226D01*
X158749128Y-154207722D01*
X158360000Y-154169396D01*
X157970873Y-154207722D01*
X157596699Y-154321226D01*
X157251858Y-154505547D01*
X156949603Y-154753602D01*
X156701547Y-155055857D01*
X156517226Y-155400698D01*
X156403722Y-155774872D01*
X156375000Y-156066490D01*
X151337251Y-156066490D01*
X151340072Y-154814000D01*
X151327812Y-154689518D01*
X151291502Y-154569820D01*
X151232537Y-154459506D01*
X151153185Y-154362815D01*
X151056494Y-154283463D01*
X150946180Y-154224498D01*
X150826482Y-154188188D01*
X150702000Y-154175928D01*
X149637750Y-154179000D01*
X149479000Y-154337750D01*
X149225000Y-154337750D01*
X149066250Y-154179000D01*
X148002000Y-154175928D01*
X147877518Y-154188188D01*
X147757820Y-154224498D01*
X147647506Y-154283463D01*
X147550815Y-154362815D01*
X147471463Y-154459506D01*
X147412498Y-154569820D01*
X147376188Y-154689518D01*
X147363928Y-154814000D01*
X146611966Y-154814000D01*
X146562398Y-154753602D01*
X146260143Y-154505547D01*
X145915302Y-154321226D01*
X145541128Y-154207722D01*
X145152000Y-154169396D01*
X144762873Y-154207722D01*
X144388699Y-154321226D01*
X144043858Y-154505547D01*
X143741603Y-154753602D01*
X143493547Y-155055857D01*
X143309226Y-155400698D01*
X143195722Y-155774872D01*
X143167000Y-156066490D01*
X132976680Y-156066490D01*
X132437082Y-155705943D01*
X131811952Y-155447006D01*
X131148318Y-155315000D01*
X130471682Y-155315000D01*
X129808048Y-155447006D01*
X129182918Y-155705943D01*
X128620315Y-156081862D01*
X128141862Y-156560315D01*
X127765943Y-157122918D01*
X127660000Y-157378687D01*
X127660000Y-150566490D01*
X143167000Y-150566490D01*
X143167000Y-151361509D01*
X143195722Y-151653127D01*
X143309226Y-152027301D01*
X143493547Y-152372143D01*
X143741602Y-152674398D01*
X144043857Y-152922453D01*
X144388698Y-153106774D01*
X144762872Y-153220278D01*
X145152000Y-153258604D01*
X145541127Y-153220278D01*
X145915301Y-153106774D01*
X146260143Y-152922453D01*
X146562398Y-152674398D01*
X146810453Y-152372143D01*
X146994774Y-152027302D01*
X147108278Y-151653128D01*
X147137000Y-151361510D01*
X147137000Y-150566491D01*
X147137000Y-150566490D01*
X147367000Y-150566490D01*
X147367000Y-151361509D01*
X147395722Y-151653127D01*
X147509226Y-152027301D01*
X147693547Y-152372143D01*
X147941602Y-152674398D01*
X148243857Y-152922453D01*
X148588698Y-153106774D01*
X148962872Y-153220278D01*
X149352000Y-153258604D01*
X149741127Y-153220278D01*
X150115301Y-153106774D01*
X150460143Y-152922453D01*
X150762398Y-152674398D01*
X151010453Y-152372143D01*
X151194774Y-152027302D01*
X151308278Y-151653128D01*
X151337000Y-151361510D01*
X151337000Y-150566491D01*
X151337000Y-150566490D01*
X156375000Y-150566490D01*
X156375000Y-151361509D01*
X156403722Y-151653127D01*
X156517226Y-152027301D01*
X156701547Y-152372143D01*
X156949602Y-152674398D01*
X157251857Y-152922453D01*
X157596698Y-153106774D01*
X157970872Y-153220278D01*
X158360000Y-153258604D01*
X158749127Y-153220278D01*
X159123301Y-153106774D01*
X159468143Y-152922453D01*
X159770398Y-152674398D01*
X160018453Y-152372143D01*
X160202774Y-152027302D01*
X160316278Y-151653128D01*
X160345000Y-151361510D01*
X160345000Y-150566491D01*
X160345000Y-150566490D01*
X160575000Y-150566490D01*
X160575000Y-151361509D01*
X160603722Y-151653127D01*
X160717226Y-152027301D01*
X160901547Y-152372143D01*
X161149602Y-152674398D01*
X161451857Y-152922453D01*
X161796698Y-153106774D01*
X162170872Y-153220278D01*
X162560000Y-153258604D01*
X162949127Y-153220278D01*
X163323301Y-153106774D01*
X163668143Y-152922453D01*
X163970398Y-152674398D01*
X164218453Y-152372143D01*
X164402774Y-152027302D01*
X164516278Y-151653128D01*
X164545000Y-151361510D01*
X164545000Y-150566491D01*
X164516278Y-150274873D01*
X164402774Y-149900698D01*
X164218453Y-149555857D01*
X164152917Y-149476001D01*
X169461928Y-149476001D01*
X169461928Y-152275999D01*
X169478992Y-152449253D01*
X169529529Y-152615850D01*
X169611595Y-152769386D01*
X169722039Y-152903961D01*
X169856614Y-153014405D01*
X170010150Y-153096471D01*
X170176747Y-153147008D01*
X170350001Y-153164072D01*
X172549999Y-153164072D01*
X172723253Y-153147008D01*
X172889850Y-153096471D01*
X173043386Y-153014405D01*
X173177961Y-152903961D01*
X173288405Y-152769386D01*
X173370471Y-152615850D01*
X173421008Y-152449253D01*
X173438072Y-152275999D01*
X173438072Y-151003000D01*
X173665000Y-151003000D01*
X173665000Y-151303000D01*
X173727918Y-151687814D01*
X173864700Y-152052959D01*
X174070090Y-152384403D01*
X174336195Y-152669409D01*
X174652789Y-152897024D01*
X175007705Y-153058501D01*
X175214677Y-153112677D01*
X175523000Y-152997829D01*
X175523000Y-151003000D01*
X175777000Y-151003000D01*
X175777000Y-152997829D01*
X176085323Y-153112677D01*
X176292295Y-153058501D01*
X176647211Y-152897024D01*
X176963805Y-152669409D01*
X177229910Y-152384403D01*
X177435300Y-152052959D01*
X177572082Y-151687814D01*
X177635000Y-151303000D01*
X177635000Y-151003000D01*
X177865000Y-151003000D01*
X177865000Y-151303000D01*
X177927918Y-151687814D01*
X178064700Y-152052959D01*
X178270090Y-152384403D01*
X178536195Y-152669409D01*
X178852789Y-152897024D01*
X179207705Y-153058501D01*
X179414677Y-153112677D01*
X179723000Y-152997829D01*
X179723000Y-151003000D01*
X177865000Y-151003000D01*
X177635000Y-151003000D01*
X175777000Y-151003000D01*
X175523000Y-151003000D01*
X173665000Y-151003000D01*
X173438072Y-151003000D01*
X173438072Y-150449000D01*
X173665000Y-150449000D01*
X173665000Y-150749000D01*
X175523000Y-150749000D01*
X175523000Y-148754171D01*
X175777000Y-148754171D01*
X175777000Y-150749000D01*
X177635000Y-150749000D01*
X177635000Y-150449000D01*
X177865000Y-150449000D01*
X177865000Y-150749000D01*
X179723000Y-150749000D01*
X179723000Y-148754171D01*
X179414677Y-148639323D01*
X179207705Y-148693499D01*
X178852789Y-148854976D01*
X178536195Y-149082591D01*
X178270090Y-149367597D01*
X178064700Y-149699041D01*
X177927918Y-150064186D01*
X177865000Y-150449000D01*
X177635000Y-150449000D01*
X177572082Y-150064186D01*
X177435300Y-149699041D01*
X177229910Y-149367597D01*
X176963805Y-149082591D01*
X176647211Y-148854976D01*
X176292295Y-148693499D01*
X176085323Y-148639323D01*
X175777000Y-148754171D01*
X175523000Y-148754171D01*
X175214677Y-148639323D01*
X175007705Y-148693499D01*
X174652789Y-148854976D01*
X174336195Y-149082591D01*
X174070090Y-149367597D01*
X173864700Y-149699041D01*
X173727918Y-150064186D01*
X173665000Y-150449000D01*
X173438072Y-150449000D01*
X173438072Y-149476001D01*
X173421008Y-149302747D01*
X173370471Y-149136150D01*
X173288405Y-148982614D01*
X173177961Y-148848039D01*
X173043386Y-148737595D01*
X172889850Y-148655529D01*
X172723253Y-148604992D01*
X172549999Y-148587928D01*
X170350001Y-148587928D01*
X170176747Y-148604992D01*
X170010150Y-148655529D01*
X169856614Y-148737595D01*
X169722039Y-148848039D01*
X169611595Y-148982614D01*
X169529529Y-149136150D01*
X169478992Y-149302747D01*
X169461928Y-149476001D01*
X164152917Y-149476001D01*
X163970398Y-149253602D01*
X163668143Y-149005547D01*
X163323302Y-148821226D01*
X162949128Y-148707722D01*
X162560000Y-148669396D01*
X162170873Y-148707722D01*
X161796699Y-148821226D01*
X161451858Y-149005547D01*
X161149603Y-149253602D01*
X160901547Y-149555857D01*
X160717226Y-149900698D01*
X160603722Y-150274872D01*
X160575000Y-150566490D01*
X160345000Y-150566490D01*
X160316278Y-150274873D01*
X160202774Y-149900698D01*
X160018453Y-149555857D01*
X159770398Y-149253602D01*
X159468143Y-149005547D01*
X159123302Y-148821226D01*
X158749128Y-148707722D01*
X158360000Y-148669396D01*
X157970873Y-148707722D01*
X157596699Y-148821226D01*
X157251858Y-149005547D01*
X156949603Y-149253602D01*
X156701547Y-149555857D01*
X156517226Y-149900698D01*
X156403722Y-150274872D01*
X156375000Y-150566490D01*
X151337000Y-150566490D01*
X151308278Y-150274873D01*
X151194774Y-149900698D01*
X151010453Y-149555857D01*
X150762398Y-149253602D01*
X150460143Y-149005547D01*
X150115302Y-148821226D01*
X149741128Y-148707722D01*
X149352000Y-148669396D01*
X148962873Y-148707722D01*
X148588699Y-148821226D01*
X148243858Y-149005547D01*
X147941603Y-149253602D01*
X147693547Y-149555857D01*
X147509226Y-149900698D01*
X147395722Y-150274872D01*
X147367000Y-150566490D01*
X147137000Y-150566490D01*
X147108278Y-150274873D01*
X146994774Y-149900698D01*
X146810453Y-149555857D01*
X146562398Y-149253602D01*
X146260143Y-149005547D01*
X145915302Y-148821226D01*
X145541128Y-148707722D01*
X145152000Y-148669396D01*
X144762873Y-148707722D01*
X144388699Y-148821226D01*
X144043858Y-149005547D01*
X143741603Y-149253602D01*
X143493547Y-149555857D01*
X143309226Y-149900698D01*
X143195722Y-150274872D01*
X143167000Y-150566490D01*
X127660000Y-150566490D01*
X127660000Y-145580000D01*
X133943928Y-145580000D01*
X133956188Y-145704482D01*
X133992498Y-145824180D01*
X134051463Y-145934494D01*
X134130815Y-146031185D01*
X134227506Y-146110537D01*
X134337820Y-146169502D01*
X134457518Y-146205812D01*
X134582000Y-146218072D01*
X135096250Y-146215000D01*
X135255000Y-146056250D01*
X135255000Y-144907000D01*
X134105750Y-144907000D01*
X133947000Y-145065750D01*
X133943928Y-145580000D01*
X127660000Y-145580000D01*
X127660000Y-143980000D01*
X133943928Y-143980000D01*
X133947000Y-144494250D01*
X134105750Y-144653000D01*
X135255000Y-144653000D01*
X135255000Y-143503750D01*
X135509000Y-143503750D01*
X135509000Y-144653000D01*
X135529000Y-144653000D01*
X135529000Y-144907000D01*
X135509000Y-144907000D01*
X135509000Y-146056250D01*
X135667750Y-146215000D01*
X136182000Y-146218072D01*
X136306482Y-146205812D01*
X136426180Y-146169502D01*
X136536494Y-146110537D01*
X136633185Y-146031185D01*
X136712537Y-145934494D01*
X136771502Y-145824180D01*
X136807812Y-145704482D01*
X136808643Y-145696039D01*
X137007241Y-145894637D01*
X137242273Y-146051680D01*
X137503426Y-146159853D01*
X137780665Y-146215000D01*
X138063335Y-146215000D01*
X138340574Y-146159853D01*
X138601727Y-146051680D01*
X138836759Y-145894637D01*
X139036637Y-145694759D01*
X139192000Y-145462241D01*
X139347363Y-145694759D01*
X139547241Y-145894637D01*
X139782273Y-146051680D01*
X140043426Y-146159853D01*
X140320665Y-146215000D01*
X140603335Y-146215000D01*
X140880574Y-146159853D01*
X141141727Y-146051680D01*
X141376759Y-145894637D01*
X141576637Y-145694759D01*
X141732000Y-145462241D01*
X141887363Y-145694759D01*
X142087241Y-145894637D01*
X142322273Y-146051680D01*
X142583426Y-146159853D01*
X142860665Y-146215000D01*
X143143335Y-146215000D01*
X143420574Y-146159853D01*
X143681727Y-146051680D01*
X143916759Y-145894637D01*
X143916796Y-145894600D01*
X144888210Y-146866014D01*
X144912008Y-146895012D01*
X145027733Y-146989985D01*
X145159762Y-147060557D01*
X145303023Y-147104014D01*
X145414676Y-147115011D01*
X145414685Y-147115011D01*
X145452008Y-147118687D01*
X145489331Y-147115011D01*
X161709667Y-147115011D01*
X161746989Y-147118687D01*
X161784311Y-147115011D01*
X161784322Y-147115011D01*
X161895975Y-147104014D01*
X162039236Y-147060557D01*
X162171265Y-146989985D01*
X162286990Y-146895012D01*
X162310793Y-146866008D01*
X162998114Y-146178688D01*
X163180665Y-146215000D01*
X163463335Y-146215000D01*
X163740574Y-146159853D01*
X164001727Y-146051680D01*
X164236759Y-145894637D01*
X164436637Y-145694759D01*
X164592000Y-145462241D01*
X164747363Y-145694759D01*
X164947241Y-145894637D01*
X165182273Y-146051680D01*
X165443426Y-146159853D01*
X165720665Y-146215000D01*
X166003335Y-146215000D01*
X166280574Y-146159853D01*
X166541727Y-146051680D01*
X166776759Y-145894637D01*
X166976637Y-145694759D01*
X167132000Y-145462241D01*
X167287363Y-145694759D01*
X167487241Y-145894637D01*
X167722273Y-146051680D01*
X167983426Y-146159853D01*
X168260665Y-146215000D01*
X168543335Y-146215000D01*
X168820574Y-146159853D01*
X169081727Y-146051680D01*
X169316759Y-145894637D01*
X169516637Y-145694759D01*
X169673680Y-145459727D01*
X169781853Y-145198574D01*
X169837000Y-144921335D01*
X169837000Y-144638665D01*
X169781853Y-144361426D01*
X169743983Y-144270000D01*
X173032289Y-144270000D01*
X173076226Y-144313937D01*
X173245744Y-144427205D01*
X173434102Y-144505226D01*
X173634061Y-144545000D01*
X173837939Y-144545000D01*
X174037898Y-144505226D01*
X174226256Y-144427205D01*
X174395774Y-144313937D01*
X174539937Y-144169774D01*
X174653205Y-144000256D01*
X174731226Y-143811898D01*
X174771000Y-143611939D01*
X174771000Y-143408061D01*
X174752342Y-143314262D01*
X174776774Y-143297937D01*
X174920937Y-143153774D01*
X175034205Y-142984256D01*
X175112226Y-142795898D01*
X175152000Y-142595939D01*
X175152000Y-142392061D01*
X175112226Y-142192102D01*
X175034205Y-142003744D01*
X174920937Y-141834226D01*
X174776774Y-141690063D01*
X174607256Y-141576795D01*
X174418898Y-141498774D01*
X174218939Y-141459000D01*
X174015061Y-141459000D01*
X173815102Y-141498774D01*
X173626744Y-141576795D01*
X173457226Y-141690063D01*
X173326779Y-141820510D01*
X173254722Y-141859026D01*
X173138997Y-141953999D01*
X173115198Y-141982998D01*
X172798207Y-142299990D01*
X169437000Y-142299990D01*
X169437000Y-142279801D01*
X173288803Y-138428000D01*
X175857678Y-138428000D01*
X175895000Y-138431676D01*
X175932322Y-138428000D01*
X175932333Y-138428000D01*
X176043986Y-138417003D01*
X176187247Y-138373546D01*
X176319276Y-138302974D01*
X176435001Y-138208001D01*
X176458803Y-138178998D01*
X176823801Y-137814000D01*
X176885939Y-137814000D01*
X177085898Y-137774226D01*
X177274256Y-137696205D01*
X177443774Y-137582937D01*
X177587937Y-137438774D01*
X177701205Y-137269256D01*
X177779226Y-137080898D01*
X177818986Y-136881009D01*
X179925313Y-136881009D01*
X179928990Y-136918341D01*
X179928989Y-146109077D01*
X179925313Y-146146399D01*
X179928989Y-146183721D01*
X179928989Y-146183731D01*
X179939986Y-146295384D01*
X179983443Y-146438645D01*
X180054015Y-146570675D01*
X180093860Y-146619225D01*
X180148988Y-146686400D01*
X180177991Y-146710202D01*
X181614991Y-148147204D01*
X181614991Y-149666267D01*
X181429910Y-149367597D01*
X181163805Y-149082591D01*
X180847211Y-148854976D01*
X180492295Y-148693499D01*
X180285323Y-148639323D01*
X179977000Y-148754171D01*
X179977000Y-150749000D01*
X179997000Y-150749000D01*
X179997000Y-151003000D01*
X179977000Y-151003000D01*
X179977000Y-152997829D01*
X180285323Y-153112677D01*
X180492295Y-153058501D01*
X180847211Y-152897024D01*
X181163805Y-152669409D01*
X181429910Y-152384403D01*
X181614990Y-152085733D01*
X181614990Y-154663667D01*
X181611314Y-154700990D01*
X181614990Y-154738312D01*
X181614990Y-154738322D01*
X181625987Y-154849975D01*
X181669444Y-154993236D01*
X181740016Y-155125266D01*
X181779861Y-155173816D01*
X181834989Y-155240991D01*
X181863993Y-155264794D01*
X182138490Y-155539291D01*
X182093722Y-155686873D01*
X182065000Y-155978491D01*
X182065000Y-156773510D01*
X182093722Y-157065128D01*
X182207226Y-157439302D01*
X182391547Y-157784143D01*
X182639603Y-158086398D01*
X182941858Y-158334453D01*
X183286699Y-158518774D01*
X183660873Y-158632278D01*
X184050000Y-158670604D01*
X184439128Y-158632278D01*
X184813302Y-158518774D01*
X185158143Y-158334453D01*
X185460398Y-158086398D01*
X185708453Y-157784143D01*
X185892774Y-157439302D01*
X186006278Y-157065127D01*
X186035000Y-156773509D01*
X186035000Y-155978490D01*
X186006278Y-155686872D01*
X185892774Y-155312698D01*
X185708453Y-154967857D01*
X185460398Y-154665602D01*
X185158143Y-154417547D01*
X184813301Y-154233226D01*
X184439127Y-154119722D01*
X184050000Y-154081396D01*
X183660872Y-154119722D01*
X183286698Y-154233226D01*
X183134990Y-154314315D01*
X183134990Y-152937684D01*
X183286699Y-153018774D01*
X183660873Y-153132278D01*
X184050000Y-153170604D01*
X184439128Y-153132278D01*
X184813302Y-153018774D01*
X185158143Y-152834453D01*
X185460398Y-152586398D01*
X185708453Y-152284143D01*
X185814990Y-152084825D01*
X185814991Y-154663658D01*
X185811314Y-154700990D01*
X185825988Y-154849975D01*
X185869444Y-154993236D01*
X185940016Y-155125266D01*
X186011191Y-155211992D01*
X186034990Y-155240991D01*
X186063988Y-155264789D01*
X186338490Y-155539291D01*
X186293722Y-155686873D01*
X186265000Y-155978491D01*
X186265000Y-156773510D01*
X186293722Y-157065128D01*
X186407226Y-157439302D01*
X186591547Y-157784143D01*
X186839603Y-158086398D01*
X187141858Y-158334453D01*
X187486699Y-158518774D01*
X187860873Y-158632278D01*
X188250000Y-158670604D01*
X188639128Y-158632278D01*
X189013302Y-158518774D01*
X189358143Y-158334453D01*
X189660398Y-158086398D01*
X189908453Y-157784143D01*
X190092774Y-157439302D01*
X190206278Y-157065127D01*
X190235000Y-156773509D01*
X190235000Y-155978491D01*
X190465000Y-155978491D01*
X190465000Y-156773510D01*
X190493722Y-157065128D01*
X190607226Y-157439302D01*
X190791547Y-157784143D01*
X191039603Y-158086398D01*
X191341858Y-158334453D01*
X191686699Y-158518774D01*
X192060873Y-158632278D01*
X192450000Y-158670604D01*
X192839128Y-158632278D01*
X193213302Y-158518774D01*
X193558143Y-158334453D01*
X193860398Y-158086398D01*
X194108453Y-157784143D01*
X194292774Y-157439302D01*
X194406278Y-157065127D01*
X194435000Y-156773509D01*
X194435000Y-155978491D01*
X194665000Y-155978491D01*
X194665000Y-156773510D01*
X194693722Y-157065128D01*
X194807226Y-157439302D01*
X194991547Y-157784143D01*
X195239603Y-158086398D01*
X195541858Y-158334453D01*
X195886699Y-158518774D01*
X196260873Y-158632278D01*
X196650000Y-158670604D01*
X197039128Y-158632278D01*
X197413302Y-158518774D01*
X197758143Y-158334453D01*
X198060398Y-158086398D01*
X198308453Y-157784143D01*
X198492774Y-157439302D01*
X198606278Y-157065127D01*
X198635000Y-156773509D01*
X198635000Y-155978491D01*
X198865000Y-155978491D01*
X198865000Y-156773510D01*
X198893722Y-157065128D01*
X199007226Y-157439302D01*
X199191547Y-157784143D01*
X199439603Y-158086398D01*
X199741858Y-158334453D01*
X200086699Y-158518774D01*
X200460873Y-158632278D01*
X200850000Y-158670604D01*
X201239128Y-158632278D01*
X201613302Y-158518774D01*
X201958143Y-158334453D01*
X202260398Y-158086398D01*
X202508453Y-157784143D01*
X202692774Y-157439302D01*
X202806278Y-157065127D01*
X202835000Y-156773509D01*
X202835000Y-155978490D01*
X202806278Y-155686872D01*
X202692774Y-155312698D01*
X202508453Y-154967857D01*
X202260398Y-154665602D01*
X201958143Y-154417547D01*
X201613301Y-154233226D01*
X201239127Y-154119722D01*
X200850000Y-154081396D01*
X200460872Y-154119722D01*
X200086698Y-154233226D01*
X199741857Y-154417547D01*
X199439602Y-154665602D01*
X199191547Y-154967857D01*
X199007226Y-155312699D01*
X198893722Y-155686873D01*
X198865000Y-155978491D01*
X198635000Y-155978491D01*
X198635000Y-155978490D01*
X198606278Y-155686872D01*
X198492774Y-155312698D01*
X198308453Y-154967857D01*
X198060398Y-154665602D01*
X197758143Y-154417547D01*
X197413301Y-154233226D01*
X197039127Y-154119722D01*
X196650000Y-154081396D01*
X196260872Y-154119722D01*
X195886698Y-154233226D01*
X195541857Y-154417547D01*
X195239602Y-154665602D01*
X194991547Y-154967857D01*
X194807226Y-155312699D01*
X194693722Y-155686873D01*
X194665000Y-155978491D01*
X194435000Y-155978491D01*
X194435000Y-155978490D01*
X194406278Y-155686872D01*
X194292774Y-155312698D01*
X194108453Y-154967857D01*
X193860398Y-154665602D01*
X193558143Y-154417547D01*
X193213301Y-154233226D01*
X192839127Y-154119722D01*
X192450000Y-154081396D01*
X192060872Y-154119722D01*
X191686698Y-154233226D01*
X191341857Y-154417547D01*
X191039602Y-154665602D01*
X190791547Y-154967857D01*
X190607226Y-155312699D01*
X190493722Y-155686873D01*
X190465000Y-155978491D01*
X190235000Y-155978491D01*
X190235000Y-155978490D01*
X190206278Y-155686872D01*
X190092774Y-155312698D01*
X189908453Y-154967857D01*
X189660398Y-154665602D01*
X189358143Y-154417547D01*
X189013301Y-154233226D01*
X188639127Y-154119722D01*
X188250000Y-154081396D01*
X187860872Y-154119722D01*
X187486698Y-154233226D01*
X187334990Y-154314315D01*
X187334990Y-152937684D01*
X187486699Y-153018774D01*
X187860873Y-153132278D01*
X188250000Y-153170604D01*
X188639128Y-153132278D01*
X189013302Y-153018774D01*
X189358143Y-152834453D01*
X189660398Y-152586398D01*
X189908453Y-152284143D01*
X190092774Y-151939302D01*
X190206278Y-151565127D01*
X190235000Y-151273509D01*
X190235000Y-150478491D01*
X190465000Y-150478491D01*
X190465000Y-151273510D01*
X190493722Y-151565128D01*
X190607226Y-151939302D01*
X190791547Y-152284143D01*
X191039603Y-152586398D01*
X191341858Y-152834453D01*
X191686699Y-153018774D01*
X192060873Y-153132278D01*
X192450000Y-153170604D01*
X192839128Y-153132278D01*
X193213302Y-153018774D01*
X193558143Y-152834453D01*
X193860398Y-152586398D01*
X194108453Y-152284143D01*
X194292774Y-151939302D01*
X194406278Y-151565127D01*
X194435000Y-151273509D01*
X194435000Y-150478491D01*
X194665000Y-150478491D01*
X194665000Y-151273510D01*
X194693722Y-151565128D01*
X194807226Y-151939302D01*
X194991547Y-152284143D01*
X195239603Y-152586398D01*
X195541858Y-152834453D01*
X195886699Y-153018774D01*
X196260873Y-153132278D01*
X196650000Y-153170604D01*
X197039128Y-153132278D01*
X197413302Y-153018774D01*
X197758143Y-152834453D01*
X198060398Y-152586398D01*
X198308453Y-152284143D01*
X198492774Y-151939302D01*
X198606278Y-151565127D01*
X198635000Y-151273509D01*
X198635000Y-151003000D01*
X198865000Y-151003000D01*
X198865000Y-151303000D01*
X198927918Y-151687814D01*
X199064700Y-152052959D01*
X199270090Y-152384403D01*
X199536195Y-152669409D01*
X199852789Y-152897024D01*
X200207705Y-153058501D01*
X200414677Y-153112677D01*
X200723000Y-152997829D01*
X200723000Y-151003000D01*
X200977000Y-151003000D01*
X200977000Y-152997829D01*
X201285323Y-153112677D01*
X201492295Y-153058501D01*
X201847211Y-152897024D01*
X202163805Y-152669409D01*
X202429910Y-152384403D01*
X202635300Y-152052959D01*
X202772082Y-151687814D01*
X202835000Y-151303000D01*
X202835000Y-151003000D01*
X200977000Y-151003000D01*
X200723000Y-151003000D01*
X198865000Y-151003000D01*
X198635000Y-151003000D01*
X198635000Y-150478490D01*
X198632096Y-150449000D01*
X198865000Y-150449000D01*
X198865000Y-150749000D01*
X200723000Y-150749000D01*
X200723000Y-148754171D01*
X200977000Y-148754171D01*
X200977000Y-150749000D01*
X202835000Y-150749000D01*
X202835000Y-150449000D01*
X202772082Y-150064186D01*
X202635300Y-149699041D01*
X202429910Y-149367597D01*
X202163805Y-149082591D01*
X201847211Y-148854976D01*
X201492295Y-148693499D01*
X201285323Y-148639323D01*
X200977000Y-148754171D01*
X200723000Y-148754171D01*
X200414677Y-148639323D01*
X200207705Y-148693499D01*
X199852789Y-148854976D01*
X199536195Y-149082591D01*
X199270090Y-149367597D01*
X199064700Y-149699041D01*
X198927918Y-150064186D01*
X198865000Y-150449000D01*
X198632096Y-150449000D01*
X198606278Y-150186872D01*
X198492774Y-149812698D01*
X198308453Y-149467857D01*
X198060398Y-149165602D01*
X197758143Y-148917547D01*
X197413301Y-148733226D01*
X197039127Y-148619722D01*
X196650000Y-148581396D01*
X196260872Y-148619722D01*
X195886698Y-148733226D01*
X195541857Y-148917547D01*
X195239602Y-149165602D01*
X194991547Y-149467857D01*
X194807226Y-149812699D01*
X194693722Y-150186873D01*
X194665000Y-150478491D01*
X194435000Y-150478491D01*
X194435000Y-150478490D01*
X194406278Y-150186872D01*
X194292774Y-149812698D01*
X194108453Y-149467857D01*
X193860398Y-149165602D01*
X193558143Y-148917547D01*
X193213301Y-148733226D01*
X192839127Y-148619722D01*
X192450000Y-148581396D01*
X192060872Y-148619722D01*
X191686698Y-148733226D01*
X191341857Y-148917547D01*
X191039602Y-149165602D01*
X190791547Y-149467857D01*
X190607226Y-149812699D01*
X190493722Y-150186873D01*
X190465000Y-150478491D01*
X190235000Y-150478491D01*
X190235000Y-150478490D01*
X190206278Y-150186872D01*
X190092774Y-149812698D01*
X189908453Y-149467857D01*
X189660398Y-149165602D01*
X189358143Y-148917547D01*
X189013301Y-148733226D01*
X188639127Y-148619722D01*
X188250000Y-148581396D01*
X187860872Y-148619722D01*
X187712524Y-148664723D01*
X184169000Y-145121199D01*
X184169000Y-145059061D01*
X184129226Y-144859102D01*
X184051205Y-144670744D01*
X183937937Y-144501226D01*
X183793774Y-144357063D01*
X183624256Y-144243795D01*
X183435898Y-144165774D01*
X183235939Y-144126000D01*
X183032061Y-144126000D01*
X182832102Y-144165774D01*
X182643744Y-144243795D01*
X182499000Y-144340510D01*
X182354256Y-144243795D01*
X182165898Y-144165774D01*
X181965939Y-144126000D01*
X181898999Y-144126000D01*
X181898999Y-137818802D01*
X181903801Y-137814000D01*
X181965939Y-137814000D01*
X182165898Y-137774226D01*
X182354256Y-137696205D01*
X182499000Y-137599490D01*
X182643744Y-137696205D01*
X182832102Y-137774226D01*
X183032061Y-137814000D01*
X183235939Y-137814000D01*
X183435898Y-137774226D01*
X183624256Y-137696205D01*
X183793774Y-137582937D01*
X183937937Y-137438774D01*
X184051205Y-137269256D01*
X184129226Y-137080898D01*
X184169000Y-136880939D01*
X184169000Y-136677061D01*
X184129226Y-136477102D01*
X184051205Y-136288744D01*
X183937937Y-136119226D01*
X183793774Y-135975063D01*
X183624256Y-135861795D01*
X183435898Y-135783774D01*
X183235939Y-135744000D01*
X183173801Y-135744000D01*
X182972802Y-135543001D01*
X182949000Y-135513998D01*
X182833275Y-135419025D01*
X182701246Y-135348453D01*
X182557985Y-135304996D01*
X182446332Y-135293999D01*
X182446321Y-135293999D01*
X182408999Y-135290323D01*
X182371677Y-135293999D01*
X181553324Y-135293999D01*
X181515999Y-135290323D01*
X181478674Y-135293999D01*
X181478666Y-135293999D01*
X181367013Y-135304996D01*
X181223752Y-135348453D01*
X181091723Y-135419025D01*
X180975998Y-135513998D01*
X180952200Y-135542997D01*
X180177987Y-136317210D01*
X180148989Y-136341008D01*
X180125191Y-136370006D01*
X180125190Y-136370007D01*
X180054015Y-136456733D01*
X179983443Y-136588763D01*
X179970930Y-136630015D01*
X179939987Y-136732023D01*
X179937890Y-136753316D01*
X179925313Y-136881009D01*
X177818986Y-136881009D01*
X177819000Y-136880939D01*
X177819000Y-136677061D01*
X177779226Y-136477102D01*
X177701205Y-136288744D01*
X177587937Y-136119226D01*
X177443774Y-135975063D01*
X177274256Y-135861795D01*
X177085898Y-135783774D01*
X176885939Y-135744000D01*
X176682061Y-135744000D01*
X176482102Y-135783774D01*
X176293744Y-135861795D01*
X176149000Y-135958510D01*
X176004256Y-135861795D01*
X175815898Y-135783774D01*
X175615939Y-135744000D01*
X175412061Y-135744000D01*
X175212102Y-135783774D01*
X175023744Y-135861795D01*
X174854226Y-135975063D01*
X174810289Y-136019000D01*
X171487322Y-136019000D01*
X171449999Y-136015324D01*
X171412676Y-136019000D01*
X171412667Y-136019000D01*
X171301014Y-136029997D01*
X171157753Y-136073454D01*
X171025724Y-136144026D01*
X170909999Y-136238999D01*
X170886201Y-136267997D01*
X168654000Y-138500198D01*
X168654000Y-136339711D01*
X168697937Y-136295774D01*
X168811205Y-136126256D01*
X168889226Y-135937898D01*
X168929000Y-135737939D01*
X168929000Y-135534061D01*
X168889226Y-135334102D01*
X168811205Y-135145744D01*
X168697937Y-134976226D01*
X168553774Y-134832063D01*
X168384256Y-134718795D01*
X168195898Y-134640774D01*
X167995939Y-134601000D01*
X167792061Y-134601000D01*
X167592102Y-134640774D01*
X167403744Y-134718795D01*
X167234226Y-134832063D01*
X167090063Y-134976226D01*
X166976795Y-135145744D01*
X166898774Y-135334102D01*
X166859000Y-135534061D01*
X166859000Y-135737939D01*
X166898774Y-135937898D01*
X166976795Y-136126256D01*
X167090063Y-136295774D01*
X167134001Y-136339712D01*
X167134000Y-138369198D01*
X164226001Y-141277198D01*
X164196998Y-141301000D01*
X164102025Y-141416725D01*
X164099724Y-141421030D01*
X164077225Y-141436063D01*
X163933062Y-141580226D01*
X163819794Y-141749744D01*
X163741773Y-141938102D01*
X163701999Y-142138061D01*
X163701999Y-142299990D01*
X160402001Y-142299990D01*
X160402001Y-142156060D01*
X160362227Y-141956101D01*
X160284206Y-141767743D01*
X160170938Y-141598225D01*
X160127001Y-141554288D01*
X160127001Y-136644731D01*
X160194898Y-136631226D01*
X160383256Y-136553205D01*
X160552774Y-136439937D01*
X160696937Y-136295774D01*
X160810205Y-136126256D01*
X160888226Y-135937898D01*
X160928000Y-135737939D01*
X160928000Y-135534061D01*
X160888226Y-135334102D01*
X160810205Y-135145744D01*
X160696937Y-134976226D01*
X160552774Y-134832063D01*
X160383256Y-134718795D01*
X160194898Y-134640774D01*
X159994939Y-134601000D01*
X159791061Y-134601000D01*
X159591102Y-134640774D01*
X159402744Y-134718795D01*
X159233226Y-134832063D01*
X159089063Y-134976226D01*
X158975795Y-135145744D01*
X158897774Y-135334102D01*
X158858000Y-135534061D01*
X158858000Y-135596199D01*
X158855999Y-135598200D01*
X158827001Y-135621998D01*
X158803203Y-135650996D01*
X158803202Y-135650997D01*
X158732027Y-135737723D01*
X158661455Y-135869753D01*
X158617999Y-136013014D01*
X158603325Y-136161999D01*
X158607002Y-136199331D01*
X158607001Y-141554288D01*
X158563064Y-141598225D01*
X158449796Y-141767743D01*
X158371775Y-141956101D01*
X158332001Y-142156060D01*
X158332001Y-142299990D01*
X153319011Y-142299990D01*
X153319011Y-131514333D01*
X153322687Y-131477010D01*
X153319011Y-131439687D01*
X153319011Y-131439678D01*
X153308014Y-131328025D01*
X153264557Y-131184764D01*
X153193985Y-131052735D01*
X153130190Y-130975000D01*
X153303335Y-130975000D01*
X153580574Y-130919853D01*
X153841727Y-130811680D01*
X154076759Y-130654637D01*
X154276637Y-130454759D01*
X154432000Y-130222241D01*
X154587363Y-130454759D01*
X154780947Y-130648343D01*
X154644063Y-130785226D01*
X154530795Y-130954744D01*
X154452774Y-131143102D01*
X154413000Y-131343061D01*
X154413000Y-131546939D01*
X154452774Y-131746898D01*
X154530795Y-131935256D01*
X154644063Y-132104774D01*
X154788226Y-132248937D01*
X154957744Y-132362205D01*
X155146102Y-132440226D01*
X155203381Y-132451619D01*
X155214774Y-132508898D01*
X155292795Y-132697256D01*
X155406063Y-132866774D01*
X155550226Y-133010937D01*
X155719744Y-133124205D01*
X155908102Y-133202226D01*
X156108061Y-133242000D01*
X156311939Y-133242000D01*
X156350500Y-133234330D01*
X156357774Y-133270898D01*
X156435795Y-133459256D01*
X156549063Y-133628774D01*
X156693226Y-133772937D01*
X156862744Y-133886205D01*
X157051102Y-133964226D01*
X157251061Y-134004000D01*
X157368026Y-134004000D01*
X157373774Y-134032898D01*
X157451795Y-134221256D01*
X157565063Y-134390774D01*
X157709226Y-134534937D01*
X157878744Y-134648205D01*
X158067102Y-134726226D01*
X158267061Y-134766000D01*
X158470939Y-134766000D01*
X158670898Y-134726226D01*
X158859256Y-134648205D01*
X159028774Y-134534937D01*
X159072711Y-134491000D01*
X184335289Y-134491000D01*
X184379226Y-134534937D01*
X184548744Y-134648205D01*
X184737102Y-134726226D01*
X184937061Y-134766000D01*
X185140939Y-134766000D01*
X185340898Y-134726226D01*
X185529256Y-134648205D01*
X185698774Y-134534937D01*
X185842937Y-134390774D01*
X185956205Y-134221256D01*
X186034226Y-134032898D01*
X186040388Y-134001922D01*
X186229898Y-133964226D01*
X186418256Y-133886205D01*
X186587774Y-133772937D01*
X186692001Y-133668710D01*
X186692000Y-136075289D01*
X186648063Y-136119226D01*
X186534795Y-136288744D01*
X186456774Y-136477102D01*
X186417000Y-136677061D01*
X186417000Y-136880939D01*
X186456774Y-137080898D01*
X186534795Y-137269256D01*
X186648063Y-137438774D01*
X186792226Y-137582937D01*
X186961744Y-137696205D01*
X187150102Y-137774226D01*
X187350061Y-137814000D01*
X187553939Y-137814000D01*
X187753898Y-137774226D01*
X187942256Y-137696205D01*
X188111774Y-137582937D01*
X188255937Y-137438774D01*
X188369205Y-137269256D01*
X188447226Y-137080898D01*
X188487000Y-136880939D01*
X188487000Y-136677061D01*
X188447226Y-136477102D01*
X188369205Y-136288744D01*
X188255937Y-136119226D01*
X188212000Y-136075289D01*
X188212000Y-133984116D01*
X190574728Y-136346845D01*
X190520774Y-136477102D01*
X190481000Y-136677061D01*
X190481000Y-136880939D01*
X190520774Y-137080898D01*
X190598795Y-137269256D01*
X190712063Y-137438774D01*
X190856226Y-137582937D01*
X191025744Y-137696205D01*
X191214102Y-137774226D01*
X191414061Y-137814000D01*
X191617939Y-137814000D01*
X191817898Y-137774226D01*
X192006256Y-137696205D01*
X192175774Y-137582937D01*
X192319937Y-137438774D01*
X192433205Y-137269256D01*
X192511226Y-137080898D01*
X192551000Y-136880939D01*
X192551000Y-136677061D01*
X192511226Y-136477102D01*
X192433205Y-136288744D01*
X192319937Y-136119226D01*
X192264987Y-136064276D01*
X192221546Y-135921068D01*
X192150974Y-135789039D01*
X192056001Y-135673314D01*
X192027004Y-135649517D01*
X187311489Y-130934003D01*
X187287686Y-130904999D01*
X187171961Y-130810026D01*
X187039932Y-130739454D01*
X186896671Y-130695997D01*
X186785018Y-130685000D01*
X186785007Y-130685000D01*
X186747685Y-130681324D01*
X186710363Y-130685000D01*
X169271317Y-130685000D01*
X169316759Y-130654637D01*
X169516637Y-130454759D01*
X169673680Y-130219727D01*
X169781853Y-129958574D01*
X169837000Y-129681335D01*
X169837000Y-129398665D01*
X169781853Y-129121426D01*
X169676053Y-128866001D01*
X176656677Y-128866001D01*
X176693999Y-128869677D01*
X176731321Y-128866001D01*
X176731332Y-128866001D01*
X176842985Y-128855004D01*
X176986246Y-128811547D01*
X177118275Y-128740975D01*
X177234000Y-128646002D01*
X177257803Y-128616998D01*
X178220802Y-127654000D01*
X178282939Y-127654000D01*
X178482898Y-127614226D01*
X178671256Y-127536205D01*
X178840774Y-127422937D01*
X178984937Y-127278774D01*
X179098205Y-127109256D01*
X179176226Y-126920898D01*
X179216000Y-126720939D01*
X179216000Y-126517061D01*
X179176226Y-126317102D01*
X179098205Y-126128744D01*
X179028193Y-126023963D01*
X192163000Y-126023963D01*
X192163000Y-126960036D01*
X192183040Y-127163506D01*
X192262236Y-127424580D01*
X192390843Y-127665187D01*
X192563919Y-127876080D01*
X192774812Y-128049157D01*
X193015419Y-128177764D01*
X193276493Y-128256960D01*
X193548000Y-128283701D01*
X193819506Y-128256960D01*
X194080580Y-128177764D01*
X194321187Y-128049157D01*
X194532080Y-127876081D01*
X194705157Y-127665188D01*
X194820486Y-127449422D01*
X194857028Y-127539349D01*
X195006972Y-127767061D01*
X195198460Y-127961145D01*
X195424132Y-128114142D01*
X195675316Y-128220173D01*
X195746815Y-128234318D01*
X195961000Y-128111656D01*
X195961000Y-126619000D01*
X195941000Y-126619000D01*
X195941000Y-126365000D01*
X195961000Y-126365000D01*
X195961000Y-124872344D01*
X196215000Y-124872344D01*
X196215000Y-126365000D01*
X196235000Y-126365000D01*
X196235000Y-126619000D01*
X196215000Y-126619000D01*
X196215000Y-128111656D01*
X196429185Y-128234318D01*
X196500684Y-128220173D01*
X196751868Y-128114142D01*
X196977540Y-127961145D01*
X197169028Y-127767061D01*
X197241418Y-127657126D01*
X197252188Y-127766482D01*
X197288498Y-127886180D01*
X197347463Y-127996494D01*
X197426815Y-128093185D01*
X197523506Y-128172537D01*
X197633820Y-128231502D01*
X197753518Y-128267812D01*
X197878000Y-128280072D01*
X199378000Y-128280072D01*
X199502482Y-128267812D01*
X199622180Y-128231502D01*
X199732494Y-128172537D01*
X199829185Y-128093185D01*
X199908537Y-127996494D01*
X199967502Y-127886180D01*
X200003812Y-127766482D01*
X200016072Y-127642000D01*
X200016072Y-125342000D01*
X200003812Y-125217518D01*
X199967502Y-125097820D01*
X199908537Y-124987506D01*
X199829185Y-124890815D01*
X199732494Y-124811463D01*
X199622180Y-124752498D01*
X199502482Y-124716188D01*
X199378000Y-124703928D01*
X197878000Y-124703928D01*
X197753518Y-124716188D01*
X197633820Y-124752498D01*
X197523506Y-124811463D01*
X197426815Y-124890815D01*
X197347463Y-124987506D01*
X197288498Y-125097820D01*
X197252188Y-125217518D01*
X197241418Y-125326874D01*
X197169028Y-125216939D01*
X196977540Y-125022855D01*
X196751868Y-124869858D01*
X196500684Y-124763827D01*
X196429185Y-124749682D01*
X196215000Y-124872344D01*
X195961000Y-124872344D01*
X195746815Y-124749682D01*
X195675316Y-124763827D01*
X195424132Y-124869858D01*
X195198460Y-125022855D01*
X195006972Y-125216939D01*
X194857028Y-125444651D01*
X194820486Y-125534578D01*
X194705157Y-125318812D01*
X194532081Y-125107919D01*
X194321188Y-124934843D01*
X194080581Y-124806236D01*
X193819507Y-124727040D01*
X193548000Y-124700299D01*
X193276494Y-124727040D01*
X193015420Y-124806236D01*
X192774813Y-124934843D01*
X192563920Y-125107919D01*
X192390843Y-125318812D01*
X192262236Y-125559419D01*
X192183040Y-125820493D01*
X192163000Y-126023963D01*
X179028193Y-126023963D01*
X178984937Y-125959226D01*
X178840774Y-125815063D01*
X178671256Y-125701795D01*
X178482898Y-125623774D01*
X178282939Y-125584000D01*
X178079061Y-125584000D01*
X177879102Y-125623774D01*
X177690744Y-125701795D01*
X177521226Y-125815063D01*
X177377063Y-125959226D01*
X177263795Y-126128744D01*
X177185774Y-126317102D01*
X177146000Y-126517061D01*
X177146000Y-126579198D01*
X176379198Y-127346001D01*
X173456710Y-127346001D01*
X173523937Y-127278774D01*
X173637205Y-127109256D01*
X173715226Y-126920898D01*
X173755000Y-126720939D01*
X173755000Y-126517061D01*
X173715226Y-126317102D01*
X173637205Y-126128744D01*
X173523937Y-125959226D01*
X173379774Y-125815063D01*
X173210256Y-125701795D01*
X173021898Y-125623774D01*
X172821939Y-125584000D01*
X172618061Y-125584000D01*
X172418102Y-125623774D01*
X172229744Y-125701795D01*
X172060226Y-125815063D01*
X171916063Y-125959226D01*
X171802795Y-126128744D01*
X171724774Y-126317102D01*
X171685000Y-126517061D01*
X171685000Y-126579199D01*
X171643199Y-126621000D01*
X166819711Y-126621000D01*
X166775774Y-126577063D01*
X166606256Y-126463795D01*
X166417898Y-126385774D01*
X166217939Y-126346000D01*
X166014061Y-126346000D01*
X165814102Y-126385774D01*
X165625744Y-126463795D01*
X165456226Y-126577063D01*
X165312063Y-126721226D01*
X165198795Y-126890744D01*
X165120774Y-127079102D01*
X165081000Y-127279061D01*
X165081000Y-127346001D01*
X159713322Y-127346001D01*
X159675999Y-127342325D01*
X159638676Y-127346001D01*
X159638666Y-127346001D01*
X159527013Y-127356998D01*
X159383752Y-127400455D01*
X159251723Y-127471027D01*
X159135998Y-127566000D01*
X159112200Y-127594998D01*
X158565886Y-128141312D01*
X158383335Y-128105000D01*
X158100665Y-128105000D01*
X157823426Y-128160147D01*
X157562273Y-128268320D01*
X157327241Y-128425363D01*
X157127363Y-128625241D01*
X156972000Y-128857759D01*
X156816637Y-128625241D01*
X156616759Y-128425363D01*
X156381727Y-128268320D01*
X156120574Y-128160147D01*
X155843335Y-128105000D01*
X155560665Y-128105000D01*
X155283426Y-128160147D01*
X155022273Y-128268320D01*
X154787241Y-128425363D01*
X154587363Y-128625241D01*
X154432000Y-128857759D01*
X154276637Y-128625241D01*
X154076759Y-128425363D01*
X153841727Y-128268320D01*
X153580574Y-128160147D01*
X153303335Y-128105000D01*
X153020665Y-128105000D01*
X152743426Y-128160147D01*
X152482273Y-128268320D01*
X152247241Y-128425363D01*
X152047363Y-128625241D01*
X151892000Y-128857759D01*
X151736637Y-128625241D01*
X151536759Y-128425363D01*
X151301727Y-128268320D01*
X151040574Y-128160147D01*
X150763335Y-128105000D01*
X150480665Y-128105000D01*
X150203426Y-128160147D01*
X149942273Y-128268320D01*
X149707241Y-128425363D01*
X149507363Y-128625241D01*
X149352000Y-128857759D01*
X149196637Y-128625241D01*
X148996759Y-128425363D01*
X148761727Y-128268320D01*
X148500574Y-128160147D01*
X148223335Y-128105000D01*
X147940665Y-128105000D01*
X147663426Y-128160147D01*
X147402273Y-128268320D01*
X147167241Y-128425363D01*
X146967363Y-128625241D01*
X146812000Y-128857759D01*
X146656637Y-128625241D01*
X146456759Y-128425363D01*
X146221727Y-128268320D01*
X145960574Y-128160147D01*
X145683335Y-128105000D01*
X145400665Y-128105000D01*
X145123426Y-128160147D01*
X144862273Y-128268320D01*
X144627241Y-128425363D01*
X144427363Y-128625241D01*
X144272000Y-128857759D01*
X144116637Y-128625241D01*
X143916759Y-128425363D01*
X143682777Y-128269022D01*
X145264790Y-126687010D01*
X145926489Y-126687010D01*
X145963811Y-126690686D01*
X146001133Y-126687010D01*
X146001144Y-126687010D01*
X146112797Y-126676013D01*
X146256058Y-126632556D01*
X146388087Y-126561984D01*
X146503812Y-126467011D01*
X146527615Y-126438008D01*
X147456014Y-125509609D01*
X147485011Y-125485812D01*
X147542298Y-125416008D01*
X147579984Y-125370088D01*
X147650556Y-125238058D01*
X147655590Y-125221464D01*
X147685217Y-125123795D01*
X147811547Y-125360143D01*
X148059602Y-125662398D01*
X148361857Y-125910453D01*
X148706698Y-126094774D01*
X149080872Y-126208278D01*
X149470000Y-126246604D01*
X149859127Y-126208278D01*
X150233301Y-126094774D01*
X150578143Y-125910453D01*
X150880398Y-125662398D01*
X151128453Y-125360143D01*
X151312774Y-125015302D01*
X151426278Y-124641128D01*
X151455000Y-124349510D01*
X151455000Y-123554491D01*
X151426278Y-123262873D01*
X151381510Y-123115292D01*
X151681928Y-122814874D01*
X151681928Y-125351999D01*
X151698992Y-125525253D01*
X151749529Y-125691850D01*
X151831595Y-125845386D01*
X151942039Y-125979961D01*
X152076614Y-126090405D01*
X152230150Y-126172471D01*
X152396747Y-126223008D01*
X152570001Y-126240072D01*
X154769999Y-126240072D01*
X154943253Y-126223008D01*
X155109850Y-126172471D01*
X155263386Y-126090405D01*
X155397961Y-125979961D01*
X155508405Y-125845386D01*
X155590471Y-125691850D01*
X155641008Y-125525253D01*
X155658072Y-125351999D01*
X155658072Y-123187000D01*
X170327680Y-123187000D01*
X170365002Y-123190676D01*
X170402324Y-123187000D01*
X170402335Y-123187000D01*
X170513988Y-123176003D01*
X170657249Y-123132546D01*
X170789278Y-123061974D01*
X170905003Y-122967001D01*
X170928806Y-122937997D01*
X173542802Y-120324002D01*
X176725291Y-120324002D01*
X176735726Y-120334437D01*
X176905244Y-120447705D01*
X177093602Y-120525726D01*
X177293561Y-120565500D01*
X177497439Y-120565500D01*
X177697398Y-120525726D01*
X177885756Y-120447705D01*
X178055274Y-120334437D01*
X178199437Y-120190274D01*
X178312705Y-120020756D01*
X178390726Y-119832398D01*
X178430500Y-119632439D01*
X178430500Y-119428561D01*
X178390726Y-119228602D01*
X178312705Y-119040244D01*
X178199437Y-118870726D01*
X178055274Y-118726563D01*
X177885756Y-118613295D01*
X177697398Y-118535274D01*
X177497439Y-118495500D01*
X177293561Y-118495500D01*
X177093602Y-118535274D01*
X176905244Y-118613295D01*
X176735726Y-118726563D01*
X176658287Y-118804002D01*
X173265333Y-118804002D01*
X173228000Y-118800325D01*
X173190667Y-118804002D01*
X173079014Y-118814999D01*
X172935753Y-118858456D01*
X172803724Y-118929028D01*
X172687999Y-119024001D01*
X172664201Y-119052999D01*
X172434956Y-119282245D01*
X172363774Y-119211063D01*
X172194256Y-119097795D01*
X172005898Y-119019774D01*
X171805939Y-118980000D01*
X171602061Y-118980000D01*
X171402102Y-119019774D01*
X171213744Y-119097795D01*
X171044226Y-119211063D01*
X170900063Y-119355226D01*
X170786795Y-119524744D01*
X170708774Y-119713102D01*
X170669000Y-119913061D01*
X170669000Y-119975198D01*
X169427209Y-121216990D01*
X151482333Y-121216990D01*
X151445010Y-121213314D01*
X151407687Y-121216990D01*
X151407677Y-121216990D01*
X151296024Y-121227987D01*
X151152763Y-121271444D01*
X151020733Y-121342016D01*
X150937093Y-121410658D01*
X150905009Y-121436989D01*
X150881211Y-121465987D01*
X150431848Y-121915351D01*
X150233302Y-121809226D01*
X149859128Y-121695722D01*
X149470000Y-121657396D01*
X149080873Y-121695722D01*
X148706699Y-121809226D01*
X148361858Y-121993547D01*
X148059603Y-122241602D01*
X147811547Y-122543857D01*
X147705010Y-122743174D01*
X147705010Y-120164333D01*
X147708686Y-120127010D01*
X147705010Y-120089687D01*
X147705010Y-120089677D01*
X147694013Y-119978024D01*
X147650556Y-119834763D01*
X147579984Y-119702734D01*
X147485011Y-119587009D01*
X147456013Y-119563211D01*
X147181510Y-119288708D01*
X147226278Y-119141128D01*
X147255000Y-118849510D01*
X147255000Y-118054491D01*
X147255000Y-118054490D01*
X147485000Y-118054490D01*
X147485000Y-118849509D01*
X147513722Y-119141127D01*
X147627226Y-119515301D01*
X147811547Y-119860143D01*
X148059602Y-120162398D01*
X148361857Y-120410453D01*
X148706698Y-120594774D01*
X149080872Y-120708278D01*
X149470000Y-120746604D01*
X149859127Y-120708278D01*
X150233301Y-120594774D01*
X150578143Y-120410453D01*
X150880398Y-120162398D01*
X151128453Y-119860143D01*
X151312774Y-119515302D01*
X151426278Y-119141128D01*
X151455000Y-118849510D01*
X151455000Y-118054491D01*
X151455000Y-118054490D01*
X151685000Y-118054490D01*
X151685000Y-118849509D01*
X151713722Y-119141127D01*
X151827226Y-119515301D01*
X152011547Y-119860143D01*
X152259602Y-120162398D01*
X152561857Y-120410453D01*
X152906698Y-120594774D01*
X153280872Y-120708278D01*
X153670000Y-120746604D01*
X154059127Y-120708278D01*
X154433301Y-120594774D01*
X154778143Y-120410453D01*
X155080398Y-120162398D01*
X155328453Y-119860143D01*
X155512774Y-119515302D01*
X155626278Y-119141128D01*
X155655000Y-118849510D01*
X155655000Y-118054491D01*
X155626278Y-117762873D01*
X155512774Y-117388698D01*
X155328453Y-117043857D01*
X155080398Y-116741602D01*
X154778143Y-116493547D01*
X154433302Y-116309226D01*
X154059128Y-116195722D01*
X153670000Y-116157396D01*
X153280873Y-116195722D01*
X152906699Y-116309226D01*
X152561858Y-116493547D01*
X152259603Y-116741602D01*
X152011547Y-117043857D01*
X151827226Y-117388698D01*
X151713722Y-117762872D01*
X151685000Y-118054490D01*
X151455000Y-118054490D01*
X151426278Y-117762873D01*
X151312774Y-117388698D01*
X151128453Y-117043857D01*
X150880398Y-116741602D01*
X150578143Y-116493547D01*
X150233302Y-116309226D01*
X149859128Y-116195722D01*
X149470000Y-116157396D01*
X149080873Y-116195722D01*
X148706699Y-116309226D01*
X148361858Y-116493547D01*
X148059603Y-116741602D01*
X147811547Y-117043857D01*
X147627226Y-117388698D01*
X147513722Y-117762872D01*
X147485000Y-118054490D01*
X147255000Y-118054490D01*
X147226278Y-117762873D01*
X147112774Y-117388698D01*
X146928453Y-117043857D01*
X146680398Y-116741602D01*
X146378143Y-116493547D01*
X146033302Y-116309226D01*
X145659128Y-116195722D01*
X145270000Y-116157396D01*
X144880873Y-116195722D01*
X144506699Y-116309226D01*
X144161858Y-116493547D01*
X143859603Y-116741602D01*
X143611547Y-117043857D01*
X143427226Y-117388698D01*
X143313722Y-117762872D01*
X143285000Y-118054490D01*
X143285000Y-118849509D01*
X143313722Y-119141127D01*
X143427226Y-119515301D01*
X143611547Y-119860143D01*
X143859602Y-120162398D01*
X144161857Y-120410453D01*
X144506698Y-120594774D01*
X144880872Y-120708278D01*
X145270000Y-120746604D01*
X145659127Y-120708278D01*
X146033301Y-120594774D01*
X146185011Y-120513684D01*
X146185011Y-121890316D01*
X146033302Y-121809226D01*
X145659128Y-121695722D01*
X145270000Y-121657396D01*
X144880873Y-121695722D01*
X144506699Y-121809226D01*
X144161858Y-121993547D01*
X143859603Y-122241602D01*
X143611547Y-122543857D01*
X143427226Y-122888698D01*
X143313722Y-123262872D01*
X143285000Y-123554490D01*
X143285000Y-123977196D01*
X143055000Y-124207196D01*
X143055000Y-123554491D01*
X143026278Y-123262873D01*
X142912774Y-122888698D01*
X142728453Y-122543857D01*
X142480398Y-122241602D01*
X142178143Y-121993547D01*
X141833302Y-121809226D01*
X141459128Y-121695722D01*
X141070000Y-121657396D01*
X140680873Y-121695722D01*
X140306699Y-121809226D01*
X139961858Y-121993547D01*
X139659603Y-122241602D01*
X139411547Y-122543857D01*
X139227226Y-122888698D01*
X139113722Y-123262872D01*
X139085000Y-123554490D01*
X139085000Y-124349509D01*
X139113722Y-124641127D01*
X139227226Y-125015301D01*
X139411547Y-125360143D01*
X139659602Y-125662398D01*
X139961857Y-125910453D01*
X140306698Y-126094774D01*
X140680872Y-126208278D01*
X141020471Y-126241726D01*
X138825997Y-128436200D01*
X138796999Y-128459998D01*
X138773201Y-128488996D01*
X138773200Y-128488997D01*
X138732531Y-128538552D01*
X138663514Y-128303329D01*
X138408004Y-128182429D01*
X138133816Y-128113700D01*
X137851488Y-128099783D01*
X137571870Y-128141213D01*
X137305708Y-128236397D01*
X137180486Y-128303329D01*
X137108903Y-128547298D01*
X137922000Y-129360395D01*
X137936143Y-129346253D01*
X138115748Y-129525858D01*
X138101605Y-129540000D01*
X138115748Y-129554143D01*
X137936143Y-129733748D01*
X137922000Y-129719605D01*
X137108903Y-130532702D01*
X137180486Y-130776671D01*
X137435996Y-130897571D01*
X137710184Y-130966300D01*
X137992512Y-130980217D01*
X138272130Y-130938787D01*
X138538292Y-130843603D01*
X138663514Y-130776671D01*
X138732531Y-130541448D01*
X138796998Y-130620002D01*
X138826001Y-130643804D01*
X139358199Y-131176003D01*
X139381998Y-131205002D01*
X139410996Y-131228800D01*
X139497722Y-131299975D01*
X139578330Y-131343061D01*
X139629752Y-131370547D01*
X139773013Y-131414004D01*
X139884666Y-131425001D01*
X139884676Y-131425001D01*
X139921999Y-131428677D01*
X139959322Y-131425001D01*
X141018200Y-131425001D01*
X145746990Y-136153792D01*
X145746989Y-141835207D01*
X143916796Y-143665400D01*
X143916759Y-143665363D01*
X143681727Y-143508320D01*
X143420574Y-143400147D01*
X143143335Y-143345000D01*
X142860665Y-143345000D01*
X142583426Y-143400147D01*
X142322273Y-143508320D01*
X142087241Y-143665363D01*
X141887363Y-143865241D01*
X141732000Y-144097759D01*
X141576637Y-143865241D01*
X141376759Y-143665363D01*
X141141727Y-143508320D01*
X140880574Y-143400147D01*
X140603335Y-143345000D01*
X140320665Y-143345000D01*
X140043426Y-143400147D01*
X139782273Y-143508320D01*
X139547241Y-143665363D01*
X139347363Y-143865241D01*
X139192000Y-144097759D01*
X139036637Y-143865241D01*
X138836759Y-143665363D01*
X138601727Y-143508320D01*
X138340574Y-143400147D01*
X138063335Y-143345000D01*
X137780665Y-143345000D01*
X137503426Y-143400147D01*
X137242273Y-143508320D01*
X137007241Y-143665363D01*
X136808643Y-143863961D01*
X136807812Y-143855518D01*
X136771502Y-143735820D01*
X136712537Y-143625506D01*
X136633185Y-143528815D01*
X136536494Y-143449463D01*
X136426180Y-143390498D01*
X136306482Y-143354188D01*
X136182000Y-143341928D01*
X135667750Y-143345000D01*
X135509000Y-143503750D01*
X135255000Y-143503750D01*
X135096250Y-143345000D01*
X134582000Y-143341928D01*
X134457518Y-143354188D01*
X134337820Y-143390498D01*
X134227506Y-143449463D01*
X134130815Y-143528815D01*
X134051463Y-143625506D01*
X133992498Y-143735820D01*
X133956188Y-143855518D01*
X133943928Y-143980000D01*
X127660000Y-143980000D01*
X127660000Y-129398665D01*
X133947000Y-129398665D01*
X133947000Y-129681335D01*
X134002147Y-129958574D01*
X134110320Y-130219727D01*
X134267363Y-130454759D01*
X134467241Y-130654637D01*
X134702273Y-130811680D01*
X134963426Y-130919853D01*
X135240665Y-130975000D01*
X135523335Y-130975000D01*
X135800574Y-130919853D01*
X136061727Y-130811680D01*
X136296759Y-130654637D01*
X136496637Y-130454759D01*
X136652915Y-130220872D01*
X136685329Y-130281514D01*
X136929298Y-130353097D01*
X137742395Y-129540000D01*
X136929298Y-128726903D01*
X136685329Y-128798486D01*
X136654806Y-128862992D01*
X136653680Y-128860273D01*
X136496637Y-128625241D01*
X136296759Y-128425363D01*
X136061727Y-128268320D01*
X135800574Y-128160147D01*
X135523335Y-128105000D01*
X135240665Y-128105000D01*
X134963426Y-128160147D01*
X134702273Y-128268320D01*
X134467241Y-128425363D01*
X134267363Y-128625241D01*
X134110320Y-128860273D01*
X134002147Y-129121426D01*
X133947000Y-129398665D01*
X127660000Y-129398665D01*
X127660000Y-123554490D01*
X134885000Y-123554490D01*
X134885000Y-124349509D01*
X134913722Y-124641127D01*
X135027226Y-125015301D01*
X135211547Y-125360143D01*
X135459602Y-125662398D01*
X135761857Y-125910453D01*
X136106698Y-126094774D01*
X136480872Y-126208278D01*
X136870000Y-126246604D01*
X137259127Y-126208278D01*
X137633301Y-126094774D01*
X137978143Y-125910453D01*
X138280398Y-125662398D01*
X138528453Y-125360143D01*
X138712774Y-125015302D01*
X138826278Y-124641128D01*
X138855000Y-124349510D01*
X138855000Y-123554491D01*
X138826278Y-123262873D01*
X138712774Y-122888698D01*
X138528453Y-122543857D01*
X138280398Y-122241602D01*
X137978143Y-121993547D01*
X137633302Y-121809226D01*
X137259128Y-121695722D01*
X136870000Y-121657396D01*
X136480873Y-121695722D01*
X136106699Y-121809226D01*
X135761858Y-121993547D01*
X135459603Y-122241602D01*
X135211547Y-122543857D01*
X135027226Y-122888698D01*
X134913722Y-123262872D01*
X134885000Y-123554490D01*
X127660000Y-123554490D01*
X127660000Y-116941313D01*
X127765943Y-117197082D01*
X128141862Y-117759685D01*
X128620315Y-118238138D01*
X129182918Y-118614057D01*
X129808048Y-118872994D01*
X130471682Y-119005000D01*
X131148318Y-119005000D01*
X131811952Y-118872994D01*
X132437082Y-118614057D01*
X132489548Y-118579000D01*
X134885000Y-118579000D01*
X134885000Y-118879000D01*
X134947918Y-119263814D01*
X135084700Y-119628959D01*
X135290090Y-119960403D01*
X135556195Y-120245409D01*
X135872789Y-120473024D01*
X136227705Y-120634501D01*
X136434677Y-120688677D01*
X136743000Y-120573829D01*
X136743000Y-118579000D01*
X136997000Y-118579000D01*
X136997000Y-120573829D01*
X137305323Y-120688677D01*
X137512295Y-120634501D01*
X137867211Y-120473024D01*
X138183805Y-120245409D01*
X138449910Y-119960403D01*
X138655300Y-119628959D01*
X138792082Y-119263814D01*
X138855000Y-118879000D01*
X138855000Y-118579000D01*
X136997000Y-118579000D01*
X136743000Y-118579000D01*
X134885000Y-118579000D01*
X132489548Y-118579000D01*
X132999685Y-118238138D01*
X133212823Y-118025000D01*
X134885000Y-118025000D01*
X134885000Y-118325000D01*
X136743000Y-118325000D01*
X136743000Y-116330171D01*
X136997000Y-116330171D01*
X136997000Y-118325000D01*
X138855000Y-118325000D01*
X138855000Y-118054490D01*
X139085000Y-118054490D01*
X139085000Y-118849509D01*
X139113722Y-119141127D01*
X139227226Y-119515301D01*
X139411547Y-119860143D01*
X139659602Y-120162398D01*
X139961857Y-120410453D01*
X140306698Y-120594774D01*
X140680872Y-120708278D01*
X141070000Y-120746604D01*
X141459127Y-120708278D01*
X141833301Y-120594774D01*
X142178143Y-120410453D01*
X142480398Y-120162398D01*
X142728453Y-119860143D01*
X142912774Y-119515302D01*
X143026278Y-119141128D01*
X143055000Y-118849510D01*
X143055000Y-118054491D01*
X143026278Y-117762873D01*
X142912774Y-117388698D01*
X142728453Y-117043857D01*
X142480398Y-116741602D01*
X142178143Y-116493547D01*
X141833302Y-116309226D01*
X141459128Y-116195722D01*
X141070000Y-116157396D01*
X140680873Y-116195722D01*
X140306699Y-116309226D01*
X139961858Y-116493547D01*
X139659603Y-116741602D01*
X139411547Y-117043857D01*
X139227226Y-117388698D01*
X139113722Y-117762872D01*
X139085000Y-118054490D01*
X138855000Y-118054490D01*
X138855000Y-118025000D01*
X138792082Y-117640186D01*
X138655300Y-117275041D01*
X138449910Y-116943597D01*
X138183805Y-116658591D01*
X137867211Y-116430976D01*
X137512295Y-116269499D01*
X137305323Y-116215323D01*
X136997000Y-116330171D01*
X136743000Y-116330171D01*
X136434677Y-116215323D01*
X136227705Y-116269499D01*
X135872789Y-116430976D01*
X135556195Y-116658591D01*
X135290090Y-116943597D01*
X135084700Y-117275041D01*
X134947918Y-117640186D01*
X134885000Y-118025000D01*
X133212823Y-118025000D01*
X133478138Y-117759685D01*
X133854057Y-117197082D01*
X134112994Y-116571952D01*
X134245000Y-115908318D01*
X134245000Y-115231682D01*
X134112994Y-114568048D01*
X133854057Y-113942918D01*
X133478138Y-113380315D01*
X132999685Y-112901862D01*
X132437082Y-112525943D01*
X132181313Y-112420000D01*
X215798687Y-112420000D01*
X215542918Y-112525943D01*
%TA.AperFunction,Conductor*%
D19*
G36*
X215542918Y-112525943D02*
G01*
X214980315Y-112901862D01*
X214501862Y-113380315D01*
X214125943Y-113942918D01*
X213867006Y-114568048D01*
X213735000Y-115231682D01*
X213735000Y-115908318D01*
X213867006Y-116571952D01*
X214125943Y-117197082D01*
X214501862Y-117759685D01*
X214980315Y-118238138D01*
X215542918Y-118614057D01*
X216168048Y-118872994D01*
X216831682Y-119005000D01*
X217508318Y-119005000D01*
X218171952Y-118872994D01*
X218797082Y-118614057D01*
X219359685Y-118238138D01*
X219838138Y-117759685D01*
X220214057Y-117197082D01*
X220320001Y-116941310D01*
X220320000Y-157378687D01*
X220214057Y-157122918D01*
X219838138Y-156560315D01*
X219359685Y-156081862D01*
X218797082Y-155705943D01*
X218171952Y-155447006D01*
X217508318Y-155315000D01*
X216831682Y-155315000D01*
X216168048Y-155447006D01*
X215542918Y-155705943D01*
X214980315Y-156081862D01*
X214501862Y-156560315D01*
X214125943Y-157122918D01*
X213867006Y-157748048D01*
X213735000Y-158411682D01*
X213735000Y-159088318D01*
X213867006Y-159751952D01*
X214125943Y-160377082D01*
X214501862Y-160939685D01*
X214980315Y-161418138D01*
X215542918Y-161794057D01*
X215798687Y-161900000D01*
X132181313Y-161900000D01*
X132437082Y-161794057D01*
X132999685Y-161418138D01*
X133478138Y-160939685D01*
X133854057Y-160377082D01*
X134112994Y-159751952D01*
X134245000Y-159088318D01*
X134245000Y-158411682D01*
X134112994Y-157748048D01*
X133854057Y-157122918D01*
X133478138Y-156560315D01*
X132999685Y-156081862D01*
X132976680Y-156066490D01*
X143167000Y-156066490D01*
X143167000Y-156861509D01*
X143195722Y-157153127D01*
X143309226Y-157527301D01*
X143493547Y-157872143D01*
X143741602Y-158174398D01*
X144043857Y-158422453D01*
X144388698Y-158606774D01*
X144762872Y-158720278D01*
X145152000Y-158758604D01*
X145541127Y-158720278D01*
X145915301Y-158606774D01*
X146260143Y-158422453D01*
X146562398Y-158174398D01*
X146611965Y-158114000D01*
X147363928Y-158114000D01*
X147376188Y-158238482D01*
X147412498Y-158358180D01*
X147471463Y-158468494D01*
X147550815Y-158565185D01*
X147647506Y-158644537D01*
X147757820Y-158703502D01*
X147877518Y-158739812D01*
X148002000Y-158752072D01*
X149066250Y-158749000D01*
X149225000Y-158590250D01*
X149225000Y-156591000D01*
X149479000Y-156591000D01*
X149479000Y-158590250D01*
X149637750Y-158749000D01*
X150702000Y-158752072D01*
X150826482Y-158739812D01*
X150946180Y-158703502D01*
X151056494Y-158644537D01*
X151153185Y-158565185D01*
X151232537Y-158468494D01*
X151291502Y-158358180D01*
X151327812Y-158238482D01*
X151340072Y-158114000D01*
X151337000Y-156749750D01*
X151178250Y-156591000D01*
X149479000Y-156591000D01*
X149225000Y-156591000D01*
X147525750Y-156591000D01*
X147367000Y-156749750D01*
X147363928Y-158114000D01*
X146611965Y-158114000D01*
X146810453Y-157872143D01*
X146994774Y-157527302D01*
X147108278Y-157153128D01*
X147137000Y-156861510D01*
X147137000Y-156066491D01*
X147108278Y-155774873D01*
X146994774Y-155400698D01*
X146810453Y-155055857D01*
X146611966Y-154814000D01*
X147363928Y-154814000D01*
X147367000Y-156178250D01*
X147525750Y-156337000D01*
X149225000Y-156337000D01*
X149225000Y-154337750D01*
X149479000Y-154337750D01*
X149479000Y-156337000D01*
X151178250Y-156337000D01*
X151337000Y-156178250D01*
X151337251Y-156066490D01*
X156375000Y-156066490D01*
X156375000Y-156861509D01*
X156403722Y-157153127D01*
X156517226Y-157527301D01*
X156701547Y-157872143D01*
X156949602Y-158174398D01*
X157251857Y-158422453D01*
X157596698Y-158606774D01*
X157970872Y-158720278D01*
X158360000Y-158758604D01*
X158749127Y-158720278D01*
X159123301Y-158606774D01*
X159468143Y-158422453D01*
X159770398Y-158174398D01*
X159819965Y-158114000D01*
X160571928Y-158114000D01*
X160584188Y-158238482D01*
X160620498Y-158358180D01*
X160679463Y-158468494D01*
X160758815Y-158565185D01*
X160855506Y-158644537D01*
X160965820Y-158703502D01*
X161085518Y-158739812D01*
X161210000Y-158752072D01*
X162274250Y-158749000D01*
X162433000Y-158590250D01*
X162433000Y-156591000D01*
X162687000Y-156591000D01*
X162687000Y-158590250D01*
X162845750Y-158749000D01*
X163910000Y-158752072D01*
X164034482Y-158739812D01*
X164154180Y-158703502D01*
X164264494Y-158644537D01*
X164361185Y-158565185D01*
X164440537Y-158468494D01*
X164499502Y-158358180D01*
X164535812Y-158238482D01*
X164548072Y-158114000D01*
X164545000Y-156749750D01*
X164386250Y-156591000D01*
X162687000Y-156591000D01*
X162433000Y-156591000D01*
X160733750Y-156591000D01*
X160575000Y-156749750D01*
X160571928Y-158114000D01*
X159819965Y-158114000D01*
X160018453Y-157872143D01*
X160202774Y-157527302D01*
X160316278Y-157153128D01*
X160345000Y-156861510D01*
X160345000Y-156066491D01*
X160316278Y-155774873D01*
X160202774Y-155400698D01*
X160018453Y-155055857D01*
X159819966Y-154814000D01*
X160571928Y-154814000D01*
X160575000Y-156178250D01*
X160733750Y-156337000D01*
X162433000Y-156337000D01*
X162433000Y-154337750D01*
X162687000Y-154337750D01*
X162687000Y-156337000D01*
X164386250Y-156337000D01*
X164545000Y-156178250D01*
X164545449Y-155978491D01*
X169465000Y-155978491D01*
X169465000Y-156773510D01*
X169493722Y-157065128D01*
X169607226Y-157439302D01*
X169791547Y-157784143D01*
X170039603Y-158086398D01*
X170341858Y-158334453D01*
X170686699Y-158518774D01*
X171060873Y-158632278D01*
X171450000Y-158670604D01*
X171839128Y-158632278D01*
X172213302Y-158518774D01*
X172558143Y-158334453D01*
X172860398Y-158086398D01*
X173108453Y-157784143D01*
X173292774Y-157439302D01*
X173406278Y-157065127D01*
X173435000Y-156773509D01*
X173435000Y-155978491D01*
X173665000Y-155978491D01*
X173665000Y-156773510D01*
X173693722Y-157065128D01*
X173807226Y-157439302D01*
X173991547Y-157784143D01*
X174239603Y-158086398D01*
X174541858Y-158334453D01*
X174886699Y-158518774D01*
X175260873Y-158632278D01*
X175650000Y-158670604D01*
X176039128Y-158632278D01*
X176413302Y-158518774D01*
X176758143Y-158334453D01*
X177060398Y-158086398D01*
X177308453Y-157784143D01*
X177492774Y-157439302D01*
X177606278Y-157065127D01*
X177635000Y-156773509D01*
X177635000Y-155978491D01*
X177865000Y-155978491D01*
X177865000Y-156773510D01*
X177893722Y-157065128D01*
X178007226Y-157439302D01*
X178191547Y-157784143D01*
X178439603Y-158086398D01*
X178741858Y-158334453D01*
X179086699Y-158518774D01*
X179460873Y-158632278D01*
X179850000Y-158670604D01*
X180239128Y-158632278D01*
X180613302Y-158518774D01*
X180958143Y-158334453D01*
X181260398Y-158086398D01*
X181508453Y-157784143D01*
X181692774Y-157439302D01*
X181806278Y-157065127D01*
X181835000Y-156773509D01*
X181835000Y-155978490D01*
X181806278Y-155686872D01*
X181692774Y-155312698D01*
X181508453Y-154967857D01*
X181260398Y-154665602D01*
X180958143Y-154417547D01*
X180613301Y-154233226D01*
X180239127Y-154119722D01*
X179850000Y-154081396D01*
X179460872Y-154119722D01*
X179086698Y-154233226D01*
X178741857Y-154417547D01*
X178439602Y-154665602D01*
X178191547Y-154967857D01*
X178007226Y-155312699D01*
X177893722Y-155686873D01*
X177865000Y-155978491D01*
X177635000Y-155978491D01*
X177635000Y-155978490D01*
X177606278Y-155686872D01*
X177492774Y-155312698D01*
X177308453Y-154967857D01*
X177060398Y-154665602D01*
X176758143Y-154417547D01*
X176413301Y-154233226D01*
X176039127Y-154119722D01*
X175650000Y-154081396D01*
X175260872Y-154119722D01*
X174886698Y-154233226D01*
X174541857Y-154417547D01*
X174239602Y-154665602D01*
X173991547Y-154967857D01*
X173807226Y-155312699D01*
X173693722Y-155686873D01*
X173665000Y-155978491D01*
X173435000Y-155978491D01*
X173435000Y-155978490D01*
X173406278Y-155686872D01*
X173292774Y-155312698D01*
X173108453Y-154967857D01*
X172860398Y-154665602D01*
X172558143Y-154417547D01*
X172213301Y-154233226D01*
X171839127Y-154119722D01*
X171450000Y-154081396D01*
X171060872Y-154119722D01*
X170686698Y-154233226D01*
X170341857Y-154417547D01*
X170039602Y-154665602D01*
X169791547Y-154967857D01*
X169607226Y-155312699D01*
X169493722Y-155686873D01*
X169465000Y-155978491D01*
X164545449Y-155978491D01*
X164548072Y-154814000D01*
X164535812Y-154689518D01*
X164499502Y-154569820D01*
X164440537Y-154459506D01*
X164361185Y-154362815D01*
X164264494Y-154283463D01*
X164154180Y-154224498D01*
X164034482Y-154188188D01*
X163910000Y-154175928D01*
X162845750Y-154179000D01*
X162687000Y-154337750D01*
X162433000Y-154337750D01*
X162274250Y-154179000D01*
X161210000Y-154175928D01*
X161085518Y-154188188D01*
X160965820Y-154224498D01*
X160855506Y-154283463D01*
X160758815Y-154362815D01*
X160679463Y-154459506D01*
X160620498Y-154569820D01*
X160584188Y-154689518D01*
X160571928Y-154814000D01*
X159819966Y-154814000D01*
X159770398Y-154753602D01*
X159468143Y-154505547D01*
X159123302Y-154321226D01*
X158749128Y-154207722D01*
X158360000Y-154169396D01*
X157970873Y-154207722D01*
X157596699Y-154321226D01*
X157251858Y-154505547D01*
X156949603Y-154753602D01*
X156701547Y-155055857D01*
X156517226Y-155400698D01*
X156403722Y-155774872D01*
X156375000Y-156066490D01*
X151337251Y-156066490D01*
X151340072Y-154814000D01*
X151327812Y-154689518D01*
X151291502Y-154569820D01*
X151232537Y-154459506D01*
X151153185Y-154362815D01*
X151056494Y-154283463D01*
X150946180Y-154224498D01*
X150826482Y-154188188D01*
X150702000Y-154175928D01*
X149637750Y-154179000D01*
X149479000Y-154337750D01*
X149225000Y-154337750D01*
X149066250Y-154179000D01*
X148002000Y-154175928D01*
X147877518Y-154188188D01*
X147757820Y-154224498D01*
X147647506Y-154283463D01*
X147550815Y-154362815D01*
X147471463Y-154459506D01*
X147412498Y-154569820D01*
X147376188Y-154689518D01*
X147363928Y-154814000D01*
X146611966Y-154814000D01*
X146562398Y-154753602D01*
X146260143Y-154505547D01*
X145915302Y-154321226D01*
X145541128Y-154207722D01*
X145152000Y-154169396D01*
X144762873Y-154207722D01*
X144388699Y-154321226D01*
X144043858Y-154505547D01*
X143741603Y-154753602D01*
X143493547Y-155055857D01*
X143309226Y-155400698D01*
X143195722Y-155774872D01*
X143167000Y-156066490D01*
X132976680Y-156066490D01*
X132437082Y-155705943D01*
X131811952Y-155447006D01*
X131148318Y-155315000D01*
X130471682Y-155315000D01*
X129808048Y-155447006D01*
X129182918Y-155705943D01*
X128620315Y-156081862D01*
X128141862Y-156560315D01*
X127765943Y-157122918D01*
X127660000Y-157378687D01*
X127660000Y-150566490D01*
X143167000Y-150566490D01*
X143167000Y-151361509D01*
X143195722Y-151653127D01*
X143309226Y-152027301D01*
X143493547Y-152372143D01*
X143741602Y-152674398D01*
X144043857Y-152922453D01*
X144388698Y-153106774D01*
X144762872Y-153220278D01*
X145152000Y-153258604D01*
X145541127Y-153220278D01*
X145915301Y-153106774D01*
X146260143Y-152922453D01*
X146562398Y-152674398D01*
X146810453Y-152372143D01*
X146994774Y-152027302D01*
X147108278Y-151653128D01*
X147137000Y-151361510D01*
X147137000Y-150566491D01*
X147137000Y-150566490D01*
X147367000Y-150566490D01*
X147367000Y-151361509D01*
X147395722Y-151653127D01*
X147509226Y-152027301D01*
X147693547Y-152372143D01*
X147941602Y-152674398D01*
X148243857Y-152922453D01*
X148588698Y-153106774D01*
X148962872Y-153220278D01*
X149352000Y-153258604D01*
X149741127Y-153220278D01*
X150115301Y-153106774D01*
X150460143Y-152922453D01*
X150762398Y-152674398D01*
X151010453Y-152372143D01*
X151194774Y-152027302D01*
X151308278Y-151653128D01*
X151337000Y-151361510D01*
X151337000Y-150566491D01*
X151337000Y-150566490D01*
X156375000Y-150566490D01*
X156375000Y-151361509D01*
X156403722Y-151653127D01*
X156517226Y-152027301D01*
X156701547Y-152372143D01*
X156949602Y-152674398D01*
X157251857Y-152922453D01*
X157596698Y-153106774D01*
X157970872Y-153220278D01*
X158360000Y-153258604D01*
X158749127Y-153220278D01*
X159123301Y-153106774D01*
X159468143Y-152922453D01*
X159770398Y-152674398D01*
X160018453Y-152372143D01*
X160202774Y-152027302D01*
X160316278Y-151653128D01*
X160345000Y-151361510D01*
X160345000Y-150566491D01*
X160345000Y-150566490D01*
X160575000Y-150566490D01*
X160575000Y-151361509D01*
X160603722Y-151653127D01*
X160717226Y-152027301D01*
X160901547Y-152372143D01*
X161149602Y-152674398D01*
X161451857Y-152922453D01*
X161796698Y-153106774D01*
X162170872Y-153220278D01*
X162560000Y-153258604D01*
X162949127Y-153220278D01*
X163323301Y-153106774D01*
X163668143Y-152922453D01*
X163970398Y-152674398D01*
X164218453Y-152372143D01*
X164402774Y-152027302D01*
X164516278Y-151653128D01*
X164545000Y-151361510D01*
X164545000Y-150566491D01*
X164516278Y-150274873D01*
X164402774Y-149900698D01*
X164218453Y-149555857D01*
X164152917Y-149476001D01*
X169461928Y-149476001D01*
X169461928Y-152275999D01*
X169478992Y-152449253D01*
X169529529Y-152615850D01*
X169611595Y-152769386D01*
X169722039Y-152903961D01*
X169856614Y-153014405D01*
X170010150Y-153096471D01*
X170176747Y-153147008D01*
X170350001Y-153164072D01*
X172549999Y-153164072D01*
X172723253Y-153147008D01*
X172889850Y-153096471D01*
X173043386Y-153014405D01*
X173177961Y-152903961D01*
X173288405Y-152769386D01*
X173370471Y-152615850D01*
X173421008Y-152449253D01*
X173438072Y-152275999D01*
X173438072Y-151003000D01*
X173665000Y-151003000D01*
X173665000Y-151303000D01*
X173727918Y-151687814D01*
X173864700Y-152052959D01*
X174070090Y-152384403D01*
X174336195Y-152669409D01*
X174652789Y-152897024D01*
X175007705Y-153058501D01*
X175214677Y-153112677D01*
X175523000Y-152997829D01*
X175523000Y-151003000D01*
X175777000Y-151003000D01*
X175777000Y-152997829D01*
X176085323Y-153112677D01*
X176292295Y-153058501D01*
X176647211Y-152897024D01*
X176963805Y-152669409D01*
X177229910Y-152384403D01*
X177435300Y-152052959D01*
X177572082Y-151687814D01*
X177635000Y-151303000D01*
X177635000Y-151003000D01*
X177865000Y-151003000D01*
X177865000Y-151303000D01*
X177927918Y-151687814D01*
X178064700Y-152052959D01*
X178270090Y-152384403D01*
X178536195Y-152669409D01*
X178852789Y-152897024D01*
X179207705Y-153058501D01*
X179414677Y-153112677D01*
X179723000Y-152997829D01*
X179723000Y-151003000D01*
X177865000Y-151003000D01*
X177635000Y-151003000D01*
X175777000Y-151003000D01*
X175523000Y-151003000D01*
X173665000Y-151003000D01*
X173438072Y-151003000D01*
X173438072Y-150449000D01*
X173665000Y-150449000D01*
X173665000Y-150749000D01*
X175523000Y-150749000D01*
X175523000Y-148754171D01*
X175777000Y-148754171D01*
X175777000Y-150749000D01*
X177635000Y-150749000D01*
X177635000Y-150449000D01*
X177865000Y-150449000D01*
X177865000Y-150749000D01*
X179723000Y-150749000D01*
X179723000Y-148754171D01*
X179414677Y-148639323D01*
X179207705Y-148693499D01*
X178852789Y-148854976D01*
X178536195Y-149082591D01*
X178270090Y-149367597D01*
X178064700Y-149699041D01*
X177927918Y-150064186D01*
X177865000Y-150449000D01*
X177635000Y-150449000D01*
X177572082Y-150064186D01*
X177435300Y-149699041D01*
X177229910Y-149367597D01*
X176963805Y-149082591D01*
X176647211Y-148854976D01*
X176292295Y-148693499D01*
X176085323Y-148639323D01*
X175777000Y-148754171D01*
X175523000Y-148754171D01*
X175214677Y-148639323D01*
X175007705Y-148693499D01*
X174652789Y-148854976D01*
X174336195Y-149082591D01*
X174070090Y-149367597D01*
X173864700Y-149699041D01*
X173727918Y-150064186D01*
X173665000Y-150449000D01*
X173438072Y-150449000D01*
X173438072Y-149476001D01*
X173421008Y-149302747D01*
X173370471Y-149136150D01*
X173288405Y-148982614D01*
X173177961Y-148848039D01*
X173043386Y-148737595D01*
X172889850Y-148655529D01*
X172723253Y-148604992D01*
X172549999Y-148587928D01*
X170350001Y-148587928D01*
X170176747Y-148604992D01*
X170010150Y-148655529D01*
X169856614Y-148737595D01*
X169722039Y-148848039D01*
X169611595Y-148982614D01*
X169529529Y-149136150D01*
X169478992Y-149302747D01*
X169461928Y-149476001D01*
X164152917Y-149476001D01*
X163970398Y-149253602D01*
X163668143Y-149005547D01*
X163323302Y-148821226D01*
X162949128Y-148707722D01*
X162560000Y-148669396D01*
X162170873Y-148707722D01*
X161796699Y-148821226D01*
X161451858Y-149005547D01*
X161149603Y-149253602D01*
X160901547Y-149555857D01*
X160717226Y-149900698D01*
X160603722Y-150274872D01*
X160575000Y-150566490D01*
X160345000Y-150566490D01*
X160316278Y-150274873D01*
X160202774Y-149900698D01*
X160018453Y-149555857D01*
X159770398Y-149253602D01*
X159468143Y-149005547D01*
X159123302Y-148821226D01*
X158749128Y-148707722D01*
X158360000Y-148669396D01*
X157970873Y-148707722D01*
X157596699Y-148821226D01*
X157251858Y-149005547D01*
X156949603Y-149253602D01*
X156701547Y-149555857D01*
X156517226Y-149900698D01*
X156403722Y-150274872D01*
X156375000Y-150566490D01*
X151337000Y-150566490D01*
X151308278Y-150274873D01*
X151194774Y-149900698D01*
X151010453Y-149555857D01*
X150762398Y-149253602D01*
X150460143Y-149005547D01*
X150115302Y-148821226D01*
X149741128Y-148707722D01*
X149352000Y-148669396D01*
X148962873Y-148707722D01*
X148588699Y-148821226D01*
X148243858Y-149005547D01*
X147941603Y-149253602D01*
X147693547Y-149555857D01*
X147509226Y-149900698D01*
X147395722Y-150274872D01*
X147367000Y-150566490D01*
X147137000Y-150566490D01*
X147108278Y-150274873D01*
X146994774Y-149900698D01*
X146810453Y-149555857D01*
X146562398Y-149253602D01*
X146260143Y-149005547D01*
X145915302Y-148821226D01*
X145541128Y-148707722D01*
X145152000Y-148669396D01*
X144762873Y-148707722D01*
X144388699Y-148821226D01*
X144043858Y-149005547D01*
X143741603Y-149253602D01*
X143493547Y-149555857D01*
X143309226Y-149900698D01*
X143195722Y-150274872D01*
X143167000Y-150566490D01*
X127660000Y-150566490D01*
X127660000Y-145580000D01*
X133943928Y-145580000D01*
X133956188Y-145704482D01*
X133992498Y-145824180D01*
X134051463Y-145934494D01*
X134130815Y-146031185D01*
X134227506Y-146110537D01*
X134337820Y-146169502D01*
X134457518Y-146205812D01*
X134582000Y-146218072D01*
X135096250Y-146215000D01*
X135255000Y-146056250D01*
X135255000Y-144907000D01*
X134105750Y-144907000D01*
X133947000Y-145065750D01*
X133943928Y-145580000D01*
X127660000Y-145580000D01*
X127660000Y-143980000D01*
X133943928Y-143980000D01*
X133947000Y-144494250D01*
X134105750Y-144653000D01*
X135255000Y-144653000D01*
X135255000Y-143503750D01*
X135509000Y-143503750D01*
X135509000Y-144653000D01*
X135529000Y-144653000D01*
X135529000Y-144907000D01*
X135509000Y-144907000D01*
X135509000Y-146056250D01*
X135667750Y-146215000D01*
X136182000Y-146218072D01*
X136306482Y-146205812D01*
X136426180Y-146169502D01*
X136536494Y-146110537D01*
X136633185Y-146031185D01*
X136712537Y-145934494D01*
X136771502Y-145824180D01*
X136807812Y-145704482D01*
X136808643Y-145696039D01*
X137007241Y-145894637D01*
X137242273Y-146051680D01*
X137503426Y-146159853D01*
X137780665Y-146215000D01*
X138063335Y-146215000D01*
X138340574Y-146159853D01*
X138601727Y-146051680D01*
X138836759Y-145894637D01*
X139036637Y-145694759D01*
X139192000Y-145462241D01*
X139347363Y-145694759D01*
X139547241Y-145894637D01*
X139782273Y-146051680D01*
X140043426Y-146159853D01*
X140320665Y-146215000D01*
X140603335Y-146215000D01*
X140880574Y-146159853D01*
X141141727Y-146051680D01*
X141376759Y-145894637D01*
X141576637Y-145694759D01*
X141732000Y-145462241D01*
X141887363Y-145694759D01*
X142087241Y-145894637D01*
X142322273Y-146051680D01*
X142583426Y-146159853D01*
X142860665Y-146215000D01*
X143143335Y-146215000D01*
X143420574Y-146159853D01*
X143681727Y-146051680D01*
X143916759Y-145894637D01*
X143916796Y-145894600D01*
X144888210Y-146866014D01*
X144912008Y-146895012D01*
X145027733Y-146989985D01*
X145159762Y-147060557D01*
X145303023Y-147104014D01*
X145414676Y-147115011D01*
X145414685Y-147115011D01*
X145452008Y-147118687D01*
X145489331Y-147115011D01*
X161709667Y-147115011D01*
X161746989Y-147118687D01*
X161784311Y-147115011D01*
X161784322Y-147115011D01*
X161895975Y-147104014D01*
X162039236Y-147060557D01*
X162171265Y-146989985D01*
X162286990Y-146895012D01*
X162310793Y-146866008D01*
X162998114Y-146178688D01*
X163180665Y-146215000D01*
X163463335Y-146215000D01*
X163740574Y-146159853D01*
X164001727Y-146051680D01*
X164236759Y-145894637D01*
X164436637Y-145694759D01*
X164592000Y-145462241D01*
X164747363Y-145694759D01*
X164947241Y-145894637D01*
X165182273Y-146051680D01*
X165443426Y-146159853D01*
X165720665Y-146215000D01*
X166003335Y-146215000D01*
X166280574Y-146159853D01*
X166541727Y-146051680D01*
X166776759Y-145894637D01*
X166976637Y-145694759D01*
X167132000Y-145462241D01*
X167287363Y-145694759D01*
X167487241Y-145894637D01*
X167722273Y-146051680D01*
X167983426Y-146159853D01*
X168260665Y-146215000D01*
X168543335Y-146215000D01*
X168820574Y-146159853D01*
X169081727Y-146051680D01*
X169316759Y-145894637D01*
X169516637Y-145694759D01*
X169673680Y-145459727D01*
X169781853Y-145198574D01*
X169837000Y-144921335D01*
X169837000Y-144638665D01*
X169781853Y-144361426D01*
X169743983Y-144270000D01*
X173032289Y-144270000D01*
X173076226Y-144313937D01*
X173245744Y-144427205D01*
X173434102Y-144505226D01*
X173634061Y-144545000D01*
X173837939Y-144545000D01*
X174037898Y-144505226D01*
X174226256Y-144427205D01*
X174395774Y-144313937D01*
X174539937Y-144169774D01*
X174653205Y-144000256D01*
X174731226Y-143811898D01*
X174771000Y-143611939D01*
X174771000Y-143408061D01*
X174752342Y-143314262D01*
X174776774Y-143297937D01*
X174920937Y-143153774D01*
X175034205Y-142984256D01*
X175112226Y-142795898D01*
X175152000Y-142595939D01*
X175152000Y-142392061D01*
X175112226Y-142192102D01*
X175034205Y-142003744D01*
X174920937Y-141834226D01*
X174776774Y-141690063D01*
X174607256Y-141576795D01*
X174418898Y-141498774D01*
X174218939Y-141459000D01*
X174015061Y-141459000D01*
X173815102Y-141498774D01*
X173626744Y-141576795D01*
X173457226Y-141690063D01*
X173326779Y-141820510D01*
X173254722Y-141859026D01*
X173138997Y-141953999D01*
X173115198Y-141982998D01*
X172798207Y-142299990D01*
X169437000Y-142299990D01*
X169437000Y-142279801D01*
X173288803Y-138428000D01*
X175857678Y-138428000D01*
X175895000Y-138431676D01*
X175932322Y-138428000D01*
X175932333Y-138428000D01*
X176043986Y-138417003D01*
X176187247Y-138373546D01*
X176319276Y-138302974D01*
X176435001Y-138208001D01*
X176458803Y-138178998D01*
X176823801Y-137814000D01*
X176885939Y-137814000D01*
X177085898Y-137774226D01*
X177274256Y-137696205D01*
X177443774Y-137582937D01*
X177587937Y-137438774D01*
X177701205Y-137269256D01*
X177779226Y-137080898D01*
X177818986Y-136881009D01*
X179925313Y-136881009D01*
X179928990Y-136918341D01*
X179928989Y-146109077D01*
X179925313Y-146146399D01*
X179928989Y-146183721D01*
X179928989Y-146183731D01*
X179939986Y-146295384D01*
X179983443Y-146438645D01*
X180054015Y-146570675D01*
X180093860Y-146619225D01*
X180148988Y-146686400D01*
X180177991Y-146710202D01*
X181614991Y-148147204D01*
X181614991Y-149666267D01*
X181429910Y-149367597D01*
X181163805Y-149082591D01*
X180847211Y-148854976D01*
X180492295Y-148693499D01*
X180285323Y-148639323D01*
X179977000Y-148754171D01*
X179977000Y-150749000D01*
X179997000Y-150749000D01*
X179997000Y-151003000D01*
X179977000Y-151003000D01*
X179977000Y-152997829D01*
X180285323Y-153112677D01*
X180492295Y-153058501D01*
X180847211Y-152897024D01*
X181163805Y-152669409D01*
X181429910Y-152384403D01*
X181614990Y-152085733D01*
X181614990Y-154663667D01*
X181611314Y-154700990D01*
X181614990Y-154738312D01*
X181614990Y-154738322D01*
X181625987Y-154849975D01*
X181669444Y-154993236D01*
X181740016Y-155125266D01*
X181779861Y-155173816D01*
X181834989Y-155240991D01*
X181863993Y-155264794D01*
X182138490Y-155539291D01*
X182093722Y-155686873D01*
X182065000Y-155978491D01*
X182065000Y-156773510D01*
X182093722Y-157065128D01*
X182207226Y-157439302D01*
X182391547Y-157784143D01*
X182639603Y-158086398D01*
X182941858Y-158334453D01*
X183286699Y-158518774D01*
X183660873Y-158632278D01*
X184050000Y-158670604D01*
X184439128Y-158632278D01*
X184813302Y-158518774D01*
X185158143Y-158334453D01*
X185460398Y-158086398D01*
X185708453Y-157784143D01*
X185892774Y-157439302D01*
X186006278Y-157065127D01*
X186035000Y-156773509D01*
X186035000Y-155978490D01*
X186006278Y-155686872D01*
X185892774Y-155312698D01*
X185708453Y-154967857D01*
X185460398Y-154665602D01*
X185158143Y-154417547D01*
X184813301Y-154233226D01*
X184439127Y-154119722D01*
X184050000Y-154081396D01*
X183660872Y-154119722D01*
X183286698Y-154233226D01*
X183134990Y-154314315D01*
X183134990Y-152937684D01*
X183286699Y-153018774D01*
X183660873Y-153132278D01*
X184050000Y-153170604D01*
X184439128Y-153132278D01*
X184813302Y-153018774D01*
X185158143Y-152834453D01*
X185460398Y-152586398D01*
X185708453Y-152284143D01*
X185814990Y-152084825D01*
X185814991Y-154663658D01*
X185811314Y-154700990D01*
X185825988Y-154849975D01*
X185869444Y-154993236D01*
X185940016Y-155125266D01*
X186011191Y-155211992D01*
X186034990Y-155240991D01*
X186063988Y-155264789D01*
X186338490Y-155539291D01*
X186293722Y-155686873D01*
X186265000Y-155978491D01*
X186265000Y-156773510D01*
X186293722Y-157065128D01*
X186407226Y-157439302D01*
X186591547Y-157784143D01*
X186839603Y-158086398D01*
X187141858Y-158334453D01*
X187486699Y-158518774D01*
X187860873Y-158632278D01*
X188250000Y-158670604D01*
X188639128Y-158632278D01*
X189013302Y-158518774D01*
X189358143Y-158334453D01*
X189660398Y-158086398D01*
X189908453Y-157784143D01*
X190092774Y-157439302D01*
X190206278Y-157065127D01*
X190235000Y-156773509D01*
X190235000Y-155978491D01*
X190465000Y-155978491D01*
X190465000Y-156773510D01*
X190493722Y-157065128D01*
X190607226Y-157439302D01*
X190791547Y-157784143D01*
X191039603Y-158086398D01*
X191341858Y-158334453D01*
X191686699Y-158518774D01*
X192060873Y-158632278D01*
X192450000Y-158670604D01*
X192839128Y-158632278D01*
X193213302Y-158518774D01*
X193558143Y-158334453D01*
X193860398Y-158086398D01*
X194108453Y-157784143D01*
X194292774Y-157439302D01*
X194406278Y-157065127D01*
X194435000Y-156773509D01*
X194435000Y-155978491D01*
X194665000Y-155978491D01*
X194665000Y-156773510D01*
X194693722Y-157065128D01*
X194807226Y-157439302D01*
X194991547Y-157784143D01*
X195239603Y-158086398D01*
X195541858Y-158334453D01*
X195886699Y-158518774D01*
X196260873Y-158632278D01*
X196650000Y-158670604D01*
X197039128Y-158632278D01*
X197413302Y-158518774D01*
X197758143Y-158334453D01*
X198060398Y-158086398D01*
X198308453Y-157784143D01*
X198492774Y-157439302D01*
X198606278Y-157065127D01*
X198635000Y-156773509D01*
X198635000Y-155978491D01*
X198865000Y-155978491D01*
X198865000Y-156773510D01*
X198893722Y-157065128D01*
X199007226Y-157439302D01*
X199191547Y-157784143D01*
X199439603Y-158086398D01*
X199741858Y-158334453D01*
X200086699Y-158518774D01*
X200460873Y-158632278D01*
X200850000Y-158670604D01*
X201239128Y-158632278D01*
X201613302Y-158518774D01*
X201958143Y-158334453D01*
X202260398Y-158086398D01*
X202508453Y-157784143D01*
X202692774Y-157439302D01*
X202806278Y-157065127D01*
X202835000Y-156773509D01*
X202835000Y-155978490D01*
X202806278Y-155686872D01*
X202692774Y-155312698D01*
X202508453Y-154967857D01*
X202260398Y-154665602D01*
X201958143Y-154417547D01*
X201613301Y-154233226D01*
X201239127Y-154119722D01*
X200850000Y-154081396D01*
X200460872Y-154119722D01*
X200086698Y-154233226D01*
X199741857Y-154417547D01*
X199439602Y-154665602D01*
X199191547Y-154967857D01*
X199007226Y-155312699D01*
X198893722Y-155686873D01*
X198865000Y-155978491D01*
X198635000Y-155978491D01*
X198635000Y-155978490D01*
X198606278Y-155686872D01*
X198492774Y-155312698D01*
X198308453Y-154967857D01*
X198060398Y-154665602D01*
X197758143Y-154417547D01*
X197413301Y-154233226D01*
X197039127Y-154119722D01*
X196650000Y-154081396D01*
X196260872Y-154119722D01*
X195886698Y-154233226D01*
X195541857Y-154417547D01*
X195239602Y-154665602D01*
X194991547Y-154967857D01*
X194807226Y-155312699D01*
X194693722Y-155686873D01*
X194665000Y-155978491D01*
X194435000Y-155978491D01*
X194435000Y-155978490D01*
X194406278Y-155686872D01*
X194292774Y-155312698D01*
X194108453Y-154967857D01*
X193860398Y-154665602D01*
X193558143Y-154417547D01*
X193213301Y-154233226D01*
X192839127Y-154119722D01*
X192450000Y-154081396D01*
X192060872Y-154119722D01*
X191686698Y-154233226D01*
X191341857Y-154417547D01*
X191039602Y-154665602D01*
X190791547Y-154967857D01*
X190607226Y-155312699D01*
X190493722Y-155686873D01*
X190465000Y-155978491D01*
X190235000Y-155978491D01*
X190235000Y-155978490D01*
X190206278Y-155686872D01*
X190092774Y-155312698D01*
X189908453Y-154967857D01*
X189660398Y-154665602D01*
X189358143Y-154417547D01*
X189013301Y-154233226D01*
X188639127Y-154119722D01*
X188250000Y-154081396D01*
X187860872Y-154119722D01*
X187486698Y-154233226D01*
X187334990Y-154314315D01*
X187334990Y-152937684D01*
X187486699Y-153018774D01*
X187860873Y-153132278D01*
X188250000Y-153170604D01*
X188639128Y-153132278D01*
X189013302Y-153018774D01*
X189358143Y-152834453D01*
X189660398Y-152586398D01*
X189908453Y-152284143D01*
X190092774Y-151939302D01*
X190206278Y-151565127D01*
X190235000Y-151273509D01*
X190235000Y-150478491D01*
X190465000Y-150478491D01*
X190465000Y-151273510D01*
X190493722Y-151565128D01*
X190607226Y-151939302D01*
X190791547Y-152284143D01*
X191039603Y-152586398D01*
X191341858Y-152834453D01*
X191686699Y-153018774D01*
X192060873Y-153132278D01*
X192450000Y-153170604D01*
X192839128Y-153132278D01*
X193213302Y-153018774D01*
X193558143Y-152834453D01*
X193860398Y-152586398D01*
X194108453Y-152284143D01*
X194292774Y-151939302D01*
X194406278Y-151565127D01*
X194435000Y-151273509D01*
X194435000Y-150478491D01*
X194665000Y-150478491D01*
X194665000Y-151273510D01*
X194693722Y-151565128D01*
X194807226Y-151939302D01*
X194991547Y-152284143D01*
X195239603Y-152586398D01*
X195541858Y-152834453D01*
X195886699Y-153018774D01*
X196260873Y-153132278D01*
X196650000Y-153170604D01*
X197039128Y-153132278D01*
X197413302Y-153018774D01*
X197758143Y-152834453D01*
X198060398Y-152586398D01*
X198308453Y-152284143D01*
X198492774Y-151939302D01*
X198606278Y-151565127D01*
X198635000Y-151273509D01*
X198635000Y-151003000D01*
X198865000Y-151003000D01*
X198865000Y-151303000D01*
X198927918Y-151687814D01*
X199064700Y-152052959D01*
X199270090Y-152384403D01*
X199536195Y-152669409D01*
X199852789Y-152897024D01*
X200207705Y-153058501D01*
X200414677Y-153112677D01*
X200723000Y-152997829D01*
X200723000Y-151003000D01*
X200977000Y-151003000D01*
X200977000Y-152997829D01*
X201285323Y-153112677D01*
X201492295Y-153058501D01*
X201847211Y-152897024D01*
X202163805Y-152669409D01*
X202429910Y-152384403D01*
X202635300Y-152052959D01*
X202772082Y-151687814D01*
X202835000Y-151303000D01*
X202835000Y-151003000D01*
X200977000Y-151003000D01*
X200723000Y-151003000D01*
X198865000Y-151003000D01*
X198635000Y-151003000D01*
X198635000Y-150478490D01*
X198632096Y-150449000D01*
X198865000Y-150449000D01*
X198865000Y-150749000D01*
X200723000Y-150749000D01*
X200723000Y-148754171D01*
X200977000Y-148754171D01*
X200977000Y-150749000D01*
X202835000Y-150749000D01*
X202835000Y-150449000D01*
X202772082Y-150064186D01*
X202635300Y-149699041D01*
X202429910Y-149367597D01*
X202163805Y-149082591D01*
X201847211Y-148854976D01*
X201492295Y-148693499D01*
X201285323Y-148639323D01*
X200977000Y-148754171D01*
X200723000Y-148754171D01*
X200414677Y-148639323D01*
X200207705Y-148693499D01*
X199852789Y-148854976D01*
X199536195Y-149082591D01*
X199270090Y-149367597D01*
X199064700Y-149699041D01*
X198927918Y-150064186D01*
X198865000Y-150449000D01*
X198632096Y-150449000D01*
X198606278Y-150186872D01*
X198492774Y-149812698D01*
X198308453Y-149467857D01*
X198060398Y-149165602D01*
X197758143Y-148917547D01*
X197413301Y-148733226D01*
X197039127Y-148619722D01*
X196650000Y-148581396D01*
X196260872Y-148619722D01*
X195886698Y-148733226D01*
X195541857Y-148917547D01*
X195239602Y-149165602D01*
X194991547Y-149467857D01*
X194807226Y-149812699D01*
X194693722Y-150186873D01*
X194665000Y-150478491D01*
X194435000Y-150478491D01*
X194435000Y-150478490D01*
X194406278Y-150186872D01*
X194292774Y-149812698D01*
X194108453Y-149467857D01*
X193860398Y-149165602D01*
X193558143Y-148917547D01*
X193213301Y-148733226D01*
X192839127Y-148619722D01*
X192450000Y-148581396D01*
X192060872Y-148619722D01*
X191686698Y-148733226D01*
X191341857Y-148917547D01*
X191039602Y-149165602D01*
X190791547Y-149467857D01*
X190607226Y-149812699D01*
X190493722Y-150186873D01*
X190465000Y-150478491D01*
X190235000Y-150478491D01*
X190235000Y-150478490D01*
X190206278Y-150186872D01*
X190092774Y-149812698D01*
X189908453Y-149467857D01*
X189660398Y-149165602D01*
X189358143Y-148917547D01*
X189013301Y-148733226D01*
X188639127Y-148619722D01*
X188250000Y-148581396D01*
X187860872Y-148619722D01*
X187712524Y-148664723D01*
X184169000Y-145121199D01*
X184169000Y-145059061D01*
X184129226Y-144859102D01*
X184051205Y-144670744D01*
X183937937Y-144501226D01*
X183793774Y-144357063D01*
X183624256Y-144243795D01*
X183435898Y-144165774D01*
X183235939Y-144126000D01*
X183032061Y-144126000D01*
X182832102Y-144165774D01*
X182643744Y-144243795D01*
X182499000Y-144340510D01*
X182354256Y-144243795D01*
X182165898Y-144165774D01*
X181965939Y-144126000D01*
X181898999Y-144126000D01*
X181898999Y-137818802D01*
X181903801Y-137814000D01*
X181965939Y-137814000D01*
X182165898Y-137774226D01*
X182354256Y-137696205D01*
X182499000Y-137599490D01*
X182643744Y-137696205D01*
X182832102Y-137774226D01*
X183032061Y-137814000D01*
X183235939Y-137814000D01*
X183435898Y-137774226D01*
X183624256Y-137696205D01*
X183793774Y-137582937D01*
X183937937Y-137438774D01*
X184051205Y-137269256D01*
X184129226Y-137080898D01*
X184169000Y-136880939D01*
X184169000Y-136677061D01*
X184129226Y-136477102D01*
X184051205Y-136288744D01*
X183937937Y-136119226D01*
X183793774Y-135975063D01*
X183624256Y-135861795D01*
X183435898Y-135783774D01*
X183235939Y-135744000D01*
X183173801Y-135744000D01*
X182972802Y-135543001D01*
X182949000Y-135513998D01*
X182833275Y-135419025D01*
X182701246Y-135348453D01*
X182557985Y-135304996D01*
X182446332Y-135293999D01*
X182446321Y-135293999D01*
X182408999Y-135290323D01*
X182371677Y-135293999D01*
X181553324Y-135293999D01*
X181515999Y-135290323D01*
X181478674Y-135293999D01*
X181478666Y-135293999D01*
X181367013Y-135304996D01*
X181223752Y-135348453D01*
X181091723Y-135419025D01*
X180975998Y-135513998D01*
X180952200Y-135542997D01*
X180177987Y-136317210D01*
X180148989Y-136341008D01*
X180125191Y-136370006D01*
X180125190Y-136370007D01*
X180054015Y-136456733D01*
X179983443Y-136588763D01*
X179970930Y-136630015D01*
X179939987Y-136732023D01*
X179937890Y-136753316D01*
X179925313Y-136881009D01*
X177818986Y-136881009D01*
X177819000Y-136880939D01*
X177819000Y-136677061D01*
X177779226Y-136477102D01*
X177701205Y-136288744D01*
X177587937Y-136119226D01*
X177443774Y-135975063D01*
X177274256Y-135861795D01*
X177085898Y-135783774D01*
X176885939Y-135744000D01*
X176682061Y-135744000D01*
X176482102Y-135783774D01*
X176293744Y-135861795D01*
X176149000Y-135958510D01*
X176004256Y-135861795D01*
X175815898Y-135783774D01*
X175615939Y-135744000D01*
X175412061Y-135744000D01*
X175212102Y-135783774D01*
X175023744Y-135861795D01*
X174854226Y-135975063D01*
X174810289Y-136019000D01*
X171487322Y-136019000D01*
X171449999Y-136015324D01*
X171412676Y-136019000D01*
X171412667Y-136019000D01*
X171301014Y-136029997D01*
X171157753Y-136073454D01*
X171025724Y-136144026D01*
X170909999Y-136238999D01*
X170886201Y-136267997D01*
X168654000Y-138500198D01*
X168654000Y-136339711D01*
X168697937Y-136295774D01*
X168811205Y-136126256D01*
X168889226Y-135937898D01*
X168929000Y-135737939D01*
X168929000Y-135534061D01*
X168889226Y-135334102D01*
X168811205Y-135145744D01*
X168697937Y-134976226D01*
X168553774Y-134832063D01*
X168384256Y-134718795D01*
X168195898Y-134640774D01*
X167995939Y-134601000D01*
X167792061Y-134601000D01*
X167592102Y-134640774D01*
X167403744Y-134718795D01*
X167234226Y-134832063D01*
X167090063Y-134976226D01*
X166976795Y-135145744D01*
X166898774Y-135334102D01*
X166859000Y-135534061D01*
X166859000Y-135737939D01*
X166898774Y-135937898D01*
X166976795Y-136126256D01*
X167090063Y-136295774D01*
X167134001Y-136339712D01*
X167134000Y-138369198D01*
X164226001Y-141277198D01*
X164196998Y-141301000D01*
X164102025Y-141416725D01*
X164099724Y-141421030D01*
X164077225Y-141436063D01*
X163933062Y-141580226D01*
X163819794Y-141749744D01*
X163741773Y-141938102D01*
X163701999Y-142138061D01*
X163701999Y-142299990D01*
X160402001Y-142299990D01*
X160402001Y-142156060D01*
X160362227Y-141956101D01*
X160284206Y-141767743D01*
X160170938Y-141598225D01*
X160127001Y-141554288D01*
X160127001Y-136644731D01*
X160194898Y-136631226D01*
X160383256Y-136553205D01*
X160552774Y-136439937D01*
X160696937Y-136295774D01*
X160810205Y-136126256D01*
X160888226Y-135937898D01*
X160928000Y-135737939D01*
X160928000Y-135534061D01*
X160888226Y-135334102D01*
X160810205Y-135145744D01*
X160696937Y-134976226D01*
X160552774Y-134832063D01*
X160383256Y-134718795D01*
X160194898Y-134640774D01*
X159994939Y-134601000D01*
X159791061Y-134601000D01*
X159591102Y-134640774D01*
X159402744Y-134718795D01*
X159233226Y-134832063D01*
X159089063Y-134976226D01*
X158975795Y-135145744D01*
X158897774Y-135334102D01*
X158858000Y-135534061D01*
X158858000Y-135596199D01*
X158855999Y-135598200D01*
X158827001Y-135621998D01*
X158803203Y-135650996D01*
X158803202Y-135650997D01*
X158732027Y-135737723D01*
X158661455Y-135869753D01*
X158617999Y-136013014D01*
X158603325Y-136161999D01*
X158607002Y-136199331D01*
X158607001Y-141554288D01*
X158563064Y-141598225D01*
X158449796Y-141767743D01*
X158371775Y-141956101D01*
X158332001Y-142156060D01*
X158332001Y-142299990D01*
X153319011Y-142299990D01*
X153319011Y-131514333D01*
X153322687Y-131477010D01*
X153319011Y-131439687D01*
X153319011Y-131439678D01*
X153308014Y-131328025D01*
X153264557Y-131184764D01*
X153193985Y-131052735D01*
X153130190Y-130975000D01*
X153303335Y-130975000D01*
X153580574Y-130919853D01*
X153841727Y-130811680D01*
X154076759Y-130654637D01*
X154276637Y-130454759D01*
X154432000Y-130222241D01*
X154587363Y-130454759D01*
X154780947Y-130648343D01*
X154644063Y-130785226D01*
X154530795Y-130954744D01*
X154452774Y-131143102D01*
X154413000Y-131343061D01*
X154413000Y-131546939D01*
X154452774Y-131746898D01*
X154530795Y-131935256D01*
X154644063Y-132104774D01*
X154788226Y-132248937D01*
X154957744Y-132362205D01*
X155146102Y-132440226D01*
X155203381Y-132451619D01*
X155214774Y-132508898D01*
X155292795Y-132697256D01*
X155406063Y-132866774D01*
X155550226Y-133010937D01*
X155719744Y-133124205D01*
X155908102Y-133202226D01*
X156108061Y-133242000D01*
X156311939Y-133242000D01*
X156350500Y-133234330D01*
X156357774Y-133270898D01*
X156435795Y-133459256D01*
X156549063Y-133628774D01*
X156693226Y-133772937D01*
X156862744Y-133886205D01*
X157051102Y-133964226D01*
X157251061Y-134004000D01*
X157368026Y-134004000D01*
X157373774Y-134032898D01*
X157451795Y-134221256D01*
X157565063Y-134390774D01*
X157709226Y-134534937D01*
X157878744Y-134648205D01*
X158067102Y-134726226D01*
X158267061Y-134766000D01*
X158470939Y-134766000D01*
X158670898Y-134726226D01*
X158859256Y-134648205D01*
X159028774Y-134534937D01*
X159072711Y-134491000D01*
X184335289Y-134491000D01*
X184379226Y-134534937D01*
X184548744Y-134648205D01*
X184737102Y-134726226D01*
X184937061Y-134766000D01*
X185140939Y-134766000D01*
X185340898Y-134726226D01*
X185529256Y-134648205D01*
X185698774Y-134534937D01*
X185842937Y-134390774D01*
X185956205Y-134221256D01*
X186034226Y-134032898D01*
X186040388Y-134001922D01*
X186229898Y-133964226D01*
X186418256Y-133886205D01*
X186587774Y-133772937D01*
X186692001Y-133668710D01*
X186692000Y-136075289D01*
X186648063Y-136119226D01*
X186534795Y-136288744D01*
X186456774Y-136477102D01*
X186417000Y-136677061D01*
X186417000Y-136880939D01*
X186456774Y-137080898D01*
X186534795Y-137269256D01*
X186648063Y-137438774D01*
X186792226Y-137582937D01*
X186961744Y-137696205D01*
X187150102Y-137774226D01*
X187350061Y-137814000D01*
X187553939Y-137814000D01*
X187753898Y-137774226D01*
X187942256Y-137696205D01*
X188111774Y-137582937D01*
X188255937Y-137438774D01*
X188369205Y-137269256D01*
X188447226Y-137080898D01*
X188487000Y-136880939D01*
X188487000Y-136677061D01*
X188447226Y-136477102D01*
X188369205Y-136288744D01*
X188255937Y-136119226D01*
X188212000Y-136075289D01*
X188212000Y-133984116D01*
X190574728Y-136346845D01*
X190520774Y-136477102D01*
X190481000Y-136677061D01*
X190481000Y-136880939D01*
X190520774Y-137080898D01*
X190598795Y-137269256D01*
X190712063Y-137438774D01*
X190856226Y-137582937D01*
X191025744Y-137696205D01*
X191214102Y-137774226D01*
X191414061Y-137814000D01*
X191617939Y-137814000D01*
X191817898Y-137774226D01*
X192006256Y-137696205D01*
X192175774Y-137582937D01*
X192319937Y-137438774D01*
X192433205Y-137269256D01*
X192511226Y-137080898D01*
X192551000Y-136880939D01*
X192551000Y-136677061D01*
X192511226Y-136477102D01*
X192433205Y-136288744D01*
X192319937Y-136119226D01*
X192264987Y-136064276D01*
X192221546Y-135921068D01*
X192150974Y-135789039D01*
X192056001Y-135673314D01*
X192027004Y-135649517D01*
X187311489Y-130934003D01*
X187287686Y-130904999D01*
X187171961Y-130810026D01*
X187039932Y-130739454D01*
X186896671Y-130695997D01*
X186785018Y-130685000D01*
X186785007Y-130685000D01*
X186747685Y-130681324D01*
X186710363Y-130685000D01*
X169271317Y-130685000D01*
X169316759Y-130654637D01*
X169516637Y-130454759D01*
X169673680Y-130219727D01*
X169781853Y-129958574D01*
X169837000Y-129681335D01*
X169837000Y-129398665D01*
X169781853Y-129121426D01*
X169676053Y-128866001D01*
X176656677Y-128866001D01*
X176693999Y-128869677D01*
X176731321Y-128866001D01*
X176731332Y-128866001D01*
X176842985Y-128855004D01*
X176986246Y-128811547D01*
X177118275Y-128740975D01*
X177234000Y-128646002D01*
X177257803Y-128616998D01*
X178220802Y-127654000D01*
X178282939Y-127654000D01*
X178482898Y-127614226D01*
X178671256Y-127536205D01*
X178840774Y-127422937D01*
X178984937Y-127278774D01*
X179098205Y-127109256D01*
X179176226Y-126920898D01*
X179216000Y-126720939D01*
X179216000Y-126517061D01*
X179176226Y-126317102D01*
X179098205Y-126128744D01*
X179028193Y-126023963D01*
X192163000Y-126023963D01*
X192163000Y-126960036D01*
X192183040Y-127163506D01*
X192262236Y-127424580D01*
X192390843Y-127665187D01*
X192563919Y-127876080D01*
X192774812Y-128049157D01*
X193015419Y-128177764D01*
X193276493Y-128256960D01*
X193548000Y-128283701D01*
X193819506Y-128256960D01*
X194080580Y-128177764D01*
X194321187Y-128049157D01*
X194532080Y-127876081D01*
X194705157Y-127665188D01*
X194820486Y-127449422D01*
X194857028Y-127539349D01*
X195006972Y-127767061D01*
X195198460Y-127961145D01*
X195424132Y-128114142D01*
X195675316Y-128220173D01*
X195746815Y-128234318D01*
X195961000Y-128111656D01*
X195961000Y-126619000D01*
X195941000Y-126619000D01*
X195941000Y-126365000D01*
X195961000Y-126365000D01*
X195961000Y-124872344D01*
X196215000Y-124872344D01*
X196215000Y-126365000D01*
X196235000Y-126365000D01*
X196235000Y-126619000D01*
X196215000Y-126619000D01*
X196215000Y-128111656D01*
X196429185Y-128234318D01*
X196500684Y-128220173D01*
X196751868Y-128114142D01*
X196977540Y-127961145D01*
X197169028Y-127767061D01*
X197241418Y-127657126D01*
X197252188Y-127766482D01*
X197288498Y-127886180D01*
X197347463Y-127996494D01*
X197426815Y-128093185D01*
X197523506Y-128172537D01*
X197633820Y-128231502D01*
X197753518Y-128267812D01*
X197878000Y-128280072D01*
X199378000Y-128280072D01*
X199502482Y-128267812D01*
X199622180Y-128231502D01*
X199732494Y-128172537D01*
X199829185Y-128093185D01*
X199908537Y-127996494D01*
X199967502Y-127886180D01*
X200003812Y-127766482D01*
X200016072Y-127642000D01*
X200016072Y-125342000D01*
X200003812Y-125217518D01*
X199967502Y-125097820D01*
X199908537Y-124987506D01*
X199829185Y-124890815D01*
X199732494Y-124811463D01*
X199622180Y-124752498D01*
X199502482Y-124716188D01*
X199378000Y-124703928D01*
X197878000Y-124703928D01*
X197753518Y-124716188D01*
X197633820Y-124752498D01*
X197523506Y-124811463D01*
X197426815Y-124890815D01*
X197347463Y-124987506D01*
X197288498Y-125097820D01*
X197252188Y-125217518D01*
X197241418Y-125326874D01*
X197169028Y-125216939D01*
X196977540Y-125022855D01*
X196751868Y-124869858D01*
X196500684Y-124763827D01*
X196429185Y-124749682D01*
X196215000Y-124872344D01*
X195961000Y-124872344D01*
X195746815Y-124749682D01*
X195675316Y-124763827D01*
X195424132Y-124869858D01*
X195198460Y-125022855D01*
X195006972Y-125216939D01*
X194857028Y-125444651D01*
X194820486Y-125534578D01*
X194705157Y-125318812D01*
X194532081Y-125107919D01*
X194321188Y-124934843D01*
X194080581Y-124806236D01*
X193819507Y-124727040D01*
X193548000Y-124700299D01*
X193276494Y-124727040D01*
X193015420Y-124806236D01*
X192774813Y-124934843D01*
X192563920Y-125107919D01*
X192390843Y-125318812D01*
X192262236Y-125559419D01*
X192183040Y-125820493D01*
X192163000Y-126023963D01*
X179028193Y-126023963D01*
X178984937Y-125959226D01*
X178840774Y-125815063D01*
X178671256Y-125701795D01*
X178482898Y-125623774D01*
X178282939Y-125584000D01*
X178079061Y-125584000D01*
X177879102Y-125623774D01*
X177690744Y-125701795D01*
X177521226Y-125815063D01*
X177377063Y-125959226D01*
X177263795Y-126128744D01*
X177185774Y-126317102D01*
X177146000Y-126517061D01*
X177146000Y-126579198D01*
X176379198Y-127346001D01*
X173456710Y-127346001D01*
X173523937Y-127278774D01*
X173637205Y-127109256D01*
X173715226Y-126920898D01*
X173755000Y-126720939D01*
X173755000Y-126517061D01*
X173715226Y-126317102D01*
X173637205Y-126128744D01*
X173523937Y-125959226D01*
X173379774Y-125815063D01*
X173210256Y-125701795D01*
X173021898Y-125623774D01*
X172821939Y-125584000D01*
X172618061Y-125584000D01*
X172418102Y-125623774D01*
X172229744Y-125701795D01*
X172060226Y-125815063D01*
X171916063Y-125959226D01*
X171802795Y-126128744D01*
X171724774Y-126317102D01*
X171685000Y-126517061D01*
X171685000Y-126579199D01*
X171643199Y-126621000D01*
X166819711Y-126621000D01*
X166775774Y-126577063D01*
X166606256Y-126463795D01*
X166417898Y-126385774D01*
X166217939Y-126346000D01*
X166014061Y-126346000D01*
X165814102Y-126385774D01*
X165625744Y-126463795D01*
X165456226Y-126577063D01*
X165312063Y-126721226D01*
X165198795Y-126890744D01*
X165120774Y-127079102D01*
X165081000Y-127279061D01*
X165081000Y-127346001D01*
X159713322Y-127346001D01*
X159675999Y-127342325D01*
X159638676Y-127346001D01*
X159638666Y-127346001D01*
X159527013Y-127356998D01*
X159383752Y-127400455D01*
X159251723Y-127471027D01*
X159135998Y-127566000D01*
X159112200Y-127594998D01*
X158565886Y-128141312D01*
X158383335Y-128105000D01*
X158100665Y-128105000D01*
X157823426Y-128160147D01*
X157562273Y-128268320D01*
X157327241Y-128425363D01*
X157127363Y-128625241D01*
X156972000Y-128857759D01*
X156816637Y-128625241D01*
X156616759Y-128425363D01*
X156381727Y-128268320D01*
X156120574Y-128160147D01*
X155843335Y-128105000D01*
X155560665Y-128105000D01*
X155283426Y-128160147D01*
X155022273Y-128268320D01*
X154787241Y-128425363D01*
X154587363Y-128625241D01*
X154432000Y-128857759D01*
X154276637Y-128625241D01*
X154076759Y-128425363D01*
X153841727Y-128268320D01*
X153580574Y-128160147D01*
X153303335Y-128105000D01*
X153020665Y-128105000D01*
X152743426Y-128160147D01*
X152482273Y-128268320D01*
X152247241Y-128425363D01*
X152047363Y-128625241D01*
X151892000Y-128857759D01*
X151736637Y-128625241D01*
X151536759Y-128425363D01*
X151301727Y-128268320D01*
X151040574Y-128160147D01*
X150763335Y-128105000D01*
X150480665Y-128105000D01*
X150203426Y-128160147D01*
X149942273Y-128268320D01*
X149707241Y-128425363D01*
X149507363Y-128625241D01*
X149352000Y-128857759D01*
X149196637Y-128625241D01*
X148996759Y-128425363D01*
X148761727Y-128268320D01*
X148500574Y-128160147D01*
X148223335Y-128105000D01*
X147940665Y-128105000D01*
X147663426Y-128160147D01*
X147402273Y-128268320D01*
X147167241Y-128425363D01*
X146967363Y-128625241D01*
X146812000Y-128857759D01*
X146656637Y-128625241D01*
X146456759Y-128425363D01*
X146221727Y-128268320D01*
X145960574Y-128160147D01*
X145683335Y-128105000D01*
X145400665Y-128105000D01*
X145123426Y-128160147D01*
X144862273Y-128268320D01*
X144627241Y-128425363D01*
X144427363Y-128625241D01*
X144272000Y-128857759D01*
X144116637Y-128625241D01*
X143916759Y-128425363D01*
X143682777Y-128269022D01*
X145264790Y-126687010D01*
X145926489Y-126687010D01*
X145963811Y-126690686D01*
X146001133Y-126687010D01*
X146001144Y-126687010D01*
X146112797Y-126676013D01*
X146256058Y-126632556D01*
X146388087Y-126561984D01*
X146503812Y-126467011D01*
X146527615Y-126438008D01*
X147456014Y-125509609D01*
X147485011Y-125485812D01*
X147542298Y-125416008D01*
X147579984Y-125370088D01*
X147650556Y-125238058D01*
X147655590Y-125221464D01*
X147685217Y-125123795D01*
X147811547Y-125360143D01*
X148059602Y-125662398D01*
X148361857Y-125910453D01*
X148706698Y-126094774D01*
X149080872Y-126208278D01*
X149470000Y-126246604D01*
X149859127Y-126208278D01*
X150233301Y-126094774D01*
X150578143Y-125910453D01*
X150880398Y-125662398D01*
X151128453Y-125360143D01*
X151312774Y-125015302D01*
X151426278Y-124641128D01*
X151455000Y-124349510D01*
X151455000Y-123554491D01*
X151426278Y-123262873D01*
X151381510Y-123115292D01*
X151681928Y-122814874D01*
X151681928Y-125351999D01*
X151698992Y-125525253D01*
X151749529Y-125691850D01*
X151831595Y-125845386D01*
X151942039Y-125979961D01*
X152076614Y-126090405D01*
X152230150Y-126172471D01*
X152396747Y-126223008D01*
X152570001Y-126240072D01*
X154769999Y-126240072D01*
X154943253Y-126223008D01*
X155109850Y-126172471D01*
X155263386Y-126090405D01*
X155397961Y-125979961D01*
X155508405Y-125845386D01*
X155590471Y-125691850D01*
X155641008Y-125525253D01*
X155658072Y-125351999D01*
X155658072Y-123187000D01*
X170327680Y-123187000D01*
X170365002Y-123190676D01*
X170402324Y-123187000D01*
X170402335Y-123187000D01*
X170513988Y-123176003D01*
X170657249Y-123132546D01*
X170789278Y-123061974D01*
X170905003Y-122967001D01*
X170928806Y-122937997D01*
X173542802Y-120324002D01*
X176725291Y-120324002D01*
X176735726Y-120334437D01*
X176905244Y-120447705D01*
X177093602Y-120525726D01*
X177293561Y-120565500D01*
X177497439Y-120565500D01*
X177697398Y-120525726D01*
X177885756Y-120447705D01*
X178055274Y-120334437D01*
X178199437Y-120190274D01*
X178312705Y-120020756D01*
X178390726Y-119832398D01*
X178430500Y-119632439D01*
X178430500Y-119428561D01*
X178390726Y-119228602D01*
X178312705Y-119040244D01*
X178199437Y-118870726D01*
X178055274Y-118726563D01*
X177885756Y-118613295D01*
X177697398Y-118535274D01*
X177497439Y-118495500D01*
X177293561Y-118495500D01*
X177093602Y-118535274D01*
X176905244Y-118613295D01*
X176735726Y-118726563D01*
X176658287Y-118804002D01*
X173265333Y-118804002D01*
X173228000Y-118800325D01*
X173190667Y-118804002D01*
X173079014Y-118814999D01*
X172935753Y-118858456D01*
X172803724Y-118929028D01*
X172687999Y-119024001D01*
X172664201Y-119052999D01*
X172434956Y-119282245D01*
X172363774Y-119211063D01*
X172194256Y-119097795D01*
X172005898Y-119019774D01*
X171805939Y-118980000D01*
X171602061Y-118980000D01*
X171402102Y-119019774D01*
X171213744Y-119097795D01*
X171044226Y-119211063D01*
X170900063Y-119355226D01*
X170786795Y-119524744D01*
X170708774Y-119713102D01*
X170669000Y-119913061D01*
X170669000Y-119975198D01*
X169427209Y-121216990D01*
X151482333Y-121216990D01*
X151445010Y-121213314D01*
X151407687Y-121216990D01*
X151407677Y-121216990D01*
X151296024Y-121227987D01*
X151152763Y-121271444D01*
X151020733Y-121342016D01*
X150937093Y-121410658D01*
X150905009Y-121436989D01*
X150881211Y-121465987D01*
X150431848Y-121915351D01*
X150233302Y-121809226D01*
X149859128Y-121695722D01*
X149470000Y-121657396D01*
X149080873Y-121695722D01*
X148706699Y-121809226D01*
X148361858Y-121993547D01*
X148059603Y-122241602D01*
X147811547Y-122543857D01*
X147705010Y-122743174D01*
X147705010Y-120164333D01*
X147708686Y-120127010D01*
X147705010Y-120089687D01*
X147705010Y-120089677D01*
X147694013Y-119978024D01*
X147650556Y-119834763D01*
X147579984Y-119702734D01*
X147485011Y-119587009D01*
X147456013Y-119563211D01*
X147181510Y-119288708D01*
X147226278Y-119141128D01*
X147255000Y-118849510D01*
X147255000Y-118054491D01*
X147255000Y-118054490D01*
X147485000Y-118054490D01*
X147485000Y-118849509D01*
X147513722Y-119141127D01*
X147627226Y-119515301D01*
X147811547Y-119860143D01*
X148059602Y-120162398D01*
X148361857Y-120410453D01*
X148706698Y-120594774D01*
X149080872Y-120708278D01*
X149470000Y-120746604D01*
X149859127Y-120708278D01*
X150233301Y-120594774D01*
X150578143Y-120410453D01*
X150880398Y-120162398D01*
X151128453Y-119860143D01*
X151312774Y-119515302D01*
X151426278Y-119141128D01*
X151455000Y-118849510D01*
X151455000Y-118054491D01*
X151455000Y-118054490D01*
X151685000Y-118054490D01*
X151685000Y-118849509D01*
X151713722Y-119141127D01*
X151827226Y-119515301D01*
X152011547Y-119860143D01*
X152259602Y-120162398D01*
X152561857Y-120410453D01*
X152906698Y-120594774D01*
X153280872Y-120708278D01*
X153670000Y-120746604D01*
X154059127Y-120708278D01*
X154433301Y-120594774D01*
X154778143Y-120410453D01*
X155080398Y-120162398D01*
X155328453Y-119860143D01*
X155512774Y-119515302D01*
X155626278Y-119141128D01*
X155655000Y-118849510D01*
X155655000Y-118054491D01*
X155626278Y-117762873D01*
X155512774Y-117388698D01*
X155328453Y-117043857D01*
X155080398Y-116741602D01*
X154778143Y-116493547D01*
X154433302Y-116309226D01*
X154059128Y-116195722D01*
X153670000Y-116157396D01*
X153280873Y-116195722D01*
X152906699Y-116309226D01*
X152561858Y-116493547D01*
X152259603Y-116741602D01*
X152011547Y-117043857D01*
X151827226Y-117388698D01*
X151713722Y-117762872D01*
X151685000Y-118054490D01*
X151455000Y-118054490D01*
X151426278Y-117762873D01*
X151312774Y-117388698D01*
X151128453Y-117043857D01*
X150880398Y-116741602D01*
X150578143Y-116493547D01*
X150233302Y-116309226D01*
X149859128Y-116195722D01*
X149470000Y-116157396D01*
X149080873Y-116195722D01*
X148706699Y-116309226D01*
X148361858Y-116493547D01*
X148059603Y-116741602D01*
X147811547Y-117043857D01*
X147627226Y-117388698D01*
X147513722Y-117762872D01*
X147485000Y-118054490D01*
X147255000Y-118054490D01*
X147226278Y-117762873D01*
X147112774Y-117388698D01*
X146928453Y-117043857D01*
X146680398Y-116741602D01*
X146378143Y-116493547D01*
X146033302Y-116309226D01*
X145659128Y-116195722D01*
X145270000Y-116157396D01*
X144880873Y-116195722D01*
X144506699Y-116309226D01*
X144161858Y-116493547D01*
X143859603Y-116741602D01*
X143611547Y-117043857D01*
X143427226Y-117388698D01*
X143313722Y-117762872D01*
X143285000Y-118054490D01*
X143285000Y-118849509D01*
X143313722Y-119141127D01*
X143427226Y-119515301D01*
X143611547Y-119860143D01*
X143859602Y-120162398D01*
X144161857Y-120410453D01*
X144506698Y-120594774D01*
X144880872Y-120708278D01*
X145270000Y-120746604D01*
X145659127Y-120708278D01*
X146033301Y-120594774D01*
X146185011Y-120513684D01*
X146185011Y-121890316D01*
X146033302Y-121809226D01*
X145659128Y-121695722D01*
X145270000Y-121657396D01*
X144880873Y-121695722D01*
X144506699Y-121809226D01*
X144161858Y-121993547D01*
X143859603Y-122241602D01*
X143611547Y-122543857D01*
X143427226Y-122888698D01*
X143313722Y-123262872D01*
X143285000Y-123554490D01*
X143285000Y-123977196D01*
X143055000Y-124207196D01*
X143055000Y-123554491D01*
X143026278Y-123262873D01*
X142912774Y-122888698D01*
X142728453Y-122543857D01*
X142480398Y-122241602D01*
X142178143Y-121993547D01*
X141833302Y-121809226D01*
X141459128Y-121695722D01*
X141070000Y-121657396D01*
X140680873Y-121695722D01*
X140306699Y-121809226D01*
X139961858Y-121993547D01*
X139659603Y-122241602D01*
X139411547Y-122543857D01*
X139227226Y-122888698D01*
X139113722Y-123262872D01*
X139085000Y-123554490D01*
X139085000Y-124349509D01*
X139113722Y-124641127D01*
X139227226Y-125015301D01*
X139411547Y-125360143D01*
X139659602Y-125662398D01*
X139961857Y-125910453D01*
X140306698Y-126094774D01*
X140680872Y-126208278D01*
X141020471Y-126241726D01*
X138825997Y-128436200D01*
X138796999Y-128459998D01*
X138773201Y-128488996D01*
X138773200Y-128488997D01*
X138732531Y-128538552D01*
X138663514Y-128303329D01*
X138408004Y-128182429D01*
X138133816Y-128113700D01*
X137851488Y-128099783D01*
X137571870Y-128141213D01*
X137305708Y-128236397D01*
X137180486Y-128303329D01*
X137108903Y-128547298D01*
X137922000Y-129360395D01*
X137936143Y-129346253D01*
X138115748Y-129525858D01*
X138101605Y-129540000D01*
X138115748Y-129554143D01*
X137936143Y-129733748D01*
X137922000Y-129719605D01*
X137108903Y-130532702D01*
X137180486Y-130776671D01*
X137435996Y-130897571D01*
X137710184Y-130966300D01*
X137992512Y-130980217D01*
X138272130Y-130938787D01*
X138538292Y-130843603D01*
X138663514Y-130776671D01*
X138732531Y-130541448D01*
X138796998Y-130620002D01*
X138826001Y-130643804D01*
X139358199Y-131176003D01*
X139381998Y-131205002D01*
X139410996Y-131228800D01*
X139497722Y-131299975D01*
X139578330Y-131343061D01*
X139629752Y-131370547D01*
X139773013Y-131414004D01*
X139884666Y-131425001D01*
X139884676Y-131425001D01*
X139921999Y-131428677D01*
X139959322Y-131425001D01*
X141018200Y-131425001D01*
X145746990Y-136153792D01*
X145746989Y-141835207D01*
X143916796Y-143665400D01*
X143916759Y-143665363D01*
X143681727Y-143508320D01*
X143420574Y-143400147D01*
X143143335Y-143345000D01*
X142860665Y-143345000D01*
X142583426Y-143400147D01*
X142322273Y-143508320D01*
X142087241Y-143665363D01*
X141887363Y-143865241D01*
X141732000Y-144097759D01*
X141576637Y-143865241D01*
X141376759Y-143665363D01*
X141141727Y-143508320D01*
X140880574Y-143400147D01*
X140603335Y-143345000D01*
X140320665Y-143345000D01*
X140043426Y-143400147D01*
X139782273Y-143508320D01*
X139547241Y-143665363D01*
X139347363Y-143865241D01*
X139192000Y-144097759D01*
X139036637Y-143865241D01*
X138836759Y-143665363D01*
X138601727Y-143508320D01*
X138340574Y-143400147D01*
X138063335Y-143345000D01*
X137780665Y-143345000D01*
X137503426Y-143400147D01*
X137242273Y-143508320D01*
X137007241Y-143665363D01*
X136808643Y-143863961D01*
X136807812Y-143855518D01*
X136771502Y-143735820D01*
X136712537Y-143625506D01*
X136633185Y-143528815D01*
X136536494Y-143449463D01*
X136426180Y-143390498D01*
X136306482Y-143354188D01*
X136182000Y-143341928D01*
X135667750Y-143345000D01*
X135509000Y-143503750D01*
X135255000Y-143503750D01*
X135096250Y-143345000D01*
X134582000Y-143341928D01*
X134457518Y-143354188D01*
X134337820Y-143390498D01*
X134227506Y-143449463D01*
X134130815Y-143528815D01*
X134051463Y-143625506D01*
X133992498Y-143735820D01*
X133956188Y-143855518D01*
X133943928Y-143980000D01*
X127660000Y-143980000D01*
X127660000Y-129398665D01*
X133947000Y-129398665D01*
X133947000Y-129681335D01*
X134002147Y-129958574D01*
X134110320Y-130219727D01*
X134267363Y-130454759D01*
X134467241Y-130654637D01*
X134702273Y-130811680D01*
X134963426Y-130919853D01*
X135240665Y-130975000D01*
X135523335Y-130975000D01*
X135800574Y-130919853D01*
X136061727Y-130811680D01*
X136296759Y-130654637D01*
X136496637Y-130454759D01*
X136652915Y-130220872D01*
X136685329Y-130281514D01*
X136929298Y-130353097D01*
X137742395Y-129540000D01*
X136929298Y-128726903D01*
X136685329Y-128798486D01*
X136654806Y-128862992D01*
X136653680Y-128860273D01*
X136496637Y-128625241D01*
X136296759Y-128425363D01*
X136061727Y-128268320D01*
X135800574Y-128160147D01*
X135523335Y-128105000D01*
X135240665Y-128105000D01*
X134963426Y-128160147D01*
X134702273Y-128268320D01*
X134467241Y-128425363D01*
X134267363Y-128625241D01*
X134110320Y-128860273D01*
X134002147Y-129121426D01*
X133947000Y-129398665D01*
X127660000Y-129398665D01*
X127660000Y-123554490D01*
X134885000Y-123554490D01*
X134885000Y-124349509D01*
X134913722Y-124641127D01*
X135027226Y-125015301D01*
X135211547Y-125360143D01*
X135459602Y-125662398D01*
X135761857Y-125910453D01*
X136106698Y-126094774D01*
X136480872Y-126208278D01*
X136870000Y-126246604D01*
X137259127Y-126208278D01*
X137633301Y-126094774D01*
X137978143Y-125910453D01*
X138280398Y-125662398D01*
X138528453Y-125360143D01*
X138712774Y-125015302D01*
X138826278Y-124641128D01*
X138855000Y-124349510D01*
X138855000Y-123554491D01*
X138826278Y-123262873D01*
X138712774Y-122888698D01*
X138528453Y-122543857D01*
X138280398Y-122241602D01*
X137978143Y-121993547D01*
X137633302Y-121809226D01*
X137259128Y-121695722D01*
X136870000Y-121657396D01*
X136480873Y-121695722D01*
X136106699Y-121809226D01*
X135761858Y-121993547D01*
X135459603Y-122241602D01*
X135211547Y-122543857D01*
X135027226Y-122888698D01*
X134913722Y-123262872D01*
X134885000Y-123554490D01*
X127660000Y-123554490D01*
X127660000Y-116941313D01*
X127765943Y-117197082D01*
X128141862Y-117759685D01*
X128620315Y-118238138D01*
X129182918Y-118614057D01*
X129808048Y-118872994D01*
X130471682Y-119005000D01*
X131148318Y-119005000D01*
X131811952Y-118872994D01*
X132437082Y-118614057D01*
X132489548Y-118579000D01*
X134885000Y-118579000D01*
X134885000Y-118879000D01*
X134947918Y-119263814D01*
X135084700Y-119628959D01*
X135290090Y-119960403D01*
X135556195Y-120245409D01*
X135872789Y-120473024D01*
X136227705Y-120634501D01*
X136434677Y-120688677D01*
X136743000Y-120573829D01*
X136743000Y-118579000D01*
X136997000Y-118579000D01*
X136997000Y-120573829D01*
X137305323Y-120688677D01*
X137512295Y-120634501D01*
X137867211Y-120473024D01*
X138183805Y-120245409D01*
X138449910Y-119960403D01*
X138655300Y-119628959D01*
X138792082Y-119263814D01*
X138855000Y-118879000D01*
X138855000Y-118579000D01*
X136997000Y-118579000D01*
X136743000Y-118579000D01*
X134885000Y-118579000D01*
X132489548Y-118579000D01*
X132999685Y-118238138D01*
X133212823Y-118025000D01*
X134885000Y-118025000D01*
X134885000Y-118325000D01*
X136743000Y-118325000D01*
X136743000Y-116330171D01*
X136997000Y-116330171D01*
X136997000Y-118325000D01*
X138855000Y-118325000D01*
X138855000Y-118054490D01*
X139085000Y-118054490D01*
X139085000Y-118849509D01*
X139113722Y-119141127D01*
X139227226Y-119515301D01*
X139411547Y-119860143D01*
X139659602Y-120162398D01*
X139961857Y-120410453D01*
X140306698Y-120594774D01*
X140680872Y-120708278D01*
X141070000Y-120746604D01*
X141459127Y-120708278D01*
X141833301Y-120594774D01*
X142178143Y-120410453D01*
X142480398Y-120162398D01*
X142728453Y-119860143D01*
X142912774Y-119515302D01*
X143026278Y-119141128D01*
X143055000Y-118849510D01*
X143055000Y-118054491D01*
X143026278Y-117762873D01*
X142912774Y-117388698D01*
X142728453Y-117043857D01*
X142480398Y-116741602D01*
X142178143Y-116493547D01*
X141833302Y-116309226D01*
X141459128Y-116195722D01*
X141070000Y-116157396D01*
X140680873Y-116195722D01*
X140306699Y-116309226D01*
X139961858Y-116493547D01*
X139659603Y-116741602D01*
X139411547Y-117043857D01*
X139227226Y-117388698D01*
X139113722Y-117762872D01*
X139085000Y-118054490D01*
X138855000Y-118054490D01*
X138855000Y-118025000D01*
X138792082Y-117640186D01*
X138655300Y-117275041D01*
X138449910Y-116943597D01*
X138183805Y-116658591D01*
X137867211Y-116430976D01*
X137512295Y-116269499D01*
X137305323Y-116215323D01*
X136997000Y-116330171D01*
X136743000Y-116330171D01*
X136434677Y-116215323D01*
X136227705Y-116269499D01*
X135872789Y-116430976D01*
X135556195Y-116658591D01*
X135290090Y-116943597D01*
X135084700Y-117275041D01*
X134947918Y-117640186D01*
X134885000Y-118025000D01*
X133212823Y-118025000D01*
X133478138Y-117759685D01*
X133854057Y-117197082D01*
X134112994Y-116571952D01*
X134245000Y-115908318D01*
X134245000Y-115231682D01*
X134112994Y-114568048D01*
X133854057Y-113942918D01*
X133478138Y-113380315D01*
X132999685Y-112901862D01*
X132437082Y-112525943D01*
X132181313Y-112420000D01*
X215798687Y-112420000D01*
X215542918Y-112525943D01*
G37*
%TD.AperFunction*%
%TD*%
M02*
