%TF.GenerationSoftware,KiCad,Pcbnew,5.1.9+dfsg1-1*%
%TF.CreationDate,2021-05-17T21:51:48+02:00*%
%TF.ProjectId,JoeMBMS,4a6f654d-424d-4532-9e6b-696361645f70,rev?*%
%TF.SameCoordinates,Original*%
%TF.FileFunction,Soldermask,Top*%
%TF.FilePolarity,Negative*%
%FSLAX46Y46*%
G04 Gerber Fmt 4.6, Leading zero omitted, Abs format (unit mm)*
G04 Created by KiCad (PCBNEW 5.1.9+dfsg1-1) date 2021-05-17 21:51:48*
%MOMM*%
%LPD*%
G01*
G04 APERTURE LIST*
%ADD10C,5.600000*%
%ADD11R,1.600000X1.600000*%
%ADD12C,1.600000*%
%ADD13O,2.700000X3.300000*%
%ADD14R,0.532132X1.702833*%
%ADD15R,0.720000X1.780000*%
%ADD16R,1.200000X2.200000*%
%ADD17R,5.800000X6.400000*%
%ADD18R,2.900000X1.025000*%
%ADD19R,0.650000X1.310000*%
%ADD20R,1.500000X2.300000*%
%ADD21O,1.500000X2.300000*%
G04 APERTURE END LIST*
%TO.C,C8*%
G36*
G01*
X208421000Y-133054000D02*
X208421000Y-134154000D01*
G75*
G02*
X208171000Y-134404000I-250000J0D01*
G01*
X205346000Y-134404000D01*
G75*
G02*
X205096000Y-134154000I0J250000D01*
G01*
X205096000Y-133054000D01*
G75*
G02*
X205346000Y-132804000I250000J0D01*
G01*
X208171000Y-132804000D01*
G75*
G02*
X208421000Y-133054000I0J-250000D01*
G01*
G37*
G36*
G01*
X213496000Y-133054000D02*
X213496000Y-134154000D01*
G75*
G02*
X213246000Y-134404000I-250000J0D01*
G01*
X210421000Y-134404000D01*
G75*
G02*
X210171000Y-134154000I0J250000D01*
G01*
X210171000Y-133054000D01*
G75*
G02*
X210421000Y-132804000I250000J0D01*
G01*
X213246000Y-132804000D01*
G75*
G02*
X213496000Y-133054000I0J-250000D01*
G01*
G37*
%TD*%
%TO.C,C7*%
G36*
G01*
X186394000Y-120001000D02*
X187494000Y-120001000D01*
G75*
G02*
X187744000Y-120251000I0J-250000D01*
G01*
X187744000Y-123076000D01*
G75*
G02*
X187494000Y-123326000I-250000J0D01*
G01*
X186394000Y-123326000D01*
G75*
G02*
X186144000Y-123076000I0J250000D01*
G01*
X186144000Y-120251000D01*
G75*
G02*
X186394000Y-120001000I250000J0D01*
G01*
G37*
G36*
G01*
X186394000Y-114926000D02*
X187494000Y-114926000D01*
G75*
G02*
X187744000Y-115176000I0J-250000D01*
G01*
X187744000Y-118001000D01*
G75*
G02*
X187494000Y-118251000I-250000J0D01*
G01*
X186394000Y-118251000D01*
G75*
G02*
X186144000Y-118001000I0J250000D01*
G01*
X186144000Y-115176000D01*
G75*
G02*
X186394000Y-114926000I250000J0D01*
G01*
G37*
%TD*%
%TO.C,C5*%
G36*
G01*
X208421000Y-143214000D02*
X208421000Y-144314000D01*
G75*
G02*
X208171000Y-144564000I-250000J0D01*
G01*
X205346000Y-144564000D01*
G75*
G02*
X205096000Y-144314000I0J250000D01*
G01*
X205096000Y-143214000D01*
G75*
G02*
X205346000Y-142964000I250000J0D01*
G01*
X208171000Y-142964000D01*
G75*
G02*
X208421000Y-143214000I0J-250000D01*
G01*
G37*
G36*
G01*
X213496000Y-143214000D02*
X213496000Y-144314000D01*
G75*
G02*
X213246000Y-144564000I-250000J0D01*
G01*
X210421000Y-144564000D01*
G75*
G02*
X210171000Y-144314000I0J250000D01*
G01*
X210171000Y-143214000D01*
G75*
G02*
X210421000Y-142964000I250000J0D01*
G01*
X213246000Y-142964000D01*
G75*
G02*
X213496000Y-143214000I0J-250000D01*
G01*
G37*
%TD*%
D10*
%TO.C,REF\u002A\u002A*%
X130810000Y-158750000D03*
%TD*%
%TO.C,REF\u002A\u002A*%
X130810000Y-115570000D03*
%TD*%
%TO.C,REF\u002A\u002A*%
X217170000Y-115570000D03*
%TD*%
%TO.C,REF\u002A\u002A*%
X217170000Y-158750000D03*
%TD*%
D11*
%TO.C,U1*%
X135382000Y-144780000D03*
D12*
X137922000Y-144780000D03*
X140462000Y-144780000D03*
X143002000Y-144780000D03*
X145542000Y-144780000D03*
X148082000Y-144780000D03*
X150622000Y-144780000D03*
X153162000Y-144780000D03*
X155702000Y-144780000D03*
X158242000Y-144780000D03*
X160782000Y-144780000D03*
X163322000Y-144780000D03*
X165862000Y-144780000D03*
X135382000Y-129540000D03*
X137922000Y-129540000D03*
X140462000Y-129540000D03*
X143002000Y-129540000D03*
X145542000Y-129540000D03*
X148082000Y-129540000D03*
X150622000Y-129540000D03*
X153162000Y-129540000D03*
X155702000Y-129540000D03*
X158242000Y-129540000D03*
X160782000Y-129540000D03*
X163322000Y-129540000D03*
X165862000Y-129540000D03*
X168402000Y-144780000D03*
X168402000Y-129540000D03*
%TD*%
%TO.C,R12*%
G36*
G01*
X198177999Y-137513000D02*
X199078001Y-137513000D01*
G75*
G02*
X199328000Y-137762999I0J-249999D01*
G01*
X199328000Y-138288001D01*
G75*
G02*
X199078001Y-138538000I-249999J0D01*
G01*
X198177999Y-138538000D01*
G75*
G02*
X197928000Y-138288001I0J249999D01*
G01*
X197928000Y-137762999D01*
G75*
G02*
X198177999Y-137513000I249999J0D01*
G01*
G37*
G36*
G01*
X198177999Y-139338000D02*
X199078001Y-139338000D01*
G75*
G02*
X199328000Y-139587999I0J-249999D01*
G01*
X199328000Y-140113001D01*
G75*
G02*
X199078001Y-140363000I-249999J0D01*
G01*
X198177999Y-140363000D01*
G75*
G02*
X197928000Y-140113001I0J249999D01*
G01*
X197928000Y-139587999D01*
G75*
G02*
X198177999Y-139338000I249999J0D01*
G01*
G37*
%TD*%
%TO.C,C1*%
G36*
G01*
X138971000Y-134186000D02*
X139921000Y-134186000D01*
G75*
G02*
X140171000Y-134436000I0J-250000D01*
G01*
X140171000Y-134936000D01*
G75*
G02*
X139921000Y-135186000I-250000J0D01*
G01*
X138971000Y-135186000D01*
G75*
G02*
X138721000Y-134936000I0J250000D01*
G01*
X138721000Y-134436000D01*
G75*
G02*
X138971000Y-134186000I250000J0D01*
G01*
G37*
G36*
G01*
X138971000Y-136086000D02*
X139921000Y-136086000D01*
G75*
G02*
X140171000Y-136336000I0J-250000D01*
G01*
X140171000Y-136836000D01*
G75*
G02*
X139921000Y-137086000I-250000J0D01*
G01*
X138971000Y-137086000D01*
G75*
G02*
X138721000Y-136836000I0J250000D01*
G01*
X138721000Y-136336000D01*
G75*
G02*
X138971000Y-136086000I250000J0D01*
G01*
G37*
%TD*%
%TO.C,C2*%
G36*
G01*
X136685000Y-136086000D02*
X137635000Y-136086000D01*
G75*
G02*
X137885000Y-136336000I0J-250000D01*
G01*
X137885000Y-136836000D01*
G75*
G02*
X137635000Y-137086000I-250000J0D01*
G01*
X136685000Y-137086000D01*
G75*
G02*
X136435000Y-136836000I0J250000D01*
G01*
X136435000Y-136336000D01*
G75*
G02*
X136685000Y-136086000I250000J0D01*
G01*
G37*
G36*
G01*
X136685000Y-134186000D02*
X137635000Y-134186000D01*
G75*
G02*
X137885000Y-134436000I0J-250000D01*
G01*
X137885000Y-134936000D01*
G75*
G02*
X137635000Y-135186000I-250000J0D01*
G01*
X136685000Y-135186000D01*
G75*
G02*
X136435000Y-134936000I0J250000D01*
G01*
X136435000Y-134436000D01*
G75*
G02*
X136685000Y-134186000I250000J0D01*
G01*
G37*
%TD*%
%TO.C,C3*%
G36*
G01*
X159291000Y-118306000D02*
X160241000Y-118306000D01*
G75*
G02*
X160491000Y-118556000I0J-250000D01*
G01*
X160491000Y-119056000D01*
G75*
G02*
X160241000Y-119306000I-250000J0D01*
G01*
X159291000Y-119306000D01*
G75*
G02*
X159041000Y-119056000I0J250000D01*
G01*
X159041000Y-118556000D01*
G75*
G02*
X159291000Y-118306000I250000J0D01*
G01*
G37*
G36*
G01*
X159291000Y-116406000D02*
X160241000Y-116406000D01*
G75*
G02*
X160491000Y-116656000I0J-250000D01*
G01*
X160491000Y-117156000D01*
G75*
G02*
X160241000Y-117406000I-250000J0D01*
G01*
X159291000Y-117406000D01*
G75*
G02*
X159041000Y-117156000I0J250000D01*
G01*
X159041000Y-116656000D01*
G75*
G02*
X159291000Y-116406000I250000J0D01*
G01*
G37*
%TD*%
%TO.C,C4*%
G36*
G01*
X178849000Y-120724000D02*
X179799000Y-120724000D01*
G75*
G02*
X180049000Y-120974000I0J-250000D01*
G01*
X180049000Y-121474000D01*
G75*
G02*
X179799000Y-121724000I-250000J0D01*
G01*
X178849000Y-121724000D01*
G75*
G02*
X178599000Y-121474000I0J250000D01*
G01*
X178599000Y-120974000D01*
G75*
G02*
X178849000Y-120724000I250000J0D01*
G01*
G37*
G36*
G01*
X178849000Y-122624000D02*
X179799000Y-122624000D01*
G75*
G02*
X180049000Y-122874000I0J-250000D01*
G01*
X180049000Y-123374000D01*
G75*
G02*
X179799000Y-123624000I-250000J0D01*
G01*
X178849000Y-123624000D01*
G75*
G02*
X178599000Y-123374000I0J250000D01*
G01*
X178599000Y-122874000D01*
G75*
G02*
X178849000Y-122624000I250000J0D01*
G01*
G37*
%TD*%
%TO.C,C6*%
G36*
G01*
X207698000Y-127033000D02*
X207698000Y-127983000D01*
G75*
G02*
X207448000Y-128233000I-250000J0D01*
G01*
X206948000Y-128233000D01*
G75*
G02*
X206698000Y-127983000I0J250000D01*
G01*
X206698000Y-127033000D01*
G75*
G02*
X206948000Y-126783000I250000J0D01*
G01*
X207448000Y-126783000D01*
G75*
G02*
X207698000Y-127033000I0J-250000D01*
G01*
G37*
G36*
G01*
X205798000Y-127033000D02*
X205798000Y-127983000D01*
G75*
G02*
X205548000Y-128233000I-250000J0D01*
G01*
X205048000Y-128233000D01*
G75*
G02*
X204798000Y-127983000I0J250000D01*
G01*
X204798000Y-127033000D01*
G75*
G02*
X205048000Y-126783000I250000J0D01*
G01*
X205548000Y-126783000D01*
G75*
G02*
X205798000Y-127033000I0J-250000D01*
G01*
G37*
%TD*%
D13*
%TO.C,J1*%
X145152000Y-150964000D03*
X149352000Y-150964000D03*
X145152000Y-156464000D03*
G36*
G01*
X150702000Y-155064001D02*
X150702000Y-157863999D01*
G75*
G02*
X150451999Y-158114000I-250001J0D01*
G01*
X148252001Y-158114000D01*
G75*
G02*
X148002000Y-157863999I0J250001D01*
G01*
X148002000Y-155064001D01*
G75*
G02*
X148252001Y-154814000I250001J0D01*
G01*
X150451999Y-154814000D01*
G75*
G02*
X150702000Y-155064001I0J-250001D01*
G01*
G37*
%TD*%
%TO.C,J2*%
G36*
G01*
X163910000Y-155064001D02*
X163910000Y-157863999D01*
G75*
G02*
X163659999Y-158114000I-250001J0D01*
G01*
X161460001Y-158114000D01*
G75*
G02*
X161210000Y-157863999I0J250001D01*
G01*
X161210000Y-155064001D01*
G75*
G02*
X161460001Y-154814000I250001J0D01*
G01*
X163659999Y-154814000D01*
G75*
G02*
X163910000Y-155064001I0J-250001D01*
G01*
G37*
X158360000Y-156464000D03*
X162560000Y-150964000D03*
X158360000Y-150964000D03*
%TD*%
%TO.C,J4*%
G36*
G01*
X170100000Y-152275999D02*
X170100000Y-149476001D01*
G75*
G02*
X170350001Y-149226000I250001J0D01*
G01*
X172549999Y-149226000D01*
G75*
G02*
X172800000Y-149476001I0J-250001D01*
G01*
X172800000Y-152275999D01*
G75*
G02*
X172549999Y-152526000I-250001J0D01*
G01*
X170350001Y-152526000D01*
G75*
G02*
X170100000Y-152275999I0J250001D01*
G01*
G37*
X175650000Y-150876000D03*
X179850000Y-150876000D03*
X184050000Y-150876000D03*
X188250000Y-150876000D03*
X192450000Y-150876000D03*
X196650000Y-150876000D03*
X200850000Y-150876000D03*
X171450000Y-156376000D03*
X175650000Y-156376000D03*
X179850000Y-156376000D03*
X184050000Y-156376000D03*
X188250000Y-156376000D03*
X192450000Y-156376000D03*
X196650000Y-156376000D03*
X200850000Y-156376000D03*
%TD*%
%TO.C,J5*%
G36*
G01*
X155020000Y-122552001D02*
X155020000Y-125351999D01*
G75*
G02*
X154769999Y-125602000I-250001J0D01*
G01*
X152570001Y-125602000D01*
G75*
G02*
X152320000Y-125351999I0J250001D01*
G01*
X152320000Y-122552001D01*
G75*
G02*
X152570001Y-122302000I250001J0D01*
G01*
X154769999Y-122302000D01*
G75*
G02*
X155020000Y-122552001I0J-250001D01*
G01*
G37*
X149470000Y-123952000D03*
X145270000Y-123952000D03*
X141070000Y-123952000D03*
X136870000Y-123952000D03*
X153670000Y-118452000D03*
X149470000Y-118452000D03*
X145270000Y-118452000D03*
X141070000Y-118452000D03*
X136870000Y-118452000D03*
%TD*%
D14*
%TO.C,Q1*%
X177419000Y-117141858D03*
G36*
G01*
X176149000Y-116290442D02*
X176149000Y-116290442D01*
G75*
G02*
X176415066Y-116556508I0J-266066D01*
G01*
X176415066Y-117727208D01*
G75*
G02*
X176149000Y-117993274I-266066J0D01*
G01*
X176149000Y-117993274D01*
G75*
G02*
X175882934Y-117727208I0J266066D01*
G01*
X175882934Y-116556508D01*
G75*
G02*
X176149000Y-116290442I266066J0D01*
G01*
G37*
G36*
G01*
X174879000Y-116290442D02*
X174879000Y-116290442D01*
G75*
G02*
X175145066Y-116556508I0J-266066D01*
G01*
X175145066Y-117727208D01*
G75*
G02*
X174879000Y-117993274I-266066J0D01*
G01*
X174879000Y-117993274D01*
G75*
G02*
X174612934Y-117727208I0J266066D01*
G01*
X174612934Y-116556508D01*
G75*
G02*
X174879000Y-116290442I266066J0D01*
G01*
G37*
G36*
G01*
X173609000Y-116290442D02*
X173609000Y-116290442D01*
G75*
G02*
X173875066Y-116556508I0J-266066D01*
G01*
X173875066Y-117727208D01*
G75*
G02*
X173609000Y-117993274I-266066J0D01*
G01*
X173609000Y-117993274D01*
G75*
G02*
X173342934Y-117727208I0J266066D01*
G01*
X173342934Y-116556508D01*
G75*
G02*
X173609000Y-116290442I266066J0D01*
G01*
G37*
G36*
G01*
X173609000Y-122290727D02*
X173609000Y-122290727D01*
G75*
G02*
X173875066Y-122556793I0J-266066D01*
G01*
X173875066Y-123727493D01*
G75*
G02*
X173609000Y-123993559I-266066J0D01*
G01*
X173609000Y-123993559D01*
G75*
G02*
X173342934Y-123727493I0J266066D01*
G01*
X173342934Y-122556793D01*
G75*
G02*
X173609000Y-122290727I266066J0D01*
G01*
G37*
G36*
G01*
X174879000Y-122290727D02*
X174879000Y-122290727D01*
G75*
G02*
X175145066Y-122556793I0J-266066D01*
G01*
X175145066Y-123727493D01*
G75*
G02*
X174879000Y-123993559I-266066J0D01*
G01*
X174879000Y-123993559D01*
G75*
G02*
X174612934Y-123727493I0J266066D01*
G01*
X174612934Y-122556793D01*
G75*
G02*
X174879000Y-122290727I266066J0D01*
G01*
G37*
G36*
G01*
X176149000Y-122290727D02*
X176149000Y-122290727D01*
G75*
G02*
X176415066Y-122556793I0J-266066D01*
G01*
X176415066Y-123727493D01*
G75*
G02*
X176149000Y-123993559I-266066J0D01*
G01*
X176149000Y-123993559D01*
G75*
G02*
X175882934Y-123727493I0J266066D01*
G01*
X175882934Y-122556793D01*
G75*
G02*
X176149000Y-122290727I266066J0D01*
G01*
G37*
G36*
G01*
X177419000Y-122290727D02*
X177419000Y-122290727D01*
G75*
G02*
X177685066Y-122556793I0J-266066D01*
G01*
X177685066Y-123727493D01*
G75*
G02*
X177419000Y-123993559I-266066J0D01*
G01*
X177419000Y-123993559D01*
G75*
G02*
X177152934Y-123727493I0J266066D01*
G01*
X177152934Y-122556793D01*
G75*
G02*
X177419000Y-122290727I266066J0D01*
G01*
G37*
%TD*%
%TO.C,Q2*%
G36*
G01*
X165735000Y-122290727D02*
X165735000Y-122290727D01*
G75*
G02*
X166001066Y-122556793I0J-266066D01*
G01*
X166001066Y-123727493D01*
G75*
G02*
X165735000Y-123993559I-266066J0D01*
G01*
X165735000Y-123993559D01*
G75*
G02*
X165468934Y-123727493I0J266066D01*
G01*
X165468934Y-122556793D01*
G75*
G02*
X165735000Y-122290727I266066J0D01*
G01*
G37*
G36*
G01*
X164465000Y-122290727D02*
X164465000Y-122290727D01*
G75*
G02*
X164731066Y-122556793I0J-266066D01*
G01*
X164731066Y-123727493D01*
G75*
G02*
X164465000Y-123993559I-266066J0D01*
G01*
X164465000Y-123993559D01*
G75*
G02*
X164198934Y-123727493I0J266066D01*
G01*
X164198934Y-122556793D01*
G75*
G02*
X164465000Y-122290727I266066J0D01*
G01*
G37*
G36*
G01*
X163195000Y-122290727D02*
X163195000Y-122290727D01*
G75*
G02*
X163461066Y-122556793I0J-266066D01*
G01*
X163461066Y-123727493D01*
G75*
G02*
X163195000Y-123993559I-266066J0D01*
G01*
X163195000Y-123993559D01*
G75*
G02*
X162928934Y-123727493I0J266066D01*
G01*
X162928934Y-122556793D01*
G75*
G02*
X163195000Y-122290727I266066J0D01*
G01*
G37*
G36*
G01*
X161925000Y-122290727D02*
X161925000Y-122290727D01*
G75*
G02*
X162191066Y-122556793I0J-266066D01*
G01*
X162191066Y-123727493D01*
G75*
G02*
X161925000Y-123993559I-266066J0D01*
G01*
X161925000Y-123993559D01*
G75*
G02*
X161658934Y-123727493I0J266066D01*
G01*
X161658934Y-122556793D01*
G75*
G02*
X161925000Y-122290727I266066J0D01*
G01*
G37*
G36*
G01*
X161925000Y-116290442D02*
X161925000Y-116290442D01*
G75*
G02*
X162191066Y-116556508I0J-266066D01*
G01*
X162191066Y-117727208D01*
G75*
G02*
X161925000Y-117993274I-266066J0D01*
G01*
X161925000Y-117993274D01*
G75*
G02*
X161658934Y-117727208I0J266066D01*
G01*
X161658934Y-116556508D01*
G75*
G02*
X161925000Y-116290442I266066J0D01*
G01*
G37*
G36*
G01*
X163195000Y-116290442D02*
X163195000Y-116290442D01*
G75*
G02*
X163461066Y-116556508I0J-266066D01*
G01*
X163461066Y-117727208D01*
G75*
G02*
X163195000Y-117993274I-266066J0D01*
G01*
X163195000Y-117993274D01*
G75*
G02*
X162928934Y-117727208I0J266066D01*
G01*
X162928934Y-116556508D01*
G75*
G02*
X163195000Y-116290442I266066J0D01*
G01*
G37*
G36*
G01*
X164465000Y-116290442D02*
X164465000Y-116290442D01*
G75*
G02*
X164731066Y-116556508I0J-266066D01*
G01*
X164731066Y-117727208D01*
G75*
G02*
X164465000Y-117993274I-266066J0D01*
G01*
X164465000Y-117993274D01*
G75*
G02*
X164198934Y-117727208I0J266066D01*
G01*
X164198934Y-116556508D01*
G75*
G02*
X164465000Y-116290442I266066J0D01*
G01*
G37*
X165735000Y-117141858D03*
%TD*%
D15*
%TO.C,Q3*%
X201549000Y-141916000D03*
X199009000Y-141916000D03*
X200279000Y-141916000D03*
X197739000Y-141916000D03*
X197739000Y-147136000D03*
X199009000Y-147136000D03*
X200279000Y-147136000D03*
X201549000Y-147136000D03*
%TD*%
%TO.C,Q4*%
X192405000Y-147136000D03*
X191135000Y-147136000D03*
X189865000Y-147136000D03*
X188595000Y-147136000D03*
X188595000Y-141916000D03*
X191135000Y-141916000D03*
X189865000Y-141916000D03*
X192405000Y-141916000D03*
%TD*%
D16*
%TO.C,Q5*%
X210560000Y-150672000D03*
X206000000Y-150672000D03*
D17*
X208280000Y-156972000D03*
%TD*%
%TO.C,R1*%
G36*
G01*
X141281999Y-136036000D02*
X142182001Y-136036000D01*
G75*
G02*
X142432000Y-136285999I0J-249999D01*
G01*
X142432000Y-136811001D01*
G75*
G02*
X142182001Y-137061000I-249999J0D01*
G01*
X141281999Y-137061000D01*
G75*
G02*
X141032000Y-136811001I0J249999D01*
G01*
X141032000Y-136285999D01*
G75*
G02*
X141281999Y-136036000I249999J0D01*
G01*
G37*
G36*
G01*
X141281999Y-134211000D02*
X142182001Y-134211000D01*
G75*
G02*
X142432000Y-134460999I0J-249999D01*
G01*
X142432000Y-134986001D01*
G75*
G02*
X142182001Y-135236000I-249999J0D01*
G01*
X141281999Y-135236000D01*
G75*
G02*
X141032000Y-134986001I0J249999D01*
G01*
X141032000Y-134460999D01*
G75*
G02*
X141281999Y-134211000I249999J0D01*
G01*
G37*
%TD*%
%TO.C,R2*%
G36*
G01*
X179774001Y-118218000D02*
X178873999Y-118218000D01*
G75*
G02*
X178624000Y-117968001I0J249999D01*
G01*
X178624000Y-117442999D01*
G75*
G02*
X178873999Y-117193000I249999J0D01*
G01*
X179774001Y-117193000D01*
G75*
G02*
X180024000Y-117442999I0J-249999D01*
G01*
X180024000Y-117968001D01*
G75*
G02*
X179774001Y-118218000I-249999J0D01*
G01*
G37*
G36*
G01*
X179774001Y-120043000D02*
X178873999Y-120043000D01*
G75*
G02*
X178624000Y-119793001I0J249999D01*
G01*
X178624000Y-119267999D01*
G75*
G02*
X178873999Y-119018000I249999J0D01*
G01*
X179774001Y-119018000D01*
G75*
G02*
X180024000Y-119267999I0J-249999D01*
G01*
X180024000Y-119793001D01*
G75*
G02*
X179774001Y-120043000I-249999J0D01*
G01*
G37*
%TD*%
%TO.C,R3*%
G36*
G01*
X172154001Y-119281000D02*
X171253999Y-119281000D01*
G75*
G02*
X171004000Y-119031001I0J249999D01*
G01*
X171004000Y-118505999D01*
G75*
G02*
X171253999Y-118256000I249999J0D01*
G01*
X172154001Y-118256000D01*
G75*
G02*
X172404000Y-118505999I0J-249999D01*
G01*
X172404000Y-119031001D01*
G75*
G02*
X172154001Y-119281000I-249999J0D01*
G01*
G37*
G36*
G01*
X172154001Y-117456000D02*
X171253999Y-117456000D01*
G75*
G02*
X171004000Y-117206001I0J249999D01*
G01*
X171004000Y-116680999D01*
G75*
G02*
X171253999Y-116431000I249999J0D01*
G01*
X172154001Y-116431000D01*
G75*
G02*
X172404000Y-116680999I0J-249999D01*
G01*
X172404000Y-117206001D01*
G75*
G02*
X172154001Y-117456000I-249999J0D01*
G01*
G37*
%TD*%
%TO.C,R4*%
G36*
G01*
X164183000Y-115512001D02*
X164183000Y-114611999D01*
G75*
G02*
X164432999Y-114362000I249999J0D01*
G01*
X164958001Y-114362000D01*
G75*
G02*
X165208000Y-114611999I0J-249999D01*
G01*
X165208000Y-115512001D01*
G75*
G02*
X164958001Y-115762000I-249999J0D01*
G01*
X164432999Y-115762000D01*
G75*
G02*
X164183000Y-115512001I0J249999D01*
G01*
G37*
G36*
G01*
X166008000Y-115512001D02*
X166008000Y-114611999D01*
G75*
G02*
X166257999Y-114362000I249999J0D01*
G01*
X166783001Y-114362000D01*
G75*
G02*
X167033000Y-114611999I0J-249999D01*
G01*
X167033000Y-115512001D01*
G75*
G02*
X166783001Y-115762000I-249999J0D01*
G01*
X166257999Y-115762000D01*
G75*
G02*
X166008000Y-115512001I0J249999D01*
G01*
G37*
%TD*%
%TO.C,R5*%
G36*
G01*
X162452000Y-115512001D02*
X162452000Y-114611999D01*
G75*
G02*
X162701999Y-114362000I249999J0D01*
G01*
X163227001Y-114362000D01*
G75*
G02*
X163477000Y-114611999I0J-249999D01*
G01*
X163477000Y-115512001D01*
G75*
G02*
X163227001Y-115762000I-249999J0D01*
G01*
X162701999Y-115762000D01*
G75*
G02*
X162452000Y-115512001I0J249999D01*
G01*
G37*
G36*
G01*
X160627000Y-115512001D02*
X160627000Y-114611999D01*
G75*
G02*
X160876999Y-114362000I249999J0D01*
G01*
X161402001Y-114362000D01*
G75*
G02*
X161652000Y-114611999I0J-249999D01*
G01*
X161652000Y-115512001D01*
G75*
G02*
X161402001Y-115762000I-249999J0D01*
G01*
X160876999Y-115762000D01*
G75*
G02*
X160627000Y-115512001I0J249999D01*
G01*
G37*
%TD*%
%TO.C,R6*%
G36*
G01*
X176892000Y-124771999D02*
X176892000Y-125672001D01*
G75*
G02*
X176642001Y-125922000I-249999J0D01*
G01*
X176116999Y-125922000D01*
G75*
G02*
X175867000Y-125672001I0J249999D01*
G01*
X175867000Y-124771999D01*
G75*
G02*
X176116999Y-124522000I249999J0D01*
G01*
X176642001Y-124522000D01*
G75*
G02*
X176892000Y-124771999I0J-249999D01*
G01*
G37*
G36*
G01*
X178717000Y-124771999D02*
X178717000Y-125672001D01*
G75*
G02*
X178467001Y-125922000I-249999J0D01*
G01*
X177941999Y-125922000D01*
G75*
G02*
X177692000Y-125672001I0J249999D01*
G01*
X177692000Y-124771999D01*
G75*
G02*
X177941999Y-124522000I249999J0D01*
G01*
X178467001Y-124522000D01*
G75*
G02*
X178717000Y-124771999I0J-249999D01*
G01*
G37*
%TD*%
%TO.C,R7*%
G36*
G01*
X172311000Y-125672001D02*
X172311000Y-124771999D01*
G75*
G02*
X172560999Y-124522000I249999J0D01*
G01*
X173086001Y-124522000D01*
G75*
G02*
X173336000Y-124771999I0J-249999D01*
G01*
X173336000Y-125672001D01*
G75*
G02*
X173086001Y-125922000I-249999J0D01*
G01*
X172560999Y-125922000D01*
G75*
G02*
X172311000Y-125672001I0J249999D01*
G01*
G37*
G36*
G01*
X174136000Y-125672001D02*
X174136000Y-124771999D01*
G75*
G02*
X174385999Y-124522000I249999J0D01*
G01*
X174911001Y-124522000D01*
G75*
G02*
X175161000Y-124771999I0J-249999D01*
G01*
X175161000Y-125672001D01*
G75*
G02*
X174911001Y-125922000I-249999J0D01*
G01*
X174385999Y-125922000D01*
G75*
G02*
X174136000Y-125672001I0J249999D01*
G01*
G37*
%TD*%
%TO.C,R8*%
G36*
G01*
X167033000Y-124771999D02*
X167033000Y-125672001D01*
G75*
G02*
X166783001Y-125922000I-249999J0D01*
G01*
X166257999Y-125922000D01*
G75*
G02*
X166008000Y-125672001I0J249999D01*
G01*
X166008000Y-124771999D01*
G75*
G02*
X166257999Y-124522000I249999J0D01*
G01*
X166783001Y-124522000D01*
G75*
G02*
X167033000Y-124771999I0J-249999D01*
G01*
G37*
G36*
G01*
X165208000Y-124771999D02*
X165208000Y-125672001D01*
G75*
G02*
X164958001Y-125922000I-249999J0D01*
G01*
X164432999Y-125922000D01*
G75*
G02*
X164183000Y-125672001I0J249999D01*
G01*
X164183000Y-124771999D01*
G75*
G02*
X164432999Y-124522000I249999J0D01*
G01*
X164958001Y-124522000D01*
G75*
G02*
X165208000Y-124771999I0J-249999D01*
G01*
G37*
%TD*%
%TO.C,R9*%
G36*
G01*
X162452000Y-125672001D02*
X162452000Y-124771999D01*
G75*
G02*
X162701999Y-124522000I249999J0D01*
G01*
X163227001Y-124522000D01*
G75*
G02*
X163477000Y-124771999I0J-249999D01*
G01*
X163477000Y-125672001D01*
G75*
G02*
X163227001Y-125922000I-249999J0D01*
G01*
X162701999Y-125922000D01*
G75*
G02*
X162452000Y-125672001I0J249999D01*
G01*
G37*
G36*
G01*
X160627000Y-125672001D02*
X160627000Y-124771999D01*
G75*
G02*
X160876999Y-124522000I249999J0D01*
G01*
X161402001Y-124522000D01*
G75*
G02*
X161652000Y-124771999I0J-249999D01*
G01*
X161652000Y-125672001D01*
G75*
G02*
X161402001Y-125922000I-249999J0D01*
G01*
X160876999Y-125922000D01*
G75*
G02*
X160627000Y-125672001I0J249999D01*
G01*
G37*
%TD*%
%TO.C,R10*%
G36*
G01*
X202241999Y-137513000D02*
X203142001Y-137513000D01*
G75*
G02*
X203392000Y-137762999I0J-249999D01*
G01*
X203392000Y-138288001D01*
G75*
G02*
X203142001Y-138538000I-249999J0D01*
G01*
X202241999Y-138538000D01*
G75*
G02*
X201992000Y-138288001I0J249999D01*
G01*
X201992000Y-137762999D01*
G75*
G02*
X202241999Y-137513000I249999J0D01*
G01*
G37*
G36*
G01*
X202241999Y-139338000D02*
X203142001Y-139338000D01*
G75*
G02*
X203392000Y-139587999I0J-249999D01*
G01*
X203392000Y-140113001D01*
G75*
G02*
X203142001Y-140363000I-249999J0D01*
G01*
X202241999Y-140363000D01*
G75*
G02*
X201992000Y-140113001I0J249999D01*
G01*
X201992000Y-139587999D01*
G75*
G02*
X202241999Y-139338000I249999J0D01*
G01*
G37*
%TD*%
%TO.C,R11*%
G36*
G01*
X200209999Y-139338000D02*
X201110001Y-139338000D01*
G75*
G02*
X201360000Y-139587999I0J-249999D01*
G01*
X201360000Y-140113001D01*
G75*
G02*
X201110001Y-140363000I-249999J0D01*
G01*
X200209999Y-140363000D01*
G75*
G02*
X199960000Y-140113001I0J249999D01*
G01*
X199960000Y-139587999D01*
G75*
G02*
X200209999Y-139338000I249999J0D01*
G01*
G37*
G36*
G01*
X200209999Y-137513000D02*
X201110001Y-137513000D01*
G75*
G02*
X201360000Y-137762999I0J-249999D01*
G01*
X201360000Y-138288001D01*
G75*
G02*
X201110001Y-138538000I-249999J0D01*
G01*
X200209999Y-138538000D01*
G75*
G02*
X199960000Y-138288001I0J249999D01*
G01*
X199960000Y-137762999D01*
G75*
G02*
X200209999Y-137513000I249999J0D01*
G01*
G37*
%TD*%
%TO.C,R13*%
G36*
G01*
X196145999Y-137513000D02*
X197046001Y-137513000D01*
G75*
G02*
X197296000Y-137762999I0J-249999D01*
G01*
X197296000Y-138288001D01*
G75*
G02*
X197046001Y-138538000I-249999J0D01*
G01*
X196145999Y-138538000D01*
G75*
G02*
X195896000Y-138288001I0J249999D01*
G01*
X195896000Y-137762999D01*
G75*
G02*
X196145999Y-137513000I249999J0D01*
G01*
G37*
G36*
G01*
X196145999Y-139338000D02*
X197046001Y-139338000D01*
G75*
G02*
X197296000Y-139587999I0J-249999D01*
G01*
X197296000Y-140113001D01*
G75*
G02*
X197046001Y-140363000I-249999J0D01*
G01*
X196145999Y-140363000D01*
G75*
G02*
X195896000Y-140113001I0J249999D01*
G01*
X195896000Y-139587999D01*
G75*
G02*
X196145999Y-139338000I249999J0D01*
G01*
G37*
%TD*%
%TO.C,R14*%
G36*
G01*
X193097999Y-137513000D02*
X193998001Y-137513000D01*
G75*
G02*
X194248000Y-137762999I0J-249999D01*
G01*
X194248000Y-138288001D01*
G75*
G02*
X193998001Y-138538000I-249999J0D01*
G01*
X193097999Y-138538000D01*
G75*
G02*
X192848000Y-138288001I0J249999D01*
G01*
X192848000Y-137762999D01*
G75*
G02*
X193097999Y-137513000I249999J0D01*
G01*
G37*
G36*
G01*
X193097999Y-139338000D02*
X193998001Y-139338000D01*
G75*
G02*
X194248000Y-139587999I0J-249999D01*
G01*
X194248000Y-140113001D01*
G75*
G02*
X193998001Y-140363000I-249999J0D01*
G01*
X193097999Y-140363000D01*
G75*
G02*
X192848000Y-140113001I0J249999D01*
G01*
X192848000Y-139587999D01*
G75*
G02*
X193097999Y-139338000I249999J0D01*
G01*
G37*
%TD*%
%TO.C,R15*%
G36*
G01*
X191065999Y-139338000D02*
X191966001Y-139338000D01*
G75*
G02*
X192216000Y-139587999I0J-249999D01*
G01*
X192216000Y-140113001D01*
G75*
G02*
X191966001Y-140363000I-249999J0D01*
G01*
X191065999Y-140363000D01*
G75*
G02*
X190816000Y-140113001I0J249999D01*
G01*
X190816000Y-139587999D01*
G75*
G02*
X191065999Y-139338000I249999J0D01*
G01*
G37*
G36*
G01*
X191065999Y-137513000D02*
X191966001Y-137513000D01*
G75*
G02*
X192216000Y-137762999I0J-249999D01*
G01*
X192216000Y-138288001D01*
G75*
G02*
X191966001Y-138538000I-249999J0D01*
G01*
X191065999Y-138538000D01*
G75*
G02*
X190816000Y-138288001I0J249999D01*
G01*
X190816000Y-137762999D01*
G75*
G02*
X191065999Y-137513000I249999J0D01*
G01*
G37*
%TD*%
%TO.C,R16*%
G36*
G01*
X189033999Y-137513000D02*
X189934001Y-137513000D01*
G75*
G02*
X190184000Y-137762999I0J-249999D01*
G01*
X190184000Y-138288001D01*
G75*
G02*
X189934001Y-138538000I-249999J0D01*
G01*
X189033999Y-138538000D01*
G75*
G02*
X188784000Y-138288001I0J249999D01*
G01*
X188784000Y-137762999D01*
G75*
G02*
X189033999Y-137513000I249999J0D01*
G01*
G37*
G36*
G01*
X189033999Y-139338000D02*
X189934001Y-139338000D01*
G75*
G02*
X190184000Y-139587999I0J-249999D01*
G01*
X190184000Y-140113001D01*
G75*
G02*
X189934001Y-140363000I-249999J0D01*
G01*
X189033999Y-140363000D01*
G75*
G02*
X188784000Y-140113001I0J249999D01*
G01*
X188784000Y-139587999D01*
G75*
G02*
X189033999Y-139338000I249999J0D01*
G01*
G37*
%TD*%
%TO.C,R17*%
G36*
G01*
X187001999Y-139338000D02*
X187902001Y-139338000D01*
G75*
G02*
X188152000Y-139587999I0J-249999D01*
G01*
X188152000Y-140113001D01*
G75*
G02*
X187902001Y-140363000I-249999J0D01*
G01*
X187001999Y-140363000D01*
G75*
G02*
X186752000Y-140113001I0J249999D01*
G01*
X186752000Y-139587999D01*
G75*
G02*
X187001999Y-139338000I249999J0D01*
G01*
G37*
G36*
G01*
X187001999Y-137513000D02*
X187902001Y-137513000D01*
G75*
G02*
X188152000Y-137762999I0J-249999D01*
G01*
X188152000Y-138288001D01*
G75*
G02*
X187902001Y-138538000I-249999J0D01*
G01*
X187001999Y-138538000D01*
G75*
G02*
X186752000Y-138288001I0J249999D01*
G01*
X186752000Y-137762999D01*
G75*
G02*
X187001999Y-137513000I249999J0D01*
G01*
G37*
%TD*%
%TO.C,R18*%
G36*
G01*
X159442999Y-133953200D02*
X160343001Y-133953200D01*
G75*
G02*
X160593000Y-134203199I0J-249999D01*
G01*
X160593000Y-134728201D01*
G75*
G02*
X160343001Y-134978200I-249999J0D01*
G01*
X159442999Y-134978200D01*
G75*
G02*
X159193000Y-134728201I0J249999D01*
G01*
X159193000Y-134203199D01*
G75*
G02*
X159442999Y-133953200I249999J0D01*
G01*
G37*
G36*
G01*
X159442999Y-132128200D02*
X160343001Y-132128200D01*
G75*
G02*
X160593000Y-132378199I0J-249999D01*
G01*
X160593000Y-132903201D01*
G75*
G02*
X160343001Y-133153200I-249999J0D01*
G01*
X159442999Y-133153200D01*
G75*
G02*
X159193000Y-132903201I0J249999D01*
G01*
X159193000Y-132378199D01*
G75*
G02*
X159442999Y-132128200I249999J0D01*
G01*
G37*
%TD*%
%TO.C,R19*%
G36*
G01*
X162883001Y-134978200D02*
X161982999Y-134978200D01*
G75*
G02*
X161733000Y-134728201I0J249999D01*
G01*
X161733000Y-134203199D01*
G75*
G02*
X161982999Y-133953200I249999J0D01*
G01*
X162883001Y-133953200D01*
G75*
G02*
X163133000Y-134203199I0J-249999D01*
G01*
X163133000Y-134728201D01*
G75*
G02*
X162883001Y-134978200I-249999J0D01*
G01*
G37*
G36*
G01*
X162883001Y-133153200D02*
X161982999Y-133153200D01*
G75*
G02*
X161733000Y-132903201I0J249999D01*
G01*
X161733000Y-132378199D01*
G75*
G02*
X161982999Y-132128200I249999J0D01*
G01*
X162883001Y-132128200D01*
G75*
G02*
X163133000Y-132378199I0J-249999D01*
G01*
X163133000Y-132903201D01*
G75*
G02*
X162883001Y-133153200I-249999J0D01*
G01*
G37*
%TD*%
%TO.C,R20*%
G36*
G01*
X161525000Y-135947999D02*
X161525000Y-136848001D01*
G75*
G02*
X161275001Y-137098000I-249999J0D01*
G01*
X160749999Y-137098000D01*
G75*
G02*
X160500000Y-136848001I0J249999D01*
G01*
X160500000Y-135947999D01*
G75*
G02*
X160749999Y-135698000I249999J0D01*
G01*
X161275001Y-135698000D01*
G75*
G02*
X161525000Y-135947999I0J-249999D01*
G01*
G37*
G36*
G01*
X163350000Y-135947999D02*
X163350000Y-136848001D01*
G75*
G02*
X163100001Y-137098000I-249999J0D01*
G01*
X162574999Y-137098000D01*
G75*
G02*
X162325000Y-136848001I0J249999D01*
G01*
X162325000Y-135947999D01*
G75*
G02*
X162574999Y-135698000I249999J0D01*
G01*
X163100001Y-135698000D01*
G75*
G02*
X163350000Y-135947999I0J-249999D01*
G01*
G37*
%TD*%
%TO.C,R21*%
G36*
G01*
X167443999Y-132128200D02*
X168344001Y-132128200D01*
G75*
G02*
X168594000Y-132378199I0J-249999D01*
G01*
X168594000Y-132903201D01*
G75*
G02*
X168344001Y-133153200I-249999J0D01*
G01*
X167443999Y-133153200D01*
G75*
G02*
X167194000Y-132903201I0J249999D01*
G01*
X167194000Y-132378199D01*
G75*
G02*
X167443999Y-132128200I249999J0D01*
G01*
G37*
G36*
G01*
X167443999Y-133953200D02*
X168344001Y-133953200D01*
G75*
G02*
X168594000Y-134203199I0J-249999D01*
G01*
X168594000Y-134728201D01*
G75*
G02*
X168344001Y-134978200I-249999J0D01*
G01*
X167443999Y-134978200D01*
G75*
G02*
X167194000Y-134728201I0J249999D01*
G01*
X167194000Y-134203199D01*
G75*
G02*
X167443999Y-133953200I249999J0D01*
G01*
G37*
%TD*%
%TO.C,R22*%
G36*
G01*
X165804001Y-133153200D02*
X164903999Y-133153200D01*
G75*
G02*
X164654000Y-132903201I0J249999D01*
G01*
X164654000Y-132378199D01*
G75*
G02*
X164903999Y-132128200I249999J0D01*
G01*
X165804001Y-132128200D01*
G75*
G02*
X166054000Y-132378199I0J-249999D01*
G01*
X166054000Y-132903201D01*
G75*
G02*
X165804001Y-133153200I-249999J0D01*
G01*
G37*
G36*
G01*
X165804001Y-134978200D02*
X164903999Y-134978200D01*
G75*
G02*
X164654000Y-134728201I0J249999D01*
G01*
X164654000Y-134203199D01*
G75*
G02*
X164903999Y-133953200I249999J0D01*
G01*
X165804001Y-133953200D01*
G75*
G02*
X166054000Y-134203199I0J-249999D01*
G01*
X166054000Y-134728201D01*
G75*
G02*
X165804001Y-134978200I-249999J0D01*
G01*
G37*
%TD*%
%TO.C,R23*%
G36*
G01*
X164183000Y-136848001D02*
X164183000Y-135947999D01*
G75*
G02*
X164432999Y-135698000I249999J0D01*
G01*
X164958001Y-135698000D01*
G75*
G02*
X165208000Y-135947999I0J-249999D01*
G01*
X165208000Y-136848001D01*
G75*
G02*
X164958001Y-137098000I-249999J0D01*
G01*
X164432999Y-137098000D01*
G75*
G02*
X164183000Y-136848001I0J249999D01*
G01*
G37*
G36*
G01*
X166008000Y-136848001D02*
X166008000Y-135947999D01*
G75*
G02*
X166257999Y-135698000I249999J0D01*
G01*
X166783001Y-135698000D01*
G75*
G02*
X167033000Y-135947999I0J-249999D01*
G01*
X167033000Y-136848001D01*
G75*
G02*
X166783001Y-137098000I-249999J0D01*
G01*
X166257999Y-137098000D01*
G75*
G02*
X166008000Y-136848001I0J249999D01*
G01*
G37*
%TD*%
D18*
%TO.C,S1*%
X180974000Y-141682500D03*
X177674000Y-141682500D03*
X177674000Y-140257500D03*
D19*
X183134000Y-143815000D03*
X183134000Y-138125000D03*
X181864000Y-143815000D03*
X181864000Y-138125000D03*
X180594000Y-143815000D03*
X180594000Y-138125000D03*
X179324000Y-143815000D03*
X179324000Y-138125000D03*
X178054000Y-143815000D03*
X178054000Y-138125000D03*
X176784000Y-143815000D03*
X176784000Y-138125000D03*
X175514000Y-143815000D03*
X175514000Y-138125000D03*
D18*
X180974000Y-140257500D03*
%TD*%
%TO.C,U2*%
G36*
G01*
X144295000Y-141118000D02*
X143995000Y-141118000D01*
G75*
G02*
X143845000Y-140968000I0J150000D01*
G01*
X143845000Y-139318000D01*
G75*
G02*
X143995000Y-139168000I150000J0D01*
G01*
X144295000Y-139168000D01*
G75*
G02*
X144445000Y-139318000I0J-150000D01*
G01*
X144445000Y-140968000D01*
G75*
G02*
X144295000Y-141118000I-150000J0D01*
G01*
G37*
G36*
G01*
X145565000Y-141118000D02*
X145265000Y-141118000D01*
G75*
G02*
X145115000Y-140968000I0J150000D01*
G01*
X145115000Y-139318000D01*
G75*
G02*
X145265000Y-139168000I150000J0D01*
G01*
X145565000Y-139168000D01*
G75*
G02*
X145715000Y-139318000I0J-150000D01*
G01*
X145715000Y-140968000D01*
G75*
G02*
X145565000Y-141118000I-150000J0D01*
G01*
G37*
G36*
G01*
X146835000Y-141118000D02*
X146535000Y-141118000D01*
G75*
G02*
X146385000Y-140968000I0J150000D01*
G01*
X146385000Y-139318000D01*
G75*
G02*
X146535000Y-139168000I150000J0D01*
G01*
X146835000Y-139168000D01*
G75*
G02*
X146985000Y-139318000I0J-150000D01*
G01*
X146985000Y-140968000D01*
G75*
G02*
X146835000Y-141118000I-150000J0D01*
G01*
G37*
G36*
G01*
X148105000Y-141118000D02*
X147805000Y-141118000D01*
G75*
G02*
X147655000Y-140968000I0J150000D01*
G01*
X147655000Y-139318000D01*
G75*
G02*
X147805000Y-139168000I150000J0D01*
G01*
X148105000Y-139168000D01*
G75*
G02*
X148255000Y-139318000I0J-150000D01*
G01*
X148255000Y-140968000D01*
G75*
G02*
X148105000Y-141118000I-150000J0D01*
G01*
G37*
G36*
G01*
X148105000Y-136168000D02*
X147805000Y-136168000D01*
G75*
G02*
X147655000Y-136018000I0J150000D01*
G01*
X147655000Y-134368000D01*
G75*
G02*
X147805000Y-134218000I150000J0D01*
G01*
X148105000Y-134218000D01*
G75*
G02*
X148255000Y-134368000I0J-150000D01*
G01*
X148255000Y-136018000D01*
G75*
G02*
X148105000Y-136168000I-150000J0D01*
G01*
G37*
G36*
G01*
X146835000Y-136168000D02*
X146535000Y-136168000D01*
G75*
G02*
X146385000Y-136018000I0J150000D01*
G01*
X146385000Y-134368000D01*
G75*
G02*
X146535000Y-134218000I150000J0D01*
G01*
X146835000Y-134218000D01*
G75*
G02*
X146985000Y-134368000I0J-150000D01*
G01*
X146985000Y-136018000D01*
G75*
G02*
X146835000Y-136168000I-150000J0D01*
G01*
G37*
G36*
G01*
X145565000Y-136168000D02*
X145265000Y-136168000D01*
G75*
G02*
X145115000Y-136018000I0J150000D01*
G01*
X145115000Y-134368000D01*
G75*
G02*
X145265000Y-134218000I150000J0D01*
G01*
X145565000Y-134218000D01*
G75*
G02*
X145715000Y-134368000I0J-150000D01*
G01*
X145715000Y-136018000D01*
G75*
G02*
X145565000Y-136168000I-150000J0D01*
G01*
G37*
G36*
G01*
X144295000Y-136168000D02*
X143995000Y-136168000D01*
G75*
G02*
X143845000Y-136018000I0J150000D01*
G01*
X143845000Y-134368000D01*
G75*
G02*
X143995000Y-134218000I150000J0D01*
G01*
X144295000Y-134218000D01*
G75*
G02*
X144445000Y-134368000I0J-150000D01*
G01*
X144445000Y-136018000D01*
G75*
G02*
X144295000Y-136168000I-150000J0D01*
G01*
G37*
%TD*%
D20*
%TO.C,U3*%
X198628000Y-126492000D03*
D21*
X196088000Y-126492000D03*
X193548000Y-126492000D03*
%TD*%
M02*
