%TF.GenerationSoftware,KiCad,Pcbnew,5.1.9+dfsg1-1*%
%TF.CreationDate,2021-07-09T17:21:31+02:00*%
%TF.ProjectId,JoeMBMS_V1.1,4a6f654d-424d-4535-9f56-312e312e6b69,rev?*%
%TF.SameCoordinates,Original*%
%TF.FileFunction,Copper,L2,Bot*%
%TF.FilePolarity,Positive*%
%FSLAX46Y46*%
G04 Gerber Fmt 4.6, Leading zero omitted, Abs format (unit mm)*
G04 Created by KiCad (PCBNEW 5.1.9+dfsg1-1) date 2021-07-09 17:21:31*
%MOMM*%
%LPD*%
G01*
G04 APERTURE LIST*
%TA.AperFunction,ConnectorPad*%
%ADD10C,5.600000*%
%TD*%
%TA.AperFunction,ComponentPad*%
%ADD11C,3.600000*%
%TD*%
%TA.AperFunction,ComponentPad*%
%ADD12O,1.700000X1.700000*%
%TD*%
%TA.AperFunction,ComponentPad*%
%ADD13R,1.700000X1.700000*%
%TD*%
%TA.AperFunction,ComponentPad*%
%ADD14R,1.600000X1.600000*%
%TD*%
%TA.AperFunction,ComponentPad*%
%ADD15C,1.600000*%
%TD*%
%TA.AperFunction,ComponentPad*%
%ADD16R,1.800000X1.800000*%
%TD*%
%TA.AperFunction,ComponentPad*%
%ADD17C,1.800000*%
%TD*%
%TA.AperFunction,ComponentPad*%
%ADD18O,2.700000X3.300000*%
%TD*%
%TA.AperFunction,ViaPad*%
%ADD19C,0.800000*%
%TD*%
%TA.AperFunction,Conductor*%
%ADD20C,0.250000*%
%TD*%
%TA.AperFunction,Conductor*%
%ADD21C,0.500000*%
%TD*%
%TA.AperFunction,Conductor*%
%ADD22C,0.254000*%
%TD*%
%TA.AperFunction,Conductor*%
%ADD23C,0.100000*%
%TD*%
G04 APERTURE END LIST*
D10*
%TO.P,REF\u002A\u002A,1*%
%TO.N,N/C*%
X96329500Y-81978500D03*
D11*
X96329500Y-81978500D03*
%TD*%
D10*
%TO.P,REF\u002A\u002A,1*%
%TO.N,N/C*%
X96329500Y-125539500D03*
D11*
X96329500Y-125539500D03*
%TD*%
D10*
%TO.P,REF\u002A\u002A,1*%
%TO.N,N/C*%
X175133000Y-125476000D03*
D11*
X175133000Y-125476000D03*
%TD*%
D10*
%TO.P,REF\u002A\u002A,1*%
%TO.N,N/C*%
X175133000Y-82042000D03*
D11*
X175133000Y-82042000D03*
%TD*%
D12*
%TO.P,JP1,3*%
%TO.N,J5_CANH*%
X97218500Y-90805000D03*
%TO.P,JP1,2*%
%TO.N,Net-(JP1-Pad2)*%
X97218500Y-93345000D03*
D13*
%TO.P,JP1,1*%
%TO.N,Net-(JP1-Pad1)*%
X97218500Y-95885000D03*
%TD*%
D14*
%TO.P,U1,1*%
%TO.N,GND*%
X101092000Y-111379000D03*
D15*
%TO.P,U1,2*%
%TO.N,Net-(U1-Pad2)*%
X103632000Y-111379000D03*
%TO.P,U1,3*%
%TO.N,Net-(U1-Pad3)*%
X106172000Y-111379000D03*
%TO.P,U1,4*%
%TO.N,Net-(U1-Pad4)*%
X108712000Y-111379000D03*
%TO.P,U1,5*%
%TO.N,Teensy_TX*%
X111252000Y-111379000D03*
%TO.P,U1,6*%
%TO.N,Teensy_RX*%
X113792000Y-111379000D03*
%TO.P,U1,7*%
%TO.N,Teensy_OUT7*%
X116332000Y-111379000D03*
%TO.P,U1,8*%
%TO.N,Teensy_OUT8*%
X118872000Y-111379000D03*
%TO.P,U1,9*%
%TO.N,Teensy_RX3*%
X121412000Y-111379000D03*
%TO.P,U1,10*%
%TO.N,Teensy_TX3*%
X123952000Y-111379000D03*
%TO.P,U1,11*%
%TO.N,J5_RX2*%
X126492000Y-111379000D03*
%TO.P,U1,12*%
%TO.N,J5_TX2*%
X129032000Y-111379000D03*
%TO.P,U1,13*%
%TO.N,Teensy_OUT1*%
X131572000Y-111379000D03*
%TO.P,U1,33*%
%TO.N,+5V*%
X101092000Y-96139000D03*
%TO.P,U1,32*%
%TO.N,GND*%
X103632000Y-96139000D03*
%TO.P,U1,31*%
%TO.N,+3V3*%
X106172000Y-96139000D03*
%TO.P,U1,30*%
%TO.N,Teensy_OUT6*%
X108712000Y-96139000D03*
%TO.P,U1,29*%
%TO.N,Teensy_OUT5*%
X111252000Y-96139000D03*
%TO.P,U1,28*%
%TO.N,Teensy_OUT4*%
X113792000Y-96139000D03*
%TO.P,U1,27*%
%TO.N,Teensy_OUT3*%
X116332000Y-96139000D03*
%TO.P,U1,26*%
%TO.N,Teensy_IN4*%
X118872000Y-96139000D03*
%TO.P,U1,25*%
%TO.N,Teensy_IN3*%
X121412000Y-96139000D03*
%TO.P,U1,24*%
%TO.N,Teensy_IN1*%
X123952000Y-96139000D03*
%TO.P,U1,23*%
%TO.N,Teensy_IN2*%
X126492000Y-96139000D03*
%TO.P,U1,22*%
%TO.N,Teensy_ASEN1*%
X129032000Y-96139000D03*
%TO.P,U1,21*%
%TO.N,Teensy_ASEN2*%
X131572000Y-96139000D03*
%TO.P,U1,14*%
%TO.N,Teensy_OUT2*%
X134112000Y-111379000D03*
%TO.P,U1,20*%
%TO.N,Net-(U1-Pad20)*%
X134112000Y-96139000D03*
%TD*%
D16*
%TO.P,U3,1*%
%TO.N,+12V*%
X164338000Y-93091000D03*
D17*
%TO.P,U3,2*%
%TO.N,GND*%
X161798000Y-93091000D03*
%TO.P,U3,3*%
%TO.N,+5V*%
X159258000Y-93091000D03*
%TD*%
D18*
%TO.P,J1,4*%
%TO.N,Teensy_TX3*%
X117611000Y-123102000D03*
%TO.P,J1,3*%
%TO.N,Teensy_RX3*%
X113411000Y-123102000D03*
%TO.P,J1,2*%
%TO.N,+5V*%
X117611000Y-117602000D03*
%TO.P,J1,1*%
%TO.N,GND*%
%TA.AperFunction,ComponentPad*%
G36*
G01*
X112061000Y-119001999D02*
X112061000Y-116202001D01*
G75*
G02*
X112311001Y-115952000I250001J0D01*
G01*
X114510999Y-115952000D01*
G75*
G02*
X114761000Y-116202001I0J-250001D01*
G01*
X114761000Y-119001999D01*
G75*
G02*
X114510999Y-119252000I-250001J0D01*
G01*
X112311001Y-119252000D01*
G75*
G02*
X112061000Y-119001999I0J250001D01*
G01*
G37*
%TD.AperFunction*%
%TD*%
%TO.P,J2,1*%
%TO.N,GND*%
%TA.AperFunction,ComponentPad*%
G36*
G01*
X122729000Y-119001999D02*
X122729000Y-116202001D01*
G75*
G02*
X122979001Y-115952000I250001J0D01*
G01*
X125178999Y-115952000D01*
G75*
G02*
X125429000Y-116202001I0J-250001D01*
G01*
X125429000Y-119001999D01*
G75*
G02*
X125178999Y-119252000I-250001J0D01*
G01*
X122979001Y-119252000D01*
G75*
G02*
X122729000Y-119001999I0J250001D01*
G01*
G37*
%TD.AperFunction*%
%TO.P,J2,2*%
%TO.N,+5V*%
X128279000Y-117602000D03*
%TO.P,J2,3*%
%TO.N,Net-(J2-Pad3)*%
X124079000Y-123102000D03*
%TO.P,J2,4*%
%TO.N,Net-(J2-Pad4)*%
X128279000Y-123102000D03*
%TD*%
%TO.P,J4,1*%
%TO.N,+5V*%
%TA.AperFunction,ComponentPad*%
G36*
G01*
X135810000Y-119001999D02*
X135810000Y-116202001D01*
G75*
G02*
X136060001Y-115952000I250001J0D01*
G01*
X138259999Y-115952000D01*
G75*
G02*
X138510000Y-116202001I0J-250001D01*
G01*
X138510000Y-119001999D01*
G75*
G02*
X138259999Y-119252000I-250001J0D01*
G01*
X136060001Y-119252000D01*
G75*
G02*
X135810000Y-119001999I0J250001D01*
G01*
G37*
%TD.AperFunction*%
%TO.P,J4,2*%
%TO.N,GND*%
X141360000Y-117602000D03*
%TO.P,J4,3*%
X145560000Y-117602000D03*
%TO.P,J4,4*%
%TO.N,J4_OUT2*%
X149760000Y-117602000D03*
%TO.P,J4,5*%
%TO.N,J4_OUT4*%
X153960000Y-117602000D03*
%TO.P,J4,6*%
%TO.N,J4_OUT6*%
X158160000Y-117602000D03*
%TO.P,J4,7*%
%TO.N,J4_OUT7*%
X162360000Y-117602000D03*
%TO.P,J4,8*%
%TO.N,J4_12V*%
X166560000Y-117602000D03*
%TO.P,J4,9*%
%TO.N,+12V*%
X137160000Y-123102000D03*
%TO.P,J4,10*%
X141360000Y-123102000D03*
%TO.P,J4,11*%
X145560000Y-123102000D03*
%TO.P,J4,12*%
%TO.N,J4_OUT1*%
X149760000Y-123102000D03*
%TO.P,J4,13*%
%TO.N,J4_OUT3*%
X153960000Y-123102000D03*
%TO.P,J4,14*%
%TO.N,J4_OUT5*%
X158160000Y-123102000D03*
%TO.P,J4,15*%
%TO.N,J4_OUT8*%
X162360000Y-123102000D03*
%TO.P,J4,16*%
%TO.N,GND*%
X166560000Y-123102000D03*
%TD*%
%TO.P,J5,1*%
%TO.N,J5_IN1*%
%TA.AperFunction,ComponentPad*%
G36*
G01*
X120730000Y-89151001D02*
X120730000Y-91950999D01*
G75*
G02*
X120479999Y-92201000I-250001J0D01*
G01*
X118280001Y-92201000D01*
G75*
G02*
X118030000Y-91950999I0J250001D01*
G01*
X118030000Y-89151001D01*
G75*
G02*
X118280001Y-88901000I250001J0D01*
G01*
X120479999Y-88901000D01*
G75*
G02*
X120730000Y-89151001I0J-250001D01*
G01*
G37*
%TD.AperFunction*%
%TO.P,J5,2*%
%TO.N,J5_IN2*%
X115180000Y-90551000D03*
%TO.P,J5,3*%
%TO.N,J5_TX2*%
X110980000Y-90551000D03*
%TO.P,J5,4*%
%TO.N,J5_CANH*%
X106780000Y-90551000D03*
%TO.P,J5,5*%
%TO.N,+5V*%
X102580000Y-90551000D03*
%TO.P,J5,6*%
%TO.N,J5_IN3*%
X119380000Y-85051000D03*
%TO.P,J5,7*%
%TO.N,J5_IN4*%
X115180000Y-85051000D03*
%TO.P,J5,8*%
%TO.N,J5_RX2*%
X110980000Y-85051000D03*
%TO.P,J5,9*%
%TO.N,J5_CANL*%
X106780000Y-85051000D03*
%TO.P,J5,10*%
%TO.N,GND*%
X102580000Y-85051000D03*
%TD*%
D19*
%TO.N,GND*%
X156210000Y-109982000D03*
X165354000Y-109982000D03*
X150114000Y-82677000D03*
X176276000Y-92303600D03*
X176276000Y-99898200D03*
X176276000Y-107696000D03*
X111125000Y-108458000D03*
X129540000Y-104013000D03*
X104902000Y-102006400D03*
X142265400Y-90424000D03*
X142621000Y-85725000D03*
X141478000Y-108661200D03*
%TO.N,Teensy_OUT4*%
X141478000Y-104215200D03*
%TO.N,Teensy_OUT3*%
X137718800Y-105485200D03*
%TO.N,J4_OUT3*%
X141478000Y-110565200D03*
%TO.N,J4_OUT4*%
X141478000Y-111835200D03*
%TO.N,Teensy_OUT2*%
X149860000Y-105485200D03*
%TO.N,Teensy_OUT1*%
X149860000Y-104215200D03*
%TO.N,Net-(J2-Pad3)*%
X125603000Y-102235000D03*
X125077001Y-108856999D03*
%TO.N,Net-(J2-Pad4)*%
X133629400Y-102666800D03*
X130446999Y-108839000D03*
%TO.N,J5_IN1*%
X137541000Y-80492600D03*
%TO.N,J5_IN2*%
X141097000Y-80492600D03*
%TO.N,J5_IN3*%
X133858000Y-80492600D03*
%TO.N,J5_IN4*%
X130048000Y-80492600D03*
%TO.N,Teensy_IN2*%
X139065000Y-89027000D03*
%TO.N,Teensy_IN1*%
X136525000Y-89027000D03*
%TO.N,Teensy_IN4*%
X131445000Y-89027000D03*
%TO.N,Teensy_IN3*%
X133985000Y-89027000D03*
%TO.N,Teensy_OUT8*%
X123063000Y-99568000D03*
X151638000Y-99568000D03*
X115824000Y-99568000D03*
%TO.N,Teensy_OUT7*%
X114808000Y-100330000D03*
X124079000Y-100330000D03*
X150749000Y-100330000D03*
%TO.N,Teensy_OUT5*%
X157226000Y-103378000D03*
X113792000Y-98044000D03*
X121158000Y-98044000D03*
%TO.N,Teensy_OUT6*%
X153162000Y-103378000D03*
X113030000Y-98806000D03*
X121920000Y-98806000D03*
%TD*%
D20*
%TO.N,Net-(J2-Pad3)*%
X125077001Y-102760999D02*
X125603000Y-102235000D01*
X125077001Y-108856999D02*
X125077001Y-102760999D01*
%TO.N,Net-(J2-Pad4)*%
X130446999Y-108839000D02*
X130446999Y-108440001D01*
X133629400Y-105257600D02*
X133489700Y-105397300D01*
X133629400Y-102666800D02*
X133629400Y-105257600D01*
X133489700Y-105397300D02*
X133604000Y-105283000D01*
X130446999Y-108440001D02*
X133489700Y-105397300D01*
%TO.N,J4_OUT4*%
X153960000Y-117475000D02*
X153960000Y-117384000D01*
X153960000Y-117475000D02*
X153960000Y-116876000D01*
D21*
X153960000Y-116902037D02*
X153960000Y-117602000D01*
X150189563Y-113131600D02*
X153960000Y-116902037D01*
X142774400Y-113131600D02*
X150189563Y-113131600D01*
X141478000Y-111835200D02*
X142774400Y-113131600D01*
%TO.N,J4_OUT3*%
X149899610Y-113831610D02*
X151790400Y-115722400D01*
X142216408Y-113831610D02*
X149899610Y-113831610D01*
X151790400Y-115722400D02*
X151790400Y-120932400D01*
X140055600Y-110794800D02*
X140055600Y-111670802D01*
X140055600Y-111670802D02*
X142216408Y-113831610D01*
X140285200Y-110565200D02*
X140055600Y-110794800D01*
X151790400Y-120932400D02*
X153960000Y-123102000D01*
X141478000Y-110565200D02*
X140285200Y-110565200D01*
D20*
%TO.N,J5_IN1*%
X136365989Y-81667611D02*
X137541000Y-80492600D01*
X136365989Y-81667611D02*
X127880978Y-81667612D01*
X127880978Y-81667612D02*
X119380000Y-90168590D01*
X119380000Y-90168590D02*
X119380000Y-90551000D01*
%TO.N,J5_IN2*%
X115180000Y-90551000D02*
X117155010Y-92526010D01*
X117155010Y-92526010D02*
X120718178Y-92526010D01*
X120718178Y-92526010D02*
X121412000Y-91832188D01*
X121412000Y-91832188D02*
X121412000Y-88773000D01*
X139471979Y-82117621D02*
X139877800Y-81711800D01*
X128067379Y-82117621D02*
X139471979Y-82117621D01*
X139877800Y-81711800D02*
X141097000Y-80492600D01*
X121412000Y-88773000D02*
X128067379Y-82117621D01*
%TO.N,J5_TX2*%
X107043001Y-97264001D02*
X105631999Y-97264001D01*
X112216989Y-102437989D02*
X107043001Y-97264001D01*
X112216989Y-108749009D02*
X112216989Y-102437989D01*
X110126999Y-111919001D02*
X110126999Y-110838999D01*
X105631999Y-97264001D02*
X105046999Y-96679001D01*
X110126999Y-110838999D02*
X112216989Y-108749009D01*
X111162009Y-112954011D02*
X110126999Y-111919001D01*
X127456989Y-112954011D02*
X111162009Y-112954011D01*
X129032000Y-111379000D02*
X127456989Y-112954011D01*
X105046999Y-96679001D02*
X105046999Y-95598999D01*
X105046999Y-95598999D02*
X110094998Y-90551000D01*
X110094998Y-90551000D02*
X110980000Y-90551000D01*
%TO.N,J5_IN3*%
X133858000Y-80492600D02*
X133132999Y-81217601D01*
X133132999Y-81217601D02*
X126935399Y-81217601D01*
X126935399Y-81217601D02*
X126681399Y-81217601D01*
X121313399Y-81217601D02*
X126935399Y-81217601D01*
X119380000Y-85051000D02*
X119380000Y-83151000D01*
X119380000Y-83151000D02*
X121313399Y-81217601D01*
%TO.N,J5_IN4*%
X130048000Y-80492600D02*
X119738400Y-80492600D01*
X119738400Y-80492600D02*
X115180000Y-85051000D01*
%TO.N,J5_RX2*%
X126492000Y-111379000D02*
X125366999Y-112504001D01*
X125366999Y-112504001D02*
X113251999Y-112504001D01*
X113251999Y-112504001D02*
X112666999Y-111919001D01*
X112666999Y-101759001D02*
X107586999Y-96679001D01*
X112666999Y-111919001D02*
X112666999Y-101759001D01*
X107586999Y-95598999D02*
X110659988Y-92526010D01*
X107586999Y-96679001D02*
X107586999Y-95598999D01*
X110659988Y-92526010D02*
X111673811Y-92526010D01*
X111673811Y-92526010D02*
X112655010Y-91544811D01*
X112655010Y-86726010D02*
X110980000Y-85051000D01*
X112655010Y-91544811D02*
X112655010Y-86726010D01*
%TO.N,Teensy_IN2*%
X133078001Y-95013999D02*
X139065000Y-89027000D01*
X127617001Y-95013999D02*
X133078001Y-95013999D01*
X126492000Y-96139000D02*
X127617001Y-95013999D01*
%TO.N,Teensy_IN1*%
X123952000Y-96139000D02*
X125527011Y-94563989D01*
X130988011Y-94563989D02*
X136525000Y-89027000D01*
X125527011Y-94563989D02*
X130988011Y-94563989D01*
%TO.N,Teensy_IN4*%
X118872000Y-96139000D02*
X120396000Y-94615000D01*
X120396000Y-94615000D02*
X122299590Y-94615000D01*
X124254191Y-94563989D02*
X125154211Y-93663969D01*
X122350601Y-94563989D02*
X124254191Y-94563989D01*
X122299590Y-94615000D02*
X122350601Y-94563989D01*
X126808031Y-93663969D02*
X131445000Y-89027000D01*
X125154211Y-93663969D02*
X126808031Y-93663969D01*
%TO.N,Teensy_IN3*%
X121412000Y-96139000D02*
X122537001Y-95013999D01*
X124440591Y-95013999D02*
X125340611Y-94113979D01*
X122537001Y-95013999D02*
X124440591Y-95013999D01*
X128898021Y-94113979D02*
X133985000Y-89027000D01*
X125340611Y-94113979D02*
X128898021Y-94113979D01*
%TO.N,Teensy_OUT8*%
X115825410Y-110236000D02*
X115258010Y-109668600D01*
X117729000Y-110236000D02*
X115825410Y-110236000D01*
X118872000Y-111379000D02*
X117729000Y-110236000D01*
X115258010Y-109668600D02*
X115258010Y-101784990D01*
X115258010Y-101784990D02*
X115824000Y-101219000D01*
X115824000Y-99568000D02*
X115824000Y-101219000D01*
X123063000Y-99568000D02*
X151638000Y-99568000D01*
%TO.N,Teensy_OUT7*%
X116332000Y-111379000D02*
X114808000Y-109855000D01*
X114808000Y-100330000D02*
X114808000Y-109855000D01*
X124079000Y-100330000D02*
X150749000Y-100330000D01*
%TO.N,Teensy_OUT5*%
X113157000Y-98044000D02*
X111252000Y-96139000D01*
X113792000Y-98044000D02*
X113157000Y-98044000D01*
X157226000Y-102812315D02*
X157226000Y-103378000D01*
X152457685Y-98044000D02*
X157226000Y-102812315D01*
X121158000Y-98044000D02*
X152457685Y-98044000D01*
%TO.N,Teensy_OUT6*%
X111379000Y-98806000D02*
X113030000Y-98806000D01*
X108712000Y-96139000D02*
X111379000Y-98806000D01*
X122231990Y-98494010D02*
X121920000Y-98806000D01*
X152215010Y-98494010D02*
X122231990Y-98494010D01*
X153162000Y-99441000D02*
X152215010Y-98494010D01*
X153162000Y-103378000D02*
X153162000Y-99441000D01*
%TO.N,Teensy_OUT3*%
X132019190Y-109658990D02*
X132349390Y-109328790D01*
X118675990Y-109658990D02*
X132019190Y-109658990D01*
X118269011Y-109252011D02*
X118675990Y-109658990D01*
X118269011Y-98076011D02*
X118269011Y-109252011D01*
X116332000Y-96139000D02*
X118269011Y-98076011D01*
X133875210Y-109328790D02*
X133393610Y-109328790D01*
X137718800Y-105485200D02*
X133875210Y-109328790D01*
X132349390Y-109328790D02*
X133393610Y-109328790D01*
%TO.N,Teensy_OUT2*%
X134112000Y-111379000D02*
X138353800Y-107137200D01*
X138353800Y-107137200D02*
X148082000Y-107137200D01*
X149734000Y-105485200D02*
X149860000Y-105485200D01*
X148082000Y-107137200D02*
X149734000Y-105485200D01*
%TO.N,Teensy_OUT4*%
X116695001Y-97264001D02*
X114917001Y-97264001D01*
X132205590Y-110109000D02*
X118364000Y-110109000D01*
X132535790Y-109778800D02*
X132205590Y-110109000D01*
X134439380Y-109778800D02*
X132535790Y-109778800D01*
X118364000Y-110109000D02*
X117819001Y-109564001D01*
X137981000Y-106237180D02*
X134439380Y-109778800D01*
X140600020Y-106237180D02*
X137981000Y-106237180D01*
X141478000Y-105359200D02*
X140600020Y-106237180D01*
X114917001Y-97264001D02*
X113792000Y-96139000D01*
X117819001Y-98388001D02*
X116695001Y-97264001D01*
X117819001Y-109564001D02*
X117819001Y-98388001D01*
X141478000Y-104215200D02*
X141478000Y-105359200D01*
%TO.N,Teensy_OUT1*%
X134600591Y-110253999D02*
X132697001Y-110253999D01*
X138167400Y-106687190D02*
X134600591Y-110253999D01*
X132697001Y-110253999D02*
X131572000Y-111379000D01*
X147388010Y-106687190D02*
X138167400Y-106687190D01*
X149860000Y-104215200D02*
X147388010Y-106687190D01*
%TD*%
D22*
%TO.N,GND*%
X172943315Y-79373862D02*
X172464862Y-79852315D01*
X172088943Y-80414918D01*
X171830006Y-81040048D01*
X171698000Y-81703682D01*
X171698000Y-82380318D01*
X171830006Y-83043952D01*
X172088943Y-83669082D01*
X172464862Y-84231685D01*
X172943315Y-84710138D01*
X173505918Y-85086057D01*
X174131048Y-85344994D01*
X174794682Y-85477000D01*
X175471318Y-85477000D01*
X176134952Y-85344994D01*
X176760082Y-85086057D01*
X177322685Y-84710138D01*
X177801138Y-84231685D01*
X178156001Y-83700595D01*
X178156000Y-123817404D01*
X177801138Y-123286315D01*
X177322685Y-122807862D01*
X176760082Y-122431943D01*
X176134952Y-122173006D01*
X175471318Y-122041000D01*
X174794682Y-122041000D01*
X174131048Y-122173006D01*
X173505918Y-122431943D01*
X172943315Y-122807862D01*
X172464862Y-123286315D01*
X172088943Y-123848918D01*
X171830006Y-124474048D01*
X171698000Y-125137682D01*
X171698000Y-125814318D01*
X171830006Y-126477952D01*
X172088943Y-127103082D01*
X172464862Y-127665685D01*
X172943315Y-128144138D01*
X173474404Y-128499000D01*
X98083131Y-128499000D01*
X98519185Y-128207638D01*
X98997638Y-127729185D01*
X99373557Y-127166582D01*
X99632494Y-126541452D01*
X99764500Y-125877818D01*
X99764500Y-125201182D01*
X99632494Y-124537548D01*
X99373557Y-123912418D01*
X98997638Y-123349815D01*
X98519185Y-122871362D01*
X98269445Y-122704491D01*
X111426000Y-122704491D01*
X111426000Y-123499510D01*
X111454722Y-123791128D01*
X111568226Y-124165302D01*
X111752547Y-124510143D01*
X112000603Y-124812398D01*
X112302858Y-125060453D01*
X112647699Y-125244774D01*
X113021873Y-125358278D01*
X113411000Y-125396604D01*
X113800128Y-125358278D01*
X114174302Y-125244774D01*
X114519143Y-125060453D01*
X114821398Y-124812398D01*
X115069453Y-124510143D01*
X115253774Y-124165302D01*
X115367278Y-123791127D01*
X115396000Y-123499509D01*
X115396000Y-122704491D01*
X115626000Y-122704491D01*
X115626000Y-123499510D01*
X115654722Y-123791128D01*
X115768226Y-124165302D01*
X115952547Y-124510143D01*
X116200603Y-124812398D01*
X116502858Y-125060453D01*
X116847699Y-125244774D01*
X117221873Y-125358278D01*
X117611000Y-125396604D01*
X118000128Y-125358278D01*
X118374302Y-125244774D01*
X118719143Y-125060453D01*
X119021398Y-124812398D01*
X119269453Y-124510143D01*
X119453774Y-124165302D01*
X119567278Y-123791127D01*
X119596000Y-123499509D01*
X119596000Y-122704491D01*
X122094000Y-122704491D01*
X122094000Y-123499510D01*
X122122722Y-123791128D01*
X122236226Y-124165302D01*
X122420547Y-124510143D01*
X122668603Y-124812398D01*
X122970858Y-125060453D01*
X123315699Y-125244774D01*
X123689873Y-125358278D01*
X124079000Y-125396604D01*
X124468128Y-125358278D01*
X124842302Y-125244774D01*
X125187143Y-125060453D01*
X125489398Y-124812398D01*
X125737453Y-124510143D01*
X125921774Y-124165302D01*
X126035278Y-123791127D01*
X126064000Y-123499509D01*
X126064000Y-122704491D01*
X126294000Y-122704491D01*
X126294000Y-123499510D01*
X126322722Y-123791128D01*
X126436226Y-124165302D01*
X126620547Y-124510143D01*
X126868603Y-124812398D01*
X127170858Y-125060453D01*
X127515699Y-125244774D01*
X127889873Y-125358278D01*
X128279000Y-125396604D01*
X128668128Y-125358278D01*
X129042302Y-125244774D01*
X129387143Y-125060453D01*
X129689398Y-124812398D01*
X129937453Y-124510143D01*
X130121774Y-124165302D01*
X130235278Y-123791127D01*
X130264000Y-123499509D01*
X130264000Y-122704491D01*
X135175000Y-122704491D01*
X135175000Y-123499510D01*
X135203722Y-123791128D01*
X135317226Y-124165302D01*
X135501547Y-124510143D01*
X135749603Y-124812398D01*
X136051858Y-125060453D01*
X136396699Y-125244774D01*
X136770873Y-125358278D01*
X137160000Y-125396604D01*
X137549128Y-125358278D01*
X137923302Y-125244774D01*
X138268143Y-125060453D01*
X138570398Y-124812398D01*
X138818453Y-124510143D01*
X139002774Y-124165302D01*
X139116278Y-123791127D01*
X139145000Y-123499509D01*
X139145000Y-122704491D01*
X139375000Y-122704491D01*
X139375000Y-123499510D01*
X139403722Y-123791128D01*
X139517226Y-124165302D01*
X139701547Y-124510143D01*
X139949603Y-124812398D01*
X140251858Y-125060453D01*
X140596699Y-125244774D01*
X140970873Y-125358278D01*
X141360000Y-125396604D01*
X141749128Y-125358278D01*
X142123302Y-125244774D01*
X142468143Y-125060453D01*
X142770398Y-124812398D01*
X143018453Y-124510143D01*
X143202774Y-124165302D01*
X143316278Y-123791127D01*
X143345000Y-123499509D01*
X143345000Y-122704491D01*
X143575000Y-122704491D01*
X143575000Y-123499510D01*
X143603722Y-123791128D01*
X143717226Y-124165302D01*
X143901547Y-124510143D01*
X144149603Y-124812398D01*
X144451858Y-125060453D01*
X144796699Y-125244774D01*
X145170873Y-125358278D01*
X145560000Y-125396604D01*
X145949128Y-125358278D01*
X146323302Y-125244774D01*
X146668143Y-125060453D01*
X146970398Y-124812398D01*
X147218453Y-124510143D01*
X147402774Y-124165302D01*
X147516278Y-123791127D01*
X147545000Y-123499509D01*
X147545000Y-122704490D01*
X147516278Y-122412872D01*
X147402774Y-122038698D01*
X147218453Y-121693857D01*
X146970398Y-121391602D01*
X146668143Y-121143547D01*
X146323301Y-120959226D01*
X145949127Y-120845722D01*
X145560000Y-120807396D01*
X145170872Y-120845722D01*
X144796698Y-120959226D01*
X144451857Y-121143547D01*
X144149602Y-121391602D01*
X143901547Y-121693857D01*
X143717226Y-122038699D01*
X143603722Y-122412873D01*
X143575000Y-122704491D01*
X143345000Y-122704491D01*
X143345000Y-122704490D01*
X143316278Y-122412872D01*
X143202774Y-122038698D01*
X143018453Y-121693857D01*
X142770398Y-121391602D01*
X142468143Y-121143547D01*
X142123301Y-120959226D01*
X141749127Y-120845722D01*
X141360000Y-120807396D01*
X140970872Y-120845722D01*
X140596698Y-120959226D01*
X140251857Y-121143547D01*
X139949602Y-121391602D01*
X139701547Y-121693857D01*
X139517226Y-122038699D01*
X139403722Y-122412873D01*
X139375000Y-122704491D01*
X139145000Y-122704491D01*
X139145000Y-122704490D01*
X139116278Y-122412872D01*
X139002774Y-122038698D01*
X138818453Y-121693857D01*
X138570398Y-121391602D01*
X138268143Y-121143547D01*
X137923301Y-120959226D01*
X137549127Y-120845722D01*
X137160000Y-120807396D01*
X136770872Y-120845722D01*
X136396698Y-120959226D01*
X136051857Y-121143547D01*
X135749602Y-121391602D01*
X135501547Y-121693857D01*
X135317226Y-122038699D01*
X135203722Y-122412873D01*
X135175000Y-122704491D01*
X130264000Y-122704491D01*
X130264000Y-122704490D01*
X130235278Y-122412872D01*
X130121774Y-122038698D01*
X129937453Y-121693857D01*
X129689398Y-121391602D01*
X129387143Y-121143547D01*
X129042301Y-120959226D01*
X128668127Y-120845722D01*
X128279000Y-120807396D01*
X127889872Y-120845722D01*
X127515698Y-120959226D01*
X127170857Y-121143547D01*
X126868602Y-121391602D01*
X126620547Y-121693857D01*
X126436226Y-122038699D01*
X126322722Y-122412873D01*
X126294000Y-122704491D01*
X126064000Y-122704491D01*
X126064000Y-122704490D01*
X126035278Y-122412872D01*
X125921774Y-122038698D01*
X125737453Y-121693857D01*
X125489398Y-121391602D01*
X125187143Y-121143547D01*
X124842301Y-120959226D01*
X124468127Y-120845722D01*
X124079000Y-120807396D01*
X123689872Y-120845722D01*
X123315698Y-120959226D01*
X122970857Y-121143547D01*
X122668602Y-121391602D01*
X122420547Y-121693857D01*
X122236226Y-122038699D01*
X122122722Y-122412873D01*
X122094000Y-122704491D01*
X119596000Y-122704491D01*
X119596000Y-122704490D01*
X119567278Y-122412872D01*
X119453774Y-122038698D01*
X119269453Y-121693857D01*
X119021398Y-121391602D01*
X118719143Y-121143547D01*
X118374301Y-120959226D01*
X118000127Y-120845722D01*
X117611000Y-120807396D01*
X117221872Y-120845722D01*
X116847698Y-120959226D01*
X116502857Y-121143547D01*
X116200602Y-121391602D01*
X115952547Y-121693857D01*
X115768226Y-122038699D01*
X115654722Y-122412873D01*
X115626000Y-122704491D01*
X115396000Y-122704491D01*
X115396000Y-122704490D01*
X115367278Y-122412872D01*
X115253774Y-122038698D01*
X115069453Y-121693857D01*
X114821398Y-121391602D01*
X114519143Y-121143547D01*
X114174301Y-120959226D01*
X113800127Y-120845722D01*
X113411000Y-120807396D01*
X113021872Y-120845722D01*
X112647698Y-120959226D01*
X112302857Y-121143547D01*
X112000602Y-121391602D01*
X111752547Y-121693857D01*
X111568226Y-122038699D01*
X111454722Y-122412873D01*
X111426000Y-122704491D01*
X98269445Y-122704491D01*
X97956582Y-122495443D01*
X97331452Y-122236506D01*
X96667818Y-122104500D01*
X95991182Y-122104500D01*
X95327548Y-122236506D01*
X94702418Y-122495443D01*
X94139815Y-122871362D01*
X93661362Y-123349815D01*
X93370000Y-123785869D01*
X93370000Y-119252000D01*
X111422928Y-119252000D01*
X111435188Y-119376482D01*
X111471498Y-119496180D01*
X111530463Y-119606494D01*
X111609815Y-119703185D01*
X111706506Y-119782537D01*
X111816820Y-119841502D01*
X111936518Y-119877812D01*
X112061000Y-119890072D01*
X113125250Y-119887000D01*
X113284000Y-119728250D01*
X113284000Y-117729000D01*
X113538000Y-117729000D01*
X113538000Y-119728250D01*
X113696750Y-119887000D01*
X114761000Y-119890072D01*
X114885482Y-119877812D01*
X115005180Y-119841502D01*
X115115494Y-119782537D01*
X115212185Y-119703185D01*
X115291537Y-119606494D01*
X115350502Y-119496180D01*
X115386812Y-119376482D01*
X115399072Y-119252000D01*
X115396000Y-117887750D01*
X115237250Y-117729000D01*
X113538000Y-117729000D01*
X113284000Y-117729000D01*
X111584750Y-117729000D01*
X111426000Y-117887750D01*
X111422928Y-119252000D01*
X93370000Y-119252000D01*
X93370000Y-115952000D01*
X111422928Y-115952000D01*
X111426000Y-117316250D01*
X111584750Y-117475000D01*
X113284000Y-117475000D01*
X113284000Y-115475750D01*
X113538000Y-115475750D01*
X113538000Y-117475000D01*
X115237250Y-117475000D01*
X115396000Y-117316250D01*
X115396251Y-117204491D01*
X115626000Y-117204491D01*
X115626000Y-117999510D01*
X115654722Y-118291128D01*
X115768226Y-118665302D01*
X115952547Y-119010143D01*
X116200603Y-119312398D01*
X116502858Y-119560453D01*
X116847699Y-119744774D01*
X117221873Y-119858278D01*
X117611000Y-119896604D01*
X118000128Y-119858278D01*
X118374302Y-119744774D01*
X118719143Y-119560453D01*
X119021398Y-119312398D01*
X119070965Y-119252000D01*
X122090928Y-119252000D01*
X122103188Y-119376482D01*
X122139498Y-119496180D01*
X122198463Y-119606494D01*
X122277815Y-119703185D01*
X122374506Y-119782537D01*
X122484820Y-119841502D01*
X122604518Y-119877812D01*
X122729000Y-119890072D01*
X123793250Y-119887000D01*
X123952000Y-119728250D01*
X123952000Y-117729000D01*
X124206000Y-117729000D01*
X124206000Y-119728250D01*
X124364750Y-119887000D01*
X125429000Y-119890072D01*
X125553482Y-119877812D01*
X125673180Y-119841502D01*
X125783494Y-119782537D01*
X125880185Y-119703185D01*
X125959537Y-119606494D01*
X126018502Y-119496180D01*
X126054812Y-119376482D01*
X126067072Y-119252000D01*
X126064000Y-117887750D01*
X125905250Y-117729000D01*
X124206000Y-117729000D01*
X123952000Y-117729000D01*
X122252750Y-117729000D01*
X122094000Y-117887750D01*
X122090928Y-119252000D01*
X119070965Y-119252000D01*
X119269453Y-119010143D01*
X119453774Y-118665302D01*
X119567278Y-118291127D01*
X119596000Y-117999509D01*
X119596000Y-117204490D01*
X119567278Y-116912872D01*
X119453774Y-116538698D01*
X119269453Y-116193857D01*
X119070966Y-115952000D01*
X122090928Y-115952000D01*
X122094000Y-117316250D01*
X122252750Y-117475000D01*
X123952000Y-117475000D01*
X123952000Y-115475750D01*
X124206000Y-115475750D01*
X124206000Y-117475000D01*
X125905250Y-117475000D01*
X126064000Y-117316250D01*
X126064251Y-117204491D01*
X126294000Y-117204491D01*
X126294000Y-117999510D01*
X126322722Y-118291128D01*
X126436226Y-118665302D01*
X126620547Y-119010143D01*
X126868603Y-119312398D01*
X127170858Y-119560453D01*
X127515699Y-119744774D01*
X127889873Y-119858278D01*
X128279000Y-119896604D01*
X128668128Y-119858278D01*
X129042302Y-119744774D01*
X129387143Y-119560453D01*
X129689398Y-119312398D01*
X129937453Y-119010143D01*
X130121774Y-118665302D01*
X130235278Y-118291127D01*
X130264000Y-117999509D01*
X130264000Y-117204490D01*
X130235278Y-116912872D01*
X130121774Y-116538698D01*
X129941807Y-116202001D01*
X135171928Y-116202001D01*
X135171928Y-119001999D01*
X135188992Y-119175253D01*
X135239529Y-119341850D01*
X135321595Y-119495386D01*
X135432039Y-119629961D01*
X135566614Y-119740405D01*
X135720150Y-119822471D01*
X135886747Y-119873008D01*
X136060001Y-119890072D01*
X138259999Y-119890072D01*
X138433253Y-119873008D01*
X138599850Y-119822471D01*
X138753386Y-119740405D01*
X138887961Y-119629961D01*
X138998405Y-119495386D01*
X139080471Y-119341850D01*
X139131008Y-119175253D01*
X139148072Y-119001999D01*
X139148072Y-117729000D01*
X139375000Y-117729000D01*
X139375000Y-118029000D01*
X139437918Y-118413814D01*
X139574700Y-118778959D01*
X139780090Y-119110403D01*
X140046195Y-119395409D01*
X140362789Y-119623024D01*
X140717705Y-119784501D01*
X140924677Y-119838677D01*
X141233000Y-119723829D01*
X141233000Y-117729000D01*
X141487000Y-117729000D01*
X141487000Y-119723829D01*
X141795323Y-119838677D01*
X142002295Y-119784501D01*
X142357211Y-119623024D01*
X142673805Y-119395409D01*
X142939910Y-119110403D01*
X143145300Y-118778959D01*
X143282082Y-118413814D01*
X143345000Y-118029000D01*
X143345000Y-117729000D01*
X143575000Y-117729000D01*
X143575000Y-118029000D01*
X143637918Y-118413814D01*
X143774700Y-118778959D01*
X143980090Y-119110403D01*
X144246195Y-119395409D01*
X144562789Y-119623024D01*
X144917705Y-119784501D01*
X145124677Y-119838677D01*
X145433000Y-119723829D01*
X145433000Y-117729000D01*
X145687000Y-117729000D01*
X145687000Y-119723829D01*
X145995323Y-119838677D01*
X146202295Y-119784501D01*
X146557211Y-119623024D01*
X146873805Y-119395409D01*
X147139910Y-119110403D01*
X147345300Y-118778959D01*
X147482082Y-118413814D01*
X147545000Y-118029000D01*
X147545000Y-117729000D01*
X145687000Y-117729000D01*
X145433000Y-117729000D01*
X143575000Y-117729000D01*
X143345000Y-117729000D01*
X141487000Y-117729000D01*
X141233000Y-117729000D01*
X139375000Y-117729000D01*
X139148072Y-117729000D01*
X139148072Y-117175000D01*
X139375000Y-117175000D01*
X139375000Y-117475000D01*
X141233000Y-117475000D01*
X141233000Y-115480171D01*
X141487000Y-115480171D01*
X141487000Y-117475000D01*
X143345000Y-117475000D01*
X143345000Y-117175000D01*
X143575000Y-117175000D01*
X143575000Y-117475000D01*
X145433000Y-117475000D01*
X145433000Y-115480171D01*
X145687000Y-115480171D01*
X145687000Y-117475000D01*
X147545000Y-117475000D01*
X147545000Y-117175000D01*
X147482082Y-116790186D01*
X147345300Y-116425041D01*
X147139910Y-116093597D01*
X146873805Y-115808591D01*
X146557211Y-115580976D01*
X146202295Y-115419499D01*
X145995323Y-115365323D01*
X145687000Y-115480171D01*
X145433000Y-115480171D01*
X145124677Y-115365323D01*
X144917705Y-115419499D01*
X144562789Y-115580976D01*
X144246195Y-115808591D01*
X143980090Y-116093597D01*
X143774700Y-116425041D01*
X143637918Y-116790186D01*
X143575000Y-117175000D01*
X143345000Y-117175000D01*
X143282082Y-116790186D01*
X143145300Y-116425041D01*
X142939910Y-116093597D01*
X142673805Y-115808591D01*
X142357211Y-115580976D01*
X142002295Y-115419499D01*
X141795323Y-115365323D01*
X141487000Y-115480171D01*
X141233000Y-115480171D01*
X140924677Y-115365323D01*
X140717705Y-115419499D01*
X140362789Y-115580976D01*
X140046195Y-115808591D01*
X139780090Y-116093597D01*
X139574700Y-116425041D01*
X139437918Y-116790186D01*
X139375000Y-117175000D01*
X139148072Y-117175000D01*
X139148072Y-116202001D01*
X139131008Y-116028747D01*
X139080471Y-115862150D01*
X138998405Y-115708614D01*
X138887961Y-115574039D01*
X138753386Y-115463595D01*
X138599850Y-115381529D01*
X138433253Y-115330992D01*
X138259999Y-115313928D01*
X136060001Y-115313928D01*
X135886747Y-115330992D01*
X135720150Y-115381529D01*
X135566614Y-115463595D01*
X135432039Y-115574039D01*
X135321595Y-115708614D01*
X135239529Y-115862150D01*
X135188992Y-116028747D01*
X135171928Y-116202001D01*
X129941807Y-116202001D01*
X129937453Y-116193857D01*
X129689398Y-115891602D01*
X129387143Y-115643547D01*
X129042301Y-115459226D01*
X128668127Y-115345722D01*
X128279000Y-115307396D01*
X127889872Y-115345722D01*
X127515698Y-115459226D01*
X127170857Y-115643547D01*
X126868602Y-115891602D01*
X126620547Y-116193857D01*
X126436226Y-116538699D01*
X126322722Y-116912873D01*
X126294000Y-117204491D01*
X126064251Y-117204491D01*
X126067072Y-115952000D01*
X126054812Y-115827518D01*
X126018502Y-115707820D01*
X125959537Y-115597506D01*
X125880185Y-115500815D01*
X125783494Y-115421463D01*
X125673180Y-115362498D01*
X125553482Y-115326188D01*
X125429000Y-115313928D01*
X124364750Y-115317000D01*
X124206000Y-115475750D01*
X123952000Y-115475750D01*
X123793250Y-115317000D01*
X122729000Y-115313928D01*
X122604518Y-115326188D01*
X122484820Y-115362498D01*
X122374506Y-115421463D01*
X122277815Y-115500815D01*
X122198463Y-115597506D01*
X122139498Y-115707820D01*
X122103188Y-115827518D01*
X122090928Y-115952000D01*
X119070966Y-115952000D01*
X119021398Y-115891602D01*
X118719143Y-115643547D01*
X118374301Y-115459226D01*
X118000127Y-115345722D01*
X117611000Y-115307396D01*
X117221872Y-115345722D01*
X116847698Y-115459226D01*
X116502857Y-115643547D01*
X116200602Y-115891602D01*
X115952547Y-116193857D01*
X115768226Y-116538699D01*
X115654722Y-116912873D01*
X115626000Y-117204491D01*
X115396251Y-117204491D01*
X115399072Y-115952000D01*
X115386812Y-115827518D01*
X115350502Y-115707820D01*
X115291537Y-115597506D01*
X115212185Y-115500815D01*
X115115494Y-115421463D01*
X115005180Y-115362498D01*
X114885482Y-115326188D01*
X114761000Y-115313928D01*
X113696750Y-115317000D01*
X113538000Y-115475750D01*
X113284000Y-115475750D01*
X113125250Y-115317000D01*
X112061000Y-115313928D01*
X111936518Y-115326188D01*
X111816820Y-115362498D01*
X111706506Y-115421463D01*
X111609815Y-115500815D01*
X111530463Y-115597506D01*
X111471498Y-115707820D01*
X111435188Y-115827518D01*
X111422928Y-115952000D01*
X93370000Y-115952000D01*
X93370000Y-112179000D01*
X99653928Y-112179000D01*
X99666188Y-112303482D01*
X99702498Y-112423180D01*
X99761463Y-112533494D01*
X99840815Y-112630185D01*
X99937506Y-112709537D01*
X100047820Y-112768502D01*
X100167518Y-112804812D01*
X100292000Y-112817072D01*
X100806250Y-112814000D01*
X100965000Y-112655250D01*
X100965000Y-111506000D01*
X99815750Y-111506000D01*
X99657000Y-111664750D01*
X99653928Y-112179000D01*
X93370000Y-112179000D01*
X93370000Y-110579000D01*
X99653928Y-110579000D01*
X99657000Y-111093250D01*
X99815750Y-111252000D01*
X100965000Y-111252000D01*
X100965000Y-110102750D01*
X101219000Y-110102750D01*
X101219000Y-111252000D01*
X101239000Y-111252000D01*
X101239000Y-111506000D01*
X101219000Y-111506000D01*
X101219000Y-112655250D01*
X101377750Y-112814000D01*
X101892000Y-112817072D01*
X102016482Y-112804812D01*
X102136180Y-112768502D01*
X102246494Y-112709537D01*
X102343185Y-112630185D01*
X102422537Y-112533494D01*
X102481502Y-112423180D01*
X102517812Y-112303482D01*
X102518643Y-112295039D01*
X102717241Y-112493637D01*
X102952273Y-112650680D01*
X103213426Y-112758853D01*
X103490665Y-112814000D01*
X103773335Y-112814000D01*
X104050574Y-112758853D01*
X104311727Y-112650680D01*
X104546759Y-112493637D01*
X104746637Y-112293759D01*
X104902000Y-112061241D01*
X105057363Y-112293759D01*
X105257241Y-112493637D01*
X105492273Y-112650680D01*
X105753426Y-112758853D01*
X106030665Y-112814000D01*
X106313335Y-112814000D01*
X106590574Y-112758853D01*
X106851727Y-112650680D01*
X107086759Y-112493637D01*
X107286637Y-112293759D01*
X107442000Y-112061241D01*
X107597363Y-112293759D01*
X107797241Y-112493637D01*
X108032273Y-112650680D01*
X108293426Y-112758853D01*
X108570665Y-112814000D01*
X108853335Y-112814000D01*
X109130574Y-112758853D01*
X109391727Y-112650680D01*
X109626759Y-112493637D01*
X109626796Y-112493600D01*
X110598210Y-113465014D01*
X110622008Y-113494012D01*
X110737733Y-113588985D01*
X110869762Y-113659557D01*
X111013023Y-113703014D01*
X111124676Y-113714011D01*
X111124685Y-113714011D01*
X111162008Y-113717687D01*
X111199331Y-113714011D01*
X127419667Y-113714011D01*
X127456989Y-113717687D01*
X127494311Y-113714011D01*
X127494322Y-113714011D01*
X127605975Y-113703014D01*
X127749236Y-113659557D01*
X127881265Y-113588985D01*
X127996990Y-113494012D01*
X128020793Y-113465008D01*
X128708114Y-112777688D01*
X128890665Y-112814000D01*
X129173335Y-112814000D01*
X129450574Y-112758853D01*
X129711727Y-112650680D01*
X129946759Y-112493637D01*
X130146637Y-112293759D01*
X130302000Y-112061241D01*
X130457363Y-112293759D01*
X130657241Y-112493637D01*
X130892273Y-112650680D01*
X131153426Y-112758853D01*
X131430665Y-112814000D01*
X131713335Y-112814000D01*
X131990574Y-112758853D01*
X132251727Y-112650680D01*
X132486759Y-112493637D01*
X132686637Y-112293759D01*
X132842000Y-112061241D01*
X132997363Y-112293759D01*
X133197241Y-112493637D01*
X133432273Y-112650680D01*
X133693426Y-112758853D01*
X133970665Y-112814000D01*
X134253335Y-112814000D01*
X134530574Y-112758853D01*
X134791727Y-112650680D01*
X135026759Y-112493637D01*
X135226637Y-112293759D01*
X135383680Y-112058727D01*
X135491853Y-111797574D01*
X135547000Y-111520335D01*
X135547000Y-111237665D01*
X135510688Y-111055113D01*
X135771001Y-110794800D01*
X139166319Y-110794800D01*
X139170600Y-110838269D01*
X139170600Y-111627333D01*
X139166319Y-111670802D01*
X139170600Y-111714271D01*
X139170600Y-111714279D01*
X139172470Y-111733261D01*
X139183405Y-111844292D01*
X139234012Y-112011115D01*
X139316190Y-112164861D01*
X139399068Y-112265848D01*
X139399071Y-112265851D01*
X139426784Y-112299619D01*
X139460551Y-112327331D01*
X141559878Y-114426659D01*
X141587591Y-114460427D01*
X141621359Y-114488140D01*
X141621361Y-114488142D01*
X141692860Y-114546820D01*
X141722349Y-114571021D01*
X141876095Y-114653199D01*
X141992311Y-114688453D01*
X142042917Y-114703805D01*
X142057714Y-114705262D01*
X142172931Y-114716610D01*
X142172939Y-114716610D01*
X142216408Y-114720891D01*
X142259877Y-114716610D01*
X149533032Y-114716610D01*
X150167811Y-115351390D01*
X150149127Y-115345722D01*
X149760000Y-115307396D01*
X149370872Y-115345722D01*
X148996698Y-115459226D01*
X148651857Y-115643547D01*
X148349602Y-115891602D01*
X148101547Y-116193857D01*
X147917226Y-116538699D01*
X147803722Y-116912873D01*
X147775000Y-117204491D01*
X147775000Y-117999510D01*
X147803722Y-118291128D01*
X147917226Y-118665302D01*
X148101547Y-119010143D01*
X148349603Y-119312398D01*
X148651858Y-119560453D01*
X148996699Y-119744774D01*
X149370873Y-119858278D01*
X149760000Y-119896604D01*
X150149128Y-119858278D01*
X150523302Y-119744774D01*
X150868143Y-119560453D01*
X150905401Y-119529876D01*
X150905401Y-120888921D01*
X150901119Y-120932400D01*
X150918205Y-121105890D01*
X150950010Y-121210734D01*
X150868143Y-121143547D01*
X150523301Y-120959226D01*
X150149127Y-120845722D01*
X149760000Y-120807396D01*
X149370872Y-120845722D01*
X148996698Y-120959226D01*
X148651857Y-121143547D01*
X148349602Y-121391602D01*
X148101547Y-121693857D01*
X147917226Y-122038699D01*
X147803722Y-122412873D01*
X147775000Y-122704491D01*
X147775000Y-123499510D01*
X147803722Y-123791128D01*
X147917226Y-124165302D01*
X148101547Y-124510143D01*
X148349603Y-124812398D01*
X148651858Y-125060453D01*
X148996699Y-125244774D01*
X149370873Y-125358278D01*
X149760000Y-125396604D01*
X150149128Y-125358278D01*
X150523302Y-125244774D01*
X150868143Y-125060453D01*
X151170398Y-124812398D01*
X151418453Y-124510143D01*
X151602774Y-124165302D01*
X151716278Y-123791127D01*
X151745000Y-123499509D01*
X151745000Y-122704490D01*
X151716278Y-122412872D01*
X151602774Y-122038698D01*
X151554149Y-121947728D01*
X152007346Y-122400925D01*
X152003722Y-122412873D01*
X151975000Y-122704491D01*
X151975000Y-123499510D01*
X152003722Y-123791128D01*
X152117226Y-124165302D01*
X152301547Y-124510143D01*
X152549603Y-124812398D01*
X152851858Y-125060453D01*
X153196699Y-125244774D01*
X153570873Y-125358278D01*
X153960000Y-125396604D01*
X154349128Y-125358278D01*
X154723302Y-125244774D01*
X155068143Y-125060453D01*
X155370398Y-124812398D01*
X155618453Y-124510143D01*
X155802774Y-124165302D01*
X155916278Y-123791127D01*
X155945000Y-123499509D01*
X155945000Y-122704491D01*
X156175000Y-122704491D01*
X156175000Y-123499510D01*
X156203722Y-123791128D01*
X156317226Y-124165302D01*
X156501547Y-124510143D01*
X156749603Y-124812398D01*
X157051858Y-125060453D01*
X157396699Y-125244774D01*
X157770873Y-125358278D01*
X158160000Y-125396604D01*
X158549128Y-125358278D01*
X158923302Y-125244774D01*
X159268143Y-125060453D01*
X159570398Y-124812398D01*
X159818453Y-124510143D01*
X160002774Y-124165302D01*
X160116278Y-123791127D01*
X160145000Y-123499509D01*
X160145000Y-122704491D01*
X160375000Y-122704491D01*
X160375000Y-123499510D01*
X160403722Y-123791128D01*
X160517226Y-124165302D01*
X160701547Y-124510143D01*
X160949603Y-124812398D01*
X161251858Y-125060453D01*
X161596699Y-125244774D01*
X161970873Y-125358278D01*
X162360000Y-125396604D01*
X162749128Y-125358278D01*
X163123302Y-125244774D01*
X163468143Y-125060453D01*
X163770398Y-124812398D01*
X164018453Y-124510143D01*
X164202774Y-124165302D01*
X164316278Y-123791127D01*
X164345000Y-123499509D01*
X164345000Y-123229000D01*
X164575000Y-123229000D01*
X164575000Y-123529000D01*
X164637918Y-123913814D01*
X164774700Y-124278959D01*
X164980090Y-124610403D01*
X165246195Y-124895409D01*
X165562789Y-125123024D01*
X165917705Y-125284501D01*
X166124677Y-125338677D01*
X166433000Y-125223829D01*
X166433000Y-123229000D01*
X166687000Y-123229000D01*
X166687000Y-125223829D01*
X166995323Y-125338677D01*
X167202295Y-125284501D01*
X167557211Y-125123024D01*
X167873805Y-124895409D01*
X168139910Y-124610403D01*
X168345300Y-124278959D01*
X168482082Y-123913814D01*
X168545000Y-123529000D01*
X168545000Y-123229000D01*
X166687000Y-123229000D01*
X166433000Y-123229000D01*
X164575000Y-123229000D01*
X164345000Y-123229000D01*
X164345000Y-122704490D01*
X164342096Y-122675000D01*
X164575000Y-122675000D01*
X164575000Y-122975000D01*
X166433000Y-122975000D01*
X166433000Y-120980171D01*
X166687000Y-120980171D01*
X166687000Y-122975000D01*
X168545000Y-122975000D01*
X168545000Y-122675000D01*
X168482082Y-122290186D01*
X168345300Y-121925041D01*
X168139910Y-121593597D01*
X167873805Y-121308591D01*
X167557211Y-121080976D01*
X167202295Y-120919499D01*
X166995323Y-120865323D01*
X166687000Y-120980171D01*
X166433000Y-120980171D01*
X166124677Y-120865323D01*
X165917705Y-120919499D01*
X165562789Y-121080976D01*
X165246195Y-121308591D01*
X164980090Y-121593597D01*
X164774700Y-121925041D01*
X164637918Y-122290186D01*
X164575000Y-122675000D01*
X164342096Y-122675000D01*
X164316278Y-122412872D01*
X164202774Y-122038698D01*
X164018453Y-121693857D01*
X163770398Y-121391602D01*
X163468143Y-121143547D01*
X163123301Y-120959226D01*
X162749127Y-120845722D01*
X162360000Y-120807396D01*
X161970872Y-120845722D01*
X161596698Y-120959226D01*
X161251857Y-121143547D01*
X160949602Y-121391602D01*
X160701547Y-121693857D01*
X160517226Y-122038699D01*
X160403722Y-122412873D01*
X160375000Y-122704491D01*
X160145000Y-122704491D01*
X160145000Y-122704490D01*
X160116278Y-122412872D01*
X160002774Y-122038698D01*
X159818453Y-121693857D01*
X159570398Y-121391602D01*
X159268143Y-121143547D01*
X158923301Y-120959226D01*
X158549127Y-120845722D01*
X158160000Y-120807396D01*
X157770872Y-120845722D01*
X157396698Y-120959226D01*
X157051857Y-121143547D01*
X156749602Y-121391602D01*
X156501547Y-121693857D01*
X156317226Y-122038699D01*
X156203722Y-122412873D01*
X156175000Y-122704491D01*
X155945000Y-122704491D01*
X155945000Y-122704490D01*
X155916278Y-122412872D01*
X155802774Y-122038698D01*
X155618453Y-121693857D01*
X155370398Y-121391602D01*
X155068143Y-121143547D01*
X154723301Y-120959226D01*
X154349127Y-120845722D01*
X153960000Y-120807396D01*
X153570872Y-120845722D01*
X153196698Y-120959226D01*
X153113353Y-121003775D01*
X152675400Y-120565822D01*
X152675400Y-119415637D01*
X152851858Y-119560453D01*
X153196699Y-119744774D01*
X153570873Y-119858278D01*
X153960000Y-119896604D01*
X154349128Y-119858278D01*
X154723302Y-119744774D01*
X155068143Y-119560453D01*
X155370398Y-119312398D01*
X155618453Y-119010143D01*
X155802774Y-118665302D01*
X155916278Y-118291127D01*
X155945000Y-117999509D01*
X155945000Y-117204491D01*
X156175000Y-117204491D01*
X156175000Y-117999510D01*
X156203722Y-118291128D01*
X156317226Y-118665302D01*
X156501547Y-119010143D01*
X156749603Y-119312398D01*
X157051858Y-119560453D01*
X157396699Y-119744774D01*
X157770873Y-119858278D01*
X158160000Y-119896604D01*
X158549128Y-119858278D01*
X158923302Y-119744774D01*
X159268143Y-119560453D01*
X159570398Y-119312398D01*
X159818453Y-119010143D01*
X160002774Y-118665302D01*
X160116278Y-118291127D01*
X160145000Y-117999509D01*
X160145000Y-117204491D01*
X160375000Y-117204491D01*
X160375000Y-117999510D01*
X160403722Y-118291128D01*
X160517226Y-118665302D01*
X160701547Y-119010143D01*
X160949603Y-119312398D01*
X161251858Y-119560453D01*
X161596699Y-119744774D01*
X161970873Y-119858278D01*
X162360000Y-119896604D01*
X162749128Y-119858278D01*
X163123302Y-119744774D01*
X163468143Y-119560453D01*
X163770398Y-119312398D01*
X164018453Y-119010143D01*
X164202774Y-118665302D01*
X164316278Y-118291127D01*
X164345000Y-117999509D01*
X164345000Y-117204491D01*
X164575000Y-117204491D01*
X164575000Y-117999510D01*
X164603722Y-118291128D01*
X164717226Y-118665302D01*
X164901547Y-119010143D01*
X165149603Y-119312398D01*
X165451858Y-119560453D01*
X165796699Y-119744774D01*
X166170873Y-119858278D01*
X166560000Y-119896604D01*
X166949128Y-119858278D01*
X167323302Y-119744774D01*
X167668143Y-119560453D01*
X167970398Y-119312398D01*
X168218453Y-119010143D01*
X168402774Y-118665302D01*
X168516278Y-118291127D01*
X168545000Y-117999509D01*
X168545000Y-117204490D01*
X168516278Y-116912872D01*
X168402774Y-116538698D01*
X168218453Y-116193857D01*
X167970398Y-115891602D01*
X167668143Y-115643547D01*
X167323301Y-115459226D01*
X166949127Y-115345722D01*
X166560000Y-115307396D01*
X166170872Y-115345722D01*
X165796698Y-115459226D01*
X165451857Y-115643547D01*
X165149602Y-115891602D01*
X164901547Y-116193857D01*
X164717226Y-116538699D01*
X164603722Y-116912873D01*
X164575000Y-117204491D01*
X164345000Y-117204491D01*
X164345000Y-117204490D01*
X164316278Y-116912872D01*
X164202774Y-116538698D01*
X164018453Y-116193857D01*
X163770398Y-115891602D01*
X163468143Y-115643547D01*
X163123301Y-115459226D01*
X162749127Y-115345722D01*
X162360000Y-115307396D01*
X161970872Y-115345722D01*
X161596698Y-115459226D01*
X161251857Y-115643547D01*
X160949602Y-115891602D01*
X160701547Y-116193857D01*
X160517226Y-116538699D01*
X160403722Y-116912873D01*
X160375000Y-117204491D01*
X160145000Y-117204491D01*
X160145000Y-117204490D01*
X160116278Y-116912872D01*
X160002774Y-116538698D01*
X159818453Y-116193857D01*
X159570398Y-115891602D01*
X159268143Y-115643547D01*
X158923301Y-115459226D01*
X158549127Y-115345722D01*
X158160000Y-115307396D01*
X157770872Y-115345722D01*
X157396698Y-115459226D01*
X157051857Y-115643547D01*
X156749602Y-115891602D01*
X156501547Y-116193857D01*
X156317226Y-116538699D01*
X156203722Y-116912873D01*
X156175000Y-117204491D01*
X155945000Y-117204491D01*
X155945000Y-117204490D01*
X155916278Y-116912872D01*
X155802774Y-116538698D01*
X155618453Y-116193857D01*
X155370398Y-115891602D01*
X155068143Y-115643547D01*
X154723301Y-115459226D01*
X154349127Y-115345722D01*
X153960000Y-115307396D01*
X153647697Y-115338155D01*
X150846097Y-112536556D01*
X150818380Y-112502783D01*
X150683622Y-112392189D01*
X150529876Y-112310011D01*
X150363053Y-112259405D01*
X150233040Y-112246600D01*
X150233032Y-112246600D01*
X150189563Y-112242319D01*
X150146094Y-112246600D01*
X143140979Y-112246600D01*
X142484535Y-111590157D01*
X142473226Y-111533302D01*
X142395205Y-111344944D01*
X142298490Y-111200200D01*
X142395205Y-111055456D01*
X142473226Y-110867098D01*
X142513000Y-110667139D01*
X142513000Y-110463261D01*
X142473226Y-110263302D01*
X142395205Y-110074944D01*
X142281937Y-109905426D01*
X142137774Y-109761263D01*
X141968256Y-109647995D01*
X141779898Y-109569974D01*
X141579939Y-109530200D01*
X141376061Y-109530200D01*
X141176102Y-109569974D01*
X140987744Y-109647995D01*
X140939546Y-109680200D01*
X140328665Y-109680200D01*
X140285199Y-109675919D01*
X140241733Y-109680200D01*
X140241723Y-109680200D01*
X140111710Y-109693005D01*
X139944887Y-109743611D01*
X139791141Y-109825789D01*
X139656383Y-109936383D01*
X139628666Y-109970156D01*
X139460556Y-110138266D01*
X139426783Y-110165983D01*
X139316189Y-110300742D01*
X139234011Y-110454488D01*
X139206176Y-110546246D01*
X139183405Y-110621310D01*
X139182549Y-110629998D01*
X139170600Y-110751324D01*
X139170600Y-110751331D01*
X139166319Y-110794800D01*
X135771001Y-110794800D01*
X138668602Y-107897200D01*
X148044678Y-107897200D01*
X148082000Y-107900876D01*
X148119322Y-107897200D01*
X148119333Y-107897200D01*
X148230986Y-107886203D01*
X148374247Y-107842746D01*
X148506276Y-107772174D01*
X148622001Y-107677201D01*
X148645804Y-107648197D01*
X149773802Y-106520200D01*
X149961939Y-106520200D01*
X150161898Y-106480426D01*
X150350256Y-106402405D01*
X150519774Y-106289137D01*
X150663937Y-106144974D01*
X150777205Y-105975456D01*
X150855226Y-105787098D01*
X150895000Y-105587139D01*
X150895000Y-105383261D01*
X150855226Y-105183302D01*
X150777205Y-104994944D01*
X150680490Y-104850200D01*
X150777205Y-104705456D01*
X150855226Y-104517098D01*
X150895000Y-104317139D01*
X150895000Y-104113261D01*
X150855226Y-103913302D01*
X150777205Y-103724944D01*
X150663937Y-103555426D01*
X150519774Y-103411263D01*
X150350256Y-103297995D01*
X150161898Y-103219974D01*
X149961939Y-103180200D01*
X149758061Y-103180200D01*
X149558102Y-103219974D01*
X149369744Y-103297995D01*
X149200226Y-103411263D01*
X149056063Y-103555426D01*
X148942795Y-103724944D01*
X148864774Y-103913302D01*
X148825000Y-104113261D01*
X148825000Y-104175398D01*
X147073209Y-105927190D01*
X141984812Y-105927190D01*
X141989003Y-105922999D01*
X142018001Y-105899201D01*
X142112974Y-105783476D01*
X142183546Y-105651447D01*
X142227003Y-105508186D01*
X142238000Y-105396533D01*
X142238000Y-105396524D01*
X142241676Y-105359201D01*
X142238000Y-105321878D01*
X142238000Y-104918911D01*
X142281937Y-104874974D01*
X142395205Y-104705456D01*
X142473226Y-104517098D01*
X142513000Y-104317139D01*
X142513000Y-104113261D01*
X142473226Y-103913302D01*
X142395205Y-103724944D01*
X142281937Y-103555426D01*
X142137774Y-103411263D01*
X141968256Y-103297995D01*
X141779898Y-103219974D01*
X141579939Y-103180200D01*
X141376061Y-103180200D01*
X141176102Y-103219974D01*
X140987744Y-103297995D01*
X140818226Y-103411263D01*
X140674063Y-103555426D01*
X140560795Y-103724944D01*
X140482774Y-103913302D01*
X140443000Y-104113261D01*
X140443000Y-104317139D01*
X140482774Y-104517098D01*
X140560795Y-104705456D01*
X140674063Y-104874974D01*
X140718001Y-104918912D01*
X140718001Y-105044398D01*
X140285219Y-105477180D01*
X138753800Y-105477180D01*
X138753800Y-105383261D01*
X138714026Y-105183302D01*
X138636005Y-104994944D01*
X138522737Y-104825426D01*
X138378574Y-104681263D01*
X138209056Y-104567995D01*
X138020698Y-104489974D01*
X137820739Y-104450200D01*
X137616861Y-104450200D01*
X137416902Y-104489974D01*
X137228544Y-104567995D01*
X137059026Y-104681263D01*
X136914863Y-104825426D01*
X136801595Y-104994944D01*
X136723574Y-105183302D01*
X136683800Y-105383261D01*
X136683800Y-105445398D01*
X133560409Y-108568790D01*
X132386712Y-108568790D01*
X132349389Y-108565114D01*
X132312066Y-108568790D01*
X132312057Y-108568790D01*
X132200404Y-108579787D01*
X132057143Y-108623244D01*
X131925114Y-108693816D01*
X131809389Y-108788789D01*
X131785586Y-108817793D01*
X131704389Y-108898990D01*
X131481999Y-108898990D01*
X131481999Y-108737061D01*
X131442225Y-108537102D01*
X131437092Y-108524709D01*
X134053499Y-105908303D01*
X134053504Y-105908297D01*
X134140397Y-105821404D01*
X134169401Y-105797601D01*
X134264374Y-105681876D01*
X134334946Y-105549847D01*
X134378403Y-105406586D01*
X134389400Y-105294933D01*
X134389400Y-105294925D01*
X134393076Y-105257600D01*
X134389400Y-105220275D01*
X134389400Y-103370511D01*
X134433337Y-103326574D01*
X134546605Y-103157056D01*
X134624626Y-102968698D01*
X134664400Y-102768739D01*
X134664400Y-102564861D01*
X134624626Y-102364902D01*
X134546605Y-102176544D01*
X134433337Y-102007026D01*
X134289174Y-101862863D01*
X134119656Y-101749595D01*
X133931298Y-101671574D01*
X133731339Y-101631800D01*
X133527461Y-101631800D01*
X133327502Y-101671574D01*
X133139144Y-101749595D01*
X132969626Y-101862863D01*
X132825463Y-102007026D01*
X132712195Y-102176544D01*
X132634174Y-102364902D01*
X132594400Y-102564861D01*
X132594400Y-102768739D01*
X132634174Y-102968698D01*
X132712195Y-103157056D01*
X132825463Y-103326574D01*
X132869400Y-103370511D01*
X132869401Y-104942797D01*
X129936001Y-107876198D01*
X129906998Y-107900000D01*
X129812025Y-108015725D01*
X129809724Y-108020030D01*
X129787225Y-108035063D01*
X129643062Y-108179226D01*
X129529794Y-108348744D01*
X129451773Y-108537102D01*
X129411999Y-108737061D01*
X129411999Y-108898990D01*
X126112001Y-108898990D01*
X126112001Y-108755060D01*
X126072227Y-108555101D01*
X125994206Y-108366743D01*
X125880938Y-108197225D01*
X125837001Y-108153288D01*
X125837001Y-103243731D01*
X125904898Y-103230226D01*
X126093256Y-103152205D01*
X126262774Y-103038937D01*
X126406937Y-102894774D01*
X126520205Y-102725256D01*
X126598226Y-102536898D01*
X126638000Y-102336939D01*
X126638000Y-102133061D01*
X126598226Y-101933102D01*
X126520205Y-101744744D01*
X126406937Y-101575226D01*
X126262774Y-101431063D01*
X126093256Y-101317795D01*
X125904898Y-101239774D01*
X125704939Y-101200000D01*
X125501061Y-101200000D01*
X125301102Y-101239774D01*
X125112744Y-101317795D01*
X124943226Y-101431063D01*
X124799063Y-101575226D01*
X124685795Y-101744744D01*
X124607774Y-101933102D01*
X124568000Y-102133061D01*
X124568000Y-102195199D01*
X124565999Y-102197200D01*
X124537001Y-102220998D01*
X124513203Y-102249996D01*
X124513202Y-102249997D01*
X124442027Y-102336723D01*
X124371455Y-102468753D01*
X124327999Y-102612014D01*
X124313325Y-102760999D01*
X124317002Y-102798331D01*
X124317001Y-108153288D01*
X124273064Y-108197225D01*
X124159796Y-108366743D01*
X124081775Y-108555101D01*
X124042001Y-108755060D01*
X124042001Y-108898990D01*
X119029011Y-108898990D01*
X119029011Y-98113333D01*
X119032687Y-98076010D01*
X119029011Y-98038687D01*
X119029011Y-98038678D01*
X119018014Y-97927025D01*
X118974557Y-97783764D01*
X118903985Y-97651735D01*
X118840190Y-97574000D01*
X119013335Y-97574000D01*
X119290574Y-97518853D01*
X119551727Y-97410680D01*
X119786759Y-97253637D01*
X119986637Y-97053759D01*
X120142000Y-96821241D01*
X120297363Y-97053759D01*
X120490947Y-97247343D01*
X120354063Y-97384226D01*
X120240795Y-97553744D01*
X120162774Y-97742102D01*
X120123000Y-97942061D01*
X120123000Y-98145939D01*
X120162774Y-98345898D01*
X120240795Y-98534256D01*
X120354063Y-98703774D01*
X120498226Y-98847937D01*
X120667744Y-98961205D01*
X120856102Y-99039226D01*
X120913381Y-99050619D01*
X120924774Y-99107898D01*
X121002795Y-99296256D01*
X121116063Y-99465774D01*
X121260226Y-99609937D01*
X121429744Y-99723205D01*
X121618102Y-99801226D01*
X121818061Y-99841000D01*
X122021939Y-99841000D01*
X122060500Y-99833330D01*
X122067774Y-99869898D01*
X122145795Y-100058256D01*
X122259063Y-100227774D01*
X122403226Y-100371937D01*
X122572744Y-100485205D01*
X122761102Y-100563226D01*
X122961061Y-100603000D01*
X123078026Y-100603000D01*
X123083774Y-100631898D01*
X123161795Y-100820256D01*
X123275063Y-100989774D01*
X123419226Y-101133937D01*
X123588744Y-101247205D01*
X123777102Y-101325226D01*
X123977061Y-101365000D01*
X124180939Y-101365000D01*
X124380898Y-101325226D01*
X124569256Y-101247205D01*
X124738774Y-101133937D01*
X124782711Y-101090000D01*
X150045289Y-101090000D01*
X150089226Y-101133937D01*
X150258744Y-101247205D01*
X150447102Y-101325226D01*
X150647061Y-101365000D01*
X150850939Y-101365000D01*
X151050898Y-101325226D01*
X151239256Y-101247205D01*
X151408774Y-101133937D01*
X151552937Y-100989774D01*
X151666205Y-100820256D01*
X151744226Y-100631898D01*
X151750388Y-100600922D01*
X151939898Y-100563226D01*
X152128256Y-100485205D01*
X152297774Y-100371937D01*
X152402001Y-100267710D01*
X152402000Y-102674289D01*
X152358063Y-102718226D01*
X152244795Y-102887744D01*
X152166774Y-103076102D01*
X152127000Y-103276061D01*
X152127000Y-103479939D01*
X152166774Y-103679898D01*
X152244795Y-103868256D01*
X152358063Y-104037774D01*
X152502226Y-104181937D01*
X152671744Y-104295205D01*
X152860102Y-104373226D01*
X153060061Y-104413000D01*
X153263939Y-104413000D01*
X153463898Y-104373226D01*
X153652256Y-104295205D01*
X153821774Y-104181937D01*
X153965937Y-104037774D01*
X154079205Y-103868256D01*
X154157226Y-103679898D01*
X154197000Y-103479939D01*
X154197000Y-103276061D01*
X154157226Y-103076102D01*
X154079205Y-102887744D01*
X153965937Y-102718226D01*
X153922000Y-102674289D01*
X153922000Y-100583116D01*
X156284728Y-102945845D01*
X156230774Y-103076102D01*
X156191000Y-103276061D01*
X156191000Y-103479939D01*
X156230774Y-103679898D01*
X156308795Y-103868256D01*
X156422063Y-104037774D01*
X156566226Y-104181937D01*
X156735744Y-104295205D01*
X156924102Y-104373226D01*
X157124061Y-104413000D01*
X157327939Y-104413000D01*
X157527898Y-104373226D01*
X157716256Y-104295205D01*
X157885774Y-104181937D01*
X158029937Y-104037774D01*
X158143205Y-103868256D01*
X158221226Y-103679898D01*
X158261000Y-103479939D01*
X158261000Y-103276061D01*
X158221226Y-103076102D01*
X158143205Y-102887744D01*
X158029937Y-102718226D01*
X157974987Y-102663276D01*
X157931546Y-102520068D01*
X157860974Y-102388039D01*
X157766001Y-102272314D01*
X157737004Y-102248517D01*
X153021489Y-97533003D01*
X152997686Y-97503999D01*
X152881961Y-97409026D01*
X152749932Y-97338454D01*
X152606671Y-97294997D01*
X152495018Y-97284000D01*
X152495007Y-97284000D01*
X152457685Y-97280324D01*
X152420363Y-97284000D01*
X134981317Y-97284000D01*
X135026759Y-97253637D01*
X135226637Y-97053759D01*
X135383680Y-96818727D01*
X135491853Y-96557574D01*
X135547000Y-96280335D01*
X135547000Y-95997665D01*
X135491853Y-95720426D01*
X135383680Y-95459273D01*
X135226637Y-95224241D01*
X135026759Y-95024363D01*
X134791727Y-94867320D01*
X134530574Y-94759147D01*
X134428048Y-94738753D01*
X136226985Y-92939816D01*
X157723000Y-92939816D01*
X157723000Y-93242184D01*
X157781989Y-93538743D01*
X157897701Y-93818095D01*
X158065688Y-94069505D01*
X158279495Y-94283312D01*
X158530905Y-94451299D01*
X158810257Y-94567011D01*
X159106816Y-94626000D01*
X159409184Y-94626000D01*
X159705743Y-94567011D01*
X159985095Y-94451299D01*
X160236505Y-94283312D01*
X160450312Y-94069505D01*
X160552951Y-93915895D01*
X160733920Y-93975475D01*
X161618395Y-93091000D01*
X160733920Y-92206525D01*
X160552951Y-92266105D01*
X160450312Y-92112495D01*
X160364737Y-92026920D01*
X160913525Y-92026920D01*
X161798000Y-92911395D01*
X161812143Y-92897253D01*
X161991748Y-93076858D01*
X161977605Y-93091000D01*
X161991748Y-93105143D01*
X161812143Y-93284748D01*
X161798000Y-93270605D01*
X160913525Y-94155080D01*
X160997208Y-94409261D01*
X161269775Y-94540158D01*
X161562642Y-94615365D01*
X161864553Y-94631991D01*
X162163907Y-94589397D01*
X162449199Y-94489222D01*
X162598792Y-94409261D01*
X162682474Y-94155082D01*
X162798422Y-94271030D01*
X162845187Y-94224265D01*
X162848498Y-94235180D01*
X162907463Y-94345494D01*
X162986815Y-94442185D01*
X163083506Y-94521537D01*
X163193820Y-94580502D01*
X163313518Y-94616812D01*
X163438000Y-94629072D01*
X165238000Y-94629072D01*
X165362482Y-94616812D01*
X165482180Y-94580502D01*
X165592494Y-94521537D01*
X165689185Y-94442185D01*
X165768537Y-94345494D01*
X165827502Y-94235180D01*
X165863812Y-94115482D01*
X165876072Y-93991000D01*
X165876072Y-92191000D01*
X165863812Y-92066518D01*
X165827502Y-91946820D01*
X165768537Y-91836506D01*
X165689185Y-91739815D01*
X165592494Y-91660463D01*
X165482180Y-91601498D01*
X165362482Y-91565188D01*
X165238000Y-91552928D01*
X163438000Y-91552928D01*
X163313518Y-91565188D01*
X163193820Y-91601498D01*
X163083506Y-91660463D01*
X162986815Y-91739815D01*
X162907463Y-91836506D01*
X162848498Y-91946820D01*
X162845187Y-91957735D01*
X162798422Y-91910970D01*
X162682474Y-92026918D01*
X162598792Y-91772739D01*
X162326225Y-91641842D01*
X162033358Y-91566635D01*
X161731447Y-91550009D01*
X161432093Y-91592603D01*
X161146801Y-91692778D01*
X160997208Y-91772739D01*
X160913525Y-92026920D01*
X160364737Y-92026920D01*
X160236505Y-91898688D01*
X159985095Y-91730701D01*
X159705743Y-91614989D01*
X159409184Y-91556000D01*
X159106816Y-91556000D01*
X158810257Y-91614989D01*
X158530905Y-91730701D01*
X158279495Y-91898688D01*
X158065688Y-92112495D01*
X157897701Y-92363905D01*
X157781989Y-92643257D01*
X157723000Y-92939816D01*
X136226985Y-92939816D01*
X139104802Y-90062000D01*
X139166939Y-90062000D01*
X139366898Y-90022226D01*
X139555256Y-89944205D01*
X139724774Y-89830937D01*
X139868937Y-89686774D01*
X139982205Y-89517256D01*
X140060226Y-89328898D01*
X140100000Y-89128939D01*
X140100000Y-88925061D01*
X140060226Y-88725102D01*
X139982205Y-88536744D01*
X139868937Y-88367226D01*
X139724774Y-88223063D01*
X139555256Y-88109795D01*
X139366898Y-88031774D01*
X139166939Y-87992000D01*
X138963061Y-87992000D01*
X138763102Y-88031774D01*
X138574744Y-88109795D01*
X138405226Y-88223063D01*
X138261063Y-88367226D01*
X138147795Y-88536744D01*
X138069774Y-88725102D01*
X138030000Y-88925061D01*
X138030000Y-88987198D01*
X132763200Y-94253999D01*
X132372802Y-94253999D01*
X136564802Y-90062000D01*
X136626939Y-90062000D01*
X136826898Y-90022226D01*
X137015256Y-89944205D01*
X137184774Y-89830937D01*
X137328937Y-89686774D01*
X137442205Y-89517256D01*
X137520226Y-89328898D01*
X137560000Y-89128939D01*
X137560000Y-88925061D01*
X137520226Y-88725102D01*
X137442205Y-88536744D01*
X137328937Y-88367226D01*
X137184774Y-88223063D01*
X137015256Y-88109795D01*
X136826898Y-88031774D01*
X136626939Y-87992000D01*
X136423061Y-87992000D01*
X136223102Y-88031774D01*
X136034744Y-88109795D01*
X135865226Y-88223063D01*
X135721063Y-88367226D01*
X135607795Y-88536744D01*
X135529774Y-88725102D01*
X135490000Y-88925061D01*
X135490000Y-88987198D01*
X130673210Y-93803989D01*
X130282812Y-93803989D01*
X134024802Y-90062000D01*
X134086939Y-90062000D01*
X134286898Y-90022226D01*
X134475256Y-89944205D01*
X134644774Y-89830937D01*
X134788937Y-89686774D01*
X134902205Y-89517256D01*
X134980226Y-89328898D01*
X135020000Y-89128939D01*
X135020000Y-88925061D01*
X134980226Y-88725102D01*
X134902205Y-88536744D01*
X134788937Y-88367226D01*
X134644774Y-88223063D01*
X134475256Y-88109795D01*
X134286898Y-88031774D01*
X134086939Y-87992000D01*
X133883061Y-87992000D01*
X133683102Y-88031774D01*
X133494744Y-88109795D01*
X133325226Y-88223063D01*
X133181063Y-88367226D01*
X133067795Y-88536744D01*
X132989774Y-88725102D01*
X132950000Y-88925061D01*
X132950000Y-88987198D01*
X128583220Y-93353979D01*
X128192822Y-93353979D01*
X131484803Y-90062000D01*
X131546939Y-90062000D01*
X131746898Y-90022226D01*
X131935256Y-89944205D01*
X132104774Y-89830937D01*
X132248937Y-89686774D01*
X132362205Y-89517256D01*
X132440226Y-89328898D01*
X132480000Y-89128939D01*
X132480000Y-88925061D01*
X132440226Y-88725102D01*
X132362205Y-88536744D01*
X132248937Y-88367226D01*
X132104774Y-88223063D01*
X131935256Y-88109795D01*
X131746898Y-88031774D01*
X131546939Y-87992000D01*
X131343061Y-87992000D01*
X131143102Y-88031774D01*
X130954744Y-88109795D01*
X130785226Y-88223063D01*
X130641063Y-88367226D01*
X130527795Y-88536744D01*
X130449774Y-88725102D01*
X130410000Y-88925061D01*
X130410000Y-88987197D01*
X126493230Y-92903969D01*
X125191533Y-92903969D01*
X125154210Y-92900293D01*
X125116887Y-92903969D01*
X125116878Y-92903969D01*
X125005225Y-92914966D01*
X124861964Y-92958423D01*
X124729935Y-93028995D01*
X124729933Y-93028996D01*
X124729934Y-93028996D01*
X124643207Y-93100170D01*
X124643203Y-93100174D01*
X124614210Y-93123968D01*
X124590416Y-93152961D01*
X123939389Y-93803989D01*
X122387923Y-93803989D01*
X122350600Y-93800313D01*
X122313278Y-93803989D01*
X122313268Y-93803989D01*
X122201615Y-93814986D01*
X122069704Y-93855000D01*
X120433322Y-93855000D01*
X120395999Y-93851324D01*
X120358676Y-93855000D01*
X120358667Y-93855000D01*
X120247014Y-93865997D01*
X120103753Y-93909454D01*
X119971724Y-93980026D01*
X119971722Y-93980027D01*
X119971723Y-93980027D01*
X119884996Y-94051201D01*
X119884992Y-94051205D01*
X119855999Y-94074999D01*
X119832205Y-94103992D01*
X119195886Y-94740312D01*
X119013335Y-94704000D01*
X118730665Y-94704000D01*
X118453426Y-94759147D01*
X118192273Y-94867320D01*
X117957241Y-95024363D01*
X117757363Y-95224241D01*
X117602000Y-95456759D01*
X117446637Y-95224241D01*
X117246759Y-95024363D01*
X117011727Y-94867320D01*
X116750574Y-94759147D01*
X116473335Y-94704000D01*
X116190665Y-94704000D01*
X115913426Y-94759147D01*
X115652273Y-94867320D01*
X115417241Y-95024363D01*
X115217363Y-95224241D01*
X115062000Y-95456759D01*
X114906637Y-95224241D01*
X114706759Y-95024363D01*
X114471727Y-94867320D01*
X114210574Y-94759147D01*
X113933335Y-94704000D01*
X113650665Y-94704000D01*
X113373426Y-94759147D01*
X113112273Y-94867320D01*
X112877241Y-95024363D01*
X112677363Y-95224241D01*
X112522000Y-95456759D01*
X112366637Y-95224241D01*
X112166759Y-95024363D01*
X111931727Y-94867320D01*
X111670574Y-94759147D01*
X111393335Y-94704000D01*
X111110665Y-94704000D01*
X110833426Y-94759147D01*
X110572273Y-94867320D01*
X110337241Y-95024363D01*
X110137363Y-95224241D01*
X109982000Y-95456759D01*
X109826637Y-95224241D01*
X109626759Y-95024363D01*
X109392777Y-94868022D01*
X110974790Y-93286010D01*
X111636489Y-93286010D01*
X111673811Y-93289686D01*
X111711133Y-93286010D01*
X111711144Y-93286010D01*
X111822797Y-93275013D01*
X111966058Y-93231556D01*
X112098087Y-93160984D01*
X112213812Y-93066011D01*
X112237615Y-93037008D01*
X113166014Y-92108609D01*
X113195011Y-92084812D01*
X113221342Y-92052728D01*
X113289984Y-91969088D01*
X113360556Y-91837058D01*
X113378772Y-91777007D01*
X113395217Y-91722795D01*
X113521547Y-91959143D01*
X113769602Y-92261398D01*
X114071857Y-92509453D01*
X114416698Y-92693774D01*
X114790872Y-92807278D01*
X115180000Y-92845604D01*
X115569127Y-92807278D01*
X115943301Y-92693774D01*
X116141847Y-92587649D01*
X116591211Y-93037013D01*
X116615009Y-93066011D01*
X116644007Y-93089809D01*
X116730733Y-93160984D01*
X116801369Y-93198740D01*
X116862763Y-93231556D01*
X117006024Y-93275013D01*
X117117677Y-93286010D01*
X117117687Y-93286010D01*
X117155010Y-93289686D01*
X117192333Y-93286010D01*
X120680856Y-93286010D01*
X120718178Y-93289686D01*
X120755500Y-93286010D01*
X120755511Y-93286010D01*
X120867164Y-93275013D01*
X121010425Y-93231556D01*
X121142454Y-93160984D01*
X121258179Y-93066011D01*
X121281981Y-93037008D01*
X121923009Y-92395982D01*
X121952001Y-92372189D01*
X121975795Y-92343196D01*
X121975799Y-92343192D01*
X122046973Y-92256465D01*
X122046974Y-92256464D01*
X122117546Y-92124435D01*
X122161003Y-91981174D01*
X122172000Y-91869521D01*
X122172000Y-91869512D01*
X122175676Y-91832189D01*
X122172000Y-91794866D01*
X122172000Y-89087801D01*
X128382181Y-82877621D01*
X139434657Y-82877621D01*
X139471979Y-82881297D01*
X139509301Y-82877621D01*
X139509312Y-82877621D01*
X139620965Y-82866624D01*
X139764226Y-82823167D01*
X139896255Y-82752595D01*
X140011980Y-82657622D01*
X140035783Y-82628618D01*
X140441599Y-82222802D01*
X141136802Y-81527600D01*
X141198939Y-81527600D01*
X141398898Y-81487826D01*
X141587256Y-81409805D01*
X141756774Y-81296537D01*
X141900937Y-81152374D01*
X142014205Y-80982856D01*
X142092226Y-80794498D01*
X142132000Y-80594539D01*
X142132000Y-80390661D01*
X142092226Y-80190702D01*
X142014205Y-80002344D01*
X141900937Y-79832826D01*
X141756774Y-79688663D01*
X141587256Y-79575395D01*
X141398898Y-79497374D01*
X141198939Y-79457600D01*
X140995061Y-79457600D01*
X140795102Y-79497374D01*
X140606744Y-79575395D01*
X140437226Y-79688663D01*
X140293063Y-79832826D01*
X140179795Y-80002344D01*
X140101774Y-80190702D01*
X140062000Y-80390661D01*
X140062000Y-80452798D01*
X139366798Y-81148001D01*
X139157178Y-81357621D01*
X138109355Y-81357621D01*
X138200774Y-81296537D01*
X138344937Y-81152374D01*
X138458205Y-80982856D01*
X138536226Y-80794498D01*
X138576000Y-80594539D01*
X138576000Y-80390661D01*
X138536226Y-80190702D01*
X138458205Y-80002344D01*
X138344937Y-79832826D01*
X138200774Y-79688663D01*
X138031256Y-79575395D01*
X137842898Y-79497374D01*
X137642939Y-79457600D01*
X137439061Y-79457600D01*
X137239102Y-79497374D01*
X137050744Y-79575395D01*
X136881226Y-79688663D01*
X136737063Y-79832826D01*
X136623795Y-80002344D01*
X136545774Y-80190702D01*
X136506000Y-80390661D01*
X136506000Y-80452798D01*
X136051188Y-80907611D01*
X134806373Y-80907611D01*
X134853226Y-80794498D01*
X134893000Y-80594539D01*
X134893000Y-80390661D01*
X134853226Y-80190702D01*
X134775205Y-80002344D01*
X134661937Y-79832826D01*
X134517774Y-79688663D01*
X134348256Y-79575395D01*
X134159898Y-79497374D01*
X133959939Y-79457600D01*
X133756061Y-79457600D01*
X133556102Y-79497374D01*
X133367744Y-79575395D01*
X133198226Y-79688663D01*
X133054063Y-79832826D01*
X132940795Y-80002344D01*
X132862774Y-80190702D01*
X132823000Y-80390661D01*
X132823000Y-80452799D01*
X132818198Y-80457601D01*
X131083000Y-80457601D01*
X131083000Y-80390661D01*
X131043226Y-80190702D01*
X130965205Y-80002344D01*
X130851937Y-79832826D01*
X130707774Y-79688663D01*
X130538256Y-79575395D01*
X130349898Y-79497374D01*
X130149939Y-79457600D01*
X129946061Y-79457600D01*
X129746102Y-79497374D01*
X129557744Y-79575395D01*
X129388226Y-79688663D01*
X129344289Y-79732600D01*
X119775722Y-79732600D01*
X119738399Y-79728924D01*
X119701076Y-79732600D01*
X119701067Y-79732600D01*
X119589414Y-79743597D01*
X119446153Y-79787054D01*
X119314123Y-79857626D01*
X119230483Y-79926268D01*
X119198399Y-79952599D01*
X119174601Y-79981597D01*
X116141848Y-83014351D01*
X115943302Y-82908226D01*
X115569128Y-82794722D01*
X115180000Y-82756396D01*
X114790873Y-82794722D01*
X114416699Y-82908226D01*
X114071858Y-83092547D01*
X113769603Y-83340602D01*
X113521547Y-83642857D01*
X113337226Y-83987698D01*
X113223722Y-84361872D01*
X113195000Y-84653490D01*
X113195000Y-85448509D01*
X113223722Y-85740127D01*
X113337226Y-86114301D01*
X113521547Y-86459143D01*
X113769602Y-86761398D01*
X114071857Y-87009453D01*
X114416698Y-87193774D01*
X114790872Y-87307278D01*
X115180000Y-87345604D01*
X115569127Y-87307278D01*
X115943301Y-87193774D01*
X116288143Y-87009453D01*
X116590398Y-86761398D01*
X116838453Y-86459143D01*
X117022774Y-86114302D01*
X117136278Y-85740128D01*
X117165000Y-85448510D01*
X117165000Y-84653491D01*
X117136278Y-84361873D01*
X117091510Y-84214291D01*
X120053202Y-81252600D01*
X120203598Y-81252600D01*
X118868998Y-82587201D01*
X118840000Y-82610999D01*
X118816202Y-82639997D01*
X118816201Y-82639998D01*
X118745026Y-82726724D01*
X118674454Y-82858754D01*
X118663780Y-82893944D01*
X118616699Y-82908226D01*
X118271858Y-83092547D01*
X117969603Y-83340602D01*
X117721547Y-83642857D01*
X117537226Y-83987698D01*
X117423722Y-84361872D01*
X117395000Y-84653490D01*
X117395000Y-85448509D01*
X117423722Y-85740127D01*
X117537226Y-86114301D01*
X117721547Y-86459143D01*
X117969602Y-86761398D01*
X118271857Y-87009453D01*
X118616698Y-87193774D01*
X118990872Y-87307278D01*
X119380000Y-87345604D01*
X119769127Y-87307278D01*
X120143301Y-87193774D01*
X120488143Y-87009453D01*
X120790398Y-86761398D01*
X121038453Y-86459143D01*
X121222774Y-86114302D01*
X121336278Y-85740128D01*
X121365000Y-85448510D01*
X121365000Y-84653491D01*
X121336278Y-84361873D01*
X121222774Y-83987698D01*
X121038453Y-83642857D01*
X120790398Y-83340602D01*
X120501935Y-83103866D01*
X121628201Y-81977601D01*
X126496186Y-81977601D01*
X120210861Y-88262928D01*
X118280001Y-88262928D01*
X118106747Y-88279992D01*
X117940150Y-88330529D01*
X117786614Y-88412595D01*
X117652039Y-88523039D01*
X117541595Y-88657614D01*
X117459529Y-88811150D01*
X117408992Y-88977747D01*
X117391928Y-89151001D01*
X117391928Y-91688126D01*
X117091510Y-91387708D01*
X117136278Y-91240128D01*
X117165000Y-90948510D01*
X117165000Y-90153491D01*
X117136278Y-89861873D01*
X117022774Y-89487698D01*
X116838453Y-89142857D01*
X116590398Y-88840602D01*
X116288143Y-88592547D01*
X115943302Y-88408226D01*
X115569128Y-88294722D01*
X115180000Y-88256396D01*
X114790873Y-88294722D01*
X114416699Y-88408226D01*
X114071858Y-88592547D01*
X113769603Y-88840602D01*
X113521547Y-89142857D01*
X113415010Y-89342174D01*
X113415010Y-86763333D01*
X113418686Y-86726010D01*
X113415010Y-86688687D01*
X113415010Y-86688677D01*
X113404013Y-86577024D01*
X113360556Y-86433763D01*
X113289984Y-86301734D01*
X113195011Y-86186009D01*
X113166013Y-86162211D01*
X112891510Y-85887708D01*
X112936278Y-85740128D01*
X112965000Y-85448510D01*
X112965000Y-84653491D01*
X112936278Y-84361873D01*
X112822774Y-83987698D01*
X112638453Y-83642857D01*
X112390398Y-83340602D01*
X112088143Y-83092547D01*
X111743302Y-82908226D01*
X111369128Y-82794722D01*
X110980000Y-82756396D01*
X110590873Y-82794722D01*
X110216699Y-82908226D01*
X109871858Y-83092547D01*
X109569603Y-83340602D01*
X109321547Y-83642857D01*
X109137226Y-83987698D01*
X109023722Y-84361872D01*
X108995000Y-84653490D01*
X108995000Y-85448509D01*
X109023722Y-85740127D01*
X109137226Y-86114301D01*
X109321547Y-86459143D01*
X109569602Y-86761398D01*
X109871857Y-87009453D01*
X110216698Y-87193774D01*
X110590872Y-87307278D01*
X110980000Y-87345604D01*
X111369127Y-87307278D01*
X111743301Y-87193774D01*
X111895011Y-87112684D01*
X111895011Y-88489316D01*
X111743302Y-88408226D01*
X111369128Y-88294722D01*
X110980000Y-88256396D01*
X110590873Y-88294722D01*
X110216699Y-88408226D01*
X109871858Y-88592547D01*
X109569603Y-88840602D01*
X109321547Y-89142857D01*
X109137226Y-89487698D01*
X109023722Y-89861872D01*
X108995000Y-90153490D01*
X108995000Y-90576196D01*
X108765000Y-90806196D01*
X108765000Y-90153491D01*
X108736278Y-89861873D01*
X108622774Y-89487698D01*
X108438453Y-89142857D01*
X108190398Y-88840602D01*
X107888143Y-88592547D01*
X107543302Y-88408226D01*
X107169128Y-88294722D01*
X106780000Y-88256396D01*
X106390873Y-88294722D01*
X106016699Y-88408226D01*
X105671858Y-88592547D01*
X105369603Y-88840602D01*
X105121547Y-89142857D01*
X104937226Y-89487698D01*
X104823722Y-89861872D01*
X104795000Y-90153490D01*
X104795000Y-90948509D01*
X104823722Y-91240127D01*
X104937226Y-91614301D01*
X105121547Y-91959143D01*
X105369602Y-92261398D01*
X105671857Y-92509453D01*
X106016698Y-92693774D01*
X106390872Y-92807278D01*
X106730471Y-92840726D01*
X104535997Y-95035200D01*
X104506999Y-95058998D01*
X104483201Y-95087996D01*
X104483200Y-95087997D01*
X104442531Y-95137552D01*
X104373514Y-94902329D01*
X104118004Y-94781429D01*
X103843816Y-94712700D01*
X103561488Y-94698783D01*
X103281870Y-94740213D01*
X103015708Y-94835397D01*
X102890486Y-94902329D01*
X102818903Y-95146298D01*
X103632000Y-95959395D01*
X103646143Y-95945253D01*
X103825748Y-96124858D01*
X103811605Y-96139000D01*
X103825748Y-96153143D01*
X103646143Y-96332748D01*
X103632000Y-96318605D01*
X102818903Y-97131702D01*
X102890486Y-97375671D01*
X103145996Y-97496571D01*
X103420184Y-97565300D01*
X103702512Y-97579217D01*
X103982130Y-97537787D01*
X104248292Y-97442603D01*
X104373514Y-97375671D01*
X104442531Y-97140448D01*
X104506998Y-97219002D01*
X104536001Y-97242804D01*
X105068199Y-97775003D01*
X105091998Y-97804002D01*
X105120996Y-97827800D01*
X105207722Y-97898975D01*
X105288330Y-97942061D01*
X105339752Y-97969547D01*
X105483013Y-98013004D01*
X105594666Y-98024001D01*
X105594676Y-98024001D01*
X105631999Y-98027677D01*
X105669322Y-98024001D01*
X106728200Y-98024001D01*
X111456990Y-102752792D01*
X111456989Y-108434207D01*
X109626796Y-110264400D01*
X109626759Y-110264363D01*
X109391727Y-110107320D01*
X109130574Y-109999147D01*
X108853335Y-109944000D01*
X108570665Y-109944000D01*
X108293426Y-109999147D01*
X108032273Y-110107320D01*
X107797241Y-110264363D01*
X107597363Y-110464241D01*
X107442000Y-110696759D01*
X107286637Y-110464241D01*
X107086759Y-110264363D01*
X106851727Y-110107320D01*
X106590574Y-109999147D01*
X106313335Y-109944000D01*
X106030665Y-109944000D01*
X105753426Y-109999147D01*
X105492273Y-110107320D01*
X105257241Y-110264363D01*
X105057363Y-110464241D01*
X104902000Y-110696759D01*
X104746637Y-110464241D01*
X104546759Y-110264363D01*
X104311727Y-110107320D01*
X104050574Y-109999147D01*
X103773335Y-109944000D01*
X103490665Y-109944000D01*
X103213426Y-109999147D01*
X102952273Y-110107320D01*
X102717241Y-110264363D01*
X102518643Y-110462961D01*
X102517812Y-110454518D01*
X102481502Y-110334820D01*
X102422537Y-110224506D01*
X102343185Y-110127815D01*
X102246494Y-110048463D01*
X102136180Y-109989498D01*
X102016482Y-109953188D01*
X101892000Y-109940928D01*
X101377750Y-109944000D01*
X101219000Y-110102750D01*
X100965000Y-110102750D01*
X100806250Y-109944000D01*
X100292000Y-109940928D01*
X100167518Y-109953188D01*
X100047820Y-109989498D01*
X99937506Y-110048463D01*
X99840815Y-110127815D01*
X99761463Y-110224506D01*
X99702498Y-110334820D01*
X99666188Y-110454518D01*
X99653928Y-110579000D01*
X93370000Y-110579000D01*
X93370000Y-95035000D01*
X95730428Y-95035000D01*
X95730428Y-96735000D01*
X95742688Y-96859482D01*
X95778998Y-96979180D01*
X95837963Y-97089494D01*
X95917315Y-97186185D01*
X96014006Y-97265537D01*
X96124320Y-97324502D01*
X96244018Y-97360812D01*
X96368500Y-97373072D01*
X98068500Y-97373072D01*
X98192982Y-97360812D01*
X98312680Y-97324502D01*
X98422994Y-97265537D01*
X98519685Y-97186185D01*
X98599037Y-97089494D01*
X98658002Y-96979180D01*
X98694312Y-96859482D01*
X98706572Y-96735000D01*
X98706572Y-95997665D01*
X99657000Y-95997665D01*
X99657000Y-96280335D01*
X99712147Y-96557574D01*
X99820320Y-96818727D01*
X99977363Y-97053759D01*
X100177241Y-97253637D01*
X100412273Y-97410680D01*
X100673426Y-97518853D01*
X100950665Y-97574000D01*
X101233335Y-97574000D01*
X101510574Y-97518853D01*
X101771727Y-97410680D01*
X102006759Y-97253637D01*
X102206637Y-97053759D01*
X102362915Y-96819872D01*
X102395329Y-96880514D01*
X102639298Y-96952097D01*
X103452395Y-96139000D01*
X102639298Y-95325903D01*
X102395329Y-95397486D01*
X102364806Y-95461992D01*
X102363680Y-95459273D01*
X102206637Y-95224241D01*
X102006759Y-95024363D01*
X101771727Y-94867320D01*
X101510574Y-94759147D01*
X101233335Y-94704000D01*
X100950665Y-94704000D01*
X100673426Y-94759147D01*
X100412273Y-94867320D01*
X100177241Y-95024363D01*
X99977363Y-95224241D01*
X99820320Y-95459273D01*
X99712147Y-95720426D01*
X99657000Y-95997665D01*
X98706572Y-95997665D01*
X98706572Y-95035000D01*
X98694312Y-94910518D01*
X98658002Y-94790820D01*
X98599037Y-94680506D01*
X98519685Y-94583815D01*
X98422994Y-94504463D01*
X98312680Y-94445498D01*
X98240120Y-94423487D01*
X98371975Y-94291632D01*
X98534490Y-94048411D01*
X98646432Y-93778158D01*
X98703500Y-93491260D01*
X98703500Y-93198740D01*
X98646432Y-92911842D01*
X98534490Y-92641589D01*
X98371975Y-92398368D01*
X98165132Y-92191525D01*
X97990740Y-92075000D01*
X98165132Y-91958475D01*
X98371975Y-91751632D01*
X98534490Y-91508411D01*
X98646432Y-91238158D01*
X98703500Y-90951260D01*
X98703500Y-90658740D01*
X98646432Y-90371842D01*
X98555989Y-90153490D01*
X100595000Y-90153490D01*
X100595000Y-90948509D01*
X100623722Y-91240127D01*
X100737226Y-91614301D01*
X100921547Y-91959143D01*
X101169602Y-92261398D01*
X101471857Y-92509453D01*
X101816698Y-92693774D01*
X102190872Y-92807278D01*
X102580000Y-92845604D01*
X102969127Y-92807278D01*
X103343301Y-92693774D01*
X103688143Y-92509453D01*
X103990398Y-92261398D01*
X104238453Y-91959143D01*
X104422774Y-91614302D01*
X104536278Y-91240128D01*
X104565000Y-90948510D01*
X104565000Y-90153491D01*
X104536278Y-89861873D01*
X104422774Y-89487698D01*
X104238453Y-89142857D01*
X103990398Y-88840602D01*
X103688143Y-88592547D01*
X103343302Y-88408226D01*
X102969128Y-88294722D01*
X102580000Y-88256396D01*
X102190873Y-88294722D01*
X101816699Y-88408226D01*
X101471858Y-88592547D01*
X101169603Y-88840602D01*
X100921547Y-89142857D01*
X100737226Y-89487698D01*
X100623722Y-89861872D01*
X100595000Y-90153490D01*
X98555989Y-90153490D01*
X98534490Y-90101589D01*
X98371975Y-89858368D01*
X98165132Y-89651525D01*
X97921911Y-89489010D01*
X97651658Y-89377068D01*
X97364760Y-89320000D01*
X97072240Y-89320000D01*
X96785342Y-89377068D01*
X96515089Y-89489010D01*
X96271868Y-89651525D01*
X96065025Y-89858368D01*
X95902510Y-90101589D01*
X95790568Y-90371842D01*
X95733500Y-90658740D01*
X95733500Y-90951260D01*
X95790568Y-91238158D01*
X95902510Y-91508411D01*
X96065025Y-91751632D01*
X96271868Y-91958475D01*
X96446260Y-92075000D01*
X96271868Y-92191525D01*
X96065025Y-92398368D01*
X95902510Y-92641589D01*
X95790568Y-92911842D01*
X95733500Y-93198740D01*
X95733500Y-93491260D01*
X95790568Y-93778158D01*
X95902510Y-94048411D01*
X96065025Y-94291632D01*
X96196880Y-94423487D01*
X96124320Y-94445498D01*
X96014006Y-94504463D01*
X95917315Y-94583815D01*
X95837963Y-94680506D01*
X95778998Y-94790820D01*
X95742688Y-94910518D01*
X95730428Y-95035000D01*
X93370000Y-95035000D01*
X93370000Y-83732131D01*
X93661362Y-84168185D01*
X94139815Y-84646638D01*
X94702418Y-85022557D01*
X95327548Y-85281494D01*
X95991182Y-85413500D01*
X96667818Y-85413500D01*
X97331452Y-85281494D01*
X97581308Y-85178000D01*
X100595000Y-85178000D01*
X100595000Y-85478000D01*
X100657918Y-85862814D01*
X100794700Y-86227959D01*
X101000090Y-86559403D01*
X101266195Y-86844409D01*
X101582789Y-87072024D01*
X101937705Y-87233501D01*
X102144677Y-87287677D01*
X102453000Y-87172829D01*
X102453000Y-85178000D01*
X102707000Y-85178000D01*
X102707000Y-87172829D01*
X103015323Y-87287677D01*
X103222295Y-87233501D01*
X103577211Y-87072024D01*
X103893805Y-86844409D01*
X104159910Y-86559403D01*
X104365300Y-86227959D01*
X104502082Y-85862814D01*
X104565000Y-85478000D01*
X104565000Y-85178000D01*
X102707000Y-85178000D01*
X102453000Y-85178000D01*
X100595000Y-85178000D01*
X97581308Y-85178000D01*
X97956582Y-85022557D01*
X98519185Y-84646638D01*
X98541823Y-84624000D01*
X100595000Y-84624000D01*
X100595000Y-84924000D01*
X102453000Y-84924000D01*
X102453000Y-82929171D01*
X102707000Y-82929171D01*
X102707000Y-84924000D01*
X104565000Y-84924000D01*
X104565000Y-84653490D01*
X104795000Y-84653490D01*
X104795000Y-85448509D01*
X104823722Y-85740127D01*
X104937226Y-86114301D01*
X105121547Y-86459143D01*
X105369602Y-86761398D01*
X105671857Y-87009453D01*
X106016698Y-87193774D01*
X106390872Y-87307278D01*
X106780000Y-87345604D01*
X107169127Y-87307278D01*
X107543301Y-87193774D01*
X107888143Y-87009453D01*
X108190398Y-86761398D01*
X108438453Y-86459143D01*
X108622774Y-86114302D01*
X108736278Y-85740128D01*
X108765000Y-85448510D01*
X108765000Y-84653491D01*
X108736278Y-84361873D01*
X108622774Y-83987698D01*
X108438453Y-83642857D01*
X108190398Y-83340602D01*
X107888143Y-83092547D01*
X107543302Y-82908226D01*
X107169128Y-82794722D01*
X106780000Y-82756396D01*
X106390873Y-82794722D01*
X106016699Y-82908226D01*
X105671858Y-83092547D01*
X105369603Y-83340602D01*
X105121547Y-83642857D01*
X104937226Y-83987698D01*
X104823722Y-84361872D01*
X104795000Y-84653490D01*
X104565000Y-84653490D01*
X104565000Y-84624000D01*
X104502082Y-84239186D01*
X104365300Y-83874041D01*
X104159910Y-83542597D01*
X103893805Y-83257591D01*
X103577211Y-83029976D01*
X103222295Y-82868499D01*
X103015323Y-82814323D01*
X102707000Y-82929171D01*
X102453000Y-82929171D01*
X102144677Y-82814323D01*
X101937705Y-82868499D01*
X101582789Y-83029976D01*
X101266195Y-83257591D01*
X101000090Y-83542597D01*
X100794700Y-83874041D01*
X100657918Y-84239186D01*
X100595000Y-84624000D01*
X98541823Y-84624000D01*
X98997638Y-84168185D01*
X99373557Y-83605582D01*
X99632494Y-82980452D01*
X99764500Y-82316818D01*
X99764500Y-81640182D01*
X99632494Y-80976548D01*
X99373557Y-80351418D01*
X98997638Y-79788815D01*
X98519185Y-79310362D01*
X98083131Y-79019000D01*
X173474404Y-79019000D01*
X172943315Y-79373862D01*
%TA.AperFunction,Conductor*%
D23*
G36*
X172943315Y-79373862D02*
G01*
X172464862Y-79852315D01*
X172088943Y-80414918D01*
X171830006Y-81040048D01*
X171698000Y-81703682D01*
X171698000Y-82380318D01*
X171830006Y-83043952D01*
X172088943Y-83669082D01*
X172464862Y-84231685D01*
X172943315Y-84710138D01*
X173505918Y-85086057D01*
X174131048Y-85344994D01*
X174794682Y-85477000D01*
X175471318Y-85477000D01*
X176134952Y-85344994D01*
X176760082Y-85086057D01*
X177322685Y-84710138D01*
X177801138Y-84231685D01*
X178156001Y-83700595D01*
X178156000Y-123817404D01*
X177801138Y-123286315D01*
X177322685Y-122807862D01*
X176760082Y-122431943D01*
X176134952Y-122173006D01*
X175471318Y-122041000D01*
X174794682Y-122041000D01*
X174131048Y-122173006D01*
X173505918Y-122431943D01*
X172943315Y-122807862D01*
X172464862Y-123286315D01*
X172088943Y-123848918D01*
X171830006Y-124474048D01*
X171698000Y-125137682D01*
X171698000Y-125814318D01*
X171830006Y-126477952D01*
X172088943Y-127103082D01*
X172464862Y-127665685D01*
X172943315Y-128144138D01*
X173474404Y-128499000D01*
X98083131Y-128499000D01*
X98519185Y-128207638D01*
X98997638Y-127729185D01*
X99373557Y-127166582D01*
X99632494Y-126541452D01*
X99764500Y-125877818D01*
X99764500Y-125201182D01*
X99632494Y-124537548D01*
X99373557Y-123912418D01*
X98997638Y-123349815D01*
X98519185Y-122871362D01*
X98269445Y-122704491D01*
X111426000Y-122704491D01*
X111426000Y-123499510D01*
X111454722Y-123791128D01*
X111568226Y-124165302D01*
X111752547Y-124510143D01*
X112000603Y-124812398D01*
X112302858Y-125060453D01*
X112647699Y-125244774D01*
X113021873Y-125358278D01*
X113411000Y-125396604D01*
X113800128Y-125358278D01*
X114174302Y-125244774D01*
X114519143Y-125060453D01*
X114821398Y-124812398D01*
X115069453Y-124510143D01*
X115253774Y-124165302D01*
X115367278Y-123791127D01*
X115396000Y-123499509D01*
X115396000Y-122704491D01*
X115626000Y-122704491D01*
X115626000Y-123499510D01*
X115654722Y-123791128D01*
X115768226Y-124165302D01*
X115952547Y-124510143D01*
X116200603Y-124812398D01*
X116502858Y-125060453D01*
X116847699Y-125244774D01*
X117221873Y-125358278D01*
X117611000Y-125396604D01*
X118000128Y-125358278D01*
X118374302Y-125244774D01*
X118719143Y-125060453D01*
X119021398Y-124812398D01*
X119269453Y-124510143D01*
X119453774Y-124165302D01*
X119567278Y-123791127D01*
X119596000Y-123499509D01*
X119596000Y-122704491D01*
X122094000Y-122704491D01*
X122094000Y-123499510D01*
X122122722Y-123791128D01*
X122236226Y-124165302D01*
X122420547Y-124510143D01*
X122668603Y-124812398D01*
X122970858Y-125060453D01*
X123315699Y-125244774D01*
X123689873Y-125358278D01*
X124079000Y-125396604D01*
X124468128Y-125358278D01*
X124842302Y-125244774D01*
X125187143Y-125060453D01*
X125489398Y-124812398D01*
X125737453Y-124510143D01*
X125921774Y-124165302D01*
X126035278Y-123791127D01*
X126064000Y-123499509D01*
X126064000Y-122704491D01*
X126294000Y-122704491D01*
X126294000Y-123499510D01*
X126322722Y-123791128D01*
X126436226Y-124165302D01*
X126620547Y-124510143D01*
X126868603Y-124812398D01*
X127170858Y-125060453D01*
X127515699Y-125244774D01*
X127889873Y-125358278D01*
X128279000Y-125396604D01*
X128668128Y-125358278D01*
X129042302Y-125244774D01*
X129387143Y-125060453D01*
X129689398Y-124812398D01*
X129937453Y-124510143D01*
X130121774Y-124165302D01*
X130235278Y-123791127D01*
X130264000Y-123499509D01*
X130264000Y-122704491D01*
X135175000Y-122704491D01*
X135175000Y-123499510D01*
X135203722Y-123791128D01*
X135317226Y-124165302D01*
X135501547Y-124510143D01*
X135749603Y-124812398D01*
X136051858Y-125060453D01*
X136396699Y-125244774D01*
X136770873Y-125358278D01*
X137160000Y-125396604D01*
X137549128Y-125358278D01*
X137923302Y-125244774D01*
X138268143Y-125060453D01*
X138570398Y-124812398D01*
X138818453Y-124510143D01*
X139002774Y-124165302D01*
X139116278Y-123791127D01*
X139145000Y-123499509D01*
X139145000Y-122704491D01*
X139375000Y-122704491D01*
X139375000Y-123499510D01*
X139403722Y-123791128D01*
X139517226Y-124165302D01*
X139701547Y-124510143D01*
X139949603Y-124812398D01*
X140251858Y-125060453D01*
X140596699Y-125244774D01*
X140970873Y-125358278D01*
X141360000Y-125396604D01*
X141749128Y-125358278D01*
X142123302Y-125244774D01*
X142468143Y-125060453D01*
X142770398Y-124812398D01*
X143018453Y-124510143D01*
X143202774Y-124165302D01*
X143316278Y-123791127D01*
X143345000Y-123499509D01*
X143345000Y-122704491D01*
X143575000Y-122704491D01*
X143575000Y-123499510D01*
X143603722Y-123791128D01*
X143717226Y-124165302D01*
X143901547Y-124510143D01*
X144149603Y-124812398D01*
X144451858Y-125060453D01*
X144796699Y-125244774D01*
X145170873Y-125358278D01*
X145560000Y-125396604D01*
X145949128Y-125358278D01*
X146323302Y-125244774D01*
X146668143Y-125060453D01*
X146970398Y-124812398D01*
X147218453Y-124510143D01*
X147402774Y-124165302D01*
X147516278Y-123791127D01*
X147545000Y-123499509D01*
X147545000Y-122704490D01*
X147516278Y-122412872D01*
X147402774Y-122038698D01*
X147218453Y-121693857D01*
X146970398Y-121391602D01*
X146668143Y-121143547D01*
X146323301Y-120959226D01*
X145949127Y-120845722D01*
X145560000Y-120807396D01*
X145170872Y-120845722D01*
X144796698Y-120959226D01*
X144451857Y-121143547D01*
X144149602Y-121391602D01*
X143901547Y-121693857D01*
X143717226Y-122038699D01*
X143603722Y-122412873D01*
X143575000Y-122704491D01*
X143345000Y-122704491D01*
X143345000Y-122704490D01*
X143316278Y-122412872D01*
X143202774Y-122038698D01*
X143018453Y-121693857D01*
X142770398Y-121391602D01*
X142468143Y-121143547D01*
X142123301Y-120959226D01*
X141749127Y-120845722D01*
X141360000Y-120807396D01*
X140970872Y-120845722D01*
X140596698Y-120959226D01*
X140251857Y-121143547D01*
X139949602Y-121391602D01*
X139701547Y-121693857D01*
X139517226Y-122038699D01*
X139403722Y-122412873D01*
X139375000Y-122704491D01*
X139145000Y-122704491D01*
X139145000Y-122704490D01*
X139116278Y-122412872D01*
X139002774Y-122038698D01*
X138818453Y-121693857D01*
X138570398Y-121391602D01*
X138268143Y-121143547D01*
X137923301Y-120959226D01*
X137549127Y-120845722D01*
X137160000Y-120807396D01*
X136770872Y-120845722D01*
X136396698Y-120959226D01*
X136051857Y-121143547D01*
X135749602Y-121391602D01*
X135501547Y-121693857D01*
X135317226Y-122038699D01*
X135203722Y-122412873D01*
X135175000Y-122704491D01*
X130264000Y-122704491D01*
X130264000Y-122704490D01*
X130235278Y-122412872D01*
X130121774Y-122038698D01*
X129937453Y-121693857D01*
X129689398Y-121391602D01*
X129387143Y-121143547D01*
X129042301Y-120959226D01*
X128668127Y-120845722D01*
X128279000Y-120807396D01*
X127889872Y-120845722D01*
X127515698Y-120959226D01*
X127170857Y-121143547D01*
X126868602Y-121391602D01*
X126620547Y-121693857D01*
X126436226Y-122038699D01*
X126322722Y-122412873D01*
X126294000Y-122704491D01*
X126064000Y-122704491D01*
X126064000Y-122704490D01*
X126035278Y-122412872D01*
X125921774Y-122038698D01*
X125737453Y-121693857D01*
X125489398Y-121391602D01*
X125187143Y-121143547D01*
X124842301Y-120959226D01*
X124468127Y-120845722D01*
X124079000Y-120807396D01*
X123689872Y-120845722D01*
X123315698Y-120959226D01*
X122970857Y-121143547D01*
X122668602Y-121391602D01*
X122420547Y-121693857D01*
X122236226Y-122038699D01*
X122122722Y-122412873D01*
X122094000Y-122704491D01*
X119596000Y-122704491D01*
X119596000Y-122704490D01*
X119567278Y-122412872D01*
X119453774Y-122038698D01*
X119269453Y-121693857D01*
X119021398Y-121391602D01*
X118719143Y-121143547D01*
X118374301Y-120959226D01*
X118000127Y-120845722D01*
X117611000Y-120807396D01*
X117221872Y-120845722D01*
X116847698Y-120959226D01*
X116502857Y-121143547D01*
X116200602Y-121391602D01*
X115952547Y-121693857D01*
X115768226Y-122038699D01*
X115654722Y-122412873D01*
X115626000Y-122704491D01*
X115396000Y-122704491D01*
X115396000Y-122704490D01*
X115367278Y-122412872D01*
X115253774Y-122038698D01*
X115069453Y-121693857D01*
X114821398Y-121391602D01*
X114519143Y-121143547D01*
X114174301Y-120959226D01*
X113800127Y-120845722D01*
X113411000Y-120807396D01*
X113021872Y-120845722D01*
X112647698Y-120959226D01*
X112302857Y-121143547D01*
X112000602Y-121391602D01*
X111752547Y-121693857D01*
X111568226Y-122038699D01*
X111454722Y-122412873D01*
X111426000Y-122704491D01*
X98269445Y-122704491D01*
X97956582Y-122495443D01*
X97331452Y-122236506D01*
X96667818Y-122104500D01*
X95991182Y-122104500D01*
X95327548Y-122236506D01*
X94702418Y-122495443D01*
X94139815Y-122871362D01*
X93661362Y-123349815D01*
X93370000Y-123785869D01*
X93370000Y-119252000D01*
X111422928Y-119252000D01*
X111435188Y-119376482D01*
X111471498Y-119496180D01*
X111530463Y-119606494D01*
X111609815Y-119703185D01*
X111706506Y-119782537D01*
X111816820Y-119841502D01*
X111936518Y-119877812D01*
X112061000Y-119890072D01*
X113125250Y-119887000D01*
X113284000Y-119728250D01*
X113284000Y-117729000D01*
X113538000Y-117729000D01*
X113538000Y-119728250D01*
X113696750Y-119887000D01*
X114761000Y-119890072D01*
X114885482Y-119877812D01*
X115005180Y-119841502D01*
X115115494Y-119782537D01*
X115212185Y-119703185D01*
X115291537Y-119606494D01*
X115350502Y-119496180D01*
X115386812Y-119376482D01*
X115399072Y-119252000D01*
X115396000Y-117887750D01*
X115237250Y-117729000D01*
X113538000Y-117729000D01*
X113284000Y-117729000D01*
X111584750Y-117729000D01*
X111426000Y-117887750D01*
X111422928Y-119252000D01*
X93370000Y-119252000D01*
X93370000Y-115952000D01*
X111422928Y-115952000D01*
X111426000Y-117316250D01*
X111584750Y-117475000D01*
X113284000Y-117475000D01*
X113284000Y-115475750D01*
X113538000Y-115475750D01*
X113538000Y-117475000D01*
X115237250Y-117475000D01*
X115396000Y-117316250D01*
X115396251Y-117204491D01*
X115626000Y-117204491D01*
X115626000Y-117999510D01*
X115654722Y-118291128D01*
X115768226Y-118665302D01*
X115952547Y-119010143D01*
X116200603Y-119312398D01*
X116502858Y-119560453D01*
X116847699Y-119744774D01*
X117221873Y-119858278D01*
X117611000Y-119896604D01*
X118000128Y-119858278D01*
X118374302Y-119744774D01*
X118719143Y-119560453D01*
X119021398Y-119312398D01*
X119070965Y-119252000D01*
X122090928Y-119252000D01*
X122103188Y-119376482D01*
X122139498Y-119496180D01*
X122198463Y-119606494D01*
X122277815Y-119703185D01*
X122374506Y-119782537D01*
X122484820Y-119841502D01*
X122604518Y-119877812D01*
X122729000Y-119890072D01*
X123793250Y-119887000D01*
X123952000Y-119728250D01*
X123952000Y-117729000D01*
X124206000Y-117729000D01*
X124206000Y-119728250D01*
X124364750Y-119887000D01*
X125429000Y-119890072D01*
X125553482Y-119877812D01*
X125673180Y-119841502D01*
X125783494Y-119782537D01*
X125880185Y-119703185D01*
X125959537Y-119606494D01*
X126018502Y-119496180D01*
X126054812Y-119376482D01*
X126067072Y-119252000D01*
X126064000Y-117887750D01*
X125905250Y-117729000D01*
X124206000Y-117729000D01*
X123952000Y-117729000D01*
X122252750Y-117729000D01*
X122094000Y-117887750D01*
X122090928Y-119252000D01*
X119070965Y-119252000D01*
X119269453Y-119010143D01*
X119453774Y-118665302D01*
X119567278Y-118291127D01*
X119596000Y-117999509D01*
X119596000Y-117204490D01*
X119567278Y-116912872D01*
X119453774Y-116538698D01*
X119269453Y-116193857D01*
X119070966Y-115952000D01*
X122090928Y-115952000D01*
X122094000Y-117316250D01*
X122252750Y-117475000D01*
X123952000Y-117475000D01*
X123952000Y-115475750D01*
X124206000Y-115475750D01*
X124206000Y-117475000D01*
X125905250Y-117475000D01*
X126064000Y-117316250D01*
X126064251Y-117204491D01*
X126294000Y-117204491D01*
X126294000Y-117999510D01*
X126322722Y-118291128D01*
X126436226Y-118665302D01*
X126620547Y-119010143D01*
X126868603Y-119312398D01*
X127170858Y-119560453D01*
X127515699Y-119744774D01*
X127889873Y-119858278D01*
X128279000Y-119896604D01*
X128668128Y-119858278D01*
X129042302Y-119744774D01*
X129387143Y-119560453D01*
X129689398Y-119312398D01*
X129937453Y-119010143D01*
X130121774Y-118665302D01*
X130235278Y-118291127D01*
X130264000Y-117999509D01*
X130264000Y-117204490D01*
X130235278Y-116912872D01*
X130121774Y-116538698D01*
X129941807Y-116202001D01*
X135171928Y-116202001D01*
X135171928Y-119001999D01*
X135188992Y-119175253D01*
X135239529Y-119341850D01*
X135321595Y-119495386D01*
X135432039Y-119629961D01*
X135566614Y-119740405D01*
X135720150Y-119822471D01*
X135886747Y-119873008D01*
X136060001Y-119890072D01*
X138259999Y-119890072D01*
X138433253Y-119873008D01*
X138599850Y-119822471D01*
X138753386Y-119740405D01*
X138887961Y-119629961D01*
X138998405Y-119495386D01*
X139080471Y-119341850D01*
X139131008Y-119175253D01*
X139148072Y-119001999D01*
X139148072Y-117729000D01*
X139375000Y-117729000D01*
X139375000Y-118029000D01*
X139437918Y-118413814D01*
X139574700Y-118778959D01*
X139780090Y-119110403D01*
X140046195Y-119395409D01*
X140362789Y-119623024D01*
X140717705Y-119784501D01*
X140924677Y-119838677D01*
X141233000Y-119723829D01*
X141233000Y-117729000D01*
X141487000Y-117729000D01*
X141487000Y-119723829D01*
X141795323Y-119838677D01*
X142002295Y-119784501D01*
X142357211Y-119623024D01*
X142673805Y-119395409D01*
X142939910Y-119110403D01*
X143145300Y-118778959D01*
X143282082Y-118413814D01*
X143345000Y-118029000D01*
X143345000Y-117729000D01*
X143575000Y-117729000D01*
X143575000Y-118029000D01*
X143637918Y-118413814D01*
X143774700Y-118778959D01*
X143980090Y-119110403D01*
X144246195Y-119395409D01*
X144562789Y-119623024D01*
X144917705Y-119784501D01*
X145124677Y-119838677D01*
X145433000Y-119723829D01*
X145433000Y-117729000D01*
X145687000Y-117729000D01*
X145687000Y-119723829D01*
X145995323Y-119838677D01*
X146202295Y-119784501D01*
X146557211Y-119623024D01*
X146873805Y-119395409D01*
X147139910Y-119110403D01*
X147345300Y-118778959D01*
X147482082Y-118413814D01*
X147545000Y-118029000D01*
X147545000Y-117729000D01*
X145687000Y-117729000D01*
X145433000Y-117729000D01*
X143575000Y-117729000D01*
X143345000Y-117729000D01*
X141487000Y-117729000D01*
X141233000Y-117729000D01*
X139375000Y-117729000D01*
X139148072Y-117729000D01*
X139148072Y-117175000D01*
X139375000Y-117175000D01*
X139375000Y-117475000D01*
X141233000Y-117475000D01*
X141233000Y-115480171D01*
X141487000Y-115480171D01*
X141487000Y-117475000D01*
X143345000Y-117475000D01*
X143345000Y-117175000D01*
X143575000Y-117175000D01*
X143575000Y-117475000D01*
X145433000Y-117475000D01*
X145433000Y-115480171D01*
X145687000Y-115480171D01*
X145687000Y-117475000D01*
X147545000Y-117475000D01*
X147545000Y-117175000D01*
X147482082Y-116790186D01*
X147345300Y-116425041D01*
X147139910Y-116093597D01*
X146873805Y-115808591D01*
X146557211Y-115580976D01*
X146202295Y-115419499D01*
X145995323Y-115365323D01*
X145687000Y-115480171D01*
X145433000Y-115480171D01*
X145124677Y-115365323D01*
X144917705Y-115419499D01*
X144562789Y-115580976D01*
X144246195Y-115808591D01*
X143980090Y-116093597D01*
X143774700Y-116425041D01*
X143637918Y-116790186D01*
X143575000Y-117175000D01*
X143345000Y-117175000D01*
X143282082Y-116790186D01*
X143145300Y-116425041D01*
X142939910Y-116093597D01*
X142673805Y-115808591D01*
X142357211Y-115580976D01*
X142002295Y-115419499D01*
X141795323Y-115365323D01*
X141487000Y-115480171D01*
X141233000Y-115480171D01*
X140924677Y-115365323D01*
X140717705Y-115419499D01*
X140362789Y-115580976D01*
X140046195Y-115808591D01*
X139780090Y-116093597D01*
X139574700Y-116425041D01*
X139437918Y-116790186D01*
X139375000Y-117175000D01*
X139148072Y-117175000D01*
X139148072Y-116202001D01*
X139131008Y-116028747D01*
X139080471Y-115862150D01*
X138998405Y-115708614D01*
X138887961Y-115574039D01*
X138753386Y-115463595D01*
X138599850Y-115381529D01*
X138433253Y-115330992D01*
X138259999Y-115313928D01*
X136060001Y-115313928D01*
X135886747Y-115330992D01*
X135720150Y-115381529D01*
X135566614Y-115463595D01*
X135432039Y-115574039D01*
X135321595Y-115708614D01*
X135239529Y-115862150D01*
X135188992Y-116028747D01*
X135171928Y-116202001D01*
X129941807Y-116202001D01*
X129937453Y-116193857D01*
X129689398Y-115891602D01*
X129387143Y-115643547D01*
X129042301Y-115459226D01*
X128668127Y-115345722D01*
X128279000Y-115307396D01*
X127889872Y-115345722D01*
X127515698Y-115459226D01*
X127170857Y-115643547D01*
X126868602Y-115891602D01*
X126620547Y-116193857D01*
X126436226Y-116538699D01*
X126322722Y-116912873D01*
X126294000Y-117204491D01*
X126064251Y-117204491D01*
X126067072Y-115952000D01*
X126054812Y-115827518D01*
X126018502Y-115707820D01*
X125959537Y-115597506D01*
X125880185Y-115500815D01*
X125783494Y-115421463D01*
X125673180Y-115362498D01*
X125553482Y-115326188D01*
X125429000Y-115313928D01*
X124364750Y-115317000D01*
X124206000Y-115475750D01*
X123952000Y-115475750D01*
X123793250Y-115317000D01*
X122729000Y-115313928D01*
X122604518Y-115326188D01*
X122484820Y-115362498D01*
X122374506Y-115421463D01*
X122277815Y-115500815D01*
X122198463Y-115597506D01*
X122139498Y-115707820D01*
X122103188Y-115827518D01*
X122090928Y-115952000D01*
X119070966Y-115952000D01*
X119021398Y-115891602D01*
X118719143Y-115643547D01*
X118374301Y-115459226D01*
X118000127Y-115345722D01*
X117611000Y-115307396D01*
X117221872Y-115345722D01*
X116847698Y-115459226D01*
X116502857Y-115643547D01*
X116200602Y-115891602D01*
X115952547Y-116193857D01*
X115768226Y-116538699D01*
X115654722Y-116912873D01*
X115626000Y-117204491D01*
X115396251Y-117204491D01*
X115399072Y-115952000D01*
X115386812Y-115827518D01*
X115350502Y-115707820D01*
X115291537Y-115597506D01*
X115212185Y-115500815D01*
X115115494Y-115421463D01*
X115005180Y-115362498D01*
X114885482Y-115326188D01*
X114761000Y-115313928D01*
X113696750Y-115317000D01*
X113538000Y-115475750D01*
X113284000Y-115475750D01*
X113125250Y-115317000D01*
X112061000Y-115313928D01*
X111936518Y-115326188D01*
X111816820Y-115362498D01*
X111706506Y-115421463D01*
X111609815Y-115500815D01*
X111530463Y-115597506D01*
X111471498Y-115707820D01*
X111435188Y-115827518D01*
X111422928Y-115952000D01*
X93370000Y-115952000D01*
X93370000Y-112179000D01*
X99653928Y-112179000D01*
X99666188Y-112303482D01*
X99702498Y-112423180D01*
X99761463Y-112533494D01*
X99840815Y-112630185D01*
X99937506Y-112709537D01*
X100047820Y-112768502D01*
X100167518Y-112804812D01*
X100292000Y-112817072D01*
X100806250Y-112814000D01*
X100965000Y-112655250D01*
X100965000Y-111506000D01*
X99815750Y-111506000D01*
X99657000Y-111664750D01*
X99653928Y-112179000D01*
X93370000Y-112179000D01*
X93370000Y-110579000D01*
X99653928Y-110579000D01*
X99657000Y-111093250D01*
X99815750Y-111252000D01*
X100965000Y-111252000D01*
X100965000Y-110102750D01*
X101219000Y-110102750D01*
X101219000Y-111252000D01*
X101239000Y-111252000D01*
X101239000Y-111506000D01*
X101219000Y-111506000D01*
X101219000Y-112655250D01*
X101377750Y-112814000D01*
X101892000Y-112817072D01*
X102016482Y-112804812D01*
X102136180Y-112768502D01*
X102246494Y-112709537D01*
X102343185Y-112630185D01*
X102422537Y-112533494D01*
X102481502Y-112423180D01*
X102517812Y-112303482D01*
X102518643Y-112295039D01*
X102717241Y-112493637D01*
X102952273Y-112650680D01*
X103213426Y-112758853D01*
X103490665Y-112814000D01*
X103773335Y-112814000D01*
X104050574Y-112758853D01*
X104311727Y-112650680D01*
X104546759Y-112493637D01*
X104746637Y-112293759D01*
X104902000Y-112061241D01*
X105057363Y-112293759D01*
X105257241Y-112493637D01*
X105492273Y-112650680D01*
X105753426Y-112758853D01*
X106030665Y-112814000D01*
X106313335Y-112814000D01*
X106590574Y-112758853D01*
X106851727Y-112650680D01*
X107086759Y-112493637D01*
X107286637Y-112293759D01*
X107442000Y-112061241D01*
X107597363Y-112293759D01*
X107797241Y-112493637D01*
X108032273Y-112650680D01*
X108293426Y-112758853D01*
X108570665Y-112814000D01*
X108853335Y-112814000D01*
X109130574Y-112758853D01*
X109391727Y-112650680D01*
X109626759Y-112493637D01*
X109626796Y-112493600D01*
X110598210Y-113465014D01*
X110622008Y-113494012D01*
X110737733Y-113588985D01*
X110869762Y-113659557D01*
X111013023Y-113703014D01*
X111124676Y-113714011D01*
X111124685Y-113714011D01*
X111162008Y-113717687D01*
X111199331Y-113714011D01*
X127419667Y-113714011D01*
X127456989Y-113717687D01*
X127494311Y-113714011D01*
X127494322Y-113714011D01*
X127605975Y-113703014D01*
X127749236Y-113659557D01*
X127881265Y-113588985D01*
X127996990Y-113494012D01*
X128020793Y-113465008D01*
X128708114Y-112777688D01*
X128890665Y-112814000D01*
X129173335Y-112814000D01*
X129450574Y-112758853D01*
X129711727Y-112650680D01*
X129946759Y-112493637D01*
X130146637Y-112293759D01*
X130302000Y-112061241D01*
X130457363Y-112293759D01*
X130657241Y-112493637D01*
X130892273Y-112650680D01*
X131153426Y-112758853D01*
X131430665Y-112814000D01*
X131713335Y-112814000D01*
X131990574Y-112758853D01*
X132251727Y-112650680D01*
X132486759Y-112493637D01*
X132686637Y-112293759D01*
X132842000Y-112061241D01*
X132997363Y-112293759D01*
X133197241Y-112493637D01*
X133432273Y-112650680D01*
X133693426Y-112758853D01*
X133970665Y-112814000D01*
X134253335Y-112814000D01*
X134530574Y-112758853D01*
X134791727Y-112650680D01*
X135026759Y-112493637D01*
X135226637Y-112293759D01*
X135383680Y-112058727D01*
X135491853Y-111797574D01*
X135547000Y-111520335D01*
X135547000Y-111237665D01*
X135510688Y-111055113D01*
X135771001Y-110794800D01*
X139166319Y-110794800D01*
X139170600Y-110838269D01*
X139170600Y-111627333D01*
X139166319Y-111670802D01*
X139170600Y-111714271D01*
X139170600Y-111714279D01*
X139172470Y-111733261D01*
X139183405Y-111844292D01*
X139234012Y-112011115D01*
X139316190Y-112164861D01*
X139399068Y-112265848D01*
X139399071Y-112265851D01*
X139426784Y-112299619D01*
X139460551Y-112327331D01*
X141559878Y-114426659D01*
X141587591Y-114460427D01*
X141621359Y-114488140D01*
X141621361Y-114488142D01*
X141692860Y-114546820D01*
X141722349Y-114571021D01*
X141876095Y-114653199D01*
X141992311Y-114688453D01*
X142042917Y-114703805D01*
X142057714Y-114705262D01*
X142172931Y-114716610D01*
X142172939Y-114716610D01*
X142216408Y-114720891D01*
X142259877Y-114716610D01*
X149533032Y-114716610D01*
X150167811Y-115351390D01*
X150149127Y-115345722D01*
X149760000Y-115307396D01*
X149370872Y-115345722D01*
X148996698Y-115459226D01*
X148651857Y-115643547D01*
X148349602Y-115891602D01*
X148101547Y-116193857D01*
X147917226Y-116538699D01*
X147803722Y-116912873D01*
X147775000Y-117204491D01*
X147775000Y-117999510D01*
X147803722Y-118291128D01*
X147917226Y-118665302D01*
X148101547Y-119010143D01*
X148349603Y-119312398D01*
X148651858Y-119560453D01*
X148996699Y-119744774D01*
X149370873Y-119858278D01*
X149760000Y-119896604D01*
X150149128Y-119858278D01*
X150523302Y-119744774D01*
X150868143Y-119560453D01*
X150905401Y-119529876D01*
X150905401Y-120888921D01*
X150901119Y-120932400D01*
X150918205Y-121105890D01*
X150950010Y-121210734D01*
X150868143Y-121143547D01*
X150523301Y-120959226D01*
X150149127Y-120845722D01*
X149760000Y-120807396D01*
X149370872Y-120845722D01*
X148996698Y-120959226D01*
X148651857Y-121143547D01*
X148349602Y-121391602D01*
X148101547Y-121693857D01*
X147917226Y-122038699D01*
X147803722Y-122412873D01*
X147775000Y-122704491D01*
X147775000Y-123499510D01*
X147803722Y-123791128D01*
X147917226Y-124165302D01*
X148101547Y-124510143D01*
X148349603Y-124812398D01*
X148651858Y-125060453D01*
X148996699Y-125244774D01*
X149370873Y-125358278D01*
X149760000Y-125396604D01*
X150149128Y-125358278D01*
X150523302Y-125244774D01*
X150868143Y-125060453D01*
X151170398Y-124812398D01*
X151418453Y-124510143D01*
X151602774Y-124165302D01*
X151716278Y-123791127D01*
X151745000Y-123499509D01*
X151745000Y-122704490D01*
X151716278Y-122412872D01*
X151602774Y-122038698D01*
X151554149Y-121947728D01*
X152007346Y-122400925D01*
X152003722Y-122412873D01*
X151975000Y-122704491D01*
X151975000Y-123499510D01*
X152003722Y-123791128D01*
X152117226Y-124165302D01*
X152301547Y-124510143D01*
X152549603Y-124812398D01*
X152851858Y-125060453D01*
X153196699Y-125244774D01*
X153570873Y-125358278D01*
X153960000Y-125396604D01*
X154349128Y-125358278D01*
X154723302Y-125244774D01*
X155068143Y-125060453D01*
X155370398Y-124812398D01*
X155618453Y-124510143D01*
X155802774Y-124165302D01*
X155916278Y-123791127D01*
X155945000Y-123499509D01*
X155945000Y-122704491D01*
X156175000Y-122704491D01*
X156175000Y-123499510D01*
X156203722Y-123791128D01*
X156317226Y-124165302D01*
X156501547Y-124510143D01*
X156749603Y-124812398D01*
X157051858Y-125060453D01*
X157396699Y-125244774D01*
X157770873Y-125358278D01*
X158160000Y-125396604D01*
X158549128Y-125358278D01*
X158923302Y-125244774D01*
X159268143Y-125060453D01*
X159570398Y-124812398D01*
X159818453Y-124510143D01*
X160002774Y-124165302D01*
X160116278Y-123791127D01*
X160145000Y-123499509D01*
X160145000Y-122704491D01*
X160375000Y-122704491D01*
X160375000Y-123499510D01*
X160403722Y-123791128D01*
X160517226Y-124165302D01*
X160701547Y-124510143D01*
X160949603Y-124812398D01*
X161251858Y-125060453D01*
X161596699Y-125244774D01*
X161970873Y-125358278D01*
X162360000Y-125396604D01*
X162749128Y-125358278D01*
X163123302Y-125244774D01*
X163468143Y-125060453D01*
X163770398Y-124812398D01*
X164018453Y-124510143D01*
X164202774Y-124165302D01*
X164316278Y-123791127D01*
X164345000Y-123499509D01*
X164345000Y-123229000D01*
X164575000Y-123229000D01*
X164575000Y-123529000D01*
X164637918Y-123913814D01*
X164774700Y-124278959D01*
X164980090Y-124610403D01*
X165246195Y-124895409D01*
X165562789Y-125123024D01*
X165917705Y-125284501D01*
X166124677Y-125338677D01*
X166433000Y-125223829D01*
X166433000Y-123229000D01*
X166687000Y-123229000D01*
X166687000Y-125223829D01*
X166995323Y-125338677D01*
X167202295Y-125284501D01*
X167557211Y-125123024D01*
X167873805Y-124895409D01*
X168139910Y-124610403D01*
X168345300Y-124278959D01*
X168482082Y-123913814D01*
X168545000Y-123529000D01*
X168545000Y-123229000D01*
X166687000Y-123229000D01*
X166433000Y-123229000D01*
X164575000Y-123229000D01*
X164345000Y-123229000D01*
X164345000Y-122704490D01*
X164342096Y-122675000D01*
X164575000Y-122675000D01*
X164575000Y-122975000D01*
X166433000Y-122975000D01*
X166433000Y-120980171D01*
X166687000Y-120980171D01*
X166687000Y-122975000D01*
X168545000Y-122975000D01*
X168545000Y-122675000D01*
X168482082Y-122290186D01*
X168345300Y-121925041D01*
X168139910Y-121593597D01*
X167873805Y-121308591D01*
X167557211Y-121080976D01*
X167202295Y-120919499D01*
X166995323Y-120865323D01*
X166687000Y-120980171D01*
X166433000Y-120980171D01*
X166124677Y-120865323D01*
X165917705Y-120919499D01*
X165562789Y-121080976D01*
X165246195Y-121308591D01*
X164980090Y-121593597D01*
X164774700Y-121925041D01*
X164637918Y-122290186D01*
X164575000Y-122675000D01*
X164342096Y-122675000D01*
X164316278Y-122412872D01*
X164202774Y-122038698D01*
X164018453Y-121693857D01*
X163770398Y-121391602D01*
X163468143Y-121143547D01*
X163123301Y-120959226D01*
X162749127Y-120845722D01*
X162360000Y-120807396D01*
X161970872Y-120845722D01*
X161596698Y-120959226D01*
X161251857Y-121143547D01*
X160949602Y-121391602D01*
X160701547Y-121693857D01*
X160517226Y-122038699D01*
X160403722Y-122412873D01*
X160375000Y-122704491D01*
X160145000Y-122704491D01*
X160145000Y-122704490D01*
X160116278Y-122412872D01*
X160002774Y-122038698D01*
X159818453Y-121693857D01*
X159570398Y-121391602D01*
X159268143Y-121143547D01*
X158923301Y-120959226D01*
X158549127Y-120845722D01*
X158160000Y-120807396D01*
X157770872Y-120845722D01*
X157396698Y-120959226D01*
X157051857Y-121143547D01*
X156749602Y-121391602D01*
X156501547Y-121693857D01*
X156317226Y-122038699D01*
X156203722Y-122412873D01*
X156175000Y-122704491D01*
X155945000Y-122704491D01*
X155945000Y-122704490D01*
X155916278Y-122412872D01*
X155802774Y-122038698D01*
X155618453Y-121693857D01*
X155370398Y-121391602D01*
X155068143Y-121143547D01*
X154723301Y-120959226D01*
X154349127Y-120845722D01*
X153960000Y-120807396D01*
X153570872Y-120845722D01*
X153196698Y-120959226D01*
X153113353Y-121003775D01*
X152675400Y-120565822D01*
X152675400Y-119415637D01*
X152851858Y-119560453D01*
X153196699Y-119744774D01*
X153570873Y-119858278D01*
X153960000Y-119896604D01*
X154349128Y-119858278D01*
X154723302Y-119744774D01*
X155068143Y-119560453D01*
X155370398Y-119312398D01*
X155618453Y-119010143D01*
X155802774Y-118665302D01*
X155916278Y-118291127D01*
X155945000Y-117999509D01*
X155945000Y-117204491D01*
X156175000Y-117204491D01*
X156175000Y-117999510D01*
X156203722Y-118291128D01*
X156317226Y-118665302D01*
X156501547Y-119010143D01*
X156749603Y-119312398D01*
X157051858Y-119560453D01*
X157396699Y-119744774D01*
X157770873Y-119858278D01*
X158160000Y-119896604D01*
X158549128Y-119858278D01*
X158923302Y-119744774D01*
X159268143Y-119560453D01*
X159570398Y-119312398D01*
X159818453Y-119010143D01*
X160002774Y-118665302D01*
X160116278Y-118291127D01*
X160145000Y-117999509D01*
X160145000Y-117204491D01*
X160375000Y-117204491D01*
X160375000Y-117999510D01*
X160403722Y-118291128D01*
X160517226Y-118665302D01*
X160701547Y-119010143D01*
X160949603Y-119312398D01*
X161251858Y-119560453D01*
X161596699Y-119744774D01*
X161970873Y-119858278D01*
X162360000Y-119896604D01*
X162749128Y-119858278D01*
X163123302Y-119744774D01*
X163468143Y-119560453D01*
X163770398Y-119312398D01*
X164018453Y-119010143D01*
X164202774Y-118665302D01*
X164316278Y-118291127D01*
X164345000Y-117999509D01*
X164345000Y-117204491D01*
X164575000Y-117204491D01*
X164575000Y-117999510D01*
X164603722Y-118291128D01*
X164717226Y-118665302D01*
X164901547Y-119010143D01*
X165149603Y-119312398D01*
X165451858Y-119560453D01*
X165796699Y-119744774D01*
X166170873Y-119858278D01*
X166560000Y-119896604D01*
X166949128Y-119858278D01*
X167323302Y-119744774D01*
X167668143Y-119560453D01*
X167970398Y-119312398D01*
X168218453Y-119010143D01*
X168402774Y-118665302D01*
X168516278Y-118291127D01*
X168545000Y-117999509D01*
X168545000Y-117204490D01*
X168516278Y-116912872D01*
X168402774Y-116538698D01*
X168218453Y-116193857D01*
X167970398Y-115891602D01*
X167668143Y-115643547D01*
X167323301Y-115459226D01*
X166949127Y-115345722D01*
X166560000Y-115307396D01*
X166170872Y-115345722D01*
X165796698Y-115459226D01*
X165451857Y-115643547D01*
X165149602Y-115891602D01*
X164901547Y-116193857D01*
X164717226Y-116538699D01*
X164603722Y-116912873D01*
X164575000Y-117204491D01*
X164345000Y-117204491D01*
X164345000Y-117204490D01*
X164316278Y-116912872D01*
X164202774Y-116538698D01*
X164018453Y-116193857D01*
X163770398Y-115891602D01*
X163468143Y-115643547D01*
X163123301Y-115459226D01*
X162749127Y-115345722D01*
X162360000Y-115307396D01*
X161970872Y-115345722D01*
X161596698Y-115459226D01*
X161251857Y-115643547D01*
X160949602Y-115891602D01*
X160701547Y-116193857D01*
X160517226Y-116538699D01*
X160403722Y-116912873D01*
X160375000Y-117204491D01*
X160145000Y-117204491D01*
X160145000Y-117204490D01*
X160116278Y-116912872D01*
X160002774Y-116538698D01*
X159818453Y-116193857D01*
X159570398Y-115891602D01*
X159268143Y-115643547D01*
X158923301Y-115459226D01*
X158549127Y-115345722D01*
X158160000Y-115307396D01*
X157770872Y-115345722D01*
X157396698Y-115459226D01*
X157051857Y-115643547D01*
X156749602Y-115891602D01*
X156501547Y-116193857D01*
X156317226Y-116538699D01*
X156203722Y-116912873D01*
X156175000Y-117204491D01*
X155945000Y-117204491D01*
X155945000Y-117204490D01*
X155916278Y-116912872D01*
X155802774Y-116538698D01*
X155618453Y-116193857D01*
X155370398Y-115891602D01*
X155068143Y-115643547D01*
X154723301Y-115459226D01*
X154349127Y-115345722D01*
X153960000Y-115307396D01*
X153647697Y-115338155D01*
X150846097Y-112536556D01*
X150818380Y-112502783D01*
X150683622Y-112392189D01*
X150529876Y-112310011D01*
X150363053Y-112259405D01*
X150233040Y-112246600D01*
X150233032Y-112246600D01*
X150189563Y-112242319D01*
X150146094Y-112246600D01*
X143140979Y-112246600D01*
X142484535Y-111590157D01*
X142473226Y-111533302D01*
X142395205Y-111344944D01*
X142298490Y-111200200D01*
X142395205Y-111055456D01*
X142473226Y-110867098D01*
X142513000Y-110667139D01*
X142513000Y-110463261D01*
X142473226Y-110263302D01*
X142395205Y-110074944D01*
X142281937Y-109905426D01*
X142137774Y-109761263D01*
X141968256Y-109647995D01*
X141779898Y-109569974D01*
X141579939Y-109530200D01*
X141376061Y-109530200D01*
X141176102Y-109569974D01*
X140987744Y-109647995D01*
X140939546Y-109680200D01*
X140328665Y-109680200D01*
X140285199Y-109675919D01*
X140241733Y-109680200D01*
X140241723Y-109680200D01*
X140111710Y-109693005D01*
X139944887Y-109743611D01*
X139791141Y-109825789D01*
X139656383Y-109936383D01*
X139628666Y-109970156D01*
X139460556Y-110138266D01*
X139426783Y-110165983D01*
X139316189Y-110300742D01*
X139234011Y-110454488D01*
X139206176Y-110546246D01*
X139183405Y-110621310D01*
X139182549Y-110629998D01*
X139170600Y-110751324D01*
X139170600Y-110751331D01*
X139166319Y-110794800D01*
X135771001Y-110794800D01*
X138668602Y-107897200D01*
X148044678Y-107897200D01*
X148082000Y-107900876D01*
X148119322Y-107897200D01*
X148119333Y-107897200D01*
X148230986Y-107886203D01*
X148374247Y-107842746D01*
X148506276Y-107772174D01*
X148622001Y-107677201D01*
X148645804Y-107648197D01*
X149773802Y-106520200D01*
X149961939Y-106520200D01*
X150161898Y-106480426D01*
X150350256Y-106402405D01*
X150519774Y-106289137D01*
X150663937Y-106144974D01*
X150777205Y-105975456D01*
X150855226Y-105787098D01*
X150895000Y-105587139D01*
X150895000Y-105383261D01*
X150855226Y-105183302D01*
X150777205Y-104994944D01*
X150680490Y-104850200D01*
X150777205Y-104705456D01*
X150855226Y-104517098D01*
X150895000Y-104317139D01*
X150895000Y-104113261D01*
X150855226Y-103913302D01*
X150777205Y-103724944D01*
X150663937Y-103555426D01*
X150519774Y-103411263D01*
X150350256Y-103297995D01*
X150161898Y-103219974D01*
X149961939Y-103180200D01*
X149758061Y-103180200D01*
X149558102Y-103219974D01*
X149369744Y-103297995D01*
X149200226Y-103411263D01*
X149056063Y-103555426D01*
X148942795Y-103724944D01*
X148864774Y-103913302D01*
X148825000Y-104113261D01*
X148825000Y-104175398D01*
X147073209Y-105927190D01*
X141984812Y-105927190D01*
X141989003Y-105922999D01*
X142018001Y-105899201D01*
X142112974Y-105783476D01*
X142183546Y-105651447D01*
X142227003Y-105508186D01*
X142238000Y-105396533D01*
X142238000Y-105396524D01*
X142241676Y-105359201D01*
X142238000Y-105321878D01*
X142238000Y-104918911D01*
X142281937Y-104874974D01*
X142395205Y-104705456D01*
X142473226Y-104517098D01*
X142513000Y-104317139D01*
X142513000Y-104113261D01*
X142473226Y-103913302D01*
X142395205Y-103724944D01*
X142281937Y-103555426D01*
X142137774Y-103411263D01*
X141968256Y-103297995D01*
X141779898Y-103219974D01*
X141579939Y-103180200D01*
X141376061Y-103180200D01*
X141176102Y-103219974D01*
X140987744Y-103297995D01*
X140818226Y-103411263D01*
X140674063Y-103555426D01*
X140560795Y-103724944D01*
X140482774Y-103913302D01*
X140443000Y-104113261D01*
X140443000Y-104317139D01*
X140482774Y-104517098D01*
X140560795Y-104705456D01*
X140674063Y-104874974D01*
X140718001Y-104918912D01*
X140718001Y-105044398D01*
X140285219Y-105477180D01*
X138753800Y-105477180D01*
X138753800Y-105383261D01*
X138714026Y-105183302D01*
X138636005Y-104994944D01*
X138522737Y-104825426D01*
X138378574Y-104681263D01*
X138209056Y-104567995D01*
X138020698Y-104489974D01*
X137820739Y-104450200D01*
X137616861Y-104450200D01*
X137416902Y-104489974D01*
X137228544Y-104567995D01*
X137059026Y-104681263D01*
X136914863Y-104825426D01*
X136801595Y-104994944D01*
X136723574Y-105183302D01*
X136683800Y-105383261D01*
X136683800Y-105445398D01*
X133560409Y-108568790D01*
X132386712Y-108568790D01*
X132349389Y-108565114D01*
X132312066Y-108568790D01*
X132312057Y-108568790D01*
X132200404Y-108579787D01*
X132057143Y-108623244D01*
X131925114Y-108693816D01*
X131809389Y-108788789D01*
X131785586Y-108817793D01*
X131704389Y-108898990D01*
X131481999Y-108898990D01*
X131481999Y-108737061D01*
X131442225Y-108537102D01*
X131437092Y-108524709D01*
X134053499Y-105908303D01*
X134053504Y-105908297D01*
X134140397Y-105821404D01*
X134169401Y-105797601D01*
X134264374Y-105681876D01*
X134334946Y-105549847D01*
X134378403Y-105406586D01*
X134389400Y-105294933D01*
X134389400Y-105294925D01*
X134393076Y-105257600D01*
X134389400Y-105220275D01*
X134389400Y-103370511D01*
X134433337Y-103326574D01*
X134546605Y-103157056D01*
X134624626Y-102968698D01*
X134664400Y-102768739D01*
X134664400Y-102564861D01*
X134624626Y-102364902D01*
X134546605Y-102176544D01*
X134433337Y-102007026D01*
X134289174Y-101862863D01*
X134119656Y-101749595D01*
X133931298Y-101671574D01*
X133731339Y-101631800D01*
X133527461Y-101631800D01*
X133327502Y-101671574D01*
X133139144Y-101749595D01*
X132969626Y-101862863D01*
X132825463Y-102007026D01*
X132712195Y-102176544D01*
X132634174Y-102364902D01*
X132594400Y-102564861D01*
X132594400Y-102768739D01*
X132634174Y-102968698D01*
X132712195Y-103157056D01*
X132825463Y-103326574D01*
X132869400Y-103370511D01*
X132869401Y-104942797D01*
X129936001Y-107876198D01*
X129906998Y-107900000D01*
X129812025Y-108015725D01*
X129809724Y-108020030D01*
X129787225Y-108035063D01*
X129643062Y-108179226D01*
X129529794Y-108348744D01*
X129451773Y-108537102D01*
X129411999Y-108737061D01*
X129411999Y-108898990D01*
X126112001Y-108898990D01*
X126112001Y-108755060D01*
X126072227Y-108555101D01*
X125994206Y-108366743D01*
X125880938Y-108197225D01*
X125837001Y-108153288D01*
X125837001Y-103243731D01*
X125904898Y-103230226D01*
X126093256Y-103152205D01*
X126262774Y-103038937D01*
X126406937Y-102894774D01*
X126520205Y-102725256D01*
X126598226Y-102536898D01*
X126638000Y-102336939D01*
X126638000Y-102133061D01*
X126598226Y-101933102D01*
X126520205Y-101744744D01*
X126406937Y-101575226D01*
X126262774Y-101431063D01*
X126093256Y-101317795D01*
X125904898Y-101239774D01*
X125704939Y-101200000D01*
X125501061Y-101200000D01*
X125301102Y-101239774D01*
X125112744Y-101317795D01*
X124943226Y-101431063D01*
X124799063Y-101575226D01*
X124685795Y-101744744D01*
X124607774Y-101933102D01*
X124568000Y-102133061D01*
X124568000Y-102195199D01*
X124565999Y-102197200D01*
X124537001Y-102220998D01*
X124513203Y-102249996D01*
X124513202Y-102249997D01*
X124442027Y-102336723D01*
X124371455Y-102468753D01*
X124327999Y-102612014D01*
X124313325Y-102760999D01*
X124317002Y-102798331D01*
X124317001Y-108153288D01*
X124273064Y-108197225D01*
X124159796Y-108366743D01*
X124081775Y-108555101D01*
X124042001Y-108755060D01*
X124042001Y-108898990D01*
X119029011Y-108898990D01*
X119029011Y-98113333D01*
X119032687Y-98076010D01*
X119029011Y-98038687D01*
X119029011Y-98038678D01*
X119018014Y-97927025D01*
X118974557Y-97783764D01*
X118903985Y-97651735D01*
X118840190Y-97574000D01*
X119013335Y-97574000D01*
X119290574Y-97518853D01*
X119551727Y-97410680D01*
X119786759Y-97253637D01*
X119986637Y-97053759D01*
X120142000Y-96821241D01*
X120297363Y-97053759D01*
X120490947Y-97247343D01*
X120354063Y-97384226D01*
X120240795Y-97553744D01*
X120162774Y-97742102D01*
X120123000Y-97942061D01*
X120123000Y-98145939D01*
X120162774Y-98345898D01*
X120240795Y-98534256D01*
X120354063Y-98703774D01*
X120498226Y-98847937D01*
X120667744Y-98961205D01*
X120856102Y-99039226D01*
X120913381Y-99050619D01*
X120924774Y-99107898D01*
X121002795Y-99296256D01*
X121116063Y-99465774D01*
X121260226Y-99609937D01*
X121429744Y-99723205D01*
X121618102Y-99801226D01*
X121818061Y-99841000D01*
X122021939Y-99841000D01*
X122060500Y-99833330D01*
X122067774Y-99869898D01*
X122145795Y-100058256D01*
X122259063Y-100227774D01*
X122403226Y-100371937D01*
X122572744Y-100485205D01*
X122761102Y-100563226D01*
X122961061Y-100603000D01*
X123078026Y-100603000D01*
X123083774Y-100631898D01*
X123161795Y-100820256D01*
X123275063Y-100989774D01*
X123419226Y-101133937D01*
X123588744Y-101247205D01*
X123777102Y-101325226D01*
X123977061Y-101365000D01*
X124180939Y-101365000D01*
X124380898Y-101325226D01*
X124569256Y-101247205D01*
X124738774Y-101133937D01*
X124782711Y-101090000D01*
X150045289Y-101090000D01*
X150089226Y-101133937D01*
X150258744Y-101247205D01*
X150447102Y-101325226D01*
X150647061Y-101365000D01*
X150850939Y-101365000D01*
X151050898Y-101325226D01*
X151239256Y-101247205D01*
X151408774Y-101133937D01*
X151552937Y-100989774D01*
X151666205Y-100820256D01*
X151744226Y-100631898D01*
X151750388Y-100600922D01*
X151939898Y-100563226D01*
X152128256Y-100485205D01*
X152297774Y-100371937D01*
X152402001Y-100267710D01*
X152402000Y-102674289D01*
X152358063Y-102718226D01*
X152244795Y-102887744D01*
X152166774Y-103076102D01*
X152127000Y-103276061D01*
X152127000Y-103479939D01*
X152166774Y-103679898D01*
X152244795Y-103868256D01*
X152358063Y-104037774D01*
X152502226Y-104181937D01*
X152671744Y-104295205D01*
X152860102Y-104373226D01*
X153060061Y-104413000D01*
X153263939Y-104413000D01*
X153463898Y-104373226D01*
X153652256Y-104295205D01*
X153821774Y-104181937D01*
X153965937Y-104037774D01*
X154079205Y-103868256D01*
X154157226Y-103679898D01*
X154197000Y-103479939D01*
X154197000Y-103276061D01*
X154157226Y-103076102D01*
X154079205Y-102887744D01*
X153965937Y-102718226D01*
X153922000Y-102674289D01*
X153922000Y-100583116D01*
X156284728Y-102945845D01*
X156230774Y-103076102D01*
X156191000Y-103276061D01*
X156191000Y-103479939D01*
X156230774Y-103679898D01*
X156308795Y-103868256D01*
X156422063Y-104037774D01*
X156566226Y-104181937D01*
X156735744Y-104295205D01*
X156924102Y-104373226D01*
X157124061Y-104413000D01*
X157327939Y-104413000D01*
X157527898Y-104373226D01*
X157716256Y-104295205D01*
X157885774Y-104181937D01*
X158029937Y-104037774D01*
X158143205Y-103868256D01*
X158221226Y-103679898D01*
X158261000Y-103479939D01*
X158261000Y-103276061D01*
X158221226Y-103076102D01*
X158143205Y-102887744D01*
X158029937Y-102718226D01*
X157974987Y-102663276D01*
X157931546Y-102520068D01*
X157860974Y-102388039D01*
X157766001Y-102272314D01*
X157737004Y-102248517D01*
X153021489Y-97533003D01*
X152997686Y-97503999D01*
X152881961Y-97409026D01*
X152749932Y-97338454D01*
X152606671Y-97294997D01*
X152495018Y-97284000D01*
X152495007Y-97284000D01*
X152457685Y-97280324D01*
X152420363Y-97284000D01*
X134981317Y-97284000D01*
X135026759Y-97253637D01*
X135226637Y-97053759D01*
X135383680Y-96818727D01*
X135491853Y-96557574D01*
X135547000Y-96280335D01*
X135547000Y-95997665D01*
X135491853Y-95720426D01*
X135383680Y-95459273D01*
X135226637Y-95224241D01*
X135026759Y-95024363D01*
X134791727Y-94867320D01*
X134530574Y-94759147D01*
X134428048Y-94738753D01*
X136226985Y-92939816D01*
X157723000Y-92939816D01*
X157723000Y-93242184D01*
X157781989Y-93538743D01*
X157897701Y-93818095D01*
X158065688Y-94069505D01*
X158279495Y-94283312D01*
X158530905Y-94451299D01*
X158810257Y-94567011D01*
X159106816Y-94626000D01*
X159409184Y-94626000D01*
X159705743Y-94567011D01*
X159985095Y-94451299D01*
X160236505Y-94283312D01*
X160450312Y-94069505D01*
X160552951Y-93915895D01*
X160733920Y-93975475D01*
X161618395Y-93091000D01*
X160733920Y-92206525D01*
X160552951Y-92266105D01*
X160450312Y-92112495D01*
X160364737Y-92026920D01*
X160913525Y-92026920D01*
X161798000Y-92911395D01*
X161812143Y-92897253D01*
X161991748Y-93076858D01*
X161977605Y-93091000D01*
X161991748Y-93105143D01*
X161812143Y-93284748D01*
X161798000Y-93270605D01*
X160913525Y-94155080D01*
X160997208Y-94409261D01*
X161269775Y-94540158D01*
X161562642Y-94615365D01*
X161864553Y-94631991D01*
X162163907Y-94589397D01*
X162449199Y-94489222D01*
X162598792Y-94409261D01*
X162682474Y-94155082D01*
X162798422Y-94271030D01*
X162845187Y-94224265D01*
X162848498Y-94235180D01*
X162907463Y-94345494D01*
X162986815Y-94442185D01*
X163083506Y-94521537D01*
X163193820Y-94580502D01*
X163313518Y-94616812D01*
X163438000Y-94629072D01*
X165238000Y-94629072D01*
X165362482Y-94616812D01*
X165482180Y-94580502D01*
X165592494Y-94521537D01*
X165689185Y-94442185D01*
X165768537Y-94345494D01*
X165827502Y-94235180D01*
X165863812Y-94115482D01*
X165876072Y-93991000D01*
X165876072Y-92191000D01*
X165863812Y-92066518D01*
X165827502Y-91946820D01*
X165768537Y-91836506D01*
X165689185Y-91739815D01*
X165592494Y-91660463D01*
X165482180Y-91601498D01*
X165362482Y-91565188D01*
X165238000Y-91552928D01*
X163438000Y-91552928D01*
X163313518Y-91565188D01*
X163193820Y-91601498D01*
X163083506Y-91660463D01*
X162986815Y-91739815D01*
X162907463Y-91836506D01*
X162848498Y-91946820D01*
X162845187Y-91957735D01*
X162798422Y-91910970D01*
X162682474Y-92026918D01*
X162598792Y-91772739D01*
X162326225Y-91641842D01*
X162033358Y-91566635D01*
X161731447Y-91550009D01*
X161432093Y-91592603D01*
X161146801Y-91692778D01*
X160997208Y-91772739D01*
X160913525Y-92026920D01*
X160364737Y-92026920D01*
X160236505Y-91898688D01*
X159985095Y-91730701D01*
X159705743Y-91614989D01*
X159409184Y-91556000D01*
X159106816Y-91556000D01*
X158810257Y-91614989D01*
X158530905Y-91730701D01*
X158279495Y-91898688D01*
X158065688Y-92112495D01*
X157897701Y-92363905D01*
X157781989Y-92643257D01*
X157723000Y-92939816D01*
X136226985Y-92939816D01*
X139104802Y-90062000D01*
X139166939Y-90062000D01*
X139366898Y-90022226D01*
X139555256Y-89944205D01*
X139724774Y-89830937D01*
X139868937Y-89686774D01*
X139982205Y-89517256D01*
X140060226Y-89328898D01*
X140100000Y-89128939D01*
X140100000Y-88925061D01*
X140060226Y-88725102D01*
X139982205Y-88536744D01*
X139868937Y-88367226D01*
X139724774Y-88223063D01*
X139555256Y-88109795D01*
X139366898Y-88031774D01*
X139166939Y-87992000D01*
X138963061Y-87992000D01*
X138763102Y-88031774D01*
X138574744Y-88109795D01*
X138405226Y-88223063D01*
X138261063Y-88367226D01*
X138147795Y-88536744D01*
X138069774Y-88725102D01*
X138030000Y-88925061D01*
X138030000Y-88987198D01*
X132763200Y-94253999D01*
X132372802Y-94253999D01*
X136564802Y-90062000D01*
X136626939Y-90062000D01*
X136826898Y-90022226D01*
X137015256Y-89944205D01*
X137184774Y-89830937D01*
X137328937Y-89686774D01*
X137442205Y-89517256D01*
X137520226Y-89328898D01*
X137560000Y-89128939D01*
X137560000Y-88925061D01*
X137520226Y-88725102D01*
X137442205Y-88536744D01*
X137328937Y-88367226D01*
X137184774Y-88223063D01*
X137015256Y-88109795D01*
X136826898Y-88031774D01*
X136626939Y-87992000D01*
X136423061Y-87992000D01*
X136223102Y-88031774D01*
X136034744Y-88109795D01*
X135865226Y-88223063D01*
X135721063Y-88367226D01*
X135607795Y-88536744D01*
X135529774Y-88725102D01*
X135490000Y-88925061D01*
X135490000Y-88987198D01*
X130673210Y-93803989D01*
X130282812Y-93803989D01*
X134024802Y-90062000D01*
X134086939Y-90062000D01*
X134286898Y-90022226D01*
X134475256Y-89944205D01*
X134644774Y-89830937D01*
X134788937Y-89686774D01*
X134902205Y-89517256D01*
X134980226Y-89328898D01*
X135020000Y-89128939D01*
X135020000Y-88925061D01*
X134980226Y-88725102D01*
X134902205Y-88536744D01*
X134788937Y-88367226D01*
X134644774Y-88223063D01*
X134475256Y-88109795D01*
X134286898Y-88031774D01*
X134086939Y-87992000D01*
X133883061Y-87992000D01*
X133683102Y-88031774D01*
X133494744Y-88109795D01*
X133325226Y-88223063D01*
X133181063Y-88367226D01*
X133067795Y-88536744D01*
X132989774Y-88725102D01*
X132950000Y-88925061D01*
X132950000Y-88987198D01*
X128583220Y-93353979D01*
X128192822Y-93353979D01*
X131484803Y-90062000D01*
X131546939Y-90062000D01*
X131746898Y-90022226D01*
X131935256Y-89944205D01*
X132104774Y-89830937D01*
X132248937Y-89686774D01*
X132362205Y-89517256D01*
X132440226Y-89328898D01*
X132480000Y-89128939D01*
X132480000Y-88925061D01*
X132440226Y-88725102D01*
X132362205Y-88536744D01*
X132248937Y-88367226D01*
X132104774Y-88223063D01*
X131935256Y-88109795D01*
X131746898Y-88031774D01*
X131546939Y-87992000D01*
X131343061Y-87992000D01*
X131143102Y-88031774D01*
X130954744Y-88109795D01*
X130785226Y-88223063D01*
X130641063Y-88367226D01*
X130527795Y-88536744D01*
X130449774Y-88725102D01*
X130410000Y-88925061D01*
X130410000Y-88987197D01*
X126493230Y-92903969D01*
X125191533Y-92903969D01*
X125154210Y-92900293D01*
X125116887Y-92903969D01*
X125116878Y-92903969D01*
X125005225Y-92914966D01*
X124861964Y-92958423D01*
X124729935Y-93028995D01*
X124729933Y-93028996D01*
X124729934Y-93028996D01*
X124643207Y-93100170D01*
X124643203Y-93100174D01*
X124614210Y-93123968D01*
X124590416Y-93152961D01*
X123939389Y-93803989D01*
X122387923Y-93803989D01*
X122350600Y-93800313D01*
X122313278Y-93803989D01*
X122313268Y-93803989D01*
X122201615Y-93814986D01*
X122069704Y-93855000D01*
X120433322Y-93855000D01*
X120395999Y-93851324D01*
X120358676Y-93855000D01*
X120358667Y-93855000D01*
X120247014Y-93865997D01*
X120103753Y-93909454D01*
X119971724Y-93980026D01*
X119971722Y-93980027D01*
X119971723Y-93980027D01*
X119884996Y-94051201D01*
X119884992Y-94051205D01*
X119855999Y-94074999D01*
X119832205Y-94103992D01*
X119195886Y-94740312D01*
X119013335Y-94704000D01*
X118730665Y-94704000D01*
X118453426Y-94759147D01*
X118192273Y-94867320D01*
X117957241Y-95024363D01*
X117757363Y-95224241D01*
X117602000Y-95456759D01*
X117446637Y-95224241D01*
X117246759Y-95024363D01*
X117011727Y-94867320D01*
X116750574Y-94759147D01*
X116473335Y-94704000D01*
X116190665Y-94704000D01*
X115913426Y-94759147D01*
X115652273Y-94867320D01*
X115417241Y-95024363D01*
X115217363Y-95224241D01*
X115062000Y-95456759D01*
X114906637Y-95224241D01*
X114706759Y-95024363D01*
X114471727Y-94867320D01*
X114210574Y-94759147D01*
X113933335Y-94704000D01*
X113650665Y-94704000D01*
X113373426Y-94759147D01*
X113112273Y-94867320D01*
X112877241Y-95024363D01*
X112677363Y-95224241D01*
X112522000Y-95456759D01*
X112366637Y-95224241D01*
X112166759Y-95024363D01*
X111931727Y-94867320D01*
X111670574Y-94759147D01*
X111393335Y-94704000D01*
X111110665Y-94704000D01*
X110833426Y-94759147D01*
X110572273Y-94867320D01*
X110337241Y-95024363D01*
X110137363Y-95224241D01*
X109982000Y-95456759D01*
X109826637Y-95224241D01*
X109626759Y-95024363D01*
X109392777Y-94868022D01*
X110974790Y-93286010D01*
X111636489Y-93286010D01*
X111673811Y-93289686D01*
X111711133Y-93286010D01*
X111711144Y-93286010D01*
X111822797Y-93275013D01*
X111966058Y-93231556D01*
X112098087Y-93160984D01*
X112213812Y-93066011D01*
X112237615Y-93037008D01*
X113166014Y-92108609D01*
X113195011Y-92084812D01*
X113221342Y-92052728D01*
X113289984Y-91969088D01*
X113360556Y-91837058D01*
X113378772Y-91777007D01*
X113395217Y-91722795D01*
X113521547Y-91959143D01*
X113769602Y-92261398D01*
X114071857Y-92509453D01*
X114416698Y-92693774D01*
X114790872Y-92807278D01*
X115180000Y-92845604D01*
X115569127Y-92807278D01*
X115943301Y-92693774D01*
X116141847Y-92587649D01*
X116591211Y-93037013D01*
X116615009Y-93066011D01*
X116644007Y-93089809D01*
X116730733Y-93160984D01*
X116801369Y-93198740D01*
X116862763Y-93231556D01*
X117006024Y-93275013D01*
X117117677Y-93286010D01*
X117117687Y-93286010D01*
X117155010Y-93289686D01*
X117192333Y-93286010D01*
X120680856Y-93286010D01*
X120718178Y-93289686D01*
X120755500Y-93286010D01*
X120755511Y-93286010D01*
X120867164Y-93275013D01*
X121010425Y-93231556D01*
X121142454Y-93160984D01*
X121258179Y-93066011D01*
X121281981Y-93037008D01*
X121923009Y-92395982D01*
X121952001Y-92372189D01*
X121975795Y-92343196D01*
X121975799Y-92343192D01*
X122046973Y-92256465D01*
X122046974Y-92256464D01*
X122117546Y-92124435D01*
X122161003Y-91981174D01*
X122172000Y-91869521D01*
X122172000Y-91869512D01*
X122175676Y-91832189D01*
X122172000Y-91794866D01*
X122172000Y-89087801D01*
X128382181Y-82877621D01*
X139434657Y-82877621D01*
X139471979Y-82881297D01*
X139509301Y-82877621D01*
X139509312Y-82877621D01*
X139620965Y-82866624D01*
X139764226Y-82823167D01*
X139896255Y-82752595D01*
X140011980Y-82657622D01*
X140035783Y-82628618D01*
X140441599Y-82222802D01*
X141136802Y-81527600D01*
X141198939Y-81527600D01*
X141398898Y-81487826D01*
X141587256Y-81409805D01*
X141756774Y-81296537D01*
X141900937Y-81152374D01*
X142014205Y-80982856D01*
X142092226Y-80794498D01*
X142132000Y-80594539D01*
X142132000Y-80390661D01*
X142092226Y-80190702D01*
X142014205Y-80002344D01*
X141900937Y-79832826D01*
X141756774Y-79688663D01*
X141587256Y-79575395D01*
X141398898Y-79497374D01*
X141198939Y-79457600D01*
X140995061Y-79457600D01*
X140795102Y-79497374D01*
X140606744Y-79575395D01*
X140437226Y-79688663D01*
X140293063Y-79832826D01*
X140179795Y-80002344D01*
X140101774Y-80190702D01*
X140062000Y-80390661D01*
X140062000Y-80452798D01*
X139366798Y-81148001D01*
X139157178Y-81357621D01*
X138109355Y-81357621D01*
X138200774Y-81296537D01*
X138344937Y-81152374D01*
X138458205Y-80982856D01*
X138536226Y-80794498D01*
X138576000Y-80594539D01*
X138576000Y-80390661D01*
X138536226Y-80190702D01*
X138458205Y-80002344D01*
X138344937Y-79832826D01*
X138200774Y-79688663D01*
X138031256Y-79575395D01*
X137842898Y-79497374D01*
X137642939Y-79457600D01*
X137439061Y-79457600D01*
X137239102Y-79497374D01*
X137050744Y-79575395D01*
X136881226Y-79688663D01*
X136737063Y-79832826D01*
X136623795Y-80002344D01*
X136545774Y-80190702D01*
X136506000Y-80390661D01*
X136506000Y-80452798D01*
X136051188Y-80907611D01*
X134806373Y-80907611D01*
X134853226Y-80794498D01*
X134893000Y-80594539D01*
X134893000Y-80390661D01*
X134853226Y-80190702D01*
X134775205Y-80002344D01*
X134661937Y-79832826D01*
X134517774Y-79688663D01*
X134348256Y-79575395D01*
X134159898Y-79497374D01*
X133959939Y-79457600D01*
X133756061Y-79457600D01*
X133556102Y-79497374D01*
X133367744Y-79575395D01*
X133198226Y-79688663D01*
X133054063Y-79832826D01*
X132940795Y-80002344D01*
X132862774Y-80190702D01*
X132823000Y-80390661D01*
X132823000Y-80452799D01*
X132818198Y-80457601D01*
X131083000Y-80457601D01*
X131083000Y-80390661D01*
X131043226Y-80190702D01*
X130965205Y-80002344D01*
X130851937Y-79832826D01*
X130707774Y-79688663D01*
X130538256Y-79575395D01*
X130349898Y-79497374D01*
X130149939Y-79457600D01*
X129946061Y-79457600D01*
X129746102Y-79497374D01*
X129557744Y-79575395D01*
X129388226Y-79688663D01*
X129344289Y-79732600D01*
X119775722Y-79732600D01*
X119738399Y-79728924D01*
X119701076Y-79732600D01*
X119701067Y-79732600D01*
X119589414Y-79743597D01*
X119446153Y-79787054D01*
X119314123Y-79857626D01*
X119230483Y-79926268D01*
X119198399Y-79952599D01*
X119174601Y-79981597D01*
X116141848Y-83014351D01*
X115943302Y-82908226D01*
X115569128Y-82794722D01*
X115180000Y-82756396D01*
X114790873Y-82794722D01*
X114416699Y-82908226D01*
X114071858Y-83092547D01*
X113769603Y-83340602D01*
X113521547Y-83642857D01*
X113337226Y-83987698D01*
X113223722Y-84361872D01*
X113195000Y-84653490D01*
X113195000Y-85448509D01*
X113223722Y-85740127D01*
X113337226Y-86114301D01*
X113521547Y-86459143D01*
X113769602Y-86761398D01*
X114071857Y-87009453D01*
X114416698Y-87193774D01*
X114790872Y-87307278D01*
X115180000Y-87345604D01*
X115569127Y-87307278D01*
X115943301Y-87193774D01*
X116288143Y-87009453D01*
X116590398Y-86761398D01*
X116838453Y-86459143D01*
X117022774Y-86114302D01*
X117136278Y-85740128D01*
X117165000Y-85448510D01*
X117165000Y-84653491D01*
X117136278Y-84361873D01*
X117091510Y-84214291D01*
X120053202Y-81252600D01*
X120203598Y-81252600D01*
X118868998Y-82587201D01*
X118840000Y-82610999D01*
X118816202Y-82639997D01*
X118816201Y-82639998D01*
X118745026Y-82726724D01*
X118674454Y-82858754D01*
X118663780Y-82893944D01*
X118616699Y-82908226D01*
X118271858Y-83092547D01*
X117969603Y-83340602D01*
X117721547Y-83642857D01*
X117537226Y-83987698D01*
X117423722Y-84361872D01*
X117395000Y-84653490D01*
X117395000Y-85448509D01*
X117423722Y-85740127D01*
X117537226Y-86114301D01*
X117721547Y-86459143D01*
X117969602Y-86761398D01*
X118271857Y-87009453D01*
X118616698Y-87193774D01*
X118990872Y-87307278D01*
X119380000Y-87345604D01*
X119769127Y-87307278D01*
X120143301Y-87193774D01*
X120488143Y-87009453D01*
X120790398Y-86761398D01*
X121038453Y-86459143D01*
X121222774Y-86114302D01*
X121336278Y-85740128D01*
X121365000Y-85448510D01*
X121365000Y-84653491D01*
X121336278Y-84361873D01*
X121222774Y-83987698D01*
X121038453Y-83642857D01*
X120790398Y-83340602D01*
X120501935Y-83103866D01*
X121628201Y-81977601D01*
X126496186Y-81977601D01*
X120210861Y-88262928D01*
X118280001Y-88262928D01*
X118106747Y-88279992D01*
X117940150Y-88330529D01*
X117786614Y-88412595D01*
X117652039Y-88523039D01*
X117541595Y-88657614D01*
X117459529Y-88811150D01*
X117408992Y-88977747D01*
X117391928Y-89151001D01*
X117391928Y-91688126D01*
X117091510Y-91387708D01*
X117136278Y-91240128D01*
X117165000Y-90948510D01*
X117165000Y-90153491D01*
X117136278Y-89861873D01*
X117022774Y-89487698D01*
X116838453Y-89142857D01*
X116590398Y-88840602D01*
X116288143Y-88592547D01*
X115943302Y-88408226D01*
X115569128Y-88294722D01*
X115180000Y-88256396D01*
X114790873Y-88294722D01*
X114416699Y-88408226D01*
X114071858Y-88592547D01*
X113769603Y-88840602D01*
X113521547Y-89142857D01*
X113415010Y-89342174D01*
X113415010Y-86763333D01*
X113418686Y-86726010D01*
X113415010Y-86688687D01*
X113415010Y-86688677D01*
X113404013Y-86577024D01*
X113360556Y-86433763D01*
X113289984Y-86301734D01*
X113195011Y-86186009D01*
X113166013Y-86162211D01*
X112891510Y-85887708D01*
X112936278Y-85740128D01*
X112965000Y-85448510D01*
X112965000Y-84653491D01*
X112936278Y-84361873D01*
X112822774Y-83987698D01*
X112638453Y-83642857D01*
X112390398Y-83340602D01*
X112088143Y-83092547D01*
X111743302Y-82908226D01*
X111369128Y-82794722D01*
X110980000Y-82756396D01*
X110590873Y-82794722D01*
X110216699Y-82908226D01*
X109871858Y-83092547D01*
X109569603Y-83340602D01*
X109321547Y-83642857D01*
X109137226Y-83987698D01*
X109023722Y-84361872D01*
X108995000Y-84653490D01*
X108995000Y-85448509D01*
X109023722Y-85740127D01*
X109137226Y-86114301D01*
X109321547Y-86459143D01*
X109569602Y-86761398D01*
X109871857Y-87009453D01*
X110216698Y-87193774D01*
X110590872Y-87307278D01*
X110980000Y-87345604D01*
X111369127Y-87307278D01*
X111743301Y-87193774D01*
X111895011Y-87112684D01*
X111895011Y-88489316D01*
X111743302Y-88408226D01*
X111369128Y-88294722D01*
X110980000Y-88256396D01*
X110590873Y-88294722D01*
X110216699Y-88408226D01*
X109871858Y-88592547D01*
X109569603Y-88840602D01*
X109321547Y-89142857D01*
X109137226Y-89487698D01*
X109023722Y-89861872D01*
X108995000Y-90153490D01*
X108995000Y-90576196D01*
X108765000Y-90806196D01*
X108765000Y-90153491D01*
X108736278Y-89861873D01*
X108622774Y-89487698D01*
X108438453Y-89142857D01*
X108190398Y-88840602D01*
X107888143Y-88592547D01*
X107543302Y-88408226D01*
X107169128Y-88294722D01*
X106780000Y-88256396D01*
X106390873Y-88294722D01*
X106016699Y-88408226D01*
X105671858Y-88592547D01*
X105369603Y-88840602D01*
X105121547Y-89142857D01*
X104937226Y-89487698D01*
X104823722Y-89861872D01*
X104795000Y-90153490D01*
X104795000Y-90948509D01*
X104823722Y-91240127D01*
X104937226Y-91614301D01*
X105121547Y-91959143D01*
X105369602Y-92261398D01*
X105671857Y-92509453D01*
X106016698Y-92693774D01*
X106390872Y-92807278D01*
X106730471Y-92840726D01*
X104535997Y-95035200D01*
X104506999Y-95058998D01*
X104483201Y-95087996D01*
X104483200Y-95087997D01*
X104442531Y-95137552D01*
X104373514Y-94902329D01*
X104118004Y-94781429D01*
X103843816Y-94712700D01*
X103561488Y-94698783D01*
X103281870Y-94740213D01*
X103015708Y-94835397D01*
X102890486Y-94902329D01*
X102818903Y-95146298D01*
X103632000Y-95959395D01*
X103646143Y-95945253D01*
X103825748Y-96124858D01*
X103811605Y-96139000D01*
X103825748Y-96153143D01*
X103646143Y-96332748D01*
X103632000Y-96318605D01*
X102818903Y-97131702D01*
X102890486Y-97375671D01*
X103145996Y-97496571D01*
X103420184Y-97565300D01*
X103702512Y-97579217D01*
X103982130Y-97537787D01*
X104248292Y-97442603D01*
X104373514Y-97375671D01*
X104442531Y-97140448D01*
X104506998Y-97219002D01*
X104536001Y-97242804D01*
X105068199Y-97775003D01*
X105091998Y-97804002D01*
X105120996Y-97827800D01*
X105207722Y-97898975D01*
X105288330Y-97942061D01*
X105339752Y-97969547D01*
X105483013Y-98013004D01*
X105594666Y-98024001D01*
X105594676Y-98024001D01*
X105631999Y-98027677D01*
X105669322Y-98024001D01*
X106728200Y-98024001D01*
X111456990Y-102752792D01*
X111456989Y-108434207D01*
X109626796Y-110264400D01*
X109626759Y-110264363D01*
X109391727Y-110107320D01*
X109130574Y-109999147D01*
X108853335Y-109944000D01*
X108570665Y-109944000D01*
X108293426Y-109999147D01*
X108032273Y-110107320D01*
X107797241Y-110264363D01*
X107597363Y-110464241D01*
X107442000Y-110696759D01*
X107286637Y-110464241D01*
X107086759Y-110264363D01*
X106851727Y-110107320D01*
X106590574Y-109999147D01*
X106313335Y-109944000D01*
X106030665Y-109944000D01*
X105753426Y-109999147D01*
X105492273Y-110107320D01*
X105257241Y-110264363D01*
X105057363Y-110464241D01*
X104902000Y-110696759D01*
X104746637Y-110464241D01*
X104546759Y-110264363D01*
X104311727Y-110107320D01*
X104050574Y-109999147D01*
X103773335Y-109944000D01*
X103490665Y-109944000D01*
X103213426Y-109999147D01*
X102952273Y-110107320D01*
X102717241Y-110264363D01*
X102518643Y-110462961D01*
X102517812Y-110454518D01*
X102481502Y-110334820D01*
X102422537Y-110224506D01*
X102343185Y-110127815D01*
X102246494Y-110048463D01*
X102136180Y-109989498D01*
X102016482Y-109953188D01*
X101892000Y-109940928D01*
X101377750Y-109944000D01*
X101219000Y-110102750D01*
X100965000Y-110102750D01*
X100806250Y-109944000D01*
X100292000Y-109940928D01*
X100167518Y-109953188D01*
X100047820Y-109989498D01*
X99937506Y-110048463D01*
X99840815Y-110127815D01*
X99761463Y-110224506D01*
X99702498Y-110334820D01*
X99666188Y-110454518D01*
X99653928Y-110579000D01*
X93370000Y-110579000D01*
X93370000Y-95035000D01*
X95730428Y-95035000D01*
X95730428Y-96735000D01*
X95742688Y-96859482D01*
X95778998Y-96979180D01*
X95837963Y-97089494D01*
X95917315Y-97186185D01*
X96014006Y-97265537D01*
X96124320Y-97324502D01*
X96244018Y-97360812D01*
X96368500Y-97373072D01*
X98068500Y-97373072D01*
X98192982Y-97360812D01*
X98312680Y-97324502D01*
X98422994Y-97265537D01*
X98519685Y-97186185D01*
X98599037Y-97089494D01*
X98658002Y-96979180D01*
X98694312Y-96859482D01*
X98706572Y-96735000D01*
X98706572Y-95997665D01*
X99657000Y-95997665D01*
X99657000Y-96280335D01*
X99712147Y-96557574D01*
X99820320Y-96818727D01*
X99977363Y-97053759D01*
X100177241Y-97253637D01*
X100412273Y-97410680D01*
X100673426Y-97518853D01*
X100950665Y-97574000D01*
X101233335Y-97574000D01*
X101510574Y-97518853D01*
X101771727Y-97410680D01*
X102006759Y-97253637D01*
X102206637Y-97053759D01*
X102362915Y-96819872D01*
X102395329Y-96880514D01*
X102639298Y-96952097D01*
X103452395Y-96139000D01*
X102639298Y-95325903D01*
X102395329Y-95397486D01*
X102364806Y-95461992D01*
X102363680Y-95459273D01*
X102206637Y-95224241D01*
X102006759Y-95024363D01*
X101771727Y-94867320D01*
X101510574Y-94759147D01*
X101233335Y-94704000D01*
X100950665Y-94704000D01*
X100673426Y-94759147D01*
X100412273Y-94867320D01*
X100177241Y-95024363D01*
X99977363Y-95224241D01*
X99820320Y-95459273D01*
X99712147Y-95720426D01*
X99657000Y-95997665D01*
X98706572Y-95997665D01*
X98706572Y-95035000D01*
X98694312Y-94910518D01*
X98658002Y-94790820D01*
X98599037Y-94680506D01*
X98519685Y-94583815D01*
X98422994Y-94504463D01*
X98312680Y-94445498D01*
X98240120Y-94423487D01*
X98371975Y-94291632D01*
X98534490Y-94048411D01*
X98646432Y-93778158D01*
X98703500Y-93491260D01*
X98703500Y-93198740D01*
X98646432Y-92911842D01*
X98534490Y-92641589D01*
X98371975Y-92398368D01*
X98165132Y-92191525D01*
X97990740Y-92075000D01*
X98165132Y-91958475D01*
X98371975Y-91751632D01*
X98534490Y-91508411D01*
X98646432Y-91238158D01*
X98703500Y-90951260D01*
X98703500Y-90658740D01*
X98646432Y-90371842D01*
X98555989Y-90153490D01*
X100595000Y-90153490D01*
X100595000Y-90948509D01*
X100623722Y-91240127D01*
X100737226Y-91614301D01*
X100921547Y-91959143D01*
X101169602Y-92261398D01*
X101471857Y-92509453D01*
X101816698Y-92693774D01*
X102190872Y-92807278D01*
X102580000Y-92845604D01*
X102969127Y-92807278D01*
X103343301Y-92693774D01*
X103688143Y-92509453D01*
X103990398Y-92261398D01*
X104238453Y-91959143D01*
X104422774Y-91614302D01*
X104536278Y-91240128D01*
X104565000Y-90948510D01*
X104565000Y-90153491D01*
X104536278Y-89861873D01*
X104422774Y-89487698D01*
X104238453Y-89142857D01*
X103990398Y-88840602D01*
X103688143Y-88592547D01*
X103343302Y-88408226D01*
X102969128Y-88294722D01*
X102580000Y-88256396D01*
X102190873Y-88294722D01*
X101816699Y-88408226D01*
X101471858Y-88592547D01*
X101169603Y-88840602D01*
X100921547Y-89142857D01*
X100737226Y-89487698D01*
X100623722Y-89861872D01*
X100595000Y-90153490D01*
X98555989Y-90153490D01*
X98534490Y-90101589D01*
X98371975Y-89858368D01*
X98165132Y-89651525D01*
X97921911Y-89489010D01*
X97651658Y-89377068D01*
X97364760Y-89320000D01*
X97072240Y-89320000D01*
X96785342Y-89377068D01*
X96515089Y-89489010D01*
X96271868Y-89651525D01*
X96065025Y-89858368D01*
X95902510Y-90101589D01*
X95790568Y-90371842D01*
X95733500Y-90658740D01*
X95733500Y-90951260D01*
X95790568Y-91238158D01*
X95902510Y-91508411D01*
X96065025Y-91751632D01*
X96271868Y-91958475D01*
X96446260Y-92075000D01*
X96271868Y-92191525D01*
X96065025Y-92398368D01*
X95902510Y-92641589D01*
X95790568Y-92911842D01*
X95733500Y-93198740D01*
X95733500Y-93491260D01*
X95790568Y-93778158D01*
X95902510Y-94048411D01*
X96065025Y-94291632D01*
X96196880Y-94423487D01*
X96124320Y-94445498D01*
X96014006Y-94504463D01*
X95917315Y-94583815D01*
X95837963Y-94680506D01*
X95778998Y-94790820D01*
X95742688Y-94910518D01*
X95730428Y-95035000D01*
X93370000Y-95035000D01*
X93370000Y-83732131D01*
X93661362Y-84168185D01*
X94139815Y-84646638D01*
X94702418Y-85022557D01*
X95327548Y-85281494D01*
X95991182Y-85413500D01*
X96667818Y-85413500D01*
X97331452Y-85281494D01*
X97581308Y-85178000D01*
X100595000Y-85178000D01*
X100595000Y-85478000D01*
X100657918Y-85862814D01*
X100794700Y-86227959D01*
X101000090Y-86559403D01*
X101266195Y-86844409D01*
X101582789Y-87072024D01*
X101937705Y-87233501D01*
X102144677Y-87287677D01*
X102453000Y-87172829D01*
X102453000Y-85178000D01*
X102707000Y-85178000D01*
X102707000Y-87172829D01*
X103015323Y-87287677D01*
X103222295Y-87233501D01*
X103577211Y-87072024D01*
X103893805Y-86844409D01*
X104159910Y-86559403D01*
X104365300Y-86227959D01*
X104502082Y-85862814D01*
X104565000Y-85478000D01*
X104565000Y-85178000D01*
X102707000Y-85178000D01*
X102453000Y-85178000D01*
X100595000Y-85178000D01*
X97581308Y-85178000D01*
X97956582Y-85022557D01*
X98519185Y-84646638D01*
X98541823Y-84624000D01*
X100595000Y-84624000D01*
X100595000Y-84924000D01*
X102453000Y-84924000D01*
X102453000Y-82929171D01*
X102707000Y-82929171D01*
X102707000Y-84924000D01*
X104565000Y-84924000D01*
X104565000Y-84653490D01*
X104795000Y-84653490D01*
X104795000Y-85448509D01*
X104823722Y-85740127D01*
X104937226Y-86114301D01*
X105121547Y-86459143D01*
X105369602Y-86761398D01*
X105671857Y-87009453D01*
X106016698Y-87193774D01*
X106390872Y-87307278D01*
X106780000Y-87345604D01*
X107169127Y-87307278D01*
X107543301Y-87193774D01*
X107888143Y-87009453D01*
X108190398Y-86761398D01*
X108438453Y-86459143D01*
X108622774Y-86114302D01*
X108736278Y-85740128D01*
X108765000Y-85448510D01*
X108765000Y-84653491D01*
X108736278Y-84361873D01*
X108622774Y-83987698D01*
X108438453Y-83642857D01*
X108190398Y-83340602D01*
X107888143Y-83092547D01*
X107543302Y-82908226D01*
X107169128Y-82794722D01*
X106780000Y-82756396D01*
X106390873Y-82794722D01*
X106016699Y-82908226D01*
X105671858Y-83092547D01*
X105369603Y-83340602D01*
X105121547Y-83642857D01*
X104937226Y-83987698D01*
X104823722Y-84361872D01*
X104795000Y-84653490D01*
X104565000Y-84653490D01*
X104565000Y-84624000D01*
X104502082Y-84239186D01*
X104365300Y-83874041D01*
X104159910Y-83542597D01*
X103893805Y-83257591D01*
X103577211Y-83029976D01*
X103222295Y-82868499D01*
X103015323Y-82814323D01*
X102707000Y-82929171D01*
X102453000Y-82929171D01*
X102144677Y-82814323D01*
X101937705Y-82868499D01*
X101582789Y-83029976D01*
X101266195Y-83257591D01*
X101000090Y-83542597D01*
X100794700Y-83874041D01*
X100657918Y-84239186D01*
X100595000Y-84624000D01*
X98541823Y-84624000D01*
X98997638Y-84168185D01*
X99373557Y-83605582D01*
X99632494Y-82980452D01*
X99764500Y-82316818D01*
X99764500Y-81640182D01*
X99632494Y-80976548D01*
X99373557Y-80351418D01*
X98997638Y-79788815D01*
X98519185Y-79310362D01*
X98083131Y-79019000D01*
X173474404Y-79019000D01*
X172943315Y-79373862D01*
G37*
%TD.AperFunction*%
%TD*%
M02*
