%TF.GenerationSoftware,KiCad,Pcbnew,5.99.0+really5.1.10+dfsg1-1*%
%TF.CreationDate,2022-02-03T20:21:40+01:00*%
%TF.ProjectId,JoeMBMS_V2.0,4a6f654d-424d-4535-9f56-322e302e6b69,rev?*%
%TF.SameCoordinates,Original*%
%TF.FileFunction,Soldermask,Top*%
%TF.FilePolarity,Negative*%
%FSLAX46Y46*%
G04 Gerber Fmt 4.6, Leading zero omitted, Abs format (unit mm)*
G04 Created by KiCad (PCBNEW 5.99.0+really5.1.10+dfsg1-1) date 2022-02-03 20:21:40*
%MOMM*%
%LPD*%
G01*
G04 APERTURE LIST*
%ADD10O,1.700000X1.700000*%
%ADD11R,1.700000X1.700000*%
%ADD12R,2.900000X1.025000*%
%ADD13R,0.650000X1.310000*%
%ADD14C,2.050000*%
%ADD15C,1.150000*%
%ADD16C,1.950000*%
%ADD17R,1.950000X1.950000*%
%ADD18R,1.193800X0.812800*%
%ADD19R,1.800000X1.800000*%
%ADD20C,1.800000*%
%ADD21C,1.600000*%
%ADD22R,1.600000X1.600000*%
%ADD23R,6.400000X5.800000*%
%ADD24R,2.200000X1.200000*%
%ADD25R,1.780000X0.720000*%
G04 APERTURE END LIST*
D10*
%TO.C,REF\u002A\u002A*%
X141995000Y-54490000D03*
D11*
X139455000Y-54490000D03*
%TD*%
D12*
%TO.C,S1*%
X122600000Y-78462500D03*
D13*
X128060000Y-80595000D03*
X128060000Y-74905000D03*
X126790000Y-80595000D03*
X126790000Y-74905000D03*
X125520000Y-80595000D03*
X125520000Y-74905000D03*
X124250000Y-80595000D03*
X124250000Y-74905000D03*
X122980000Y-80595000D03*
X122980000Y-74905000D03*
X121710000Y-80595000D03*
X121710000Y-74905000D03*
X120440000Y-80595000D03*
X120440000Y-74905000D03*
D12*
X125900000Y-78462500D03*
X125900000Y-77037500D03*
X122600000Y-77037500D03*
%TD*%
D14*
%TO.C,J1*%
X109850000Y-115350000D03*
X109850000Y-64550000D03*
D15*
X113700000Y-111250000D03*
X113700000Y-68650000D03*
D16*
X105200000Y-104800000D03*
X107700000Y-104800000D03*
X110200000Y-104800000D03*
X112700000Y-104800000D03*
X105200000Y-101100000D03*
X107700000Y-101100000D03*
X110200000Y-101100000D03*
X112700000Y-101100000D03*
X105200000Y-97600000D03*
X107700000Y-97600000D03*
X110200000Y-97600000D03*
X112700000Y-97600000D03*
X105200000Y-95100000D03*
X107700000Y-95100000D03*
X110200000Y-95100000D03*
X112700000Y-95100000D03*
X105200000Y-92600000D03*
X107700000Y-92600000D03*
X110200000Y-92600000D03*
X112700000Y-92600000D03*
X105200000Y-90100000D03*
X107700000Y-90100000D03*
X110200000Y-90100000D03*
X112700000Y-90100000D03*
X105200000Y-87600000D03*
X107700000Y-87600000D03*
X110200000Y-87600000D03*
X112700000Y-87600000D03*
X105200000Y-85100000D03*
X107700000Y-85100000D03*
X110200000Y-85100000D03*
X112700000Y-85100000D03*
X105200000Y-82600000D03*
X107700000Y-82600000D03*
X110200000Y-82600000D03*
X112700000Y-82600000D03*
X105200000Y-80100000D03*
X107700000Y-80100000D03*
X110200000Y-80100000D03*
X112700000Y-80100000D03*
X105200000Y-77600000D03*
X107700000Y-77600000D03*
X110200000Y-77600000D03*
X112700000Y-77600000D03*
X105200000Y-75100000D03*
X107700000Y-75100000D03*
X110200000Y-75100000D03*
D17*
X112700000Y-75100000D03*
%TD*%
%TO.C,C1*%
G36*
G01*
X140425000Y-60950000D02*
X141375000Y-60950000D01*
G75*
G02*
X141625000Y-61200000I0J-250000D01*
G01*
X141625000Y-61700000D01*
G75*
G02*
X141375000Y-61950000I-250000J0D01*
G01*
X140425000Y-61950000D01*
G75*
G02*
X140175000Y-61700000I0J250000D01*
G01*
X140175000Y-61200000D01*
G75*
G02*
X140425000Y-60950000I250000J0D01*
G01*
G37*
G36*
G01*
X140425000Y-59050000D02*
X141375000Y-59050000D01*
G75*
G02*
X141625000Y-59300000I0J-250000D01*
G01*
X141625000Y-59800000D01*
G75*
G02*
X141375000Y-60050000I-250000J0D01*
G01*
X140425000Y-60050000D01*
G75*
G02*
X140175000Y-59800000I0J250000D01*
G01*
X140175000Y-59300000D01*
G75*
G02*
X140425000Y-59050000I250000J0D01*
G01*
G37*
%TD*%
D18*
%TO.C,U4*%
X157350001Y-79945000D03*
X157350001Y-78675000D03*
X157350001Y-77405000D03*
X157350001Y-76135000D03*
X157350001Y-74865000D03*
X157350001Y-73595000D03*
X157350001Y-72325000D03*
X157350001Y-71055000D03*
X163649999Y-71055000D03*
X163649999Y-72325000D03*
X163649999Y-73595000D03*
X163649999Y-74865000D03*
X163649999Y-76135000D03*
X163649999Y-77405000D03*
X163649999Y-78675000D03*
X163649999Y-79945000D03*
%TD*%
D19*
%TO.C,U3*%
X150600000Y-104000000D03*
D20*
X153140000Y-104000000D03*
X155680000Y-104000000D03*
%TD*%
%TO.C,U2*%
G36*
G01*
X141750000Y-63495000D02*
X141750000Y-63195000D01*
G75*
G02*
X141900000Y-63045000I150000J0D01*
G01*
X143550000Y-63045000D01*
G75*
G02*
X143700000Y-63195000I0J-150000D01*
G01*
X143700000Y-63495000D01*
G75*
G02*
X143550000Y-63645000I-150000J0D01*
G01*
X141900000Y-63645000D01*
G75*
G02*
X141750000Y-63495000I0J150000D01*
G01*
G37*
G36*
G01*
X141750000Y-64765000D02*
X141750000Y-64465000D01*
G75*
G02*
X141900000Y-64315000I150000J0D01*
G01*
X143550000Y-64315000D01*
G75*
G02*
X143700000Y-64465000I0J-150000D01*
G01*
X143700000Y-64765000D01*
G75*
G02*
X143550000Y-64915000I-150000J0D01*
G01*
X141900000Y-64915000D01*
G75*
G02*
X141750000Y-64765000I0J150000D01*
G01*
G37*
G36*
G01*
X141750000Y-66035000D02*
X141750000Y-65735000D01*
G75*
G02*
X141900000Y-65585000I150000J0D01*
G01*
X143550000Y-65585000D01*
G75*
G02*
X143700000Y-65735000I0J-150000D01*
G01*
X143700000Y-66035000D01*
G75*
G02*
X143550000Y-66185000I-150000J0D01*
G01*
X141900000Y-66185000D01*
G75*
G02*
X141750000Y-66035000I0J150000D01*
G01*
G37*
G36*
G01*
X141750000Y-67305000D02*
X141750000Y-67005000D01*
G75*
G02*
X141900000Y-66855000I150000J0D01*
G01*
X143550000Y-66855000D01*
G75*
G02*
X143700000Y-67005000I0J-150000D01*
G01*
X143700000Y-67305000D01*
G75*
G02*
X143550000Y-67455000I-150000J0D01*
G01*
X141900000Y-67455000D01*
G75*
G02*
X141750000Y-67305000I0J150000D01*
G01*
G37*
G36*
G01*
X136800000Y-67305000D02*
X136800000Y-67005000D01*
G75*
G02*
X136950000Y-66855000I150000J0D01*
G01*
X138600000Y-66855000D01*
G75*
G02*
X138750000Y-67005000I0J-150000D01*
G01*
X138750000Y-67305000D01*
G75*
G02*
X138600000Y-67455000I-150000J0D01*
G01*
X136950000Y-67455000D01*
G75*
G02*
X136800000Y-67305000I0J150000D01*
G01*
G37*
G36*
G01*
X136800000Y-66035000D02*
X136800000Y-65735000D01*
G75*
G02*
X136950000Y-65585000I150000J0D01*
G01*
X138600000Y-65585000D01*
G75*
G02*
X138750000Y-65735000I0J-150000D01*
G01*
X138750000Y-66035000D01*
G75*
G02*
X138600000Y-66185000I-150000J0D01*
G01*
X136950000Y-66185000D01*
G75*
G02*
X136800000Y-66035000I0J150000D01*
G01*
G37*
G36*
G01*
X136800000Y-64765000D02*
X136800000Y-64465000D01*
G75*
G02*
X136950000Y-64315000I150000J0D01*
G01*
X138600000Y-64315000D01*
G75*
G02*
X138750000Y-64465000I0J-150000D01*
G01*
X138750000Y-64765000D01*
G75*
G02*
X138600000Y-64915000I-150000J0D01*
G01*
X136950000Y-64915000D01*
G75*
G02*
X136800000Y-64765000I0J150000D01*
G01*
G37*
G36*
G01*
X136800000Y-63495000D02*
X136800000Y-63195000D01*
G75*
G02*
X136950000Y-63045000I150000J0D01*
G01*
X138600000Y-63045000D01*
G75*
G02*
X138750000Y-63195000I0J-150000D01*
G01*
X138750000Y-63495000D01*
G75*
G02*
X138600000Y-63645000I-150000J0D01*
G01*
X136950000Y-63645000D01*
G75*
G02*
X136800000Y-63495000I0J150000D01*
G01*
G37*
%TD*%
D21*
%TO.C,U1*%
X149620000Y-87510000D03*
X134380000Y-87510000D03*
X149620000Y-84970000D03*
X149620000Y-82430000D03*
X149620000Y-79890000D03*
X149620000Y-77350000D03*
X149620000Y-74810000D03*
X149620000Y-72270000D03*
X149620000Y-69730000D03*
X149620000Y-67190000D03*
X149620000Y-64650000D03*
X149620000Y-62110000D03*
X149620000Y-59570000D03*
X149620000Y-57030000D03*
X149620000Y-54490000D03*
X134380000Y-84970000D03*
X134380000Y-82430000D03*
X134380000Y-79890000D03*
X134380000Y-77350000D03*
X134380000Y-74810000D03*
X134380000Y-72270000D03*
X134380000Y-69730000D03*
X134380000Y-67190000D03*
X134380000Y-64650000D03*
X134380000Y-62110000D03*
X134380000Y-59570000D03*
X134380000Y-57030000D03*
D22*
X134380000Y-54490000D03*
%TD*%
%TO.C,R24*%
G36*
G01*
X103250002Y-78650000D02*
X102349998Y-78650000D01*
G75*
G02*
X102100000Y-78400002I0J249998D01*
G01*
X102100000Y-77874998D01*
G75*
G02*
X102349998Y-77625000I249998J0D01*
G01*
X103250002Y-77625000D01*
G75*
G02*
X103500000Y-77874998I0J-249998D01*
G01*
X103500000Y-78400002D01*
G75*
G02*
X103250002Y-78650000I-249998J0D01*
G01*
G37*
G36*
G01*
X103250002Y-80475000D02*
X102349998Y-80475000D01*
G75*
G02*
X102100000Y-80225002I0J249998D01*
G01*
X102100000Y-79699998D01*
G75*
G02*
X102349998Y-79450000I249998J0D01*
G01*
X103250002Y-79450000D01*
G75*
G02*
X103500000Y-79699998I0J-249998D01*
G01*
X103500000Y-80225002D01*
G75*
G02*
X103250002Y-80475000I-249998J0D01*
G01*
G37*
%TD*%
%TO.C,R23*%
G36*
G01*
X142549998Y-81150000D02*
X143450002Y-81150000D01*
G75*
G02*
X143700000Y-81399998I0J-249998D01*
G01*
X143700000Y-81925002D01*
G75*
G02*
X143450002Y-82175000I-249998J0D01*
G01*
X142549998Y-82175000D01*
G75*
G02*
X142300000Y-81925002I0J249998D01*
G01*
X142300000Y-81399998D01*
G75*
G02*
X142549998Y-81150000I249998J0D01*
G01*
G37*
G36*
G01*
X142549998Y-79325000D02*
X143450002Y-79325000D01*
G75*
G02*
X143700000Y-79574998I0J-249998D01*
G01*
X143700000Y-80100002D01*
G75*
G02*
X143450002Y-80350000I-249998J0D01*
G01*
X142549998Y-80350000D01*
G75*
G02*
X142300000Y-80100002I0J249998D01*
G01*
X142300000Y-79574998D01*
G75*
G02*
X142549998Y-79325000I249998J0D01*
G01*
G37*
%TD*%
%TO.C,R22*%
G36*
G01*
X146150000Y-82200002D02*
X146150000Y-81299998D01*
G75*
G02*
X146399998Y-81050000I249998J0D01*
G01*
X146925002Y-81050000D01*
G75*
G02*
X147175000Y-81299998I0J-249998D01*
G01*
X147175000Y-82200002D01*
G75*
G02*
X146925002Y-82450000I-249998J0D01*
G01*
X146399998Y-82450000D01*
G75*
G02*
X146150000Y-82200002I0J249998D01*
G01*
G37*
G36*
G01*
X144325000Y-82200002D02*
X144325000Y-81299998D01*
G75*
G02*
X144574998Y-81050000I249998J0D01*
G01*
X145100002Y-81050000D01*
G75*
G02*
X145350000Y-81299998I0J-249998D01*
G01*
X145350000Y-82200002D01*
G75*
G02*
X145100002Y-82450000I-249998J0D01*
G01*
X144574998Y-82450000D01*
G75*
G02*
X144325000Y-82200002I0J249998D01*
G01*
G37*
%TD*%
%TO.C,R21*%
G36*
G01*
X145350000Y-79299998D02*
X145350000Y-80200002D01*
G75*
G02*
X145100002Y-80450000I-249998J0D01*
G01*
X144574998Y-80450000D01*
G75*
G02*
X144325000Y-80200002I0J249998D01*
G01*
X144325000Y-79299998D01*
G75*
G02*
X144574998Y-79050000I249998J0D01*
G01*
X145100002Y-79050000D01*
G75*
G02*
X145350000Y-79299998I0J-249998D01*
G01*
G37*
G36*
G01*
X147175000Y-79299998D02*
X147175000Y-80200002D01*
G75*
G02*
X146925002Y-80450000I-249998J0D01*
G01*
X146399998Y-80450000D01*
G75*
G02*
X146150000Y-80200002I0J249998D01*
G01*
X146150000Y-79299998D01*
G75*
G02*
X146399998Y-79050000I249998J0D01*
G01*
X146925002Y-79050000D01*
G75*
G02*
X147175000Y-79299998I0J-249998D01*
G01*
G37*
%TD*%
%TO.C,R20*%
G36*
G01*
X143450002Y-85350000D02*
X142549998Y-85350000D01*
G75*
G02*
X142300000Y-85100002I0J249998D01*
G01*
X142300000Y-84574998D01*
G75*
G02*
X142549998Y-84325000I249998J0D01*
G01*
X143450002Y-84325000D01*
G75*
G02*
X143700000Y-84574998I0J-249998D01*
G01*
X143700000Y-85100002D01*
G75*
G02*
X143450002Y-85350000I-249998J0D01*
G01*
G37*
G36*
G01*
X143450002Y-87175000D02*
X142549998Y-87175000D01*
G75*
G02*
X142300000Y-86925002I0J249998D01*
G01*
X142300000Y-86399998D01*
G75*
G02*
X142549998Y-86150000I249998J0D01*
G01*
X143450002Y-86150000D01*
G75*
G02*
X143700000Y-86399998I0J-249998D01*
G01*
X143700000Y-86925002D01*
G75*
G02*
X143450002Y-87175000I-249998J0D01*
G01*
G37*
%TD*%
%TO.C,R19*%
G36*
G01*
X146150000Y-85200002D02*
X146150000Y-84299998D01*
G75*
G02*
X146399998Y-84050000I249998J0D01*
G01*
X146925002Y-84050000D01*
G75*
G02*
X147175000Y-84299998I0J-249998D01*
G01*
X147175000Y-85200002D01*
G75*
G02*
X146925002Y-85450000I-249998J0D01*
G01*
X146399998Y-85450000D01*
G75*
G02*
X146150000Y-85200002I0J249998D01*
G01*
G37*
G36*
G01*
X144325000Y-85200002D02*
X144325000Y-84299998D01*
G75*
G02*
X144574998Y-84050000I249998J0D01*
G01*
X145100002Y-84050000D01*
G75*
G02*
X145350000Y-84299998I0J-249998D01*
G01*
X145350000Y-85200002D01*
G75*
G02*
X145100002Y-85450000I-249998J0D01*
G01*
X144574998Y-85450000D01*
G75*
G02*
X144325000Y-85200002I0J249998D01*
G01*
G37*
%TD*%
%TO.C,R18*%
G36*
G01*
X145350000Y-86299998D02*
X145350000Y-87200002D01*
G75*
G02*
X145100002Y-87450000I-249998J0D01*
G01*
X144574998Y-87450000D01*
G75*
G02*
X144325000Y-87200002I0J249998D01*
G01*
X144325000Y-86299998D01*
G75*
G02*
X144574998Y-86050000I249998J0D01*
G01*
X145100002Y-86050000D01*
G75*
G02*
X145350000Y-86299998I0J-249998D01*
G01*
G37*
G36*
G01*
X147175000Y-86299998D02*
X147175000Y-87200002D01*
G75*
G02*
X146925002Y-87450000I-249998J0D01*
G01*
X146399998Y-87450000D01*
G75*
G02*
X146150000Y-87200002I0J249998D01*
G01*
X146150000Y-86299998D01*
G75*
G02*
X146399998Y-86050000I249998J0D01*
G01*
X146925002Y-86050000D01*
G75*
G02*
X147175000Y-86299998I0J-249998D01*
G01*
G37*
%TD*%
%TO.C,R17*%
G36*
G01*
X125512500Y-85299998D02*
X125512500Y-86200002D01*
G75*
G02*
X125262502Y-86450000I-249998J0D01*
G01*
X124737498Y-86450000D01*
G75*
G02*
X124487500Y-86200002I0J249998D01*
G01*
X124487500Y-85299998D01*
G75*
G02*
X124737498Y-85050000I249998J0D01*
G01*
X125262502Y-85050000D01*
G75*
G02*
X125512500Y-85299998I0J-249998D01*
G01*
G37*
G36*
G01*
X127337500Y-85299998D02*
X127337500Y-86200002D01*
G75*
G02*
X127087502Y-86450000I-249998J0D01*
G01*
X126562498Y-86450000D01*
G75*
G02*
X126312500Y-86200002I0J249998D01*
G01*
X126312500Y-85299998D01*
G75*
G02*
X126562498Y-85050000I249998J0D01*
G01*
X127087502Y-85050000D01*
G75*
G02*
X127337500Y-85299998I0J-249998D01*
G01*
G37*
%TD*%
%TO.C,R16*%
G36*
G01*
X125512500Y-87299998D02*
X125512500Y-88200002D01*
G75*
G02*
X125262502Y-88450000I-249998J0D01*
G01*
X124737498Y-88450000D01*
G75*
G02*
X124487500Y-88200002I0J249998D01*
G01*
X124487500Y-87299998D01*
G75*
G02*
X124737498Y-87050000I249998J0D01*
G01*
X125262502Y-87050000D01*
G75*
G02*
X125512500Y-87299998I0J-249998D01*
G01*
G37*
G36*
G01*
X127337500Y-87299998D02*
X127337500Y-88200002D01*
G75*
G02*
X127087502Y-88450000I-249998J0D01*
G01*
X126562498Y-88450000D01*
G75*
G02*
X126312500Y-88200002I0J249998D01*
G01*
X126312500Y-87299998D01*
G75*
G02*
X126562498Y-87050000I249998J0D01*
G01*
X127087502Y-87050000D01*
G75*
G02*
X127337500Y-87299998I0J-249998D01*
G01*
G37*
%TD*%
%TO.C,R15*%
G36*
G01*
X125512500Y-89299998D02*
X125512500Y-90200002D01*
G75*
G02*
X125262502Y-90450000I-249998J0D01*
G01*
X124737498Y-90450000D01*
G75*
G02*
X124487500Y-90200002I0J249998D01*
G01*
X124487500Y-89299998D01*
G75*
G02*
X124737498Y-89050000I249998J0D01*
G01*
X125262502Y-89050000D01*
G75*
G02*
X125512500Y-89299998I0J-249998D01*
G01*
G37*
G36*
G01*
X127337500Y-89299998D02*
X127337500Y-90200002D01*
G75*
G02*
X127087502Y-90450000I-249998J0D01*
G01*
X126562498Y-90450000D01*
G75*
G02*
X126312500Y-90200002I0J249998D01*
G01*
X126312500Y-89299998D01*
G75*
G02*
X126562498Y-89050000I249998J0D01*
G01*
X127087502Y-89050000D01*
G75*
G02*
X127337500Y-89299998I0J-249998D01*
G01*
G37*
%TD*%
%TO.C,R14*%
G36*
G01*
X125512500Y-91299998D02*
X125512500Y-92200002D01*
G75*
G02*
X125262502Y-92450000I-249998J0D01*
G01*
X124737498Y-92450000D01*
G75*
G02*
X124487500Y-92200002I0J249998D01*
G01*
X124487500Y-91299998D01*
G75*
G02*
X124737498Y-91050000I249998J0D01*
G01*
X125262502Y-91050000D01*
G75*
G02*
X125512500Y-91299998I0J-249998D01*
G01*
G37*
G36*
G01*
X127337500Y-91299998D02*
X127337500Y-92200002D01*
G75*
G02*
X127087502Y-92450000I-249998J0D01*
G01*
X126562498Y-92450000D01*
G75*
G02*
X126312500Y-92200002I0J249998D01*
G01*
X126312500Y-91299998D01*
G75*
G02*
X126562498Y-91050000I249998J0D01*
G01*
X127087502Y-91050000D01*
G75*
G02*
X127337500Y-91299998I0J-249998D01*
G01*
G37*
%TD*%
%TO.C,R13*%
G36*
G01*
X125512500Y-93549998D02*
X125512500Y-94450002D01*
G75*
G02*
X125262502Y-94700000I-249998J0D01*
G01*
X124737498Y-94700000D01*
G75*
G02*
X124487500Y-94450002I0J249998D01*
G01*
X124487500Y-93549998D01*
G75*
G02*
X124737498Y-93300000I249998J0D01*
G01*
X125262502Y-93300000D01*
G75*
G02*
X125512500Y-93549998I0J-249998D01*
G01*
G37*
G36*
G01*
X127337500Y-93549998D02*
X127337500Y-94450002D01*
G75*
G02*
X127087502Y-94700000I-249998J0D01*
G01*
X126562498Y-94700000D01*
G75*
G02*
X126312500Y-94450002I0J249998D01*
G01*
X126312500Y-93549998D01*
G75*
G02*
X126562498Y-93300000I249998J0D01*
G01*
X127087502Y-93300000D01*
G75*
G02*
X127337500Y-93549998I0J-249998D01*
G01*
G37*
%TD*%
%TO.C,R12*%
G36*
G01*
X125512500Y-95549998D02*
X125512500Y-96450002D01*
G75*
G02*
X125262502Y-96700000I-249998J0D01*
G01*
X124737498Y-96700000D01*
G75*
G02*
X124487500Y-96450002I0J249998D01*
G01*
X124487500Y-95549998D01*
G75*
G02*
X124737498Y-95300000I249998J0D01*
G01*
X125262502Y-95300000D01*
G75*
G02*
X125512500Y-95549998I0J-249998D01*
G01*
G37*
G36*
G01*
X127337500Y-95549998D02*
X127337500Y-96450002D01*
G75*
G02*
X127087502Y-96700000I-249998J0D01*
G01*
X126562498Y-96700000D01*
G75*
G02*
X126312500Y-96450002I0J249998D01*
G01*
X126312500Y-95549998D01*
G75*
G02*
X126562498Y-95300000I249998J0D01*
G01*
X127087502Y-95300000D01*
G75*
G02*
X127337500Y-95549998I0J-249998D01*
G01*
G37*
%TD*%
%TO.C,R11*%
G36*
G01*
X125512500Y-97549998D02*
X125512500Y-98450002D01*
G75*
G02*
X125262502Y-98700000I-249998J0D01*
G01*
X124737498Y-98700000D01*
G75*
G02*
X124487500Y-98450002I0J249998D01*
G01*
X124487500Y-97549998D01*
G75*
G02*
X124737498Y-97300000I249998J0D01*
G01*
X125262502Y-97300000D01*
G75*
G02*
X125512500Y-97549998I0J-249998D01*
G01*
G37*
G36*
G01*
X127337500Y-97549998D02*
X127337500Y-98450002D01*
G75*
G02*
X127087502Y-98700000I-249998J0D01*
G01*
X126562498Y-98700000D01*
G75*
G02*
X126312500Y-98450002I0J249998D01*
G01*
X126312500Y-97549998D01*
G75*
G02*
X126562498Y-97300000I249998J0D01*
G01*
X127087502Y-97300000D01*
G75*
G02*
X127337500Y-97549998I0J-249998D01*
G01*
G37*
%TD*%
%TO.C,R10*%
G36*
G01*
X125512500Y-99549998D02*
X125512500Y-100450002D01*
G75*
G02*
X125262502Y-100700000I-249998J0D01*
G01*
X124737498Y-100700000D01*
G75*
G02*
X124487500Y-100450002I0J249998D01*
G01*
X124487500Y-99549998D01*
G75*
G02*
X124737498Y-99300000I249998J0D01*
G01*
X125262502Y-99300000D01*
G75*
G02*
X125512500Y-99549998I0J-249998D01*
G01*
G37*
G36*
G01*
X127337500Y-99549998D02*
X127337500Y-100450002D01*
G75*
G02*
X127087502Y-100700000I-249998J0D01*
G01*
X126562498Y-100700000D01*
G75*
G02*
X126312500Y-100450002I0J249998D01*
G01*
X126312500Y-99549998D01*
G75*
G02*
X126562498Y-99300000I249998J0D01*
G01*
X127087502Y-99300000D01*
G75*
G02*
X127337500Y-99549998I0J-249998D01*
G01*
G37*
%TD*%
%TO.C,R9*%
G36*
G01*
X154100000Y-70604998D02*
X154100000Y-71505002D01*
G75*
G02*
X153850002Y-71755000I-249998J0D01*
G01*
X153324998Y-71755000D01*
G75*
G02*
X153075000Y-71505002I0J249998D01*
G01*
X153075000Y-70604998D01*
G75*
G02*
X153324998Y-70355000I249998J0D01*
G01*
X153850002Y-70355000D01*
G75*
G02*
X154100000Y-70604998I0J-249998D01*
G01*
G37*
G36*
G01*
X155925000Y-70604998D02*
X155925000Y-71505002D01*
G75*
G02*
X155675002Y-71755000I-249998J0D01*
G01*
X155149998Y-71755000D01*
G75*
G02*
X154900000Y-71505002I0J249998D01*
G01*
X154900000Y-70604998D01*
G75*
G02*
X155149998Y-70355000I249998J0D01*
G01*
X155675002Y-70355000D01*
G75*
G02*
X155925000Y-70604998I0J-249998D01*
G01*
G37*
%TD*%
%TO.C,R8*%
G36*
G01*
X154100000Y-73144998D02*
X154100000Y-74045002D01*
G75*
G02*
X153850002Y-74295000I-249998J0D01*
G01*
X153324998Y-74295000D01*
G75*
G02*
X153075000Y-74045002I0J249998D01*
G01*
X153075000Y-73144998D01*
G75*
G02*
X153324998Y-72895000I249998J0D01*
G01*
X153850002Y-72895000D01*
G75*
G02*
X154100000Y-73144998I0J-249998D01*
G01*
G37*
G36*
G01*
X155925000Y-73144998D02*
X155925000Y-74045002D01*
G75*
G02*
X155675002Y-74295000I-249998J0D01*
G01*
X155149998Y-74295000D01*
G75*
G02*
X154900000Y-74045002I0J249998D01*
G01*
X154900000Y-73144998D01*
G75*
G02*
X155149998Y-72895000I249998J0D01*
G01*
X155675002Y-72895000D01*
G75*
G02*
X155925000Y-73144998I0J-249998D01*
G01*
G37*
%TD*%
%TO.C,R7*%
G36*
G01*
X154100000Y-75684998D02*
X154100000Y-76585002D01*
G75*
G02*
X153850002Y-76835000I-249998J0D01*
G01*
X153324998Y-76835000D01*
G75*
G02*
X153075000Y-76585002I0J249998D01*
G01*
X153075000Y-75684998D01*
G75*
G02*
X153324998Y-75435000I249998J0D01*
G01*
X153850002Y-75435000D01*
G75*
G02*
X154100000Y-75684998I0J-249998D01*
G01*
G37*
G36*
G01*
X155925000Y-75684998D02*
X155925000Y-76585002D01*
G75*
G02*
X155675002Y-76835000I-249998J0D01*
G01*
X155149998Y-76835000D01*
G75*
G02*
X154900000Y-76585002I0J249998D01*
G01*
X154900000Y-75684998D01*
G75*
G02*
X155149998Y-75435000I249998J0D01*
G01*
X155675002Y-75435000D01*
G75*
G02*
X155925000Y-75684998I0J-249998D01*
G01*
G37*
%TD*%
%TO.C,R6*%
G36*
G01*
X154100000Y-78224998D02*
X154100000Y-79125002D01*
G75*
G02*
X153850002Y-79375000I-249998J0D01*
G01*
X153324998Y-79375000D01*
G75*
G02*
X153075000Y-79125002I0J249998D01*
G01*
X153075000Y-78224998D01*
G75*
G02*
X153324998Y-77975000I249998J0D01*
G01*
X153850002Y-77975000D01*
G75*
G02*
X154100000Y-78224998I0J-249998D01*
G01*
G37*
G36*
G01*
X155925000Y-78224998D02*
X155925000Y-79125002D01*
G75*
G02*
X155675002Y-79375000I-249998J0D01*
G01*
X155149998Y-79375000D01*
G75*
G02*
X154900000Y-79125002I0J249998D01*
G01*
X154900000Y-78224998D01*
G75*
G02*
X155149998Y-77975000I249998J0D01*
G01*
X155675002Y-77975000D01*
G75*
G02*
X155925000Y-78224998I0J-249998D01*
G01*
G37*
%TD*%
%TO.C,R5*%
G36*
G01*
X166100000Y-71874998D02*
X166100000Y-72775002D01*
G75*
G02*
X165850002Y-73025000I-249998J0D01*
G01*
X165324998Y-73025000D01*
G75*
G02*
X165075000Y-72775002I0J249998D01*
G01*
X165075000Y-71874998D01*
G75*
G02*
X165324998Y-71625000I249998J0D01*
G01*
X165850002Y-71625000D01*
G75*
G02*
X166100000Y-71874998I0J-249998D01*
G01*
G37*
G36*
G01*
X167925000Y-71874998D02*
X167925000Y-72775002D01*
G75*
G02*
X167675002Y-73025000I-249998J0D01*
G01*
X167149998Y-73025000D01*
G75*
G02*
X166900000Y-72775002I0J249998D01*
G01*
X166900000Y-71874998D01*
G75*
G02*
X167149998Y-71625000I249998J0D01*
G01*
X167675002Y-71625000D01*
G75*
G02*
X167925000Y-71874998I0J-249998D01*
G01*
G37*
%TD*%
%TO.C,R4*%
G36*
G01*
X166100000Y-74414998D02*
X166100000Y-75315002D01*
G75*
G02*
X165850002Y-75565000I-249998J0D01*
G01*
X165324998Y-75565000D01*
G75*
G02*
X165075000Y-75315002I0J249998D01*
G01*
X165075000Y-74414998D01*
G75*
G02*
X165324998Y-74165000I249998J0D01*
G01*
X165850002Y-74165000D01*
G75*
G02*
X166100000Y-74414998I0J-249998D01*
G01*
G37*
G36*
G01*
X167925000Y-74414998D02*
X167925000Y-75315002D01*
G75*
G02*
X167675002Y-75565000I-249998J0D01*
G01*
X167149998Y-75565000D01*
G75*
G02*
X166900000Y-75315002I0J249998D01*
G01*
X166900000Y-74414998D01*
G75*
G02*
X167149998Y-74165000I249998J0D01*
G01*
X167675002Y-74165000D01*
G75*
G02*
X167925000Y-74414998I0J-249998D01*
G01*
G37*
%TD*%
%TO.C,R3*%
G36*
G01*
X166100000Y-76954998D02*
X166100000Y-77855002D01*
G75*
G02*
X165850002Y-78105000I-249998J0D01*
G01*
X165324998Y-78105000D01*
G75*
G02*
X165075000Y-77855002I0J249998D01*
G01*
X165075000Y-76954998D01*
G75*
G02*
X165324998Y-76705000I249998J0D01*
G01*
X165850002Y-76705000D01*
G75*
G02*
X166100000Y-76954998I0J-249998D01*
G01*
G37*
G36*
G01*
X167925000Y-76954998D02*
X167925000Y-77855002D01*
G75*
G02*
X167675002Y-78105000I-249998J0D01*
G01*
X167149998Y-78105000D01*
G75*
G02*
X166900000Y-77855002I0J249998D01*
G01*
X166900000Y-76954998D01*
G75*
G02*
X167149998Y-76705000I249998J0D01*
G01*
X167675002Y-76705000D01*
G75*
G02*
X167925000Y-76954998I0J-249998D01*
G01*
G37*
%TD*%
%TO.C,R2*%
G36*
G01*
X166100000Y-79494998D02*
X166100000Y-80395002D01*
G75*
G02*
X165850002Y-80645000I-249998J0D01*
G01*
X165324998Y-80645000D01*
G75*
G02*
X165075000Y-80395002I0J249998D01*
G01*
X165075000Y-79494998D01*
G75*
G02*
X165324998Y-79245000I249998J0D01*
G01*
X165850002Y-79245000D01*
G75*
G02*
X166100000Y-79494998I0J-249998D01*
G01*
G37*
G36*
G01*
X167925000Y-79494998D02*
X167925000Y-80395002D01*
G75*
G02*
X167675002Y-80645000I-249998J0D01*
G01*
X167149998Y-80645000D01*
G75*
G02*
X166900000Y-80395002I0J249998D01*
G01*
X166900000Y-79494998D01*
G75*
G02*
X167149998Y-79245000I249998J0D01*
G01*
X167675002Y-79245000D01*
G75*
G02*
X167925000Y-79494998I0J-249998D01*
G01*
G37*
%TD*%
%TO.C,R1*%
G36*
G01*
X142549998Y-60900000D02*
X143450002Y-60900000D01*
G75*
G02*
X143700000Y-61149998I0J-249998D01*
G01*
X143700000Y-61675002D01*
G75*
G02*
X143450002Y-61925000I-249998J0D01*
G01*
X142549998Y-61925000D01*
G75*
G02*
X142300000Y-61675002I0J249998D01*
G01*
X142300000Y-61149998D01*
G75*
G02*
X142549998Y-60900000I249998J0D01*
G01*
G37*
G36*
G01*
X142549998Y-59075000D02*
X143450002Y-59075000D01*
G75*
G02*
X143700000Y-59324998I0J-249998D01*
G01*
X143700000Y-59850002D01*
G75*
G02*
X143450002Y-60100000I-249998J0D01*
G01*
X142549998Y-60100000D01*
G75*
G02*
X142300000Y-59850002I0J249998D01*
G01*
X142300000Y-59324998D01*
G75*
G02*
X142549998Y-59075000I249998J0D01*
G01*
G37*
%TD*%
D23*
%TO.C,Q3*%
X120400000Y-110500000D03*
D24*
X126700000Y-108220000D03*
X126700000Y-112780000D03*
%TD*%
D25*
%TO.C,Q1*%
X117890000Y-90655000D03*
X117890000Y-89385000D03*
X117890000Y-88115000D03*
X117890000Y-86845000D03*
X123110000Y-86845000D03*
X123110000Y-89385000D03*
X123110000Y-88115000D03*
X123110000Y-90655000D03*
%TD*%
%TO.C,Q2*%
X117890000Y-98905000D03*
X117890000Y-97635000D03*
X117890000Y-96365000D03*
X117890000Y-95095000D03*
X123110000Y-95095000D03*
X123110000Y-97635000D03*
X123110000Y-96365000D03*
X123110000Y-98905000D03*
%TD*%
%TO.C,C8*%
G36*
G01*
X139950000Y-111375000D02*
X141050000Y-111375000D01*
G75*
G02*
X141300000Y-111625000I0J-250000D01*
G01*
X141300000Y-114450000D01*
G75*
G02*
X141050000Y-114700000I-250000J0D01*
G01*
X139950000Y-114700000D01*
G75*
G02*
X139700000Y-114450000I0J250000D01*
G01*
X139700000Y-111625000D01*
G75*
G02*
X139950000Y-111375000I250000J0D01*
G01*
G37*
G36*
G01*
X139950000Y-106300000D02*
X141050000Y-106300000D01*
G75*
G02*
X141300000Y-106550000I0J-250000D01*
G01*
X141300000Y-109375000D01*
G75*
G02*
X141050000Y-109625000I-250000J0D01*
G01*
X139950000Y-109625000D01*
G75*
G02*
X139700000Y-109375000I0J250000D01*
G01*
X139700000Y-106550000D01*
G75*
G02*
X139950000Y-106300000I250000J0D01*
G01*
G37*
%TD*%
%TO.C,C7*%
G36*
G01*
X161950000Y-111375000D02*
X163050000Y-111375000D01*
G75*
G02*
X163300000Y-111625000I0J-250000D01*
G01*
X163300000Y-114450000D01*
G75*
G02*
X163050000Y-114700000I-250000J0D01*
G01*
X161950000Y-114700000D01*
G75*
G02*
X161700000Y-114450000I0J250000D01*
G01*
X161700000Y-111625000D01*
G75*
G02*
X161950000Y-111375000I250000J0D01*
G01*
G37*
G36*
G01*
X161950000Y-106300000D02*
X163050000Y-106300000D01*
G75*
G02*
X163300000Y-106550000I0J-250000D01*
G01*
X163300000Y-109375000D01*
G75*
G02*
X163050000Y-109625000I-250000J0D01*
G01*
X161950000Y-109625000D01*
G75*
G02*
X161700000Y-109375000I0J250000D01*
G01*
X161700000Y-106550000D01*
G75*
G02*
X161950000Y-106300000I250000J0D01*
G01*
G37*
%TD*%
%TO.C,C6*%
G36*
G01*
X146725000Y-109850000D02*
X145775000Y-109850000D01*
G75*
G02*
X145525000Y-109600000I0J250000D01*
G01*
X145525000Y-109100000D01*
G75*
G02*
X145775000Y-108850000I250000J0D01*
G01*
X146725000Y-108850000D01*
G75*
G02*
X146975000Y-109100000I0J-250000D01*
G01*
X146975000Y-109600000D01*
G75*
G02*
X146725000Y-109850000I-250000J0D01*
G01*
G37*
G36*
G01*
X146725000Y-111750000D02*
X145775000Y-111750000D01*
G75*
G02*
X145525000Y-111500000I0J250000D01*
G01*
X145525000Y-111000000D01*
G75*
G02*
X145775000Y-110750000I250000J0D01*
G01*
X146725000Y-110750000D01*
G75*
G02*
X146975000Y-111000000I0J-250000D01*
G01*
X146975000Y-111500000D01*
G75*
G02*
X146725000Y-111750000I-250000J0D01*
G01*
G37*
%TD*%
%TO.C,C5*%
G36*
G01*
X132200000Y-111375000D02*
X133300000Y-111375000D01*
G75*
G02*
X133550000Y-111625000I0J-250000D01*
G01*
X133550000Y-114450000D01*
G75*
G02*
X133300000Y-114700000I-250000J0D01*
G01*
X132200000Y-114700000D01*
G75*
G02*
X131950000Y-114450000I0J250000D01*
G01*
X131950000Y-111625000D01*
G75*
G02*
X132200000Y-111375000I250000J0D01*
G01*
G37*
G36*
G01*
X132200000Y-106300000D02*
X133300000Y-106300000D01*
G75*
G02*
X133550000Y-106550000I0J-250000D01*
G01*
X133550000Y-109375000D01*
G75*
G02*
X133300000Y-109625000I-250000J0D01*
G01*
X132200000Y-109625000D01*
G75*
G02*
X131950000Y-109375000I0J250000D01*
G01*
X131950000Y-106550000D01*
G75*
G02*
X132200000Y-106300000I250000J0D01*
G01*
G37*
%TD*%
%TO.C,C3*%
G36*
G01*
X160050000Y-81675000D02*
X160050000Y-82625000D01*
G75*
G02*
X159800000Y-82875000I-250000J0D01*
G01*
X159300000Y-82875000D01*
G75*
G02*
X159050000Y-82625000I0J250000D01*
G01*
X159050000Y-81675000D01*
G75*
G02*
X159300000Y-81425000I250000J0D01*
G01*
X159800000Y-81425000D01*
G75*
G02*
X160050000Y-81675000I0J-250000D01*
G01*
G37*
G36*
G01*
X161950000Y-81675000D02*
X161950000Y-82625000D01*
G75*
G02*
X161700000Y-82875000I-250000J0D01*
G01*
X161200000Y-82875000D01*
G75*
G02*
X160950000Y-82625000I0J250000D01*
G01*
X160950000Y-81675000D01*
G75*
G02*
X161200000Y-81425000I250000J0D01*
G01*
X161700000Y-81425000D01*
G75*
G02*
X161950000Y-81675000I0J-250000D01*
G01*
G37*
%TD*%
%TO.C,C2*%
G36*
G01*
X147725000Y-55300000D02*
X146775000Y-55300000D01*
G75*
G02*
X146525000Y-55050000I0J250000D01*
G01*
X146525000Y-54550000D01*
G75*
G02*
X146775000Y-54300000I250000J0D01*
G01*
X147725000Y-54300000D01*
G75*
G02*
X147975000Y-54550000I0J-250000D01*
G01*
X147975000Y-55050000D01*
G75*
G02*
X147725000Y-55300000I-250000J0D01*
G01*
G37*
G36*
G01*
X147725000Y-57200000D02*
X146775000Y-57200000D01*
G75*
G02*
X146525000Y-56950000I0J250000D01*
G01*
X146525000Y-56450000D01*
G75*
G02*
X146775000Y-56200000I250000J0D01*
G01*
X147725000Y-56200000D01*
G75*
G02*
X147975000Y-56450000I0J-250000D01*
G01*
X147975000Y-56950000D01*
G75*
G02*
X147725000Y-57200000I-250000J0D01*
G01*
G37*
%TD*%
M02*
